<svg viewBox="-100 -100 10200 10200" xmlns="http://www.w3.org/2000/svg">
<path d="M0,0 l10000,0 l0,10000 l-10000,0 z" fill="white"/>
<path d="M4244,9820 l739,0 l0,173 l-739,0 z" fill="#ff00ff" stroke="black" stroke-width="5"/>
<path d="M0,6005 l897,0 l0,3995 l-897,0 z" fill="#fe00ff" stroke="black" stroke-width="5"/>
<path d="M1468,4611 l902,0 l0,632 l-902,0 z" fill="#fe00ff" stroke="black" stroke-width="5"/>
<path d="M1451,1117 l2347,0 l0,636 l-2347,0 z" fill="#f800ff" stroke="black" stroke-width="5"/>
<path d="M1921,423 l1877,0 l0,694 l-1877,0 z" fill="#ee00ff" stroke="black" stroke-width="5"/>
<path d="M5854,7288 l1131,0 l0,642 l-1131,0 z" fill="#fe00ff" stroke="black" stroke-width="5"/>
<path d="M6706,0 l979,0 l0,2277 l-979,0 z" fill="#fe00ff" stroke="black" stroke-width="5"/>
<path d="M1451,5243 l1439,0 l0,1320 l-1439,0 z" fill="#9500ff" stroke="black" stroke-width="5"/>
<path d="M7528,6948 l2472,0 l0,879 l-2472,0 z" fill="#fe00ff" stroke="black" stroke-width="5"/>
<path d="M5710,341 l82,0 l0,375 l-82,0 z" fill="#fe00ff" stroke="black" stroke-width="5"/>
<path d="M2226,1753 l1910,0 l0,1504 l-1910,0 z" fill="#8200ff" stroke="black" stroke-width="5"/>
<path d="M897,9195 l370,0 l0,449 l-370,0 z" fill="#fe00ff" stroke="black" stroke-width="5"/>
<path d="M7380,4287 l2620,0 l0,1101 l-2620,0 z" fill="#bf00ff" stroke="black" stroke-width="5"/>
<path d="M2421,8160 l2032,0 l0,150 l-2032,0 z" fill="#fe00ff" stroke="black" stroke-width="5"/>
<path d="M6713,8386 l31,0 l0,241 l-31,0 z" fill="#fe00ff" stroke="black" stroke-width="5"/>
<path d="M3399,3457 l737,0 l0,3106 l-737,0 z" fill="#f100ff" stroke="black" stroke-width="5"/>
<path d="M4136,5284 l1079,0 l0,1094 l-1079,0 z" fill="#fe00ff" stroke="black" stroke-width="5"/>
<path d="M9568,9622 l324,0 l0,256 l-324,0 z" fill="#fe00ff" stroke="black" stroke-width="5"/>
<path d="M1717,423 l204,0 l0,285 l-204,0 z" fill="#fe00ff" stroke="black" stroke-width="5"/>
<path d="M5563,3874 l204,0 l0,6126 l-204,0 z" fill="#fe00ff" stroke="black" stroke-width="5"/>
<path d="M6712,2277 l696,0 l0,1186 l-696,0 z" fill="#fe00ff" stroke="black" stroke-width="5"/>
<path d="M2008,2116 l218,0 l0,795 l-218,0 z" fill="#fe00ff" stroke="black" stroke-width="5"/>
<path d="M7611,5388 l1504,0 l0,745 l-1504,0 z" fill="#fe00ff" stroke="black" stroke-width="5"/>
<path d="M4453,6378 l762,0 l0,3442 l-762,0 z" fill="#f500ff" stroke="black" stroke-width="5"/>
<path d="M1271,0 l180,0 l0,9992 l-180,0 z" fill="#fe00ff" stroke="black" stroke-width="5"/>
<path d="M2890,3457 l509,0 l0,3106 l-509,0 z" fill="#f900ff" stroke="black" stroke-width="5"/>
<path d="M7018,3463 l362,0 l0,5826 l-362,0 z" fill="#fe00ff" stroke="black" stroke-width="5"/>
<path d="M897,6489 l374,0 l0,2706 l-374,0 z" fill="#fe00ff" stroke="black" stroke-width="5"/>
<path d="M5229,2255 l1433,0 l0,1514 l-1433,0 z" fill="#fe00ff" stroke="black" stroke-width="5"/>
<path d="M2421,8310 l1814,0 l0,1690 l-1814,0 z" fill="#fe00ff" stroke="black" stroke-width="5"/>
<path d="M5833,5618 l360,0 l0,568 l-360,0 z" fill="#fe00ff" stroke="black" stroke-width="5"/>
<path d="M6773,7965 l245,0 l0,941 l-245,0 z" fill="#fe00ff" stroke="black" stroke-width="5"/>
<path d="M5215,3769 l348,0 l0,6231 l-348,0 z" fill="#fd00ff" stroke="black" stroke-width="5"/>
<path d="M5229,1125 l1477,0 l0,1130 l-1477,0 z" fill="#fe00ff" stroke="black" stroke-width="5"/>
<path d="M3798,0 l1376,0 l0,1753 l-1376,0 z" fill="#a800ff" stroke="black" stroke-width="5"/>
<path d="M0,1335 l747,0 l0,4670 l-747,0 z" fill="#fe00ff" stroke="black" stroke-width="5"/>
<path d="M4136,2602 l1079,0 l0,2682 l-1079,0 z" fill="#b000ff" stroke="black" stroke-width="5"/>
<path d="M4136,1753 l1093,0 l0,849 l-1093,0 z" fill="#fa00ff" stroke="black" stroke-width="5"/>
<path d="M7685,1356 l2314,0 l0,1693 l-2314,0 z" fill="#fe00ff" stroke="black" stroke-width="5"/>
<path d="M7408,3049 l2592,0 l0,1238 l-2592,0 z" fill="#8700ff" stroke="black" stroke-width="5"/>
<path d="M5174,0 l536,0 l0,1125 l-536,0 z" fill="#0600ff" stroke="black" stroke-width="5"/>
<path d="M7558,7896 l1470,0 l0,987 l-1470,0 z" fill="#fe00ff" stroke="black" stroke-width="5"/>
<path d="M1451,6563 l1333,0 l0,1597 l-1333,0 z" fill="#df00ff" stroke="black" stroke-width="5"/>
<path d="M2784,6563 l1669,0 l0,1597 l-1669,0 z" fill="#bf00ff" stroke="black" stroke-width="5"/>
<path d="M6780,9289 l600,0 l0,247 l-600,0 z" fill="#fe00ff" stroke="black" stroke-width="5"/>
<path d="M1451,3257 l2685,0 l0,200 l-2685,0 z" fill="#fe00ff" stroke="black" stroke-width="5"/>
<path d="M8614,9739 l75,0 l0,228 l-75,0 z" fill="#fe00ff" stroke="black" stroke-width="5"/>
<path d="M7380,6427 l1053,0 l0,465 l-1053,0 z" fill="#fe00ff" stroke="black" stroke-width="5"/>
<path d="M1451,0 l2347,0 l0,423 l-2347,0 z" fill="#1200ff" stroke="black" stroke-width="5"/>
<path d="M775,4688 l486,0 l0,576 l-486,0 z" fill="#fe00ff" stroke="black" stroke-width="5"/>
<path d="M6662,3615 l262,0 l0,910 l-262,0 z" fill="#fe00ff" stroke="black" stroke-width="5"/>
<path d="M1473,8169 l948,0 l0,1831 l-948,0 z" fill="#fe00ff" stroke="black" stroke-width="5"/>
<path d="M4305,9790 l60,0 l0,60 l-60,0 z" fill="green"/>
<path d="M4335,9820 l278.5,86.5" stroke="black" stroke-width="5"/>
<path d="M29,8198 l60,0 l0,60 l-60,0 z" fill="green"/>
<path d="M59,8228 l389.5,-225.5" stroke="black" stroke-width="5"/>
<path d="M1828,5212 l60,0 l0,60 l-60,0 z" fill="green"/>
<path d="M1858,5242 l61,-315" stroke="black" stroke-width="5"/>
<path d="M2338,1087 l60,0 l0,60 l-60,0 z" fill="green"/>
<path d="M2368,1117 l256.5,318" stroke="black" stroke-width="5"/>
<path d="M2477,530 l60,0 l0,60 l-60,0 z" fill="green"/>
<path d="M2507,560 l352.5,210" stroke="black" stroke-width="5"/>
<path d="M6503,7679 l60,0 l0,60 l-60,0 z" fill="green"/>
<path d="M6533,7709 l-113.5,-100" stroke="black" stroke-width="5"/>
<path d="M6710,860 l60,0 l0,60 l-60,0 z" fill="green"/>
<path d="M6740,890 l455.5,248.5" stroke="black" stroke-width="5"/>
<path d="M1438,5634 l60,0 l0,60 l-60,0 z" fill="green"/>
<path d="M1468,5664 l702.5,239" stroke="black" stroke-width="5"/>
<path d="M8266,7240 l60,0 l0,60 l-60,0 z" fill="green"/>
<path d="M8296,7270 l468,117.5" stroke="black" stroke-width="5"/>
<path d="M5680,548 l60,0 l0,60 l-60,0 z" fill="green"/>
<path d="M5710,578 l41,-49.5" stroke="black" stroke-width="5"/>
<path d="M3214,2300 l60,0 l0,60 l-60,0 z" fill="green"/>
<path d="M3244,2330 l-63,175" stroke="black" stroke-width="5"/>
<path d="M969,9268 l60,0 l0,60 l-60,0 z" fill="green"/>
<path d="M999,9298 l83,121.5" stroke="black" stroke-width="5"/>
<path d="M8352,4995 l60,0 l0,60 l-60,0 z" fill="green"/>
<path d="M8382,5025 l308,-187.5" stroke="black" stroke-width="5"/>
<path d="M3698,8130 l60,0 l0,60 l-60,0 z" fill="green"/>
<path d="M3728,8160 l-291,75" stroke="black" stroke-width="5"/>
<path d="M6687,8480 l60,0 l0,60 l-60,0 z" fill="green"/>
<path d="M6717,8510 l11.5,-3.5" stroke="black" stroke-width="5"/>
<path d="M3421,5497 l60,0 l0,60 l-60,0 z" fill="green"/>
<path d="M3451,5527 l316.5,-517" stroke="black" stroke-width="5"/>
<path d="M4653,5254 l60,0 l0,60 l-60,0 z" fill="green"/>
<path d="M4683,5284 l-7.5,547" stroke="black" stroke-width="5"/>
<path d="M9611,9823 l60,0 l0,60 l-60,0 z" fill="green"/>
<path d="M9641,9853 l89,-103" stroke="black" stroke-width="5"/>
<path d="M1890,569 l60,0 l0,60 l-60,0 z" fill="green"/>
<path d="M1920,599 l-101,-33.5" stroke="black" stroke-width="5"/>
<path d="M5533,5909 l60,0 l0,60 l-60,0 z" fill="green"/>
<path d="M5563,5939 l102,998" stroke="black" stroke-width="5"/>
<path d="M7376,3428 l60,0 l0,60 l-60,0 z" fill="green"/>
<path d="M7406,3458 l-346,-588" stroke="black" stroke-width="5"/>
<path d="M2195,2424 l60,0 l0,60 l-60,0 z" fill="green"/>
<path d="M2225,2454 l-108,59.5" stroke="black" stroke-width="5"/>
<path d="M8434,5358 l60,0 l0,60 l-60,0 z" fill="green"/>
<path d="M8464,5388 l-101,372.5" stroke="black" stroke-width="5"/>
<path d="M4758,6442 l60,0 l0,60 l-60,0 z" fill="green"/>
<path d="M4788,6472 l46,1627" stroke="black" stroke-width="5"/>
<path d="M1420,8645 l60,0 l0,60 l-60,0 z" fill="green"/>
<path d="M1450,8675 l-89,-3679" stroke="black" stroke-width="5"/>
<path d="M3367,5448 l60,0 l0,60 l-60,0 z" fill="green"/>
<path d="M3397,5478 l-252.5,-468" stroke="black" stroke-width="5"/>
<path d="M7349,8003 l60,0 l0,60 l-60,0 z" fill="green"/>
<path d="M7379,8033 l-180,-1657" stroke="black" stroke-width="5"/>
<path d="M913,8220 l60,0 l0,60 l-60,0 z" fill="green"/>
<path d="M943,8250 l141,-408" stroke="black" stroke-width="5"/>
<path d="M5617,3479 l60,0 l0,60 l-60,0 z" fill="green"/>
<path d="M5647,3509 l298.5,-497" stroke="black" stroke-width="5"/>
<path d="M3184,9289 l60,0 l0,60 l-60,0 z" fill="green"/>
<path d="M3214,9319 l114,-164" stroke="black" stroke-width="5"/>
<path d="M5838,5905 l60,0 l0,60 l-60,0 z" fill="green"/>
<path d="M5868,5935 l145,-33" stroke="black" stroke-width="5"/>
<path d="M6986,8195 l60,0 l0,60 l-60,0 z" fill="green"/>
<path d="M7016,8225 l-120.5,210.5" stroke="black" stroke-width="5"/>
<path d="M5185,5736 l60,0 l0,60 l-60,0 z" fill="green"/>
<path d="M5215,5766 l174,1118.5" stroke="black" stroke-width="5"/>
<path d="M5645,1095 l60,0 l0,60 l-60,0 z" fill="green"/>
<path d="M5675,1125 l292.5,565" stroke="black" stroke-width="5"/>
<path d="M4404,1456 l60,0 l0,60 l-60,0 z" fill="green"/>
<path d="M4434,1486 l52,-609.5" stroke="black" stroke-width="5"/>
<path d="M103,4817 l60,0 l0,60 l-60,0 z" fill="green"/>
<path d="M133,4847 l240.5,-1177" stroke="black" stroke-width="5"/>
<path d="M5093,3770 l60,0 l0,60 l-60,0 z" fill="green"/>
<path d="M5123,3800 l-447.5,143" stroke="black" stroke-width="5"/>
<path d="M4410,1963 l60,0 l0,60 l-60,0 z" fill="green"/>
<path d="M4440,1993 l242.5,184.5" stroke="black" stroke-width="5"/>
<path d="M9015,3018 l60,0 l0,60 l-60,0 z" fill="green"/>
<path d="M9045,3048 l-203,-845.5" stroke="black" stroke-width="5"/>
<path d="M8960,3194 l60,0 l0,60 l-60,0 z" fill="green"/>
<path d="M8990,3224 l-286,444" stroke="black" stroke-width="5"/>
<path d="M5146,511 l60,0 l0,60 l-60,0 z" fill="green"/>
<path d="M5176,541 l266,21.5" stroke="black" stroke-width="5"/>
<path d="M8111,7869 l60,0 l0,60 l-60,0 z" fill="green"/>
<path d="M8141,7899 l152,490.5" stroke="black" stroke-width="5"/>
<path d="M1695,6898 l60,0 l0,60 l-60,0 z" fill="green"/>
<path d="M1725,6928 l392.5,433.5" stroke="black" stroke-width="5"/>
<path d="M3880,6602 l60,0 l0,60 l-60,0 z" fill="green"/>
<path d="M3910,6632 l-291.5,729.5" stroke="black" stroke-width="5"/>
<path d="M7096,9259 l60,0 l0,60 l-60,0 z" fill="green"/>
<path d="M7126,9289 l-46,123.5" stroke="black" stroke-width="5"/>
<path d="M3748,3247 l60,0 l0,60 l-60,0 z" fill="green"/>
<path d="M3778,3277 l-984.5,80" stroke="black" stroke-width="5"/>
<path d="M8606,9837 l60,0 l0,60 l-60,0 z" fill="green"/>
<path d="M8636,9867 l15.5,-14" stroke="black" stroke-width="5"/>
<path d="M7896,6845 l60,0 l0,60 l-60,0 z" fill="green"/>
<path d="M7926,6875 l-19.5,-215.5" stroke="black" stroke-width="5"/>
<path d="M2478,44 l60,0 l0,60 l-60,0 z" fill="green"/>
<path d="M2508,74 l116.5,137.5" stroke="black" stroke-width="5"/>
<path d="M935,4992 l60,0 l0,60 l-60,0 z" fill="green"/>
<path d="M965,5022 l53,-46" stroke="black" stroke-width="5"/>
<path d="M6633,4025 l60,0 l0,60 l-60,0 z" fill="green"/>
<path d="M6663,4055 l130,15" stroke="black" stroke-width="5"/>
<path d="M1833,8376 l60,0 l0,60 l-60,0 z" fill="green"/>
<path d="M1863,8406 l84,678.5" stroke="black" stroke-width="5"/>
<text font-size="196.116135138184" text-anchor="middle" x="4613.5" y="9975.140647298364">
0
</text>
<text font-size="196.116135138184" text-anchor="middle" x="448.5" y="8071.1406472983645">
1
</text>
<text font-size="196.116135138184" text-anchor="middle" x="1919" y="4995.6406472983645">
2
</text>
<text font-size="196.116135138184" text-anchor="middle" x="2624.5" y="1503.6406472983645">
3
</text>
<text font-size="196.116135138184" text-anchor="middle" x="2859.5" y="838.6406472983645">
4
</text>
<text font-size="196.116135138184" text-anchor="middle" x="6419.5" y="7677.6406472983645">
5
</text>
<text font-size="196.116135138184" text-anchor="middle" x="7195.5" y="1207.1406472983645">
6
</text>
<text font-size="196.116135138184" text-anchor="middle" x="2170.5" y="5971.6406472983645">
7
</text>
<text font-size="196.116135138184" text-anchor="middle" x="8764" y="7456.1406472983645">
8
</text>
<text font-size="196.116135138184" text-anchor="middle" x="5751" y="597.1406472983645">
9
</text>
<text font-size="196.116135138184" text-anchor="middle" x="3181" y="2573.6406472983645">
10
</text>
<text font-size="196.116135138184" text-anchor="middle" x="1082" y="9488.140647298364">
11
</text>
<text font-size="196.116135138184" text-anchor="middle" x="8690" y="4906.1406472983645">
12
</text>
<text font-size="196.116135138184" text-anchor="middle" x="3437" y="8303.640647298364">
13
</text>
<text font-size="196.116135138184" text-anchor="middle" x="6728.5" y="8575.140647298364">
14
</text>
<text font-size="196.116135138184" text-anchor="middle" x="3767.5" y="5078.6406472983645">
15
</text>
<text font-size="196.116135138184" text-anchor="middle" x="4675.5" y="5899.6406472983645">
16
</text>
<text font-size="196.116135138184" text-anchor="middle" x="9730" y="9818.640647298364">
17
</text>
<text font-size="196.116135138184" text-anchor="middle" x="1819" y="634.1406472983645">
18
</text>
<text font-size="196.116135138184" text-anchor="middle" x="5665" y="7005.6406472983645">
19
</text>
<text font-size="196.116135138184" text-anchor="middle" x="7060" y="2938.6406472983645">
20
</text>
<text font-size="196.116135138184" text-anchor="middle" x="2117" y="2582.1406472983645">
21
</text>
<text font-size="196.116135138184" text-anchor="middle" x="8363" y="5829.1406472983645">
22
</text>
<text font-size="196.116135138184" text-anchor="middle" x="4834" y="8167.6406472983645">
23
</text>
<text font-size="196.116135138184" text-anchor="middle" x="1361" y="5064.6406472983645">
24
</text>
<text font-size="196.116135138184" text-anchor="middle" x="3144.5" y="5078.6406472983645">
25
</text>
<text font-size="196.116135138184" text-anchor="middle" x="7199" y="6444.6406472983645">
26
</text>
<text font-size="196.116135138184" text-anchor="middle" x="1084" y="7910.6406472983645">
27
</text>
<text font-size="196.116135138184" text-anchor="middle" x="5945.5" y="3080.6406472983645">
28
</text>
<text font-size="196.116135138184" text-anchor="middle" x="3328" y="9223.640647298364">
29
</text>
<text font-size="196.116135138184" text-anchor="middle" x="6013" y="5970.6406472983645">
30
</text>
<text font-size="196.116135138184" text-anchor="middle" x="6895.5" y="8504.140647298364">
31
</text>
<text font-size="196.116135138184" text-anchor="middle" x="5389" y="6953.1406472983645">
32
</text>
<text font-size="196.116135138184" text-anchor="middle" x="5967.5" y="1758.6406472983645">
33
</text>
<text font-size="196.116135138184" text-anchor="middle" x="4486" y="945.1406472983645">
34
</text>
<text font-size="196.116135138184" text-anchor="middle" x="373.5" y="3738.6406472983645">
35
</text>
<text font-size="196.116135138184" text-anchor="middle" x="4675.5" y="4011.6406472983645">
36
</text>
<text font-size="196.116135138184" text-anchor="middle" x="4682.5" y="2246.1406472983645">
37
</text>
<text font-size="196.116135138184" text-anchor="middle" x="8842" y="2271.1406472983645">
38
</text>
<text font-size="196.116135138184" text-anchor="middle" x="8704" y="3736.6406472983645">
39
</text>
<text font-size="196.116135138184" text-anchor="middle" x="5442" y="631.1406472983645">
40
</text>
<text font-size="196.116135138184" text-anchor="middle" x="8293" y="8458.140647298364">
41
</text>
<text font-size="196.116135138184" text-anchor="middle" x="2117.5" y="7430.1406472983645">
42
</text>
<text font-size="196.116135138184" text-anchor="middle" x="3618.5" y="7430.1406472983645">
43
</text>
<text font-size="196.116135138184" text-anchor="middle" x="7080" y="9481.140647298364">
44
</text>
<text font-size="196.116135138184" text-anchor="middle" x="2793.5" y="3425.6406472983645">
45
</text>
<text font-size="196.116135138184" text-anchor="middle" x="8651.5" y="9921.640647298364">
46
</text>
<text font-size="196.116135138184" text-anchor="middle" x="7906.5" y="6728.1406472983645">
47
</text>
<text font-size="196.116135138184" text-anchor="middle" x="2624.5" y="280.1406472983644">
48
</text>
<text font-size="196.116135138184" text-anchor="middle" x="1018" y="5044.6406472983645">
49
</text>
<text font-size="196.116135138184" text-anchor="middle" x="6793" y="4138.6406472983645">
50
</text>
<text font-size="196.116135138184" text-anchor="middle" x="1947" y="9153.140647298364">
51
</text>
</svg>