<svg viewBox="-100 -100 10200 10200" xmlns="http://www.w3.org/2000/svg">
<path d="M0,0 l10000,0 l0,10000 l-10000,0 z" fill="white"/>
<path d="M5394,1472 l2560,0 l0,170 l-2560,0 z" fill="#7600ff" stroke="black" stroke-width="5"/>
<path d="M19,4615 l1310,0 l0,1683 l-1310,0 z" fill="#fe00ff" stroke="black" stroke-width="5"/>
<path d="M7590,1675 l364,0 l0,354 l-364,0 z" fill="#fe00ff" stroke="black" stroke-width="5"/>
<path d="M5943,1823 l922,0 l0,1000 l-922,0 z" fill="#4100ff" stroke="black" stroke-width="5"/>
<path d="M4238,559 l439,0 l0,407 l-439,0 z" fill="#fe00ff" stroke="black" stroke-width="5"/>
<path d="M5005,5730 l1456,0 l0,942 l-1456,0 z" fill="#fe00ff" stroke="black" stroke-width="5"/>
<path d="M8679,5410 l349,0 l0,514 l-349,0 z" fill="#fe00ff" stroke="black" stroke-width="5"/>
<path d="M8467,3724 l841,0 l0,671 l-841,0 z" fill="#fe00ff" stroke="black" stroke-width="5"/>
<path d="M3420,8227 l334,0 l0,255 l-334,0 z" fill="#fe00ff" stroke="black" stroke-width="5"/>
<path d="M238,7490 l1327,0 l0,866 l-1327,0 z" fill="#fe00ff" stroke="black" stroke-width="5"/>
<path d="M5394,924 l732,0 l0,548 l-732,0 z" fill="#fe00ff" stroke="black" stroke-width="5"/>
<path d="M3686,6413 l171,0 l0,533 l-171,0 z" fill="#fe00ff" stroke="black" stroke-width="5"/>
<path d="M3768,7046 l786,0 l0,402 l-786,0 z" fill="#fe00ff" stroke="black" stroke-width="5"/>
<path d="M9047,5791 l953,0 l0,875 l-953,0 z" fill="#fb00ff" stroke="black" stroke-width="5"/>
<path d="M0,8819 l1024,0 l0,689 l-1024,0 z" fill="#5400ff" stroke="black" stroke-width="5"/>
<path d="M6768,5498 l714,0 l0,589 l-714,0 z" fill="#fe00ff" stroke="black" stroke-width="5"/>
<path d="M6264,3778 l316,0 l0,130 l-316,0 z" fill="#fe00ff" stroke="black" stroke-width="5"/>
<path d="M1335,5294 l487,0 l0,451 l-487,0 z" fill="#fe00ff" stroke="black" stroke-width="5"/>
<path d="M7256,4693 l568,0 l0,742 l-568,0 z" fill="#fe00ff" stroke="black" stroke-width="5"/>
<path d="M3102,4068 l387,0 l0,4139 l-387,0 z" fill="#fe00ff" stroke="black" stroke-width="5"/>
<path d="M6852,3048 l588,0 l0,1149 l-588,0 z" fill="#fe00ff" stroke="black" stroke-width="5"/>
<path d="M893,8503 l3038,0 l0,161 l-3038,0 z" fill="#6300ff" stroke="black" stroke-width="5"/>
<path d="M6126,924 l582,0 l0,548 l-582,0 z" fill="#0600ff" stroke="black" stroke-width="5"/>
<path d="M8366,6426 l681,0 l0,508 l-681,0 z" fill="#fe00ff" stroke="black" stroke-width="5"/>
<path d="M6692,4199 l556,0 l0,1272 l-556,0 z" fill="#fe00ff" stroke="black" stroke-width="5"/>
<path d="M5582,4943 l64,0 l0,217 l-64,0 z" fill="#fe00ff" stroke="black" stroke-width="5"/>
<path d="M3460,8664 l2028,0 l0,1336 l-2028,0 z" fill="#f400ff" stroke="black" stroke-width="5"/>
<path d="M572,3268 l896,0 l0,582 l-896,0 z" fill="#fe00ff" stroke="black" stroke-width="5"/>
<path d="M2388,5279 l412,0 l0,2894 l-412,0 z" fill="#fe00ff" stroke="black" stroke-width="5"/>
<path d="M4128,0 l2654,0 l0,256 l-2654,0 z" fill="#fa00ff" stroke="black" stroke-width="5"/>
<path d="M7954,1590 l1060,0 l0,892 l-1060,0 z" fill="#7600ff" stroke="black" stroke-width="5"/>
<path d="M5468,5186 l505,0 l0,527 l-505,0 z" fill="#fe00ff" stroke="black" stroke-width="5"/>
<path d="M7554,3170 l910,0 l0,904 l-910,0 z" fill="#fe00ff" stroke="black" stroke-width="5"/>
<path d="M3525,3330 l611,0 l0,776 l-611,0 z" fill="#fe00ff" stroke="black" stroke-width="5"/>
<path d="M5427,6684 l345,0 l0,294 l-345,0 z" fill="#fe00ff" stroke="black" stroke-width="5"/>
<path d="M2467,748 l894,0 l0,886 l-894,0 z" fill="#fe00ff" stroke="black" stroke-width="5"/>
<path d="M2149,3815 l493,0 l0,249 l-493,0 z" fill="#fe00ff" stroke="black" stroke-width="5"/>
<path d="M4128,1902 l1815,0 l0,477 l-1815,0 z" fill="#ed00ff" stroke="black" stroke-width="5"/>
<path d="M5023,1457 l371,0 l0,445 l-371,0 z" fill="#fe00ff" stroke="black" stroke-width="5"/>
<path d="M3857,5769 l1148,0 l0,1277 l-1148,0 z" fill="#a300ff" stroke="black" stroke-width="5"/>
<path d="M3931,7448 l856,0 l0,1216 l-856,0 z" fill="#fe00ff" stroke="black" stroke-width="5"/>
<path d="M4312,4302 l698,0 l0,697 l-698,0 z" fill="#fe00ff" stroke="black" stroke-width="5"/>
<path d="M0,9508 l1024,0 l0,492 l-1024,0 z" fill="#dc00ff" stroke="black" stroke-width="5"/>
<path d="M7779,8709 l359,0 l0,1063 l-359,0 z" fill="#fe00ff" stroke="black" stroke-width="5"/>
<path d="M5798,8381 l955,0 l0,1619 l-955,0 z" fill="#6e00ff" stroke="black" stroke-width="5"/>
<path d="M5870,7210 l1248,0 l0,632 l-1248,0 z" fill="#fe00ff" stroke="black" stroke-width="5"/>
<path d="M1468,2190 l847,0 l0,930 l-847,0 z" fill="#d400ff" stroke="black" stroke-width="5"/>
<path d="M7953,7603 l186,0 l0,166 l-186,0 z" fill="#fe00ff" stroke="black" stroke-width="5"/>
<path d="M4136,2379 l998,0 l0,1354 l-998,0 z" fill="#e300ff" stroke="black" stroke-width="5"/>
<path d="M6295,6693 l548,0 l0,507 l-548,0 z" fill="#fe00ff" stroke="black" stroke-width="5"/>
<path d="M6060,256 l722,0 l0,668 l-722,0 z" fill="#7f00ff" stroke="black" stroke-width="5"/>
<path d="M3525,0 l603,0 l0,3330 l-603,0 z" fill="#e200ff" stroke="black" stroke-width="5"/>
<path d="M1998,7228 l332,0 l0,221 l-332,0 z" fill="#fe00ff" stroke="black" stroke-width="5"/>
<path d="M9006,4795 l607,0 l0,172 l-607,0 z" fill="#fe00ff" stroke="black" stroke-width="5"/>
<path d="M8727,4973 l306,0 l0,406 l-306,0 z" fill="#fe00ff" stroke="black" stroke-width="5"/>
<path d="M5646,3984 l588,0 l0,1168 l-588,0 z" fill="#fe00ff" stroke="black" stroke-width="5"/>
<path d="M1939,3548 l1014,0 l0,267 l-1014,0 z" fill="#0e00ff" stroke="black" stroke-width="5"/>
<path d="M7954,419 l1098,0 l0,1171 l-1098,0 z" fill="#fe00ff" stroke="black" stroke-width="5"/>
<path d="M168,1693 l535,0 l0,334 l-535,0 z" fill="#fe00ff" stroke="black" stroke-width="5"/>
<path d="M218,8356 l675,0 l0,463 l-675,0 z" fill="#fb00ff" stroke="black" stroke-width="5"/>
<path d="M2439,1634 l166,0 l0,556 l-166,0 z" fill="#0300ff" stroke="black" stroke-width="5"/>
<path d="M6051,1642 l764,0 l0,181 l-764,0 z" fill="#fe00ff" stroke="black" stroke-width="5"/>
<path d="M1468,3120 l471,0 l0,1139 l-471,0 z" fill="#fe00ff" stroke="black" stroke-width="5"/>
<path d="M9033,4967 l967,0 l0,824 l-967,0 z" fill="#4c00ff" stroke="black" stroke-width="5"/>
<path d="M2953,3672 l572,0 l0,396 l-572,0 z" fill="#fb00ff" stroke="black" stroke-width="5"/>
<path d="M5548,298 l512,0 l0,606 l-512,0 z" fill="#fe00ff" stroke="black" stroke-width="5"/>
<path d="M11,8113 l207,0 l0,518 l-207,0 z" fill="#fe00ff" stroke="black" stroke-width="5"/>
<path d="M4136,3733 l408,0 l0,283 l-408,0 z" fill="#fe00ff" stroke="black" stroke-width="5"/>
<path d="M1886,8664 l713,0 l0,669 l-713,0 z" fill="#fe00ff" stroke="black" stroke-width="5"/>
<path d="M6708,985 l1246,0 l0,487 l-1246,0 z" fill="#2d00ff" stroke="black" stroke-width="5"/>
<path d="M8845,4408 l773,0 l0,387 l-773,0 z" fill="#fe00ff" stroke="black" stroke-width="5"/>
<path d="M8427,5270 l250,0 l0,281 l-250,0 z" fill="#fe00ff" stroke="black" stroke-width="5"/>
<path d="M9386,224 l610,0 l0,649 l-610,0 z" fill="#fe00ff" stroke="black" stroke-width="5"/>
<path d="M1847,8222 l1573,0 l0,281 l-1573,0 z" fill="#fe00ff" stroke="black" stroke-width="5"/>
<path d="M1024,9086 l432,0 l0,674 l-432,0 z" fill="#fe00ff" stroke="black" stroke-width="5"/>
<path d="M5488,8381 l310,0 l0,1374 l-310,0 z" fill="#fe00ff" stroke="black" stroke-width="5"/>
<path d="M9735,884 l253,0 l0,329 l-253,0 z" fill="#fe00ff" stroke="black" stroke-width="5"/>
<path d="M1939,3120 l1170,0 l0,428 l-1170,0 z" fill="#7400ff" stroke="black" stroke-width="5"/>
<path d="M6782,0 l428,0 l0,985 l-428,0 z" fill="#e300ff" stroke="black" stroke-width="5"/>
<path d="M3489,5011 l1516,0 l0,758 l-1516,0 z" fill="#fe00ff" stroke="black" stroke-width="5"/>
<path d="M7792,6205 l332,0 l0,284 l-332,0 z" fill="#fe00ff" stroke="black" stroke-width="5"/>
<path d="M3109,2131 l416,0 l0,1541 l-416,0 z" fill="#ba00ff" stroke="black" stroke-width="5"/>
<path d="M8849,6934 l598,0 l0,561 l-598,0 z" fill="#fe00ff" stroke="black" stroke-width="5"/>
<path d="M7824,4074 l603,0 l0,1356 l-603,0 z" fill="#fe00ff" stroke="black" stroke-width="5"/>
<path d="M2874,5849 l214,0 l0,378 l-214,0 z" fill="#fe00ff" stroke="black" stroke-width="5"/>
<path d="M2315,2190 l794,0 l0,930 l-794,0 z" fill="#6c00ff" stroke="black" stroke-width="5"/>
<path d="M7210,0 l744,0 l0,985 l-744,0 z" fill="#5f00ff" stroke="black" stroke-width="5"/>
<path d="M9734,21 l130,0 l0,65 l-130,0 z" fill="#fe00ff" stroke="black" stroke-width="5"/>
<path d="M6239,4566 l453,0 l0,750 l-453,0 z" fill="#fe00ff" stroke="black" stroke-width="5"/>
<path d="M6467,2994 l385,0 l0,703 l-385,0 z" fill="#fe00ff" stroke="black" stroke-width="5"/>
<path d="M328,2785 l1140,0 l0,483 l-1140,0 z" fill="#3600ff" stroke="black" stroke-width="5"/>
<path d="M2605,1644 l910,0 l0,487 l-910,0 z" fill="#fe00ff" stroke="black" stroke-width="5"/>
<path d="M8958,8624 l419,0 l0,554 l-419,0 z" fill="#fe00ff" stroke="black" stroke-width="5"/>
<path d="M2238,4068 l794,0 l0,755 l-794,0 z" fill="#fe00ff" stroke="black" stroke-width="5"/>
<path d="M8138,8611 l820,0 l0,1389 l-820,0 z" fill="#f700ff" stroke="black" stroke-width="5"/>
<path d="M1629,1001 l810,0 l0,1189 l-810,0 z" fill="#fe00ff" stroke="black" stroke-width="5"/>
<path d="M5134,2823 l1333,0 l0,955 l-1333,0 z" fill="#fb00ff" stroke="black" stroke-width="5"/>
<path d="M2599,8664 l861,0 l0,1191 l-861,0 z" fill="#fe00ff" stroke="black" stroke-width="5"/>
<path d="M9548,6666 l452,0 l0,3334 l-452,0 z" fill="#c100ff" stroke="black" stroke-width="5"/>
<path d="M6753,8406 l1026,0 l0,1594 l-1026,0 z" fill="#fe00ff" stroke="black" stroke-width="5"/>
<path d="M2829,6711 l267,0 l0,250 l-267,0 z" fill="#fe00ff" stroke="black" stroke-width="5"/>
<path d="M1702,6105 l670,0 l0,684 l-670,0 z" fill="#fe00ff" stroke="black" stroke-width="5"/>
<path d="M9770,1453 l230,0 l0,1262 l-230,0 z" fill="#fe00ff" stroke="black" stroke-width="5"/>
<path d="M8816,3130 l730,0 l0,562 l-730,0 z" fill="#fe00ff" stroke="black" stroke-width="5"/>
<path d="M8139,7740 l1409,0 l0,871 l-1409,0 z" fill="#fe00ff" stroke="black" stroke-width="5"/>
<path d="M513,0 l1954,0 l0,1001 l-1954,0 z" fill="#bb00ff" stroke="black" stroke-width="5"/>
<path d="M9014,1590 l518,0 l0,892 l-518,0 z" fill="#0d00ff" stroke="black" stroke-width="5"/>
<path d="M0,2027 l1232,0 l0,758 l-1232,0 z" fill="#9300ff" stroke="black" stroke-width="5"/>
<path d="M9532,1227 l238,0 l0,1647 l-238,0 z" fill="#fe00ff" stroke="black" stroke-width="5"/>
<path d="M1232,1778 l236,0 l0,839 l-236,0 z" fill="#fe00ff" stroke="black" stroke-width="5"/>
<path d="M6865,1848 l715,0 l0,1042 l-715,0 z" fill="#fe00ff" stroke="black" stroke-width="5"/>
<path d="M7778,2482 l1678,0 l0,648 l-1678,0 z" fill="#fe00ff" stroke="black" stroke-width="5"/>
<path d="M4793,3746 l105,0 l0,48 l-105,0 z" fill="#fe00ff" stroke="black" stroke-width="5"/>
<path d="M7496,5435 l898,0 l0,770 l-898,0 z" fill="#fe00ff" stroke="black" stroke-width="5"/>
<path d="M4787,7847 l2439,0 l0,534 l-2439,0 z" fill="#fe00ff" stroke="black" stroke-width="5"/>
<path d="M0,0 l513,0 l0,1451 l-513,0 z" fill="#fe00ff" stroke="black" stroke-width="5"/>
<path d="M0,2804 l328,0 l0,1569 l-328,0 z" fill="#fe00ff" stroke="black" stroke-width="5"/>
<path d="M2498,38 l741,0 l0,615 l-741,0 z" fill="#fe00ff" stroke="black" stroke-width="5"/>
<path d="M6287,1500 l60,0 l0,60 l-60,0 z" fill="green"/>
<path d="M6317,1530 l357,27" stroke="black" stroke-width="5"/>
<path d="M379,5437 l60,0 l0,60 l-60,0 z" fill="green"/>
<path d="M409,5467 l265,-10.5" stroke="black" stroke-width="5"/>
<path d="M7821,1789 l60,0 l0,60 l-60,0 z" fill="green"/>
<path d="M7851,1819 l-79,33" stroke="black" stroke-width="5"/>
<path d="M6302,2004 l60,0 l0,60 l-60,0 z" fill="green"/>
<path d="M6332,2034 l72,289" stroke="black" stroke-width="5"/>
<path d="M4375,752 l60,0 l0,60 l-60,0 z" fill="green"/>
<path d="M4405,782 l52.5,-19.5" stroke="black" stroke-width="5"/>
<path d="M5495,6174 l60,0 l0,60 l-60,0 z" fill="green"/>
<path d="M5525,6204 l208,-3" stroke="black" stroke-width="5"/>
<path d="M8770,5610 l60,0 l0,60 l-60,0 z" fill="green"/>
<path d="M8800,5640 l53.5,27" stroke="black" stroke-width="5"/>
<path d="M8830,4009 l60,0 l0,60 l-60,0 z" fill="green"/>
<path d="M8860,4039 l27.5,20.5" stroke="black" stroke-width="5"/>
<path d="M3485,8341 l60,0 l0,60 l-60,0 z" fill="green"/>
<path d="M3515,8371 l72,-16.5" stroke="black" stroke-width="5"/>
<path d="M656,8318 l60,0 l0,60 l-60,0 z" fill="green"/>
<path d="M686,8348 l215.5,-425" stroke="black" stroke-width="5"/>
<path d="M5866,1077 l60,0 l0,60 l-60,0 z" fill="green"/>
<path d="M5896,1107 l-136,91" stroke="black" stroke-width="5"/>
<path d="M3825,6637 l60,0 l0,60 l-60,0 z" fill="green"/>
<path d="M3855,6667 l-83.5,12.5" stroke="black" stroke-width="5"/>
<path d="M4088,7020 l60,0 l0,60 l-60,0 z" fill="green"/>
<path d="M4118,7050 l43,197" stroke="black" stroke-width="5"/>
<path d="M9875,5936 l60,0 l0,60 l-60,0 z" fill="green"/>
<path d="M9905,5966 l-381.5,262.5" stroke="black" stroke-width="5"/>
<path d="M449,9349 l60,0 l0,60 l-60,0 z" fill="green"/>
<path d="M479,9379 l33,-215.5" stroke="black" stroke-width="5"/>
<path d="M7125,5706 l60,0 l0,60 l-60,0 z" fill="green"/>
<path d="M7155,5736 l-30,56.5" stroke="black" stroke-width="5"/>
<path d="M6335,3766 l60,0 l0,60 l-60,0 z" fill="green"/>
<path d="M6365,3796 l57,47" stroke="black" stroke-width="5"/>
<path d="M1541,5515 l60,0 l0,60 l-60,0 z" fill="green"/>
<path d="M1571,5545 l7.5,-25.5" stroke="black" stroke-width="5"/>
<path d="M7566,5072 l60,0 l0,60 l-60,0 z" fill="green"/>
<path d="M7596,5102 l-56,-38" stroke="black" stroke-width="5"/>
<path d="M3379,6121 l60,0 l0,60 l-60,0 z" fill="green"/>
<path d="M3409,6151 l-113.5,-13.5" stroke="black" stroke-width="5"/>
<path d="M6823,3632 l60,0 l0,60 l-60,0 z" fill="green"/>
<path d="M6853,3662 l293,-39.5" stroke="black" stroke-width="5"/>
<path d="M2759,8569 l60,0 l0,60 l-60,0 z" fill="green"/>
<path d="M2789,8599 l-377,-15.5" stroke="black" stroke-width="5"/>
<path d="M6574,1140 l60,0 l0,60 l-60,0 z" fill="green"/>
<path d="M6604,1170 l-187,28" stroke="black" stroke-width="5"/>
<path d="M8827,6828 l60,0 l0,60 l-60,0 z" fill="green"/>
<path d="M8857,6858 l-150.5,-178" stroke="black" stroke-width="5"/>
<path d="M7193,5026 l60,0 l0,60 l-60,0 z" fill="green"/>
<path d="M7223,5056 l-253,-221" stroke="black" stroke-width="5"/>
<path d="M5556,5035 l60,0 l0,60 l-60,0 z" fill="green"/>
<path d="M5586,5065 l28,-13.5" stroke="black" stroke-width="5"/>
<path d="M4301,9325 l60,0 l0,60 l-60,0 z" fill="green"/>
<path d="M4331,9355 l143,-23" stroke="black" stroke-width="5"/>
<path d="M1014,3306 l60,0 l0,60 l-60,0 z" fill="green"/>
<path d="M1044,3336 l-24,223" stroke="black" stroke-width="5"/>
<path d="M2531,6815 l60,0 l0,60 l-60,0 z" fill="green"/>
<path d="M2561,6845 l33,-119" stroke="black" stroke-width="5"/>
<path d="M6215,199 l60,0 l0,60 l-60,0 z" fill="green"/>
<path d="M6245,229 l-790,-101" stroke="black" stroke-width="5"/>
<path d="M8741,1979 l60,0 l0,60 l-60,0 z" fill="green"/>
<path d="M8771,2009 l-287,27" stroke="black" stroke-width="5"/>
<path d="M5705,5428 l60,0 l0,60 l-60,0 z" fill="green"/>
<path d="M5735,5458 l-14.5,-8.5" stroke="black" stroke-width="5"/>
<path d="M8013,3580 l60,0 l0,60 l-60,0 z" fill="green"/>
<path d="M8043,3610 l-34,12" stroke="black" stroke-width="5"/>
<path d="M3837,3627 l60,0 l0,60 l-60,0 z" fill="green"/>
<path d="M3867,3657 l-36.5,61" stroke="black" stroke-width="5"/>
<path d="M5571,6791 l60,0 l0,60 l-60,0 z" fill="green"/>
<path d="M5601,6821 l-1.5,10" stroke="black" stroke-width="5"/>
<path d="M2439,1603 l60,0 l0,60 l-60,0 z" fill="green"/>
<path d="M2469,1633 l445,-442" stroke="black" stroke-width="5"/>
<path d="M2365,3792 l60,0 l0,60 l-60,0 z" fill="green"/>
<path d="M2395,3822 l0.5,117.5" stroke="black" stroke-width="5"/>
<path d="M5509,1933 l60,0 l0,60 l-60,0 z" fill="green"/>
<path d="M5539,1963 l-503.5,177.5" stroke="black" stroke-width="5"/>
<path d="M5363,1698 l60,0 l0,60 l-60,0 z" fill="green"/>
<path d="M5393,1728 l-184.5,-48.5" stroke="black" stroke-width="5"/>
<path d="M4349,6685 l60,0 l0,60 l-60,0 z" fill="green"/>
<path d="M4379,6715 l52,-307.5" stroke="black" stroke-width="5"/>
<path d="M4236,8231 l60,0 l0,60 l-60,0 z" fill="green"/>
<path d="M4266,8261 l93,-205" stroke="black" stroke-width="5"/>
<path d="M4676,4677 l60,0 l0,60 l-60,0 z" fill="green"/>
<path d="M4706,4707 l-45,-56.5" stroke="black" stroke-width="5"/>
<path d="M527,9502 l60,0 l0,60 l-60,0 z" fill="green"/>
<path d="M557,9532 l-45,222" stroke="black" stroke-width="5"/>
<path d="M8062,9260 l60,0 l0,60 l-60,0 z" fill="green"/>
<path d="M8092,9290 l-133.5,-49.5" stroke="black" stroke-width="5"/>
<path d="M5944,8528 l60,0 l0,60 l-60,0 z" fill="green"/>
<path d="M5974,8558 l301.5,632.5" stroke="black" stroke-width="5"/>
<path d="M6471,7182 l60,0 l0,60 l-60,0 z" fill="green"/>
<path d="M6501,7212 l-7,314" stroke="black" stroke-width="5"/>
<path d="M2161,2279 l60,0 l0,60 l-60,0 z" fill="green"/>
<path d="M2191,2309 l-299.5,346" stroke="black" stroke-width="5"/>
<path d="M8006,7659 l60,0 l0,60 l-60,0 z" fill="green"/>
<path d="M8036,7689 l10,-3" stroke="black" stroke-width="5"/>
<path d="M4723,3238 l60,0 l0,60 l-60,0 z" fill="green"/>
<path d="M4753,3268 l-118,-212" stroke="black" stroke-width="5"/>
<path d="M6559,6924 l60,0 l0,60 l-60,0 z" fill="green"/>
<path d="M6589,6954 l-20,-7.5" stroke="black" stroke-width="5"/>
<path d="M6232,801 l60,0 l0,60 l-60,0 z" fill="green"/>
<path d="M6262,831 l159,-241" stroke="black" stroke-width="5"/>
<path d="M3772,3269 l60,0 l0,60 l-60,0 z" fill="green"/>
<path d="M3802,3299 l24.5,-1634" stroke="black" stroke-width="5"/>
<path d="M2186,7314 l60,0 l0,60 l-60,0 z" fill="green"/>
<path d="M2216,7344 l-52,-5.5" stroke="black" stroke-width="5"/>
<path d="M9287,4927 l60,0 l0,60 l-60,0 z" fill="green"/>
<path d="M9317,4957 l-7.5,-76" stroke="black" stroke-width="5"/>
<path d="M8855,5173 l60,0 l0,60 l-60,0 z" fill="green"/>
<path d="M8885,5203 l-5,-27" stroke="black" stroke-width="5"/>
<path d="M5869,5060 l60,0 l0,60 l-60,0 z" fill="green"/>
<path d="M5899,5090 l41,-522" stroke="black" stroke-width="5"/>
<path d="M2301,3529 l60,0 l0,60 l-60,0 z" fill="green"/>
<path d="M2331,3559 l115,122.5" stroke="black" stroke-width="5"/>
<path d="M7924,1554 l60,0 l0,60 l-60,0 z" fill="green"/>
<path d="M7954,1584 l549,-579.5" stroke="black" stroke-width="5"/>
<path d="M481,1961 l60,0 l0,60 l-60,0 z" fill="green"/>
<path d="M511,1991 l-75.5,-131" stroke="black" stroke-width="5"/>
<path d="M821,8661 l60,0 l0,60 l-60,0 z" fill="green"/>
<path d="M851,8691 l-295.5,-103.5" stroke="black" stroke-width="5"/>
<path d="M2434,1695 l60,0 l0,60 l-60,0 z" fill="green"/>
<path d="M2464,1725 l58,187" stroke="black" stroke-width="5"/>
<path d="M6428,1741 l60,0 l0,60 l-60,0 z" fill="green"/>
<path d="M6458,1771 l-25,-38.5" stroke="black" stroke-width="5"/>
<path d="M1756,3531 l60,0 l0,60 l-60,0 z" fill="green"/>
<path d="M1786,3561 l-82.5,128.5" stroke="black" stroke-width="5"/>
<path d="M9949,5597 l60,0 l0,60 l-60,0 z" fill="green"/>
<path d="M9979,5627 l-462.5,-248" stroke="black" stroke-width="5"/>
<path d="M3143,3692 l60,0 l0,60 l-60,0 z" fill="green"/>
<path d="M3173,3722 l66,148" stroke="black" stroke-width="5"/>
<path d="M5901,608 l60,0 l0,60 l-60,0 z" fill="green"/>
<path d="M5931,638 l-127,-37" stroke="black" stroke-width="5"/>
<path d="M29,8353 l60,0 l0,60 l-60,0 z" fill="green"/>
<path d="M59,8383 l55.5,-11" stroke="black" stroke-width="5"/>
<path d="M4286,3709 l60,0 l0,60 l-60,0 z" fill="green"/>
<path d="M4316,3739 l24,135.5" stroke="black" stroke-width="5"/>
<path d="M2432,8646 l60,0 l0,60 l-60,0 z" fill="green"/>
<path d="M2462,8676 l-219.5,322.5" stroke="black" stroke-width="5"/>
<path d="M7527,1116 l60,0 l0,60 l-60,0 z" fill="green"/>
<path d="M7557,1146 l-226,82.5" stroke="black" stroke-width="5"/>
<path d="M9201,4756 l60,0 l0,60 l-60,0 z" fill="green"/>
<path d="M9231,4786 l0.5,-184.5" stroke="black" stroke-width="5"/>
<path d="M8534,5417 l60,0 l0,60 l-60,0 z" fill="green"/>
<path d="M8564,5447 l-12,-36.5" stroke="black" stroke-width="5"/>
<path d="M9947,774 l60,0 l0,60 l-60,0 z" fill="green"/>
<path d="M9977,804 l-286,-255.5" stroke="black" stroke-width="5"/>
<path d="M2844,8469 l60,0 l0,60 l-60,0 z" fill="green"/>
<path d="M2874,8499 l-240.5,-136.5" stroke="black" stroke-width="5"/>
<path d="M995,9388 l60,0 l0,60 l-60,0 z" fill="green"/>
<path d="M1025,9418 l215,5" stroke="black" stroke-width="5"/>
<path d="M5646,8498 l60,0 l0,60 l-60,0 z" fill="green"/>
<path d="M5676,8528 l-33,540" stroke="black" stroke-width="5"/>
<path d="M9922,986 l60,0 l0,60 l-60,0 z" fill="green"/>
<path d="M9952,1016 l-90.5,32.5" stroke="black" stroke-width="5"/>
<path d="M3008,3160 l60,0 l0,60 l-60,0 z" fill="green"/>
<path d="M3038,3190 l-514,144" stroke="black" stroke-width="5"/>
<path d="M6922,390 l60,0 l0,60 l-60,0 z" fill="green"/>
<path d="M6952,420 l44,72.5" stroke="black" stroke-width="5"/>
<path d="M3943,5560 l60,0 l0,60 l-60,0 z" fill="green"/>
<path d="M3973,5590 l274,-200" stroke="black" stroke-width="5"/>
<path d="M7906,6314 l60,0 l0,60 l-60,0 z" fill="green"/>
<path d="M7936,6344 l22,3" stroke="black" stroke-width="5"/>
<path d="M3279,3367 l60,0 l0,60 l-60,0 z" fill="green"/>
<path d="M3309,3397 l8,-495.5" stroke="black" stroke-width="5"/>
<path d="M9163,7171 l60,0 l0,60 l-60,0 z" fill="green"/>
<path d="M9193,7201 l-45,13.5" stroke="black" stroke-width="5"/>
<path d="M7794,5260 l60,0 l0,60 l-60,0 z" fill="green"/>
<path d="M7824,5290 l301.5,-538" stroke="black" stroke-width="5"/>
<path d="M3056,6042 l60,0 l0,60 l-60,0 z" fill="green"/>
<path d="M3086,6072 l-105,-34" stroke="black" stroke-width="5"/>
<path d="M2962,3052 l60,0 l0,60 l-60,0 z" fill="green"/>
<path d="M2992,3082 l-280,-427" stroke="black" stroke-width="5"/>
<path d="M7382,264 l60,0 l0,60 l-60,0 z" fill="green"/>
<path d="M7412,294 l170,198.5" stroke="black" stroke-width="5"/>
<path d="M9819,16 l60,0 l0,60 l-60,0 z" fill="green"/>
<path d="M9849,46 l-50,7.5" stroke="black" stroke-width="5"/>
<path d="M6507,4875 l60,0 l0,60 l-60,0 z" fill="green"/>
<path d="M6537,4905 l-71.5,36" stroke="black" stroke-width="5"/>
<path d="M6599,3414 l60,0 l0,60 l-60,0 z" fill="green"/>
<path d="M6629,3444 l30.5,-98.5" stroke="black" stroke-width="5"/>
<path d="M780,3054 l60,0 l0,60 l-60,0 z" fill="green"/>
<path d="M810,3084 l88,-57.5" stroke="black" stroke-width="5"/>
<path d="M2705,1929 l60,0 l0,60 l-60,0 z" fill="green"/>
<path d="M2735,1959 l325,-71.5" stroke="black" stroke-width="5"/>
<path d="M8997,8810 l60,0 l0,60 l-60,0 z" fill="green"/>
<path d="M9027,8840 l140.5,61" stroke="black" stroke-width="5"/>
<path d="M2598,4424 l60,0 l0,60 l-60,0 z" fill="green"/>
<path d="M2628,4454 l7,-8.5" stroke="black" stroke-width="5"/>
<path d="M8364,9128 l60,0 l0,60 l-60,0 z" fill="green"/>
<path d="M8394,9158 l154,147.5" stroke="black" stroke-width="5"/>
<path d="M2408,1592 l60,0 l0,60 l-60,0 z" fill="green"/>
<path d="M2438,1622 l-404,-26.5" stroke="black" stroke-width="5"/>
<path d="M6036,3235 l60,0 l0,60 l-60,0 z" fill="green"/>
<path d="M6066,3265 l-265.5,35.5" stroke="black" stroke-width="5"/>
<path d="M2649,8731 l60,0 l0,60 l-60,0 z" fill="green"/>
<path d="M2679,8761 l350.5,498.5" stroke="black" stroke-width="5"/>
<path d="M9642,8170 l60,0 l0,60 l-60,0 z" fill="green"/>
<path d="M9672,8200 l102,133" stroke="black" stroke-width="5"/>
<path d="M7467,9613 l60,0 l0,60 l-60,0 z" fill="green"/>
<path d="M7497,9643 l-231,-440" stroke="black" stroke-width="5"/>
<path d="M2956,6828 l60,0 l0,60 l-60,0 z" fill="green"/>
<path d="M2986,6858 l-23.5,-22" stroke="black" stroke-width="5"/>
<path d="M2052,6415 l60,0 l0,60 l-60,0 z" fill="green"/>
<path d="M2082,6445 l-45,2" stroke="black" stroke-width="5"/>
<path d="M9874,2085 l60,0 l0,60 l-60,0 z" fill="green"/>
<path d="M9904,2115 l-19,-31" stroke="black" stroke-width="5"/>
<path d="M9082,3349 l60,0 l0,60 l-60,0 z" fill="green"/>
<path d="M9112,3379 l69,32" stroke="black" stroke-width="5"/>
<path d="M9147,8580 l60,0 l0,60 l-60,0 z" fill="green"/>
<path d="M9177,8610 l-333.5,-434.5" stroke="black" stroke-width="5"/>
<path d="M2375,-14 l60,0 l0,60 l-60,0 z" fill="green"/>
<path d="M2405,16 l-915,484.5" stroke="black" stroke-width="5"/>
<path d="M9000,2199 l60,0 l0,60 l-60,0 z" fill="green"/>
<path d="M9030,2229 l243,-193" stroke="black" stroke-width="5"/>
<path d="M576,2646 l60,0 l0,60 l-60,0 z" fill="green"/>
<path d="M606,2676 l10,-270" stroke="black" stroke-width="5"/>
<path d="M9720,2061 l60,0 l0,60 l-60,0 z" fill="green"/>
<path d="M9750,2091 l-99,-40.5" stroke="black" stroke-width="5"/>
<path d="M1215,2242 l60,0 l0,60 l-60,0 z" fill="green"/>
<path d="M1245,2272 l105,-74.5" stroke="black" stroke-width="5"/>
<path d="M6943,2371 l60,0 l0,60 l-60,0 z" fill="green"/>
<path d="M6973,2401 l249.5,-32" stroke="black" stroke-width="5"/>
<path d="M8940,2681 l60,0 l0,60 l-60,0 z" fill="green"/>
<path d="M8970,2711 l-353,95" stroke="black" stroke-width="5"/>
<path d="M4803,3751 l60,0 l0,60 l-60,0 z" fill="green"/>
<path d="M4833,3781 l12.5,-11" stroke="black" stroke-width="5"/>
<path d="M7760,5591 l60,0 l0,60 l-60,0 z" fill="green"/>
<path d="M7790,5621 l155,199" stroke="black" stroke-width="5"/>
<path d="M5617,8350 l60,0 l0,60 l-60,0 z" fill="green"/>
<path d="M5647,8380 l359.5,-266" stroke="black" stroke-width="5"/>
<path d="M109,612 l60,0 l0,60 l-60,0 z" fill="green"/>
<path d="M139,642 l117.5,83.5" stroke="black" stroke-width="5"/>
<path d="M11,3446 l60,0 l0,60 l-60,0 z" fill="green"/>
<path d="M41,3476 l123,112.5" stroke="black" stroke-width="5"/>
<path d="M2647,16 l60,0 l0,60 l-60,0 z" fill="green"/>
<path d="M2677,46 l191.5,299.5" stroke="black" stroke-width="5"/>
<text font-size="130.18891098082386" text-anchor="middle" x="6674" y="1602.5661188432885">
0
</text>
<text font-size="130.18891098082386" text-anchor="middle" x="674" y="5502.066118843289">
1
</text>
<text font-size="130.18891098082386" text-anchor="middle" x="7772" y="1897.5661188432885">
2
</text>
<text font-size="130.18891098082386" text-anchor="middle" x="6404" y="2368.566118843288">
3
</text>
<text font-size="130.18891098082386" text-anchor="middle" x="4457.5" y="808.0661188432883">
4
</text>
<text font-size="130.18891098082386" text-anchor="middle" x="5733" y="6246.566118843289">
5
</text>
<text font-size="130.18891098082386" text-anchor="middle" x="8853.5" y="5712.566118843289">
6
</text>
<text font-size="130.18891098082386" text-anchor="middle" x="8887.5" y="4105.066118843289">
7
</text>
<text font-size="130.18891098082386" text-anchor="middle" x="3587" y="8400.066118843288">
8
</text>
<text font-size="130.18891098082386" text-anchor="middle" x="901.5" y="7968.566118843289">
9
</text>
<text font-size="130.18891098082386" text-anchor="middle" x="5760" y="1243.5661188432885">
10
</text>
<text font-size="130.18891098082386" text-anchor="middle" x="3771.5" y="6725.066118843289">
11
</text>
<text font-size="130.18891098082386" text-anchor="middle" x="4161" y="7292.566118843289">
12
</text>
<text font-size="130.18891098082386" text-anchor="middle" x="9523.5" y="6274.066118843289">
13
</text>
<text font-size="130.18891098082386" text-anchor="middle" x="512" y="9209.066118843288">
14
</text>
<text font-size="130.18891098082386" text-anchor="middle" x="7125" y="5838.066118843289">
15
</text>
<text font-size="130.18891098082386" text-anchor="middle" x="6422" y="3888.566118843288">
16
</text>
<text font-size="130.18891098082386" text-anchor="middle" x="1578.5" y="5565.066118843289">
17
</text>
<text font-size="130.18891098082386" text-anchor="middle" x="7540" y="5109.566118843289">
18
</text>
<text font-size="130.18891098082386" text-anchor="middle" x="3295.5" y="6183.066118843289">
19
</text>
<text font-size="130.18891098082386" text-anchor="middle" x="7146" y="3668.066118843288">
20
</text>
<text font-size="130.18891098082386" text-anchor="middle" x="2412" y="8629.066118843288">
21
</text>
<text font-size="130.18891098082386" text-anchor="middle" x="6417" y="1243.5661188432885">
22
</text>
<text font-size="130.18891098082386" text-anchor="middle" x="8706.5" y="6725.566118843289">
23
</text>
<text font-size="130.18891098082386" text-anchor="middle" x="6970" y="4880.566118843289">
24
</text>
<text font-size="130.18891098082386" text-anchor="middle" x="5614" y="5097.066118843289">
25
</text>
<text font-size="130.18891098082386" text-anchor="middle" x="4474" y="9377.566118843288">
26
</text>
<text font-size="130.18891098082386" text-anchor="middle" x="1020" y="3604.566118843288">
27
</text>
<text font-size="130.18891098082386" text-anchor="middle" x="2594" y="6771.566118843289">
28
</text>
<text font-size="130.18891098082386" text-anchor="middle" x="5455" y="173.56611884328834">
29
</text>
<text font-size="130.18891098082386" text-anchor="middle" x="8484" y="2081.566118843288">
30
</text>
<text font-size="130.18891098082386" text-anchor="middle" x="5720.5" y="5495.066118843289">
31
</text>
<text font-size="130.18891098082386" text-anchor="middle" x="8009" y="3667.566118843288">
32
</text>
<text font-size="130.18891098082386" text-anchor="middle" x="3830.5" y="3763.566118843288">
33
</text>
<text font-size="130.18891098082386" text-anchor="middle" x="5599.5" y="6876.566118843289">
34
</text>
<text font-size="130.18891098082386" text-anchor="middle" x="2914" y="1236.5661188432885">
35
</text>
<text font-size="130.18891098082386" text-anchor="middle" x="2395.5" y="3985.066118843288">
36
</text>
<text font-size="130.18891098082386" text-anchor="middle" x="5035.5" y="2186.066118843288">
37
</text>
<text font-size="130.18891098082386" text-anchor="middle" x="5208.5" y="1725.0661188432885">
38
</text>
<text font-size="130.18891098082386" text-anchor="middle" x="4431" y="6453.066118843289">
39
</text>
<text font-size="130.18891098082386" text-anchor="middle" x="4359" y="8101.566118843289">
40
</text>
<text font-size="130.18891098082386" text-anchor="middle" x="4661" y="4696.066118843289">
41
</text>
<text font-size="130.18891098082386" text-anchor="middle" x="512" y="9799.566118843288">
42
</text>
<text font-size="130.18891098082386" text-anchor="middle" x="7958.5" y="9286.066118843288">
43
</text>
<text font-size="130.18891098082386" text-anchor="middle" x="6275.5" y="9236.066118843288">
44
</text>
<text font-size="130.18891098082386" text-anchor="middle" x="6494" y="7571.566118843289">
45
</text>
<text font-size="130.18891098082386" text-anchor="middle" x="1891.5" y="2700.566118843288">
46
</text>
<text font-size="130.18891098082386" text-anchor="middle" x="8046" y="7731.566118843289">
47
</text>
<text font-size="130.18891098082386" text-anchor="middle" x="4635" y="3101.566118843288">
48
</text>
<text font-size="130.18891098082386" text-anchor="middle" x="6569" y="6992.066118843289">
49
</text>
<text font-size="130.18891098082386" text-anchor="middle" x="6421" y="635.5661188432883">
50
</text>
<text font-size="130.18891098082386" text-anchor="middle" x="3826.5" y="1710.5661188432885">
51
</text>
<text font-size="130.18891098082386" text-anchor="middle" x="2164" y="7384.066118843289">
52
</text>
<text font-size="130.18891098082386" text-anchor="middle" x="9309.5" y="4926.566118843289">
53
</text>
<text font-size="130.18891098082386" text-anchor="middle" x="8880" y="5221.566118843289">
54
</text>
<text font-size="130.18891098082386" text-anchor="middle" x="5940" y="4613.566118843289">
55
</text>
<text font-size="130.18891098082386" text-anchor="middle" x="2446" y="3727.066118843288">
56
</text>
<text font-size="130.18891098082386" text-anchor="middle" x="8503" y="1050.0661188432885">
57
</text>
<text font-size="130.18891098082386" text-anchor="middle" x="435.5" y="1905.5661188432885">
58
</text>
<text font-size="130.18891098082386" text-anchor="middle" x="555.5" y="8633.066118843288">
59
</text>
<text font-size="130.18891098082386" text-anchor="middle" x="2522" y="1957.5661188432885">
60
</text>
<text font-size="130.18891098082386" text-anchor="middle" x="6433" y="1778.0661188432885">
61
</text>
<text font-size="130.18891098082386" text-anchor="middle" x="1703.5" y="3735.066118843288">
62
</text>
<text font-size="130.18891098082386" text-anchor="middle" x="9516.5" y="5424.566118843289">
63
</text>
<text font-size="130.18891098082386" text-anchor="middle" x="3239" y="3915.566118843288">
64
</text>
<text font-size="130.18891098082386" text-anchor="middle" x="5804" y="646.5661188432883">
65
</text>
<text font-size="130.18891098082386" text-anchor="middle" x="114.5" y="8417.566118843288">
66
</text>
<text font-size="130.18891098082386" text-anchor="middle" x="4340" y="3920.066118843288">
67
</text>
<text font-size="130.18891098082386" text-anchor="middle" x="2242.5" y="9044.066118843288">
68
</text>
<text font-size="130.18891098082386" text-anchor="middle" x="7331" y="1274.0661188432885">
69
</text>
<text font-size="130.18891098082386" text-anchor="middle" x="9231.5" y="4647.066118843289">
70
</text>
<text font-size="130.18891098082386" text-anchor="middle" x="8552" y="5456.066118843289">
71
</text>
<text font-size="130.18891098082386" text-anchor="middle" x="9691" y="594.0661188432883">
72
</text>
<text font-size="130.18891098082386" text-anchor="middle" x="2633.5" y="8408.066118843288">
73
</text>
<text font-size="130.18891098082386" text-anchor="middle" x="1240" y="9468.566118843288">
74
</text>
<text font-size="130.18891098082386" text-anchor="middle" x="5643" y="9113.566118843288">
75
</text>
<text font-size="130.18891098082386" text-anchor="middle" x="9861.5" y="1094.0661188432885">
76
</text>
<text font-size="130.18891098082386" text-anchor="middle" x="2524" y="3379.566118843288">
77
</text>
<text font-size="130.18891098082386" text-anchor="middle" x="6996" y="538.0661188432883">
78
</text>
<text font-size="130.18891098082386" text-anchor="middle" x="4247" y="5435.566118843289">
79
</text>
<text font-size="130.18891098082386" text-anchor="middle" x="7958" y="6392.566118843289">
80
</text>
<text font-size="130.18891098082386" text-anchor="middle" x="3317" y="2947.066118843288">
81
</text>
<text font-size="130.18891098082386" text-anchor="middle" x="9148" y="7260.066118843289">
82
</text>
<text font-size="130.18891098082386" text-anchor="middle" x="8125.5" y="4797.566118843289">
83
</text>
<text font-size="130.18891098082386" text-anchor="middle" x="2981" y="6083.566118843289">
84
</text>
<text font-size="130.18891098082386" text-anchor="middle" x="2712" y="2700.566118843288">
85
</text>
<text font-size="130.18891098082386" text-anchor="middle" x="7582" y="538.0661188432883">
86
</text>
<text font-size="130.18891098082386" text-anchor="middle" x="9799" y="99.06611884328835">
87
</text>
<text font-size="130.18891098082386" text-anchor="middle" x="6465.5" y="4986.566118843289">
88
</text>
<text font-size="130.18891098082386" text-anchor="middle" x="6659.5" y="3391.066118843288">
89
</text>
<text font-size="130.18891098082386" text-anchor="middle" x="898" y="3072.066118843288">
90
</text>
<text font-size="130.18891098082386" text-anchor="middle" x="3060" y="1933.0661188432885">
91
</text>
<text font-size="130.18891098082386" text-anchor="middle" x="9167.5" y="8946.566118843288">
92
</text>
<text font-size="130.18891098082386" text-anchor="middle" x="2635" y="4491.066118843289">
93
</text>
<text font-size="130.18891098082386" text-anchor="middle" x="8548" y="9351.066118843288">
94
</text>
<text font-size="130.18891098082386" text-anchor="middle" x="2034" y="1641.0661188432885">
95
</text>
<text font-size="130.18891098082386" text-anchor="middle" x="5800.5" y="3346.066118843288">
96
</text>
<text font-size="130.18891098082386" text-anchor="middle" x="3029.5" y="9305.066118843288">
97
</text>
<text font-size="130.18891098082386" text-anchor="middle" x="9774" y="8378.566118843288">
98
</text>
<text font-size="130.18891098082386" text-anchor="middle" x="7266" y="9248.566118843288">
99
</text>
<text font-size="130.18891098082386" text-anchor="middle" x="2962.5" y="6881.566118843289">
100
</text>
<text font-size="130.18891098082386" text-anchor="middle" x="2037" y="6492.566118843289">
101
</text>
<text font-size="130.18891098082386" text-anchor="middle" x="9885" y="2129.566118843288">
102
</text>
<text font-size="130.18891098082386" text-anchor="middle" x="9181" y="3456.566118843288">
103
</text>
<text font-size="130.18891098082386" text-anchor="middle" x="8843.5" y="8221.066118843288">
104
</text>
<text font-size="130.18891098082386" text-anchor="middle" x="1490" y="546.0661188432883">
105
</text>
<text font-size="130.18891098082386" text-anchor="middle" x="9273" y="2081.566118843288">
106
</text>
<text font-size="130.18891098082386" text-anchor="middle" x="616" y="2451.566118843288">
107
</text>
<text font-size="130.18891098082386" text-anchor="middle" x="9651" y="2096.066118843288">
108
</text>
<text font-size="130.18891098082386" text-anchor="middle" x="1350" y="2243.066118843288">
109
</text>
<text font-size="130.18891098082386" text-anchor="middle" x="7222.5" y="2414.566118843288">
110
</text>
<text font-size="130.18891098082386" text-anchor="middle" x="8617" y="2851.566118843288">
111
</text>
<text font-size="130.18891098082386" text-anchor="middle" x="4845.5" y="3815.566118843288">
112
</text>
<text font-size="130.18891098082386" text-anchor="middle" x="7945" y="5865.566118843289">
113
</text>
<text font-size="130.18891098082386" text-anchor="middle" x="6006.5" y="8159.566118843289">
114
</text>
<text font-size="130.18891098082386" text-anchor="middle" x="256.5" y="771.0661188432883">
115
</text>
<text font-size="130.18891098082386" text-anchor="middle" x="164" y="3634.066118843288">
116
</text>
<text font-size="130.18891098082386" text-anchor="middle" x="2868.5" y="391.06611884328834">
117
</text>
</svg>