<svg viewBox="-100 -100 10200 10200" xmlns="http://www.w3.org/2000/svg">
<path d="M0,0 l10000,0 l0,10000 l-10000,0 z" fill="white"/>
<path d="M7947,6620 l2053,0 l0,958 l-2053,0 z" fill="#d800ff" stroke="black" stroke-width="5"/>
<path d="M7129,5890 l818,0 l0,1439 l-818,0 z" fill="#fe00ff" stroke="black" stroke-width="5"/>
<path d="M317,7005 l4846,0 l0,988 l-4846,0 z" fill="#fe00ff" stroke="black" stroke-width="5"/>
<path d="M288,208 l1154,0 l0,2435 l-1154,0 z" fill="#fe00ff" stroke="black" stroke-width="5"/>
<path d="M0,0 l288,0 l0,3034 l-288,0 z" fill="#4500ff" stroke="black" stroke-width="5"/>
<path d="M350,6990 l4698,0 l0,15 l-4698,0 z" fill="#fe00ff" stroke="black" stroke-width="5"/>
<path d="M9252,999 l748,0 l0,3304 l-748,0 z" fill="#a700ff" stroke="black" stroke-width="5"/>
<path d="M0,8563 l2986,0 l0,527 l-2986,0 z" fill="#fe00ff" stroke="black" stroke-width="5"/>
<path d="M6377,0 l1594,0 l0,2329 l-1594,0 z" fill="#f900ff" stroke="black" stroke-width="5"/>
<path d="M2188,2052 l1134,0 l0,1815 l-1134,0 z" fill="#fe00ff" stroke="black" stroke-width="5"/>
<path d="M0,3034 l1715,0 l0,621 l-1715,0 z" fill="#fe00ff" stroke="black" stroke-width="5"/>
<path d="M3742,678 l2635,0 l0,1549 l-2635,0 z" fill="#fe00ff" stroke="black" stroke-width="5"/>
<path d="M3993,17 l1854,0 l0,652 l-1854,0 z" fill="#fe00ff" stroke="black" stroke-width="5"/>
<path d="M4128,9308 l5576,0 l0,692 l-5576,0 z" fill="#fe00ff" stroke="black" stroke-width="5"/>
<path d="M8417,192 l745,0 l0,922 l-745,0 z" fill="#2300ff" stroke="black" stroke-width="5"/>
<path d="M7299,9117 l1297,0 l0,178 l-1297,0 z" fill="#fe00ff" stroke="black" stroke-width="5"/>
<path d="M0,6611 l317,0 l0,1525 l-317,0 z" fill="#0800ff" stroke="black" stroke-width="5"/>
<path d="M8736,8161 l968,0 l0,1090 l-968,0 z" fill="#fe00ff" stroke="black" stroke-width="5"/>
<path d="M3336,2000 l265,0 l0,4611 l-265,0 z" fill="#fe00ff" stroke="black" stroke-width="5"/>
<path d="M3601,2236 l673,0 l0,1747 l-673,0 z" fill="#fe00ff" stroke="black" stroke-width="5"/>
<path d="M2188,3867 l846,0 l0,669 l-846,0 z" fill="#fe00ff" stroke="black" stroke-width="5"/>
<path d="M2963,1298 l46,0 l0,141 l-46,0 z" fill="#fe00ff" stroke="black" stroke-width="5"/>
<path d="M7794,7578 l2206,0 l0,317 l-2206,0 z" fill="#fd00ff" stroke="black" stroke-width="5"/>
<path d="M3009,964 l726,0 l0,1018 l-726,0 z" fill="#fe00ff" stroke="black" stroke-width="5"/>
<path d="M8860,1114 l392,0 l0,3189 l-392,0 z" fill="#fd00ff" stroke="black" stroke-width="5"/>
<path d="M3378,7993 l750,0 l0,2007 l-750,0 z" fill="#fe00ff" stroke="black" stroke-width="5"/>
<path d="M4274,2244 l825,0 l0,1774 l-825,0 z" fill="#fe00ff" stroke="black" stroke-width="5"/>
<path d="M1753,3121 l435,0 l0,1816 l-435,0 z" fill="#fe00ff" stroke="black" stroke-width="5"/>
<path d="M7971,192 l446,0 l0,2137 l-446,0 z" fill="#fe00ff" stroke="black" stroke-width="5"/>
<path d="M5701,4175 l337,0 l0,88 l-337,0 z" fill="#fe00ff" stroke="black" stroke-width="5"/>
<path d="M9162,192 l838,0 l0,807 l-838,0 z" fill="#1400ff" stroke="black" stroke-width="5"/>
<path d="M1918,5331 l911,0 l0,1279 l-911,0 z" fill="#fe00ff" stroke="black" stroke-width="5"/>
<path d="M5163,3072 l79,0 l0,5156 l-79,0 z" fill="#fe00ff" stroke="black" stroke-width="5"/>
<path d="M5242,6693 l1222,0 l0,1532 l-1222,0 z" fill="#2e00ff" stroke="black" stroke-width="5"/>
<path d="M18,3699 l1159,0 l0,1221 l-1159,0 z" fill="#fe00ff" stroke="black" stroke-width="5"/>
<path d="M7971,0 l2029,0 l0,192 l-2029,0 z" fill="#f700ff" stroke="black" stroke-width="5"/>
<path d="M5099,2329 l3761,0 l0,414 l-3761,0 z" fill="#fe00ff" stroke="black" stroke-width="5"/>
<path d="M8881,5899 l1119,0 l0,721 l-1119,0 z" fill="#fe00ff" stroke="black" stroke-width="5"/>
<path d="M5531,8225 l1573,0 l0,1040 l-1573,0 z" fill="#fe00ff" stroke="black" stroke-width="5"/>
<path d="M1677,962 l1253,0 l0,1065 l-1253,0 z" fill="#fe00ff" stroke="black" stroke-width="5"/>
<path d="M7129,4303 l2871,0 l0,1587 l-2871,0 z" fill="#fd00ff" stroke="black" stroke-width="5"/>
<path d="M7129,7329 l665,0 l0,1788 l-665,0 z" fill="#fe00ff" stroke="black" stroke-width="5"/>
<path d="M64,4954 l1686,0 l0,695 l-1686,0 z" fill="#fe00ff" stroke="black" stroke-width="5"/>
<path d="M317,6611 l4846,0 l0,379 l-4846,0 z" fill="#fe00ff" stroke="black" stroke-width="5"/>
<path d="M5099,2743 l3761,0 l0,329 l-3761,0 z" fill="#fe00ff" stroke="black" stroke-width="5"/>
<path d="M5721,6519 l504,0 l0,174 l-504,0 z" fill="#fe00ff" stroke="black" stroke-width="5"/>
<path d="M9704,7895 l296,0 l0,2105 l-296,0 z" fill="#6a00ff" stroke="black" stroke-width="5"/>
<path d="M0,8136 l3378,0 l0,274 l-3378,0 z" fill="#fe00ff" stroke="black" stroke-width="5"/>
<path d="M0,5649 l1918,0 l0,962 l-1918,0 z" fill="#6900ff" stroke="black" stroke-width="5"/>
<path d="M0,8410 l1510,0 l0,153 l-1510,0 z" fill="#fe00ff" stroke="black" stroke-width="5"/>
<path d="M8527,5994 l311,0 l0,526 l-311,0 z" fill="#fe00ff" stroke="black" stroke-width="5"/>
<path d="M15,9115 l3345,0 l0,885 l-3345,0 z" fill="#fe00ff" stroke="black" stroke-width="5"/>
<path d="M6464,3072 l665,0 l0,5153 l-665,0 z" fill="#bb00ff" stroke="black" stroke-width="5"/>
<path d="M4153,8549 l367,0 l0,659 l-367,0 z" fill="#fe00ff" stroke="black" stroke-width="5"/>
<path d="M4759,8228 l468,0 l0,433 l-468,0 z" fill="#fe00ff" stroke="black" stroke-width="5"/>
<path d="M9788,7115 l60,0 l0,60 l-60,0 z" fill="green"/>
<path d="M9818,7145 l-844.5,-46" stroke="black" stroke-width="5"/>
<path d="M7916,7032 l60,0 l0,60 l-60,0 z" fill="green"/>
<path d="M7946,7062 l-408,-452.5" stroke="black" stroke-width="5"/>
<path d="M885,7277 l60,0 l0,60 l-60,0 z" fill="green"/>
<path d="M915,7307 l1825,192" stroke="black" stroke-width="5"/>
<path d="M258,1488 l60,0 l0,60 l-60,0 z" fill="green"/>
<path d="M288,1518 l577,-92.5" stroke="black" stroke-width="5"/>
<path d="M-12,1631 l60,0 l0,60 l-60,0 z" fill="green"/>
<path d="M18,1661 l126,-144" stroke="black" stroke-width="5"/>
<path d="M1164,6968 l60,0 l0,60 l-60,0 z" fill="green"/>
<path d="M1194,6998 l1505,-0.5" stroke="black" stroke-width="5"/>
<path d="M9358,969 l60,0 l0,60 l-60,0 z" fill="green"/>
<path d="M9388,999 l238,1652" stroke="black" stroke-width="5"/>
<path d="M660,8586 l60,0 l0,60 l-60,0 z" fill="green"/>
<path d="M690,8616 l803,210.5" stroke="black" stroke-width="5"/>
<path d="M6691,1837 l60,0 l0,60 l-60,0 z" fill="green"/>
<path d="M6721,1867 l453,-702.5" stroke="black" stroke-width="5"/>
<path d="M2688,3356 l60,0 l0,60 l-60,0 z" fill="green"/>
<path d="M2718,3386 l37,-426.5" stroke="black" stroke-width="5"/>
<path d="M607,3004 l60,0 l0,60 l-60,0 z" fill="green"/>
<path d="M637,3034 l220.5,310.5" stroke="black" stroke-width="5"/>
<path d="M6346,1998 l60,0 l0,60 l-60,0 z" fill="green"/>
<path d="M6376,2028 l-1316.5,-575.5" stroke="black" stroke-width="5"/>
<path d="M4863,359 l60,0 l0,60 l-60,0 z" fill="green"/>
<path d="M4893,389 l27,-46" stroke="black" stroke-width="5"/>
<path d="M7171,9691 l60,0 l0,60 l-60,0 z" fill="green"/>
<path d="M7201,9721 l-285,-67" stroke="black" stroke-width="5"/>
<path d="M8910,887 l60,0 l0,60 l-60,0 z" fill="green"/>
<path d="M8940,917 l-150.5,-264" stroke="black" stroke-width="5"/>
<path d="M7845,9087 l60,0 l0,60 l-60,0 z" fill="green"/>
<path d="M7875,9117 l72.5,89" stroke="black" stroke-width="5"/>
<path d="M236,6828 l60,0 l0,60 l-60,0 z" fill="green"/>
<path d="M266,6858 l-107.5,515.5" stroke="black" stroke-width="5"/>
<path d="M9528,8447 l60,0 l0,60 l-60,0 z" fill="green"/>
<path d="M9558,8477 l-338,229" stroke="black" stroke-width="5"/>
<path d="M3461,3079 l60,0 l0,60 l-60,0 z" fill="green"/>
<path d="M3491,3109 l-22.5,1196.5" stroke="black" stroke-width="5"/>
<path d="M3572,3079 l60,0 l0,60 l-60,0 z" fill="green"/>
<path d="M3602,3109 l335.5,0.5" stroke="black" stroke-width="5"/>
<path d="M2292,3839 l60,0 l0,60 l-60,0 z" fill="green"/>
<path d="M2322,3869 l289,332.5" stroke="black" stroke-width="5"/>
<path d="M2957,1345 l60,0 l0,60 l-60,0 z" fill="green"/>
<path d="M2987,1375 l-1,-6.5" stroke="black" stroke-width="5"/>
<path d="M9629,7565 l60,0 l0,60 l-60,0 z" fill="green"/>
<path d="M9659,7595 l-762,141.5" stroke="black" stroke-width="5"/>
<path d="M3696,1585 l60,0 l0,60 l-60,0 z" fill="green"/>
<path d="M3726,1615 l-354,-142" stroke="black" stroke-width="5"/>
<path d="M9220,1090 l60,0 l0,60 l-60,0 z" fill="green"/>
<path d="M9250,1120 l-194,1588.5" stroke="black" stroke-width="5"/>
<path d="M4057,8917 l60,0 l0,60 l-60,0 z" fill="green"/>
<path d="M4087,8947 l-334,49.5" stroke="black" stroke-width="5"/>
<path d="M5068,2933 l60,0 l0,60 l-60,0 z" fill="green"/>
<path d="M5098,2963 l-411.5,168" stroke="black" stroke-width="5"/>
<path d="M2157,3949 l60,0 l0,60 l-60,0 z" fill="green"/>
<path d="M2187,3979 l-216.5,50" stroke="black" stroke-width="5"/>
<path d="M8386,1076 l60,0 l0,60 l-60,0 z" fill="green"/>
<path d="M8416,1106 l-222,154.5" stroke="black" stroke-width="5"/>
<path d="M5884,4164 l60,0 l0,60 l-60,0 z" fill="green"/>
<path d="M5914,4194 l-44.5,25" stroke="black" stroke-width="5"/>
<path d="M9135,932 l60,0 l0,60 l-60,0 z" fill="green"/>
<path d="M9165,962 l416,-366.5" stroke="black" stroke-width="5"/>
<path d="M1889,6027 l60,0 l0,60 l-60,0 z" fill="green"/>
<path d="M1919,6057 l454.5,-86.5" stroke="black" stroke-width="5"/>
<path d="M5147,7186 l60,0 l0,60 l-60,0 z" fill="green"/>
<path d="M5177,7216 l25.5,-1566" stroke="black" stroke-width="5"/>
<path d="M6432,7514 l60,0 l0,60 l-60,0 z" fill="green"/>
<path d="M6462,7544 l-609,-85" stroke="black" stroke-width="5"/>
<path d="M91,4237 l60,0 l0,60 l-60,0 z" fill="green"/>
<path d="M121,4267 l476.5,42.5" stroke="black" stroke-width="5"/>
<path d="M9177,77 l60,0 l0,60 l-60,0 z" fill="green"/>
<path d="M9207,107 l-221.5,-11" stroke="black" stroke-width="5"/>
<path d="M6001,2375 l60,0 l0,60 l-60,0 z" fill="green"/>
<path d="M6031,2405 l948.5,131" stroke="black" stroke-width="5"/>
<path d="M9690,6588 l60,0 l0,60 l-60,0 z" fill="green"/>
<path d="M9720,6618 l-279.5,-358.5" stroke="black" stroke-width="5"/>
<path d="M6889,8196 l60,0 l0,60 l-60,0 z" fill="green"/>
<path d="M6919,8226 l-601.5,519" stroke="black" stroke-width="5"/>
<path d="M2537,1990 l60,0 l0,60 l-60,0 z" fill="green"/>
<path d="M2567,2020 l-263.5,-525.5" stroke="black" stroke-width="5"/>
<path d="M9810,4273 l60,0 l0,60 l-60,0 z" fill="green"/>
<path d="M9840,4303 l-1275.5,793.5" stroke="black" stroke-width="5"/>
<path d="M7527,7737 l60,0 l0,60 l-60,0 z" fill="green"/>
<path d="M7557,7767 l-95.5,456" stroke="black" stroke-width="5"/>
<path d="M1157,5618 l60,0 l0,60 l-60,0 z" fill="green"/>
<path d="M1187,5648 l-280,-346.5" stroke="black" stroke-width="5"/>
<path d="M1126,6883 l60,0 l0,60 l-60,0 z" fill="green"/>
<path d="M1156,6913 l1584,-112.5" stroke="black" stroke-width="5"/>
<path d="M6180,2868 l60,0 l0,60 l-60,0 z" fill="green"/>
<path d="M6210,2898 l769.5,9.5" stroke="black" stroke-width="5"/>
<path d="M5880,6662 l60,0 l0,60 l-60,0 z" fill="green"/>
<path d="M5910,6692 l63,-86" stroke="black" stroke-width="5"/>
<path d="M9915,8086 l60,0 l0,60 l-60,0 z" fill="green"/>
<path d="M9945,8116 l-93,831.5" stroke="black" stroke-width="5"/>
<path d="M374,8171 l60,0 l0,60 l-60,0 z" fill="green"/>
<path d="M404,8201 l1285,72" stroke="black" stroke-width="5"/>
<path d="M1231,6202 l60,0 l0,60 l-60,0 z" fill="green"/>
<path d="M1261,6232 l-302,-102" stroke="black" stroke-width="5"/>
<path d="M654,8511 l60,0 l0,60 l-60,0 z" fill="green"/>
<path d="M684,8541 l71,-54.5" stroke="black" stroke-width="5"/>
<path d="M8799,6174 l60,0 l0,60 l-60,0 z" fill="green"/>
<path d="M8829,6204 l-146.5,53" stroke="black" stroke-width="5"/>
<path d="M1110,9459 l60,0 l0,60 l-60,0 z" fill="green"/>
<path d="M1140,9489 l547.5,68.5" stroke="black" stroke-width="5"/>
<path d="M6953,8029 l60,0 l0,60 l-60,0 z" fill="green"/>
<path d="M6983,8059 l-186.5,-2410.5" stroke="black" stroke-width="5"/>
<path d="M4159,9004 l60,0 l0,60 l-60,0 z" fill="green"/>
<path d="M4189,9034 l147.5,-155.5" stroke="black" stroke-width="5"/>
<path d="M5163,8200 l60,0 l0,60 l-60,0 z" fill="green"/>
<path d="M5193,8230 l-200,214.5" stroke="black" stroke-width="5"/>
<text font-size="190.69251784911845" text-anchor="middle" x="8973.5" y="7165.742381247192">
0
</text>
<text font-size="190.69251784911845" text-anchor="middle" x="7538" y="6676.242381247192">
1
</text>
<text font-size="190.69251784911845" text-anchor="middle" x="2740" y="7565.742381247192">
2
</text>
<text font-size="190.69251784911845" text-anchor="middle" x="865" y="1492.2423812471914">
3
</text>
<text font-size="190.69251784911845" text-anchor="middle" x="144" y="1583.7423812471914">
4
</text>
<text font-size="190.69251784911845" text-anchor="middle" x="2699" y="7064.242381247192">
5
</text>
<text font-size="190.69251784911845" text-anchor="middle" x="9626" y="2717.7423812471916">
6
</text>
<text font-size="190.69251784911845" text-anchor="middle" x="1493" y="8893.242381247192">
7
</text>
<text font-size="190.69251784911845" text-anchor="middle" x="7174" y="1231.2423812471914">
8
</text>
<text font-size="190.69251784911845" text-anchor="middle" x="2755" y="3026.2423812471916">
9
</text>
<text font-size="190.69251784911845" text-anchor="middle" x="857.5" y="3411.2423812471916">
10
</text>
<text font-size="190.69251784911845" text-anchor="middle" x="5059.5" y="1519.2423812471914">
11
</text>
<text font-size="190.69251784911845" text-anchor="middle" x="4920" y="409.7423812471915">
12
</text>
<text font-size="190.69251784911845" text-anchor="middle" x="6916" y="9720.742381247192">
13
</text>
<text font-size="190.69251784911845" text-anchor="middle" x="8789.5" y="719.7423812471915">
14
</text>
<text font-size="190.69251784911845" text-anchor="middle" x="7947.5" y="9272.742381247192">
15
</text>
<text font-size="190.69251784911845" text-anchor="middle" x="158.5" y="7440.242381247192">
16
</text>
<text font-size="190.69251784911845" text-anchor="middle" x="9220" y="8772.742381247192">
17
</text>
<text font-size="190.69251784911845" text-anchor="middle" x="3468.5" y="4372.242381247192">
18
</text>
<text font-size="190.69251784911845" text-anchor="middle" x="3937.5" y="3176.2423812471916">
19
</text>
<text font-size="190.69251784911845" text-anchor="middle" x="2611" y="4268.242381247192">
20
</text>
<text font-size="190.69251784911845" text-anchor="middle" x="2986" y="1435.2423812471914">
21
</text>
<text font-size="190.69251784911845" text-anchor="middle" x="8897" y="7803.242381247192">
22
</text>
<text font-size="190.69251784911845" text-anchor="middle" x="3372" y="1539.7423812471914">
23
</text>
<text font-size="190.69251784911845" text-anchor="middle" x="9056" y="2775.2423812471916">
24
</text>
<text font-size="190.69251784911845" text-anchor="middle" x="3753" y="9063.242381247192">
25
</text>
<text font-size="190.69251784911845" text-anchor="middle" x="4686.5" y="3197.7423812471916">
26
</text>
<text font-size="190.69251784911845" text-anchor="middle" x="1970.5" y="4095.7423812471916">
27
</text>
<text font-size="190.69251784911845" text-anchor="middle" x="8194" y="1327.2423812471914">
28
</text>
<text font-size="190.69251784911845" text-anchor="middle" x="5869.5" y="4285.742381247192">
29
</text>
<text font-size="190.69251784911845" text-anchor="middle" x="9581" y="662.2423812471915">
30
</text>
<text font-size="190.69251784911845" text-anchor="middle" x="2373.5" y="6037.242381247192">
31
</text>
<text font-size="190.69251784911845" text-anchor="middle" x="5202.5" y="5716.742381247192">
32
</text>
<text font-size="190.69251784911845" text-anchor="middle" x="5853" y="7525.742381247192">
33
</text>
<text font-size="190.69251784911845" text-anchor="middle" x="597.5" y="4376.242381247192">
34
</text>
<text font-size="190.69251784911845" text-anchor="middle" x="8985.5" y="162.74238124719145">
35
</text>
<text font-size="190.69251784911845" text-anchor="middle" x="6979.5" y="2602.7423812471916">
36
</text>
<text font-size="190.69251784911845" text-anchor="middle" x="9440.5" y="6326.242381247192">
37
</text>
<text font-size="190.69251784911845" text-anchor="middle" x="6317.5" y="8811.742381247192">
38
</text>
<text font-size="190.69251784911845" text-anchor="middle" x="2303.5" y="1561.2423812471914">
39
</text>
<text font-size="190.69251784911845" text-anchor="middle" x="8564.5" y="5163.242381247192">
40
</text>
<text font-size="190.69251784911845" text-anchor="middle" x="7461.5" y="8289.742381247192">
41
</text>
<text font-size="190.69251784911845" text-anchor="middle" x="907" y="5368.242381247192">
42
</text>
<text font-size="190.69251784911845" text-anchor="middle" x="2740" y="6867.242381247192">
43
</text>
<text font-size="190.69251784911845" text-anchor="middle" x="6979.5" y="2974.2423812471916">
44
</text>
<text font-size="190.69251784911845" text-anchor="middle" x="5973" y="6672.742381247192">
45
</text>
<text font-size="190.69251784911845" text-anchor="middle" x="9852" y="9014.242381247192">
46
</text>
<text font-size="190.69251784911845" text-anchor="middle" x="1689" y="8339.742381247192">
47
</text>
<text font-size="190.69251784911845" text-anchor="middle" x="959" y="6196.742381247192">
48
</text>
<text font-size="190.69251784911845" text-anchor="middle" x="755" y="8553.242381247192">
49
</text>
<text font-size="190.69251784911845" text-anchor="middle" x="8682.5" y="6323.742381247192">
50
</text>
<text font-size="190.69251784911845" text-anchor="middle" x="1687.5" y="9624.242381247192">
51
</text>
<text font-size="190.69251784911845" text-anchor="middle" x="6796.5" y="5715.242381247192">
52
</text>
<text font-size="190.69251784911845" text-anchor="middle" x="4336.5" y="8945.242381247192">
53
</text>
<text font-size="190.69251784911845" text-anchor="middle" x="4993" y="8511.242381247192">
54
</text>
</svg>