<svg viewBox="-100 -100 10200 10200" xmlns="http://www.w3.org/2000/svg">
<path d="M0,0 l10000,0 l0,10000 l-10000,0 z" fill="white"/>
<path d="M8203,0 l622,0 l0,481 l-622,0 z" fill="#fe00ff" stroke="black" stroke-width="5"/>
<path d="M3392,3805 l286,0 l0,3641 l-286,0 z" fill="#ef00ff" stroke="black" stroke-width="5"/>
<path d="M52,8842 l1049,0 l0,1026 l-1049,0 z" fill="#fe00ff" stroke="black" stroke-width="5"/>
<path d="M8110,7312 l835,0 l0,234 l-835,0 z" fill="#fe00ff" stroke="black" stroke-width="5"/>
<path d="M9410,7528 l285,0 l0,2472 l-285,0 z" fill="#a000ff" stroke="black" stroke-width="5"/>
<path d="M1243,3534 l493,0 l0,852 l-493,0 z" fill="#fe00ff" stroke="black" stroke-width="5"/>
<path d="M7013,4452 l486,0 l0,469 l-486,0 z" fill="#fe00ff" stroke="black" stroke-width="5"/>
<path d="M7274,83 l578,0 l0,633 l-578,0 z" fill="#fe00ff" stroke="black" stroke-width="5"/>
<path d="M6762,4921 l1024,0 l0,883 l-1024,0 z" fill="#fe00ff" stroke="black" stroke-width="5"/>
<path d="M7056,7400 l1043,0 l0,855 l-1043,0 z" fill="#f400ff" stroke="black" stroke-width="5"/>
<path d="M7514,4116 l863,0 l0,577 l-863,0 z" fill="#df00ff" stroke="black" stroke-width="5"/>
<path d="M5299,9118 l693,0 l0,851 l-693,0 z" fill="#fe00ff" stroke="black" stroke-width="5"/>
<path d="M3681,4526 l501,0 l0,389 l-501,0 z" fill="#fe00ff" stroke="black" stroke-width="5"/>
<path d="M869,149 l1006,0 l0,943 l-1006,0 z" fill="#fe00ff" stroke="black" stroke-width="5"/>
<path d="M408,6389 l674,0 l0,405 l-674,0 z" fill="#fe00ff" stroke="black" stroke-width="5"/>
<path d="M7056,6586 l941,0 l0,814 l-941,0 z" fill="#1600ff" stroke="black" stroke-width="5"/>
<path d="M9161,4689 l366,0 l0,232 l-366,0 z" fill="#fe00ff" stroke="black" stroke-width="5"/>
<path d="M5850,7871 l398,0 l0,1055 l-398,0 z" fill="#fe00ff" stroke="black" stroke-width="5"/>
<path d="M4825,2871 l143,0 l0,6997 l-143,0 z" fill="#fe00ff" stroke="black" stroke-width="5"/>
<path d="M2123,5349 l448,0 l0,930 l-448,0 z" fill="#0f00ff" stroke="black" stroke-width="5"/>
<path d="M1453,1244 l389,0 l0,522 l-389,0 z" fill="#fe00ff" stroke="black" stroke-width="5"/>
<path d="M6802,891 l168,0 l0,604 l-168,0 z" fill="#fe00ff" stroke="black" stroke-width="5"/>
<path d="M6806,1720 l1170,0 l0,1178 l-1170,0 z" fill="#fe00ff" stroke="black" stroke-width="5"/>
<path d="M1173,9033 l643,0 l0,650 l-643,0 z" fill="#fe00ff" stroke="black" stroke-width="5"/>
<path d="M8744,5055 l314,0 l0,1503 l-314,0 z" fill="#fe00ff" stroke="black" stroke-width="5"/>
<path d="M9527,4265 l473,0 l0,908 l-473,0 z" fill="#8a00ff" stroke="black" stroke-width="5"/>
<path d="M3207,7446 l701,0 l0,370 l-701,0 z" fill="#fe00ff" stroke="black" stroke-width="5"/>
<path d="M7786,4921 l1741,0 l0,134 l-1741,0 z" fill="#1500ff" stroke="black" stroke-width="5"/>
<path d="M2852,753 l869,0 l0,852 l-869,0 z" fill="#fe00ff" stroke="black" stroke-width="5"/>
<path d="M0,5787 l65,0 l0,3055 l-65,0 z" fill="#fe00ff" stroke="black" stroke-width="5"/>
<path d="M3678,5884 l1032,0 l0,997 l-1032,0 z" fill="#fe00ff" stroke="black" stroke-width="5"/>
<path d="M8857,0 l1143,0 l0,676 l-1143,0 z" fill="#f000ff" stroke="black" stroke-width="5"/>
<path d="M8088,1829 l294,0 l0,317 l-294,0 z" fill="#fe00ff" stroke="black" stroke-width="5"/>
<path d="M694,3378 l549,0 l0,1200 l-549,0 z" fill="#fe00ff" stroke="black" stroke-width="5"/>
<path d="M5,4585 l122,0 l0,285 l-122,0 z" fill="#fe00ff" stroke="black" stroke-width="5"/>
<path d="M8099,7546 l886,0 l0,1363 l-886,0 z" fill="#fe00ff" stroke="black" stroke-width="5"/>
<path d="M4273,3839 l276,0 l0,364 l-276,0 z" fill="#fe00ff" stroke="black" stroke-width="5"/>
<path d="M2286,2416 l2592,0 l0,407 l-2592,0 z" fill="#fe00ff" stroke="black" stroke-width="5"/>
<path d="M7514,2898 l714,0 l0,1218 l-714,0 z" fill="#9900ff" stroke="black" stroke-width="5"/>
<path d="M0,3378 l694,0 l0,1200 l-694,0 z" fill="#5800ff" stroke="black" stroke-width="5"/>
<path d="M9116,1896 l884,0 l0,1707 l-884,0 z" fill="#f900ff" stroke="black" stroke-width="5"/>
<path d="M9695,8811 l219,0 l0,359 l-219,0 z" fill="#fe00ff" stroke="black" stroke-width="5"/>
<path d="M8339,6385 l194,0 l0,105 l-194,0 z" fill="#fe00ff" stroke="black" stroke-width="5"/>
<path d="M2571,5349 l821,0 l0,943 l-821,0 z" fill="#9b00ff" stroke="black" stroke-width="5"/>
<path d="M5993,1653 l813,0 l0,2856 l-813,0 z" fill="#fe00ff" stroke="black" stroke-width="5"/>
<path d="M9116,3603 l884,0 l0,353 l-884,0 z" fill="#fe00ff" stroke="black" stroke-width="5"/>
<path d="M1875,775 l399,0 l0,2081 l-399,0 z" fill="#fe00ff" stroke="black" stroke-width="5"/>
<path d="M8985,7528 l425,0 l0,1983 l-425,0 z" fill="#fe00ff" stroke="black" stroke-width="5"/>
<path d="M6842,242 l261,0 l0,264 l-261,0 z" fill="#fe00ff" stroke="black" stroke-width="5"/>
<path d="M3397,7826 l517,0 l0,1104 l-517,0 z" fill="#fe00ff" stroke="black" stroke-width="5"/>
<path d="M7695,8255 l401,0 l0,436 l-401,0 z" fill="#fe00ff" stroke="black" stroke-width="5"/>
<path d="M7852,481 l1005,0 l0,494 l-1005,0 z" fill="#fe00ff" stroke="black" stroke-width="5"/>
<path d="M65,6292 l2990,0 l0,97 l-2990,0 z" fill="#0d00ff" stroke="black" stroke-width="5"/>
<path d="M293,4841 l1226,0 l0,519 l-1226,0 z" fill="#fe00ff" stroke="black" stroke-width="5"/>
<path d="M6758,6586 l298,0 l0,2928 l-298,0 z" fill="#7e00ff" stroke="black" stroke-width="5"/>
<path d="M127,4578 l1853,0 l0,263 l-1853,0 z" fill="#a000ff" stroke="black" stroke-width="5"/>
<path d="M8428,3296 l688,0 l0,678 l-688,0 z" fill="#fe00ff" stroke="black" stroke-width="5"/>
<path d="M3055,6292 l337,0 l0,329 l-337,0 z" fill="#fe00ff" stroke="black" stroke-width="5"/>
<path d="M2470,2832 l390,0 l0,468 l-390,0 z" fill="#fe00ff" stroke="black" stroke-width="5"/>
<path d="M65,5787 l2058,0 l0,505 l-2058,0 z" fill="#f700ff" stroke="black" stroke-width="5"/>
<path d="M7499,4693 l1662,0 l0,228 l-1662,0 z" fill="#1300ff" stroke="black" stroke-width="5"/>
<path d="M611,5360 l668,0 l0,175 l-668,0 z" fill="#fe00ff" stroke="black" stroke-width="5"/>
<path d="M7786,5055 l958,0 l0,1330 l-958,0 z" fill="#ca00ff" stroke="black" stroke-width="5"/>
<path d="M2833,8953 l1174,0 l0,904 l-1174,0 z" fill="#fe00ff" stroke="black" stroke-width="5"/>
<path d="M4863,1374 l618,0 l0,611 l-618,0 z" fill="#fe00ff" stroke="black" stroke-width="5"/>
<path d="M346,1457 l1079,0 l0,704 l-1079,0 z" fill="#fe00ff" stroke="black" stroke-width="5"/>
<path d="M9228,7388 l325,0 l0,140 l-325,0 z" fill="#fe00ff" stroke="black" stroke-width="5"/>
<path d="M6399,9514 l2913,0 l0,486 l-2913,0 z" fill="#fb00ff" stroke="black" stroke-width="5"/>
<path d="M8228,3547 l148,0 l0,399 l-148,0 z" fill="#fe00ff" stroke="black" stroke-width="5"/>
<path d="M4007,8937 l812,0 l0,917 l-812,0 z" fill="#fe00ff" stroke="black" stroke-width="5"/>
<path d="M3678,3805 l595,0 l0,721 l-595,0 z" fill="#1e00ff" stroke="black" stroke-width="5"/>
<path d="M7391,8909 l1111,0 l0,605 l-1111,0 z" fill="#fe00ff" stroke="black" stroke-width="5"/>
<path d="M9312,9511 l98,0 l0,442 l-98,0 z" fill="#fe00ff" stroke="black" stroke-width="5"/>
<path d="M5471,8437 l231,0 l0,155 l-231,0 z" fill="#fe00ff" stroke="black" stroke-width="5"/>
<path d="M1736,3300 l2410,0 l0,505 l-2410,0 z" fill="#fc00ff" stroke="black" stroke-width="5"/>
<path d="M1602,6865 l424,0 l0,1058 l-424,0 z" fill="#fe00ff" stroke="black" stroke-width="5"/>
<path d="M6970,975 l1955,0 l0,745 l-1955,0 z" fill="#fd00ff" stroke="black" stroke-width="5"/>
<path d="M9058,5831 l589,0 l0,482 l-589,0 z" fill="#fe00ff" stroke="black" stroke-width="5"/>
<path d="M9058,5173 l942,0 l0,658 l-942,0 z" fill="#f500ff" stroke="black" stroke-width="5"/>
<path d="M6248,7589 l507,0 l0,1126 l-507,0 z" fill="#fe00ff" stroke="black" stroke-width="5"/>
<path d="M5643,4128 l350,0 l0,425 l-350,0 z" fill="#fe00ff" stroke="black" stroke-width="5"/>
<path d="M7976,2450 l279,0 l0,448 l-279,0 z" fill="#fe00ff" stroke="black" stroke-width="5"/>
<path d="M2419,4473 l747,0 l0,404 l-747,0 z" fill="#fe00ff" stroke="black" stroke-width="5"/>
<path d="M1796,6404 l118,0 l0,70 l-118,0 z" fill="#fe00ff" stroke="black" stroke-width="5"/>
<path d="M2187,6279 l12,0 l0,13 l-12,0 z" fill="#fe00ff" stroke="black" stroke-width="5"/>
<path d="M5938,460 l864,0 l0,879 l-864,0 z" fill="#fe00ff" stroke="black" stroke-width="5"/>
<path d="M1978,2997 l445,0 l0,303 l-445,0 z" fill="#fe00ff" stroke="black" stroke-width="5"/>
<path d="M4968,6212 l882,0 l0,2225 l-882,0 z" fill="#e700ff" stroke="black" stroke-width="5"/>
<path d="M1115,7648 l441,0 l0,385 l-441,0 z" fill="#fe00ff" stroke="black" stroke-width="5"/>
<path d="M7997,6987 l602,0 l0,325 l-602,0 z" fill="#fe00ff" stroke="black" stroke-width="5"/>
<path d="M6762,5804 l985,0 l0,782 l-985,0 z" fill="#fe00ff" stroke="black" stroke-width="5"/>
<path d="M5743,1339 l608,0 l0,314 l-608,0 z" fill="#fe00ff" stroke="black" stroke-width="5"/>
<path d="M4903,1985 l1090,0 l0,886 l-1090,0 z" fill="#fe00ff" stroke="black" stroke-width="5"/>
<path d="M2797,7922 l563,0 l0,522 l-563,0 z" fill="#fe00ff" stroke="black" stroke-width="5"/>
<path d="M778,7047 l803,0 l0,470 l-803,0 z" fill="#fe00ff" stroke="black" stroke-width="5"/>
<path d="M2029,6389 l639,0 l0,2150 l-639,0 z" fill="#fe00ff" stroke="black" stroke-width="5"/>
<path d="M3936,8057 l623,0 l0,642 l-623,0 z" fill="#fe00ff" stroke="black" stroke-width="5"/>
<path d="M8377,3974 l939,0 l0,715 l-939,0 z" fill="#2c00ff" stroke="black" stroke-width="5"/>
<path d="M4146,2848 l612,0 l0,727 l-612,0 z" fill="#fe00ff" stroke="black" stroke-width="5"/>
<path d="M1980,3811 l439,0 l0,1095 l-439,0 z" fill="#fe00ff" stroke="black" stroke-width="5"/>
<path d="M0,0 l346,0 l0,2540 l-346,0 z" fill="#5500ff" stroke="black" stroke-width="5"/>
<path d="M5995,9139 l404,0 l0,861 l-404,0 z" fill="#fe00ff" stroke="black" stroke-width="5"/>
<path d="M0,2540 l1736,0 l0,838 l-1736,0 z" fill="#f900ff" stroke="black" stroke-width="5"/>
<path d="M2289,1614 l959,0 l0,797 l-959,0 z" fill="#fe00ff" stroke="black" stroke-width="5"/>
<path d="M1519,4906 l1873,0 l0,443 l-1873,0 z" fill="#4c00ff" stroke="black" stroke-width="5"/>
<path d="M508,1227 l845,0 l0,230 l-845,0 z" fill="#fe00ff" stroke="black" stroke-width="5"/>
<path d="M2077,8539 l663,0 l0,603 l-663,0 z" fill="#fe00ff" stroke="black" stroke-width="5"/>
<path d="M8925,676 l1075,0 l0,1220 l-1075,0 z" fill="#4900ff" stroke="black" stroke-width="5"/>
<path d="M6806,3108 l708,0 l0,1323 l-708,0 z" fill="#fe00ff" stroke="black" stroke-width="5"/>
<path d="M5192,4566 l1307,0 l0,1646 l-1307,0 z" fill="#fe00ff" stroke="black" stroke-width="5"/>
<path d="M0,9868 l5299,0 l0,132 l-5299,0 z" fill="#bc00ff" stroke="black" stroke-width="5"/>
<path d="M9316,3956 l684,0 l0,309 l-684,0 z" fill="#f700ff" stroke="black" stroke-width="5"/>
<path d="M5990,6365 l135,0 l0,204 l-135,0 z" fill="#fe00ff" stroke="black" stroke-width="5"/>
<path d="M346,0 l523,0 l0,1227 l-523,0 z" fill="#1000ff" stroke="black" stroke-width="5"/>
<path d="M0,5535 l2123,0 l0,252 l-2123,0 z" fill="#1700ff" stroke="black" stroke-width="5"/>
<path d="M2686,7182 l521,0 l0,725 l-521,0 z" fill="#fe00ff" stroke="black" stroke-width="5"/>
<path d="M6499,4509 l259,0 l0,3080 l-259,0 z" fill="#fe00ff" stroke="black" stroke-width="5"/>
<path d="M8494,271 l60,0 l0,60 l-60,0 z" fill="green"/>
<path d="M8524,301 l-10,-60.5" stroke="black" stroke-width="5"/>
<path d="M3614,6403 l60,0 l0,60 l-60,0 z" fill="green"/>
<path d="M3644,6433 l-109,-807.5" stroke="black" stroke-width="5"/>
<path d="M854,9654 l60,0 l0,60 l-60,0 z" fill="green"/>
<path d="M884,9684 l-307.5,-329" stroke="black" stroke-width="5"/>
<path d="M8186,7506 l60,0 l0,60 l-60,0 z" fill="green"/>
<path d="M8216,7536 l311.5,-107" stroke="black" stroke-width="5"/>
<path d="M9410,8942 l60,0 l0,60 l-60,0 z" fill="green"/>
<path d="M9440,8972 l112.5,-208" stroke="black" stroke-width="5"/>
<path d="M1499,3947 l60,0 l0,60 l-60,0 z" fill="green"/>
<path d="M1529,3977 l-39.5,-17" stroke="black" stroke-width="5"/>
<path d="M7393,4652 l60,0 l0,60 l-60,0 z" fill="green"/>
<path d="M7423,4682 l-167,4.5" stroke="black" stroke-width="5"/>
<path d="M7535,389 l60,0 l0,60 l-60,0 z" fill="green"/>
<path d="M7565,419 l-2,-19.5" stroke="black" stroke-width="5"/>
<path d="M7435,4894 l60,0 l0,60 l-60,0 z" fill="green"/>
<path d="M7465,4924 l-191,438.5" stroke="black" stroke-width="5"/>
<path d="M7565,7758 l60,0 l0,60 l-60,0 z" fill="green"/>
<path d="M7595,7788 l-17.5,39.5" stroke="black" stroke-width="5"/>
<path d="M7903,4582 l60,0 l0,60 l-60,0 z" fill="green"/>
<path d="M7933,4612 l12.5,-207.5" stroke="black" stroke-width="5"/>
<path d="M5407,9854 l60,0 l0,60 l-60,0 z" fill="green"/>
<path d="M5437,9884 l208.5,-340.5" stroke="black" stroke-width="5"/>
<path d="M3980,4566 l60,0 l0,60 l-60,0 z" fill="green"/>
<path d="M4010,4596 l-78.5,124.5" stroke="black" stroke-width="5"/>
<path d="M1379,745 l60,0 l0,60 l-60,0 z" fill="green"/>
<path d="M1409,775 l-37,-154.5" stroke="black" stroke-width="5"/>
<path d="M726,6395 l60,0 l0,60 l-60,0 z" fill="green"/>
<path d="M756,6425 l-11,166.5" stroke="black" stroke-width="5"/>
<path d="M7651,7319 l60,0 l0,60 l-60,0 z" fill="green"/>
<path d="M7681,7349 l-154.5,-356" stroke="black" stroke-width="5"/>
<path d="M9337,4802 l60,0 l0,60 l-60,0 z" fill="green"/>
<path d="M9367,4832 l-23,-27" stroke="black" stroke-width="5"/>
<path d="M5828,8369 l60,0 l0,60 l-60,0 z" fill="green"/>
<path d="M5858,8399 l191,-0.5" stroke="black" stroke-width="5"/>
<path d="M4920,9374 l60,0 l0,60 l-60,0 z" fill="green"/>
<path d="M4950,9404 l-53.5,-3034.5" stroke="black" stroke-width="5"/>
<path d="M2413,5409 l60,0 l0,60 l-60,0 z" fill="green"/>
<path d="M2443,5439 l-96,375" stroke="black" stroke-width="5"/>
<path d="M1621,1508 l60,0 l0,60 l-60,0 z" fill="green"/>
<path d="M1651,1538 l-3.5,-33" stroke="black" stroke-width="5"/>
<path d="M6928,1234 l60,0 l0,60 l-60,0 z" fill="green"/>
<path d="M6958,1264 l-72,-71" stroke="black" stroke-width="5"/>
<path d="M7349,2356 l60,0 l0,60 l-60,0 z" fill="green"/>
<path d="M7379,2386 l12,-77" stroke="black" stroke-width="5"/>
<path d="M1429,9312 l60,0 l0,60 l-60,0 z" fill="green"/>
<path d="M1459,9342 l35.5,16" stroke="black" stroke-width="5"/>
<path d="M9019,5804 l60,0 l0,60 l-60,0 z" fill="green"/>
<path d="M9049,5834 l-148,-27.5" stroke="black" stroke-width="5"/>
<path d="M9594,4824 l60,0 l0,60 l-60,0 z" fill="green"/>
<path d="M9624,4854 l139.5,-135" stroke="black" stroke-width="5"/>
<path d="M3521,7550 l60,0 l0,60 l-60,0 z" fill="green"/>
<path d="M3551,7580 l6.5,51" stroke="black" stroke-width="5"/>
<path d="M9465,4993 l60,0 l0,60 l-60,0 z" fill="green"/>
<path d="M9495,5023 l-838.5,-35" stroke="black" stroke-width="5"/>
<path d="M3269,1160 l60,0 l0,60 l-60,0 z" fill="green"/>
<path d="M3299,1190 l-12.5,-11" stroke="black" stroke-width="5"/>
<path d="M-26,6539 l60,0 l0,60 l-60,0 z" fill="green"/>
<path d="M4,6569 l28.5,745.5" stroke="black" stroke-width="5"/>
<path d="M4155,6318 l60,0 l0,60 l-60,0 z" fill="green"/>
<path d="M4185,6348 l9,34.5" stroke="black" stroke-width="5"/>
<path d="M9458,300 l60,0 l0,60 l-60,0 z" fill="green"/>
<path d="M9488,330 l-59.5,8" stroke="black" stroke-width="5"/>
<path d="M8238,1972 l60,0 l0,60 l-60,0 z" fill="green"/>
<path d="M8268,2002 l-33,-14.5" stroke="black" stroke-width="5"/>
<path d="M912,4049 l60,0 l0,60 l-60,0 z" fill="green"/>
<path d="M942,4079 l26.5,-101" stroke="black" stroke-width="5"/>
<path d="M88,4665 l60,0 l0,60 l-60,0 z" fill="green"/>
<path d="M118,4695 l-52,32.5" stroke="black" stroke-width="5"/>
<path d="M8567,8181 l60,0 l0,60 l-60,0 z" fill="green"/>
<path d="M8597,8211 l-55,16.5" stroke="black" stroke-width="5"/>
<path d="M4332,3958 l60,0 l0,60 l-60,0 z" fill="green"/>
<path d="M4362,3988 l49,33" stroke="black" stroke-width="5"/>
<path d="M2410,2625 l60,0 l0,60 l-60,0 z" fill="green"/>
<path d="M2440,2655 l1142,-35.5" stroke="black" stroke-width="5"/>
<path d="M7640,3843 l60,0 l0,60 l-60,0 z" fill="green"/>
<path d="M7670,3873 l201,-366" stroke="black" stroke-width="5"/>
<path d="M510,3972 l60,0 l0,60 l-60,0 z" fill="green"/>
<path d="M540,4002 l-193,-24" stroke="black" stroke-width="5"/>
<path d="M9390,3410 l60,0 l0,60 l-60,0 z" fill="green"/>
<path d="M9420,3440 l138,-690.5" stroke="black" stroke-width="5"/>
<path d="M9689,8949 l60,0 l0,60 l-60,0 z" fill="green"/>
<path d="M9719,8979 l85.5,11.5" stroke="black" stroke-width="5"/>
<path d="M8400,6357 l60,0 l0,60 l-60,0 z" fill="green"/>
<path d="M8430,6387 l6,50.5" stroke="black" stroke-width="5"/>
<path d="M2612,5574 l60,0 l0,60 l-60,0 z" fill="green"/>
<path d="M2642,5604 l339.5,216.5" stroke="black" stroke-width="5"/>
<path d="M6411,3893 l60,0 l0,60 l-60,0 z" fill="green"/>
<path d="M6441,3923 l-41.5,-842" stroke="black" stroke-width="5"/>
<path d="M9642,3885 l60,0 l0,60 l-60,0 z" fill="green"/>
<path d="M9672,3915 l-114,-135.5" stroke="black" stroke-width="5"/>
<path d="M2017,1764 l60,0 l0,60 l-60,0 z" fill="green"/>
<path d="M2047,1794 l27.5,21.5" stroke="black" stroke-width="5"/>
<path d="M9300,8865 l60,0 l0,60 l-60,0 z" fill="green"/>
<path d="M9330,8895 l-132.5,-375.5" stroke="black" stroke-width="5"/>
<path d="M6931,296 l60,0 l0,60 l-60,0 z" fill="green"/>
<path d="M6961,326 l11.5,48" stroke="black" stroke-width="5"/>
<path d="M3651,7884 l60,0 l0,60 l-60,0 z" fill="green"/>
<path d="M3681,7914 l-25.5,464" stroke="black" stroke-width="5"/>
<path d="M8031,8252 l60,0 l0,60 l-60,0 z" fill="green"/>
<path d="M8061,8282 l-165.5,191" stroke="black" stroke-width="5"/>
<path d="M8203,726 l60,0 l0,60 l-60,0 z" fill="green"/>
<path d="M8233,756 l121.5,-28" stroke="black" stroke-width="5"/>
<path d="M773,6341 l60,0 l0,60 l-60,0 z" fill="green"/>
<path d="M803,6371 l757,-30.5" stroke="black" stroke-width="5"/>
<path d="M1162,5074 l60,0 l0,60 l-60,0 z" fill="green"/>
<path d="M1192,5104 l-286,-3.5" stroke="black" stroke-width="5"/>
<path d="M7025,7766 l60,0 l0,60 l-60,0 z" fill="green"/>
<path d="M7055,7796 l-148,254" stroke="black" stroke-width="5"/>
<path d="M1130,4670 l60,0 l0,60 l-60,0 z" fill="green"/>
<path d="M1160,4700 l-106.5,9.5" stroke="black" stroke-width="5"/>
<path d="M8948,3836 l60,0 l0,60 l-60,0 z" fill="green"/>
<path d="M8978,3866 l-206,-231" stroke="black" stroke-width="5"/>
<path d="M3094,6325 l60,0 l0,60 l-60,0 z" fill="green"/>
<path d="M3124,6355 l99.5,101.5" stroke="black" stroke-width="5"/>
<path d="M2517,3048 l60,0 l0,60 l-60,0 z" fill="green"/>
<path d="M2547,3078 l118,-12" stroke="black" stroke-width="5"/>
<path d="M813,6111 l60,0 l0,60 l-60,0 z" fill="green"/>
<path d="M843,6141 l251,-101.5" stroke="black" stroke-width="5"/>
<path d="M7761,4855 l60,0 l0,60 l-60,0 z" fill="green"/>
<path d="M7791,4885 l539,-78" stroke="black" stroke-width="5"/>
<path d="M936,5500 l60,0 l0,60 l-60,0 z" fill="green"/>
<path d="M966,5530 l-21,-82.5" stroke="black" stroke-width="5"/>
<path d="M7845,5198 l60,0 l0,60 l-60,0 z" fill="green"/>
<path d="M7875,5228 l390,492" stroke="black" stroke-width="5"/>
<path d="M3619,9772 l60,0 l0,60 l-60,0 z" fill="green"/>
<path d="M3649,9802 l-229,-397" stroke="black" stroke-width="5"/>
<path d="M5177,1666 l60,0 l0,60 l-60,0 z" fill="green"/>
<path d="M5207,1696 l-35,-16.5" stroke="black" stroke-width="5"/>
<path d="M948,1432 l60,0 l0,60 l-60,0 z" fill="green"/>
<path d="M978,1462 l-92.5,347" stroke="black" stroke-width="5"/>
<path d="M9365,7484 l60,0 l0,60 l-60,0 z" fill="green"/>
<path d="M9395,7514 l-4.5,-56" stroke="black" stroke-width="5"/>
<path d="M8686,9697 l60,0 l0,60 l-60,0 z" fill="green"/>
<path d="M8716,9727 l-860.5,30" stroke="black" stroke-width="5"/>
<path d="M8198,3702 l60,0 l0,60 l-60,0 z" fill="green"/>
<path d="M8228,3732 l74,14.5" stroke="black" stroke-width="5"/>
<path d="M4421,9398 l60,0 l0,60 l-60,0 z" fill="green"/>
<path d="M4451,9428 l-38,-32.5" stroke="black" stroke-width="5"/>
<path d="M3811,4175 l60,0 l0,60 l-60,0 z" fill="green"/>
<path d="M3841,4205 l134.5,-39.5" stroke="black" stroke-width="5"/>
<path d="M7934,9050 l60,0 l0,60 l-60,0 z" fill="green"/>
<path d="M7964,9080 l-17.5,131.5" stroke="black" stroke-width="5"/>
<path d="M9284,9646 l60,0 l0,60 l-60,0 z" fill="green"/>
<path d="M9314,9676 l47,56" stroke="black" stroke-width="5"/>
<path d="M5572,8434 l60,0 l0,60 l-60,0 z" fill="green"/>
<path d="M5602,8464 l-15.5,50.5" stroke="black" stroke-width="5"/>
<path d="M2250,3774 l60,0 l0,60 l-60,0 z" fill="green"/>
<path d="M2280,3804 l661,-251.5" stroke="black" stroke-width="5"/>
<path d="M1831,7301 l60,0 l0,60 l-60,0 z" fill="green"/>
<path d="M1861,7331 l-47,63" stroke="black" stroke-width="5"/>
<path d="M7736,1490 l60,0 l0,60 l-60,0 z" fill="green"/>
<path d="M7766,1520 l181.5,-172.5" stroke="black" stroke-width="5"/>
<path d="M9345,5801 l60,0 l0,60 l-60,0 z" fill="green"/>
<path d="M9375,5831 l-22.5,241" stroke="black" stroke-width="5"/>
<path d="M9588,5154 l60,0 l0,60 l-60,0 z" fill="green"/>
<path d="M9618,5184 l-89,318" stroke="black" stroke-width="5"/>
<path d="M6475,7842 l60,0 l0,60 l-60,0 z" fill="green"/>
<path d="M6505,7872 l-3.5,280" stroke="black" stroke-width="5"/>
<path d="M5805,4346 l60,0 l0,60 l-60,0 z" fill="green"/>
<path d="M5835,4376 l-17,-35.5" stroke="black" stroke-width="5"/>
<path d="M8040,2658 l60,0 l0,60 l-60,0 z" fill="green"/>
<path d="M8070,2688 l45.5,-14" stroke="black" stroke-width="5"/>
<path d="M2618,4817 l60,0 l0,60 l-60,0 z" fill="green"/>
<path d="M2648,4847 l144.5,-172" stroke="black" stroke-width="5"/>
<path d="M1861,6425 l60,0 l0,60 l-60,0 z" fill="green"/>
<path d="M1891,6455 l-36,-16" stroke="black" stroke-width="5"/>
<path d="M2161,6255 l60,0 l0,60 l-60,0 z" fill="green"/>
<path d="M2191,6285 l2,0.5" stroke="black" stroke-width="5"/>
<path d="M6368,884 l60,0 l0,60 l-60,0 z" fill="green"/>
<path d="M6398,914 l-28,-14.5" stroke="black" stroke-width="5"/>
<path d="M2219,3255 l60,0 l0,60 l-60,0 z" fill="green"/>
<path d="M2249,3285 l-48.5,-136.5" stroke="black" stroke-width="5"/>
<path d="M5584,7991 l60,0 l0,60 l-60,0 z" fill="green"/>
<path d="M5614,8021 l-205,-696.5" stroke="black" stroke-width="5"/>
<path d="M1305,7781 l60,0 l0,60 l-60,0 z" fill="green"/>
<path d="M1335,7811 l0.5,29.5" stroke="black" stroke-width="5"/>
<path d="M8217,7276 l60,0 l0,60 l-60,0 z" fill="green"/>
<path d="M8247,7306 l51,-156.5" stroke="black" stroke-width="5"/>
<path d="M7173,6241 l60,0 l0,60 l-60,0 z" fill="green"/>
<path d="M7203,6271 l51.5,-76" stroke="black" stroke-width="5"/>
<path d="M6039,1540 l60,0 l0,60 l-60,0 z" fill="green"/>
<path d="M6069,1570 l-22,-74" stroke="black" stroke-width="5"/>
<path d="M5420,2192 l60,0 l0,60 l-60,0 z" fill="green"/>
<path d="M5450,2222 l-2,206" stroke="black" stroke-width="5"/>
<path d="M3094,8148 l60,0 l0,60 l-60,0 z" fill="green"/>
<path d="M3124,8178 l-45.5,5" stroke="black" stroke-width="5"/>
<path d="M1167,7481 l60,0 l0,60 l-60,0 z" fill="green"/>
<path d="M1197,7511 l-17.5,-229" stroke="black" stroke-width="5"/>
<path d="M2009,7426 l60,0 l0,60 l-60,0 z" fill="green"/>
<path d="M2039,7456 l309.5,8" stroke="black" stroke-width="5"/>
<path d="M4192,8372 l60,0 l0,60 l-60,0 z" fill="green"/>
<path d="M4222,8402 l25.5,-24" stroke="black" stroke-width="5"/>
<path d="M9199,4139 l60,0 l0,60 l-60,0 z" fill="green"/>
<path d="M9229,4169 l-382.5,162.5" stroke="black" stroke-width="5"/>
<path d="M4244,3125 l60,0 l0,60 l-60,0 z" fill="green"/>
<path d="M4274,3155 l178,56.5" stroke="black" stroke-width="5"/>
<path d="M1950,4243 l60,0 l0,60 l-60,0 z" fill="green"/>
<path d="M1980,4273 l219.5,85.5" stroke="black" stroke-width="5"/>
<path d="M315,2039 l60,0 l0,60 l-60,0 z" fill="green"/>
<path d="M345,2069 l-172,-799" stroke="black" stroke-width="5"/>
<path d="M6266,9657 l60,0 l0,60 l-60,0 z" fill="green"/>
<path d="M6296,9687 l-99,-117.5" stroke="black" stroke-width="5"/>
<path d="M568,3265 l60,0 l0,60 l-60,0 z" fill="green"/>
<path d="M598,3295 l270,-336" stroke="black" stroke-width="5"/>
<path d="M2740,1944 l60,0 l0,60 l-60,0 z" fill="green"/>
<path d="M2770,1974 l-1.5,38.5" stroke="black" stroke-width="5"/>
<path d="M2574,5318 l60,0 l0,60 l-60,0 z" fill="green"/>
<path d="M2604,5348 l-148.5,-220.5" stroke="black" stroke-width="5"/>
<path d="M887,1278 l60,0 l0,60 l-60,0 z" fill="green"/>
<path d="M917,1308 l13.5,34" stroke="black" stroke-width="5"/>
<path d="M2326,8788 l60,0 l0,60 l-60,0 z" fill="green"/>
<path d="M2356,8818 l52.5,22.5" stroke="black" stroke-width="5"/>
<path d="M9232,1441 l60,0 l0,60 l-60,0 z" fill="green"/>
<path d="M9262,1471 l200.5,-185" stroke="black" stroke-width="5"/>
<path d="M7483,4077 l60,0 l0,60 l-60,0 z" fill="green"/>
<path d="M7513,4107 l-353,-337.5" stroke="black" stroke-width="5"/>
<path d="M6468,5886 l60,0 l0,60 l-60,0 z" fill="green"/>
<path d="M6498,5916 l-652.5,-527" stroke="black" stroke-width="5"/>
<path d="M5145,9844 l60,0 l0,60 l-60,0 z" fill="green"/>
<path d="M5175,9874 l-2525.5,60" stroke="black" stroke-width="5"/>
<path d="M9441,4178 l60,0 l0,60 l-60,0 z" fill="green"/>
<path d="M9471,4208 l187,-97.5" stroke="black" stroke-width="5"/>
<path d="M5984,6441 l60,0 l0,60 l-60,0 z" fill="green"/>
<path d="M6014,6471 l43.5,-4" stroke="black" stroke-width="5"/>
<path d="M595,864 l60,0 l0,60 l-60,0 z" fill="green"/>
<path d="M625,894 l-17.5,-280.5" stroke="black" stroke-width="5"/>
<path d="M1031,5680 l60,0 l0,60 l-60,0 z" fill="green"/>
<path d="M1061,5710 l0.5,-49" stroke="black" stroke-width="5"/>
<path d="M2928,7445 l60,0 l0,60 l-60,0 z" fill="green"/>
<path d="M2958,7475 l-11.5,69.5" stroke="black" stroke-width="5"/>
<path d="M6690,6021 l60,0 l0,60 l-60,0 z" fill="green"/>
<path d="M6720,6051 l-91.5,-2" stroke="black" stroke-width="5"/>
<text font-size="130.7440900921227" text-anchor="middle" x="8514" y="286.26043153224293">
0
</text>
<text font-size="130.7440900921227" text-anchor="middle" x="3535" y="5671.260431532243">
1
</text>
<text font-size="130.7440900921227" text-anchor="middle" x="576.5" y="9400.760431532242">
2
</text>
<text font-size="130.7440900921227" text-anchor="middle" x="8527.5" y="7474.760431532243">
3
</text>
<text font-size="130.7440900921227" text-anchor="middle" x="9552.5" y="8809.760431532242">
4
</text>
<text font-size="130.7440900921227" text-anchor="middle" x="1489.5" y="4005.760431532243">
5
</text>
<text font-size="130.7440900921227" text-anchor="middle" x="7256" y="4732.260431532243">
6
</text>
<text font-size="130.7440900921227" text-anchor="middle" x="7563" y="445.26043153224293">
7
</text>
<text font-size="130.7440900921227" text-anchor="middle" x="7274" y="5408.260431532243">
8
</text>
<text font-size="130.7440900921227" text-anchor="middle" x="7577.5" y="7873.260431532243">
9
</text>
<text font-size="130.7440900921227" text-anchor="middle" x="7945.5" y="4450.260431532243">
10
</text>
<text font-size="130.7440900921227" text-anchor="middle" x="5645.5" y="9589.260431532242">
11
</text>
<text font-size="130.7440900921227" text-anchor="middle" x="3931.5" y="4766.260431532243">
12
</text>
<text font-size="130.7440900921227" text-anchor="middle" x="1372" y="666.2604315322429">
13
</text>
<text font-size="130.7440900921227" text-anchor="middle" x="745" y="6637.260431532243">
14
</text>
<text font-size="130.7440900921227" text-anchor="middle" x="7526.5" y="7038.760431532243">
15
</text>
<text font-size="130.7440900921227" text-anchor="middle" x="9344" y="4850.760431532243">
16
</text>
<text font-size="130.7440900921227" text-anchor="middle" x="6049" y="8444.260431532242">
17
</text>
<text font-size="130.7440900921227" text-anchor="middle" x="4896.5" y="6415.260431532243">
18
</text>
<text font-size="130.7440900921227" text-anchor="middle" x="2347" y="5859.760431532243">
19
</text>
<text font-size="130.7440900921227" text-anchor="middle" x="1647.5" y="1550.760431532243">
20
</text>
<text font-size="130.7440900921227" text-anchor="middle" x="6886" y="1238.760431532243">
21
</text>
<text font-size="130.7440900921227" text-anchor="middle" x="7391" y="2354.760431532243">
22
</text>
<text font-size="130.7440900921227" text-anchor="middle" x="1494.5" y="9403.760431532242">
23
</text>
<text font-size="130.7440900921227" text-anchor="middle" x="8901" y="5852.260431532243">
24
</text>
<text font-size="130.7440900921227" text-anchor="middle" x="9763.5" y="4764.760431532243">
25
</text>
<text font-size="130.7440900921227" text-anchor="middle" x="3557.5" y="7676.760431532243">
26
</text>
<text font-size="130.7440900921227" text-anchor="middle" x="8656.5" y="5033.760431532243">
27
</text>
<text font-size="130.7440900921227" text-anchor="middle" x="3286.5" y="1224.760431532243">
28
</text>
<text font-size="130.7440900921227" text-anchor="middle" x="32.5" y="7360.260431532243">
29
</text>
<text font-size="130.7440900921227" text-anchor="middle" x="4194" y="6428.260431532243">
30
</text>
<text font-size="130.7440900921227" text-anchor="middle" x="9428.5" y="383.76043153224293">
31
</text>
<text font-size="130.7440900921227" text-anchor="middle" x="8235" y="2033.260431532243">
32
</text>
<text font-size="130.7440900921227" text-anchor="middle" x="968.5" y="4023.760431532243">
33
</text>
<text font-size="130.7440900921227" text-anchor="middle" x="66" y="4773.260431532243">
34
</text>
<text font-size="130.7440900921227" text-anchor="middle" x="8542" y="8273.260431532242">
35
</text>
<text font-size="130.7440900921227" text-anchor="middle" x="4411" y="4066.760431532243">
36
</text>
<text font-size="130.7440900921227" text-anchor="middle" x="3582" y="2665.260431532243">
37
</text>
<text font-size="130.7440900921227" text-anchor="middle" x="7871" y="3552.760431532243">
38
</text>
<text font-size="130.7440900921227" text-anchor="middle" x="347" y="4023.760431532243">
39
</text>
<text font-size="130.7440900921227" text-anchor="middle" x="9558" y="2795.260431532243">
40
</text>
<text font-size="130.7440900921227" text-anchor="middle" x="9804.5" y="9036.260431532242">
41
</text>
<text font-size="130.7440900921227" text-anchor="middle" x="8436" y="6483.260431532243">
42
</text>
<text font-size="130.7440900921227" text-anchor="middle" x="2981.5" y="5866.260431532243">
43
</text>
<text font-size="130.7440900921227" text-anchor="middle" x="6399.5" y="3126.760431532243">
44
</text>
<text font-size="130.7440900921227" text-anchor="middle" x="9558" y="3825.260431532243">
45
</text>
<text font-size="130.7440900921227" text-anchor="middle" x="2074.5" y="1861.260431532243">
46
</text>
<text font-size="130.7440900921227" text-anchor="middle" x="9197.5" y="8565.260431532242">
47
</text>
<text font-size="130.7440900921227" text-anchor="middle" x="6972.5" y="419.76043153224293">
48
</text>
<text font-size="130.7440900921227" text-anchor="middle" x="3655.5" y="8423.760431532242">
49
</text>
<text font-size="130.7440900921227" text-anchor="middle" x="7895.5" y="8518.760431532242">
50
</text>
<text font-size="130.7440900921227" text-anchor="middle" x="8354.5" y="773.7604315322429">
51
</text>
<text font-size="130.7440900921227" text-anchor="middle" x="1560" y="6386.260431532243">
52
</text>
<text font-size="130.7440900921227" text-anchor="middle" x="906" y="5146.260431532243">
53
</text>
<text font-size="130.7440900921227" text-anchor="middle" x="6907" y="8095.760431532243">
54
</text>
<text font-size="130.7440900921227" text-anchor="middle" x="1053.5" y="4755.260431532243">
55
</text>
<text font-size="130.7440900921227" text-anchor="middle" x="8772" y="3680.760431532243">
56
</text>
<text font-size="130.7440900921227" text-anchor="middle" x="3223.5" y="6502.260431532243">
57
</text>
<text font-size="130.7440900921227" text-anchor="middle" x="2665" y="3111.760431532243">
58
</text>
<text font-size="130.7440900921227" text-anchor="middle" x="1094" y="6085.260431532243">
59
</text>
<text font-size="130.7440900921227" text-anchor="middle" x="8330" y="4852.760431532243">
60
</text>
<text font-size="130.7440900921227" text-anchor="middle" x="945" y="5493.260431532243">
61
</text>
<text font-size="130.7440900921227" text-anchor="middle" x="8265" y="5765.760431532243">
62
</text>
<text font-size="130.7440900921227" text-anchor="middle" x="3420" y="9450.760431532242">
63
</text>
<text font-size="130.7440900921227" text-anchor="middle" x="5172" y="1725.260431532243">
64
</text>
<text font-size="130.7440900921227" text-anchor="middle" x="885.5" y="1854.760431532243">
65
</text>
<text font-size="130.7440900921227" text-anchor="middle" x="9390.5" y="7503.760431532243">
66
</text>
<text font-size="130.7440900921227" text-anchor="middle" x="7855.5" y="9802.760431532242">
67
</text>
<text font-size="130.7440900921227" text-anchor="middle" x="8302" y="3792.260431532243">
68
</text>
<text font-size="130.7440900921227" text-anchor="middle" x="4413" y="9441.260431532242">
69
</text>
<text font-size="130.7440900921227" text-anchor="middle" x="3975.5" y="4211.260431532243">
70
</text>
<text font-size="130.7440900921227" text-anchor="middle" x="7946.5" y="9257.260431532242">
71
</text>
<text font-size="130.7440900921227" text-anchor="middle" x="9361" y="9777.760431532242">
72
</text>
<text font-size="130.7440900921227" text-anchor="middle" x="5586.5" y="8560.260431532242">
73
</text>
<text font-size="130.7440900921227" text-anchor="middle" x="2941" y="3598.260431532243">
74
</text>
<text font-size="130.7440900921227" text-anchor="middle" x="1814" y="7439.760431532243">
75
</text>
<text font-size="130.7440900921227" text-anchor="middle" x="7947.5" y="1393.260431532243">
76
</text>
<text font-size="130.7440900921227" text-anchor="middle" x="9352.5" y="6117.760431532243">
77
</text>
<text font-size="130.7440900921227" text-anchor="middle" x="9529" y="5547.760431532243">
78
</text>
<text font-size="130.7440900921227" text-anchor="middle" x="6501.5" y="8197.760431532242">
79
</text>
<text font-size="130.7440900921227" text-anchor="middle" x="5818" y="4386.260431532243">
80
</text>
<text font-size="130.7440900921227" text-anchor="middle" x="8115.5" y="2719.760431532243">
81
</text>
<text font-size="130.7440900921227" text-anchor="middle" x="2792.5" y="4720.760431532243">
82
</text>
<text font-size="130.7440900921227" text-anchor="middle" x="1855" y="6484.760431532243">
83
</text>
<text font-size="130.7440900921227" text-anchor="middle" x="2193" y="6331.260431532243">
84
</text>
<text font-size="130.7440900921227" text-anchor="middle" x="6370" y="945.2604315322429">
85
</text>
<text font-size="130.7440900921227" text-anchor="middle" x="2200.5" y="3194.260431532243">
86
</text>
<text font-size="130.7440900921227" text-anchor="middle" x="5409" y="7370.260431532243">
87
</text>
<text font-size="130.7440900921227" text-anchor="middle" x="1335.5" y="7886.260431532243">
88
</text>
<text font-size="130.7440900921227" text-anchor="middle" x="8298" y="7195.260431532243">
89
</text>
<text font-size="130.7440900921227" text-anchor="middle" x="7254.5" y="6240.760431532243">
90
</text>
<text font-size="130.7440900921227" text-anchor="middle" x="6047" y="1541.760431532243">
91
</text>
<text font-size="130.7440900921227" text-anchor="middle" x="5448" y="2473.760431532243">
92
</text>
<text font-size="130.7440900921227" text-anchor="middle" x="3078.5" y="8228.760431532242">
93
</text>
<text font-size="130.7440900921227" text-anchor="middle" x="1179.5" y="7327.760431532243">
94
</text>
<text font-size="130.7440900921227" text-anchor="middle" x="2348.5" y="7509.760431532243">
95
</text>
<text font-size="130.7440900921227" text-anchor="middle" x="4247.5" y="8423.760431532242">
96
</text>
<text font-size="130.7440900921227" text-anchor="middle" x="8846.5" y="4377.260431532243">
97
</text>
<text font-size="130.7440900921227" text-anchor="middle" x="4452" y="3257.260431532243">
98
</text>
<text font-size="130.7440900921227" text-anchor="middle" x="2199.5" y="4404.260431532243">
99
</text>
<text font-size="130.7440900921227" text-anchor="middle" x="173" y="1315.760431532243">
100
</text>
<text font-size="130.7440900921227" text-anchor="middle" x="6197" y="9615.260431532242">
101
</text>
<text font-size="130.7440900921227" text-anchor="middle" x="868" y="3004.760431532243">
102
</text>
<text font-size="130.7440900921227" text-anchor="middle" x="2768.5" y="2058.260431532243">
103
</text>
<text font-size="130.7440900921227" text-anchor="middle" x="2455.5" y="5173.260431532243">
104
</text>
<text font-size="130.7440900921227" text-anchor="middle" x="930.5" y="1387.760431532243">
105
</text>
<text font-size="130.7440900921227" text-anchor="middle" x="2408.5" y="8886.260431532242">
106
</text>
<text font-size="130.7440900921227" text-anchor="middle" x="9462.5" y="1331.760431532243">
107
</text>
<text font-size="130.7440900921227" text-anchor="middle" x="7160" y="3815.260431532243">
108
</text>
<text font-size="130.7440900921227" text-anchor="middle" x="5845.5" y="5434.760431532243">
109
</text>
<text font-size="130.7440900921227" text-anchor="middle" x="2649.5" y="9979.760431532242">
110
</text>
<text font-size="130.7440900921227" text-anchor="middle" x="9658" y="4156.260431532243">
111
</text>
<text font-size="130.7440900921227" text-anchor="middle" x="6057.5" y="6512.760431532243">
112
</text>
<text font-size="130.7440900921227" text-anchor="middle" x="607.5" y="659.2604315322429">
113
</text>
<text font-size="130.7440900921227" text-anchor="middle" x="1061.5" y="5706.760431532243">
114
</text>
<text font-size="130.7440900921227" text-anchor="middle" x="2946.5" y="7590.260431532243">
115
</text>
<text font-size="130.7440900921227" text-anchor="middle" x="6628.5" y="6094.760431532243">
116
</text>
</svg>