<svg viewBox="-100 -100 10200 10200" xmlns="http://www.w3.org/2000/svg">
<path d="M0,0 l10000,0 l0,10000 l-10000,0 z" fill="white"/>
<path d="M4934,6278 l1116,0 l0,531 l-1116,0 z" fill="#fe00ff" stroke="black" stroke-width="5"/>
<path d="M5266,0 l883,0 l0,309 l-883,0 z" fill="#fe00ff" stroke="black" stroke-width="5"/>
<path d="M1506,5767 l540,0 l0,333 l-540,0 z" fill="#fe00ff" stroke="black" stroke-width="5"/>
<path d="M5502,9269 l1393,0 l0,731 l-1393,0 z" fill="#9800ff" stroke="black" stroke-width="5"/>
<path d="M7464,7640 l1541,0 l0,779 l-1541,0 z" fill="#fe00ff" stroke="black" stroke-width="5"/>
<path d="M4760,550 l722,0 l0,1040 l-722,0 z" fill="#fe00ff" stroke="black" stroke-width="5"/>
<path d="M4531,8606 l1964,0 l0,663 l-1964,0 z" fill="#fe00ff" stroke="black" stroke-width="5"/>
<path d="M6895,9789 l51,0 l0,120 l-51,0 z" fill="#fe00ff" stroke="black" stroke-width="5"/>
<path d="M1099,9336 l2784,0 l0,268 l-2784,0 z" fill="#fd00ff" stroke="black" stroke-width="5"/>
<path d="M5785,714 l2413,0 l0,455 l-2413,0 z" fill="#fe00ff" stroke="black" stroke-width="5"/>
<path d="M3822,81 l1444,0 l0,469 l-1444,0 z" fill="#7600ff" stroke="black" stroke-width="5"/>
<path d="M0,795 l4209,0 l0,144 l-4209,0 z" fill="#f500ff" stroke="black" stroke-width="5"/>
<path d="M703,5217 l792,0 l0,786 l-792,0 z" fill="#fe00ff" stroke="black" stroke-width="5"/>
<path d="M4093,2955 l1393,0 l0,899 l-1393,0 z" fill="#9a00ff" stroke="black" stroke-width="5"/>
<path d="M8177,3422 l1102,0 l0,722 l-1102,0 z" fill="#fe00ff" stroke="black" stroke-width="5"/>
<path d="M2672,7490 l841,0 l0,417 l-841,0 z" fill="#fe00ff" stroke="black" stroke-width="5"/>
<path d="M1363,8518 l1188,0 l0,818 l-1188,0 z" fill="#fe00ff" stroke="black" stroke-width="5"/>
<path d="M1399,3707 l259,0 l0,346 l-259,0 z" fill="#fe00ff" stroke="black" stroke-width="5"/>
<path d="M0,0 l1371,0 l0,795 l-1371,0 z" fill="#e700ff" stroke="black" stroke-width="5"/>
<path d="M1704,1805 l169,0 l0,204 l-169,0 z" fill="#fe00ff" stroke="black" stroke-width="5"/>
<path d="M4174,6331 l214,0 l0,368 l-214,0 z" fill="#fe00ff" stroke="black" stroke-width="5"/>
<path d="M7475,5485 l763,0 l0,1630 l-763,0 z" fill="#fe00ff" stroke="black" stroke-width="5"/>
<path d="M5487,2503 l930,0 l0,2609 l-930,0 z" fill="#fc00ff" stroke="black" stroke-width="5"/>
<path d="M6417,3776 l863,0 l0,1639 l-863,0 z" fill="#fe00ff" stroke="black" stroke-width="5"/>
<path d="M3065,2219 l688,0 l0,1883 l-688,0 z" fill="#fe00ff" stroke="black" stroke-width="5"/>
<path d="M3277,4103 l467,0 l0,543 l-467,0 z" fill="#fe00ff" stroke="black" stroke-width="5"/>
<path d="M3845,7540 l686,0 l0,1129 l-686,0 z" fill="#fe00ff" stroke="black" stroke-width="5"/>
<path d="M2551,8375 l602,0 l0,786 l-602,0 z" fill="#fe00ff" stroke="black" stroke-width="5"/>
<path d="M8238,5928 l794,0 l0,1712 l-794,0 z" fill="#fe00ff" stroke="black" stroke-width="5"/>
<path d="M2470,1180 l354,0 l0,121 l-354,0 z" fill="#fe00ff" stroke="black" stroke-width="5"/>
<path d="M865,2397 l486,0 l0,2116 l-486,0 z" fill="#fe00ff" stroke="black" stroke-width="5"/>
<path d="M9057,6096 l942,0 l0,946 l-942,0 z" fill="#fe00ff" stroke="black" stroke-width="5"/>
<path d="M6083,1196 l927,0 l0,568 l-927,0 z" fill="#fe00ff" stroke="black" stroke-width="5"/>
<path d="M4209,550 l539,0 l0,381 l-539,0 z" fill="#fe00ff" stroke="black" stroke-width="5"/>
<path d="M1371,0 l454,0 l0,795 l-454,0 z" fill="#2100ff" stroke="black" stroke-width="5"/>
<path d="M6495,8419 l3505,0 l0,394 l-3505,0 z" fill="#bb00ff" stroke="black" stroke-width="5"/>
<path d="M2409,1301 l1707,0 l0,38 l-1707,0 z" fill="#0400ff" stroke="black" stroke-width="5"/>
<path d="M0,1524 l466,0 l0,686 l-466,0 z" fill="#fe00ff" stroke="black" stroke-width="5"/>
<path d="M9082,621 l918,0 l0,1548 l-918,0 z" fill="#fe00ff" stroke="black" stroke-width="5"/>
<path d="M4116,975 l644,0 l0,483 l-644,0 z" fill="#fe00ff" stroke="black" stroke-width="5"/>
<path d="M2924,1339 l131,0 l0,2316 l-131,0 z" fill="#0900ff" stroke="black" stroke-width="5"/>
<path d="M3153,8197 l692,0 l0,1139 l-692,0 z" fill="#e000ff" stroke="black" stroke-width="5"/>
<path d="M5487,659 l278,0 l0,436 l-278,0 z" fill="#fe00ff" stroke="black" stroke-width="5"/>
<path d="M8304,8813 l553,0 l0,511 l-553,0 z" fill="#fe00ff" stroke="black" stroke-width="5"/>
<path d="M7280,4062 l606,0 l0,640 l-606,0 z" fill="#fe00ff" stroke="black" stroke-width="5"/>
<path d="M0,5510 l703,0 l0,856 l-703,0 z" fill="#fd00ff" stroke="black" stroke-width="5"/>
<path d="M6637,2634 l1538,0 l0,1060 l-1538,0 z" fill="#fe00ff" stroke="black" stroke-width="5"/>
<path d="M3753,2219 l340,0 l0,2606 l-340,0 z" fill="#ca00ff" stroke="black" stroke-width="5"/>
<path d="M6292,5415 l1183,0 l0,967 l-1183,0 z" fill="#fe00ff" stroke="black" stroke-width="5"/>
<path d="M1392,6100 l1017,0 l0,2418 l-1017,0 z" fill="#fe00ff" stroke="black" stroke-width="5"/>
<path d="M4383,1954 l990,0 l0,807 l-990,0 z" fill="#fe00ff" stroke="black" stroke-width="5"/>
<path d="M4093,3854 l585,0 l0,901 l-585,0 z" fill="#fe00ff" stroke="black" stroke-width="5"/>
<path d="M737,6003 l241,0 l0,3000 l-241,0 z" fill="#fb00ff" stroke="black" stroke-width="5"/>
<path d="M7161,8827 l1143,0 l0,1024 l-1143,0 z" fill="#fe00ff" stroke="black" stroke-width="5"/>
<path d="M2306,2179 l600,0 l0,353 l-600,0 z" fill="#fe00ff" stroke="black" stroke-width="5"/>
<path d="M6195,6382 l571,0 l0,402 l-571,0 z" fill="#fe00ff" stroke="black" stroke-width="5"/>
<path d="M1525,1050 l352,0 l0,755 l-352,0 z" fill="#fe00ff" stroke="black" stroke-width="5"/>
<path d="M1099,9604 l2784,0 l0,396 l-2784,0 z" fill="#2100ff" stroke="black" stroke-width="5"/>
<path d="M4512,9269 l396,0 l0,731 l-396,0 z" fill="#0700ff" stroke="black" stroke-width="5"/>
<path d="M8801,0 l789,0 l0,558 l-789,0 z" fill="#fe00ff" stroke="black" stroke-width="5"/>
<path d="M1962,4401 l413,0 l0,585 l-413,0 z" fill="#fe00ff" stroke="black" stroke-width="5"/>
<path d="M5486,309 l1,0 l0,4803 l-1,0 z" fill="#0000ff" stroke="black" stroke-width="5"/>
<path d="M4908,9269 l594,0 l0,731 l-594,0 z" fill="#ef00ff" stroke="black" stroke-width="5"/>
<path d="M1676,3655 l1389,0 l0,746 l-1389,0 z" fill="#fe00ff" stroke="black" stroke-width="5"/>
<path d="M9358,7317 l609,0 l0,743 l-609,0 z" fill="#fe00ff" stroke="black" stroke-width="5"/>
<path d="M3883,8669 l629,0 l0,1331 l-629,0 z" fill="#e800ff" stroke="black" stroke-width="5"/>
<path d="M6267,65 l1311,0 l0,631 l-1311,0 z" fill="#fe00ff" stroke="black" stroke-width="5"/>
<path d="M0,6366 l737,0 l0,2637 l-737,0 z" fill="#7300ff" stroke="black" stroke-width="5"/>
<path d="M8547,558 l535,0 l0,2864 l-535,0 z" fill="#e500ff" stroke="black" stroke-width="5"/>
<path d="M3780,91 l42,0 l0,52 l-42,0 z" fill="#fe00ff" stroke="black" stroke-width="5"/>
<path d="M9076,5344 l905,0 l0,729 l-905,0 z" fill="#fe00ff" stroke="black" stroke-width="5"/>
<path d="M1877,939 l532,0 l0,724 l-532,0 z" fill="#fe00ff" stroke="black" stroke-width="5"/>
<path d="M466,941 l1045,0 l0,1168 l-1045,0 z" fill="#fe00ff" stroke="black" stroke-width="5"/>
<path d="M978,6697 l414,0 l0,1090 l-414,0 z" fill="#fe00ff" stroke="black" stroke-width="5"/>
<path d="M3110,5470 l909,0 l0,760 l-909,0 z" fill="#fe00ff" stroke="black" stroke-width="5"/>
<path d="M2206,0 l3060,0 l0,81 l-3060,0 z" fill="#2100ff" stroke="black" stroke-width="5"/>
<path d="M2055,5095 l736,0 l0,402 l-736,0 z" fill="#fe00ff" stroke="black" stroke-width="5"/>
<path d="M4585,8056 l653,0 l0,550 l-653,0 z" fill="#fe00ff" stroke="black" stroke-width="5"/>
<path d="M1825,0 l381,0 l0,795 l-381,0 z" fill="#f000ff" stroke="black" stroke-width="5"/>
<path d="M2409,7487 l160,0 l0,216 l-160,0 z" fill="#fe00ff" stroke="black" stroke-width="5"/>
<path d="M3055,1458 l1108,0 l0,539 l-1108,0 z" fill="#fe00ff" stroke="black" stroke-width="5"/>
<path d="M3001,4825 l1376,0 l0,645 l-1376,0 z" fill="#fe00ff" stroke="black" stroke-width="5"/>
<path d="M9279,3289 l701,0 l0,524 l-701,0 z" fill="#fe00ff" stroke="black" stroke-width="5"/>
<path d="M7010,1169 l1254,0 l0,596 l-1254,0 z" fill="#6500ff" stroke="black" stroke-width="5"/>
<path d="M4678,3854 l661,0 l0,423 l-661,0 z" fill="#fe00ff" stroke="black" stroke-width="5"/>
<path d="M3055,1997 l1323,0 l0,222 l-1323,0 z" fill="#fe00ff" stroke="black" stroke-width="5"/>
<path d="M4984,2769 l312,0 l0,186 l-312,0 z" fill="#fe00ff" stroke="black" stroke-width="5"/>
<path d="M0,2210 l162,0 l0,3300 l-162,0 z" fill="#2a00ff" stroke="black" stroke-width="5"/>
<path d="M5844,6809 l1619,0 l0,1196 l-1619,0 z" fill="#fe00ff" stroke="black" stroke-width="5"/>
<path d="M8401,5333 l675,0 l0,587 l-675,0 z" fill="#fe00ff" stroke="black" stroke-width="5"/>
<path d="M2206,81 l1305,0 l0,583 l-1305,0 z" fill="#fe00ff" stroke="black" stroke-width="5"/>
<path d="M2409,6576 l1765,0 l0,911 l-1765,0 z" fill="#fe00ff" stroke="black" stroke-width="5"/>
<path d="M5487,1765 l2240,0 l0,738 l-2240,0 z" fill="#c200ff" stroke="black" stroke-width="5"/>
<path d="M2744,6336 l238,0 l0,240 l-238,0 z" fill="#fe00ff" stroke="black" stroke-width="5"/>
<path d="M4685,4281 l801,0 l0,771 l-801,0 z" fill="#fe00ff" stroke="black" stroke-width="5"/>
<path d="M9082,2169 l918,0 l0,1120 l-918,0 z" fill="#7a00ff" stroke="black" stroke-width="5"/>
<path d="M4377,5112 l1915,0 l0,1166 l-1915,0 z" fill="#f700ff" stroke="black" stroke-width="5"/>
<path d="M8264,639 l283,0 l0,2364 l-283,0 z" fill="#fe00ff" stroke="black" stroke-width="5"/>
<path d="M162,3360 l673,0 l0,822 l-673,0 z" fill="#fe00ff" stroke="black" stroke-width="5"/>
<path d="M1978,1663 l467,0 l0,397 l-467,0 z" fill="#fe00ff" stroke="black" stroke-width="5"/>
<path d="M2629,7907 l1216,0 l0,290 l-1216,0 z" fill="#fe00ff" stroke="black" stroke-width="5"/>
<path d="M0,9003 l1099,0 l0,997 l-1099,0 z" fill="#f700ff" stroke="black" stroke-width="5"/>
<path d="M2445,1339 l479,0 l0,840 l-479,0 z" fill="#fb00ff" stroke="black" stroke-width="5"/>
<path d="M8743,4671 l926,0 l0,592 l-926,0 z" fill="#fe00ff" stroke="black" stroke-width="5"/>
<path d="M162,4519 l1415,0 l0,698 l-1415,0 z" fill="#fe00ff" stroke="black" stroke-width="5"/>
<path d="M4166,1468 l566,0 l0,453 l-566,0 z" fill="#fe00ff" stroke="black" stroke-width="5"/>
<path d="M2429,4604 l473,0 l0,474 l-473,0 z" fill="#fe00ff" stroke="black" stroke-width="5"/>
<path d="M7727,1765 l537,0 l0,869 l-537,0 z" fill="#fe00ff" stroke="black" stroke-width="5"/>
<path d="M5529,6319 l60,0 l0,60 l-60,0 z" fill="green"/>
<path d="M5559,6349 l-67,194.5" stroke="black" stroke-width="5"/>
<path d="M5236,271 l60,0 l0,60 l-60,0 z" fill="green"/>
<path d="M5266,301 l441.5,-146.5" stroke="black" stroke-width="5"/>
<path d="M1625,6002 l60,0 l0,60 l-60,0 z" fill="green"/>
<path d="M1655,6032 l121,-98.5" stroke="black" stroke-width="5"/>
<path d="M6362,9824 l60,0 l0,60 l-60,0 z" fill="green"/>
<path d="M6392,9854 l-193.5,-219.5" stroke="black" stroke-width="5"/>
<path d="M8038,8034 l60,0 l0,60 l-60,0 z" fill="green"/>
<path d="M8068,8064 l166.5,-34.5" stroke="black" stroke-width="5"/>
<path d="M4730,1113 l60,0 l0,60 l-60,0 z" fill="green"/>
<path d="M4760,1143 l361,-73" stroke="black" stroke-width="5"/>
<path d="M4979,9238 l60,0 l0,60 l-60,0 z" fill="green"/>
<path d="M5009,9268 l504,-330.5" stroke="black" stroke-width="5"/>
<path d="M6865,9833 l60,0 l0,60 l-60,0 z" fill="green"/>
<path d="M6895,9863 l25.5,-14" stroke="black" stroke-width="5"/>
<path d="M3342,9565 l60,0 l0,60 l-60,0 z" fill="green"/>
<path d="M3372,9595 l-881,-125" stroke="black" stroke-width="5"/>
<path d="M6622,1138 l60,0 l0,60 l-60,0 z" fill="green"/>
<path d="M6652,1168 l339.5,-226.5" stroke="black" stroke-width="5"/>
<path d="M3917,84 l60,0 l0,60 l-60,0 z" fill="green"/>
<path d="M3947,114 l597,201.5" stroke="black" stroke-width="5"/>
<path d="M2192,874 l60,0 l0,60 l-60,0 z" fill="green"/>
<path d="M2222,904 l-117.5,-37" stroke="black" stroke-width="5"/>
<path d="M1017,5417 l60,0 l0,60 l-60,0 z" fill="green"/>
<path d="M1047,5447 l52,163" stroke="black" stroke-width="5"/>
<path d="M5055,3191 l60,0 l0,60 l-60,0 z" fill="green"/>
<path d="M5085,3221 l-295.5,183.5" stroke="black" stroke-width="5"/>
<path d="M8693,3518 l60,0 l0,60 l-60,0 z" fill="green"/>
<path d="M8723,3548 l5,235" stroke="black" stroke-width="5"/>
<path d="M3115,7776 l60,0 l0,60 l-60,0 z" fill="green"/>
<path d="M3145,7806 l-52.5,-107.5" stroke="black" stroke-width="5"/>
<path d="M1888,8643 l60,0 l0,60 l-60,0 z" fill="green"/>
<path d="M1918,8673 l39,254" stroke="black" stroke-width="5"/>
<path d="M1482,3933 l60,0 l0,60 l-60,0 z" fill="green"/>
<path d="M1512,3963 l16.5,-83" stroke="black" stroke-width="5"/>
<path d="M941,192 l60,0 l0,60 l-60,0 z" fill="green"/>
<path d="M971,222 l-285.5,175.5" stroke="black" stroke-width="5"/>
<path d="M1797,1830 l60,0 l0,60 l-60,0 z" fill="green"/>
<path d="M1827,1860 l-38.5,47" stroke="black" stroke-width="5"/>
<path d="M4203,6537 l60,0 l0,60 l-60,0 z" fill="green"/>
<path d="M4233,6567 l48,-52" stroke="black" stroke-width="5"/>
<path d="M7501,6236 l60,0 l0,60 l-60,0 z" fill="green"/>
<path d="M7531,6266 l325.5,34" stroke="black" stroke-width="5"/>
<path d="M5512,4947 l60,0 l0,60 l-60,0 z" fill="green"/>
<path d="M5542,4977 l410,-1169.5" stroke="black" stroke-width="5"/>
<path d="M6937,4767 l60,0 l0,60 l-60,0 z" fill="green"/>
<path d="M6967,4797 l-118.5,-201.5" stroke="black" stroke-width="5"/>
<path d="M3529,3274 l60,0 l0,60 l-60,0 z" fill="green"/>
<path d="M3559,3304 l-150,-143.5" stroke="black" stroke-width="5"/>
<path d="M3510,4268 l60,0 l0,60 l-60,0 z" fill="green"/>
<path d="M3540,4298 l-29.5,76.5" stroke="black" stroke-width="5"/>
<path d="M3818,8306 l60,0 l0,60 l-60,0 z" fill="green"/>
<path d="M3848,8336 l340,-231.5" stroke="black" stroke-width="5"/>
<path d="M2939,8779 l60,0 l0,60 l-60,0 z" fill="green"/>
<path d="M2969,8809 l-117,-41" stroke="black" stroke-width="5"/>
<path d="M8547,7136 l60,0 l0,60 l-60,0 z" fill="green"/>
<path d="M8577,7166 l58,-382" stroke="black" stroke-width="5"/>
<path d="M2595,1267 l60,0 l0,60 l-60,0 z" fill="green"/>
<path d="M2625,1297 l22,-56.5" stroke="black" stroke-width="5"/>
<path d="M848,3925 l60,0 l0,60 l-60,0 z" fill="green"/>
<path d="M878,3955 l230,-500" stroke="black" stroke-width="5"/>
<path d="M9665,6241 l60,0 l0,60 l-60,0 z" fill="green"/>
<path d="M9695,6271 l-167,298" stroke="black" stroke-width="5"/>
<path d="M6665,1222 l60,0 l0,60 l-60,0 z" fill="green"/>
<path d="M6695,1252 l-148.5,228" stroke="black" stroke-width="5"/>
<path d="M4369,572 l60,0 l0,60 l-60,0 z" fill="green"/>
<path d="M4399,602 l79.5,138.5" stroke="black" stroke-width="5"/>
<path d="M1437,310 l60,0 l0,60 l-60,0 z" fill="green"/>
<path d="M1467,340 l131,57.5" stroke="black" stroke-width="5"/>
<path d="M7678,8663 l60,0 l0,60 l-60,0 z" fill="green"/>
<path d="M7708,8693 l539.5,-77" stroke="black" stroke-width="5"/>
<path d="M2568,1308 l60,0 l0,60 l-60,0 z" fill="green"/>
<path d="M2598,1338 l664.5,-18" stroke="black" stroke-width="5"/>
<path d="M79,2153 l60,0 l0,60 l-60,0 z" fill="green"/>
<path d="M109,2183 l124,-316" stroke="black" stroke-width="5"/>
<path d="M9946,1380 l60,0 l0,60 l-60,0 z" fill="green"/>
<path d="M9976,1410 l-435,-15" stroke="black" stroke-width="5"/>
<path d="M4308,1423 l60,0 l0,60 l-60,0 z" fill="green"/>
<path d="M4338,1453 l100,-236.5" stroke="black" stroke-width="5"/>
<path d="M2958,1711 l60,0 l0,60 l-60,0 z" fill="green"/>
<path d="M2988,1741 l1.5,756" stroke="black" stroke-width="5"/>
<path d="M3574,8850 l60,0 l0,60 l-60,0 z" fill="green"/>
<path d="M3604,8880 l-105,-113.5" stroke="black" stroke-width="5"/>
<path d="M5618,835 l60,0 l0,60 l-60,0 z" fill="green"/>
<path d="M5648,865 l-22,12" stroke="black" stroke-width="5"/>
<path d="M8546,9042 l60,0 l0,60 l-60,0 z" fill="green"/>
<path d="M8576,9072 l4.5,-3.5" stroke="black" stroke-width="5"/>
<path d="M7548,4371 l60,0 l0,60 l-60,0 z" fill="green"/>
<path d="M7578,4401 l5,-19" stroke="black" stroke-width="5"/>
<path d="M516,5904 l60,0 l0,60 l-60,0 z" fill="green"/>
<path d="M546,5934 l-194.5,4" stroke="black" stroke-width="5"/>
<path d="M7367,2809 l60,0 l0,60 l-60,0 z" fill="green"/>
<path d="M7397,2839 l9,325" stroke="black" stroke-width="5"/>
<path d="M4062,4186 l60,0 l0,60 l-60,0 z" fill="green"/>
<path d="M4092,4216 l-169,-694" stroke="black" stroke-width="5"/>
<path d="M6854,5972 l60,0 l0,60 l-60,0 z" fill="green"/>
<path d="M6884,6002 l-0.5,-103.5" stroke="black" stroke-width="5"/>
<path d="M2223,7131 l60,0 l0,60 l-60,0 z" fill="green"/>
<path d="M2253,7161 l-352.5,148" stroke="black" stroke-width="5"/>
<path d="M4805,2250 l60,0 l0,60 l-60,0 z" fill="green"/>
<path d="M4835,2280 l43,77.5" stroke="black" stroke-width="5"/>
<path d="M4474,4232 l60,0 l0,60 l-60,0 z" fill="green"/>
<path d="M4504,4262 l-118.5,42.5" stroke="black" stroke-width="5"/>
<path d="M891,7352 l60,0 l0,60 l-60,0 z" fill="green"/>
<path d="M921,7382 l-63.5,121" stroke="black" stroke-width="5"/>
<path d="M7882,9068 l60,0 l0,60 l-60,0 z" fill="green"/>
<path d="M7912,9098 l-179.5,241" stroke="black" stroke-width="5"/>
<path d="M2557,2156 l60,0 l0,60 l-60,0 z" fill="green"/>
<path d="M2587,2186 l19,169.5" stroke="black" stroke-width="5"/>
<path d="M6500,6589 l60,0 l0,60 l-60,0 z" fill="green"/>
<path d="M6530,6619 l-49.5,-36" stroke="black" stroke-width="5"/>
<path d="M1769,1448 l60,0 l0,60 l-60,0 z" fill="green"/>
<path d="M1799,1478 l-98,-50.5" stroke="black" stroke-width="5"/>
<path d="M3276,9654 l60,0 l0,60 l-60,0 z" fill="green"/>
<path d="M3306,9684 l-815,118" stroke="black" stroke-width="5"/>
<path d="M4574,9865 l60,0 l0,60 l-60,0 z" fill="green"/>
<path d="M4604,9895 l106,-260.5" stroke="black" stroke-width="5"/>
<path d="M9209,394 l60,0 l0,60 l-60,0 z" fill="green"/>
<path d="M9239,424 l-43.5,-145" stroke="black" stroke-width="5"/>
<path d="M2231,4547 l60,0 l0,60 l-60,0 z" fill="green"/>
<path d="M2261,4577 l-92.5,116.5" stroke="black" stroke-width="5"/>
<path d="M5456,750 l60,0 l0,60 l-60,0 z" fill="green"/>
<path d="M5486,780 l0.5,1930.5" stroke="black" stroke-width="5"/>
<path d="M5088,9363 l60,0 l0,60 l-60,0 z" fill="green"/>
<path d="M5118,9393 l87,241.5" stroke="black" stroke-width="5"/>
<path d="M2519,3866 l60,0 l0,60 l-60,0 z" fill="green"/>
<path d="M2549,3896 l-178.5,132" stroke="black" stroke-width="5"/>
<path d="M9639,7684 l60,0 l0,60 l-60,0 z" fill="green"/>
<path d="M9669,7714 l-6.5,-25.5" stroke="black" stroke-width="5"/>
<path d="M3853,9417 l60,0 l0,60 l-60,0 z" fill="green"/>
<path d="M3883,9447 l314.5,-112.5" stroke="black" stroke-width="5"/>
<path d="M6940,90 l60,0 l0,60 l-60,0 z" fill="green"/>
<path d="M6970,120 l-47.5,260.5" stroke="black" stroke-width="5"/>
<path d="M337,7553 l60,0 l0,60 l-60,0 z" fill="green"/>
<path d="M367,7583 l1.5,101.5" stroke="black" stroke-width="5"/>
<path d="M8720,1906 l60,0 l0,60 l-60,0 z" fill="green"/>
<path d="M8750,1936 l64.5,54" stroke="black" stroke-width="5"/>
<path d="M3790,79 l60,0 l0,60 l-60,0 z" fill="green"/>
<path d="M3820,109 l-19,8" stroke="black" stroke-width="5"/>
<path d="M9635,5585 l60,0 l0,60 l-60,0 z" fill="green"/>
<path d="M9665,5615 l-136.5,93.5" stroke="black" stroke-width="5"/>
<path d="M2268,1294 l60,0 l0,60 l-60,0 z" fill="green"/>
<path d="M2298,1324 l-155,-23" stroke="black" stroke-width="5"/>
<path d="M1378,1082 l60,0 l0,60 l-60,0 z" fill="green"/>
<path d="M1408,1112 l-419.5,413" stroke="black" stroke-width="5"/>
<path d="M1280,7195 l60,0 l0,60 l-60,0 z" fill="green"/>
<path d="M1310,7225 l-125,17" stroke="black" stroke-width="5"/>
<path d="M3552,5814 l60,0 l0,60 l-60,0 z" fill="green"/>
<path d="M3582,5844 l-17.5,6" stroke="black" stroke-width="5"/>
<path d="M2747,36 l60,0 l0,60 l-60,0 z" fill="green"/>
<path d="M2777,66 l959,-25.5" stroke="black" stroke-width="5"/>
<path d="M2357,5105 l60,0 l0,60 l-60,0 z" fill="green"/>
<path d="M2387,5135 l36,161" stroke="black" stroke-width="5"/>
<path d="M4856,8319 l60,0 l0,60 l-60,0 z" fill="green"/>
<path d="M4886,8349 l25.5,-18" stroke="black" stroke-width="5"/>
<path d="M1821,248 l60,0 l0,60 l-60,0 z" fill="green"/>
<path d="M1851,278 l164.5,119.5" stroke="black" stroke-width="5"/>
<path d="M2457,7557 l60,0 l0,60 l-60,0 z" fill="green"/>
<path d="M2487,7587 l2,8" stroke="black" stroke-width="5"/>
<path d="M3608,1771 l60,0 l0,60 l-60,0 z" fill="green"/>
<path d="M3638,1801 l-29,-73.5" stroke="black" stroke-width="5"/>
<path d="M4043,5251 l60,0 l0,60 l-60,0 z" fill="green"/>
<path d="M4073,5281 l-384,-133.5" stroke="black" stroke-width="5"/>
<path d="M9555,3342 l60,0 l0,60 l-60,0 z" fill="green"/>
<path d="M9585,3372 l44.5,179" stroke="black" stroke-width="5"/>
<path d="M7702,1532 l60,0 l0,60 l-60,0 z" fill="green"/>
<path d="M7732,1562 l-95,-95" stroke="black" stroke-width="5"/>
<path d="M4955,3994 l60,0 l0,60 l-60,0 z" fill="green"/>
<path d="M4985,4024 l23.5,41.5" stroke="black" stroke-width="5"/>
<path d="M3557,2188 l60,0 l0,60 l-60,0 z" fill="green"/>
<path d="M3587,2218 l129.5,-110" stroke="black" stroke-width="5"/>
<path d="M5100,2916 l60,0 l0,60 l-60,0 z" fill="green"/>
<path d="M5130,2946 l10,-84" stroke="black" stroke-width="5"/>
<path d="M65,4005 l60,0 l0,60 l-60,0 z" fill="green"/>
<path d="M95,4035 l-14,-175" stroke="black" stroke-width="5"/>
<path d="M6698,7161 l60,0 l0,60 l-60,0 z" fill="green"/>
<path d="M6728,7191 l-74.5,216" stroke="black" stroke-width="5"/>
<path d="M8726,5651 l60,0 l0,60 l-60,0 z" fill="green"/>
<path d="M8756,5681 l-17.5,-54.5" stroke="black" stroke-width="5"/>
<path d="M2331,611 l60,0 l0,60 l-60,0 z" fill="green"/>
<path d="M2361,641 l497.5,-268.5" stroke="black" stroke-width="5"/>
<path d="M3307,6954 l60,0 l0,60 l-60,0 z" fill="green"/>
<path d="M3337,6984 l-45.5,47.5" stroke="black" stroke-width="5"/>
<path d="M7279,1868 l60,0 l0,60 l-60,0 z" fill="green"/>
<path d="M7309,1898 l-702,236" stroke="black" stroke-width="5"/>
<path d="M2886,6481 l60,0 l0,60 l-60,0 z" fill="green"/>
<path d="M2916,6511 l-53,-55" stroke="black" stroke-width="5"/>
<path d="M4953,4538 l60,0 l0,60 l-60,0 z" fill="green"/>
<path d="M4983,4568 l102.5,98.5" stroke="black" stroke-width="5"/>
<path d="M9054,2374 l60,0 l0,60 l-60,0 z" fill="green"/>
<path d="M9084,2404 l457,325" stroke="black" stroke-width="5"/>
<path d="M5735,5486 l60,0 l0,60 l-60,0 z" fill="green"/>
<path d="M5765,5516 l-430.5,179" stroke="black" stroke-width="5"/>
<path d="M8243,1784 l60,0 l0,60 l-60,0 z" fill="green"/>
<path d="M8273,1814 l132.5,7" stroke="black" stroke-width="5"/>
<path d="M506,3820 l60,0 l0,60 l-60,0 z" fill="green"/>
<path d="M536,3850 l-37.5,-79" stroke="black" stroke-width="5"/>
<path d="M2290,1637 l60,0 l0,60 l-60,0 z" fill="green"/>
<path d="M2320,1667 l-108.5,194.5" stroke="black" stroke-width="5"/>
<path d="M3233,7899 l60,0 l0,60 l-60,0 z" fill="green"/>
<path d="M3263,7929 l-26,123" stroke="black" stroke-width="5"/>
<path d="M639,9576 l60,0 l0,60 l-60,0 z" fill="green"/>
<path d="M669,9606 l-119.5,-104.5" stroke="black" stroke-width="5"/>
<path d="M2768,1820 l60,0 l0,60 l-60,0 z" fill="green"/>
<path d="M2798,1850 l-113.5,-91" stroke="black" stroke-width="5"/>
<path d="M9120,5087 l60,0 l0,60 l-60,0 z" fill="green"/>
<path d="M9150,5117 l56,-150" stroke="black" stroke-width="5"/>
<path d="M818,5185 l60,0 l0,60 l-60,0 z" fill="green"/>
<path d="M848,5215 l21.5,-347" stroke="black" stroke-width="5"/>
<path d="M4420,1576 l60,0 l0,60 l-60,0 z" fill="green"/>
<path d="M4450,1606 l-1,88.5" stroke="black" stroke-width="5"/>
<path d="M2593,4779 l60,0 l0,60 l-60,0 z" fill="green"/>
<path d="M2623,4809 l42.5,32" stroke="black" stroke-width="5"/>
<path d="M7704,2095 l60,0 l0,60 l-60,0 z" fill="green"/>
<path d="M7734,2125 l261.5,74.5" stroke="black" stroke-width="5"/>
<text font-size="136.08276348795434" text-anchor="middle" x="5492" y="6591.128967220784">
0
</text>
<text font-size="136.08276348795434" text-anchor="middle" x="5707.5" y="202.128967220784">
1
</text>
<text font-size="136.08276348795434" text-anchor="middle" x="1776" y="5981.128967220784">
2
</text>
<text font-size="136.08276348795434" text-anchor="middle" x="6198.5" y="9682.128967220784">
3
</text>
<text font-size="136.08276348795434" text-anchor="middle" x="8234.5" y="8077.128967220784">
4
</text>
<text font-size="136.08276348795434" text-anchor="middle" x="5121" y="1117.628967220784">
5
</text>
<text font-size="136.08276348795434" text-anchor="middle" x="5513" y="8985.128967220784">
6
</text>
<text font-size="136.08276348795434" text-anchor="middle" x="6920.5" y="9896.628967220784">
7
</text>
<text font-size="136.08276348795434" text-anchor="middle" x="2491" y="9517.628967220784">
8
</text>
<text font-size="136.08276348795434" text-anchor="middle" x="6991.5" y="989.128967220784">
9
</text>
<text font-size="136.08276348795434" text-anchor="middle" x="4544" y="363.12896722078403">
10
</text>
<text font-size="136.08276348795434" text-anchor="middle" x="2104.5" y="914.628967220784">
11
</text>
<text font-size="136.08276348795434" text-anchor="middle" x="1099" y="5657.628967220784">
12
</text>
<text font-size="136.08276348795434" text-anchor="middle" x="4789.5" y="3452.128967220784">
13
</text>
<text font-size="136.08276348795434" text-anchor="middle" x="8728" y="3830.628967220784">
14
</text>
<text font-size="136.08276348795434" text-anchor="middle" x="3092.5" y="7746.128967220784">
15
</text>
<text font-size="136.08276348795434" text-anchor="middle" x="1957" y="8974.628967220784">
16
</text>
<text font-size="136.08276348795434" text-anchor="middle" x="1528.5" y="3927.628967220784">
17
</text>
<text font-size="136.08276348795434" text-anchor="middle" x="685.5" y="445.12896722078403">
18
</text>
<text font-size="136.08276348795434" text-anchor="middle" x="1788.5" y="1954.628967220784">
19
</text>
<text font-size="136.08276348795434" text-anchor="middle" x="4281" y="6562.628967220784">
20
</text>
<text font-size="136.08276348795434" text-anchor="middle" x="7856.5" y="6347.628967220784">
21
</text>
<text font-size="136.08276348795434" text-anchor="middle" x="5952" y="3855.128967220784">
22
</text>
<text font-size="136.08276348795434" text-anchor="middle" x="6848.5" y="4643.128967220784">
23
</text>
<text font-size="136.08276348795434" text-anchor="middle" x="3409" y="3208.128967220784">
24
</text>
<text font-size="136.08276348795434" text-anchor="middle" x="3510.5" y="4422.128967220784">
25
</text>
<text font-size="136.08276348795434" text-anchor="middle" x="4188" y="8152.128967220784">
26
</text>
<text font-size="136.08276348795434" text-anchor="middle" x="2852" y="8815.628967220784">
27
</text>
<text font-size="136.08276348795434" text-anchor="middle" x="8635" y="6831.628967220784">
28
</text>
<text font-size="136.08276348795434" text-anchor="middle" x="2647" y="1288.128967220784">
29
</text>
<text font-size="136.08276348795434" text-anchor="middle" x="1108" y="3502.628967220784">
30
</text>
<text font-size="136.08276348795434" text-anchor="middle" x="9528" y="6616.628967220784">
31
</text>
<text font-size="136.08276348795434" text-anchor="middle" x="6546.5" y="1527.628967220784">
32
</text>
<text font-size="136.08276348795434" text-anchor="middle" x="4478.5" y="788.128967220784">
33
</text>
<text font-size="136.08276348795434" text-anchor="middle" x="1598" y="445.12896722078403">
34
</text>
<text font-size="136.08276348795434" text-anchor="middle" x="8247.5" y="8663.628967220784">
35
</text>
<text font-size="136.08276348795434" text-anchor="middle" x="3262.5" y="1367.628967220784">
36
</text>
<text font-size="136.08276348795434" text-anchor="middle" x="233" y="1914.628967220784">
37
</text>
<text font-size="136.08276348795434" text-anchor="middle" x="9541" y="1442.628967220784">
38
</text>
<text font-size="136.08276348795434" text-anchor="middle" x="4438" y="1264.128967220784">
39
</text>
<text font-size="136.08276348795434" text-anchor="middle" x="2989.5" y="2544.628967220784">
40
</text>
<text font-size="136.08276348795434" text-anchor="middle" x="3499" y="8814.128967220784">
41
</text>
<text font-size="136.08276348795434" text-anchor="middle" x="5626" y="924.628967220784">
42
</text>
<text font-size="136.08276348795434" text-anchor="middle" x="8580.5" y="9116.128967220784">
43
</text>
<text font-size="136.08276348795434" text-anchor="middle" x="7583" y="4429.628967220784">
44
</text>
<text font-size="136.08276348795434" text-anchor="middle" x="351.5" y="5985.628967220784">
45
</text>
<text font-size="136.08276348795434" text-anchor="middle" x="7406" y="3211.628967220784">
46
</text>
<text font-size="136.08276348795434" text-anchor="middle" x="3923" y="3569.628967220784">
47
</text>
<text font-size="136.08276348795434" text-anchor="middle" x="6883.5" y="5946.128967220784">
48
</text>
<text font-size="136.08276348795434" text-anchor="middle" x="1900.5" y="7356.628967220784">
49
</text>
<text font-size="136.08276348795434" text-anchor="middle" x="4878" y="2405.128967220784">
50
</text>
<text font-size="136.08276348795434" text-anchor="middle" x="4385.5" y="4352.128967220784">
51
</text>
<text font-size="136.08276348795434" text-anchor="middle" x="857.5" y="7550.628967220784">
52
</text>
<text font-size="136.08276348795434" text-anchor="middle" x="7732.5" y="9386.628967220784">
53
</text>
<text font-size="136.08276348795434" text-anchor="middle" x="2606" y="2403.128967220784">
54
</text>
<text font-size="136.08276348795434" text-anchor="middle" x="6480.5" y="6630.628967220784">
55
</text>
<text font-size="136.08276348795434" text-anchor="middle" x="1701" y="1475.128967220784">
56
</text>
<text font-size="136.08276348795434" text-anchor="middle" x="2491" y="9849.628967220784">
57
</text>
<text font-size="136.08276348795434" text-anchor="middle" x="4710" y="9682.128967220784">
58
</text>
<text font-size="136.08276348795434" text-anchor="middle" x="9195.5" y="326.62896722078403">
59
</text>
<text font-size="136.08276348795434" text-anchor="middle" x="2168.5" y="4741.128967220784">
60
</text>
<text font-size="136.08276348795434" text-anchor="middle" x="5486.5" y="2758.128967220784">
61
</text>
<text font-size="136.08276348795434" text-anchor="middle" x="5205" y="9682.128967220784">
62
</text>
<text font-size="136.08276348795434" text-anchor="middle" x="2370.5" y="4075.628967220784">
63
</text>
<text font-size="136.08276348795434" text-anchor="middle" x="9662.5" y="7736.128967220784">
64
</text>
<text font-size="136.08276348795434" text-anchor="middle" x="4197.5" y="9382.128967220784">
65
</text>
<text font-size="136.08276348795434" text-anchor="middle" x="6922.5" y="428.12896722078403">
66
</text>
<text font-size="136.08276348795434" text-anchor="middle" x="368.5" y="7732.128967220784">
67
</text>
<text font-size="136.08276348795434" text-anchor="middle" x="8814.5" y="2037.628967220784">
68
</text>
<text font-size="136.08276348795434" text-anchor="middle" x="3801" y="164.628967220784">
69
</text>
<text font-size="136.08276348795434" text-anchor="middle" x="9528.5" y="5756.128967220784">
70
</text>
<text font-size="136.08276348795434" text-anchor="middle" x="2143" y="1348.628967220784">
71
</text>
<text font-size="136.08276348795434" text-anchor="middle" x="988.5" y="1572.628967220784">
72
</text>
<text font-size="136.08276348795434" text-anchor="middle" x="1185" y="7289.628967220784">
73
</text>
<text font-size="136.08276348795434" text-anchor="middle" x="3564.5" y="5897.628967220784">
74
</text>
<text font-size="136.08276348795434" text-anchor="middle" x="3736" y="88.128967220784">
75
</text>
<text font-size="136.08276348795434" text-anchor="middle" x="2423" y="5343.628967220784">
76
</text>
<text font-size="136.08276348795434" text-anchor="middle" x="4911.5" y="8378.628967220784">
77
</text>
<text font-size="136.08276348795434" text-anchor="middle" x="2015.5" y="445.12896722078403">
78
</text>
<text font-size="136.08276348795434" text-anchor="middle" x="2489" y="7642.628967220784">
79
</text>
<text font-size="136.08276348795434" text-anchor="middle" x="3609" y="1775.128967220784">
80
</text>
<text font-size="136.08276348795434" text-anchor="middle" x="3689" y="5195.128967220784">
81
</text>
<text font-size="136.08276348795434" text-anchor="middle" x="9629.5" y="3598.628967220784">
82
</text>
<text font-size="136.08276348795434" text-anchor="middle" x="7637" y="1514.628967220784">
83
</text>
<text font-size="136.08276348795434" text-anchor="middle" x="5008.5" y="4113.128967220784">
84
</text>
<text font-size="136.08276348795434" text-anchor="middle" x="3716.5" y="2155.628967220784">
85
</text>
<text font-size="136.08276348795434" text-anchor="middle" x="5140" y="2909.628967220784">
86
</text>
<text font-size="136.08276348795434" text-anchor="middle" x="81" y="3907.628967220784">
87
</text>
<text font-size="136.08276348795434" text-anchor="middle" x="6653.5" y="7454.628967220784">
88
</text>
<text font-size="136.08276348795434" text-anchor="middle" x="8738.5" y="5674.128967220784">
89
</text>
<text font-size="136.08276348795434" text-anchor="middle" x="2858.5" y="420.12896722078403">
90
</text>
<text font-size="136.08276348795434" text-anchor="middle" x="3291.5" y="7079.128967220784">
91
</text>
<text font-size="136.08276348795434" text-anchor="middle" x="6607" y="2181.628967220784">
92
</text>
<text font-size="136.08276348795434" text-anchor="middle" x="2863" y="6503.628967220784">
93
</text>
<text font-size="136.08276348795434" text-anchor="middle" x="5085.5" y="4714.128967220784">
94
</text>
<text font-size="136.08276348795434" text-anchor="middle" x="9541" y="2776.628967220784">
95
</text>
<text font-size="136.08276348795434" text-anchor="middle" x="5334.5" y="5742.628967220784">
96
</text>
<text font-size="136.08276348795434" text-anchor="middle" x="8405.5" y="1868.628967220784">
97
</text>
<text font-size="136.08276348795434" text-anchor="middle" x="498.5" y="3818.628967220784">
98
</text>
<text font-size="136.08276348795434" text-anchor="middle" x="2211.5" y="1909.128967220784">
99
</text>
<text font-size="136.08276348795434" text-anchor="middle" x="3237" y="8099.628967220784">
100
</text>
<text font-size="136.08276348795434" text-anchor="middle" x="549.5" y="9549.128967220784">
101
</text>
<text font-size="136.08276348795434" text-anchor="middle" x="2684.5" y="1806.628967220784">
102
</text>
<text font-size="136.08276348795434" text-anchor="middle" x="9206" y="5014.628967220784">
103
</text>
<text font-size="136.08276348795434" text-anchor="middle" x="869.5" y="4915.628967220784">
104
</text>
<text font-size="136.08276348795434" text-anchor="middle" x="4449" y="1742.128967220784">
105
</text>
<text font-size="136.08276348795434" text-anchor="middle" x="2665.5" y="4888.628967220784">
106
</text>
<text font-size="136.08276348795434" text-anchor="middle" x="7995.5" y="2247.128967220784">
107
</text>
</svg>