<svg viewBox="-100 -100 10200 10200" xmlns="http://www.w3.org/2000/svg">
<path d="M0,0 l10000,0 l0,10000 l-10000,0 z" fill="white"/>
<path d="M4249,8654 l996,0 l0,1336 l-996,0 z" fill="#fe00ff" stroke="black" stroke-width="5"/>
<path d="M2090,7903 l1714,0 l0,461 l-1714,0 z" fill="#fe00ff" stroke="black" stroke-width="5"/>
<path d="M8312,7300 l560,0 l0,1349 l-560,0 z" fill="#fe00ff" stroke="black" stroke-width="5"/>
<path d="M7265,5963 l155,0 l0,221 l-155,0 z" fill="#fe00ff" stroke="black" stroke-width="5"/>
<path d="M6582,3120 l414,0 l0,449 l-414,0 z" fill="#fe00ff" stroke="black" stroke-width="5"/>
<path d="M7462,5885 l705,0 l0,836 l-705,0 z" fill="#fe00ff" stroke="black" stroke-width="5"/>
<path d="M7836,2892 l344,0 l0,299 l-344,0 z" fill="#fe00ff" stroke="black" stroke-width="5"/>
<path d="M5292,4930 l2475,0 l0,491 l-2475,0 z" fill="#fe00ff" stroke="black" stroke-width="5"/>
<path d="M5120,5959 l834,0 l0,520 l-834,0 z" fill="#ce00ff" stroke="black" stroke-width="5"/>
<path d="M8522,5589 l588,0 l0,583 l-588,0 z" fill="#fe00ff" stroke="black" stroke-width="5"/>
<path d="M7147,4071 l838,0 l0,855 l-838,0 z" fill="#fe00ff" stroke="black" stroke-width="5"/>
<path d="M7398,1053 l2124,0 l0,836 l-2124,0 z" fill="#6d00ff" stroke="black" stroke-width="5"/>
<path d="M2601,2587 l1851,0 l0,901 l-1851,0 z" fill="#fa00ff" stroke="black" stroke-width="5"/>
<path d="M0,8370 l2607,0 l0,108 l-2607,0 z" fill="#1600ff" stroke="black" stroke-width="5"/>
<path d="M2476,363 l423,0 l0,514 l-423,0 z" fill="#fe00ff" stroke="black" stroke-width="5"/>
<path d="M9022,2260 l978,0 l0,947 l-978,0 z" fill="#4600ff" stroke="black" stroke-width="5"/>
<path d="M9231,4035 l308,0 l0,348 l-308,0 z" fill="#fe00ff" stroke="black" stroke-width="5"/>
<path d="M0,8478 l538,0 l0,1522 l-538,0 z" fill="#d100ff" stroke="black" stroke-width="5"/>
<path d="M4704,3528 l257,0 l0,3324 l-257,0 z" fill="#6f00ff" stroke="black" stroke-width="5"/>
<path d="M4512,1096 l529,0 l0,501 l-529,0 z" fill="#fe00ff" stroke="black" stroke-width="5"/>
<path d="M2302,4534 l333,0 l0,301 l-333,0 z" fill="#fe00ff" stroke="black" stroke-width="5"/>
<path d="M5053,734 l634,0 l0,417 l-634,0 z" fill="#fe00ff" stroke="black" stroke-width="5"/>
<path d="M734,9640 l3080,0 l0,360 l-3080,0 z" fill="#ca00ff" stroke="black" stroke-width="5"/>
<path d="M5245,7994 l323,0 l0,2006 l-323,0 z" fill="#8200ff" stroke="black" stroke-width="5"/>
<path d="M2803,1237 l404,0 l0,900 l-404,0 z" fill="#fe00ff" stroke="black" stroke-width="5"/>
<path d="M596,4127 l1183,0 l0,1247 l-1183,0 z" fill="#cb00ff" stroke="black" stroke-width="5"/>
<path d="M0,2860 l419,0 l0,472 l-419,0 z" fill="#fe00ff" stroke="black" stroke-width="5"/>
<path d="M4013,3620 l691,0 l0,306 l-691,0 z" fill="#fe00ff" stroke="black" stroke-width="5"/>
<path d="M3840,0 l2013,0 l0,614 l-2013,0 z" fill="#a400ff" stroke="black" stroke-width="5"/>
<path d="M2607,8364 l1197,0 l0,974 l-1197,0 z" fill="#fe00ff" stroke="black" stroke-width="5"/>
<path d="M2899,156 l329,0 l0,372 l-329,0 z" fill="#fe00ff" stroke="black" stroke-width="5"/>
<path d="M2217,4970 l964,0 l0,735 l-964,0 z" fill="#fe00ff" stroke="black" stroke-width="5"/>
<path d="M5568,7998 l543,0 l0,1036 l-543,0 z" fill="#fe00ff" stroke="black" stroke-width="5"/>
<path d="M7050,8649 l1122,0 l0,836 l-1122,0 z" fill="#fe00ff" stroke="black" stroke-width="5"/>
<path d="M1142,562 l450,0 l0,428 l-450,0 z" fill="#fe00ff" stroke="black" stroke-width="5"/>
<path d="M9522,924 l478,0 l0,1336 l-478,0 z" fill="#fd00ff" stroke="black" stroke-width="5"/>
<path d="M5120,3255 l1138,0 l0,889 l-1138,0 z" fill="#7b00ff" stroke="black" stroke-width="5"/>
<path d="M538,8478 l196,0 l0,1522 l-196,0 z" fill="#fb00ff" stroke="black" stroke-width="5"/>
<path d="M419,2860 l2182,0 l0,370 l-2182,0 z" fill="#fd00ff" stroke="black" stroke-width="5"/>
<path d="M1088,6552 l247,0 l0,208 l-247,0 z" fill="#fe00ff" stroke="black" stroke-width="5"/>
<path d="M736,8564 l461,0 l0,1076 l-461,0 z" fill="#fe00ff" stroke="black" stroke-width="5"/>
<path d="M1383,7252 l707,0 l0,1118 l-707,0 z" fill="#fe00ff" stroke="black" stroke-width="5"/>
<path d="M7414,164 l932,0 l0,889 l-932,0 z" fill="#fe00ff" stroke="black" stroke-width="5"/>
<path d="M7631,9486 l530,0 l0,498 l-530,0 z" fill="#fe00ff" stroke="black" stroke-width="5"/>
<path d="M4011,3926 l443,0 l0,3501 l-443,0 z" fill="#a500ff" stroke="black" stroke-width="5"/>
<path d="M2461,3230 l140,0 l0,1304 l-140,0 z" fill="#0200ff" stroke="black" stroke-width="5"/>
<path d="M9225,700 l238,0 l0,353 l-238,0 z" fill="#fe00ff" stroke="black" stroke-width="5"/>
<path d="M5037,7481 l1125,0 l0,513 l-1125,0 z" fill="#fd00ff" stroke="black" stroke-width="5"/>
<path d="M5185,6548 l789,0 l0,933 l-789,0 z" fill="#e800ff" stroke="black" stroke-width="5"/>
<path d="M6258,3609 l889,0 l0,1321 l-889,0 z" fill="#fe00ff" stroke="black" stroke-width="5"/>
<path d="M9137,5058 l340,0 l0,1747 l-340,0 z" fill="#fe00ff" stroke="black" stroke-width="5"/>
<path d="M6648,5429 l617,0 l0,1391 l-617,0 z" fill="#fe00ff" stroke="black" stroke-width="5"/>
<path d="M4568,8018 l677,0 l0,630 l-677,0 z" fill="#fe00ff" stroke="black" stroke-width="5"/>
<path d="M0,2246 l1105,0 l0,614 l-1105,0 z" fill="#fd00ff" stroke="black" stroke-width="5"/>
<path d="M5063,2275 l57,0 l0,4577 l-57,0 z" fill="#1600ff" stroke="black" stroke-width="5"/>
<path d="M5120,5421 l834,0 l0,538 l-834,0 z" fill="#1a00ff" stroke="black" stroke-width="5"/>
<path d="M6162,7299 l877,0 l0,1789 l-877,0 z" fill="#fe00ff" stroke="black" stroke-width="5"/>
<path d="M3390,5230 l359,0 l0,515 l-359,0 z" fill="#fe00ff" stroke="black" stroke-width="5"/>
<path d="M1779,4257 l305,0 l0,461 l-305,0 z" fill="#fe00ff" stroke="black" stroke-width="5"/>
<path d="M3752,3857 l259,0 l0,3147 l-259,0 z" fill="#ef00ff" stroke="black" stroke-width="5"/>
<path d="M6192,908 l857,0 l0,874 l-857,0 z" fill="#fe00ff" stroke="black" stroke-width="5"/>
<path d="M4427,1597 l1014,0 l0,678 l-1014,0 z" fill="#fe00ff" stroke="black" stroke-width="5"/>
<path d="M9085,8417 l472,0 l0,284 l-472,0 z" fill="#fe00ff" stroke="black" stroke-width="5"/>
<path d="M284,1808 l513,0 l0,438 l-513,0 z" fill="#fe00ff" stroke="black" stroke-width="5"/>
<path d="M596,3230 l1865,0 l0,897 l-1865,0 z" fill="#fd00ff" stroke="black" stroke-width="5"/>
<path d="M2099,1261 l257,0 l0,234 l-257,0 z" fill="#fe00ff" stroke="black" stroke-width="5"/>
<path d="M5974,6394 l467,0 l0,474 l-467,0 z" fill="#fe00ff" stroke="black" stroke-width="5"/>
<path d="M3691,72 l149,0 l0,369 l-149,0 z" fill="#fe00ff" stroke="black" stroke-width="5"/>
<path d="M8872,6805 l1128,0 l0,1612 l-1128,0 z" fill="#ef00ff" stroke="black" stroke-width="5"/>
<path d="M7398,1889 l1624,0 l0,1003 l-1624,0 z" fill="#fe00ff" stroke="black" stroke-width="5"/>
<path d="M4480,614 l241,0 l0,254 l-241,0 z" fill="#fe00ff" stroke="black" stroke-width="5"/>
<path d="M5471,4144 l786,0 l0,715 l-786,0 z" fill="#fe00ff" stroke="black" stroke-width="5"/>
<path d="M5189,617 l117,0 l0,114 l-117,0 z" fill="#fe00ff" stroke="black" stroke-width="5"/>
<path d="M9748,3207 l252,0 l0,1782 l-252,0 z" fill="#fe00ff" stroke="black" stroke-width="5"/>
<path d="M7398,3207 l2350,0 l0,828 l-2350,0 z" fill="#fe00ff" stroke="black" stroke-width="5"/>
<path d="M5163,2826 l543,0 l0,429 l-543,0 z" fill="#fe00ff" stroke="black" stroke-width="5"/>
<path d="M6266,2921 l316,0 l0,688 l-316,0 z" fill="#fe00ff" stroke="black" stroke-width="5"/>
<path d="M5853,5 l982,0 l0,903 l-982,0 z" fill="#fe00ff" stroke="black" stroke-width="5"/>
<path d="M1197,8478 l1410,0 l0,1162 l-1410,0 z" fill="#9800ff" stroke="black" stroke-width="5"/>
<path d="M3814,9145 l435,0 l0,727 l-435,0 z" fill="#fe00ff" stroke="black" stroke-width="5"/>
<path d="M1899,5351 l300,0 l0,752 l-300,0 z" fill="#fe00ff" stroke="black" stroke-width="5"/>
<path d="M409,483 l729,0 l0,662 l-729,0 z" fill="#fe00ff" stroke="black" stroke-width="5"/>
<path d="M8229,9819 l262,0 l0,181 l-262,0 z" fill="#fe00ff" stroke="black" stroke-width="5"/>
<path d="M892,1145 l944,0 l0,917 l-944,0 z" fill="#fe00ff" stroke="black" stroke-width="5"/>
<path d="M3703,7004 l269,0 l0,125 l-269,0 z" fill="#fe00ff" stroke="black" stroke-width="5"/>
<path d="M1836,1621 l967,0 l0,441 l-967,0 z" fill="#2200ff" stroke="black" stroke-width="5"/>
<path d="M511,7721 l306,0 l0,351 l-306,0 z" fill="#fe00ff" stroke="black" stroke-width="5"/>
<path d="M4452,3280 l414,0 l0,248 l-414,0 z" fill="#fe00ff" stroke="black" stroke-width="5"/>
<path d="M5954,5421 l694,0 l0,973 l-694,0 z" fill="#2300ff" stroke="black" stroke-width="5"/>
<path d="M1432,2588 l431,0 l0,272 l-431,0 z" fill="#fe00ff" stroke="black" stroke-width="5"/>
<path d="M4961,2275 l102,0 l0,4577 l-102,0 z" fill="#5e00ff" stroke="black" stroke-width="5"/>
<path d="M5120,6479 l854,0 l0,69 l-854,0 z" fill="#0000ff" stroke="black" stroke-width="5"/>
<path d="M4454,5472 l250,0 l0,1163 l-250,0 z" fill="#fe00ff" stroke="black" stroke-width="5"/>
<path d="M3585,3488 l428,0 l0,369 l-428,0 z" fill="#fe00ff" stroke="black" stroke-width="5"/>
<path d="M3758,826 l669,0 l0,1178 l-669,0 z" fill="#fe00ff" stroke="black" stroke-width="5"/>
<path d="M4452,2708 l509,0 l0,549 l-509,0 z" fill="#fe00ff" stroke="black" stroke-width="5"/>
<path d="M2601,3488 l984,0 l0,779 l-984,0 z" fill="#5500ff" stroke="black" stroke-width="5"/>
<path d="M2090,7427 l2947,0 l0,476 l-2947,0 z" fill="#f300ff" stroke="black" stroke-width="5"/>
<path d="M0,6713 l463,0 l0,1657 l-463,0 z" fill="#fe00ff" stroke="black" stroke-width="5"/>
<path d="M1105,2062 l1698,0 l0,525 l-1698,0 z" fill="#9400ff" stroke="black" stroke-width="5"/>
<path d="M3228,64 l440,0 l0,1315 l-440,0 z" fill="#fe00ff" stroke="black" stroke-width="5"/>
<path d="M604,5374 l455,0 l0,416 l-455,0 z" fill="#fe00ff" stroke="black" stroke-width="5"/>
<path d="M8974,8784 l437,0 l0,823 l-437,0 z" fill="#fe00ff" stroke="black" stroke-width="5"/>
<path d="M2635,4267 l1117,0 l0,703 l-1117,0 z" fill="#3300ff" stroke="black" stroke-width="5"/>
<path d="M2705,6900 l959,0 l0,485 l-959,0 z" fill="#fe00ff" stroke="black" stroke-width="5"/>
<path d="M9463,0 l537,0 l0,924 l-537,0 z" fill="#ec00ff" stroke="black" stroke-width="5"/>
<path d="M7052,6899 l1250,0 l0,1750 l-1250,0 z" fill="#fe00ff" stroke="black" stroke-width="5"/>
<path d="M1059,5374 l795,0 l0,1029 l-795,0 z" fill="#fe00ff" stroke="black" stroke-width="5"/>
<path d="M7147,0 l251,0 l0,4071 l-251,0 z" fill="#dd00ff" stroke="black" stroke-width="5"/>
<path d="M8172,8649 l802,0 l0,1170 l-802,0 z" fill="#fa00ff" stroke="black" stroke-width="5"/>
<path d="M2356,1129 l447,0 l0,492 l-447,0 z" fill="#fe00ff" stroke="black" stroke-width="5"/>
<path d="M68,3761 l528,0 l0,845 l-528,0 z" fill="#fe00ff" stroke="black" stroke-width="5"/>
<path d="M7091,322 l56,0 l0,144 l-56,0 z" fill="#fe00ff" stroke="black" stroke-width="5"/>
<path d="M4550,6852 l635,0 l0,568 l-635,0 z" fill="#fe00ff" stroke="black" stroke-width="5"/>
<path d="M5441,1971 l524,0 l0,556 l-524,0 z" fill="#fe00ff" stroke="black" stroke-width="5"/>
<path d="M2259,5705 l160,0 l0,138 l-160,0 z" fill="#fe00ff" stroke="black" stroke-width="5"/>
<path d="M9477,5253 l510,0 l0,1497 l-510,0 z" fill="#fe00ff" stroke="black" stroke-width="5"/>
<path d="M4901,9954 l60,0 l0,60 l-60,0 z" fill="green"/>
<path d="M4931,9984 l-184,-662" stroke="black" stroke-width="5"/>
<path d="M2796,8099 l60,0 l0,60 l-60,0 z" fill="green"/>
<path d="M2826,8129 l121,4.5" stroke="black" stroke-width="5"/>
<path d="M8838,8297 l60,0 l0,60 l-60,0 z" fill="green"/>
<path d="M8868,8327 l-276,-352.5" stroke="black" stroke-width="5"/>
<path d="M7343,6005 l60,0 l0,60 l-60,0 z" fill="green"/>
<path d="M7373,6035 l-30.5,38.5" stroke="black" stroke-width="5"/>
<path d="M6745,3277 l60,0 l0,60 l-60,0 z" fill="green"/>
<path d="M6775,3307 l14,37.5" stroke="black" stroke-width="5"/>
<path d="M7701,6246 l60,0 l0,60 l-60,0 z" fill="green"/>
<path d="M7731,6276 l83.5,27" stroke="black" stroke-width="5"/>
<path d="M8018,2996 l60,0 l0,60 l-60,0 z" fill="green"/>
<path d="M8048,3026 l-40,15.5" stroke="black" stroke-width="5"/>
<path d="M6480,4900 l60,0 l0,60 l-60,0 z" fill="green"/>
<path d="M6510,4930 l19.5,245.5" stroke="black" stroke-width="5"/>
<path d="M5209,6063 l60,0 l0,60 l-60,0 z" fill="green"/>
<path d="M5239,6093 l298,126" stroke="black" stroke-width="5"/>
<path d="M8829,5839 l60,0 l0,60 l-60,0 z" fill="green"/>
<path d="M8859,5869 l-43,11.5" stroke="black" stroke-width="5"/>
<path d="M7565,4350 l60,0 l0,60 l-60,0 z" fill="green"/>
<path d="M7595,4380 l-29,118.5" stroke="black" stroke-width="5"/>
<path d="M7992,1535 l60,0 l0,60 l-60,0 z" fill="green"/>
<path d="M8022,1565 l438,-94" stroke="black" stroke-width="5"/>
<path d="M3625,3357 l60,0 l0,60 l-60,0 z" fill="green"/>
<path d="M3655,3387 l-128.5,-349.5" stroke="black" stroke-width="5"/>
<path d="M72,8447 l60,0 l0,60 l-60,0 z" fill="green"/>
<path d="M102,8477 l1201.5,-53" stroke="black" stroke-width="5"/>
<path d="M2595,625 l60,0 l0,60 l-60,0 z" fill="green"/>
<path d="M2625,655 l62.5,-35" stroke="black" stroke-width="5"/>
<path d="M9851,2522 l60,0 l0,60 l-60,0 z" fill="green"/>
<path d="M9881,2552 l-370,181.5" stroke="black" stroke-width="5"/>
<path d="M9335,4157 l60,0 l0,60 l-60,0 z" fill="green"/>
<path d="M9365,4187 l20,22" stroke="black" stroke-width="5"/>
<path d="M364,9475 l60,0 l0,60 l-60,0 z" fill="green"/>
<path d="M394,9505 l-125,-266" stroke="black" stroke-width="5"/>
<path d="M4888,6130 l60,0 l0,60 l-60,0 z" fill="green"/>
<path d="M4918,6160 l-85.5,-970" stroke="black" stroke-width="5"/>
<path d="M4733,1313 l60,0 l0,60 l-60,0 z" fill="green"/>
<path d="M4763,1343 l13.5,3.5" stroke="black" stroke-width="5"/>
<path d="M2512,4504 l60,0 l0,60 l-60,0 z" fill="green"/>
<path d="M2542,4534 l-73.5,150.5" stroke="black" stroke-width="5"/>
<path d="M5318,863 l60,0 l0,60 l-60,0 z" fill="green"/>
<path d="M5348,893 l22,49.5" stroke="black" stroke-width="5"/>
<path d="M730,9615 l60,0 l0,60 l-60,0 z" fill="green"/>
<path d="M760,9645 l1514,175" stroke="black" stroke-width="5"/>
<path d="M5336,8358 l60,0 l0,60 l-60,0 z" fill="green"/>
<path d="M5366,8388 l40.5,609" stroke="black" stroke-width="5"/>
<path d="M2773,1641 l60,0 l0,60 l-60,0 z" fill="green"/>
<path d="M2803,1671 l202,16" stroke="black" stroke-width="5"/>
<path d="M1011,4664 l60,0 l0,60 l-60,0 z" fill="green"/>
<path d="M1041,4694 l146.5,56.5" stroke="black" stroke-width="5"/>
<path d="M225,3016 l60,0 l0,60 l-60,0 z" fill="green"/>
<path d="M255,3046 l-45.5,50" stroke="black" stroke-width="5"/>
<path d="M4376,3706 l60,0 l0,60 l-60,0 z" fill="green"/>
<path d="M4406,3736 l-47.5,37" stroke="black" stroke-width="5"/>
<path d="M5216,19 l60,0 l0,60 l-60,0 z" fill="green"/>
<path d="M5246,49 l-399.5,258" stroke="black" stroke-width="5"/>
<path d="M2888,8360 l60,0 l0,60 l-60,0 z" fill="green"/>
<path d="M2918,8390 l287.5,461" stroke="black" stroke-width="5"/>
<path d="M3069,309 l60,0 l0,60 l-60,0 z" fill="green"/>
<path d="M3099,339 l-35.5,3" stroke="black" stroke-width="5"/>
<path d="M2282,5459 l60,0 l0,60 l-60,0 z" fill="green"/>
<path d="M2312,5489 l387,-151.5" stroke="black" stroke-width="5"/>
<path d="M5617,8399 l60,0 l0,60 l-60,0 z" fill="green"/>
<path d="M5647,8429 l192.5,87" stroke="black" stroke-width="5"/>
<path d="M7735,9320 l60,0 l0,60 l-60,0 z" fill="green"/>
<path d="M7765,9350 l-154,-283" stroke="black" stroke-width="5"/>
<path d="M1377,749 l60,0 l0,60 l-60,0 z" fill="green"/>
<path d="M1407,779 l-40,-3" stroke="black" stroke-width="5"/>
<path d="M9501,894 l60,0 l0,60 l-60,0 z" fill="green"/>
<path d="M9531,924 l230,668" stroke="black" stroke-width="5"/>
<path d="M5695,3999 l60,0 l0,60 l-60,0 z" fill="green"/>
<path d="M5725,4029 l-36,-329.5" stroke="black" stroke-width="5"/>
<path d="M551,9492 l60,0 l0,60 l-60,0 z" fill="green"/>
<path d="M581,9522 l55,-283" stroke="black" stroke-width="5"/>
<path d="M1882,3007 l60,0 l0,60 l-60,0 z" fill="green"/>
<path d="M1912,3037 l-402,8" stroke="black" stroke-width="5"/>
<path d="M1176,6557 l60,0 l0,60 l-60,0 z" fill="green"/>
<path d="M1206,6587 l5.5,69" stroke="black" stroke-width="5"/>
<path d="M854,9419 l60,0 l0,60 l-60,0 z" fill="green"/>
<path d="M884,9449 l82.5,-347" stroke="black" stroke-width="5"/>
<path d="M2054,7828 l60,0 l0,60 l-60,0 z" fill="green"/>
<path d="M2084,7858 l-347.5,-47" stroke="black" stroke-width="5"/>
<path d="M7823,574 l60,0 l0,60 l-60,0 z" fill="green"/>
<path d="M7853,604 l27,4.5" stroke="black" stroke-width="5"/>
<path d="M7906,9642 l60,0 l0,60 l-60,0 z" fill="green"/>
<path d="M7936,9672 l-40,63" stroke="black" stroke-width="5"/>
<path d="M3981,5746 l60,0 l0,60 l-60,0 z" fill="green"/>
<path d="M4011,5776 l221.5,-99.5" stroke="black" stroke-width="5"/>
<path d="M2551,4135 l60,0 l0,60 l-60,0 z" fill="green"/>
<path d="M2581,4165 l-50,-283" stroke="black" stroke-width="5"/>
<path d="M9431,865 l60,0 l0,60 l-60,0 z" fill="green"/>
<path d="M9461,895 l-117,-18.5" stroke="black" stroke-width="5"/>
<path d="M5461,7718 l60,0 l0,60 l-60,0 z" fill="green"/>
<path d="M5491,7748 l108.5,-10.5" stroke="black" stroke-width="5"/>
<path d="M5301,6930 l60,0 l0,60 l-60,0 z" fill="green"/>
<path d="M5331,6960 l248.5,54.5" stroke="black" stroke-width="5"/>
<path d="M6271,4106 l60,0 l0,60 l-60,0 z" fill="green"/>
<path d="M6301,4136 l401.5,133.5" stroke="black" stroke-width="5"/>
<path d="M9164,6084 l60,0 l0,60 l-60,0 z" fill="green"/>
<path d="M9194,6114 l113,-182.5" stroke="black" stroke-width="5"/>
<path d="M6987,5954 l60,0 l0,60 l-60,0 z" fill="green"/>
<path d="M7017,5984 l-60.5,140.5" stroke="black" stroke-width="5"/>
<path d="M4898,8334 l60,0 l0,60 l-60,0 z" fill="green"/>
<path d="M4928,8364 l-21.5,-31" stroke="black" stroke-width="5"/>
<path d="M445,2622 l60,0 l0,60 l-60,0 z" fill="green"/>
<path d="M475,2652 l77.5,-99" stroke="black" stroke-width="5"/>
<path d="M5089,6133 l60,0 l0,60 l-60,0 z" fill="green"/>
<path d="M5119,6163 l-27.5,-1599.5" stroke="black" stroke-width="5"/>
<path d="M5250,5928 l60,0 l0,60 l-60,0 z" fill="green"/>
<path d="M5280,5958 l257,-268" stroke="black" stroke-width="5"/>
<path d="M6273,8174 l60,0 l0,60 l-60,0 z" fill="green"/>
<path d="M6303,8204 l297.5,-10.5" stroke="black" stroke-width="5"/>
<path d="M3620,5449 l60,0 l0,60 l-60,0 z" fill="green"/>
<path d="M3650,5479 l-80.5,8.5" stroke="black" stroke-width="5"/>
<path d="M1771,4461 l60,0 l0,60 l-60,0 z" fill="green"/>
<path d="M1801,4491 l130.5,-3.5" stroke="black" stroke-width="5"/>
<path d="M3750,5529 l60,0 l0,60 l-60,0 z" fill="green"/>
<path d="M3780,5559 l101.5,-128.5" stroke="black" stroke-width="5"/>
<path d="M6633,1310 l60,0 l0,60 l-60,0 z" fill="green"/>
<path d="M6663,1340 l-42.5,5" stroke="black" stroke-width="5"/>
<path d="M5121,2052 l60,0 l0,60 l-60,0 z" fill="green"/>
<path d="M5151,2082 l-217,-146" stroke="black" stroke-width="5"/>
<path d="M9231,8403 l60,0 l0,60 l-60,0 z" fill="green"/>
<path d="M9261,8433 l60,126" stroke="black" stroke-width="5"/>
<path d="M473,2121 l60,0 l0,60 l-60,0 z" fill="green"/>
<path d="M503,2151 l37.5,-124" stroke="black" stroke-width="5"/>
<path d="M1727,3412 l60,0 l0,60 l-60,0 z" fill="green"/>
<path d="M1757,3442 l-228.5,236.5" stroke="black" stroke-width="5"/>
<path d="M2184,1308 l60,0 l0,60 l-60,0 z" fill="green"/>
<path d="M2214,1338 l13.5,40" stroke="black" stroke-width="5"/>
<path d="M6007,6445 l60,0 l0,60 l-60,0 z" fill="green"/>
<path d="M6037,6475 l170.5,156" stroke="black" stroke-width="5"/>
<path d="M3809,281 l60,0 l0,60 l-60,0 z" fill="green"/>
<path d="M3839,311 l-73.5,-54.5" stroke="black" stroke-width="5"/>
<path d="M9250,7907 l60,0 l0,60 l-60,0 z" fill="green"/>
<path d="M9280,7937 l156,-326" stroke="black" stroke-width="5"/>
<path d="M8401,2389 l60,0 l0,60 l-60,0 z" fill="green"/>
<path d="M8431,2419 l-221,-28.5" stroke="black" stroke-width="5"/>
<path d="M4585,659 l60,0 l0,60 l-60,0 z" fill="green"/>
<path d="M4615,689 l-14.5,52" stroke="black" stroke-width="5"/>
<path d="M5961,4335 l60,0 l0,60 l-60,0 z" fill="green"/>
<path d="M5991,4365 l-127,136.5" stroke="black" stroke-width="5"/>
<path d="M5217,663 l60,0 l0,60 l-60,0 z" fill="green"/>
<path d="M5247,693 l0.5,-19" stroke="black" stroke-width="5"/>
<path d="M9933,3696 l60,0 l0,60 l-60,0 z" fill="green"/>
<path d="M9963,3726 l-89,372" stroke="black" stroke-width="5"/>
<path d="M7840,3724 l60,0 l0,60 l-60,0 z" fill="green"/>
<path d="M7870,3754 l703,-133" stroke="black" stroke-width="5"/>
<path d="M5442,3222 l60,0 l0,60 l-60,0 z" fill="green"/>
<path d="M5472,3252 l-37.5,-211.5" stroke="black" stroke-width="5"/>
<path d="M6492,3396 l60,0 l0,60 l-60,0 z" fill="green"/>
<path d="M6522,3426 l-98,-161" stroke="black" stroke-width="5"/>
<path d="M6117,640 l60,0 l0,60 l-60,0 z" fill="green"/>
<path d="M6147,670 l197,-213.5" stroke="black" stroke-width="5"/>
<path d="M2277,8814 l60,0 l0,60 l-60,0 z" fill="green"/>
<path d="M2307,8844 l-405,215" stroke="black" stroke-width="5"/>
<path d="M3986,9446 l60,0 l0,60 l-60,0 z" fill="green"/>
<path d="M4016,9476 l15.5,32.5" stroke="black" stroke-width="5"/>
<path d="M2123,5747 l60,0 l0,60 l-60,0 z" fill="green"/>
<path d="M2153,5777 l-104,-50" stroke="black" stroke-width="5"/>
<path d="M716,763 l60,0 l0,60 l-60,0 z" fill="green"/>
<path d="M746,793 l27.5,21" stroke="black" stroke-width="5"/>
<path d="M8281,9792 l60,0 l0,60 l-60,0 z" fill="green"/>
<path d="M8311,9822 l49,87.5" stroke="black" stroke-width="5"/>
<path d="M1481,1598 l60,0 l0,60 l-60,0 z" fill="green"/>
<path d="M1511,1628 l-147,-24.5" stroke="black" stroke-width="5"/>
<path d="M3885,6976 l60,0 l0,60 l-60,0 z" fill="green"/>
<path d="M3915,7006 l-77.5,60.5" stroke="black" stroke-width="5"/>
<path d="M2738,1820 l60,0 l0,60 l-60,0 z" fill="green"/>
<path d="M2768,1850 l-448.5,-8.5" stroke="black" stroke-width="5"/>
<path d="M622,7847 l60,0 l0,60 l-60,0 z" fill="green"/>
<path d="M652,7877 l12,19.5" stroke="black" stroke-width="5"/>
<path d="M4570,3483 l60,0 l0,60 l-60,0 z" fill="green"/>
<path d="M4600,3513 l59,-109" stroke="black" stroke-width="5"/>
<path d="M5928,5921 l60,0 l0,60 l-60,0 z" fill="green"/>
<path d="M5958,5951 l343,-43.5" stroke="black" stroke-width="5"/>
<path d="M1632,2657 l60,0 l0,60 l-60,0 z" fill="green"/>
<path d="M1662,2687 l-14.5,37" stroke="black" stroke-width="5"/>
<path d="M4963,6182 l60,0 l0,60 l-60,0 z" fill="green"/>
<path d="M4993,6212 l19,-1648.5" stroke="black" stroke-width="5"/>
<path d="M5459,6483 l60,0 l0,60 l-60,0 z" fill="green"/>
<path d="M5489,6513 l58,0.5" stroke="black" stroke-width="5"/>
<path d="M4426,5903 l60,0 l0,60 l-60,0 z" fill="green"/>
<path d="M4456,5933 l123,120.5" stroke="black" stroke-width="5"/>
<path d="M3647,3761 l60,0 l0,60 l-60,0 z" fill="green"/>
<path d="M3677,3791 l122,-118.5" stroke="black" stroke-width="5"/>
<path d="M4379,1333 l60,0 l0,60 l-60,0 z" fill="green"/>
<path d="M4409,1363 l-316.5,52" stroke="black" stroke-width="5"/>
<path d="M4634,2901 l60,0 l0,60 l-60,0 z" fill="green"/>
<path d="M4664,2931 l42.5,51.5" stroke="black" stroke-width="5"/>
<path d="M3344,3717 l60,0 l0,60 l-60,0 z" fill="green"/>
<path d="M3374,3747 l-281,130.5" stroke="black" stroke-width="5"/>
<path d="M3105,7399 l60,0 l0,60 l-60,0 z" fill="green"/>
<path d="M3135,7429 l428.5,236" stroke="black" stroke-width="5"/>
<path d="M-9,7684 l60,0 l0,60 l-60,0 z" fill="green"/>
<path d="M21,7714 l210.5,-172.5" stroke="black" stroke-width="5"/>
<path d="M1710,2162 l60,0 l0,60 l-60,0 z" fill="green"/>
<path d="M1740,2192 l214,132.5" stroke="black" stroke-width="5"/>
<path d="M3583,451 l60,0 l0,60 l-60,0 z" fill="green"/>
<path d="M3613,481 l-165,240.5" stroke="black" stroke-width="5"/>
<path d="M809,5434 l60,0 l0,60 l-60,0 z" fill="green"/>
<path d="M839,5464 l-7.5,118" stroke="black" stroke-width="5"/>
<path d="M8985,9084 l60,0 l0,60 l-60,0 z" fill="green"/>
<path d="M9015,9114 l177.5,81.5" stroke="black" stroke-width="5"/>
<path d="M3444,4268 l60,0 l0,60 l-60,0 z" fill="green"/>
<path d="M3474,4298 l-280.5,320.5" stroke="black" stroke-width="5"/>
<path d="M3181,7254 l60,0 l0,60 l-60,0 z" fill="green"/>
<path d="M3211,7284 l-26.5,-141.5" stroke="black" stroke-width="5"/>
<path d="M9967,371 l60,0 l0,60 l-60,0 z" fill="green"/>
<path d="M9997,401 l-265.5,61" stroke="black" stroke-width="5"/>
<path d="M7239,8521 l60,0 l0,60 l-60,0 z" fill="green"/>
<path d="M7269,8551 l408,-777" stroke="black" stroke-width="5"/>
<path d="M1630,5708 l60,0 l0,60 l-60,0 z" fill="green"/>
<path d="M1660,5738 l-203.5,150.5" stroke="black" stroke-width="5"/>
<path d="M7318,347 l60,0 l0,60 l-60,0 z" fill="green"/>
<path d="M7348,377 l-75.5,1658.5" stroke="black" stroke-width="5"/>
<path d="M8679,9009 l60,0 l0,60 l-60,0 z" fill="green"/>
<path d="M8709,9039 l-136,195" stroke="black" stroke-width="5"/>
<path d="M2671,1571 l60,0 l0,60 l-60,0 z" fill="green"/>
<path d="M2701,1601 l-121.5,-226" stroke="black" stroke-width="5"/>
<path d="M440,4224 l60,0 l0,60 l-60,0 z" fill="green"/>
<path d="M470,4254 l-138,-70.5" stroke="black" stroke-width="5"/>
<path d="M7107,373 l60,0 l0,60 l-60,0 z" fill="green"/>
<path d="M7137,403 l-18,-9" stroke="black" stroke-width="5"/>
<path d="M5141,6962 l60,0 l0,60 l-60,0 z" fill="green"/>
<path d="M5171,6992 l-303.5,144" stroke="black" stroke-width="5"/>
<path d="M5649,2274 l60,0 l0,60 l-60,0 z" fill="green"/>
<path d="M5679,2304 l24,-55" stroke="black" stroke-width="5"/>
<path d="M2289,5733 l60,0 l0,60 l-60,0 z" fill="green"/>
<path d="M2319,5763 l20,11" stroke="black" stroke-width="5"/>
<path d="M9454,6000 l60,0 l0,60 l-60,0 z" fill="green"/>
<path d="M9484,6030 l248,-28.5" stroke="black" stroke-width="5"/>
<text font-size="130.7440900921227" text-anchor="middle" x="4747" y="9367.760431532242">
0
</text>
<text font-size="130.7440900921227" text-anchor="middle" x="2947" y="8179.260431532243">
1
</text>
<text font-size="130.7440900921227" text-anchor="middle" x="8592" y="8020.260431532243">
2
</text>
<text font-size="130.7440900921227" text-anchor="middle" x="7342.5" y="6119.260431532243">
3
</text>
<text font-size="130.7440900921227" text-anchor="middle" x="6789" y="3390.260431532243">
4
</text>
<text font-size="130.7440900921227" text-anchor="middle" x="7814.5" y="6348.760431532243">
5
</text>
<text font-size="130.7440900921227" text-anchor="middle" x="8008" y="3087.260431532243">
6
</text>
<text font-size="130.7440900921227" text-anchor="middle" x="6529.5" y="5221.260431532243">
7
</text>
<text font-size="130.7440900921227" text-anchor="middle" x="5537" y="6264.760431532243">
8
</text>
<text font-size="130.7440900921227" text-anchor="middle" x="8816" y="5926.260431532243">
9
</text>
<text font-size="130.7440900921227" text-anchor="middle" x="7566" y="4544.260431532243">
10
</text>
<text font-size="130.7440900921227" text-anchor="middle" x="8460" y="1516.760431532243">
11
</text>
<text font-size="130.7440900921227" text-anchor="middle" x="3526.5" y="3083.260431532243">
12
</text>
<text font-size="130.7440900921227" text-anchor="middle" x="1303.5" y="8469.760431532242">
13
</text>
<text font-size="130.7440900921227" text-anchor="middle" x="2687.5" y="665.7604315322429">
14
</text>
<text font-size="130.7440900921227" text-anchor="middle" x="9511" y="2779.260431532243">
15
</text>
<text font-size="130.7440900921227" text-anchor="middle" x="9385" y="4254.760431532243">
16
</text>
<text font-size="130.7440900921227" text-anchor="middle" x="269" y="9284.760431532242">
17
</text>
<text font-size="130.7440900921227" text-anchor="middle" x="4832.5" y="5235.760431532243">
18
</text>
<text font-size="130.7440900921227" text-anchor="middle" x="4776.5" y="1392.260431532243">
19
</text>
<text font-size="130.7440900921227" text-anchor="middle" x="2468.5" y="4730.260431532243">
20
</text>
<text font-size="130.7440900921227" text-anchor="middle" x="5370" y="988.2604315322429">
21
</text>
<text font-size="130.7440900921227" text-anchor="middle" x="2274" y="9865.760431532242">
22
</text>
<text font-size="130.7440900921227" text-anchor="middle" x="5406.5" y="9042.760431532242">
23
</text>
<text font-size="130.7440900921227" text-anchor="middle" x="3005" y="1732.760431532243">
24
</text>
<text font-size="130.7440900921227" text-anchor="middle" x="1187.5" y="4796.260431532243">
25
</text>
<text font-size="130.7440900921227" text-anchor="middle" x="209.5" y="3141.760431532243">
26
</text>
<text font-size="130.7440900921227" text-anchor="middle" x="4358.5" y="3818.760431532243">
27
</text>
<text font-size="130.7440900921227" text-anchor="middle" x="4846.5" y="352.76043153224293">
28
</text>
<text font-size="130.7440900921227" text-anchor="middle" x="3205.5" y="8896.760431532242">
29
</text>
<text font-size="130.7440900921227" text-anchor="middle" x="3063.5" y="387.76043153224293">
30
</text>
<text font-size="130.7440900921227" text-anchor="middle" x="2699" y="5383.260431532243">
31
</text>
<text font-size="130.7440900921227" text-anchor="middle" x="5839.5" y="8561.760431532242">
32
</text>
<text font-size="130.7440900921227" text-anchor="middle" x="7611" y="9112.760431532242">
33
</text>
<text font-size="130.7440900921227" text-anchor="middle" x="1367" y="821.7604315322429">
34
</text>
<text font-size="130.7440900921227" text-anchor="middle" x="9761" y="1637.760431532243">
35
</text>
<text font-size="130.7440900921227" text-anchor="middle" x="5689" y="3745.260431532243">
36
</text>
<text font-size="130.7440900921227" text-anchor="middle" x="636" y="9284.760431532242">
37
</text>
<text font-size="130.7440900921227" text-anchor="middle" x="1510" y="3090.760431532243">
38
</text>
<text font-size="130.7440900921227" text-anchor="middle" x="1211.5" y="6701.760431532243">
39
</text>
<text font-size="130.7440900921227" text-anchor="middle" x="966.5" y="9147.760431532242">
40
</text>
<text font-size="130.7440900921227" text-anchor="middle" x="1736.5" y="7856.760431532243">
41
</text>
<text font-size="130.7440900921227" text-anchor="middle" x="7880" y="654.2604315322429">
42
</text>
<text font-size="130.7440900921227" text-anchor="middle" x="7896" y="9780.760431532242">
43
</text>
<text font-size="130.7440900921227" text-anchor="middle" x="4232.5" y="5722.260431532243">
44
</text>
<text font-size="130.7440900921227" text-anchor="middle" x="2531" y="3927.760431532243">
45
</text>
<text font-size="130.7440900921227" text-anchor="middle" x="9344" y="922.2604315322429">
46
</text>
<text font-size="130.7440900921227" text-anchor="middle" x="5599.5" y="7783.260431532243">
47
</text>
<text font-size="130.7440900921227" text-anchor="middle" x="5579.5" y="7060.260431532243">
48
</text>
<text font-size="130.7440900921227" text-anchor="middle" x="6702.5" y="4315.260431532243">
49
</text>
<text font-size="130.7440900921227" text-anchor="middle" x="9307" y="5977.260431532243">
50
</text>
<text font-size="130.7440900921227" text-anchor="middle" x="6956.5" y="6170.260431532243">
51
</text>
<text font-size="130.7440900921227" text-anchor="middle" x="4906.5" y="8378.760431532242">
52
</text>
<text font-size="130.7440900921227" text-anchor="middle" x="552.5" y="2598.760431532243">
53
</text>
<text font-size="130.7440900921227" text-anchor="middle" x="5091.5" y="4609.260431532243">
54
</text>
<text font-size="130.7440900921227" text-anchor="middle" x="5537" y="5735.760431532243">
55
</text>
<text font-size="130.7440900921227" text-anchor="middle" x="6600.5" y="8239.260431532242">
56
</text>
<text font-size="130.7440900921227" text-anchor="middle" x="3569.5" y="5533.260431532243">
57
</text>
<text font-size="130.7440900921227" text-anchor="middle" x="1931.5" y="4533.260431532243">
58
</text>
<text font-size="130.7440900921227" text-anchor="middle" x="3881.5" y="5476.260431532243">
59
</text>
<text font-size="130.7440900921227" text-anchor="middle" x="6620.5" y="1390.760431532243">
60
</text>
<text font-size="130.7440900921227" text-anchor="middle" x="4934" y="1981.760431532243">
61
</text>
<text font-size="130.7440900921227" text-anchor="middle" x="9321" y="8604.760431532242">
62
</text>
<text font-size="130.7440900921227" text-anchor="middle" x="540.5" y="2072.760431532243">
63
</text>
<text font-size="130.7440900921227" text-anchor="middle" x="1528.5" y="3724.260431532243">
64
</text>
<text font-size="130.7440900921227" text-anchor="middle" x="2227.5" y="1423.760431532243">
65
</text>
<text font-size="130.7440900921227" text-anchor="middle" x="6207.5" y="6676.760431532243">
66
</text>
<text font-size="130.7440900921227" text-anchor="middle" x="3765.5" y="302.26043153224293">
67
</text>
<text font-size="130.7440900921227" text-anchor="middle" x="9436" y="7656.760431532243">
68
</text>
<text font-size="130.7440900921227" text-anchor="middle" x="8210" y="2436.260431532243">
69
</text>
<text font-size="130.7440900921227" text-anchor="middle" x="4600.5" y="786.7604315322429">
70
</text>
<text font-size="130.7440900921227" text-anchor="middle" x="5864" y="4547.260431532243">
71
</text>
<text font-size="130.7440900921227" text-anchor="middle" x="5247.5" y="719.7604315322429">
72
</text>
<text font-size="130.7440900921227" text-anchor="middle" x="9874" y="4143.760431532243">
73
</text>
<text font-size="130.7440900921227" text-anchor="middle" x="8573" y="3666.760431532243">
74
</text>
<text font-size="130.7440900921227" text-anchor="middle" x="5434.5" y="3086.260431532243">
75
</text>
<text font-size="130.7440900921227" text-anchor="middle" x="6424" y="3310.760431532243">
76
</text>
<text font-size="130.7440900921227" text-anchor="middle" x="6344" y="502.26043153224293">
77
</text>
<text font-size="130.7440900921227" text-anchor="middle" x="1902" y="9104.760431532242">
78
</text>
<text font-size="130.7440900921227" text-anchor="middle" x="4031.5" y="9554.260431532242">
79
</text>
<text font-size="130.7440900921227" text-anchor="middle" x="2049" y="5772.760431532243">
80
</text>
<text font-size="130.7440900921227" text-anchor="middle" x="773.5" y="859.7604315322429">
81
</text>
<text font-size="130.7440900921227" text-anchor="middle" x="8360" y="9955.260431532242">
82
</text>
<text font-size="130.7440900921227" text-anchor="middle" x="1364" y="1649.260431532243">
83
</text>
<text font-size="130.7440900921227" text-anchor="middle" x="3837.5" y="7112.260431532243">
84
</text>
<text font-size="130.7440900921227" text-anchor="middle" x="2319.5" y="1887.260431532243">
85
</text>
<text font-size="130.7440900921227" text-anchor="middle" x="664" y="7942.260431532243">
86
</text>
<text font-size="130.7440900921227" text-anchor="middle" x="4659" y="3449.760431532243">
87
</text>
<text font-size="130.7440900921227" text-anchor="middle" x="6301" y="5953.260431532243">
88
</text>
<text font-size="130.7440900921227" text-anchor="middle" x="1647.5" y="2769.760431532243">
89
</text>
<text font-size="130.7440900921227" text-anchor="middle" x="5012" y="4609.260431532243">
90
</text>
<text font-size="130.7440900921227" text-anchor="middle" x="5547" y="6559.260431532243">
91
</text>
<text font-size="130.7440900921227" text-anchor="middle" x="4579" y="6099.260431532243">
92
</text>
<text font-size="130.7440900921227" text-anchor="middle" x="3799" y="3718.260431532243">
93
</text>
<text font-size="130.7440900921227" text-anchor="middle" x="4092.5" y="1460.760431532243">
94
</text>
<text font-size="130.7440900921227" text-anchor="middle" x="4706.5" y="3028.260431532243">
95
</text>
<text font-size="130.7440900921227" text-anchor="middle" x="3093" y="3923.260431532243">
96
</text>
<text font-size="130.7440900921227" text-anchor="middle" x="3563.5" y="7710.760431532243">
97
</text>
<text font-size="130.7440900921227" text-anchor="middle" x="231.5" y="7587.260431532243">
98
</text>
<text font-size="130.7440900921227" text-anchor="middle" x="1954" y="2370.260431532243">
99
</text>
<text font-size="130.7440900921227" text-anchor="middle" x="3448" y="767.2604315322429">
100
</text>
<text font-size="130.7440900921227" text-anchor="middle" x="831.5" y="5627.760431532243">
101
</text>
<text font-size="130.7440900921227" text-anchor="middle" x="9192.5" y="9241.260431532242">
102
</text>
<text font-size="130.7440900921227" text-anchor="middle" x="3193.5" y="4664.260431532243">
103
</text>
<text font-size="130.7440900921227" text-anchor="middle" x="3184.5" y="7188.260431532243">
104
</text>
<text font-size="130.7440900921227" text-anchor="middle" x="9731.5" y="507.76043153224293">
105
</text>
<text font-size="130.7440900921227" text-anchor="middle" x="7677" y="7819.760431532243">
106
</text>
<text font-size="130.7440900921227" text-anchor="middle" x="1456.5" y="5934.260431532243">
107
</text>
<text font-size="130.7440900921227" text-anchor="middle" x="7272.5" y="2081.260431532243">
108
</text>
<text font-size="130.7440900921227" text-anchor="middle" x="8573" y="9279.760431532242">
109
</text>
<text font-size="130.7440900921227" text-anchor="middle" x="2579.5" y="1420.760431532243">
110
</text>
<text font-size="130.7440900921227" text-anchor="middle" x="332" y="4229.260431532243">
111
</text>
<text font-size="130.7440900921227" text-anchor="middle" x="7119" y="439.76043153224293">
112
</text>
<text font-size="130.7440900921227" text-anchor="middle" x="4867.5" y="7181.760431532243">
113
</text>
<text font-size="130.7440900921227" text-anchor="middle" x="5703" y="2294.760431532243">
114
</text>
<text font-size="130.7440900921227" text-anchor="middle" x="2339" y="5819.760431532243">
115
</text>
<text font-size="130.7440900921227" text-anchor="middle" x="9732" y="6047.260431532243">
116
</text>
</svg>