<svg viewBox="-100 -100 10200 10200" xmlns="http://www.w3.org/2000/svg">
<path d="M0,0 l10000,0 l0,10000 l-10000,0 z" fill="white"/>
<path d="M6779,4337 l519,0 l0,913 l-519,0 z" fill="#fd00ff" stroke="black" stroke-width="5"/>
<path d="M8617,4837 l510,0 l0,689 l-510,0 z" fill="#fb00ff" stroke="black" stroke-width="5"/>
<path d="M6011,2507 l876,0 l0,623 l-876,0 z" fill="#fe00ff" stroke="black" stroke-width="5"/>
<path d="M656,4644 l839,0 l0,494 l-839,0 z" fill="#fe00ff" stroke="black" stroke-width="5"/>
<path d="M2785,4927 l978,0 l0,683 l-978,0 z" fill="#fe00ff" stroke="black" stroke-width="5"/>
<path d="M5824,7812 l743,0 l0,931 l-743,0 z" fill="#fe00ff" stroke="black" stroke-width="5"/>
<path d="M5393,6508 l1189,0 l0,987 l-1189,0 z" fill="#f600ff" stroke="black" stroke-width="5"/>
<path d="M3689,9402 l255,0 l0,598 l-255,0 z" fill="#0300ff" stroke="black" stroke-width="5"/>
<path d="M31,5343 l789,0 l0,745 l-789,0 z" fill="#fe00ff" stroke="black" stroke-width="5"/>
<path d="M4621,9009 l627,0 l0,911 l-627,0 z" fill="#fe00ff" stroke="black" stroke-width="5"/>
<path d="M4900,1042 l572,0 l0,476 l-572,0 z" fill="#fe00ff" stroke="black" stroke-width="5"/>
<path d="M3130,740 l922,0 l0,992 l-922,0 z" fill="#fe00ff" stroke="black" stroke-width="5"/>
<path d="M3851,4935 l895,0 l0,686 l-895,0 z" fill="#fe00ff" stroke="black" stroke-width="5"/>
<path d="M6898,1620 l1292,0 l0,484 l-1292,0 z" fill="#fd00ff" stroke="black" stroke-width="5"/>
<path d="M4669,5972 l212,0 l0,339 l-212,0 z" fill="#fe00ff" stroke="black" stroke-width="5"/>
<path d="M3998,3997 l881,0 l0,222 l-881,0 z" fill="#fe00ff" stroke="black" stroke-width="5"/>
<path d="M8759,7785 l509,0 l0,235 l-509,0 z" fill="#fe00ff" stroke="black" stroke-width="5"/>
<path d="M8190,1072 l446,0 l0,1032 l-446,0 z" fill="#0d00ff" stroke="black" stroke-width="5"/>
<path d="M9304,8719 l597,0 l0,589 l-597,0 z" fill="#fe00ff" stroke="black" stroke-width="5"/>
<path d="M5393,3432 l1386,0 l0,1414 l-1386,0 z" fill="#f600ff" stroke="black" stroke-width="5"/>
<path d="M0,8880 l2288,0 l0,340 l-2288,0 z" fill="#6500ff" stroke="black" stroke-width="5"/>
<path d="M5935,8902 l1799,0 l0,721 l-1799,0 z" fill="#fe00ff" stroke="black" stroke-width="5"/>
<path d="M7298,3098 l681,0 l0,1297 l-681,0 z" fill="#d800ff" stroke="black" stroke-width="5"/>
<path d="M2917,4834 l215,0 l0,93 l-215,0 z" fill="#fe00ff" stroke="black" stroke-width="5"/>
<path d="M9962,4837 l32,0 l0,491 l-32,0 z" fill="#fe00ff" stroke="black" stroke-width="5"/>
<path d="M7298,4395 l1319,0 l0,807 l-1319,0 z" fill="#9d00ff" stroke="black" stroke-width="5"/>
<path d="M9558,2173 l417,0 l0,796 l-417,0 z" fill="#fe00ff" stroke="black" stroke-width="5"/>
<path d="M134,661 l483,0 l0,337 l-483,0 z" fill="#fe00ff" stroke="black" stroke-width="5"/>
<path d="M4641,1275 l248,0 l0,2722 l-248,0 z" fill="#8500ff" stroke="black" stroke-width="5"/>
<path d="M5393,4846 l1383,0 l0,1662 l-1383,0 z" fill="#d700ff" stroke="black" stroke-width="5"/>
<path d="M11,8479 l3354,0 l0,401 l-3354,0 z" fill="#fe00ff" stroke="black" stroke-width="5"/>
<path d="M8457,6333 l1185,0 l0,1452 l-1185,0 z" fill="#e700ff" stroke="black" stroke-width="5"/>
<path d="M3365,8268 l324,0 l0,1732 l-324,0 z" fill="#9e00ff" stroke="black" stroke-width="5"/>
<path d="M4277,6686 l1116,0 l0,809 l-1116,0 z" fill="#fb00ff" stroke="black" stroke-width="5"/>
<path d="M8636,1329 l223,0 l0,490 l-223,0 z" fill="#fe00ff" stroke="black" stroke-width="5"/>
<path d="M3714,8181 l1952,0 l0,139 l-1952,0 z" fill="#fe00ff" stroke="black" stroke-width="5"/>
<path d="M7291,2689 l1069,0 l0,292 l-1069,0 z" fill="#ef00ff" stroke="black" stroke-width="5"/>
<path d="M4253,1275 l388,0 l0,2722 l-388,0 z" fill="#4000ff" stroke="black" stroke-width="5"/>
<path d="M8238,6785 l46,0 l0,58 l-46,0 z" fill="#fe00ff" stroke="black" stroke-width="5"/>
<path d="M8211,6843 l246,0 l0,2055 l-246,0 z" fill="#fe00ff" stroke="black" stroke-width="5"/>
<path d="M3944,9402 l602,0 l0,598 l-602,0 z" fill="#fe00ff" stroke="black" stroke-width="5"/>
<path d="M2545,2858 l946,0 l0,452 l-946,0 z" fill="#fe00ff" stroke="black" stroke-width="5"/>
<path d="M8211,5526 l1789,0 l0,807 l-1789,0 z" fill="#fa00ff" stroke="black" stroke-width="5"/>
<path d="M6776,5250 l835,0 l0,1984 l-835,0 z" fill="#f800ff" stroke="black" stroke-width="5"/>
<path d="M824,7804 l151,0 l0,173 l-151,0 z" fill="#fe00ff" stroke="black" stroke-width="5"/>
<path d="M7272,7431 l444,0 l0,447 l-444,0 z" fill="#fe00ff" stroke="black" stroke-width="5"/>
<path d="M7611,5661 l600,0 l0,1770 l-600,0 z" fill="#6000ff" stroke="black" stroke-width="5"/>
<path d="M6183,14 l792,0 l0,682 l-792,0 z" fill="#fe00ff" stroke="black" stroke-width="5"/>
<path d="M1336,5138 l1431,0 l0,2089 l-1431,0 z" fill="#fe00ff" stroke="black" stroke-width="5"/>
<path d="M1266,3420 l551,0 l0,954 l-551,0 z" fill="#fe00ff" stroke="black" stroke-width="5"/>
<path d="M316,4554 l296,0 l0,378 l-296,0 z" fill="#fe00ff" stroke="black" stroke-width="5"/>
<path d="M3253,66 l949,0 l0,674 l-949,0 z" fill="#4100ff" stroke="black" stroke-width="5"/>
<path d="M3352,0 l850,0 l0,66 l-850,0 z" fill="#fe00ff" stroke="black" stroke-width="5"/>
<path d="M2745,7266 l969,0 l0,1002 l-969,0 z" fill="#8300ff" stroke="black" stroke-width="5"/>
<path d="M28,1927 l412,0 l0,900 l-412,0 z" fill="#fe00ff" stroke="black" stroke-width="5"/>
<path d="M0,1015 l740,0 l0,514 l-740,0 z" fill="#fe00ff" stroke="black" stroke-width="5"/>
<path d="M4900,0 l669,0 l0,351 l-669,0 z" fill="#0200ff" stroke="black" stroke-width="5"/>
<path d="M649,4411 l404,0 l0,212 l-404,0 z" fill="#fe00ff" stroke="black" stroke-width="5"/>
<path d="M3689,8320 l932,0 l0,1082 l-932,0 z" fill="#da00ff" stroke="black" stroke-width="5"/>
<path d="M4001,7062 l264,0 l0,150 l-264,0 z" fill="#fe00ff" stroke="black" stroke-width="5"/>
<path d="M8617,4146 l1383,0 l0,691 l-1383,0 z" fill="#7500ff" stroke="black" stroke-width="5"/>
<path d="M1133,5159 l193,0 l0,270 l-193,0 z" fill="#fe00ff" stroke="black" stroke-width="5"/>
<path d="M2774,1732 l1479,0 l0,1126 l-1479,0 z" fill="#c700ff" stroke="black" stroke-width="5"/>
<path d="M7291,2104 l1069,0 l0,585 l-1069,0 z" fill="#9100ff" stroke="black" stroke-width="5"/>
<path d="M9127,4837 l835,0 l0,689 l-835,0 z" fill="#2300ff" stroke="black" stroke-width="5"/>
<path d="M2305,20 l948,0 l0,712 l-948,0 z" fill="#fe00ff" stroke="black" stroke-width="5"/>
<path d="M2288,8880 l1077,0 l0,340 l-1077,0 z" fill="#4300ff" stroke="black" stroke-width="5"/>
<path d="M3382,4223 l1507,0 l0,682 l-1507,0 z" fill="#fe00ff" stroke="black" stroke-width="5"/>
<path d="M8534,3033 l1466,0 l0,1113 l-1466,0 z" fill="#8800ff" stroke="black" stroke-width="5"/>
<path d="M5569,0 l614,0 l0,1572 l-614,0 z" fill="#bc00ff" stroke="black" stroke-width="5"/>
<path d="M2921,6505 l747,0 l0,761 l-747,0 z" fill="#fe00ff" stroke="black" stroke-width="5"/>
<path d="M821,3825 l360,0 l0,359 l-360,0 z" fill="#fe00ff" stroke="black" stroke-width="5"/>
<path d="M7611,5202 l600,0 l0,459 l-600,0 z" fill="#fb00ff" stroke="black" stroke-width="5"/>
<path d="M4052,818 l848,0 l0,457 l-848,0 z" fill="#f900ff" stroke="black" stroke-width="5"/>
<path d="M4900,351 l669,0 l0,691 l-669,0 z" fill="#f300ff" stroke="black" stroke-width="5"/>
<path d="M3978,7495 l1846,0 l0,684 l-1846,0 z" fill="#fe00ff" stroke="black" stroke-width="5"/>
<path d="M2215,8292 l398,0 l0,173 l-398,0 z" fill="#fe00ff" stroke="black" stroke-width="5"/>
<path d="M6898,2104 l393,0 l0,2233 l-393,0 z" fill="#e900ff" stroke="black" stroke-width="5"/>
<path d="M5916,1626 l982,0 l0,881 l-982,0 z" fill="#fc00ff" stroke="black" stroke-width="5"/>
<path d="M4202,0 l698,0 l0,818 l-698,0 z" fill="#e800ff" stroke="black" stroke-width="5"/>
<path d="M6183,696 l581,0 l0,930 l-581,0 z" fill="#f700ff" stroke="black" stroke-width="5"/>
<path d="M5087,8739 l117,0 l0,236 l-117,0 z" fill="#fe00ff" stroke="black" stroke-width="5"/>
<path d="M504,1529 l963,0 l0,549 l-963,0 z" fill="#fe00ff" stroke="black" stroke-width="5"/>
<path d="M3714,7056 l255,0 l0,713 l-255,0 z" fill="#fe00ff" stroke="black" stroke-width="5"/>
<path d="M7371,263 l1547,0 l0,809 l-1547,0 z" fill="#fe00ff" stroke="black" stroke-width="5"/>
<path d="M460,2107 l507,0 l0,576 l-507,0 z" fill="#fe00ff" stroke="black" stroke-width="5"/>
<path d="M4889,2630 l504,0 l0,4056 l-504,0 z" fill="#cd00ff" stroke="black" stroke-width="5"/>
<path d="M9642,7276 l113,0 l0,302 l-113,0 z" fill="#fe00ff" stroke="black" stroke-width="5"/>
<path d="M1963,9220 l1331,0 l0,583 l-1331,0 z" fill="#fe00ff" stroke="black" stroke-width="5"/>
<path d="M1704,7228 l1041,0 l0,1064 l-1041,0 z" fill="#fe00ff" stroke="black" stroke-width="5"/>
<path d="M4889,1572 l1027,0 l0,1058 l-1027,0 z" fill="#fc00ff" stroke="black" stroke-width="5"/>
<path d="M8360,2125 l1198,0 l0,908 l-1198,0 z" fill="#fe00ff" stroke="black" stroke-width="5"/>
<path d="M6582,7234 l646,0 l0,1667 l-646,0 z" fill="#fe00ff" stroke="black" stroke-width="5"/>
<path d="M7979,3098 l555,0 l0,1297 l-555,0 z" fill="#1800ff" stroke="black" stroke-width="5"/>
<path d="M6237,3135 l601,0 l0,297 l-601,0 z" fill="#fe00ff" stroke="black" stroke-width="5"/>
<path d="M7291,2981 l1069,0 l0,117 l-1069,0 z" fill="#0100ff" stroke="black" stroke-width="5"/>
<path d="M2270,2020 l504,0 l0,813 l-504,0 z" fill="#fe00ff" stroke="black" stroke-width="5"/>
<path d="M3668,5625 l609,0 l0,1431 l-609,0 z" fill="#fe00ff" stroke="black" stroke-width="5"/>
<path d="M6764,1072 l1426,0 l0,548 l-1426,0 z" fill="#4400ff" stroke="black" stroke-width="5"/>
<path d="M7074,4768 l60,0 l0,60 l-60,0 z" fill="green"/>
<path d="M7104,4798 l-65.5,-4.5" stroke="black" stroke-width="5"/>
<path d="M8973,5341 l60,0 l0,60 l-60,0 z" fill="green"/>
<path d="M9003,5371 l-131,-189.5" stroke="black" stroke-width="5"/>
<path d="M6517,3010 l60,0 l0,60 l-60,0 z" fill="green"/>
<path d="M6547,3040 l-98,-221.5" stroke="black" stroke-width="5"/>
<path d="M798,4622 l60,0 l0,60 l-60,0 z" fill="green"/>
<path d="M828,4652 l247.5,239" stroke="black" stroke-width="5"/>
<path d="M3123,5071 l60,0 l0,60 l-60,0 z" fill="green"/>
<path d="M3153,5101 l121,167.5" stroke="black" stroke-width="5"/>
<path d="M6155,8241 l60,0 l0,60 l-60,0 z" fill="green"/>
<path d="M6185,8271 l10.5,6.5" stroke="black" stroke-width="5"/>
<path d="M5726,6935 l60,0 l0,60 l-60,0 z" fill="green"/>
<path d="M5756,6965 l231.5,36.5" stroke="black" stroke-width="5"/>
<path d="M3773,9855 l60,0 l0,60 l-60,0 z" fill="green"/>
<path d="M3803,9885 l13.5,-184" stroke="black" stroke-width="5"/>
<path d="M411,5713 l60,0 l0,60 l-60,0 z" fill="green"/>
<path d="M441,5743 l-15.5,-27.5" stroke="black" stroke-width="5"/>
<path d="M4738,9422 l60,0 l0,60 l-60,0 z" fill="green"/>
<path d="M4768,9452 l166.5,12.5" stroke="black" stroke-width="5"/>
<path d="M5098,1055 l60,0 l0,60 l-60,0 z" fill="green"/>
<path d="M5128,1085 l58,195" stroke="black" stroke-width="5"/>
<path d="M4021,968 l60,0 l0,60 l-60,0 z" fill="green"/>
<path d="M4051,998 l-460,238" stroke="black" stroke-width="5"/>
<path d="M4313,5315 l60,0 l0,60 l-60,0 z" fill="green"/>
<path d="M4343,5345 l-44.5,-67" stroke="black" stroke-width="5"/>
<path d="M7564,1733 l60,0 l0,60 l-60,0 z" fill="green"/>
<path d="M7594,1763 l-50,99" stroke="black" stroke-width="5"/>
<path d="M4799,6108 l60,0 l0,60 l-60,0 z" fill="green"/>
<path d="M4829,6138 l-54,3.5" stroke="black" stroke-width="5"/>
<path d="M4503,3973 l60,0 l0,60 l-60,0 z" fill="green"/>
<path d="M4533,4003 l-94.5,105" stroke="black" stroke-width="5"/>
<path d="M8975,7758 l60,0 l0,60 l-60,0 z" fill="green"/>
<path d="M9005,7788 l8.5,114.5" stroke="black" stroke-width="5"/>
<path d="M8173,1152 l60,0 l0,60 l-60,0 z" fill="green"/>
<path d="M8203,1182 l210,406" stroke="black" stroke-width="5"/>
<path d="M9609,8953 l60,0 l0,60 l-60,0 z" fill="green"/>
<path d="M9639,8983 l-36.5,30.5" stroke="black" stroke-width="5"/>
<path d="M6322,4251 l60,0 l0,60 l-60,0 z" fill="green"/>
<path d="M6352,4281 l-266,-142" stroke="black" stroke-width="5"/>
<path d="M2254,8969 l60,0 l0,60 l-60,0 z" fill="green"/>
<path d="M2284,8999 l-1140,51" stroke="black" stroke-width="5"/>
<path d="M6855,8880 l60,0 l0,60 l-60,0 z" fill="green"/>
<path d="M6885,8910 l-50.5,352.5" stroke="black" stroke-width="5"/>
<path d="M7608,3382 l60,0 l0,60 l-60,0 z" fill="green"/>
<path d="M7638,3412 l0.5,334.5" stroke="black" stroke-width="5"/>
<path d="M3042,4826 l60,0 l0,60 l-60,0 z" fill="green"/>
<path d="M3072,4856 l-47.5,24.5" stroke="black" stroke-width="5"/>
<path d="M9953,4941 l60,0 l0,60 l-60,0 z" fill="green"/>
<path d="M9983,4971 l-5,111.5" stroke="black" stroke-width="5"/>
<path d="M7773,4365 l60,0 l0,60 l-60,0 z" fill="green"/>
<path d="M7803,4395 l154.5,403.5" stroke="black" stroke-width="5"/>
<path d="M9926,2582 l60,0 l0,60 l-60,0 z" fill="green"/>
<path d="M9956,2612 l-189.5,-41" stroke="black" stroke-width="5"/>
<path d="M330,728 l60,0 l0,60 l-60,0 z" fill="green"/>
<path d="M360,758 l15.5,71.5" stroke="black" stroke-width="5"/>
<path d="M4838,1316 l60,0 l0,60 l-60,0 z" fill="green"/>
<path d="M4868,1346 l-103,1290" stroke="black" stroke-width="5"/>
<path d="M5932,6429 l60,0 l0,60 l-60,0 z" fill="green"/>
<path d="M5962,6459 l122.5,-782" stroke="black" stroke-width="5"/>
<path d="M2849,8849 l60,0 l0,60 l-60,0 z" fill="green"/>
<path d="M2879,8879 l-1191,-199.5" stroke="black" stroke-width="5"/>
<path d="M9220,7283 l60,0 l0,60 l-60,0 z" fill="green"/>
<path d="M9250,7313 l-200.5,-254" stroke="black" stroke-width="5"/>
<path d="M3428,9785 l60,0 l0,60 l-60,0 z" fill="green"/>
<path d="M3458,9815 l69,-681" stroke="black" stroke-width="5"/>
<path d="M4893,7353 l60,0 l0,60 l-60,0 z" fill="green"/>
<path d="M4923,7383 l-88,-292.5" stroke="black" stroke-width="5"/>
<path d="M8612,1514 l60,0 l0,60 l-60,0 z" fill="green"/>
<path d="M8642,1544 l105.5,30" stroke="black" stroke-width="5"/>
<path d="M4220,8288 l60,0 l0,60 l-60,0 z" fill="green"/>
<path d="M4250,8318 l440,-67.5" stroke="black" stroke-width="5"/>
<path d="M7771,2733 l60,0 l0,60 l-60,0 z" fill="green"/>
<path d="M7801,2763 l24.5,72" stroke="black" stroke-width="5"/>
<path d="M4602,2531 l60,0 l0,60 l-60,0 z" fill="green"/>
<path d="M4632,2561 l-185,75" stroke="black" stroke-width="5"/>
<path d="M8209,6777 l60,0 l0,60 l-60,0 z" fill="green"/>
<path d="M8239,6807 l22,7" stroke="black" stroke-width="5"/>
<path d="M8419,7435 l60,0 l0,60 l-60,0 z" fill="green"/>
<path d="M8449,7465 l-115,405.5" stroke="black" stroke-width="5"/>
<path d="M3916,9841 l60,0 l0,60 l-60,0 z" fill="green"/>
<path d="M3946,9871 l299,-170" stroke="black" stroke-width="5"/>
<path d="M3039,2829 l60,0 l0,60 l-60,0 z" fill="green"/>
<path d="M3069,2859 l-51,225" stroke="black" stroke-width="5"/>
<path d="M9024,5497 l60,0 l0,60 l-60,0 z" fill="green"/>
<path d="M9054,5527 l51.5,402.5" stroke="black" stroke-width="5"/>
<path d="M7580,5413 l60,0 l0,60 l-60,0 z" fill="green"/>
<path d="M7610,5443 l-416.5,799" stroke="black" stroke-width="5"/>
<path d="M865,7903 l60,0 l0,60 l-60,0 z" fill="green"/>
<path d="M895,7933 l4.5,-42.5" stroke="black" stroke-width="5"/>
<path d="M7434,7464 l60,0 l0,60 l-60,0 z" fill="green"/>
<path d="M7464,7494 l30,160.5" stroke="black" stroke-width="5"/>
<path d="M7703,6973 l60,0 l0,60 l-60,0 z" fill="green"/>
<path d="M7733,7003 l178,-457" stroke="black" stroke-width="5"/>
<path d="M6403,350 l60,0 l0,60 l-60,0 z" fill="green"/>
<path d="M6433,380 l146,-25" stroke="black" stroke-width="5"/>
<path d="M2121,5905 l60,0 l0,60 l-60,0 z" fill="green"/>
<path d="M2151,5935 l-99.5,247.5" stroke="black" stroke-width="5"/>
<path d="M1274,3935 l60,0 l0,60 l-60,0 z" fill="green"/>
<path d="M1304,3965 l237.5,-68" stroke="black" stroke-width="5"/>
<path d="M453,4644 l60,0 l0,60 l-60,0 z" fill="green"/>
<path d="M483,4674 l-19,69" stroke="black" stroke-width="5"/>
<path d="M3924,379 l60,0 l0,60 l-60,0 z" fill="green"/>
<path d="M3954,409 l-226.5,-6" stroke="black" stroke-width="5"/>
<path d="M4056,29 l60,0 l0,60 l-60,0 z" fill="green"/>
<path d="M4086,59 l-309,-26" stroke="black" stroke-width="5"/>
<path d="M3681,7305 l60,0 l0,60 l-60,0 z" fill="green"/>
<path d="M3711,7335 l-481.5,432" stroke="black" stroke-width="5"/>
<path d="M133,2298 l60,0 l0,60 l-60,0 z" fill="green"/>
<path d="M163,2328 l71,49" stroke="black" stroke-width="5"/>
<path d="M190,1041 l60,0 l0,60 l-60,0 z" fill="green"/>
<path d="M220,1071 l150,201" stroke="black" stroke-width="5"/>
<path d="M5207,79 l60,0 l0,60 l-60,0 z" fill="green"/>
<path d="M5237,109 l-2.5,66.5" stroke="black" stroke-width="5"/>
<path d="M806,4542 l60,0 l0,60 l-60,0 z" fill="green"/>
<path d="M836,4572 l15,-55" stroke="black" stroke-width="5"/>
<path d="M3867,8705 l60,0 l0,60 l-60,0 z" fill="green"/>
<path d="M3897,8735 l258,126" stroke="black" stroke-width="5"/>
<path d="M4118,7055 l60,0 l0,60 l-60,0 z" fill="green"/>
<path d="M4148,7085 l-15,52" stroke="black" stroke-width="5"/>
<path d="M9697,4547 l60,0 l0,60 l-60,0 z" fill="green"/>
<path d="M9727,4577 l-418.5,-85.5" stroke="black" stroke-width="5"/>
<path d="M1278,5262 l60,0 l0,60 l-60,0 z" fill="green"/>
<path d="M1308,5292 l-78.5,2" stroke="black" stroke-width="5"/>
<path d="M3799,2055 l60,0 l0,60 l-60,0 z" fill="green"/>
<path d="M3829,2085 l-315.5,210" stroke="black" stroke-width="5"/>
<path d="M7739,2246 l60,0 l0,60 l-60,0 z" fill="green"/>
<path d="M7769,2276 l56.5,120.5" stroke="black" stroke-width="5"/>
<path d="M9591,5106 l60,0 l0,60 l-60,0 z" fill="green"/>
<path d="M9621,5136 l-76.5,45.5" stroke="black" stroke-width="5"/>
<path d="M3221,155 l60,0 l0,60 l-60,0 z" fill="green"/>
<path d="M3251,185 l-472,191" stroke="black" stroke-width="5"/>
<path d="M2656,9105 l60,0 l0,60 l-60,0 z" fill="green"/>
<path d="M2686,9135 l140.5,-85" stroke="black" stroke-width="5"/>
<path d="M4320,4527 l60,0 l0,60 l-60,0 z" fill="green"/>
<path d="M4350,4557 l-214.5,7" stroke="black" stroke-width="5"/>
<path d="M9567,4094 l60,0 l0,60 l-60,0 z" fill="green"/>
<path d="M9597,4124 l-330,-534.5" stroke="black" stroke-width="5"/>
<path d="M5722,749 l60,0 l0,60 l-60,0 z" fill="green"/>
<path d="M5752,779 l124,7" stroke="black" stroke-width="5"/>
<path d="M3636,7229 l60,0 l0,60 l-60,0 z" fill="green"/>
<path d="M3666,7259 l-371.5,-373.5" stroke="black" stroke-width="5"/>
<path d="M1038,3967 l60,0 l0,60 l-60,0 z" fill="green"/>
<path d="M1068,3997 l-67,7.5" stroke="black" stroke-width="5"/>
<path d="M7647,5380 l60,0 l0,60 l-60,0 z" fill="green"/>
<path d="M7677,5410 l234,21.5" stroke="black" stroke-width="5"/>
<path d="M4341,1006 l60,0 l0,60 l-60,0 z" fill="green"/>
<path d="M4371,1036 l105,10.5" stroke="black" stroke-width="5"/>
<path d="M5146,519 l60,0 l0,60 l-60,0 z" fill="green"/>
<path d="M5176,549 l58.5,147.5" stroke="black" stroke-width="5"/>
<path d="M4795,7465 l60,0 l0,60 l-60,0 z" fill="green"/>
<path d="M4825,7495 l76,342" stroke="black" stroke-width="5"/>
<path d="M2401,8391 l60,0 l0,60 l-60,0 z" fill="green"/>
<path d="M2431,8421 l-17,-42.5" stroke="black" stroke-width="5"/>
<path d="M7119,2309 l60,0 l0,60 l-60,0 z" fill="green"/>
<path d="M7149,2339 l-54.5,881.5" stroke="black" stroke-width="5"/>
<path d="M6343,1698 l60,0 l0,60 l-60,0 z" fill="green"/>
<path d="M6373,1728 l34,338.5" stroke="black" stroke-width="5"/>
<path d="M4343,-13 l60,0 l0,60 l-60,0 z" fill="green"/>
<path d="M4373,17 l178,392" stroke="black" stroke-width="5"/>
<path d="M6704,1192 l60,0 l0,60 l-60,0 z" fill="green"/>
<path d="M6734,1222 l-260.5,-61" stroke="black" stroke-width="5"/>
<path d="M5166,8785 l60,0 l0,60 l-60,0 z" fill="green"/>
<path d="M5196,8815 l-50.5,42" stroke="black" stroke-width="5"/>
<path d="M843,1750 l60,0 l0,60 l-60,0 z" fill="green"/>
<path d="M873,1780 l112.5,23.5" stroke="black" stroke-width="5"/>
<path d="M3696,7293 l60,0 l0,60 l-60,0 z" fill="green"/>
<path d="M3726,7323 l115.5,89.5" stroke="black" stroke-width="5"/>
<path d="M8070,1029 l60,0 l0,60 l-60,0 z" fill="green"/>
<path d="M8100,1059 l44.5,-391.5" stroke="black" stroke-width="5"/>
<path d="M727,2314 l60,0 l0,60 l-60,0 z" fill="green"/>
<path d="M757,2344 l-43.5,51" stroke="black" stroke-width="5"/>
<path d="M5362,4613 l60,0 l0,60 l-60,0 z" fill="green"/>
<path d="M5392,4643 l-251,15" stroke="black" stroke-width="5"/>
<path d="M9614,7419 l60,0 l0,60 l-60,0 z" fill="green"/>
<path d="M9644,7449 l54.5,-22" stroke="black" stroke-width="5"/>
<path d="M2673,9190 l60,0 l0,60 l-60,0 z" fill="green"/>
<path d="M2703,9220 l-74.5,291.5" stroke="black" stroke-width="5"/>
<path d="M2504,7647 l60,0 l0,60 l-60,0 z" fill="green"/>
<path d="M2534,7677 l-309.5,83" stroke="black" stroke-width="5"/>
<path d="M5386,1543 l60,0 l0,60 l-60,0 z" fill="green"/>
<path d="M5416,1573 l-13.5,528" stroke="black" stroke-width="5"/>
<path d="M8330,2632 l60,0 l0,60 l-60,0 z" fill="green"/>
<path d="M8360,2662 l599,-83" stroke="black" stroke-width="5"/>
<path d="M6552,8159 l60,0 l0,60 l-60,0 z" fill="green"/>
<path d="M6582,8189 l323,-121.5" stroke="black" stroke-width="5"/>
<path d="M8323,3617 l60,0 l0,60 l-60,0 z" fill="green"/>
<path d="M8353,3647 l-96.5,99.5" stroke="black" stroke-width="5"/>
<path d="M6537,3398 l60,0 l0,60 l-60,0 z" fill="green"/>
<path d="M6567,3428 l-29.5,-144.5" stroke="black" stroke-width="5"/>
<path d="M7523,3059 l60,0 l0,60 l-60,0 z" fill="green"/>
<path d="M7553,3089 l272.5,-49.5" stroke="black" stroke-width="5"/>
<path d="M2740,2462 l60,0 l0,60 l-60,0 z" fill="green"/>
<path d="M2770,2492 l-248,-65.5" stroke="black" stroke-width="5"/>
<path d="M3814,6940 l60,0 l0,60 l-60,0 z" fill="green"/>
<path d="M3844,6970 l128.5,-629.5" stroke="black" stroke-width="5"/>
<path d="M7690,1428 l60,0 l0,60 l-60,0 z" fill="green"/>
<path d="M7720,1458 l-243,-112" stroke="black" stroke-width="5"/>
<text font-size="142.13381090374028" text-anchor="middle" x="7038.5" y="4843.246833816309">
0
</text>
<text font-size="142.13381090374028" text-anchor="middle" x="8872" y="5231.246833816309">
1
</text>
<text font-size="142.13381090374028" text-anchor="middle" x="6449" y="2868.246833816309">
2
</text>
<text font-size="142.13381090374028" text-anchor="middle" x="1075.5" y="4940.746833816309">
3
</text>
<text font-size="142.13381090374028" text-anchor="middle" x="3274" y="5318.246833816309">
4
</text>
<text font-size="142.13381090374028" text-anchor="middle" x="6195.5" y="8327.246833816309">
5
</text>
<text font-size="142.13381090374028" text-anchor="middle" x="5987.5" y="7051.246833816309">
6
</text>
<text font-size="142.13381090374028" text-anchor="middle" x="3816.5" y="9750.746833816309">
7
</text>
<text font-size="142.13381090374028" text-anchor="middle" x="425.5" y="5765.246833816309">
8
</text>
<text font-size="142.13381090374028" text-anchor="middle" x="4934.5" y="9514.246833816309">
9
</text>
<text font-size="142.13381090374028" text-anchor="middle" x="5186" y="1329.7468338163092">
10
</text>
<text font-size="142.13381090374028" text-anchor="middle" x="3591" y="1285.7468338163092">
11
</text>
<text font-size="142.13381090374028" text-anchor="middle" x="4298.5" y="5327.746833816309">
12
</text>
<text font-size="142.13381090374028" text-anchor="middle" x="7544" y="1911.7468338163092">
13
</text>
<text font-size="142.13381090374028" text-anchor="middle" x="4775" y="6191.246833816309">
14
</text>
<text font-size="142.13381090374028" text-anchor="middle" x="4438.5" y="4157.746833816309">
15
</text>
<text font-size="142.13381090374028" text-anchor="middle" x="9013.5" y="7952.246833816309">
16
</text>
<text font-size="142.13381090374028" text-anchor="middle" x="8413" y="1637.7468338163092">
17
</text>
<text font-size="142.13381090374028" text-anchor="middle" x="9602.5" y="9063.246833816309">
18
</text>
<text font-size="142.13381090374028" text-anchor="middle" x="6086" y="4188.746833816309">
19
</text>
<text font-size="142.13381090374028" text-anchor="middle" x="1144" y="9099.746833816309">
20
</text>
<text font-size="142.13381090374028" text-anchor="middle" x="6834.5" y="9312.246833816309">
21
</text>
<text font-size="142.13381090374028" text-anchor="middle" x="7638.5" y="3796.246833816309">
22
</text>
<text font-size="142.13381090374028" text-anchor="middle" x="3024.5" y="4930.246833816309">
23
</text>
<text font-size="142.13381090374028" text-anchor="middle" x="9978" y="5132.246833816309">
24
</text>
<text font-size="142.13381090374028" text-anchor="middle" x="7957.5" y="4848.246833816309">
25
</text>
<text font-size="142.13381090374028" text-anchor="middle" x="9766.5" y="2620.746833816309">
26
</text>
<text font-size="142.13381090374028" text-anchor="middle" x="375.5" y="879.246833816309">
27
</text>
<text font-size="142.13381090374028" text-anchor="middle" x="4765" y="2685.746833816309">
28
</text>
<text font-size="142.13381090374028" text-anchor="middle" x="6084.5" y="5726.746833816309">
29
</text>
<text font-size="142.13381090374028" text-anchor="middle" x="1688" y="8729.246833816309">
30
</text>
<text font-size="142.13381090374028" text-anchor="middle" x="9049.5" y="7108.746833816309">
31
</text>
<text font-size="142.13381090374028" text-anchor="middle" x="3527" y="9183.746833816309">
32
</text>
<text font-size="142.13381090374028" text-anchor="middle" x="4835" y="7140.246833816309">
33
</text>
<text font-size="142.13381090374028" text-anchor="middle" x="8747.5" y="1623.7468338163092">
34
</text>
<text font-size="142.13381090374028" text-anchor="middle" x="4690" y="8300.246833816309">
35
</text>
<text font-size="142.13381090374028" text-anchor="middle" x="7825.5" y="2884.746833816309">
36
</text>
<text font-size="142.13381090374028" text-anchor="middle" x="4447" y="2685.746833816309">
37
</text>
<text font-size="142.13381090374028" text-anchor="middle" x="8261" y="6863.746833816309">
38
</text>
<text font-size="142.13381090374028" text-anchor="middle" x="8334" y="7920.246833816309">
39
</text>
<text font-size="142.13381090374028" text-anchor="middle" x="4245" y="9750.746833816309">
40
</text>
<text font-size="142.13381090374028" text-anchor="middle" x="3018" y="3133.746833816309">
41
</text>
<text font-size="142.13381090374028" text-anchor="middle" x="9105.5" y="5979.246833816309">
42
</text>
<text font-size="142.13381090374028" text-anchor="middle" x="7193.5" y="6291.746833816309">
43
</text>
<text font-size="142.13381090374028" text-anchor="middle" x="899.5" y="7940.246833816309">
44
</text>
<text font-size="142.13381090374028" text-anchor="middle" x="7494" y="7704.246833816309">
45
</text>
<text font-size="142.13381090374028" text-anchor="middle" x="7911" y="6595.746833816309">
46
</text>
<text font-size="142.13381090374028" text-anchor="middle" x="6579" y="404.7468338163091">
47
</text>
<text font-size="142.13381090374028" text-anchor="middle" x="2051.5" y="6232.246833816309">
48
</text>
<text font-size="142.13381090374028" text-anchor="middle" x="1541.5" y="3946.746833816309">
49
</text>
<text font-size="142.13381090374028" text-anchor="middle" x="464" y="4792.746833816309">
50
</text>
<text font-size="142.13381090374028" text-anchor="middle" x="3727.5" y="452.7468338163091">
51
</text>
<text font-size="142.13381090374028" text-anchor="middle" x="3777" y="82.7468338163091">
52
</text>
<text font-size="142.13381090374028" text-anchor="middle" x="3229.5" y="7816.746833816309">
53
</text>
<text font-size="142.13381090374028" text-anchor="middle" x="234" y="2426.746833816309">
54
</text>
<text font-size="142.13381090374028" text-anchor="middle" x="370" y="1321.7468338163092">
55
</text>
<text font-size="142.13381090374028" text-anchor="middle" x="5234.5" y="225.2468338163091">
56
</text>
<text font-size="142.13381090374028" text-anchor="middle" x="851" y="4566.746833816309">
57
</text>
<text font-size="142.13381090374028" text-anchor="middle" x="4155" y="8910.746833816309">
58
</text>
<text font-size="142.13381090374028" text-anchor="middle" x="4133" y="7186.746833816309">
59
</text>
<text font-size="142.13381090374028" text-anchor="middle" x="9308.5" y="4541.246833816309">
60
</text>
<text font-size="142.13381090374028" text-anchor="middle" x="1229.5" y="5343.746833816309">
61
</text>
<text font-size="142.13381090374028" text-anchor="middle" x="3513.5" y="2344.746833816309">
62
</text>
<text font-size="142.13381090374028" text-anchor="middle" x="7825.5" y="2446.246833816309">
63
</text>
<text font-size="142.13381090374028" text-anchor="middle" x="9544.5" y="5231.246833816309">
64
</text>
<text font-size="142.13381090374028" text-anchor="middle" x="2779" y="425.7468338163091">
65
</text>
<text font-size="142.13381090374028" text-anchor="middle" x="2826.5" y="9099.746833816309">
66
</text>
<text font-size="142.13381090374028" text-anchor="middle" x="4135.5" y="4613.746833816309">
67
</text>
<text font-size="142.13381090374028" text-anchor="middle" x="9267" y="3639.246833816309">
68
</text>
<text font-size="142.13381090374028" text-anchor="middle" x="5876" y="835.746833816309">
69
</text>
<text font-size="142.13381090374028" text-anchor="middle" x="3294.5" y="6935.246833816309">
70
</text>
<text font-size="142.13381090374028" text-anchor="middle" x="1001" y="4054.246833816309">
71
</text>
<text font-size="142.13381090374028" text-anchor="middle" x="7911" y="5481.246833816309">
72
</text>
<text font-size="142.13381090374028" text-anchor="middle" x="4476" y="1096.2468338163092">
73
</text>
<text font-size="142.13381090374028" text-anchor="middle" x="5234.5" y="746.246833816309">
74
</text>
<text font-size="142.13381090374028" text-anchor="middle" x="4901" y="7886.746833816309">
75
</text>
<text font-size="142.13381090374028" text-anchor="middle" x="2414" y="8428.246833816309">
76
</text>
<text font-size="142.13381090374028" text-anchor="middle" x="7094.5" y="3270.246833816309">
77
</text>
<text font-size="142.13381090374028" text-anchor="middle" x="6407" y="2116.246833816309">
78
</text>
<text font-size="142.13381090374028" text-anchor="middle" x="4551" y="458.7468338163091">
79
</text>
<text font-size="142.13381090374028" text-anchor="middle" x="6473.5" y="1210.7468338163092">
80
</text>
<text font-size="142.13381090374028" text-anchor="middle" x="5145.5" y="8906.746833816309">
81
</text>
<text font-size="142.13381090374028" text-anchor="middle" x="985.5" y="1853.2468338163092">
82
</text>
<text font-size="142.13381090374028" text-anchor="middle" x="3841.5" y="7462.246833816309">
83
</text>
<text font-size="142.13381090374028" text-anchor="middle" x="8144.5" y="717.246833816309">
84
</text>
<text font-size="142.13381090374028" text-anchor="middle" x="713.5" y="2444.746833816309">
85
</text>
<text font-size="142.13381090374028" text-anchor="middle" x="5141" y="4707.746833816309">
86
</text>
<text font-size="142.13381090374028" text-anchor="middle" x="9698.5" y="7476.746833816309">
87
</text>
<text font-size="142.13381090374028" text-anchor="middle" x="2628.5" y="9561.246833816309">
88
</text>
<text font-size="142.13381090374028" text-anchor="middle" x="2224.5" y="7809.746833816309">
89
</text>
<text font-size="142.13381090374028" text-anchor="middle" x="5402.5" y="2150.746833816309">
90
</text>
<text font-size="142.13381090374028" text-anchor="middle" x="8959" y="2628.746833816309">
91
</text>
<text font-size="142.13381090374028" text-anchor="middle" x="6905" y="8117.246833816309">
92
</text>
<text font-size="142.13381090374028" text-anchor="middle" x="8256.5" y="3796.246833816309">
93
</text>
<text font-size="142.13381090374028" text-anchor="middle" x="6537.5" y="3333.246833816309">
94
</text>
<text font-size="142.13381090374028" text-anchor="middle" x="7825.5" y="3089.246833816309">
95
</text>
<text font-size="142.13381090374028" text-anchor="middle" x="2522" y="2476.246833816309">
96
</text>
<text font-size="142.13381090374028" text-anchor="middle" x="3972.5" y="6390.246833816309">
97
</text>
<text font-size="142.13381090374028" text-anchor="middle" x="7477" y="1395.7468338163092">
98
</text>
</svg>