<svg viewBox="-100 -100 10200 10200" xmlns="http://www.w3.org/2000/svg">
<path d="M0,0 l10000,0 l0,10000 l-10000,0 z" fill="white"/>
<path d="M7159,5289 l1980,0 l0,1699 l-1980,0 z" fill="#fe00ff" stroke="black" stroke-width="5"/>
<path d="M5258,765 l2726,0 l0,993 l-2726,0 z" fill="#fc00ff" stroke="black" stroke-width="5"/>
<path d="M2087,514 l1293,0 l0,2632 l-1293,0 z" fill="#bf00ff" stroke="black" stroke-width="5"/>
<path d="M2988,3254 l1722,0 l0,1434 l-1722,0 z" fill="#fe00ff" stroke="black" stroke-width="5"/>
<path d="M5634,8241 l1752,0 l0,819 l-1752,0 z" fill="#fe00ff" stroke="black" stroke-width="5"/>
<path d="M6528,6676 l631,0 l0,312 l-631,0 z" fill="#fe00ff" stroke="black" stroke-width="5"/>
<path d="M2030,9357 l1881,0 l0,643 l-1881,0 z" fill="#b600ff" stroke="black" stroke-width="5"/>
<path d="M6020,3956 l210,0 l0,510 l-210,0 z" fill="#fe00ff" stroke="black" stroke-width="5"/>
<path d="M2088,7406 l1152,0 l0,1951 l-1152,0 z" fill="#7500ff" stroke="black" stroke-width="5"/>
<path d="M0,0 l1829,0 l0,3869 l-1829,0 z" fill="#f300ff" stroke="black" stroke-width="5"/>
<path d="M2161,6526 l1738,0 l0,880 l-1738,0 z" fill="#fe00ff" stroke="black" stroke-width="5"/>
<path d="M5792,6621 l162,0 l0,873 l-162,0 z" fill="#fe00ff" stroke="black" stroke-width="5"/>
<path d="M0,3869 l1251,0 l0,1347 l-1251,0 z" fill="#fe00ff" stroke="black" stroke-width="5"/>
<path d="M1829,521 l258,0 l0,2272 l-258,0 z" fill="#fe00ff" stroke="black" stroke-width="5"/>
<path d="M4014,5784 l1381,0 l0,1929 l-1381,0 z" fill="#fe00ff" stroke="black" stroke-width="5"/>
<path d="M2218,3159 l116,0 l0,34 l-116,0 z" fill="#ff00ff" stroke="black" stroke-width="5"/>
<path d="M5954,6988 l1739,0 l0,1253 l-1739,0 z" fill="#ba00ff" stroke="black" stroke-width="5"/>
<path d="M3911,5602 l103,0 l0,4398 l-103,0 z" fill="#2300ff" stroke="black" stroke-width="5"/>
<path d="M1829,45 l2543,0 l0,469 l-2543,0 z" fill="#fe00ff" stroke="black" stroke-width="5"/>
<path d="M2567,5762 l941,0 l0,754 l-941,0 z" fill="#fe00ff" stroke="black" stroke-width="5"/>
<path d="M4014,7713 l1045,0 l0,967 l-1045,0 z" fill="#fe00ff" stroke="black" stroke-width="5"/>
<path d="M0,5216 l1233,0 l0,652 l-1233,0 z" fill="#fe00ff" stroke="black" stroke-width="5"/>
<path d="M6163,5275 l985,0 l0,562 l-985,0 z" fill="#fe00ff" stroke="black" stroke-width="5"/>
<path d="M7383,2303 l2617,0 l0,525 l-2617,0 z" fill="#4700ff" stroke="black" stroke-width="5"/>
<path d="M9144,4094 l855,0 l0,1401 l-855,0 z" fill="#fe00ff" stroke="black" stroke-width="5"/>
<path d="M9778,9879 l205,0 l0,110 l-205,0 z" fill="#fe00ff" stroke="black" stroke-width="5"/>
<path d="M5395,5786 l318,0 l0,1800 l-318,0 z" fill="#fe00ff" stroke="black" stroke-width="5"/>
<path d="M1318,6786 l770,0 l0,2207 l-770,0 z" fill="#fe00ff" stroke="black" stroke-width="5"/>
<path d="M5756,5856 l1243,0 l0,765 l-1243,0 z" fill="#fe00ff" stroke="black" stroke-width="5"/>
<path d="M8543,7531 l1457,0 l0,1890 l-1457,0 z" fill="#fe00ff" stroke="black" stroke-width="5"/>
<path d="M8827,0 l1173,0 l0,2303 l-1173,0 z" fill="#fd00ff" stroke="black" stroke-width="5"/>
<path d="M6230,3455 l159,0 l0,1804 l-159,0 z" fill="#fe00ff" stroke="black" stroke-width="5"/>
<path d="M0,8993 l2030,0 l0,1007 l-2030,0 z" fill="#6d00ff" stroke="black" stroke-width="5"/>
<path d="M2334,3146 l654,0 l0,371 l-654,0 z" fill="#fe00ff" stroke="black" stroke-width="5"/>
<path d="M0,7189 l599,0 l0,1287 l-599,0 z" fill="#fe00ff" stroke="black" stroke-width="5"/>
<path d="M7693,7296 l391,0 l0,749 l-391,0 z" fill="#fe00ff" stroke="black" stroke-width="5"/>
<path d="M3240,7406 l671,0 l0,1951 l-671,0 z" fill="#0e00ff" stroke="black" stroke-width="5"/>
<path d="M3380,2851 l837,0 l0,146 l-837,0 z" fill="#fe00ff" stroke="black" stroke-width="5"/>
<path d="M3380,2099 l2161,0 l0,752 l-2161,0 z" fill="#f800ff" stroke="black" stroke-width="5"/>
<path d="M4503,0 l755,0 l0,2099 l-755,0 z" fill="#8300ff" stroke="black" stroke-width="5"/>
<path d="M4429,5440 l124,0 l0,344 l-124,0 z" fill="#fe00ff" stroke="black" stroke-width="5"/>
<path d="M3840,1140 l663,0 l0,858 l-663,0 z" fill="#fe00ff" stroke="black" stroke-width="5"/>
<path d="M3495,4688 l927,0 l0,914 l-927,0 z" fill="#fe00ff" stroke="black" stroke-width="5"/>
<path d="M6389,3455 l1308,0 l0,1819 l-1308,0 z" fill="#fe00ff" stroke="black" stroke-width="5"/>
<path d="M5541,1758 l1842,0 l0,1697 l-1842,0 z" fill="#fa00ff" stroke="black" stroke-width="5"/>
<path d="M7701,2828 l1397,0 l0,2461 l-1397,0 z" fill="#fe00ff" stroke="black" stroke-width="5"/>
<path d="M9098,2828 l732,0 l0,788 l-732,0 z" fill="#fe00ff" stroke="black" stroke-width="5"/>
<path d="M599,5891 l712,0 l0,3102 l-712,0 z" fill="#fe00ff" stroke="black" stroke-width="5"/>
<path d="M7984,0 l843,0 l0,2303 l-843,0 z" fill="#fe00ff" stroke="black" stroke-width="5"/>
<path d="M1251,3869 l1373,0 l0,1633 l-1373,0 z" fill="#fe00ff" stroke="black" stroke-width="5"/>
<path d="M5258,0 l2726,0 l0,765 l-2726,0 z" fill="#fe00ff" stroke="black" stroke-width="5"/>
<path d="M1593,6521 l568,0 l0,265 l-568,0 z" fill="#fe00ff" stroke="black" stroke-width="5"/>
<path d="M8330,5316 l60,0 l0,60 l-60,0 z" fill="green"/>
<path d="M8360,5346 l-211,792.5" stroke="black" stroke-width="5"/>
<path d="M7156,1291 l60,0 l0,60 l-60,0 z" fill="green"/>
<path d="M7186,1321 l-565,-59.5" stroke="black" stroke-width="5"/>
<path d="M2808,1820 l60,0 l0,60 l-60,0 z" fill="green"/>
<path d="M2838,1850 l-104.5,-20" stroke="black" stroke-width="5"/>
<path d="M3793,4069 l60,0 l0,60 l-60,0 z" fill="green"/>
<path d="M3823,4099 l26,-128" stroke="black" stroke-width="5"/>
<path d="M6578,8211 l60,0 l0,60 l-60,0 z" fill="green"/>
<path d="M6608,8241 l-98,409.5" stroke="black" stroke-width="5"/>
<path d="M6904,6956 l60,0 l0,60 l-60,0 z" fill="green"/>
<path d="M6934,6986 l-90.5,-154" stroke="black" stroke-width="5"/>
<path d="M3170,9875 l60,0 l0,60 l-60,0 z" fill="green"/>
<path d="M3200,9905 l-229.5,-226.5" stroke="black" stroke-width="5"/>
<path d="M6189,4161 l60,0 l0,60 l-60,0 z" fill="green"/>
<path d="M6219,4191 l-94,20" stroke="black" stroke-width="5"/>
<path d="M2735,8801 l60,0 l0,60 l-60,0 z" fill="green"/>
<path d="M2765,8831 l-101,-449.5" stroke="black" stroke-width="5"/>
<path d="M844,1104 l60,0 l0,60 l-60,0 z" fill="green"/>
<path d="M874,1134 l40.5,800.5" stroke="black" stroke-width="5"/>
<path d="M3262,7374 l60,0 l0,60 l-60,0 z" fill="green"/>
<path d="M3292,7404 l-262,-438" stroke="black" stroke-width="5"/>
<path d="M5923,7134 l60,0 l0,60 l-60,0 z" fill="green"/>
<path d="M5953,7164 l-80,-106.5" stroke="black" stroke-width="5"/>
<path d="M72,4228 l60,0 l0,60 l-60,0 z" fill="green"/>
<path d="M102,4258 l523.5,284.5" stroke="black" stroke-width="5"/>
<path d="M2056,1501 l60,0 l0,60 l-60,0 z" fill="green"/>
<path d="M2086,1531 l-128,126" stroke="black" stroke-width="5"/>
<path d="M4154,6302 l60,0 l0,60 l-60,0 z" fill="green"/>
<path d="M4184,6332 l520.5,416.5" stroke="black" stroke-width="5"/>
<path d="M2286,3130 l60,0 l0,60 l-60,0 z" fill="green"/>
<path d="M2316,3160 l-40,16" stroke="black" stroke-width="5"/>
<path d="M6918,7082 l60,0 l0,60 l-60,0 z" fill="green"/>
<path d="M6948,7112 l-124.5,502.5" stroke="black" stroke-width="5"/>
<path d="M3921,7402 l60,0 l0,60 l-60,0 z" fill="green"/>
<path d="M3951,7432 l11.5,369" stroke="black" stroke-width="5"/>
<path d="M2147,483 l60,0 l0,60 l-60,0 z" fill="green"/>
<path d="M2177,513 l923.5,-233.5" stroke="black" stroke-width="5"/>
<path d="M3187,6221 l60,0 l0,60 l-60,0 z" fill="green"/>
<path d="M3217,6251 l-179.5,-112" stroke="black" stroke-width="5"/>
<path d="M4389,7724 l60,0 l0,60 l-60,0 z" fill="green"/>
<path d="M4419,7754 l117.5,442.5" stroke="black" stroke-width="5"/>
<path d="M323,5460 l60,0 l0,60 l-60,0 z" fill="green"/>
<path d="M353,5490 l263.5,52" stroke="black" stroke-width="5"/>
<path d="M6895,5250 l60,0 l0,60 l-60,0 z" fill="green"/>
<path d="M6925,5280 l-269.5,276" stroke="black" stroke-width="5"/>
<path d="M8575,2345 l60,0 l0,60 l-60,0 z" fill="green"/>
<path d="M8605,2375 l86.5,190.5" stroke="black" stroke-width="5"/>
<path d="M9224,4714 l60,0 l0,60 l-60,0 z" fill="green"/>
<path d="M9254,4744 l317.5,50.5" stroke="black" stroke-width="5"/>
<path d="M9897,9945 l60,0 l0,60 l-60,0 z" fill="green"/>
<path d="M9927,9975 l-46.5,-41" stroke="black" stroke-width="5"/>
<path d="M5380,6640 l60,0 l0,60 l-60,0 z" fill="green"/>
<path d="M5410,6670 l144,16" stroke="black" stroke-width="5"/>
<path d="M2057,8376 l60,0 l0,60 l-60,0 z" fill="green"/>
<path d="M2087,8406 l-384,-516.5" stroke="black" stroke-width="5"/>
<path d="M6384,6436 l60,0 l0,60 l-60,0 z" fill="green"/>
<path d="M6414,6466 l-36.5,-227.5" stroke="black" stroke-width="5"/>
<path d="M9371,8479 l60,0 l0,60 l-60,0 z" fill="green"/>
<path d="M9401,8509 l-129.5,-33" stroke="black" stroke-width="5"/>
<path d="M9581,633 l60,0 l0,60 l-60,0 z" fill="green"/>
<path d="M9611,663 l-197.5,488.5" stroke="black" stroke-width="5"/>
<path d="M6334,4050 l60,0 l0,60 l-60,0 z" fill="green"/>
<path d="M6364,4080 l-54.5,277" stroke="black" stroke-width="5"/>
<path d="M972,9051 l60,0 l0,60 l-60,0 z" fill="green"/>
<path d="M1002,9081 l13,415.5" stroke="black" stroke-width="5"/>
<path d="M2670,3116 l60,0 l0,60 l-60,0 z" fill="green"/>
<path d="M2700,3146 l-39,185.5" stroke="black" stroke-width="5"/>
<path d="M264,7821 l60,0 l0,60 l-60,0 z" fill="green"/>
<path d="M294,7851 l5.5,-18.5" stroke="black" stroke-width="5"/>
<path d="M7663,7759 l60,0 l0,60 l-60,0 z" fill="green"/>
<path d="M7693,7789 l195.5,-118.5" stroke="black" stroke-width="5"/>
<path d="M3211,9054 l60,0 l0,60 l-60,0 z" fill="green"/>
<path d="M3241,9084 l334.5,-702.5" stroke="black" stroke-width="5"/>
<path d="M3616,2822 l60,0 l0,60 l-60,0 z" fill="green"/>
<path d="M3646,2852 l152.5,72" stroke="black" stroke-width="5"/>
<path d="M3648,2503 l60,0 l0,60 l-60,0 z" fill="green"/>
<path d="M3678,2533 l782.5,-58" stroke="black" stroke-width="5"/>
<path d="M4922,1405 l60,0 l0,60 l-60,0 z" fill="green"/>
<path d="M4952,1435 l-71.5,-385.5" stroke="black" stroke-width="5"/>
<path d="M4422,5620 l60,0 l0,60 l-60,0 z" fill="green"/>
<path d="M4452,5650 l39,-38" stroke="black" stroke-width="5"/>
<path d="M4472,1414 l60,0 l0,60 l-60,0 z" fill="green"/>
<path d="M4502,1444 l-330.5,125" stroke="black" stroke-width="5"/>
<path d="M4311,5571 l60,0 l0,60 l-60,0 z" fill="green"/>
<path d="M4341,5601 l-382.5,-456" stroke="black" stroke-width="5"/>
<path d="M7574,4566 l60,0 l0,60 l-60,0 z" fill="green"/>
<path d="M7604,4596 l-561,-231.5" stroke="black" stroke-width="5"/>
<path d="M7351,1732 l60,0 l0,60 l-60,0 z" fill="green"/>
<path d="M7381,1762 l-919,844.5" stroke="black" stroke-width="5"/>
<path d="M8311,4846 l60,0 l0,60 l-60,0 z" fill="green"/>
<path d="M8341,4876 l58.5,-817.5" stroke="black" stroke-width="5"/>
<path d="M9077,2953 l60,0 l0,60 l-60,0 z" fill="green"/>
<path d="M9107,2983 l357,239" stroke="black" stroke-width="5"/>
<path d="M1277,8417 l60,0 l0,60 l-60,0 z" fill="green"/>
<path d="M1307,8447 l-352,-1005" stroke="black" stroke-width="5"/>
<path d="M7987,1645 l60,0 l0,60 l-60,0 z" fill="green"/>
<path d="M8017,1675 l388.5,-523.5" stroke="black" stroke-width="5"/>
<path d="M1729,4566 l60,0 l0,60 l-60,0 z" fill="green"/>
<path d="M1759,4596 l178.5,89.5" stroke="black" stroke-width="5"/>
<path d="M7081,734 l60,0 l0,60 l-60,0 z" fill="green"/>
<path d="M7111,764 l-490,-381.5" stroke="black" stroke-width="5"/>
<path d="M1930,6751 l60,0 l0,60 l-60,0 z" fill="green"/>
<path d="M1960,6781 l-83,-127.5" stroke="black" stroke-width="5"/>
<text font-size="196.116135138184" text-anchor="middle" x="8149" y="6207.1406472983645">
0
</text>
<text font-size="196.116135138184" text-anchor="middle" x="6621" y="1330.1406472983645">
1
</text>
<text font-size="196.116135138184" text-anchor="middle" x="2733.5" y="1898.6406472983645">
2
</text>
<text font-size="196.116135138184" text-anchor="middle" x="3849" y="4039.6406472983645">
3
</text>
<text font-size="196.116135138184" text-anchor="middle" x="6510" y="8719.140647298364">
4
</text>
<text font-size="196.116135138184" text-anchor="middle" x="6843.5" y="6900.6406472983645">
5
</text>
<text font-size="196.116135138184" text-anchor="middle" x="2970.5" y="9747.140647298364">
6
</text>
<text font-size="196.116135138184" text-anchor="middle" x="6125" y="4279.6406472983645">
7
</text>
<text font-size="196.116135138184" text-anchor="middle" x="2664" y="8450.140647298364">
8
</text>
<text font-size="196.116135138184" text-anchor="middle" x="914.5" y="2003.1406472983645">
9
</text>
<text font-size="196.116135138184" text-anchor="middle" x="3030" y="7034.6406472983645">
10
</text>
<text font-size="196.116135138184" text-anchor="middle" x="5873" y="7126.1406472983645">
11
</text>
<text font-size="196.116135138184" text-anchor="middle" x="625.5" y="4611.1406472983645">
12
</text>
<text font-size="196.116135138184" text-anchor="middle" x="1958" y="1725.6406472983645">
13
</text>
<text font-size="196.116135138184" text-anchor="middle" x="4704.5" y="6817.1406472983645">
14
</text>
<text font-size="196.116135138184" text-anchor="middle" x="2276" y="3244.6406472983645">
15
</text>
<text font-size="196.116135138184" text-anchor="middle" x="6823.5" y="7683.1406472983645">
16
</text>
<text font-size="196.116135138184" text-anchor="middle" x="3962.5" y="7869.6406472983645">
17
</text>
<text font-size="196.116135138184" text-anchor="middle" x="3100.5" y="348.1406472983644">
18
</text>
<text font-size="196.116135138184" text-anchor="middle" x="3037.5" y="6207.6406472983645">
19
</text>
<text font-size="196.116135138184" text-anchor="middle" x="4536.5" y="8265.140647298364">
20
</text>
<text font-size="196.116135138184" text-anchor="middle" x="616.5" y="5610.6406472983645">
21
</text>
<text font-size="196.116135138184" text-anchor="middle" x="6655.5" y="5624.6406472983645">
22
</text>
<text font-size="196.116135138184" text-anchor="middle" x="8691.5" y="2634.1406472983645">
23
</text>
<text font-size="196.116135138184" text-anchor="middle" x="9571.5" y="4863.1406472983645">
24
</text>
<text font-size="196.116135138184" text-anchor="middle" x="9880.5" y="10002.640647298364">
25
</text>
<text font-size="196.116135138184" text-anchor="middle" x="5554" y="6754.6406472983645">
26
</text>
<text font-size="196.116135138184" text-anchor="middle" x="1703" y="7958.1406472983645">
27
</text>
<text font-size="196.116135138184" text-anchor="middle" x="6377.5" y="6307.1406472983645">
28
</text>
<text font-size="196.116135138184" text-anchor="middle" x="9271.5" y="8544.640647298364">
29
</text>
<text font-size="196.116135138184" text-anchor="middle" x="9413.5" y="1220.1406472983645">
30
</text>
<text font-size="196.116135138184" text-anchor="middle" x="6309.5" y="4425.6406472983645">
31
</text>
<text font-size="196.116135138184" text-anchor="middle" x="1015" y="9565.140647298364">
32
</text>
<text font-size="196.116135138184" text-anchor="middle" x="2661" y="3400.1406472983645">
33
</text>
<text font-size="196.116135138184" text-anchor="middle" x="299.5" y="7901.1406472983645">
34
</text>
<text font-size="196.116135138184" text-anchor="middle" x="7888.5" y="7739.1406472983645">
35
</text>
<text font-size="196.116135138184" text-anchor="middle" x="3575.5" y="8450.140647298364">
36
</text>
<text font-size="196.116135138184" text-anchor="middle" x="3798.5" y="2992.6406472983645">
37
</text>
<text font-size="196.116135138184" text-anchor="middle" x="4460.5" y="2543.6406472983645">
38
</text>
<text font-size="196.116135138184" text-anchor="middle" x="4880.5" y="1118.1406472983645">
39
</text>
<text font-size="196.116135138184" text-anchor="middle" x="4491" y="5680.6406472983645">
40
</text>
<text font-size="196.116135138184" text-anchor="middle" x="4171.5" y="1637.6406472983645">
41
</text>
<text font-size="196.116135138184" text-anchor="middle" x="3958.5" y="5213.6406472983645">
42
</text>
<text font-size="196.116135138184" text-anchor="middle" x="7043" y="4433.1406472983645">
43
</text>
<text font-size="196.116135138184" text-anchor="middle" x="6462" y="2675.1406472983645">
44
</text>
<text font-size="196.116135138184" text-anchor="middle" x="8399.5" y="4127.1406472983645">
45
</text>
<text font-size="196.116135138184" text-anchor="middle" x="9464" y="3290.6406472983645">
46
</text>
<text font-size="196.116135138184" text-anchor="middle" x="955" y="7510.6406472983645">
47
</text>
<text font-size="196.116135138184" text-anchor="middle" x="8405.5" y="1220.1406472983645">
48
</text>
<text font-size="196.116135138184" text-anchor="middle" x="1937.5" y="4754.1406472983645">
49
</text>
<text font-size="196.116135138184" text-anchor="middle" x="6621" y="451.1406472983644">
50
</text>
<text font-size="196.116135138184" text-anchor="middle" x="1877" y="6722.1406472983645">
51
</text>
</svg>