<svg viewBox="-100 -100 10200 10200" xmlns="http://www.w3.org/2000/svg">
<path d="M0,0 l10000,0 l0,10000 l-10000,0 z" fill="white"/>
<path d="M607,5653 l1933,0 l0,1034 l-1933,0 z" fill="#fe00ff" stroke="black" stroke-width="5"/>
<path d="M8785,2690 l483,0 l0,878 l-483,0 z" fill="#fe00ff" stroke="black" stroke-width="5"/>
<path d="M2200,870 l1403,0 l0,523 l-1403,0 z" fill="#fe00ff" stroke="black" stroke-width="5"/>
<path d="M1863,2977 l1050,0 l0,2612 l-1050,0 z" fill="#fe00ff" stroke="black" stroke-width="5"/>
<path d="M2941,1450 l720,0 l0,1434 l-720,0 z" fill="#fe00ff" stroke="black" stroke-width="5"/>
<path d="M9057,7949 l943,0 l0,757 l-943,0 z" fill="#fb00ff" stroke="black" stroke-width="5"/>
<path d="M8896,3568 l1104,0 l0,1662 l-1104,0 z" fill="#5c00ff" stroke="black" stroke-width="5"/>
<path d="M2253,2891 l178,0 l0,86 l-178,0 z" fill="#fe00ff" stroke="black" stroke-width="5"/>
<path d="M7380,1016 l67,0 l0,6896 l-67,0 z" fill="#1d00ff" stroke="black" stroke-width="5"/>
<path d="M3901,772 l432,0 l0,578 l-432,0 z" fill="#fe00ff" stroke="black" stroke-width="5"/>
<path d="M0,7950 l1149,0 l0,156 l-1149,0 z" fill="#fe00ff" stroke="black" stroke-width="5"/>
<path d="M7859,8910 l852,0 l0,498 l-852,0 z" fill="#2a00ff" stroke="black" stroke-width="5"/>
<path d="M5643,7160 l750,0 l0,649 l-750,0 z" fill="#fe00ff" stroke="black" stroke-width="5"/>
<path d="M1972,0 l765,0 l0,870 l-765,0 z" fill="#fe00ff" stroke="black" stroke-width="5"/>
<path d="M6097,382 l430,0 l0,344 l-430,0 z" fill="#fe00ff" stroke="black" stroke-width="5"/>
<path d="M6587,0 l1368,0 l0,1016 l-1368,0 z" fill="#fe00ff" stroke="black" stroke-width="5"/>
<path d="M565,8106 l584,0 l0,1894 l-584,0 z" fill="#fe00ff" stroke="black" stroke-width="5"/>
<path d="M4673,4736 l1515,0 l0,1150 l-1515,0 z" fill="#fe00ff" stroke="black" stroke-width="5"/>
<path d="M5252,8823 l1182,0 l0,1061 l-1182,0 z" fill="#e400ff" stroke="black" stroke-width="5"/>
<path d="M4526,5917 l1550,0 l0,771 l-1550,0 z" fill="#fe00ff" stroke="black" stroke-width="5"/>
<path d="M4,5848 l599,0 l0,803 l-599,0 z" fill="#fe00ff" stroke="black" stroke-width="5"/>
<path d="M4497,8999 l340,0 l0,242 l-340,0 z" fill="#fe00ff" stroke="black" stroke-width="5"/>
<path d="M0,6973 l1131,0 l0,977 l-1131,0 z" fill="#f200ff" stroke="black" stroke-width="5"/>
<path d="M4727,7958 l405,0 l0,655 l-405,0 z" fill="#fe00ff" stroke="black" stroke-width="5"/>
<path d="M5593,9890 l172,0 l0,110 l-172,0 z" fill="#fe00ff" stroke="black" stroke-width="5"/>
<path d="M5765,9884 l4235,0 l0,116 l-4235,0 z" fill="#f500ff" stroke="black" stroke-width="5"/>
<path d="M2946,2884 l717,0 l0,427 l-717,0 z" fill="#fe00ff" stroke="black" stroke-width="5"/>
<path d="M6434,8445 l930,0 l0,1439 l-930,0 z" fill="#9e00ff" stroke="black" stroke-width="5"/>
<path d="M0,2601 l764,0 l0,386 l-764,0 z" fill="#fe00ff" stroke="black" stroke-width="5"/>
<path d="M7364,8445 l495,0 l0,963 l-495,0 z" fill="#bd00ff" stroke="black" stroke-width="5"/>
<path d="M2650,5681 l1315,0 l0,1450 l-1315,0 z" fill="#fe00ff" stroke="black" stroke-width="5"/>
<path d="M4342,566 l671,0 l0,3059 l-671,0 z" fill="#fe00ff" stroke="black" stroke-width="5"/>
<path d="M7859,8445 l1198,0 l0,205 l-1198,0 z" fill="#0200ff" stroke="black" stroke-width="5"/>
<path d="M9283,8706 l345,0 l0,1178 l-345,0 z" fill="#c800ff" stroke="black" stroke-width="5"/>
<path d="M8143,7953 l811,0 l0,492 l-811,0 z" fill="#fe00ff" stroke="black" stroke-width="5"/>
<path d="M7955,405 l474,0 l0,348 l-474,0 z" fill="#fe00ff" stroke="black" stroke-width="5"/>
<path d="M1903,7912 l8097,0 l0,37 l-8097,0 z" fill="#1d00ff" stroke="black" stroke-width="5"/>
<path d="M1149,8332 l838,0 l0,627 l-838,0 z" fill="#fe00ff" stroke="black" stroke-width="5"/>
<path d="M1413,2501 l1515,0 l0,325 l-1515,0 z" fill="#fe00ff" stroke="black" stroke-width="5"/>
<path d="M7447,5863 l1009,0 l0,1334 l-1009,0 z" fill="#fe00ff" stroke="black" stroke-width="5"/>
<path d="M7859,8650 l852,0 l0,260 l-852,0 z" fill="#f200ff" stroke="black" stroke-width="5"/>
<path d="M1131,6687 l1430,0 l0,1077 l-1430,0 z" fill="#8400ff" stroke="black" stroke-width="5"/>
<path d="M1149,13 l803,0 l0,968 l-803,0 z" fill="#fe00ff" stroke="black" stroke-width="5"/>
<path d="M5013,744 l1574,0 l0,421 l-1574,0 z" fill="#fe00ff" stroke="black" stroke-width="5"/>
<path d="M1506,3275 l354,0 l0,1558 l-354,0 z" fill="#fe00ff" stroke="black" stroke-width="5"/>
<path d="M8711,8706 l572,0 l0,883 l-572,0 z" fill="#8700ff" stroke="black" stroke-width="5"/>
<path d="M9628,8706 l372,0 l0,1178 l-372,0 z" fill="#5d00ff" stroke="black" stroke-width="5"/>
<path d="M6131,5946 l238,0 l0,247 l-238,0 z" fill="#fe00ff" stroke="black" stroke-width="5"/>
<path d="M1541,9298 l398,0 l0,619 l-398,0 z" fill="#fe00ff" stroke="black" stroke-width="5"/>
<path d="M3965,6688 l3147,0 l0,463 l-3147,0 z" fill="#fe00ff" stroke="black" stroke-width="5"/>
<path d="M8163,753 l622,0 l0,2815 l-622,0 z" fill="#e100ff" stroke="black" stroke-width="5"/>
<path d="M38,4472 l604,0 l0,185 l-604,0 z" fill="#fe00ff" stroke="black" stroke-width="5"/>
<path d="M6434,7949 l1709,0 l0,496 l-1709,0 z" fill="#7200ff" stroke="black" stroke-width="5"/>
<path d="M577,3 l556,0 l0,466 l-556,0 z" fill="#fe00ff" stroke="black" stroke-width="5"/>
<path d="M7364,9408 l697,0 l0,476 l-697,0 z" fill="#0800ff" stroke="black" stroke-width="5"/>
<path d="M0,2987 l1506,0 l0,1485 l-1506,0 z" fill="#f200ff" stroke="black" stroke-width="5"/>
<path d="M9268,2631 l715,0 l0,937 l-715,0 z" fill="#fe00ff" stroke="black" stroke-width="5"/>
<path d="M7884,7492 l506,0 l0,398 l-506,0 z" fill="#fe00ff" stroke="black" stroke-width="5"/>
<path d="M7447,5230 l2553,0 l0,633 l-2553,0 z" fill="#ac00ff" stroke="black" stroke-width="5"/>
<path d="M8163,3568 l733,0 l0,1662 l-733,0 z" fill="#e300ff" stroke="black" stroke-width="5"/>
<path d="M6748,3129 l632,0 l0,693 l-632,0 z" fill="#fe00ff" stroke="black" stroke-width="5"/>
<path d="M7447,3204 l716,0 l0,1179 l-716,0 z" fill="#4d00ff" stroke="black" stroke-width="5"/>
<path d="M721,4976 l671,0 l0,624 l-671,0 z" fill="#fe00ff" stroke="black" stroke-width="5"/>
<path d="M1149,7764 l754,0 l0,568 l-754,0 z" fill="#fa00ff" stroke="black" stroke-width="5"/>
<path d="M8061,9408 l594,0 l0,476 l-594,0 z" fill="#f300ff" stroke="black" stroke-width="5"/>
<path d="M1667,1393 l1106,0 l0,1108 l-1106,0 z" fill="#f300ff" stroke="black" stroke-width="5"/>
<path d="M3693,12 l1142,0 l0,554 l-1142,0 z" fill="#fe00ff" stroke="black" stroke-width="5"/>
<path d="M7447,1830 l688,0 l0,1374 l-688,0 z" fill="#fe00ff" stroke="black" stroke-width="5"/>
<path d="M0,8334 l539,0 l0,1666 l-539,0 z" fill="#fe00ff" stroke="black" stroke-width="5"/>
<path d="M5013,1165 l2367,0 l0,1954 l-2367,0 z" fill="#fe00ff" stroke="black" stroke-width="5"/>
<path d="M2773,1393 l168,0 l0,1108 l-168,0 z" fill="#fe00ff" stroke="black" stroke-width="5"/>
<path d="M5132,7949 l1302,0 l0,874 l-1302,0 z" fill="#cb00ff" stroke="black" stroke-width="5"/>
<path d="M7447,4383 l716,0 l0,847 l-716,0 z" fill="#1b00ff" stroke="black" stroke-width="5"/>
<path d="M835,981 l832,0 l0,1128 l-832,0 z" fill="#fe00ff" stroke="black" stroke-width="5"/>
<path d="M3292,7203 l2330,0 l0,682 l-2330,0 z" fill="#fe00ff" stroke="black" stroke-width="5"/>
<path d="M2879,8974 l716,0 l0,329 l-716,0 z" fill="#fe00ff" stroke="black" stroke-width="5"/>
<path d="M8456,5863 l1544,0 l0,2049 l-1544,0 z" fill="#fe00ff" stroke="black" stroke-width="5"/>
<path d="M1939,9303 l3313,0 l0,697 l-3313,0 z" fill="#af00ff" stroke="black" stroke-width="5"/>
<path d="M3662,1568 l369,0 l0,511 l-369,0 z" fill="#fe00ff" stroke="black" stroke-width="5"/>
<path d="M1852,1142 l311,0 l0,248 l-311,0 z" fill="#fe00ff" stroke="black" stroke-width="5"/>
<path d="M5382,39 l715,0 l0,701 l-715,0 z" fill="#fe00ff" stroke="black" stroke-width="5"/>
<path d="M8655,9589 l628,0 l0,295 l-628,0 z" fill="#0c00ff" stroke="black" stroke-width="5"/>
<path d="M0,6687 l1131,0 l0,286 l-1131,0 z" fill="#fe00ff" stroke="black" stroke-width="5"/>
<path d="M2561,6620 l78,0 l0,518 l-78,0 z" fill="#fe00ff" stroke="black" stroke-width="5"/>
<path d="M2913,3625 l1754,0 l0,1685 l-1754,0 z" fill="#fe00ff" stroke="black" stroke-width="5"/>
<path d="M625,6656 l60,0 l0,60 l-60,0 z" fill="green"/>
<path d="M655,6686 l918.5,-516" stroke="black" stroke-width="5"/>
<path d="M8760,3340 l60,0 l0,60 l-60,0 z" fill="green"/>
<path d="M8790,3370 l236.5,-241" stroke="black" stroke-width="5"/>
<path d="M2968,1120 l60,0 l0,60 l-60,0 z" fill="green"/>
<path d="M2998,1150 l-96.5,-18.5" stroke="black" stroke-width="5"/>
<path d="M2538,3372 l60,0 l0,60 l-60,0 z" fill="green"/>
<path d="M2568,3402 l-180,881" stroke="black" stroke-width="5"/>
<path d="M2916,2389 l60,0 l0,60 l-60,0 z" fill="green"/>
<path d="M2946,2419 l355,-252" stroke="black" stroke-width="5"/>
<path d="M9515,8675 l60,0 l0,60 l-60,0 z" fill="green"/>
<path d="M9545,8705 l-16.5,-377.5" stroke="black" stroke-width="5"/>
<path d="M8870,4352 l60,0 l0,60 l-60,0 z" fill="green"/>
<path d="M8900,4382 l548,17" stroke="black" stroke-width="5"/>
<path d="M2311,2883 l60,0 l0,60 l-60,0 z" fill="green"/>
<path d="M2341,2913 l1,21" stroke="black" stroke-width="5"/>
<path d="M7416,3123 l60,0 l0,60 l-60,0 z" fill="green"/>
<path d="M7446,3153 l-32.5,1311" stroke="black" stroke-width="5"/>
<path d="M4160,997 l60,0 l0,60 l-60,0 z" fill="green"/>
<path d="M4190,1027 l-73,34" stroke="black" stroke-width="5"/>
<path d="M739,7935 l60,0 l0,60 l-60,0 z" fill="green"/>
<path d="M769,7965 l-194.5,63" stroke="black" stroke-width="5"/>
<path d="M7923,9193 l60,0 l0,60 l-60,0 z" fill="green"/>
<path d="M7953,9223 l332,-64" stroke="black" stroke-width="5"/>
<path d="M5957,7514 l60,0 l0,60 l-60,0 z" fill="green"/>
<path d="M5987,7544 l31,-59.5" stroke="black" stroke-width="5"/>
<path d="M2336,436 l60,0 l0,60 l-60,0 z" fill="green"/>
<path d="M2366,466 l-11.5,-31" stroke="black" stroke-width="5"/>
<path d="M6246,455 l60,0 l0,60 l-60,0 z" fill="green"/>
<path d="M6276,485 l36,69" stroke="black" stroke-width="5"/>
<path d="M7384,795 l60,0 l0,60 l-60,0 z" fill="green"/>
<path d="M7414,825 l-143,-317" stroke="black" stroke-width="5"/>
<path d="M685,8916 l60,0 l0,60 l-60,0 z" fill="green"/>
<path d="M715,8946 l142,107" stroke="black" stroke-width="5"/>
<path d="M5350,5414 l60,0 l0,60 l-60,0 z" fill="green"/>
<path d="M5380,5444 l50.5,-133" stroke="black" stroke-width="5"/>
<path d="M6098,9038 l60,0 l0,60 l-60,0 z" fill="green"/>
<path d="M6128,9068 l-285,285.5" stroke="black" stroke-width="5"/>
<path d="M5288,6595 l60,0 l0,60 l-60,0 z" fill="green"/>
<path d="M5318,6625 l-17,-322.5" stroke="black" stroke-width="5"/>
<path d="M271,6518 l60,0 l0,60 l-60,0 z" fill="green"/>
<path d="M301,6548 l2.5,-298.5" stroke="black" stroke-width="5"/>
<path d="M4678,9131 l60,0 l0,60 l-60,0 z" fill="green"/>
<path d="M4708,9161 l-41,-41" stroke="black" stroke-width="5"/>
<path d="M462,7317 l60,0 l0,60 l-60,0 z" fill="green"/>
<path d="M492,7347 l73.5,114.5" stroke="black" stroke-width="5"/>
<path d="M5098,8188 l60,0 l0,60 l-60,0 z" fill="green"/>
<path d="M5128,8218 l-198.5,67.5" stroke="black" stroke-width="5"/>
<path d="M5733,9861 l60,0 l0,60 l-60,0 z" fill="green"/>
<path d="M5763,9891 l-84,54" stroke="black" stroke-width="5"/>
<path d="M8290,9854 l60,0 l0,60 l-60,0 z" fill="green"/>
<path d="M8320,9884 l-437.5,58" stroke="black" stroke-width="5"/>
<path d="M3132,2952 l60,0 l0,60 l-60,0 z" fill="green"/>
<path d="M3162,2982 l142.5,115.5" stroke="black" stroke-width="5"/>
<path d="M7333,9340 l60,0 l0,60 l-60,0 z" fill="green"/>
<path d="M7363,9370 l-464,-205.5" stroke="black" stroke-width="5"/>
<path d="M341,2955 l60,0 l0,60 l-60,0 z" fill="green"/>
<path d="M371,2985 l11,-191" stroke="black" stroke-width="5"/>
<path d="M7571,9176 l60,0 l0,60 l-60,0 z" fill="green"/>
<path d="M7601,9206 l10.5,-279.5" stroke="black" stroke-width="5"/>
<path d="M3930,7045 l60,0 l0,60 l-60,0 z" fill="green"/>
<path d="M3960,7075 l-652.5,-669" stroke="black" stroke-width="5"/>
<path d="M4716,642 l60,0 l0,60 l-60,0 z" fill="green"/>
<path d="M4746,672 l-68.5,1423.5" stroke="black" stroke-width="5"/>
<path d="M8336,8605 l60,0 l0,60 l-60,0 z" fill="green"/>
<path d="M8366,8635 l92,-87.5" stroke="black" stroke-width="5"/>
<path d="M9594,9432 l60,0 l0,60 l-60,0 z" fill="green"/>
<path d="M9624,9462 l-168.5,-167" stroke="black" stroke-width="5"/>
<path d="M8133,8234 l60,0 l0,60 l-60,0 z" fill="green"/>
<path d="M8163,8264 l385.5,-65" stroke="black" stroke-width="5"/>
<path d="M8048,720 l60,0 l0,60 l-60,0 z" fill="green"/>
<path d="M8078,750 l114,-171" stroke="black" stroke-width="5"/>
<path d="M7908,7882 l60,0 l0,60 l-60,0 z" fill="green"/>
<path d="M7938,7912 l-1986.5,18.5" stroke="black" stroke-width="5"/>
<path d="M1351,8304 l60,0 l0,60 l-60,0 z" fill="green"/>
<path d="M1381,8334 l187,311.5" stroke="black" stroke-width="5"/>
<path d="M2640,2471 l60,0 l0,60 l-60,0 z" fill="green"/>
<path d="M2670,2501 l-499.5,162.5" stroke="black" stroke-width="5"/>
<path d="M8236,6311 l60,0 l0,60 l-60,0 z" fill="green"/>
<path d="M8266,6341 l-314.5,189" stroke="black" stroke-width="5"/>
<path d="M8169,8780 l60,0 l0,60 l-60,0 z" fill="green"/>
<path d="M8199,8810 l86,-30" stroke="black" stroke-width="5"/>
<path d="M1727,7057 l60,0 l0,60 l-60,0 z" fill="green"/>
<path d="M1757,7087 l89,138.5" stroke="black" stroke-width="5"/>
<path d="M1860,212 l60,0 l0,60 l-60,0 z" fill="green"/>
<path d="M1890,242 l-339.5,255" stroke="black" stroke-width="5"/>
<path d="M5765,828 l60,0 l0,60 l-60,0 z" fill="green"/>
<path d="M5795,858 l5,96.5" stroke="black" stroke-width="5"/>
<path d="M1480,4089 l60,0 l0,60 l-60,0 z" fill="green"/>
<path d="M1510,4119 l173,-65" stroke="black" stroke-width="5"/>
<path d="M8791,9315 l60,0 l0,60 l-60,0 z" fill="green"/>
<path d="M8821,9345 l176,-197.5" stroke="black" stroke-width="5"/>
<path d="M9862,9205 l60,0 l0,60 l-60,0 z" fill="green"/>
<path d="M9892,9235 l-78,60" stroke="black" stroke-width="5"/>
<path d="M6251,6097 l60,0 l0,60 l-60,0 z" fill="green"/>
<path d="M6281,6127 l-31,-57.5" stroke="black" stroke-width="5"/>
<path d="M1908,9472 l60,0 l0,60 l-60,0 z" fill="green"/>
<path d="M1938,9502 l-198,105.5" stroke="black" stroke-width="5"/>
<path d="M5202,6700 l60,0 l0,60 l-60,0 z" fill="green"/>
<path d="M5232,6730 l306.5,189.5" stroke="black" stroke-width="5"/>
<path d="M8158,2987 l60,0 l0,60 l-60,0 z" fill="green"/>
<path d="M8188,3017 l286,-856.5" stroke="black" stroke-width="5"/>
<path d="M270,4442 l60,0 l0,60 l-60,0 z" fill="green"/>
<path d="M300,4472 l40,92.5" stroke="black" stroke-width="5"/>
<path d="M6426,8391 l60,0 l0,60 l-60,0 z" fill="green"/>
<path d="M6456,8421 l832.5,-224" stroke="black" stroke-width="5"/>
<path d="M814,251 l60,0 l0,60 l-60,0 z" fill="green"/>
<path d="M844,281 l11,-45" stroke="black" stroke-width="5"/>
<path d="M7515,9380 l60,0 l0,60 l-60,0 z" fill="green"/>
<path d="M7545,9410 l167.5,236" stroke="black" stroke-width="5"/>
<path d="M518,3460 l60,0 l0,60 l-60,0 z" fill="green"/>
<path d="M548,3490 l205,239.5" stroke="black" stroke-width="5"/>
<path d="M9754,3126 l60,0 l0,60 l-60,0 z" fill="green"/>
<path d="M9784,3156 l-158.5,-56.5" stroke="black" stroke-width="5"/>
<path d="M8020,7727 l60,0 l0,60 l-60,0 z" fill="green"/>
<path d="M8050,7757 l87,-66" stroke="black" stroke-width="5"/>
<path d="M8618,5200 l60,0 l0,60 l-60,0 z" fill="green"/>
<path d="M8648,5230 l75.5,316.5" stroke="black" stroke-width="5"/>
<path d="M8731,4215 l60,0 l0,60 l-60,0 z" fill="green"/>
<path d="M8761,4245 l-231.5,154" stroke="black" stroke-width="5"/>
<path d="M7336,3166 l60,0 l0,60 l-60,0 z" fill="green"/>
<path d="M7366,3196 l-302,279.5" stroke="black" stroke-width="5"/>
<path d="M7634,3575 l60,0 l0,60 l-60,0 z" fill="green"/>
<path d="M7664,3605 l141,188.5" stroke="black" stroke-width="5"/>
<path d="M1036,5257 l60,0 l0,60 l-60,0 z" fill="green"/>
<path d="M1066,5287 l-9.5,1" stroke="black" stroke-width="5"/>
<path d="M1670,7839 l60,0 l0,60 l-60,0 z" fill="green"/>
<path d="M1700,7869 l-174,179" stroke="black" stroke-width="5"/>
<path d="M8283,9595 l60,0 l0,60 l-60,0 z" fill="green"/>
<path d="M8313,9625 l45,21" stroke="black" stroke-width="5"/>
<path d="M2275,1840 l60,0 l0,60 l-60,0 z" fill="green"/>
<path d="M2305,1870 l-85,77" stroke="black" stroke-width="5"/>
<path d="M4248,157 l60,0 l0,60 l-60,0 z" fill="green"/>
<path d="M4278,187 l-14,102" stroke="black" stroke-width="5"/>
<path d="M7597,3167 l60,0 l0,60 l-60,0 z" fill="green"/>
<path d="M7627,3197 l164,-680" stroke="black" stroke-width="5"/>
<path d="M385,9192 l60,0 l0,60 l-60,0 z" fill="green"/>
<path d="M415,9222 l-145.5,-55" stroke="black" stroke-width="5"/>
<path d="M7246,1675 l60,0 l0,60 l-60,0 z" fill="green"/>
<path d="M7276,1705 l-1079.5,437" stroke="black" stroke-width="5"/>
<path d="M2782,2285 l60,0 l0,60 l-60,0 z" fill="green"/>
<path d="M2812,2315 l45,-368" stroke="black" stroke-width="5"/>
<path d="M6225,8506 l60,0 l0,60 l-60,0 z" fill="green"/>
<path d="M6255,8536 l-472,-150" stroke="black" stroke-width="5"/>
<path d="M8126,4661 l60,0 l0,60 l-60,0 z" fill="green"/>
<path d="M8156,4691 l-351,115.5" stroke="black" stroke-width="5"/>
<path d="M1630,1368 l60,0 l0,60 l-60,0 z" fill="green"/>
<path d="M1660,1398 l-409,147" stroke="black" stroke-width="5"/>
<path d="M5447,7367 l60,0 l0,60 l-60,0 z" fill="green"/>
<path d="M5477,7397 l-1020,147" stroke="black" stroke-width="5"/>
<path d="M3190,9272 l60,0 l0,60 l-60,0 z" fill="green"/>
<path d="M3220,9302 l17,-163.5" stroke="black" stroke-width="5"/>
<path d="M8909,5943 l60,0 l0,60 l-60,0 z" fill="green"/>
<path d="M8939,5973 l289,914.5" stroke="black" stroke-width="5"/>
<path d="M3059,9495 l60,0 l0,60 l-60,0 z" fill="green"/>
<path d="M3089,9525 l506.5,126.5" stroke="black" stroke-width="5"/>
<path d="M3673,1802 l60,0 l0,60 l-60,0 z" fill="green"/>
<path d="M3703,1832 l143.5,-8.5" stroke="black" stroke-width="5"/>
<path d="M1951,1248 l60,0 l0,60 l-60,0 z" fill="green"/>
<path d="M1981,1278 l26.5,-12" stroke="black" stroke-width="5"/>
<path d="M5722,429 l60,0 l0,60 l-60,0 z" fill="green"/>
<path d="M5752,459 l-12.5,-69.5" stroke="black" stroke-width="5"/>
<path d="M9038,9803 l60,0 l0,60 l-60,0 z" fill="green"/>
<path d="M9068,9833 l-99,-96.5" stroke="black" stroke-width="5"/>
<path d="M525,6941 l60,0 l0,60 l-60,0 z" fill="green"/>
<path d="M555,6971 l10.5,-141" stroke="black" stroke-width="5"/>
<path d="M2531,6875 l60,0 l0,60 l-60,0 z" fill="green"/>
<path d="M2561,6905 l39,-26" stroke="black" stroke-width="5"/>
<path d="M3806,4292 l60,0 l0,60 l-60,0 z" fill="green"/>
<path d="M3836,4322 l-46,145.5" stroke="black" stroke-width="5"/>
<text font-size="153.39299776947408" text-anchor="middle" x="1573.5" y="6223.687549219316">
0
</text>
<text font-size="153.39299776947408" text-anchor="middle" x="9026.5" y="3182.6875492193158">
1
</text>
<text font-size="153.39299776947408" text-anchor="middle" x="2901.5" y="1185.187549219316">
2
</text>
<text font-size="153.39299776947408" text-anchor="middle" x="2388" y="4336.687549219316">
3
</text>
<text font-size="153.39299776947408" text-anchor="middle" x="3301" y="2220.6875492193158">
4
</text>
<text font-size="153.39299776947408" text-anchor="middle" x="9528.5" y="8381.187549219316">
5
</text>
<text font-size="153.39299776947408" text-anchor="middle" x="9448" y="4452.687549219316">
6
</text>
<text font-size="153.39299776947408" text-anchor="middle" x="2342" y="2987.6875492193158">
7
</text>
<text font-size="153.39299776947408" text-anchor="middle" x="7413.5" y="4517.687549219316">
8
</text>
<text font-size="153.39299776947408" text-anchor="middle" x="4117" y="1114.687549219316">
9
</text>
<text font-size="153.39299776947408" text-anchor="middle" x="574.5" y="8081.687549219316">
10
</text>
<text font-size="153.39299776947408" text-anchor="middle" x="8285" y="9212.687549219316">
11
</text>
<text font-size="153.39299776947408" text-anchor="middle" x="6018" y="7538.187549219316">
12
</text>
<text font-size="153.39299776947408" text-anchor="middle" x="2354.5" y="488.68754921931594">
13
</text>
<text font-size="153.39299776947408" text-anchor="middle" x="6312" y="607.6875492193159">
14
</text>
<text font-size="153.39299776947408" text-anchor="middle" x="7271" y="561.6875492193159">
15
</text>
<text font-size="153.39299776947408" text-anchor="middle" x="857" y="9106.687549219316">
16
</text>
<text font-size="153.39299776947408" text-anchor="middle" x="5430.5" y="5364.687549219316">
17
</text>
<text font-size="153.39299776947408" text-anchor="middle" x="5843" y="9407.187549219316">
18
</text>
<text font-size="153.39299776947408" text-anchor="middle" x="5301" y="6356.187549219316">
19
</text>
<text font-size="153.39299776947408" text-anchor="middle" x="303.5" y="6303.187549219316">
20
</text>
<text font-size="153.39299776947408" text-anchor="middle" x="4667" y="9173.687549219316">
21
</text>
<text font-size="153.39299776947408" text-anchor="middle" x="565.5" y="7515.187549219316">
22
</text>
<text font-size="153.39299776947408" text-anchor="middle" x="4929.5" y="8339.187549219316">
23
</text>
<text font-size="153.39299776947408" text-anchor="middle" x="5679" y="9998.687549219316">
24
</text>
<text font-size="153.39299776947408" text-anchor="middle" x="7882.5" y="9995.687549219316">
25
</text>
<text font-size="153.39299776947408" text-anchor="middle" x="3304.5" y="3151.1875492193158">
26
</text>
<text font-size="153.39299776947408" text-anchor="middle" x="6899" y="9218.187549219316">
27
</text>
<text font-size="153.39299776947408" text-anchor="middle" x="382" y="2847.6875492193158">
28
</text>
<text font-size="153.39299776947408" text-anchor="middle" x="7611.5" y="8980.187549219316">
29
</text>
<text font-size="153.39299776947408" text-anchor="middle" x="3307.5" y="6459.687549219316">
30
</text>
<text font-size="153.39299776947408" text-anchor="middle" x="4677.5" y="2149.1875492193158">
31
</text>
<text font-size="153.39299776947408" text-anchor="middle" x="8458" y="8601.187549219316">
32
</text>
<text font-size="153.39299776947408" text-anchor="middle" x="9455.5" y="9348.687549219316">
33
</text>
<text font-size="153.39299776947408" text-anchor="middle" x="8548.5" y="8252.687549219316">
34
</text>
<text font-size="153.39299776947408" text-anchor="middle" x="8192" y="632.6875492193159">
35
</text>
<text font-size="153.39299776947408" text-anchor="middle" x="5951.5" y="7984.187549219316">
36
</text>
<text font-size="153.39299776947408" text-anchor="middle" x="1568" y="8699.187549219316">
37
</text>
<text font-size="153.39299776947408" text-anchor="middle" x="2170.5" y="2717.1875492193158">
38
</text>
<text font-size="153.39299776947408" text-anchor="middle" x="7951.5" y="6583.687549219316">
39
</text>
<text font-size="153.39299776947408" text-anchor="middle" x="8285" y="8833.687549219316">
40
</text>
<text font-size="153.39299776947408" text-anchor="middle" x="1846" y="7279.187549219316">
41
</text>
<text font-size="153.39299776947408" text-anchor="middle" x="1550.5" y="550.6875492193159">
42
</text>
<text font-size="153.39299776947408" text-anchor="middle" x="5800" y="1008.1875492193159">
43
</text>
<text font-size="153.39299776947408" text-anchor="middle" x="1683" y="4107.687549219316">
44
</text>
<text font-size="153.39299776947408" text-anchor="middle" x="8997" y="9201.187549219316">
45
</text>
<text font-size="153.39299776947408" text-anchor="middle" x="9814" y="9348.687549219316">
46
</text>
<text font-size="153.39299776947408" text-anchor="middle" x="6250" y="6123.187549219316">
47
</text>
<text font-size="153.39299776947408" text-anchor="middle" x="1740" y="9661.187549219316">
48
</text>
<text font-size="153.39299776947408" text-anchor="middle" x="5538.5" y="6973.187549219316">
49
</text>
<text font-size="153.39299776947408" text-anchor="middle" x="8474" y="2214.1875492193158">
50
</text>
<text font-size="153.39299776947408" text-anchor="middle" x="340" y="4618.187549219316">
51
</text>
<text font-size="153.39299776947408" text-anchor="middle" x="7288.5" y="8250.687549219316">
52
</text>
<text font-size="153.39299776947408" text-anchor="middle" x="855" y="289.68754921931594">
53
</text>
<text font-size="153.39299776947408" text-anchor="middle" x="7712.5" y="9699.687549219316">
54
</text>
<text font-size="153.39299776947408" text-anchor="middle" x="753" y="3783.1875492193158">
55
</text>
<text font-size="153.39299776947408" text-anchor="middle" x="9625.5" y="3153.1875492193158">
56
</text>
<text font-size="153.39299776947408" text-anchor="middle" x="8137" y="7744.687549219316">
57
</text>
<text font-size="153.39299776947408" text-anchor="middle" x="8723.5" y="5600.187549219316">
58
</text>
<text font-size="153.39299776947408" text-anchor="middle" x="8529.5" y="4452.687549219316">
59
</text>
<text font-size="153.39299776947408" text-anchor="middle" x="7064" y="3529.1875492193158">
60
</text>
<text font-size="153.39299776947408" text-anchor="middle" x="7805" y="3847.1875492193158">
61
</text>
<text font-size="153.39299776947408" text-anchor="middle" x="1056.5" y="5341.687549219316">
62
</text>
<text font-size="153.39299776947408" text-anchor="middle" x="1526" y="8101.687549219316">
63
</text>
<text font-size="153.39299776947408" text-anchor="middle" x="8358" y="9699.687549219316">
64
</text>
<text font-size="153.39299776947408" text-anchor="middle" x="2220" y="2000.687549219316">
65
</text>
<text font-size="153.39299776947408" text-anchor="middle" x="4264" y="342.68754921931594">
66
</text>
<text font-size="153.39299776947408" text-anchor="middle" x="7791" y="2570.6875492193158">
67
</text>
<text font-size="153.39299776947408" text-anchor="middle" x="269.5" y="9220.687549219316">
68
</text>
<text font-size="153.39299776947408" text-anchor="middle" x="6196.5" y="2195.6875492193158">
69
</text>
<text font-size="153.39299776947408" text-anchor="middle" x="2857" y="2000.687549219316">
70
</text>
<text font-size="153.39299776947408" text-anchor="middle" x="5783" y="8439.687549219316">
71
</text>
<text font-size="153.39299776947408" text-anchor="middle" x="7805" y="4860.187549219316">
72
</text>
<text font-size="153.39299776947408" text-anchor="middle" x="1251" y="1598.687549219316">
73
</text>
<text font-size="153.39299776947408" text-anchor="middle" x="4457" y="7597.687549219316">
74
</text>
<text font-size="153.39299776947408" text-anchor="middle" x="3237" y="9192.187549219316">
75
</text>
<text font-size="153.39299776947408" text-anchor="middle" x="9228" y="6941.187549219316">
76
</text>
<text font-size="153.39299776947408" text-anchor="middle" x="3595.5" y="9705.187549219316">
77
</text>
<text font-size="153.39299776947408" text-anchor="middle" x="3846.5" y="1877.187549219316">
78
</text>
<text font-size="153.39299776947408" text-anchor="middle" x="2007.5" y="1319.687549219316">
79
</text>
<text font-size="153.39299776947408" text-anchor="middle" x="5739.5" y="443.18754921931594">
80
</text>
<text font-size="153.39299776947408" text-anchor="middle" x="8969" y="9790.187549219316">
81
</text>
<text font-size="153.39299776947408" text-anchor="middle" x="565.5" y="6883.687549219316">
82
</text>
<text font-size="153.39299776947408" text-anchor="middle" x="2600" y="6932.687549219316">
83
</text>
<text font-size="153.39299776947408" text-anchor="middle" x="3790" y="4521.187549219316">
84
</text>
</svg>