<svg viewBox="-100 -100 10200 10200" xmlns="http://www.w3.org/2000/svg">
<path d="M0,0 l10000,0 l0,10000 l-10000,0 z" fill="white"/>
<path d="M3933,5203 l1251,0 l0,2508 l-1251,0 z" fill="#fe00ff" stroke="black" stroke-width="5"/>
<path d="M330,7776 l4044,0 l0,524 l-4044,0 z" fill="#fc00ff" stroke="black" stroke-width="5"/>
<path d="M7258,523 l1938,0 l0,1593 l-1938,0 z" fill="#fe00ff" stroke="black" stroke-width="5"/>
<path d="M793,3346 l4684,0 l0,253 l-4684,0 z" fill="#fe00ff" stroke="black" stroke-width="5"/>
<path d="M5938,5602 l1030,0 l0,633 l-1030,0 z" fill="#fe00ff" stroke="black" stroke-width="5"/>
<path d="M0,2048 l785,0 l0,2525 l-785,0 z" fill="#fe00ff" stroke="black" stroke-width="5"/>
<path d="M330,8300 l3016,0 l0,1700 l-3016,0 z" fill="#d300ff" stroke="black" stroke-width="5"/>
<path d="M5594,1901 l1663,0 l0,1418 l-1663,0 z" fill="#fe00ff" stroke="black" stroke-width="5"/>
<path d="M5944,8211 l292,0 l0,263 l-292,0 z" fill="#fe00ff" stroke="black" stroke-width="5"/>
<path d="M7863,4643 l2137,0 l0,1190 l-2137,0 z" fill="#e300ff" stroke="black" stroke-width="5"/>
<path d="M4990,8815 l894,0 l0,1185 l-894,0 z" fill="#fe00ff" stroke="black" stroke-width="5"/>
<path d="M7863,5833 l2137,0 l0,1174 l-2137,0 z" fill="#e400ff" stroke="black" stroke-width="5"/>
<path d="M1515,2458 l685,0 l0,484 l-685,0 z" fill="#fe00ff" stroke="black" stroke-width="5"/>
<path d="M6642,9285 l464,0 l0,146 l-464,0 z" fill="#fe00ff" stroke="black" stroke-width="5"/>
<path d="M3933,4415 l1544,0 l0,788 l-1544,0 z" fill="#fe00ff" stroke="black" stroke-width="5"/>
<path d="M7257,2116 l2259,0 l0,1646 l-2259,0 z" fill="#d900ff" stroke="black" stroke-width="5"/>
<path d="M3038,0 l2556,0 l0,2168 l-2556,0 z" fill="#aa00ff" stroke="black" stroke-width="5"/>
<path d="M7257,3762 l2743,0 l0,510 l-2743,0 z" fill="#fb00ff" stroke="black" stroke-width="5"/>
<path d="M7540,7461 l717,0 l0,1861 l-717,0 z" fill="#fe00ff" stroke="black" stroke-width="5"/>
<path d="M4601,2579 l853,0 l0,708 l-853,0 z" fill="#fe00ff" stroke="black" stroke-width="5"/>
<path d="M5477,3998 l1491,0 l0,1604 l-1491,0 z" fill="#fe00ff" stroke="black" stroke-width="5"/>
<path d="M6682,7461 l833,0 l0,277 l-833,0 z" fill="#fe00ff" stroke="black" stroke-width="5"/>
<path d="M3829,2168 l1613,0 l0,359 l-1613,0 z" fill="#fe00ff" stroke="black" stroke-width="5"/>
<path d="M71,254 l826,0 l0,1794 l-826,0 z" fill="#fe00ff" stroke="black" stroke-width="5"/>
<path d="M5945,7 l679,0 l0,312 l-679,0 z" fill="#fe00ff" stroke="black" stroke-width="5"/>
<path d="M4374,7711 l779,0 l0,1062 l-779,0 z" fill="#fe00ff" stroke="black" stroke-width="5"/>
<path d="M5884,9501 l4080,0 l0,494 l-4080,0 z" fill="#fe00ff" stroke="black" stroke-width="5"/>
<path d="M9582,7007 l418,0 l0,1661 l-418,0 z" fill="#fe00ff" stroke="black" stroke-width="5"/>
<path d="M8257,7007 l1325,0 l0,2486 l-1325,0 z" fill="#fe00ff" stroke="black" stroke-width="5"/>
<path d="M928,0 l1720,0 l0,2453 l-1720,0 z" fill="#fe00ff" stroke="black" stroke-width="5"/>
<path d="M4892,3599 l585,0 l0,805 l-585,0 z" fill="#fe00ff" stroke="black" stroke-width="5"/>
<path d="M9516,252 l484,0 l0,3510 l-484,0 z" fill="#fd00ff" stroke="black" stroke-width="5"/>
<path d="M9184,40 l747,0 l0,212 l-747,0 z" fill="#fe00ff" stroke="black" stroke-width="5"/>
<path d="M830,3679 l4053,0 l0,714 l-4053,0 z" fill="#fe00ff" stroke="black" stroke-width="5"/>
<path d="M6514,7748 l1000,0 l0,1503 l-1000,0 z" fill="#fe00ff" stroke="black" stroke-width="5"/>
<path d="M3059,7006 l705,0 l0,566 l-705,0 z" fill="#fe00ff" stroke="black" stroke-width="5"/>
<path d="M5594,460 l1664,0 l0,1423 l-1664,0 z" fill="#fe00ff" stroke="black" stroke-width="5"/>
<path d="M1784,4887 l2149,0 l0,2119 l-2149,0 z" fill="#8600ff" stroke="black" stroke-width="5"/>
<path d="M5184,7153 l432,0 l0,902 l-432,0 z" fill="#fe00ff" stroke="black" stroke-width="5"/>
<path d="M57,4573 l1521,0 l0,1323 l-1521,0 z" fill="#fe00ff" stroke="black" stroke-width="5"/>
<path d="M6968,4272 l895,0 l0,3189 l-895,0 z" fill="#c900ff" stroke="black" stroke-width="5"/>
<path d="M2648,982 l390,0 l0,1470 l-390,0 z" fill="#fe00ff" stroke="black" stroke-width="5"/>
<path d="M1784,7006 l1258,0 l0,770 l-1258,0 z" fill="#fe00ff" stroke="black" stroke-width="5"/>
<path d="M6216,3319 l1041,0 l0,679 l-1041,0 z" fill="#e400ff" stroke="black" stroke-width="5"/>
<path d="M9582,8860 l233,0 l0,370 l-233,0 z" fill="#fe00ff" stroke="black" stroke-width="5"/>
<path d="M7870,4272 l1875,0 l0,371 l-1875,0 z" fill="#fe00ff" stroke="black" stroke-width="5"/>
<path d="M2031,4624 l613,0 l0,263 l-613,0 z" fill="#fe00ff" stroke="black" stroke-width="5"/>
<path d="M55,7727 l275,0 l0,2273 l-275,0 z" fill="#fe00ff" stroke="black" stroke-width="5"/>
<path d="M5477,3319 l739,0 l0,679 l-739,0 z" fill="#0e00ff" stroke="black" stroke-width="5"/>
<path d="M556,5896 l1228,0 l0,1880 l-1228,0 z" fill="#fe00ff" stroke="black" stroke-width="5"/>
<path d="M3346,8797 l908,0 l0,1203 l-908,0 z" fill="#fe00ff" stroke="black" stroke-width="5"/>
<path d="M4417,7535 l60,0 l0,60 l-60,0 z" fill="green"/>
<path d="M4447,7565 l111.5,-1108" stroke="black" stroke-width="5"/>
<path d="M2392,7884 l60,0 l0,60 l-60,0 z" fill="green"/>
<path d="M2422,7914 l-70,124" stroke="black" stroke-width="5"/>
<path d="M8137,2085 l60,0 l0,60 l-60,0 z" fill="green"/>
<path d="M8167,2115 l60,-795.5" stroke="black" stroke-width="5"/>
<path d="M5409,3550 l60,0 l0,60 l-60,0 z" fill="green"/>
<path d="M5439,3580 l-2304,-107.5" stroke="black" stroke-width="5"/>
<path d="M6551,5572 l60,0 l0,60 l-60,0 z" fill="green"/>
<path d="M6581,5602 l-128,316.5" stroke="black" stroke-width="5"/>
<path d="M493,3287 l60,0 l0,60 l-60,0 z" fill="green"/>
<path d="M523,3317 l-130.5,-6.5" stroke="black" stroke-width="5"/>
<path d="M2922,9393 l60,0 l0,60 l-60,0 z" fill="green"/>
<path d="M2952,9423 l-1114,-273" stroke="black" stroke-width="5"/>
<path d="M6126,3288 l60,0 l0,60 l-60,0 z" fill="green"/>
<path d="M6156,3318 l269.5,-708" stroke="black" stroke-width="5"/>
<path d="M6037,8297 l60,0 l0,60 l-60,0 z" fill="green"/>
<path d="M6067,8327 l23,15.5" stroke="black" stroke-width="5"/>
<path d="M8279,4868 l60,0 l0,60 l-60,0 z" fill="green"/>
<path d="M8309,4898 l622.5,340" stroke="black" stroke-width="5"/>
<path d="M5777,9667 l60,0 l0,60 l-60,0 z" fill="green"/>
<path d="M5807,9697 l-370,-289.5" stroke="black" stroke-width="5"/>
<path d="M8729,5878 l60,0 l0,60 l-60,0 z" fill="green"/>
<path d="M8759,5908 l172.5,512" stroke="black" stroke-width="5"/>
<path d="M1794,2722 l60,0 l0,60 l-60,0 z" fill="green"/>
<path d="M1824,2752 l33.5,-52" stroke="black" stroke-width="5"/>
<path d="M6871,9377 l60,0 l0,60 l-60,0 z" fill="green"/>
<path d="M6901,9407 l-27,-49" stroke="black" stroke-width="5"/>
<path d="M4713,4547 l60,0 l0,60 l-60,0 z" fill="green"/>
<path d="M4743,4577 l-38,232" stroke="black" stroke-width="5"/>
<path d="M8225,3508 l60,0 l0,60 l-60,0 z" fill="green"/>
<path d="M8255,3538 l131.5,-599" stroke="black" stroke-width="5"/>
<path d="M4720,1491 l60,0 l0,60 l-60,0 z" fill="green"/>
<path d="M4750,1521 l-434,-437" stroke="black" stroke-width="5"/>
<path d="M8480,4009 l60,0 l0,60 l-60,0 z" fill="green"/>
<path d="M8510,4039 l118.5,-22" stroke="black" stroke-width="5"/>
<path d="M8057,8454 l60,0 l0,60 l-60,0 z" fill="green"/>
<path d="M8087,8484 l-188.5,-92.5" stroke="black" stroke-width="5"/>
<path d="M5136,2923 l60,0 l0,60 l-60,0 z" fill="green"/>
<path d="M5166,2953 l-138.5,-20" stroke="black" stroke-width="5"/>
<path d="M6576,3968 l60,0 l0,60 l-60,0 z" fill="green"/>
<path d="M6606,3998 l-383.5,802" stroke="black" stroke-width="5"/>
<path d="M7143,7431 l60,0 l0,60 l-60,0 z" fill="green"/>
<path d="M7173,7461 l-74.5,138.5" stroke="black" stroke-width="5"/>
<path d="M4613,2138 l60,0 l0,60 l-60,0 z" fill="green"/>
<path d="M4643,2168 l-7.5,179.5" stroke="black" stroke-width="5"/>
<path d="M85,1542 l60,0 l0,60 l-60,0 z" fill="green"/>
<path d="M115,1572 l369,-421" stroke="black" stroke-width="5"/>
<path d="M6250,77 l60,0 l0,60 l-60,0 z" fill="green"/>
<path d="M6280,107 l4.5,56" stroke="black" stroke-width="5"/>
<path d="M4344,7693 l60,0 l0,60 l-60,0 z" fill="green"/>
<path d="M4374,7723 l389.5,519" stroke="black" stroke-width="5"/>
<path d="M6923,9729 l60,0 l0,60 l-60,0 z" fill="green"/>
<path d="M6953,9759 l971,-11" stroke="black" stroke-width="5"/>
<path d="M9969,7758 l60,0 l0,60 l-60,0 z" fill="green"/>
<path d="M9999,7788 l-208,49.5" stroke="black" stroke-width="5"/>
<path d="M9366,7459 l60,0 l0,60 l-60,0 z" fill="green"/>
<path d="M9396,7489 l-476.5,761" stroke="black" stroke-width="5"/>
<path d="M1147,1368 l60,0 l0,60 l-60,0 z" fill="green"/>
<path d="M1177,1398 l611,-171.5" stroke="black" stroke-width="5"/>
<path d="M5446,3758 l60,0 l0,60 l-60,0 z" fill="green"/>
<path d="M5476,3788 l-291.5,213.5" stroke="black" stroke-width="5"/>
<path d="M9785,2463 l60,0 l0,60 l-60,0 z" fill="green"/>
<path d="M9815,2493 l-57,-486" stroke="black" stroke-width="5"/>
<path d="M9650,221 l60,0 l0,60 l-60,0 z" fill="green"/>
<path d="M9680,251 l-122.5,-105" stroke="black" stroke-width="5"/>
<path d="M4190,3944 l60,0 l0,60 l-60,0 z" fill="green"/>
<path d="M4220,3974 l-1363.5,62" stroke="black" stroke-width="5"/>
<path d="M7471,8745 l60,0 l0,60 l-60,0 z" fill="green"/>
<path d="M7501,8775 l-487,-275.5" stroke="black" stroke-width="5"/>
<path d="M3049,6977 l60,0 l0,60 l-60,0 z" fill="green"/>
<path d="M3079,7007 l332.5,282" stroke="black" stroke-width="5"/>
<path d="M5968,1686 l60,0 l0,60 l-60,0 z" fill="green"/>
<path d="M5998,1716 l428,-544.5" stroke="black" stroke-width="5"/>
<path d="M3264,6301 l60,0 l0,60 l-60,0 z" fill="green"/>
<path d="M3294,6331 l-435.5,-384.5" stroke="black" stroke-width="5"/>
<path d="M5225,7377 l60,0 l0,60 l-60,0 z" fill="green"/>
<path d="M5255,7407 l145,197" stroke="black" stroke-width="5"/>
<path d="M31,4554 l60,0 l0,60 l-60,0 z" fill="green"/>
<path d="M61,4584 l756.5,650.5" stroke="black" stroke-width="5"/>
<path d="M7832,4916 l60,0 l0,60 l-60,0 z" fill="green"/>
<path d="M7862,4946 l-446.5,920.5" stroke="black" stroke-width="5"/>
<path d="M3007,1708 l60,0 l0,60 l-60,0 z" fill="green"/>
<path d="M3037,1738 l-194,-21" stroke="black" stroke-width="5"/>
<path d="M2135,7416 l60,0 l0,60 l-60,0 z" fill="green"/>
<path d="M2165,7446 l248,-55" stroke="black" stroke-width="5"/>
<path d="M6186,3575 l60,0 l0,60 l-60,0 z" fill="green"/>
<path d="M6216,3605 l520.5,53.5" stroke="black" stroke-width="5"/>
<path d="M9591,9054 l60,0 l0,60 l-60,0 z" fill="green"/>
<path d="M9621,9084 l77.5,-39" stroke="black" stroke-width="5"/>
<path d="M8516,4612 l60,0 l0,60 l-60,0 z" fill="green"/>
<path d="M8546,4642 l261.5,-184.5" stroke="black" stroke-width="5"/>
<path d="M2253,4856 l60,0 l0,60 l-60,0 z" fill="green"/>
<path d="M2283,4886 l54.5,-130.5" stroke="black" stroke-width="5"/>
<path d="M299,8734 l60,0 l0,60 l-60,0 z" fill="green"/>
<path d="M329,8764 l-136.5,99.5" stroke="black" stroke-width="5"/>
<path d="M5783,3830 l60,0 l0,60 l-60,0 z" fill="green"/>
<path d="M5813,3860 l33.5,-201.5" stroke="black" stroke-width="5"/>
<path d="M1753,7474 l60,0 l0,60 l-60,0 z" fill="green"/>
<path d="M1783,7504 l-613,-668" stroke="black" stroke-width="5"/>
<path d="M3316,9630 l60,0 l0,60 l-60,0 z" fill="green"/>
<path d="M3346,9660 l454,-261.5" stroke="black" stroke-width="5"/>
<text font-size="198.02950859533485" text-anchor="middle" x="4558.5" y="6526.310328008367">
0
</text>
<text font-size="198.02950859533485" text-anchor="middle" x="2352" y="8107.310328008367">
1
</text>
<text font-size="198.02950859533485" text-anchor="middle" x="8227" y="1388.8103280083672">
2
</text>
<text font-size="198.02950859533485" text-anchor="middle" x="3135" y="3541.8103280083674">
3
</text>
<text font-size="198.02950859533485" text-anchor="middle" x="6453" y="5987.810328008367">
4
</text>
<text font-size="198.02950859533485" text-anchor="middle" x="392.5" y="3379.8103280083674">
5
</text>
<text font-size="198.02950859533485" text-anchor="middle" x="1838" y="9219.310328008367">
6
</text>
<text font-size="198.02950859533485" text-anchor="middle" x="6425.5" y="2679.3103280083674">
7
</text>
<text font-size="198.02950859533485" text-anchor="middle" x="6090" y="8411.810328008367">
8
</text>
<text font-size="198.02950859533485" text-anchor="middle" x="8931.5" y="5307.310328008367">
9
</text>
<text font-size="198.02950859533485" text-anchor="middle" x="5437" y="9476.810328008367">
10
</text>
<text font-size="198.02950859533485" text-anchor="middle" x="8931.5" y="6489.310328008367">
11
</text>
<text font-size="198.02950859533485" text-anchor="middle" x="1857.5" y="2769.3103280083674">
12
</text>
<text font-size="198.02950859533485" text-anchor="middle" x="6874" y="9427.310328008367">
13
</text>
<text font-size="198.02950859533485" text-anchor="middle" x="4705" y="4878.310328008367">
14
</text>
<text font-size="198.02950859533485" text-anchor="middle" x="8386.5" y="3008.3103280083674">
15
</text>
<text font-size="198.02950859533485" text-anchor="middle" x="4316" y="1153.3103280083672">
16
</text>
<text font-size="198.02950859533485" text-anchor="middle" x="8628.5" y="4086.3103280083674">
17
</text>
<text font-size="198.02950859533485" text-anchor="middle" x="7898.5" y="8460.810328008367">
18
</text>
<text font-size="198.02950859533485" text-anchor="middle" x="5027.5" y="3002.3103280083674">
19
</text>
<text font-size="198.02950859533485" text-anchor="middle" x="6222.5" y="4869.310328008367">
20
</text>
<text font-size="198.02950859533485" text-anchor="middle" x="7098.5" y="7668.810328008367">
21
</text>
<text font-size="198.02950859533485" text-anchor="middle" x="4635.5" y="2416.8103280083674">
22
</text>
<text font-size="198.02950859533485" text-anchor="middle" x="484" y="1220.3103280083672">
23
</text>
<text font-size="198.02950859533485" text-anchor="middle" x="6284.5" y="232.3103280083672">
24
</text>
<text font-size="198.02950859533485" text-anchor="middle" x="4763.5" y="8311.310328008367">
25
</text>
<text font-size="198.02950859533485" text-anchor="middle" x="7924" y="9817.310328008367">
26
</text>
<text font-size="198.02950859533485" text-anchor="middle" x="9791" y="7906.810328008367">
27
</text>
<text font-size="198.02950859533485" text-anchor="middle" x="8919.5" y="8319.310328008367">
28
</text>
<text font-size="198.02950859533485" text-anchor="middle" x="1788" y="1295.8103280083672">
29
</text>
<text font-size="198.02950859533485" text-anchor="middle" x="5184.5" y="4070.8103280083674">
30
</text>
<text font-size="198.02950859533485" text-anchor="middle" x="9758" y="2076.3103280083674">
31
</text>
<text font-size="198.02950859533485" text-anchor="middle" x="9557.5" y="215.3103280083672">
32
</text>
<text font-size="198.02950859533485" text-anchor="middle" x="2856.5" y="4105.310328008367">
33
</text>
<text font-size="198.02950859533485" text-anchor="middle" x="7014" y="8568.810328008367">
34
</text>
<text font-size="198.02950859533485" text-anchor="middle" x="3411.5" y="7358.310328008367">
35
</text>
<text font-size="198.02950859533485" text-anchor="middle" x="6426" y="1240.8103280083672">
36
</text>
<text font-size="198.02950859533485" text-anchor="middle" x="2858.5" y="6015.810328008367">
37
</text>
<text font-size="198.02950859533485" text-anchor="middle" x="5400" y="7673.310328008367">
38
</text>
<text font-size="198.02950859533485" text-anchor="middle" x="817.5" y="5303.810328008367">
39
</text>
<text font-size="198.02950859533485" text-anchor="middle" x="7415.5" y="5935.810328008367">
40
</text>
<text font-size="198.02950859533485" text-anchor="middle" x="2843" y="1786.3103280083672">
41
</text>
<text font-size="198.02950859533485" text-anchor="middle" x="2413" y="7460.310328008367">
42
</text>
<text font-size="198.02950859533485" text-anchor="middle" x="6736.5" y="3727.8103280083674">
43
</text>
<text font-size="198.02950859533485" text-anchor="middle" x="9698.5" y="9114.310328008367">
44
</text>
<text font-size="198.02950859533485" text-anchor="middle" x="8807.5" y="4526.810328008367">
45
</text>
<text font-size="198.02950859533485" text-anchor="middle" x="2337.5" y="4824.810328008367">
46
</text>
<text font-size="198.02950859533485" text-anchor="middle" x="192.5" y="8932.810328008367">
47
</text>
<text font-size="198.02950859533485" text-anchor="middle" x="5846.5" y="3727.8103280083674">
48
</text>
<text font-size="198.02950859533485" text-anchor="middle" x="1170" y="6905.310328008367">
49
</text>
<text font-size="198.02950859533485" text-anchor="middle" x="3800" y="9467.810328008367">
50
</text>
</svg>