<svg viewBox="-100 -100 10200 10200" xmlns="http://www.w3.org/2000/svg">
<path d="M0,0 l10000,0 l0,10000 l-10000,0 z" fill="white"/>
<path d="M2354,0 l1360,0 l0,705 l-1360,0 z" fill="#7800ff" stroke="black" stroke-width="5"/>
<path d="M8524,1281 l1253,0 l0,1253 l-1253,0 z" fill="#fe00ff" stroke="black" stroke-width="5"/>
<path d="M4249,9788 l1927,0 l0,212 l-1927,0 z" fill="#fe00ff" stroke="black" stroke-width="5"/>
<path d="M1585,1580 l1092,0 l0,522 l-1092,0 z" fill="#0500ff" stroke="black" stroke-width="5"/>
<path d="M3714,526 l551,0 l0,551 l-551,0 z" fill="#fe00ff" stroke="black" stroke-width="5"/>
<path d="M4602,4806 l1818,0 l0,1529 l-1818,0 z" fill="#fe00ff" stroke="black" stroke-width="5"/>
<path d="M2990,6685 l767,0 l0,767 l-767,0 z" fill="#fe00ff" stroke="black" stroke-width="5"/>
<path d="M1585,705 l1171,0 l0,875 l-1171,0 z" fill="#fe00ff" stroke="black" stroke-width="5"/>
<path d="M6851,5588 l674,0 l0,1021 l-674,0 z" fill="#fe00ff" stroke="black" stroke-width="5"/>
<path d="M6719,7810 l1103,0 l0,1354 l-1103,0 z" fill="#fe00ff" stroke="black" stroke-width="5"/>
<path d="M6276,8018 l443,0 l0,717 l-443,0 z" fill="#9900ff" stroke="black" stroke-width="5"/>
<path d="M2102,454 l252,0 l0,251 l-252,0 z" fill="#fe00ff" stroke="black" stroke-width="5"/>
<path d="M7822,5468 l2178,0 l0,650 l-2178,0 z" fill="#7200ff" stroke="black" stroke-width="5"/>
<path d="M2557,7644 l360,0 l0,718 l-360,0 z" fill="#fe00ff" stroke="black" stroke-width="5"/>
<path d="M3136,5741 l676,0 l0,675 l-676,0 z" fill="#fe00ff" stroke="black" stroke-width="5"/>
<path d="M8027,8563 l1347,0 l0,1065 l-1347,0 z" fill="#fe00ff" stroke="black" stroke-width="5"/>
<path d="M3385,1319 l916,0 l0,916 l-916,0 z" fill="#fe00ff" stroke="black" stroke-width="5"/>
<path d="M5499,8018 l777,0 l0,561 l-777,0 z" fill="#fe00ff" stroke="black" stroke-width="5"/>
<path d="M5822,6691 l897,0 l0,1327 l-897,0 z" fill="#fe00ff" stroke="black" stroke-width="5"/>
<path d="M1850,8716 l889,0 l0,1091 l-889,0 z" fill="#fe00ff" stroke="black" stroke-width="5"/>
<path d="M9374,8809 l549,0 l0,1099 l-549,0 z" fill="#fe00ff" stroke="black" stroke-width="5"/>
<path d="M2074,4499 l568,0 l0,568 l-568,0 z" fill="#fe00ff" stroke="black" stroke-width="5"/>
<path d="M4640,1834 l1085,0 l0,1085 l-1085,0 z" fill="#fe00ff" stroke="black" stroke-width="5"/>
<path d="M2014,6453 l543,0 l0,1551 l-543,0 z" fill="#fe00ff" stroke="black" stroke-width="5"/>
<path d="M1034,7849 l816,0 l0,2151 l-816,0 z" fill="#fe00ff" stroke="black" stroke-width="5"/>
<path d="M6925,6962 l387,0 l0,387 l-387,0 z" fill="#fe00ff" stroke="black" stroke-width="5"/>
<path d="M1025,6610 l414,0 l0,413 l-414,0 z" fill="#fe00ff" stroke="black" stroke-width="5"/>
<path d="M6427,2611 l1519,0 l0,760 l-1519,0 z" fill="#fe00ff" stroke="black" stroke-width="5"/>
<path d="M7220,0 l850,0 l0,768 l-850,0 z" fill="#fe00ff" stroke="black" stroke-width="5"/>
<path d="M0,2921 l626,0 l0,629 l-626,0 z" fill="#fe00ff" stroke="black" stroke-width="5"/>
<path d="M8718,8152 l338,0 l0,411 l-338,0 z" fill="#fe00ff" stroke="black" stroke-width="5"/>
<path d="M5499,8735 l945,0 l0,945 l-945,0 z" fill="#fe00ff" stroke="black" stroke-width="5"/>
<path d="M6764,3840 l2327,0 l0,1628 l-2327,0 z" fill="#fe00ff" stroke="black" stroke-width="5"/>
<path d="M245,8880 l789,0 l0,1120 l-789,0 z" fill="#fe00ff" stroke="black" stroke-width="5"/>
<path d="M5905,1706 l382,0 l0,382 l-382,0 z" fill="#fe00ff" stroke="black" stroke-width="5"/>
<path d="M4640,2995 l1780,0 l0,1811 l-1780,0 z" fill="#fe00ff" stroke="black" stroke-width="5"/>
<path d="M6444,9164 l1208,0 l0,836 l-1208,0 z" fill="#4a00ff" stroke="black" stroke-width="5"/>
<path d="M5956,100 l1264,0 l0,1227 l-1264,0 z" fill="#fe00ff" stroke="black" stroke-width="5"/>
<path d="M7525,5468 l1,0 l0,2342 l-1,0 z" fill="#0000ff" stroke="black" stroke-width="5"/>
<path d="M2739,8362 l1,0 l0,1638 l-1,0 z" fill="#0000ff" stroke="black" stroke-width="5"/>
<path d="M3489,4216 l768,0 l0,767 l-768,0 z" fill="#fe00ff" stroke="black" stroke-width="5"/>
<path d="M8990,2969 l664,0 l0,663 l-664,0 z" fill="#fe00ff" stroke="black" stroke-width="5"/>
<path d="M50,7023 l1964,0 l0,826 l-1964,0 z" fill="#fe00ff" stroke="black" stroke-width="5"/>
<path d="M0,1966 l825,0 l0,955 l-825,0 z" fill="#2200ff" stroke="black" stroke-width="5"/>
<path d="M0,5596 l1164,0 l0,1014 l-1164,0 z" fill="#fe00ff" stroke="black" stroke-width="5"/>
<path d="M8118,409 l371,0 l0,546 l-371,0 z" fill="#fe00ff" stroke="black" stroke-width="5"/>
<path d="M6601,1532 l1276,0 l0,1079 l-1276,0 z" fill="#fe00ff" stroke="black" stroke-width="5"/>
<path d="M4985,7539 l514,0 l0,2249 l-514,0 z" fill="#fe00ff" stroke="black" stroke-width="5"/>
<path d="M8489,0 l1481,0 l0,662 l-1481,0 z" fill="#fe00ff" stroke="black" stroke-width="5"/>
<path d="M2677,1920 l573,0 l0,573 l-573,0 z" fill="#fe00ff" stroke="black" stroke-width="5"/>
<path d="M4141,0 l3079,0 l0,100 l-3079,0 z" fill="#fe00ff" stroke="black" stroke-width="5"/>
<path d="M6719,7349 l806,0 l0,461 l-806,0 z" fill="#1d00ff" stroke="black" stroke-width="5"/>
<path d="M3152,9687 l664,0 l0,313 l-664,0 z" fill="#fe00ff" stroke="black" stroke-width="5"/>
<path d="M5590,7051 l232,0 l0,463 l-232,0 z" fill="#fe00ff" stroke="black" stroke-width="5"/>
<path d="M5598,6335 l638,0 l0,356 l-638,0 z" fill="#fe00ff" stroke="black" stroke-width="5"/>
<path d="M7526,5468 l296,0 l0,2342 l-296,0 z" fill="#b600ff" stroke="black" stroke-width="5"/>
<path d="M1612,6359 l392,0 l0,391 l-392,0 z" fill="#fe00ff" stroke="black" stroke-width="5"/>
<path d="M9056,8152 l944,0 l0,411 l-944,0 z" fill="#2c00ff" stroke="black" stroke-width="5"/>
<path d="M2917,7452 l1026,0 l0,897 l-1026,0 z" fill="#fe00ff" stroke="black" stroke-width="5"/>
<path d="M0,3550 l1137,0 l0,2046 l-1137,0 z" fill="#fa00ff" stroke="black" stroke-width="5"/>
<path d="M8489,662 l1511,0 l0,619 l-1511,0 z" fill="#6d00ff" stroke="black" stroke-width="5"/>
<path d="M7822,6118 l1983,0 l0,2034 l-1983,0 z" fill="#fe00ff" stroke="black" stroke-width="5"/>
<path d="M6544,5468 l307,0 l0,307 l-307,0 z" fill="#fe00ff" stroke="black" stroke-width="5"/>
<path d="M0,910 l1585,0 l0,1056 l-1585,0 z" fill="#cc00ff" stroke="black" stroke-width="5"/>
<path d="M577,598 l312,0 l0,312 l-312,0 z" fill="#fe00ff" stroke="black" stroke-width="5"/>
<path d="M2740,8667 l1794,0 l0,1020 l-1794,0 z" fill="#fe00ff" stroke="black" stroke-width="5"/>
<path d="M7652,9628 l1722,0 l0,372 l-1722,0 z" fill="#3300ff" stroke="black" stroke-width="5"/>
<path d="M825,1966 l365,0 l0,1518 l-365,0 z" fill="#3400ff" stroke="black" stroke-width="5"/>
<path d="M7822,8152 l896,0 l0,411 l-896,0 z" fill="#0300ff" stroke="black" stroke-width="5"/>
<path d="M4534,8080 l451,0 l0,899 l-451,0 z" fill="#fe00ff" stroke="black" stroke-width="5"/>
<path d="M6420,3546 l344,0 l0,1922 l-344,0 z" fill="#fe00ff" stroke="black" stroke-width="5"/>
<path d="M6764,3371 l2226,0 l0,469 l-2226,0 z" fill="#8600ff" stroke="black" stroke-width="5"/>
<path d="M3757,6839 l250,0 l0,419 l-250,0 z" fill="#fe00ff" stroke="black" stroke-width="5"/>
<path d="M1190,2102 l1487,0 l0,1382 l-1487,0 z" fill="#fe00ff" stroke="black" stroke-width="5"/>
<path d="M1137,3484 l1156,0 l0,578 l-1156,0 z" fill="#fe00ff" stroke="black" stroke-width="5"/>
<path d="M2677,2493 l1963,0 l0,1723 l-1963,0 z" fill="#fe00ff" stroke="black" stroke-width="5"/>
<path d="M2860,40 l60,0 l0,60 l-60,0 z" fill="green"/>
<path d="M2890,70 l144,282.5" stroke="black" stroke-width="5"/>
<path d="M9120,1877 l60,0 l0,60 l-60,0 z" fill="green"/>
<path d="M9150,1907 l0.5,0.5" stroke="black" stroke-width="5"/>
<path d="M5182,9818 l60,0 l0,60 l-60,0 z" fill="green"/>
<path d="M5212,9848 l0.5,46" stroke="black" stroke-width="5"/>
<path d="M1555,1604 l60,0 l0,60 l-60,0 z" fill="green"/>
<path d="M1585,1634 l546,207" stroke="black" stroke-width="5"/>
<path d="M3959,771 l60,0 l0,60 l-60,0 z" fill="green"/>
<path d="M3989,801 l0.5,0.5" stroke="black" stroke-width="5"/>
<path d="M5481,5396 l60,0 l0,60 l-60,0 z" fill="green"/>
<path d="M5511,5426 l0,144.5" stroke="black" stroke-width="5"/>
<path d="M3343,7038 l60,0 l0,60 l-60,0 z" fill="green"/>
<path d="M3373,7068 l0.5,0.5" stroke="black" stroke-width="5"/>
<path d="M2082,907 l60,0 l0,60 l-60,0 z" fill="green"/>
<path d="M2112,937 l58.5,205.5" stroke="black" stroke-width="5"/>
<path d="M7268,6068 l60,0 l0,60 l-60,0 z" fill="green"/>
<path d="M7298,6098 l-110,0.5" stroke="black" stroke-width="5"/>
<path d="M7365,8457 l60,0 l0,60 l-60,0 z" fill="green"/>
<path d="M7395,8487 l-124.5,0" stroke="black" stroke-width="5"/>
<path d="M6246,7988 l60,0 l0,60 l-60,0 z" fill="green"/>
<path d="M6276,8018 l221.5,358.5" stroke="black" stroke-width="5"/>
<path d="M2198,549 l60,0 l0,60 l-60,0 z" fill="green"/>
<path d="M2228,579 l0,0.5" stroke="black" stroke-width="5"/>
<path d="M7869,6087 l60,0 l0,60 l-60,0 z" fill="green"/>
<path d="M7899,6117 l1012,-324" stroke="black" stroke-width="5"/>
<path d="M2886,7973 l60,0 l0,60 l-60,0 z" fill="green"/>
<path d="M2916,8003 l-179,0" stroke="black" stroke-width="5"/>
<path d="M3444,6048 l60,0 l0,60 l-60,0 z" fill="green"/>
<path d="M3474,6078 l0,0.5" stroke="black" stroke-width="5"/>
<path d="M8679,9215 l60,0 l0,60 l-60,0 z" fill="green"/>
<path d="M8709,9245 l-8.5,-149.5" stroke="black" stroke-width="5"/>
<path d="M3813,1747 l60,0 l0,60 l-60,0 z" fill="green"/>
<path d="M3843,1777 l0,0" stroke="black" stroke-width="5"/>
<path d="M5785,8017 l60,0 l0,60 l-60,0 z" fill="green"/>
<path d="M5815,8047 l72.5,251.5" stroke="black" stroke-width="5"/>
<path d="M6241,7630 l60,0 l0,60 l-60,0 z" fill="green"/>
<path d="M6271,7660 l-0.5,-305.5" stroke="black" stroke-width="5"/>
<path d="M2365,9231 l60,0 l0,60 l-60,0 z" fill="green"/>
<path d="M2395,9261 l-100.5,0.5" stroke="black" stroke-width="5"/>
<path d="M9344,9328 l60,0 l0,60 l-60,0 z" fill="green"/>
<path d="M9374,9358 l274.5,0.5" stroke="black" stroke-width="5"/>
<path d="M2328,4753 l60,0 l0,60 l-60,0 z" fill="green"/>
<path d="M2358,4783 l0,0" stroke="black" stroke-width="5"/>
<path d="M5152,2346 l60,0 l0,60 l-60,0 z" fill="green"/>
<path d="M5182,2376 l0.5,0.5" stroke="black" stroke-width="5"/>
<path d="M1984,7198 l60,0 l0,60 l-60,0 z" fill="green"/>
<path d="M2014,7228 l271.5,0.5" stroke="black" stroke-width="5"/>
<path d="M1166,9601 l60,0 l0,60 l-60,0 z" fill="green"/>
<path d="M1196,9631 l246,-706.5" stroke="black" stroke-width="5"/>
<path d="M7088,7125 l60,0 l0,60 l-60,0 z" fill="green"/>
<path d="M7118,7155 l0.5,0.5" stroke="black" stroke-width="5"/>
<path d="M1202,6786 l60,0 l0,60 l-60,0 z" fill="green"/>
<path d="M1232,6816 l0,0.5" stroke="black" stroke-width="5"/>
<path d="M7156,2581 l60,0 l0,60 l-60,0 z" fill="green"/>
<path d="M7186,2611 l0.5,380" stroke="black" stroke-width="5"/>
<path d="M7541,239 l60,0 l0,60 l-60,0 z" fill="green"/>
<path d="M7571,269 l74,115" stroke="black" stroke-width="5"/>
<path d="M281,3205 l60,0 l0,60 l-60,0 z" fill="green"/>
<path d="M311,3235 l2,0.5" stroke="black" stroke-width="5"/>
<path d="M9025,8435 l60,0 l0,60 l-60,0 z" fill="green"/>
<path d="M9055,8465 l-168,-107.5" stroke="black" stroke-width="5"/>
<path d="M5941,9177 l60,0 l0,60 l-60,0 z" fill="green"/>
<path d="M5971,9207 l0.5,0.5" stroke="black" stroke-width="5"/>
<path d="M7174,4642 l60,0 l0,60 l-60,0 z" fill="green"/>
<path d="M7204,4672 l723.5,-18" stroke="black" stroke-width="5"/>
<path d="M1003,9637 l60,0 l0,60 l-60,0 z" fill="green"/>
<path d="M1033,9667 l-393.5,-227" stroke="black" stroke-width="5"/>
<path d="M6066,1867 l60,0 l0,60 l-60,0 z" fill="green"/>
<path d="M6096,1897 l0,0" stroke="black" stroke-width="5"/>
<path d="M5229,4775 l60,0 l0,60 l-60,0 z" fill="green"/>
<path d="M5259,4805 l271,-904.5" stroke="black" stroke-width="5"/>
<path d="M7621,9889 l60,0 l0,60 l-60,0 z" fill="green"/>
<path d="M7651,9919 l-603,-337" stroke="black" stroke-width="5"/>
<path d="M6558,665 l60,0 l0,60 l-60,0 z" fill="green"/>
<path d="M6588,695 l0,18.5" stroke="black" stroke-width="5"/>
<path d="M7495,6037 l60,0 l0,60 l-60,0 z" fill="green"/>
<path d="M7525,6067 l0.5,572" stroke="black" stroke-width="5"/>
<path d="M2709,9481 l60,0 l0,60 l-60,0 z" fill="green"/>
<path d="M2739,9511 l0.5,-330" stroke="black" stroke-width="5"/>
<path d="M3843,4569 l60,0 l0,60 l-60,0 z" fill="green"/>
<path d="M3873,4599 l0,0.5" stroke="black" stroke-width="5"/>
<path d="M9292,3270 l60,0 l0,60 l-60,0 z" fill="green"/>
<path d="M9322,3300 l0,0.5" stroke="black" stroke-width="5"/>
<path d="M1312,7717 l60,0 l0,60 l-60,0 z" fill="green"/>
<path d="M1342,7747 l-310,-311" stroke="black" stroke-width="5"/>
<path d="M-14,2298 l60,0 l0,60 l-60,0 z" fill="green"/>
<path d="M16,2328 l396.5,115.5" stroke="black" stroke-width="5"/>
<path d="M64,5566 l60,0 l0,60 l-60,0 z" fill="green"/>
<path d="M94,5596 l488,507" stroke="black" stroke-width="5"/>
<path d="M8360,652 l60,0 l0,60 l-60,0 z" fill="green"/>
<path d="M8390,682 l-86.5,0" stroke="black" stroke-width="5"/>
<path d="M7209,2139 l60,0 l0,60 l-60,0 z" fill="green"/>
<path d="M7239,2169 l0,-97.5" stroke="black" stroke-width="5"/>
<path d="M5306,8633 l60,0 l0,60 l-60,0 z" fill="green"/>
<path d="M5336,8663 l-94,0.5" stroke="black" stroke-width="5"/>
<path d="M9199,137 l60,0 l0,60 l-60,0 z" fill="green"/>
<path d="M9229,167 l0.5,164" stroke="black" stroke-width="5"/>
<path d="M2647,2462 l60,0 l0,60 l-60,0 z" fill="green"/>
<path d="M2677,2492 l286.5,-285.5" stroke="black" stroke-width="5"/>
<path d="M7064,69 l60,0 l0,60 l-60,0 z" fill="green"/>
<path d="M7094,99 l-1413.5,-49" stroke="black" stroke-width="5"/>
<path d="M7144,7397 l60,0 l0,60 l-60,0 z" fill="green"/>
<path d="M7174,7427 l-52,152.5" stroke="black" stroke-width="5"/>
<path d="M3454,9956 l60,0 l0,60 l-60,0 z" fill="green"/>
<path d="M3484,9986 l0,-142.5" stroke="black" stroke-width="5"/>
<path d="M5791,7252 l60,0 l0,60 l-60,0 z" fill="green"/>
<path d="M5821,7282 l-115,0.5" stroke="black" stroke-width="5"/>
<path d="M5887,6607 l60,0 l0,60 l-60,0 z" fill="green"/>
<path d="M5917,6637 l0,-124" stroke="black" stroke-width="5"/>
<path d="M7791,6202 l60,0 l0,60 l-60,0 z" fill="green"/>
<path d="M7821,6232 l-147,407" stroke="black" stroke-width="5"/>
<path d="M1778,6524 l60,0 l0,60 l-60,0 z" fill="green"/>
<path d="M1808,6554 l0,0.5" stroke="black" stroke-width="5"/>
<path d="M9434,8306 l60,0 l0,60 l-60,0 z" fill="green"/>
<path d="M9464,8336 l64,21.5" stroke="black" stroke-width="5"/>
<path d="M3386,7792 l60,0 l0,60 l-60,0 z" fill="green"/>
<path d="M3416,7822 l14,78.5" stroke="black" stroke-width="5"/>
<path d="M260,4596 l60,0 l0,60 l-60,0 z" fill="green"/>
<path d="M290,4626 l278.5,-53" stroke="black" stroke-width="5"/>
<path d="M9301,632 l60,0 l0,60 l-60,0 z" fill="green"/>
<path d="M9331,662 l-86.5,309.5" stroke="black" stroke-width="5"/>
<path d="M7871,6218 l60,0 l0,60 l-60,0 z" fill="green"/>
<path d="M7901,6248 l912.5,887" stroke="black" stroke-width="5"/>
<path d="M6667,5591 l60,0 l0,60 l-60,0 z" fill="green"/>
<path d="M6697,5621 l0.5,0.5" stroke="black" stroke-width="5"/>
<path d="M1010,1196 l60,0 l0,60 l-60,0 z" fill="green"/>
<path d="M1040,1226 l-247.5,212" stroke="black" stroke-width="5"/>
<path d="M703,724 l60,0 l0,60 l-60,0 z" fill="green"/>
<path d="M733,754 l0,0" stroke="black" stroke-width="5"/>
<path d="M3659,9656 l60,0 l0,60 l-60,0 z" fill="green"/>
<path d="M3689,9686 l-52,-509" stroke="black" stroke-width="5"/>
<path d="M8441,9598 l60,0 l0,60 l-60,0 z" fill="green"/>
<path d="M8471,9628 l42,186" stroke="black" stroke-width="5"/>
<path d="M795,1936 l60,0 l0,60 l-60,0 z" fill="green"/>
<path d="M825,1966 l182.5,759" stroke="black" stroke-width="5"/>
<path d="M8182,8486 l60,0 l0,60 l-60,0 z" fill="green"/>
<path d="M8212,8516 l58,-158.5" stroke="black" stroke-width="5"/>
<path d="M4954,8499 l60,0 l0,60 l-60,0 z" fill="green"/>
<path d="M4984,8529 l-224.5,0.5" stroke="black" stroke-width="5"/>
<path d="M6733,4874 l60,0 l0,60 l-60,0 z" fill="green"/>
<path d="M6763,4904 l-171,-397" stroke="black" stroke-width="5"/>
<path d="M7407,3809 l60,0 l0,60 l-60,0 z" fill="green"/>
<path d="M7437,3839 l440,-233.5" stroke="black" stroke-width="5"/>
<path d="M3768,7018 l60,0 l0,60 l-60,0 z" fill="green"/>
<path d="M3798,7048 l84,0.5" stroke="black" stroke-width="5"/>
<path d="M2068,2979 l60,0 l0,60 l-60,0 z" fill="green"/>
<path d="M2098,3009 l-164.5,-216" stroke="black" stroke-width="5"/>
<path d="M1685,3454 l60,0 l0,60 l-60,0 z" fill="green"/>
<path d="M1715,3484 l0,289" stroke="black" stroke-width="5"/>
<path d="M3252,3352 l60,0 l0,60 l-60,0 z" fill="green"/>
<path d="M3282,3382 l376.5,-27.5" stroke="black" stroke-width="5"/>
<text font-size="162.22142113076254" text-anchor="middle" x="3034" y="409.2774973957669">
0
</text>
<text font-size="162.22142113076254" text-anchor="middle" x="9150.5" y="1964.2774973957669">
1
</text>
<text font-size="162.22142113076254" text-anchor="middle" x="5212.5" y="9950.777497395768">
2
</text>
<text font-size="162.22142113076254" text-anchor="middle" x="2131" y="1897.7774973957669">
3
</text>
<text font-size="162.22142113076254" text-anchor="middle" x="3989.5" y="858.2774973957669">
4
</text>
<text font-size="162.22142113076254" text-anchor="middle" x="5511" y="5627.277497395767">
5
</text>
<text font-size="162.22142113076254" text-anchor="middle" x="3373.5" y="7125.277497395767">
6
</text>
<text font-size="162.22142113076254" text-anchor="middle" x="2170.5" y="1199.2774973957669">
7
</text>
<text font-size="162.22142113076254" text-anchor="middle" x="7188" y="6155.277497395767">
8
</text>
<text font-size="162.22142113076254" text-anchor="middle" x="7270.5" y="8543.777497395768">
9
</text>
<text font-size="162.22142113076254" text-anchor="middle" x="6497.5" y="8433.277497395768">
10
</text>
<text font-size="162.22142113076254" text-anchor="middle" x="2228" y="636.2774973957669">
11
</text>
<text font-size="162.22142113076254" text-anchor="middle" x="8911" y="5849.777497395767">
12
</text>
<text font-size="162.22142113076254" text-anchor="middle" x="2737" y="8059.777497395767">
13
</text>
<text font-size="162.22142113076254" text-anchor="middle" x="3474" y="6135.277497395767">
14
</text>
<text font-size="162.22142113076254" text-anchor="middle" x="8700.5" y="9152.277497395768">
15
</text>
<text font-size="162.22142113076254" text-anchor="middle" x="3843" y="1833.7774973957669">
16
</text>
<text font-size="162.22142113076254" text-anchor="middle" x="5887.5" y="8355.277497395768">
17
</text>
<text font-size="162.22142113076254" text-anchor="middle" x="6270.5" y="7411.277497395767">
18
</text>
<text font-size="162.22142113076254" text-anchor="middle" x="2294.5" y="9318.277497395768">
19
</text>
<text font-size="162.22142113076254" text-anchor="middle" x="9648.5" y="9415.277497395768">
20
</text>
<text font-size="162.22142113076254" text-anchor="middle" x="2358" y="4839.777497395767">
21
</text>
<text font-size="162.22142113076254" text-anchor="middle" x="5182.5" y="2433.2774973957667">
22
</text>
<text font-size="162.22142113076254" text-anchor="middle" x="2285.5" y="7285.277497395767">
23
</text>
<text font-size="162.22142113076254" text-anchor="middle" x="1442" y="8981.277497395768">
24
</text>
<text font-size="162.22142113076254" text-anchor="middle" x="7118.5" y="7212.277497395767">
25
</text>
<text font-size="162.22142113076254" text-anchor="middle" x="1232" y="6873.277497395767">
26
</text>
<text font-size="162.22142113076254" text-anchor="middle" x="7186.5" y="3047.7774973957667">
27
</text>
<text font-size="162.22142113076254" text-anchor="middle" x="7645" y="440.7774973957669">
28
</text>
<text font-size="162.22142113076254" text-anchor="middle" x="313" y="3292.2774973957667">
29
</text>
<text font-size="162.22142113076254" text-anchor="middle" x="8887" y="8414.277497395768">
30
</text>
<text font-size="162.22142113076254" text-anchor="middle" x="5971.5" y="9264.277497395768">
31
</text>
<text font-size="162.22142113076254" text-anchor="middle" x="7927.5" y="4710.777497395767">
32
</text>
<text font-size="162.22142113076254" text-anchor="middle" x="639.5" y="9496.777497395768">
33
</text>
<text font-size="162.22142113076254" text-anchor="middle" x="6096" y="1953.7774973957669">
34
</text>
<text font-size="162.22142113076254" text-anchor="middle" x="5530" y="3957.2774973957667">
35
</text>
<text font-size="162.22142113076254" text-anchor="middle" x="7048" y="9638.777497395768">
36
</text>
<text font-size="162.22142113076254" text-anchor="middle" x="6588" y="770.2774973957669">
37
</text>
<text font-size="162.22142113076254" text-anchor="middle" x="7525.5" y="6695.777497395767">
38
</text>
<text font-size="162.22142113076254" text-anchor="middle" x="2739.5" y="9237.777497395768">
39
</text>
<text font-size="162.22142113076254" text-anchor="middle" x="3873" y="4656.277497395767">
40
</text>
<text font-size="162.22142113076254" text-anchor="middle" x="9322" y="3357.2774973957667">
41
</text>
<text font-size="162.22142113076254" text-anchor="middle" x="1032" y="7492.777497395767">
42
</text>
<text font-size="162.22142113076254" text-anchor="middle" x="412.5" y="2500.2774973957667">
43
</text>
<text font-size="162.22142113076254" text-anchor="middle" x="582" y="6159.777497395767">
44
</text>
<text font-size="162.22142113076254" text-anchor="middle" x="8303.5" y="738.7774973957669">
45
</text>
<text font-size="162.22142113076254" text-anchor="middle" x="7239" y="2128.2774973957667">
46
</text>
<text font-size="162.22142113076254" text-anchor="middle" x="5242" y="8720.277497395768">
47
</text>
<text font-size="162.22142113076254" text-anchor="middle" x="9229.5" y="387.7774973957669">
48
</text>
<text font-size="162.22142113076254" text-anchor="middle" x="2963.5" y="2263.2774973957667">
49
</text>
<text font-size="162.22142113076254" text-anchor="middle" x="5680.5" y="106.77749739576689">
50
</text>
<text font-size="162.22142113076254" text-anchor="middle" x="7122" y="7636.277497395767">
51
</text>
<text font-size="162.22142113076254" text-anchor="middle" x="3484" y="9900.277497395768">
52
</text>
<text font-size="162.22142113076254" text-anchor="middle" x="5706" y="7339.277497395767">
53
</text>
<text font-size="162.22142113076254" text-anchor="middle" x="5917" y="6569.777497395767">
54
</text>
<text font-size="162.22142113076254" text-anchor="middle" x="7674" y="6695.777497395767">
55
</text>
<text font-size="162.22142113076254" text-anchor="middle" x="1808" y="6611.277497395767">
56
</text>
<text font-size="162.22142113076254" text-anchor="middle" x="9528" y="8414.277497395768">
57
</text>
<text font-size="162.22142113076254" text-anchor="middle" x="3430" y="7957.277497395767">
58
</text>
<text font-size="162.22142113076254" text-anchor="middle" x="568.5" y="4629.777497395767">
59
</text>
<text font-size="162.22142113076254" text-anchor="middle" x="9244.5" y="1028.2774973957669">
60
</text>
<text font-size="162.22142113076254" text-anchor="middle" x="8813.5" y="7191.777497395767">
61
</text>
<text font-size="162.22142113076254" text-anchor="middle" x="6697.5" y="5678.277497395767">
62
</text>
<text font-size="162.22142113076254" text-anchor="middle" x="792.5" y="1494.7774973957669">
63
</text>
<text font-size="162.22142113076254" text-anchor="middle" x="733" y="810.7774973957669">
64
</text>
<text font-size="162.22142113076254" text-anchor="middle" x="3637" y="9233.777497395768">
65
</text>
<text font-size="162.22142113076254" text-anchor="middle" x="8513" y="9870.777497395768">
66
</text>
<text font-size="162.22142113076254" text-anchor="middle" x="1007.5" y="2781.7774973957667">
67
</text>
<text font-size="162.22142113076254" text-anchor="middle" x="8270" y="8414.277497395768">
68
</text>
<text font-size="162.22142113076254" text-anchor="middle" x="4759.5" y="8586.277497395768">
69
</text>
<text font-size="162.22142113076254" text-anchor="middle" x="6592" y="4563.777497395767">
70
</text>
<text font-size="162.22142113076254" text-anchor="middle" x="7877" y="3662.2774973957667">
71
</text>
<text font-size="162.22142113076254" text-anchor="middle" x="3882" y="7105.277497395767">
72
</text>
<text font-size="162.22142113076254" text-anchor="middle" x="1933.5" y="2849.7774973957667">
73
</text>
<text font-size="162.22142113076254" text-anchor="middle" x="1715" y="3829.7774973957667">
74
</text>
<text font-size="162.22142113076254" text-anchor="middle" x="3658.5" y="3411.2774973957667">
75
</text>
</svg>