<svg viewBox="-100 -100 10200 10200" xmlns="http://www.w3.org/2000/svg">
<path d="M0,0 l10000,0 l0,10000 l-10000,0 z" fill="white"/>
<path d="M3260,9139 l560,0 l0,609 l-560,0 z" fill="#fe00ff" stroke="black" stroke-width="5"/>
<path d="M1988,737 l557,0 l0,847 l-557,0 z" fill="#fe00ff" stroke="black" stroke-width="5"/>
<path d="M5889,5632 l305,0 l0,3249 l-305,0 z" fill="#5500ff" stroke="black" stroke-width="5"/>
<path d="M8521,2953 l1392,0 l0,1391 l-1392,0 z" fill="#fe00ff" stroke="black" stroke-width="5"/>
<path d="M981,6704 l733,0 l0,869 l-733,0 z" fill="#fe00ff" stroke="black" stroke-width="5"/>
<path d="M7860,5871 l327,0 l0,1375 l-327,0 z" fill="#1300ff" stroke="black" stroke-width="5"/>
<path d="M0,5300 l1041,0 l0,548 l-1041,0 z" fill="#5100ff" stroke="black" stroke-width="5"/>
<path d="M6227,2699 l773,0 l0,773 l-773,0 z" fill="#fe00ff" stroke="black" stroke-width="5"/>
<path d="M5234,261 l678,0 l0,891 l-678,0 z" fill="#fe00ff" stroke="black" stroke-width="5"/>
<path d="M8664,0 l1300,0 l0,695 l-1300,0 z" fill="#fe00ff" stroke="black" stroke-width="5"/>
<path d="M9450,7389 l550,0 l0,1145 l-550,0 z" fill="#fe00ff" stroke="black" stroke-width="5"/>
<path d="M2545,1116 l526,0 l0,526 l-526,0 z" fill="#fe00ff" stroke="black" stroke-width="5"/>
<path d="M6194,5531 l630,0 l0,1171 l-630,0 z" fill="#fe00ff" stroke="black" stroke-width="5"/>
<path d="M8187,6235 l1011,0 l0,1011 l-1011,0 z" fill="#fe00ff" stroke="black" stroke-width="5"/>
<path d="M9625,6678 l375,0 l0,711 l-375,0 z" fill="#fe00ff" stroke="black" stroke-width="5"/>
<path d="M3656,8226 l220,0 l0,219 l-220,0 z" fill="#fe00ff" stroke="black" stroke-width="5"/>
<path d="M3876,8087 l1285,0 l0,794 l-1285,0 z" fill="#fe00ff" stroke="black" stroke-width="5"/>
<path d="M2474,5632 l430,0 l0,2412 l-430,0 z" fill="#d600ff" stroke="black" stroke-width="5"/>
<path d="M4607,7487 l600,0 l0,600 l-600,0 z" fill="#fe00ff" stroke="black" stroke-width="5"/>
<path d="M1809,5160 l556,0 l0,958 l-556,0 z" fill="#fe00ff" stroke="black" stroke-width="5"/>
<path d="M0,5848 l981,0 l0,1015 l-981,0 z" fill="#5200ff" stroke="black" stroke-width="5"/>
<path d="M3820,8882 l1018,0 l0,1118 l-1018,0 z" fill="#fe00ff" stroke="black" stroke-width="5"/>
<path d="M0,3885 l1577,0 l0,592 l-1577,0 z" fill="#f600ff" stroke="black" stroke-width="5"/>
<path d="M383,7480 l598,0 l0,2208 l-598,0 z" fill="#fe00ff" stroke="black" stroke-width="5"/>
<path d="M7860,7246 l1590,0 l0,301 l-1590,0 z" fill="#3600ff" stroke="black" stroke-width="5"/>
<path d="M2195,8482 l709,0 l0,1518 l-709,0 z" fill="#fe00ff" stroke="black" stroke-width="5"/>
<path d="M4993,3351 l485,0 l0,484 l-485,0 z" fill="#fe00ff" stroke="black" stroke-width="5"/>
<path d="M821,2572 l1436,0 l0,840 l-1436,0 z" fill="#c000ff" stroke="black" stroke-width="5"/>
<path d="M4794,0 l121,0 l0,4072 l-121,0 z" fill="#7900ff" stroke="black" stroke-width="5"/>
<path d="M6222,7600 l974,0 l0,1324 l-974,0 z" fill="#fe00ff" stroke="black" stroke-width="5"/>
<path d="M2365,5304 l217,0 l0,216 l-217,0 z" fill="#fe00ff" stroke="black" stroke-width="5"/>
<path d="M9533,5613 l223,0 l0,222 l-223,0 z" fill="#fe00ff" stroke="black" stroke-width="5"/>
<path d="M1973,1642 l1304,0 l0,930 l-1304,0 z" fill="#c400ff" stroke="black" stroke-width="5"/>
<path d="M0,0 l1408,0 l0,438 l-1408,0 z" fill="#b700ff" stroke="black" stroke-width="5"/>
<path d="M6824,6504 l1036,0 l0,1096 l-1036,0 z" fill="#fe00ff" stroke="black" stroke-width="5"/>
<path d="M1041,5180 l536,0 l0,536 l-536,0 z" fill="#fe00ff" stroke="black" stroke-width="5"/>
<path d="M5553,5786 l336,0 l0,339 l-336,0 z" fill="#fe00ff" stroke="black" stroke-width="5"/>
<path d="M206,6863 l767,0 l0,617 l-767,0 z" fill="#fe00ff" stroke="black" stroke-width="5"/>
<path d="M2257,2572 l858,0 l0,858 l-858,0 z" fill="#fe00ff" stroke="black" stroke-width="5"/>
<path d="M4853,4072 l661,0 l0,706 l-661,0 z" fill="#fe00ff" stroke="black" stroke-width="5"/>
<path d="M4258,2202 l225,0 l0,225 l-225,0 z" fill="#fe00ff" stroke="black" stroke-width="5"/>
<path d="M4838,8882 l1219,0 l0,1118 l-1219,0 z" fill="#ed00ff" stroke="black" stroke-width="5"/>
<path d="M5478,3034 l749,0 l0,438 l-749,0 z" fill="#0c00ff" stroke="black" stroke-width="5"/>
<path d="M9071,8977 l929,0 l0,959 l-929,0 z" fill="#fe00ff" stroke="black" stroke-width="5"/>
<path d="M7534,1981 l500,0 l0,499 l-500,0 z" fill="#fe00ff" stroke="black" stroke-width="5"/>
<path d="M3656,8881 l2566,0 l0,1 l-2566,0 z" fill="#0000ff" stroke="black" stroke-width="5"/>
<path d="M7691,5078 l794,0 l0,793 l-794,0 z" fill="#fe00ff" stroke="black" stroke-width="5"/>
<path d="M8318,7867 l1132,0 l0,890 l-1132,0 z" fill="#db00ff" stroke="black" stroke-width="5"/>
<path d="M7813,0 l851,0 l0,1135 l-851,0 z" fill="#fe00ff" stroke="black" stroke-width="5"/>
<path d="M9596,5944 l404,0 l0,698 l-404,0 z" fill="#fe00ff" stroke="black" stroke-width="5"/>
<path d="M1714,6725 l230,0 l0,229 l-230,0 z" fill="#fe00ff" stroke="black" stroke-width="5"/>
<path d="M0,4477 l719,0 l0,823 l-719,0 z" fill="#5900ff" stroke="black" stroke-width="5"/>
<path d="M0,438 l873,0 l0,2134 l-873,0 z" fill="#fc00ff" stroke="black" stroke-width="5"/>
<path d="M2694,5342 l3414,0 l0,290 l-3414,0 z" fill="#fe00ff" stroke="black" stroke-width="5"/>
<path d="M3834,3196 l287,0 l0,287 l-287,0 z" fill="#fe00ff" stroke="black" stroke-width="5"/>
<path d="M2586,3430 l1248,0 l0,1098 l-1248,0 z" fill="#fe00ff" stroke="black" stroke-width="5"/>
<path d="M8318,8757 l753,0 l0,614 l-753,0 z" fill="#2d00ff" stroke="black" stroke-width="5"/>
<path d="M1181,8520 l1014,0 l0,616 l-1014,0 z" fill="#fe00ff" stroke="black" stroke-width="5"/>
<path d="M4915,0 l1124,0 l0,261 l-1124,0 z" fill="#0b00ff" stroke="black" stroke-width="5"/>
<path d="M2597,8044 l307,0 l0,306 l-307,0 z" fill="#fe00ff" stroke="black" stroke-width="5"/>
<path d="M8569,7547 l881,0 l0,320 l-881,0 z" fill="#fe00ff" stroke="black" stroke-width="5"/>
<path d="M1140,438 l268,0 l0,267 l-268,0 z" fill="#fe00ff" stroke="black" stroke-width="5"/>
<path d="M2904,7588 l752,0 l0,1357 l-752,0 z" fill="#fd00ff" stroke="black" stroke-width="5"/>
<path d="M719,4477 l242,0 l0,241 l-242,0 z" fill="#fe00ff" stroke="black" stroke-width="5"/>
<path d="M7554,104 l80,0 l0,80 l-80,0 z" fill="#fe00ff" stroke="black" stroke-width="5"/>
<path d="M7084,3619 l785,0 l0,726 l-785,0 z" fill="#fe00ff" stroke="black" stroke-width="5"/>
<path d="M7196,8907 l1122,0 l0,1093 l-1122,0 z" fill="#d100ff" stroke="black" stroke-width="5"/>
<path d="M4113,4778 l1995,0 l0,564 l-1995,0 z" fill="#fe00ff" stroke="black" stroke-width="5"/>
<path d="M6824,5544 l552,0 l0,552 l-552,0 z" fill="#fe00ff" stroke="black" stroke-width="5"/>
<path d="M4267,759 l527,0 l0,774 l-527,0 z" fill="#fe00ff" stroke="black" stroke-width="5"/>
<path d="M264,7480 l119,0 l0,119 l-119,0 z" fill="#fe00ff" stroke="black" stroke-width="5"/>
<path d="M0,3118 l821,0 l0,767 l-821,0 z" fill="#fe00ff" stroke="black" stroke-width="5"/>
<path d="M5292,2342 l240,0 l0,239 l-240,0 z" fill="#fe00ff" stroke="black" stroke-width="5"/>
<path d="M6039,90 l606,0 l0,442 l-606,0 z" fill="#fe00ff" stroke="black" stroke-width="5"/>
<path d="M1408,0 l1220,0 l0,702 l-1220,0 z" fill="#fe00ff" stroke="black" stroke-width="5"/>
<path d="M1471,7573 l1003,0 l0,909 l-1003,0 z" fill="#fe00ff" stroke="black" stroke-width="5"/>
<path d="M5912,532 l320,0 l0,319 l-320,0 z" fill="#fe00ff" stroke="black" stroke-width="5"/>
<path d="M4915,1152 l468,0 l0,467 l-468,0 z" fill="#fe00ff" stroke="black" stroke-width="5"/>
<path d="M3277,0 l990,0 l0,1689 l-990,0 z" fill="#fe00ff" stroke="black" stroke-width="5"/>
<path d="M1972,4528 l632,0 l0,632 l-632,0 z" fill="#fe00ff" stroke="black" stroke-width="5"/>
<path d="M981,9136 l1214,0 l0,1 l-1214,0 z" fill="#0000ff" stroke="black" stroke-width="5"/>
<path d="M5532,1152 l695,0 l0,1882 l-695,0 z" fill="#fe00ff" stroke="black" stroke-width="5"/>
<path d="M6316,4314 l768,0 l0,665 l-768,0 z" fill="#fe00ff" stroke="black" stroke-width="5"/>
<path d="M873,1114 l1100,0 l0,1099 l-1100,0 z" fill="#fe00ff" stroke="black" stroke-width="5"/>
<path d="M6232,532 l1509,0 l0,1434 l-1509,0 z" fill="#fe00ff" stroke="black" stroke-width="5"/>
<path d="M5514,4166 l594,0 l0,593 l-594,0 z" fill="#fe00ff" stroke="black" stroke-width="5"/>
<path d="M9071,8757 l929,0 l0,220 l-929,0 z" fill="#0200ff" stroke="black" stroke-width="5"/>
<path d="M3404,7173 l416,0 l0,415 l-416,0 z" fill="#fe00ff" stroke="black" stroke-width="5"/>
<path d="M7084,4345 l2832,0 l0,520 l-2832,0 z" fill="#fe00ff" stroke="black" stroke-width="5"/>
<path d="M981,7573 l490,0 l0,947 l-490,0 z" fill="#0800ff" stroke="black" stroke-width="5"/>
<path d="M1577,3412 l232,0 l0,3292 l-232,0 z" fill="#fe00ff" stroke="black" stroke-width="5"/>
<path d="M6057,9222 l454,0 l0,453 l-454,0 z" fill="#fe00ff" stroke="black" stroke-width="5"/>
<path d="M7084,4865 l2916,0 l0,213 l-2916,0 z" fill="#3f00ff" stroke="black" stroke-width="5"/>
<path d="M2904,8945 l916,0 l0,194 l-916,0 z" fill="#0600ff" stroke="black" stroke-width="5"/>
<path d="M2904,5632 l1919,0 l0,1541 l-1919,0 z" fill="#fe00ff" stroke="black" stroke-width="5"/>
<path d="M4823,5632 l730,0 l0,767 l-730,0 z" fill="#fe00ff" stroke="black" stroke-width="5"/>
<path d="M981,9137 l1214,0 l0,863 l-1214,0 z" fill="#7200ff" stroke="black" stroke-width="5"/>
<path d="M6316,3472 l768,0 l0,842 l-768,0 z" fill="#3900ff" stroke="black" stroke-width="5"/>
<path d="M7196,7796 l1122,0 l0,1111 l-1122,0 z" fill="#fe00ff" stroke="black" stroke-width="5"/>
<path d="M6108,3472 l208,0 l0,2059 l-208,0 z" fill="#8600ff" stroke="black" stroke-width="5"/>
<path d="M8529,9371 l119,0 l0,119 l-119,0 z" fill="#fe00ff" stroke="black" stroke-width="5"/>
<path d="M3535,9413 l60,0 l0,60 l-60,0 z" fill="green"/>
<path d="M3565,9443 l-25,0.5" stroke="black" stroke-width="5"/>
<path d="M2382,1130 l60,0 l0,60 l-60,0 z" fill="green"/>
<path d="M2412,1160 l-145.5,0.5" stroke="black" stroke-width="5"/>
<path d="M5859,5800 l60,0 l0,60 l-60,0 z" fill="green"/>
<path d="M5889,5830 l152.5,1426.5" stroke="black" stroke-width="5"/>
<path d="M9187,3618 l60,0 l0,60 l-60,0 z" fill="green"/>
<path d="M9217,3648 l0,0.5" stroke="black" stroke-width="5"/>
<path d="M1386,7108 l60,0 l0,60 l-60,0 z" fill="green"/>
<path d="M1416,7138 l-68.5,0.5" stroke="black" stroke-width="5"/>
<path d="M8057,6379 l60,0 l0,60 l-60,0 z" fill="green"/>
<path d="M8087,6409 l-63.5,149.5" stroke="black" stroke-width="5"/>
<path d="M184,5270 l60,0 l0,60 l-60,0 z" fill="green"/>
<path d="M214,5300 l306.5,274" stroke="black" stroke-width="5"/>
<path d="M6583,3055 l60,0 l0,60 l-60,0 z" fill="green"/>
<path d="M6613,3085 l0.5,0.5" stroke="black" stroke-width="5"/>
<path d="M5880,556 l60,0 l0,60 l-60,0 z" fill="green"/>
<path d="M5910,586 l-337,120.5" stroke="black" stroke-width="5"/>
<path d="M9284,16 l60,0 l0,60 l-60,0 z" fill="green"/>
<path d="M9314,46 l0,301.5" stroke="black" stroke-width="5"/>
<path d="M9420,7565 l60,0 l0,60 l-60,0 z" fill="green"/>
<path d="M9450,7595 l275,366.5" stroke="black" stroke-width="5"/>
<path d="M2778,1349 l60,0 l0,60 l-60,0 z" fill="green"/>
<path d="M2808,1379 l0,0" stroke="black" stroke-width="5"/>
<path d="M6750,6086 l60,0 l0,60 l-60,0 z" fill="green"/>
<path d="M6780,6116 l-271,0.5" stroke="black" stroke-width="5"/>
<path d="M8662,6710 l60,0 l0,60 l-60,0 z" fill="green"/>
<path d="M8692,6740 l0.5,0.5" stroke="black" stroke-width="5"/>
<path d="M9951,7003 l60,0 l0,60 l-60,0 z" fill="green"/>
<path d="M9981,7033 l-168.5,0.5" stroke="black" stroke-width="5"/>
<path d="M3736,8305 l60,0 l0,60 l-60,0 z" fill="green"/>
<path d="M3766,8335 l0,0.5" stroke="black" stroke-width="5"/>
<path d="M4304,8433 l60,0 l0,60 l-60,0 z" fill="green"/>
<path d="M4334,8463 l184.5,21" stroke="black" stroke-width="5"/>
<path d="M2449,7540 l60,0 l0,60 l-60,0 z" fill="green"/>
<path d="M2479,7570 l210,-732" stroke="black" stroke-width="5"/>
<path d="M4877,7757 l60,0 l0,60 l-60,0 z" fill="green"/>
<path d="M4907,7787 l0,0" stroke="black" stroke-width="5"/>
<path d="M2227,5514 l60,0 l0,60 l-60,0 z" fill="green"/>
<path d="M2257,5544 l-170,95" stroke="black" stroke-width="5"/>
<path d="M67,5818 l60,0 l0,60 l-60,0 z" fill="green"/>
<path d="M97,5848 l393.5,507.5" stroke="black" stroke-width="5"/>
<path d="M3790,9382 l60,0 l0,60 l-60,0 z" fill="green"/>
<path d="M3820,9412 l509,29" stroke="black" stroke-width="5"/>
<path d="M470,3855 l60,0 l0,60 l-60,0 z" fill="green"/>
<path d="M500,3885 l288.5,296" stroke="black" stroke-width="5"/>
<path d="M398,7608 l60,0 l0,60 l-60,0 z" fill="green"/>
<path d="M428,7638 l254,946" stroke="black" stroke-width="5"/>
<path d="M9164,7516 l60,0 l0,60 l-60,0 z" fill="green"/>
<path d="M9194,7546 l-539,-149.5" stroke="black" stroke-width="5"/>
<path d="M2244,8979 l60,0 l0,60 l-60,0 z" fill="green"/>
<path d="M2274,9009 l275.5,232" stroke="black" stroke-width="5"/>
<path d="M5205,3563 l60,0 l0,60 l-60,0 z" fill="green"/>
<path d="M5235,3593 l0.5,0" stroke="black" stroke-width="5"/>
<path d="M1659,3381 l60,0 l0,60 l-60,0 z" fill="green"/>
<path d="M1689,3411 l-150,-419" stroke="black" stroke-width="5"/>
<path d="M4764,1123 l60,0 l0,60 l-60,0 z" fill="green"/>
<path d="M4794,1153 l60.5,883" stroke="black" stroke-width="5"/>
<path d="M7165,7921 l60,0 l0,60 l-60,0 z" fill="green"/>
<path d="M7195,7951 l-486,311" stroke="black" stroke-width="5"/>
<path d="M2443,5382 l60,0 l0,60 l-60,0 z" fill="green"/>
<path d="M2473,5412 l0.5,0" stroke="black" stroke-width="5"/>
<path d="M9614,5694 l60,0 l0,60 l-60,0 z" fill="green"/>
<path d="M9644,5724 l0.5,0" stroke="black" stroke-width="5"/>
<path d="M2511,1806 l60,0 l0,60 l-60,0 z" fill="green"/>
<path d="M2541,1836 l84,271" stroke="black" stroke-width="5"/>
<path d="M1254,82 l60,0 l0,60 l-60,0 z" fill="green"/>
<path d="M1284,112 l-580,107" stroke="black" stroke-width="5"/>
<path d="M7282,7022 l60,0 l0,60 l-60,0 z" fill="green"/>
<path d="M7312,7052 l30,0" stroke="black" stroke-width="5"/>
<path d="M1279,5418 l60,0 l0,60 l-60,0 z" fill="green"/>
<path d="M1309,5448 l0,0" stroke="black" stroke-width="5"/>
<path d="M5692,5925 l60,0 l0,60 l-60,0 z" fill="green"/>
<path d="M5722,5955 l-1,0.5" stroke="black" stroke-width="5"/>
<path d="M559,7215 l60,0 l0,60 l-60,0 z" fill="green"/>
<path d="M589,7245 l0.5,-73.5" stroke="black" stroke-width="5"/>
<path d="M2656,2971 l60,0 l0,60 l-60,0 z" fill="green"/>
<path d="M2686,3001 l0,0" stroke="black" stroke-width="5"/>
<path d="M5175,4395 l60,0 l0,60 l-60,0 z" fill="green"/>
<path d="M5205,4425 l-21.5,0" stroke="black" stroke-width="5"/>
<path d="M4340,2284 l60,0 l0,60 l-60,0 z" fill="green"/>
<path d="M4370,2314 l0.5,0.5" stroke="black" stroke-width="5"/>
<path d="M4859,8911 l60,0 l0,60 l-60,0 z" fill="green"/>
<path d="M4889,8941 l558.5,500" stroke="black" stroke-width="5"/>
<path d="M6134,3004 l60,0 l0,60 l-60,0 z" fill="green"/>
<path d="M6164,3034 l-311.5,219" stroke="black" stroke-width="5"/>
<path d="M9521,9426 l60,0 l0,60 l-60,0 z" fill="green"/>
<path d="M9551,9456 l-15.5,0.5" stroke="black" stroke-width="5"/>
<path d="M7754,2200 l60,0 l0,60 l-60,0 z" fill="green"/>
<path d="M7784,2230 l0,0.5" stroke="black" stroke-width="5"/>
<path d="M4183,8851 l60,0 l0,60 l-60,0 z" fill="green"/>
<path d="M4213,8881 l726,0.5" stroke="black" stroke-width="5"/>
<path d="M8058,5444 l60,0 l0,60 l-60,0 z" fill="green"/>
<path d="M8088,5474 l0,0.5" stroke="black" stroke-width="5"/>
<path d="M9383,7837 l60,0 l0,60 l-60,0 z" fill="green"/>
<path d="M9413,7867 l-529,445" stroke="black" stroke-width="5"/>
<path d="M8406,480 l60,0 l0,60 l-60,0 z" fill="green"/>
<path d="M8436,510 l-197.5,57.5" stroke="black" stroke-width="5"/>
<path d="M9915,6263 l60,0 l0,60 l-60,0 z" fill="green"/>
<path d="M9945,6293 l-147,0" stroke="black" stroke-width="5"/>
<path d="M1799,6809 l60,0 l0,60 l-60,0 z" fill="green"/>
<path d="M1829,6839 l0,0.5" stroke="black" stroke-width="5"/>
<path d="M378,4959 l60,0 l0,60 l-60,0 z" fill="green"/>
<path d="M408,4989 l-48.5,-100.5" stroke="black" stroke-width="5"/>
<path d="M257,951 l60,0 l0,60 l-60,0 z" fill="green"/>
<path d="M287,981 l149.5,524" stroke="black" stroke-width="5"/>
<path d="M5133,5601 l60,0 l0,60 l-60,0 z" fill="green"/>
<path d="M5163,5631 l-762,-144" stroke="black" stroke-width="5"/>
<path d="M3947,3309 l60,0 l0,60 l-60,0 z" fill="green"/>
<path d="M3977,3339 l0.5,0.5" stroke="black" stroke-width="5"/>
<path d="M3204,3857 l60,0 l0,60 l-60,0 z" fill="green"/>
<path d="M3234,3887 l-24,92" stroke="black" stroke-width="5"/>
<path d="M8530,8951 l60,0 l0,60 l-60,0 z" fill="green"/>
<path d="M8560,8981 l134.5,83" stroke="black" stroke-width="5"/>
<path d="M1658,8997 l60,0 l0,60 l-60,0 z" fill="green"/>
<path d="M1688,9027 l0,-199" stroke="black" stroke-width="5"/>
<path d="M5684,230 l60,0 l0,60 l-60,0 z" fill="green"/>
<path d="M5714,260 l-237,-129.5" stroke="black" stroke-width="5"/>
<path d="M2720,8167 l60,0 l0,60 l-60,0 z" fill="green"/>
<path d="M2750,8197 l0.5,0" stroke="black" stroke-width="5"/>
<path d="M9220,7607 l60,0 l0,60 l-60,0 z" fill="green"/>
<path d="M9250,7637 l-240.5,70" stroke="black" stroke-width="5"/>
<path d="M1244,541 l60,0 l0,60 l-60,0 z" fill="green"/>
<path d="M1274,571 l0,0.5" stroke="black" stroke-width="5"/>
<path d="M3144,7934 l60,0 l0,60 l-60,0 z" fill="green"/>
<path d="M3174,7964 l106,302.5" stroke="black" stroke-width="5"/>
<path d="M810,4567 l60,0 l0,60 l-60,0 z" fill="green"/>
<path d="M840,4597 l0,0.5" stroke="black" stroke-width="5"/>
<path d="M7564,114 l60,0 l0,60 l-60,0 z" fill="green"/>
<path d="M7594,144 l0,0" stroke="black" stroke-width="5"/>
<path d="M7411,4016 l60,0 l0,60 l-60,0 z" fill="green"/>
<path d="M7441,4046 l35.5,-64" stroke="black" stroke-width="5"/>
<path d="M7202,8877 l60,0 l0,60 l-60,0 z" fill="green"/>
<path d="M7232,8907 l525,546.5" stroke="black" stroke-width="5"/>
<path d="M5283,5311 l60,0 l0,60 l-60,0 z" fill="green"/>
<path d="M5313,5341 l-202.5,-281" stroke="black" stroke-width="5"/>
<path d="M7070,5790 l60,0 l0,60 l-60,0 z" fill="green"/>
<path d="M7100,5820 l0,0" stroke="black" stroke-width="5"/>
<path d="M4624,1116 l60,0 l0,60 l-60,0 z" fill="green"/>
<path d="M4654,1146 l-123.5,0" stroke="black" stroke-width="5"/>
<path d="M293,7509 l60,0 l0,60 l-60,0 z" fill="green"/>
<path d="M323,7539 l0.5,0.5" stroke="black" stroke-width="5"/>
<path d="M328,3551 l60,0 l0,60 l-60,0 z" fill="green"/>
<path d="M358,3581 l52.5,-79.5" stroke="black" stroke-width="5"/>
<path d="M5382,2431 l60,0 l0,60 l-60,0 z" fill="green"/>
<path d="M5412,2461 l0,0.5" stroke="black" stroke-width="5"/>
<path d="M6312,362 l60,0 l0,60 l-60,0 z" fill="green"/>
<path d="M6342,392 l0,-81" stroke="black" stroke-width="5"/>
<path d="M1945,20 l60,0 l0,60 l-60,0 z" fill="green"/>
<path d="M1975,50 l43,301" stroke="black" stroke-width="5"/>
<path d="M1942,7951 l60,0 l0,60 l-60,0 z" fill="green"/>
<path d="M1972,7981 l0.5,46.5" stroke="black" stroke-width="5"/>
<path d="M6042,661 l60,0 l0,60 l-60,0 z" fill="green"/>
<path d="M6072,691 l0,0.5" stroke="black" stroke-width="5"/>
<path d="M5119,1355 l60,0 l0,60 l-60,0 z" fill="green"/>
<path d="M5149,1385 l0,0.5" stroke="black" stroke-width="5"/>
<path d="M4107,797 l60,0 l0,60 l-60,0 z" fill="green"/>
<path d="M4137,827 l-365,17.5" stroke="black" stroke-width="5"/>
<path d="M2258,4814 l60,0 l0,60 l-60,0 z" fill="green"/>
<path d="M2288,4844 l0,0" stroke="black" stroke-width="5"/>
<path d="M1620,9106 l60,0 l0,60 l-60,0 z" fill="green"/>
<path d="M1650,9136 l-62,0.5" stroke="black" stroke-width="5"/>
<path d="M5849,2688 l60,0 l0,60 l-60,0 z" fill="green"/>
<path d="M5879,2718 l0.5,-625" stroke="black" stroke-width="5"/>
<path d="M6670,4565 l60,0 l0,60 l-60,0 z" fill="green"/>
<path d="M6700,4595 l0,51.5" stroke="black" stroke-width="5"/>
<path d="M1393,1633 l60,0 l0,60 l-60,0 z" fill="green"/>
<path d="M1423,1663 l0,0.5" stroke="black" stroke-width="5"/>
<path d="M6582,808 l60,0 l0,60 l-60,0 z" fill="green"/>
<path d="M6612,838 l374.5,411" stroke="black" stroke-width="5"/>
<path d="M5781,4432 l60,0 l0,60 l-60,0 z" fill="green"/>
<path d="M5811,4462 l0,0.5" stroke="black" stroke-width="5"/>
<path d="M9356,8727 l60,0 l0,60 l-60,0 z" fill="green"/>
<path d="M9386,8757 l149.5,110" stroke="black" stroke-width="5"/>
<path d="M3582,7350 l60,0 l0,60 l-60,0 z" fill="green"/>
<path d="M3612,7380 l0,0.5" stroke="black" stroke-width="5"/>
<path d="M7165,4315 l60,0 l0,60 l-60,0 z" fill="green"/>
<path d="M7195,4345 l1305,260" stroke="black" stroke-width="5"/>
<path d="M1087,8301 l60,0 l0,60 l-60,0 z" fill="green"/>
<path d="M1117,8331 l109,-284.5" stroke="black" stroke-width="5"/>
<path d="M1778,5216 l60,0 l0,60 l-60,0 z" fill="green"/>
<path d="M1808,5246 l-115,-188" stroke="black" stroke-width="5"/>
<path d="M6254,9418 l60,0 l0,60 l-60,0 z" fill="green"/>
<path d="M6284,9448 l0,0.5" stroke="black" stroke-width="5"/>
<path d="M7621,4835 l60,0 l0,60 l-60,0 z" fill="green"/>
<path d="M7651,4865 l891,106.5" stroke="black" stroke-width="5"/>
<path d="M3114,8915 l60,0 l0,60 l-60,0 z" fill="green"/>
<path d="M3144,8945 l218,97" stroke="black" stroke-width="5"/>
<path d="M4792,5851 l60,0 l0,60 l-60,0 z" fill="green"/>
<path d="M4822,5881 l-958.5,521.5" stroke="black" stroke-width="5"/>
<path d="M5079,5778 l60,0 l0,60 l-60,0 z" fill="green"/>
<path d="M5109,5808 l79,207.5" stroke="black" stroke-width="5"/>
<path d="M1178,9670 l60,0 l0,60 l-60,0 z" fill="green"/>
<path d="M1208,9700 l380,-131.5" stroke="black" stroke-width="5"/>
<path d="M6725,4283 l60,0 l0,60 l-60,0 z" fill="green"/>
<path d="M6755,4313 l-55,-420" stroke="black" stroke-width="5"/>
<path d="M7707,8347 l60,0 l0,60 l-60,0 z" fill="green"/>
<path d="M7737,8377 l20,-25.5" stroke="black" stroke-width="5"/>
<path d="M6113,4182 l60,0 l0,60 l-60,0 z" fill="green"/>
<path d="M6143,4212 l69,289.5" stroke="black" stroke-width="5"/>
<path d="M8558,9400 l60,0 l0,60 l-60,0 z" fill="green"/>
<path d="M8588,9430 l0.5,0.5" stroke="black" stroke-width="5"/>
<text font-size="140.71950894605837" text-anchor="middle" x="3540" y="9492.75182813112">
0
</text>
<text font-size="140.71950894605837" text-anchor="middle" x="2266.5" y="1209.7518281311204">
1
</text>
<text font-size="140.71950894605837" text-anchor="middle" x="6041.5" y="7305.75182813112">
2
</text>
<text font-size="140.71950894605837" text-anchor="middle" x="9217" y="3697.7518281311204">
3
</text>
<text font-size="140.71950894605837" text-anchor="middle" x="1347.5" y="7187.75182813112">
4
</text>
<text font-size="140.71950894605837" text-anchor="middle" x="8023.5" y="6607.75182813112">
5
</text>
<text font-size="140.71950894605837" text-anchor="middle" x="520.5" y="5623.25182813112">
6
</text>
<text font-size="140.71950894605837" text-anchor="middle" x="6613.5" y="3134.7518281311204">
7
</text>
<text font-size="140.71950894605837" text-anchor="middle" x="5573" y="755.7518281311204">
8
</text>
<text font-size="140.71950894605837" text-anchor="middle" x="9314" y="396.7518281311204">
9
</text>
<text font-size="140.71950894605837" text-anchor="middle" x="9725" y="8010.75182813112">
10
</text>
<text font-size="140.71950894605837" text-anchor="middle" x="2808" y="1428.2518281311204">
11
</text>
<text font-size="140.71950894605837" text-anchor="middle" x="6509" y="6165.75182813112">
12
</text>
<text font-size="140.71950894605837" text-anchor="middle" x="8692.5" y="6789.75182813112">
13
</text>
<text font-size="140.71950894605837" text-anchor="middle" x="9812.5" y="7082.75182813112">
14
</text>
<text font-size="140.71950894605837" text-anchor="middle" x="3766" y="8384.75182813112">
15
</text>
<text font-size="140.71950894605837" text-anchor="middle" x="4518.5" y="8533.25182813112">
16
</text>
<text font-size="140.71950894605837" text-anchor="middle" x="2689" y="6887.25182813112">
17
</text>
<text font-size="140.71950894605837" text-anchor="middle" x="4907" y="7836.25182813112">
18
</text>
<text font-size="140.71950894605837" text-anchor="middle" x="2087" y="5688.25182813112">
19
</text>
<text font-size="140.71950894605837" text-anchor="middle" x="490.5" y="6404.75182813112">
20
</text>
<text font-size="140.71950894605837" text-anchor="middle" x="4329" y="9490.25182813112">
21
</text>
<text font-size="140.71950894605837" text-anchor="middle" x="788.5" y="4230.25182813112">
22
</text>
<text font-size="140.71950894605837" text-anchor="middle" x="682" y="8633.25182813112">
23
</text>
<text font-size="140.71950894605837" text-anchor="middle" x="8655" y="7445.75182813112">
24
</text>
<text font-size="140.71950894605837" text-anchor="middle" x="2549.5" y="9290.25182813112">
25
</text>
<text font-size="140.71950894605837" text-anchor="middle" x="5235.5" y="3642.2518281311204">
26
</text>
<text font-size="140.71950894605837" text-anchor="middle" x="1539" y="3041.2518281311204">
27
</text>
<text font-size="140.71950894605837" text-anchor="middle" x="4854.5" y="2085.2518281311204">
28
</text>
<text font-size="140.71950894605837" text-anchor="middle" x="6709" y="8311.25182813112">
29
</text>
<text font-size="140.71950894605837" text-anchor="middle" x="2473.5" y="5461.25182813112">
30
</text>
<text font-size="140.71950894605837" text-anchor="middle" x="9644.5" y="5773.25182813112">
31
</text>
<text font-size="140.71950894605837" text-anchor="middle" x="2625" y="2156.2518281311204">
32
</text>
<text font-size="140.71950894605837" text-anchor="middle" x="704" y="268.2518281311204">
33
</text>
<text font-size="140.71950894605837" text-anchor="middle" x="7342" y="7101.25182813112">
34
</text>
<text font-size="140.71950894605837" text-anchor="middle" x="1309" y="5497.25182813112">
35
</text>
<text font-size="140.71950894605837" text-anchor="middle" x="5721" y="6004.75182813112">
36
</text>
<text font-size="140.71950894605837" text-anchor="middle" x="589.5" y="7220.75182813112">
37
</text>
<text font-size="140.71950894605837" text-anchor="middle" x="2686" y="3050.2518281311204">
38
</text>
<text font-size="140.71950894605837" text-anchor="middle" x="5183.5" y="4474.25182813112">
39
</text>
<text font-size="140.71950894605837" text-anchor="middle" x="4370.5" y="2363.7518281311204">
40
</text>
<text font-size="140.71950894605837" text-anchor="middle" x="5447.5" y="9490.25182813112">
41
</text>
<text font-size="140.71950894605837" text-anchor="middle" x="5852.5" y="3302.2518281311204">
42
</text>
<text font-size="140.71950894605837" text-anchor="middle" x="9535.5" y="9505.75182813112">
43
</text>
<text font-size="140.71950894605837" text-anchor="middle" x="7784" y="2279.7518281311204">
44
</text>
<text font-size="140.71950894605837" text-anchor="middle" x="4939" y="8930.75182813112">
45
</text>
<text font-size="140.71950894605837" text-anchor="middle" x="8088" y="5523.75182813112">
46
</text>
<text font-size="140.71950894605837" text-anchor="middle" x="8884" y="8361.25182813112">
47
</text>
<text font-size="140.71950894605837" text-anchor="middle" x="8238.5" y="616.7518281311204">
48
</text>
<text font-size="140.71950894605837" text-anchor="middle" x="9798" y="6342.25182813112">
49
</text>
<text font-size="140.71950894605837" text-anchor="middle" x="1829" y="6888.75182813112">
50
</text>
<text font-size="140.71950894605837" text-anchor="middle" x="359.5" y="4937.75182813112">
51
</text>
<text font-size="140.71950894605837" text-anchor="middle" x="436.5" y="1554.2518281311204">
52
</text>
<text font-size="140.71950894605837" text-anchor="middle" x="4401" y="5536.25182813112">
53
</text>
<text font-size="140.71950894605837" text-anchor="middle" x="3977.5" y="3388.7518281311204">
54
</text>
<text font-size="140.71950894605837" text-anchor="middle" x="3210" y="4028.2518281311204">
55
</text>
<text font-size="140.71950894605837" text-anchor="middle" x="8694.5" y="9113.25182813112">
56
</text>
<text font-size="140.71950894605837" text-anchor="middle" x="1688" y="8877.25182813112">
57
</text>
<text font-size="140.71950894605837" text-anchor="middle" x="5477" y="179.75182813112042">
58
</text>
<text font-size="140.71950894605837" text-anchor="middle" x="2750.5" y="8246.25182813112">
59
</text>
<text font-size="140.71950894605837" text-anchor="middle" x="9009.5" y="7756.25182813112">
60
</text>
<text font-size="140.71950894605837" text-anchor="middle" x="1274" y="620.7518281311204">
61
</text>
<text font-size="140.71950894605837" text-anchor="middle" x="3280" y="8315.75182813112">
62
</text>
<text font-size="140.71950894605837" text-anchor="middle" x="840" y="4646.75182813112">
63
</text>
<text font-size="140.71950894605837" text-anchor="middle" x="7594" y="193.25182813112042">
64
</text>
<text font-size="140.71950894605837" text-anchor="middle" x="7476.5" y="4031.2518281311204">
65
</text>
<text font-size="140.71950894605837" text-anchor="middle" x="7757" y="9502.75182813112">
66
</text>
<text font-size="140.71950894605837" text-anchor="middle" x="5110.5" y="5109.25182813112">
67
</text>
<text font-size="140.71950894605837" text-anchor="middle" x="7100" y="5869.25182813112">
68
</text>
<text font-size="140.71950894605837" text-anchor="middle" x="4530.5" y="1195.2518281311204">
69
</text>
<text font-size="140.71950894605837" text-anchor="middle" x="323.5" y="7588.75182813112">
70
</text>
<text font-size="140.71950894605837" text-anchor="middle" x="410.5" y="3550.7518281311204">
71
</text>
<text font-size="140.71950894605837" text-anchor="middle" x="5412" y="2510.7518281311204">
72
</text>
<text font-size="140.71950894605837" text-anchor="middle" x="6342" y="360.2518281311204">
73
</text>
<text font-size="140.71950894605837" text-anchor="middle" x="2018" y="400.2518281311204">
74
</text>
<text font-size="140.71950894605837" text-anchor="middle" x="1972.5" y="8076.75182813112">
75
</text>
<text font-size="140.71950894605837" text-anchor="middle" x="6072" y="740.7518281311204">
76
</text>
<text font-size="140.71950894605837" text-anchor="middle" x="5149" y="1434.7518281311204">
77
</text>
<text font-size="140.71950894605837" text-anchor="middle" x="3772" y="893.7518281311204">
78
</text>
<text font-size="140.71950894605837" text-anchor="middle" x="2288" y="4893.25182813112">
79
</text>
<text font-size="140.71950894605837" text-anchor="middle" x="1588" y="9185.75182813112">
80
</text>
<text font-size="140.71950894605837" text-anchor="middle" x="5879.5" y="2142.2518281311204">
81
</text>
<text font-size="140.71950894605837" text-anchor="middle" x="6700" y="4695.75182813112">
82
</text>
<text font-size="140.71950894605837" text-anchor="middle" x="1423" y="1712.7518281311204">
83
</text>
<text font-size="140.71950894605837" text-anchor="middle" x="6986.5" y="1298.2518281311204">
84
</text>
<text font-size="140.71950894605837" text-anchor="middle" x="5811" y="4511.75182813112">
85
</text>
<text font-size="140.71950894605837" text-anchor="middle" x="9535.5" y="8916.25182813112">
86
</text>
<text font-size="140.71950894605837" text-anchor="middle" x="3612" y="7429.75182813112">
87
</text>
<text font-size="140.71950894605837" text-anchor="middle" x="8500" y="4654.25182813112">
88
</text>
<text font-size="140.71950894605837" text-anchor="middle" x="1226" y="8095.75182813112">
89
</text>
<text font-size="140.71950894605837" text-anchor="middle" x="1693" y="5107.25182813112">
90
</text>
<text font-size="140.71950894605837" text-anchor="middle" x="6284" y="9497.75182813112">
91
</text>
<text font-size="140.71950894605837" text-anchor="middle" x="8542" y="5020.75182813112">
92
</text>
<text font-size="140.71950894605837" text-anchor="middle" x="3362" y="9091.25182813112">
93
</text>
<text font-size="140.71950894605837" text-anchor="middle" x="3863.5" y="6451.75182813112">
94
</text>
<text font-size="140.71950894605837" text-anchor="middle" x="5188" y="6064.75182813112">
95
</text>
<text font-size="140.71950894605837" text-anchor="middle" x="1588" y="9617.75182813112">
96
</text>
<text font-size="140.71950894605837" text-anchor="middle" x="6700" y="3942.2518281311204">
97
</text>
<text font-size="140.71950894605837" text-anchor="middle" x="7757" y="8400.75182813112">
98
</text>
<text font-size="140.71950894605837" text-anchor="middle" x="6212" y="4550.75182813112">
99
</text>
<text font-size="140.71950894605837" text-anchor="middle" x="8588.5" y="9479.75182813112">
100
</text>
</svg>