<svg viewBox="-100 -100 10200 10200" xmlns="http://www.w3.org/2000/svg">
<path d="M0,0 l10000,0 l0,10000 l-10000,0 z" fill="white"/>
<path d="M4839,2323 l567,0 l0,566 l-567,0 z" fill="#fe00ff" stroke="black" stroke-width="5"/>
<path d="M5783,7986 l369,0 l0,368 l-369,0 z" fill="#fe00ff" stroke="black" stroke-width="5"/>
<path d="M3570,5454 l5647,0 l0,362 l-5647,0 z" fill="#fe00ff" stroke="black" stroke-width="5"/>
<path d="M1079,3481 l347,0 l0,347 l-347,0 z" fill="#fe00ff" stroke="black" stroke-width="5"/>
<path d="M0,1854 l1368,0 l0,963 l-1368,0 z" fill="#6700ff" stroke="black" stroke-width="5"/>
<path d="M3610,1925 l578,0 l0,577 l-578,0 z" fill="#fe00ff" stroke="black" stroke-width="5"/>
<path d="M4933,0 l1277,0 l0,1448 l-1277,0 z" fill="#fe00ff" stroke="black" stroke-width="5"/>
<path d="M7250,867 l695,0 l0,695 l-695,0 z" fill="#fe00ff" stroke="black" stroke-width="5"/>
<path d="M6562,3063 l1,0 l0,2390 l-1,0 z" fill="#0000ff" stroke="black" stroke-width="5"/>
<path d="M0,8168 l532,0 l0,1832 l-532,0 z" fill="#fe00ff" stroke="black" stroke-width="5"/>
<path d="M1745,4784 l546,0 l0,545 l-546,0 z" fill="#fe00ff" stroke="black" stroke-width="5"/>
<path d="M3436,853 l844,0 l0,711 l-844,0 z" fill="#fe00ff" stroke="black" stroke-width="5"/>
<path d="M7066,7934 l2934,0 l0,246 l-2934,0 z" fill="#3b00ff" stroke="black" stroke-width="5"/>
<path d="M6046,7259 l630,0 l0,630 l-630,0 z" fill="#fe00ff" stroke="black" stroke-width="5"/>
<path d="M7119,404 l264,0 l0,264 l-264,0 z" fill="#fe00ff" stroke="black" stroke-width="5"/>
<path d="M532,7655 l1010,0 l0,2345 l-1010,0 z" fill="#fe00ff" stroke="black" stroke-width="5"/>
<path d="M3780,7774 l288,0 l0,287 l-288,0 z" fill="#fe00ff" stroke="black" stroke-width="5"/>
<path d="M2647,4932 l638,0 l0,637 l-638,0 z" fill="#fe00ff" stroke="black" stroke-width="5"/>
<path d="M8860,2266 l374,0 l0,373 l-374,0 z" fill="#fe00ff" stroke="black" stroke-width="5"/>
<path d="M8103,482 l1897,0 l0,1784 l-1897,0 z" fill="#fe00ff" stroke="black" stroke-width="5"/>
<path d="M9496,5911 l279,0 l0,279 l-279,0 z" fill="#fe00ff" stroke="black" stroke-width="5"/>
<path d="M4698,6970 l1085,0 l0,1217 l-1085,0 z" fill="#fe00ff" stroke="black" stroke-width="5"/>
<path d="M5772,5816 l1268,0 l0,896 l-1268,0 z" fill="#fe00ff" stroke="black" stroke-width="5"/>
<path d="M4216,5816 l1556,0 l0,1154 l-1556,0 z" fill="#a900ff" stroke="black" stroke-width="5"/>
<path d="M8989,6273 l865,0 l0,865 l-865,0 z" fill="#fe00ff" stroke="black" stroke-width="5"/>
<path d="M2341,5628 l827,0 l0,827 l-827,0 z" fill="#fe00ff" stroke="black" stroke-width="5"/>
<path d="M3285,5453 l6715,0 l0,1 l-6715,0 z" fill="#0000ff" stroke="black" stroke-width="5"/>
<path d="M2534,8651 l1028,0 l0,1277 l-1028,0 z" fill="#fe00ff" stroke="black" stroke-width="5"/>
<path d="M3277,7677 l488,0 l0,974 l-488,0 z" fill="#fe00ff" stroke="black" stroke-width="5"/>
<path d="M3765,8061 l637,0 l0,731 l-637,0 z" fill="#fe00ff" stroke="black" stroke-width="5"/>
<path d="M1625,6186 l716,0 l0,976 l-716,0 z" fill="#fe00ff" stroke="black" stroke-width="5"/>
<path d="M2817,853 l619,0 l0,1001 l-619,0 z" fill="#0a00ff" stroke="black" stroke-width="5"/>
<path d="M7135,6849 l1268,0 l0,1085 l-1268,0 z" fill="#fe00ff" stroke="black" stroke-width="5"/>
<path d="M3562,8792 l840,0 l0,1208 l-840,0 z" fill="#7c00ff" stroke="black" stroke-width="5"/>
<path d="M765,6688 l605,0 l0,605 l-605,0 z" fill="#fe00ff" stroke="black" stroke-width="5"/>
<path d="M6210,0 l472,0 l0,361 l-472,0 z" fill="#fe00ff" stroke="black" stroke-width="5"/>
<path d="M1550,0 l1267,0 l0,1354 l-1267,0 z" fill="#fe00ff" stroke="black" stroke-width="5"/>
<path d="M6563,3063 l965,0 l0,2042 l-965,0 z" fill="#f300ff" stroke="black" stroke-width="5"/>
<path d="M6857,1562 l1246,0 l0,782 l-1246,0 z" fill="#fe00ff" stroke="black" stroke-width="5"/>
<path d="M1521,2896 l1214,0 l0,1214 l-1214,0 z" fill="#fe00ff" stroke="black" stroke-width="5"/>
<path d="M6076,1725 l781,0 l0,1338 l-781,0 z" fill="#fe00ff" stroke="black" stroke-width="5"/>
<path d="M0,2817 l1079,0 l0,1847 l-1079,0 z" fill="#f600ff" stroke="black" stroke-width="5"/>
<path d="M2735,2896 l781,0 l0,2036 l-781,0 z" fill="#3d00ff" stroke="black" stroke-width="5"/>
<path d="M8457,3841 l461,0 l0,460 l-461,0 z" fill="#fe00ff" stroke="black" stroke-width="5"/>
<path d="M4722,3099 l1072,0 l0,896 l-1072,0 z" fill="#fe00ff" stroke="black" stroke-width="5"/>
<path d="M5335,3995 l1227,0 l0,1458 l-1227,0 z" fill="#af00ff" stroke="black" stroke-width="5"/>
<path d="M459,0 l1091,0 l0,635 l-1091,0 z" fill="#fe00ff" stroke="black" stroke-width="5"/>
<path d="M0,7293 l4698,0 l0,362 l-4698,0 z" fill="#8700ff" stroke="black" stroke-width="5"/>
<path d="M6563,5105 l3437,0 l0,348 l-3437,0 z" fill="#2000ff" stroke="black" stroke-width="5"/>
<path d="M0,635 l1550,0 l0,1219 l-1550,0 z" fill="#b400ff" stroke="black" stroke-width="5"/>
<path d="M0,5891 l138,0 l0,267 l-138,0 z" fill="#fe00ff" stroke="black" stroke-width="5"/>
<path d="M4850,4804 l353,0 l0,352 l-353,0 z" fill="#fe00ff" stroke="black" stroke-width="5"/>
<path d="M4335,3995 l1000,0 l0,809 l-1000,0 z" fill="#2b00ff" stroke="black" stroke-width="5"/>
<path d="M7066,8180 l2066,0 l0,1596 l-2066,0 z" fill="#fe00ff" stroke="black" stroke-width="5"/>
<path d="M8403,7138 l1597,0 l0,796 l-1597,0 z" fill="#3100ff" stroke="black" stroke-width="5"/>
<path d="M6255,8099 l811,0 l0,811 l-811,0 z" fill="#fe00ff" stroke="black" stroke-width="5"/>
<path d="M1368,1854 l2242,0 l0,1042 l-2242,0 z" fill="#de00ff" stroke="black" stroke-width="5"/>
<path d="M1542,8191 l992,0 l0,1809 l-992,0 z" fill="#fe00ff" stroke="black" stroke-width="5"/>
<path d="M4402,8187 l643,0 l0,1106 l-643,0 z" fill="#fe00ff" stroke="black" stroke-width="5"/>
<path d="M3801,6052 l415,0 l0,414 l-415,0 z" fill="#fe00ff" stroke="black" stroke-width="5"/>
<path d="M3352,63 l1581,0 l0,790 l-1581,0 z" fill="#fe00ff" stroke="black" stroke-width="5"/>
<path d="M7528,3798 l929,0 l0,1192 l-929,0 z" fill="#fe00ff" stroke="black" stroke-width="5"/>
<path d="M3516,3191 l819,0 l0,818 l-819,0 z" fill="#fe00ff" stroke="black" stroke-width="5"/>
<path d="M138,4664 l1239,0 l0,1440 l-1239,0 z" fill="#fe00ff" stroke="black" stroke-width="5"/>
<path d="M7040,5816 l1949,0 l0,1033 l-1949,0 z" fill="#fa00ff" stroke="black" stroke-width="5"/>
<path d="M5092,2576 l60,0 l0,60 l-60,0 z" fill="green"/>
<path d="M5122,2606 l0.5,0" stroke="black" stroke-width="5"/>
<path d="M5937,8140 l60,0 l0,60 l-60,0 z" fill="green"/>
<path d="M5967,8170 l0.5,0" stroke="black" stroke-width="5"/>
<path d="M6363,5785 l60,0 l0,60 l-60,0 z" fill="green"/>
<path d="M6393,5815 l0.5,-180" stroke="black" stroke-width="5"/>
<path d="M1222,3624 l60,0 l0,60 l-60,0 z" fill="green"/>
<path d="M1252,3654 l0.5,0.5" stroke="black" stroke-width="5"/>
<path d="M275,2786 l60,0 l0,60 l-60,0 z" fill="green"/>
<path d="M305,2816 l379,-480.5" stroke="black" stroke-width="5"/>
<path d="M3869,2183 l60,0 l0,60 l-60,0 z" fill="green"/>
<path d="M3899,2213 l0,0.5" stroke="black" stroke-width="5"/>
<path d="M5536,533 l60,0 l0,60 l-60,0 z" fill="green"/>
<path d="M5566,563 l5.5,161" stroke="black" stroke-width="5"/>
<path d="M7567,1184 l60,0 l0,60 l-60,0 z" fill="green"/>
<path d="M7597,1214 l0.5,0.5" stroke="black" stroke-width="5"/>
<path d="M6532,4066 l60,0 l0,60 l-60,0 z" fill="green"/>
<path d="M6562,4096 l0.5,162" stroke="black" stroke-width="5"/>
<path d="M426,9747 l60,0 l0,60 l-60,0 z" fill="green"/>
<path d="M456,9777 l-190,-693" stroke="black" stroke-width="5"/>
<path d="M1988,5026 l60,0 l0,60 l-60,0 z" fill="green"/>
<path d="M2018,5056 l0,0.5" stroke="black" stroke-width="5"/>
<path d="M3828,1112 l60,0 l0,60 l-60,0 z" fill="green"/>
<path d="M3858,1142 l0,66.5" stroke="black" stroke-width="5"/>
<path d="M7713,7904 l60,0 l0,60 l-60,0 z" fill="green"/>
<path d="M7743,7934 l790,123" stroke="black" stroke-width="5"/>
<path d="M6331,7544 l60,0 l0,60 l-60,0 z" fill="green"/>
<path d="M6361,7574 l0,0" stroke="black" stroke-width="5"/>
<path d="M7221,506 l60,0 l0,60 l-60,0 z" fill="green"/>
<path d="M7251,536 l0,0" stroke="black" stroke-width="5"/>
<path d="M502,9718 l60,0 l0,60 l-60,0 z" fill="green"/>
<path d="M532,9748 l505,-920.5" stroke="black" stroke-width="5"/>
<path d="M3894,7887 l60,0 l0,60 l-60,0 z" fill="green"/>
<path d="M3924,7917 l0,0.5" stroke="black" stroke-width="5"/>
<path d="M2936,5220 l60,0 l0,60 l-60,0 z" fill="green"/>
<path d="M2966,5250 l0,0.5" stroke="black" stroke-width="5"/>
<path d="M9017,2422 l60,0 l0,60 l-60,0 z" fill="green"/>
<path d="M9047,2452 l0,0.5" stroke="black" stroke-width="5"/>
<path d="M9115,1533 l60,0 l0,60 l-60,0 z" fill="green"/>
<path d="M9145,1563 l-93.5,-189" stroke="black" stroke-width="5"/>
<path d="M9605,6020 l60,0 l0,60 l-60,0 z" fill="green"/>
<path d="M9635,6050 l0.5,0.5" stroke="black" stroke-width="5"/>
<path d="M5424,7696 l60,0 l0,60 l-60,0 z" fill="green"/>
<path d="M5454,7726 l-213.5,-147.5" stroke="black" stroke-width="5"/>
<path d="M6376,6048 l60,0 l0,60 l-60,0 z" fill="green"/>
<path d="M6406,6078 l0,186" stroke="black" stroke-width="5"/>
<path d="M5509,6262 l60,0 l0,60 l-60,0 z" fill="green"/>
<path d="M5539,6292 l-545,101" stroke="black" stroke-width="5"/>
<path d="M9391,6675 l60,0 l0,60 l-60,0 z" fill="green"/>
<path d="M9421,6705 l0.5,0.5" stroke="black" stroke-width="5"/>
<path d="M2724,6011 l60,0 l0,60 l-60,0 z" fill="green"/>
<path d="M2754,6041 l0.5,0.5" stroke="black" stroke-width="5"/>
<path d="M6142,5423 l60,0 l0,60 l-60,0 z" fill="green"/>
<path d="M6172,5453 l470.5,0.5" stroke="black" stroke-width="5"/>
<path d="M3162,9239 l60,0 l0,60 l-60,0 z" fill="green"/>
<path d="M3192,9269 l-144,20.5" stroke="black" stroke-width="5"/>
<path d="M3734,8134 l60,0 l0,60 l-60,0 z" fill="green"/>
<path d="M3764,8164 l-243,0" stroke="black" stroke-width="5"/>
<path d="M3924,8314 l60,0 l0,60 l-60,0 z" fill="green"/>
<path d="M3954,8344 l129.5,82.5" stroke="black" stroke-width="5"/>
<path d="M2082,6644 l60,0 l0,60 l-60,0 z" fill="green"/>
<path d="M2112,6674 l-129,0" stroke="black" stroke-width="5"/>
<path d="M2877,1406 l60,0 l0,60 l-60,0 z" fill="green"/>
<path d="M2907,1436 l219.5,-82.5" stroke="black" stroke-width="5"/>
<path d="M7739,7452 l60,0 l0,60 l-60,0 z" fill="green"/>
<path d="M7769,7482 l0,-90.5" stroke="black" stroke-width="5"/>
<path d="M3532,9080 l60,0 l0,60 l-60,0 z" fill="green"/>
<path d="M3562,9110 l420,286" stroke="black" stroke-width="5"/>
<path d="M1037,6960 l60,0 l0,60 l-60,0 z" fill="green"/>
<path d="M1067,6990 l0.5,0.5" stroke="black" stroke-width="5"/>
<path d="M6416,95 l60,0 l0,60 l-60,0 z" fill="green"/>
<path d="M6446,125 l0,55.5" stroke="black" stroke-width="5"/>
<path d="M1520,57 l60,0 l0,60 l-60,0 z" fill="green"/>
<path d="M1550,87 l633.5,590" stroke="black" stroke-width="5"/>
<path d="M7119,4487 l60,0 l0,60 l-60,0 z" fill="green"/>
<path d="M7149,4517 l-103.5,-433" stroke="black" stroke-width="5"/>
<path d="M7450,1691 l60,0 l0,60 l-60,0 z" fill="green"/>
<path d="M7480,1721 l0,232" stroke="black" stroke-width="5"/>
<path d="M2098,3473 l60,0 l0,60 l-60,0 z" fill="green"/>
<path d="M2128,3503 l0,0" stroke="black" stroke-width="5"/>
<path d="M6715,2364 l60,0 l0,60 l-60,0 z" fill="green"/>
<path d="M6745,2394 l-278.5,0" stroke="black" stroke-width="5"/>
<path d="M29,4216 l60,0 l0,60 l-60,0 z" fill="green"/>
<path d="M59,4246 l480.5,-505.5" stroke="black" stroke-width="5"/>
<path d="M2758,3510 l60,0 l0,60 l-60,0 z" fill="green"/>
<path d="M2788,3540 l337.5,374" stroke="black" stroke-width="5"/>
<path d="M8657,4041 l60,0 l0,60 l-60,0 z" fill="green"/>
<path d="M8687,4071 l0.5,0" stroke="black" stroke-width="5"/>
<path d="M5228,3604 l60,0 l0,60 l-60,0 z" fill="green"/>
<path d="M5258,3634 l0,-87" stroke="black" stroke-width="5"/>
<path d="M5861,4263 l60,0 l0,60 l-60,0 z" fill="green"/>
<path d="M5891,4293 l57.5,431" stroke="black" stroke-width="5"/>
<path d="M1022,173 l60,0 l0,60 l-60,0 z" fill="green"/>
<path d="M1052,203 l-47.5,114.5" stroke="black" stroke-width="5"/>
<path d="M1492,7624 l60,0 l0,60 l-60,0 z" fill="green"/>
<path d="M1522,7654 l827,-180" stroke="black" stroke-width="5"/>
<path d="M7451,5075 l60,0 l0,60 l-60,0 z" fill="green"/>
<path d="M7481,5105 l800.5,174" stroke="black" stroke-width="5"/>
<path d="M1143,605 l60,0 l0,60 l-60,0 z" fill="green"/>
<path d="M1173,635 l-398,609.5" stroke="black" stroke-width="5"/>
<path d="M-25,5994 l60,0 l0,60 l-60,0 z" fill="green"/>
<path d="M5,6024 l64,0.5" stroke="black" stroke-width="5"/>
<path d="M4996,4950 l60,0 l0,60 l-60,0 z" fill="green"/>
<path d="M5026,4980 l0.5,0" stroke="black" stroke-width="5"/>
<path d="M5304,3965 l60,0 l0,60 l-60,0 z" fill="green"/>
<path d="M5334,3995 l-499,404.5" stroke="black" stroke-width="5"/>
<path d="M7506,8150 l60,0 l0,60 l-60,0 z" fill="green"/>
<path d="M7536,8180 l563,798" stroke="black" stroke-width="5"/>
<path d="M9603,7217 l60,0 l0,60 l-60,0 z" fill="green"/>
<path d="M9633,7247 l-431.5,289" stroke="black" stroke-width="5"/>
<path d="M6630,8474 l60,0 l0,60 l-60,0 z" fill="green"/>
<path d="M6660,8504 l0.5,0.5" stroke="black" stroke-width="5"/>
<path d="M1338,1824 l60,0 l0,60 l-60,0 z" fill="green"/>
<path d="M1368,1854 l1121,521" stroke="black" stroke-width="5"/>
<path d="M2457,9106 l60,0 l0,60 l-60,0 z" fill="green"/>
<path d="M2487,9136 l-449,-40.5" stroke="black" stroke-width="5"/>
<path d="M4461,8710 l60,0 l0,60 l-60,0 z" fill="green"/>
<path d="M4491,8740 l232.5,0" stroke="black" stroke-width="5"/>
<path d="M3978,6229 l60,0 l0,60 l-60,0 z" fill="green"/>
<path d="M4008,6259 l0.5,0" stroke="black" stroke-width="5"/>
<path d="M4112,822 l60,0 l0,60 l-60,0 z" fill="green"/>
<path d="M4142,852 l0.5,-394" stroke="black" stroke-width="5"/>
<path d="M8094,4364 l60,0 l0,60 l-60,0 z" fill="green"/>
<path d="M8124,4394 l-131.5,0" stroke="black" stroke-width="5"/>
<path d="M3895,3570 l60,0 l0,60 l-60,0 z" fill="green"/>
<path d="M3925,3600 l0.5,0" stroke="black" stroke-width="5"/>
<path d="M626,5354 l60,0 l0,60 l-60,0 z" fill="green"/>
<path d="M656,5384 l101.5,0" stroke="black" stroke-width="5"/>
<path d="M8019,5983 l60,0 l0,60 l-60,0 z" fill="green"/>
<path d="M8049,6013 l-34.5,319.5" stroke="black" stroke-width="5"/>
<text font-size="175.41160386140584" text-anchor="middle" x="5122.5" y="2667.394061351492">
0
</text>
<text font-size="175.41160386140584" text-anchor="middle" x="5967.5" y="8231.394061351491">
1
</text>
<text font-size="175.41160386140584" text-anchor="middle" x="6393.5" y="5696.394061351492">
2
</text>
<text font-size="175.41160386140584" text-anchor="middle" x="1252.5" y="3715.894061351492">
3
</text>
<text font-size="175.41160386140584" text-anchor="middle" x="684" y="2396.894061351492">
4
</text>
<text font-size="175.41160386140584" text-anchor="middle" x="3899" y="2274.894061351492">
5
</text>
<text font-size="175.41160386140584" text-anchor="middle" x="5571.5" y="785.394061351492">
6
</text>
<text font-size="175.41160386140584" text-anchor="middle" x="7597.5" y="1275.894061351492">
7
</text>
<text font-size="175.41160386140584" text-anchor="middle" x="6562.5" y="4319.394061351492">
8
</text>
<text font-size="175.41160386140584" text-anchor="middle" x="266" y="9145.394061351491">
9
</text>
<text font-size="175.41160386140584" text-anchor="middle" x="2018" y="5117.894061351492">
10
</text>
<text font-size="175.41160386140584" text-anchor="middle" x="3858" y="1269.894061351492">
11
</text>
<text font-size="175.41160386140584" text-anchor="middle" x="8533" y="8118.394061351492">
12
</text>
<text font-size="175.41160386140584" text-anchor="middle" x="6361" y="7635.394061351492">
13
</text>
<text font-size="175.41160386140584" text-anchor="middle" x="7251" y="597.394061351492">
14
</text>
<text font-size="175.41160386140584" text-anchor="middle" x="1037" y="8888.894061351491">
15
</text>
<text font-size="175.41160386140584" text-anchor="middle" x="3924" y="7978.894061351492">
16
</text>
<text font-size="175.41160386140584" text-anchor="middle" x="2966" y="5311.894061351492">
17
</text>
<text font-size="175.41160386140584" text-anchor="middle" x="9047" y="2513.894061351492">
18
</text>
<text font-size="175.41160386140584" text-anchor="middle" x="9051.5" y="1435.394061351492">
19
</text>
<text font-size="175.41160386140584" text-anchor="middle" x="9635.5" y="6111.894061351492">
20
</text>
<text font-size="175.41160386140584" text-anchor="middle" x="5240.5" y="7639.894061351492">
21
</text>
<text font-size="175.41160386140584" text-anchor="middle" x="6406" y="6325.394061351492">
22
</text>
<text font-size="175.41160386140584" text-anchor="middle" x="4994" y="6454.394061351492">
23
</text>
<text font-size="175.41160386140584" text-anchor="middle" x="9421.5" y="6766.894061351492">
24
</text>
<text font-size="175.41160386140584" text-anchor="middle" x="2754.5" y="6102.894061351492">
25
</text>
<text font-size="175.41160386140584" text-anchor="middle" x="6642.5" y="5514.894061351492">
26
</text>
<text font-size="175.41160386140584" text-anchor="middle" x="3048" y="9350.894061351491">
27
</text>
<text font-size="175.41160386140584" text-anchor="middle" x="3521" y="8225.394061351491">
28
</text>
<text font-size="175.41160386140584" text-anchor="middle" x="4083.5" y="8487.894061351491">
29
</text>
<text font-size="175.41160386140584" text-anchor="middle" x="1983" y="6735.394061351492">
30
</text>
<text font-size="175.41160386140584" text-anchor="middle" x="3126.5" y="1414.894061351492">
31
</text>
<text font-size="175.41160386140584" text-anchor="middle" x="7769" y="7452.894061351492">
32
</text>
<text font-size="175.41160386140584" text-anchor="middle" x="3982" y="9457.394061351491">
33
</text>
<text font-size="175.41160386140584" text-anchor="middle" x="1067.5" y="7051.894061351492">
34
</text>
<text font-size="175.41160386140584" text-anchor="middle" x="6446" y="241.89406135149204">
35
</text>
<text font-size="175.41160386140584" text-anchor="middle" x="2183.5" y="738.394061351492">
36
</text>
<text font-size="175.41160386140584" text-anchor="middle" x="7045.5" y="4145.394061351492">
37
</text>
<text font-size="175.41160386140584" text-anchor="middle" x="7480" y="2014.394061351492">
38
</text>
<text font-size="175.41160386140584" text-anchor="middle" x="2128" y="3564.394061351492">
39
</text>
<text font-size="175.41160386140584" text-anchor="middle" x="6466.5" y="2455.394061351492">
40
</text>
<text font-size="175.41160386140584" text-anchor="middle" x="539.5" y="3801.894061351492">
41
</text>
<text font-size="175.41160386140584" text-anchor="middle" x="3125.5" y="3975.394061351492">
42
</text>
<text font-size="175.41160386140584" text-anchor="middle" x="8687.5" y="4132.394061351492">
43
</text>
<text font-size="175.41160386140584" text-anchor="middle" x="5258" y="3608.394061351492">
44
</text>
<text font-size="175.41160386140584" text-anchor="middle" x="5948.5" y="4785.394061351492">
45
</text>
<text font-size="175.41160386140584" text-anchor="middle" x="1004.5" y="378.89406135149204">
46
</text>
<text font-size="175.41160386140584" text-anchor="middle" x="2349" y="7535.394061351492">
47
</text>
<text font-size="175.41160386140584" text-anchor="middle" x="8281.5" y="5340.394061351492">
48
</text>
<text font-size="175.41160386140584" text-anchor="middle" x="775" y="1305.894061351492">
49
</text>
<text font-size="175.41160386140584" text-anchor="middle" x="69" y="6085.894061351492">
50
</text>
<text font-size="175.41160386140584" text-anchor="middle" x="5026.5" y="5041.394061351492">
51
</text>
<text font-size="175.41160386140584" text-anchor="middle" x="4835" y="4460.894061351492">
52
</text>
<text font-size="175.41160386140584" text-anchor="middle" x="8099" y="9039.394061351491">
53
</text>
<text font-size="175.41160386140584" text-anchor="middle" x="9201.5" y="7597.394061351492">
54
</text>
<text font-size="175.41160386140584" text-anchor="middle" x="6660.5" y="8565.894061351491">
55
</text>
<text font-size="175.41160386140584" text-anchor="middle" x="2489" y="2436.394061351492">
56
</text>
<text font-size="175.41160386140584" text-anchor="middle" x="2038" y="9156.894061351491">
57
</text>
<text font-size="175.41160386140584" text-anchor="middle" x="4723.5" y="8801.394061351491">
58
</text>
<text font-size="175.41160386140584" text-anchor="middle" x="4008.5" y="6320.394061351492">
59
</text>
<text font-size="175.41160386140584" text-anchor="middle" x="4142.5" y="519.394061351492">
60
</text>
<text font-size="175.41160386140584" text-anchor="middle" x="7992.5" y="4455.394061351492">
61
</text>
<text font-size="175.41160386140584" text-anchor="middle" x="3925.5" y="3661.394061351492">
62
</text>
<text font-size="175.41160386140584" text-anchor="middle" x="757.5" y="5445.394061351492">
63
</text>
<text font-size="175.41160386140584" text-anchor="middle" x="8014.5" y="6393.894061351492">
64
</text>
</svg>