<svg viewBox="-100 -100 10200 10200" xmlns="http://www.w3.org/2000/svg">
<path d="M0,0 l10000,0 l0,10000 l-10000,0 z" fill="white"/>
<path d="M6639,7716 l616,0 l0,882 l-616,0 z" fill="#ea00ff" stroke="black" stroke-width="5"/>
<path d="M6085,2833 l156,0 l0,638 l-156,0 z" fill="#0100ff" stroke="black" stroke-width="5"/>
<path d="M8290,5390 l529,0 l0,529 l-529,0 z" fill="#fe00ff" stroke="black" stroke-width="5"/>
<path d="M7337,6564 l816,0 l0,225 l-816,0 z" fill="#0500ff" stroke="black" stroke-width="5"/>
<path d="M1536,8633 l1462,0 l0,804 l-1462,0 z" fill="#9d00ff" stroke="black" stroke-width="5"/>
<path d="M5233,7195 l590,0 l0,589 l-590,0 z" fill="#fe00ff" stroke="black" stroke-width="5"/>
<path d="M3225,1453 l871,0 l0,870 l-871,0 z" fill="#fe00ff" stroke="black" stroke-width="5"/>
<path d="M7916,9062 l319,0 l0,938 l-319,0 z" fill="#2100ff" stroke="black" stroke-width="5"/>
<path d="M5153,1558 l312,0 l0,312 l-312,0 z" fill="#fe00ff" stroke="black" stroke-width="5"/>
<path d="M2629,2516 l801,0 l0,834 l-801,0 z" fill="#fe00ff" stroke="black" stroke-width="5"/>
<path d="M932,3379 l342,0 l0,342 l-342,0 z" fill="#fe00ff" stroke="black" stroke-width="5"/>
<path d="M5597,8545 l789,0 l0,729 l-789,0 z" fill="#fe00ff" stroke="black" stroke-width="5"/>
<path d="M620,6766 l806,0 l0,228 l-806,0 z" fill="#0d00ff" stroke="black" stroke-width="5"/>
<path d="M4765,0 l2037,0 l0,16 l-2037,0 z" fill="#0000ff" stroke="black" stroke-width="5"/>
<path d="M7288,1639 l867,0 l0,1000 l-867,0 z" fill="#fe00ff" stroke="black" stroke-width="5"/>
<path d="M2181,2485 l448,0 l0,1537 l-448,0 z" fill="#fe00ff" stroke="black" stroke-width="5"/>
<path d="M6980,8598 l1381,0 l0,464 l-1381,0 z" fill="#fe00ff" stroke="black" stroke-width="5"/>
<path d="M6871,5226 l341,0 l0,340 l-341,0 z" fill="#fe00ff" stroke="black" stroke-width="5"/>
<path d="M2403,690 l822,0 l0,1127 l-822,0 z" fill="#fe00ff" stroke="black" stroke-width="5"/>
<path d="M2767,9587 l1218,0 l0,413 l-1218,0 z" fill="#8e00ff" stroke="black" stroke-width="5"/>
<path d="M8483,8050 l592,0 l0,562 l-592,0 z" fill="#fe00ff" stroke="black" stroke-width="5"/>
<path d="M5597,7784 l588,0 l0,761 l-588,0 z" fill="#fe00ff" stroke="black" stroke-width="5"/>
<path d="M8442,105 l481,0 l0,603 l-481,0 z" fill="#fe00ff" stroke="black" stroke-width="5"/>
<path d="M9184,2898 l816,0 l0,986 l-816,0 z" fill="#fe00ff" stroke="black" stroke-width="5"/>
<path d="M6810,9062 l1106,0 l0,553 l-1106,0 z" fill="#fe00ff" stroke="black" stroke-width="5"/>
<path d="M70,5139 l882,0 l0,442 l-882,0 z" fill="#fe00ff" stroke="black" stroke-width="5"/>
<path d="M6686,6145 l81,0 l0,79 l-81,0 z" fill="#ff00ff" stroke="black" stroke-width="5"/>
<path d="M2181,4149 l1795,0 l0,388 l-1795,0 z" fill="#2c00ff" stroke="black" stroke-width="5"/>
<path d="M3430,2659 l5361,0 l0,174 l-5361,0 z" fill="#d200ff" stroke="black" stroke-width="5"/>
<path d="M4224,5328 l466,0 l0,466 l-466,0 z" fill="#fe00ff" stroke="black" stroke-width="5"/>
<path d="M3417,4537 l559,0 l0,457 l-559,0 z" fill="#fe00ff" stroke="black" stroke-width="5"/>
<path d="M7337,5822 l816,0 l0,742 l-816,0 z" fill="#fe00ff" stroke="black" stroke-width="5"/>
<path d="M2998,8816 l448,0 l0,447 l-448,0 z" fill="#fe00ff" stroke="black" stroke-width="5"/>
<path d="M2629,3836 l2028,0 l0,313 l-2028,0 z" fill="#3800ff" stroke="black" stroke-width="5"/>
<path d="M7930,2833 l708,0 l0,1375 l-708,0 z" fill="#7800ff" stroke="black" stroke-width="5"/>
<path d="M6514,2300 l359,0 l0,359 l-359,0 z" fill="#fe00ff" stroke="black" stroke-width="5"/>
<path d="M1274,3688 l907,0 l0,1209 l-907,0 z" fill="#fe00ff" stroke="black" stroke-width="5"/>
<path d="M1417,143 l522,0 l0,624 l-522,0 z" fill="#fe00ff" stroke="black" stroke-width="5"/>
<path d="M2896,5369 l94,0 l0,93 l-94,0 z" fill="#fe00ff" stroke="black" stroke-width="5"/>
<path d="M2178,9437 l589,0 l0,563 l-589,0 z" fill="#fe00ff" stroke="black" stroke-width="5"/>
<path d="M5219,3812 l638,0 l0,314 l-638,0 z" fill="#0a00ff" stroke="black" stroke-width="5"/>
<path d="M6085,3471 l1324,0 l0,341 l-1324,0 z" fill="#d000ff" stroke="black" stroke-width="5"/>
<path d="M1939,0 l1911,0 l0,237 l-1911,0 z" fill="#fe00ff" stroke="black" stroke-width="5"/>
<path d="M6830,9615 l887,0 l0,385 l-887,0 z" fill="#fe00ff" stroke="black" stroke-width="5"/>
<path d="M6967,593 l918,0 l0,989 l-918,0 z" fill="#fe00ff" stroke="black" stroke-width="5"/>
<path d="M5870,917 l1097,0 l0,890 l-1097,0 z" fill="#fe00ff" stroke="black" stroke-width="5"/>
<path d="M4206,6262 l638,0 l0,669 l-638,0 z" fill="#fe00ff" stroke="black" stroke-width="5"/>
<path d="M7255,7473 l365,0 l0,1125 l-365,0 z" fill="#fe00ff" stroke="black" stroke-width="5"/>
<path d="M448,9560 l946,0 l0,440 l-946,0 z" fill="#8d00ff" stroke="black" stroke-width="5"/>
<path d="M236,3738 l714,0 l0,567 l-714,0 z" fill="#fe00ff" stroke="black" stroke-width="5"/>
<path d="M8391,7518 l366,0 l0,365 l-366,0 z" fill="#fe00ff" stroke="black" stroke-width="5"/>
<path d="M8165,4750 l125,0 l0,1324 l-125,0 z" fill="#0600ff" stroke="black" stroke-width="5"/>
<path d="M106,2936 l139,0 l0,138 l-139,0 z" fill="#fe00ff" stroke="black" stroke-width="5"/>
<path d="M4914,1105 l235,0 l0,234 l-235,0 z" fill="#fe00ff" stroke="black" stroke-width="5"/>
<path d="M8165,6074 l919,0 l0,885 l-919,0 z" fill="#fe00ff" stroke="black" stroke-width="5"/>
<path d="M3892,3337 l362,0 l0,361 l-362,0 z" fill="#fe00ff" stroke="black" stroke-width="5"/>
<path d="M6241,2833 l853,0 l0,638 l-853,0 z" fill="#fe00ff" stroke="black" stroke-width="5"/>
<path d="M6926,4595 l1170,0 l0,631 l-1170,0 z" fill="#e700ff" stroke="black" stroke-width="5"/>
<path d="M7409,3553 l521,0 l0,1042 l-521,0 z" fill="#fe00ff" stroke="black" stroke-width="5"/>
<path d="M442,549 l630,0 l0,701 l-630,0 z" fill="#fe00ff" stroke="black" stroke-width="5"/>
<path d="M8153,4750 l12,0 l0,2039 l-12,0 z" fill="#0000ff" stroke="black" stroke-width="5"/>
<path d="M7885,593 l456,0 l0,456 l-456,0 z" fill="#fe00ff" stroke="black" stroke-width="5"/>
<path d="M9033,7090 l550,0 l0,549 l-550,0 z" fill="#fe00ff" stroke="black" stroke-width="5"/>
<path d="M7721,218 l721,0 l0,375 l-721,0 z" fill="#fe00ff" stroke="black" stroke-width="5"/>
<path d="M421,8806 l254,0 l0,253 l-254,0 z" fill="#fe00ff" stroke="black" stroke-width="5"/>
<path d="M0,0 l1072,0 l0,549 l-1072,0 z" fill="#f200ff" stroke="black" stroke-width="5"/>
<path d="M8361,8612 l1540,0 l0,560 l-1540,0 z" fill="#fe00ff" stroke="black" stroke-width="5"/>
<path d="M52,5581 l514,0 l0,507 l-514,0 z" fill="#fe00ff" stroke="black" stroke-width="5"/>
<path d="M3976,4418 l373,0 l0,746 l-373,0 z" fill="#fe00ff" stroke="black" stroke-width="5"/>
<path d="M5870,1807 l183,0 l0,852 l-183,0 z" fill="#0200ff" stroke="black" stroke-width="5"/>
<path d="M8165,6959 l203,0 l0,203 l-203,0 z" fill="#fe00ff" stroke="black" stroke-width="5"/>
<path d="M8165,7162 l594,0 l0,356 l-594,0 z" fill="#2b00ff" stroke="black" stroke-width="5"/>
<path d="M3825,7639 l925,0 l0,494 l-925,0 z" fill="#fe00ff" stroke="black" stroke-width="5"/>
<path d="M5903,7082 l736,0 l0,702 l-736,0 z" fill="#fe00ff" stroke="black" stroke-width="5"/>
<path d="M6143,3812 l184,0 l0,2515 l-184,0 z" fill="#8e00ff" stroke="black" stroke-width="5"/>
<path d="M5313,3169 l772,0 l0,643 l-772,0 z" fill="#fe00ff" stroke="black" stroke-width="5"/>
<path d="M1313,9236 l223,0 l0,324 l-223,0 z" fill="#fe00ff" stroke="black" stroke-width="5"/>
<path d="M5108,6982 l1659,0 l0,100 l-1659,0 z" fill="#0600ff" stroke="black" stroke-width="5"/>
<path d="M1274,3013 l907,0 l0,675 l-907,0 z" fill="#f400ff" stroke="black" stroke-width="5"/>
<path d="M4349,4611 l1213,0 l0,717 l-1213,0 z" fill="#fe00ff" stroke="black" stroke-width="5"/>
<path d="M5465,523 l405,0 l0,2136 l-405,0 z" fill="#5900ff" stroke="black" stroke-width="5"/>
<path d="M4368,4149 l662,0 l0,462 l-662,0 z" fill="#fe00ff" stroke="black" stroke-width="5"/>
<path d="M8348,8001 l135,0 l0,134 l-135,0 z" fill="#fe00ff" stroke="black" stroke-width="5"/>
<path d="M1699,8433 l181,0 l0,181 l-181,0 z" fill="#fe00ff" stroke="black" stroke-width="5"/>
<path d="M9084,6076 l916,0 l0,539 l-916,0 z" fill="#7d00ff" stroke="black" stroke-width="5"/>
<path d="M620,6994 l528,0 l0,528 l-528,0 z" fill="#fe00ff" stroke="black" stroke-width="5"/>
<path d="M9273,5433 l727,0 l0,643 l-727,0 z" fill="#fe00ff" stroke="black" stroke-width="5"/>
<path d="M1426,6840 l679,0 l0,1010 l-679,0 z" fill="#fe00ff" stroke="black" stroke-width="5"/>
<path d="M1271,2239 l774,0 l0,774 l-774,0 z" fill="#fe00ff" stroke="black" stroke-width="5"/>
<path d="M7797,6789 l368,0 l0,503 l-368,0 z" fill="#fe00ff" stroke="black" stroke-width="5"/>
<path d="M3446,8378 l666,0 l0,1209 l-666,0 z" fill="#fe00ff" stroke="black" stroke-width="5"/>
<path d="M8235,9172 l1021,0 l0,828 l-1021,0 z" fill="#fe00ff" stroke="black" stroke-width="5"/>
<path d="M3522,7000 l84,0 l0,83 l-84,0 z" fill="#fe00ff" stroke="black" stroke-width="5"/>
<path d="M5062,3898 l157,0 l0,157 l-157,0 z" fill="#fe00ff" stroke="black" stroke-width="5"/>
<path d="M1074,9232 l239,0 l0,238 l-239,0 z" fill="#fe00ff" stroke="black" stroke-width="5"/>
<path d="M8155,1885 l636,0 l0,635 l-636,0 z" fill="#fe00ff" stroke="black" stroke-width="5"/>
<path d="M2629,1817 l596,0 l0,699 l-596,0 z" fill="#5800ff" stroke="black" stroke-width="5"/>
<path d="M702,6179 l587,0 l0,587 l-587,0 z" fill="#fe00ff" stroke="black" stroke-width="5"/>
<path d="M7620,7857 l521,0 l0,520 l-521,0 z" fill="#fe00ff" stroke="black" stroke-width="5"/>
<path d="M6053,1807 l1235,0 l0,493 l-1235,0 z" fill="#7300ff" stroke="black" stroke-width="5"/>
<path d="M4590,1300 l324,0 l0,354 l-324,0 z" fill="#fe00ff" stroke="black" stroke-width="5"/>
<path d="M9720,2492 l140,0 l0,140 l-140,0 z" fill="#fe00ff" stroke="black" stroke-width="5"/>
<path d="M4112,9205 l335,0 l0,340 l-335,0 z" fill="#fe00ff" stroke="black" stroke-width="5"/>
<path d="M6001,34 l801,0 l0,883 l-801,0 z" fill="#fe00ff" stroke="black" stroke-width="5"/>
<path d="M8669,3400 l485,0 l0,484 l-485,0 z" fill="#fe00ff" stroke="black" stroke-width="5"/>
<path d="M8879,3884 l874,0 l0,630 l-874,0 z" fill="#fe00ff" stroke="black" stroke-width="5"/>
<path d="M2105,6728 l554,0 l0,856 l-554,0 z" fill="#fe00ff" stroke="black" stroke-width="5"/>
<path d="M4657,3521 l405,0 l0,628 l-405,0 z" fill="#fe00ff" stroke="black" stroke-width="5"/>
<path d="M6386,8598 l594,0 l0,464 l-594,0 z" fill="#2e00ff" stroke="black" stroke-width="5"/>
<path d="M8483,7883 l1517,0 l0,167 l-1517,0 z" fill="#2d00ff" stroke="black" stroke-width="5"/>
<path d="M2629,3698 l2028,0 l0,138 l-2028,0 z" fill="#2f00ff" stroke="black" stroke-width="5"/>
<path d="M8638,3884 l241,0 l0,1506 l-241,0 z" fill="#5400ff" stroke="black" stroke-width="5"/>
<path d="M3605,5164 l595,0 l0,564 l-595,0 z" fill="#fe00ff" stroke="black" stroke-width="5"/>
<path d="M4844,6724 l264,0 l0,263 l-264,0 z" fill="#fe00ff" stroke="black" stroke-width="5"/>
<path d="M9002,4514 l909,0 l0,775 l-909,0 z" fill="#fe00ff" stroke="black" stroke-width="5"/>
<path d="M353,2335 l690,0 l0,617 l-690,0 z" fill="#fe00ff" stroke="black" stroke-width="5"/>
<path d="M6802,0 l3198,0 l0,105 l-3198,0 z" fill="#6700ff" stroke="black" stroke-width="5"/>
<path d="M1394,9560 l138,0 l0,137 l-138,0 z" fill="#fe00ff" stroke="black" stroke-width="5"/>
<path d="M0,3786 l236,0 l0,450 l-236,0 z" fill="#fe00ff" stroke="black" stroke-width="5"/>
<path d="M6767,5566 l570,0 l0,1841 l-570,0 z" fill="#b800ff" stroke="black" stroke-width="5"/>
<path d="M1720,4897 l419,0 l0,418 l-419,0 z" fill="#fe00ff" stroke="black" stroke-width="5"/>
<path d="M8791,1852 l929,0 l0,1046 l-929,0 z" fill="#e600ff" stroke="black" stroke-width="5"/>
<path d="M4975,8046 l622,0 l0,416 l-622,0 z" fill="#fe00ff" stroke="black" stroke-width="5"/>
<path d="M245,2952 l1026,0 l0,122 l-1026,0 z" fill="#0800ff" stroke="black" stroke-width="5"/>
<path d="M0,9342 l448,0 l0,658 l-448,0 z" fill="#fe00ff" stroke="black" stroke-width="5"/>
<path d="M5423,16 l578,0 l0,507 l-578,0 z" fill="#fe00ff" stroke="black" stroke-width="5"/>
<path d="M2369,237 l270,0 l0,270 l-270,0 z" fill="#fe00ff" stroke="black" stroke-width="5"/>
<path d="M5062,8462 l535,0 l0,963 l-535,0 z" fill="#fe00ff" stroke="black" stroke-width="5"/>
<path d="M2139,4994 l1837,0 l0,170 l-1837,0 z" fill="#6b00ff" stroke="black" stroke-width="5"/>
<path d="M5062,9425 l1748,0 l0,575 l-1748,0 z" fill="#8800ff" stroke="black" stroke-width="5"/>
<path d="M8759,7139 l169,0 l0,168 l-169,0 z" fill="#fe00ff" stroke="black" stroke-width="5"/>
<path d="M7034,3875 l375,0 l0,456 l-375,0 z" fill="#fe00ff" stroke="black" stroke-width="5"/>
<path d="M6907,7407 l310,0 l0,309 l-310,0 z" fill="#fe00ff" stroke="black" stroke-width="5"/>
<path d="M1417,767 l335,0 l0,335 l-335,0 z" fill="#fe00ff" stroke="black" stroke-width="5"/>
<path d="M8096,4208 l542,0 l0,542 l-542,0 z" fill="#fe00ff" stroke="black" stroke-width="5"/>
<path d="M9084,6615 l832,0 l0,475 l-832,0 z" fill="#fe00ff" stroke="black" stroke-width="5"/>
<path d="M5638,6327 l1084,0 l0,655 l-1084,0 z" fill="#fe00ff" stroke="black" stroke-width="5"/>
<path d="M8512,708 l702,0 l0,503 l-702,0 z" fill="#fe00ff" stroke="black" stroke-width="5"/>
<path d="M4209,8133 l353,0 l0,353 l-353,0 z" fill="#fe00ff" stroke="black" stroke-width="5"/>
<path d="M6327,4108 l599,0 l0,598 l-599,0 z" fill="#fe00ff" stroke="black" stroke-width="5"/>
<path d="M8155,1211 l1845,0 l0,641 l-1845,0 z" fill="#ae00ff" stroke="black" stroke-width="5"/>
<path d="M4046,0 l719,0 l0,435 l-719,0 z" fill="#fe00ff" stroke="black" stroke-width="5"/>
<path d="M30,6738 l590,0 l0,784 l-590,0 z" fill="#fe00ff" stroke="black" stroke-width="5"/>
<path d="M2659,5462 l863,0 l0,2916 l-863,0 z" fill="#ee00ff" stroke="black" stroke-width="5"/>
<path d="M5062,4126 l1081,0 l0,485 l-1081,0 z" fill="#5100ff" stroke="black" stroke-width="5"/>
<path d="M408,1427 l863,0 l0,873 l-863,0 z" fill="#fe00ff" stroke="black" stroke-width="5"/>
<path d="M1426,5315 l679,0 l0,1525 l-679,0 z" fill="#4600ff" stroke="black" stroke-width="5"/>
<path d="M1880,8126 l395,0 l0,507 l-395,0 z" fill="#fe00ff" stroke="black" stroke-width="5"/>
<path d="M5857,3812 l286,0 l0,314 l-286,0 z" fill="#fe00ff" stroke="black" stroke-width="5"/>
<path d="M0,3074 l582,0 l0,664 l-582,0 z" fill="#fe00ff" stroke="black" stroke-width="5"/>
<path d="M4562,8462 l500,0 l0,1416 l-500,0 z" fill="#fe00ff" stroke="black" stroke-width="5"/>
<path d="M1072,385 l345,0 l0,524 l-345,0 z" fill="#fe00ff" stroke="black" stroke-width="5"/>
<path d="M3985,9587 l577,0 l0,413 l-577,0 z" fill="#1d00ff" stroke="black" stroke-width="5"/>
<path d="M7224,8058 l60,0 l0,60 l-60,0 z" fill="green"/>
<path d="M7254,8088 l-307,69" stroke="black" stroke-width="5"/>
<path d="M6210,3431 l60,0 l0,60 l-60,0 z" fill="green"/>
<path d="M6240,3461 l-77,-309" stroke="black" stroke-width="5"/>
<path d="M8524,5624 l60,0 l0,60 l-60,0 z" fill="green"/>
<path d="M8554,5654 l0.5,0.5" stroke="black" stroke-width="5"/>
<path d="M7978,6534 l60,0 l0,60 l-60,0 z" fill="green"/>
<path d="M8008,6564 l-263,112.5" stroke="black" stroke-width="5"/>
<path d="M2544,9348 l60,0 l0,60 l-60,0 z" fill="green"/>
<path d="M2574,9378 l-307,-343" stroke="black" stroke-width="5"/>
<path d="M5498,7459 l60,0 l0,60 l-60,0 z" fill="green"/>
<path d="M5528,7489 l0,0.5" stroke="black" stroke-width="5"/>
<path d="M3630,1858 l60,0 l0,60 l-60,0 z" fill="green"/>
<path d="M3660,1888 l0.5,0" stroke="black" stroke-width="5"/>
<path d="M8204,9799 l60,0 l0,60 l-60,0 z" fill="green"/>
<path d="M8234,9829 l-158.5,-298" stroke="black" stroke-width="5"/>
<path d="M5279,1684 l60,0 l0,60 l-60,0 z" fill="green"/>
<path d="M5309,1714 l0,0" stroke="black" stroke-width="5"/>
<path d="M2982,2903 l60,0 l0,60 l-60,0 z" fill="green"/>
<path d="M3012,2933 l17.5,0" stroke="black" stroke-width="5"/>
<path d="M1073,3520 l60,0 l0,60 l-60,0 z" fill="green"/>
<path d="M1103,3550 l0,0" stroke="black" stroke-width="5"/>
<path d="M5627,8515 l60,0 l0,60 l-60,0 z" fill="green"/>
<path d="M5657,8545 l334.5,364.5" stroke="black" stroke-width="5"/>
<path d="M1002,6737 l60,0 l0,60 l-60,0 z" fill="green"/>
<path d="M1032,6767 l-9,113" stroke="black" stroke-width="5"/>
<path d="M5841,-15 l60,0 l0,60 l-60,0 z" fill="green"/>
<path d="M5871,15 l-87.5,-7" stroke="black" stroke-width="5"/>
<path d="M7758,2109 l60,0 l0,60 l-60,0 z" fill="green"/>
<path d="M7788,2139 l-66.5,0" stroke="black" stroke-width="5"/>
<path d="M2598,3223 l60,0 l0,60 l-60,0 z" fill="green"/>
<path d="M2628,3253 l-223,0.5" stroke="black" stroke-width="5"/>
<path d="M7467,8904 l60,0 l0,60 l-60,0 z" fill="green"/>
<path d="M7497,8934 l173.5,-104" stroke="black" stroke-width="5"/>
<path d="M7011,5366 l60,0 l0,60 l-60,0 z" fill="green"/>
<path d="M7041,5396 l0.5,0" stroke="black" stroke-width="5"/>
<path d="M2936,1223 l60,0 l0,60 l-60,0 z" fill="green"/>
<path d="M2966,1253 l-152,0.5" stroke="black" stroke-width="5"/>
<path d="M3168,9921 l60,0 l0,60 l-60,0 z" fill="green"/>
<path d="M3198,9951 l178,-157.5" stroke="black" stroke-width="5"/>
<path d="M8614,8151 l60,0 l0,60 l-60,0 z" fill="green"/>
<path d="M8644,8181 l135,150" stroke="black" stroke-width="5"/>
<path d="M5657,8040 l60,0 l0,60 l-60,0 z" fill="green"/>
<path d="M5687,8070 l204,94.5" stroke="black" stroke-width="5"/>
<path d="M8497,282 l60,0 l0,60 l-60,0 z" fill="green"/>
<path d="M8527,312 l155.5,94.5" stroke="black" stroke-width="5"/>
<path d="M9880,3593 l60,0 l0,60 l-60,0 z" fill="green"/>
<path d="M9910,3623 l-318,-232" stroke="black" stroke-width="5"/>
<path d="M7333,9584 l60,0 l0,60 l-60,0 z" fill="green"/>
<path d="M7363,9614 l0,-275.5" stroke="black" stroke-width="5"/>
<path d="M481,5550 l60,0 l0,60 l-60,0 z" fill="green"/>
<path d="M511,5580 l0,-220" stroke="black" stroke-width="5"/>
<path d="M6696,6154 l60,0 l0,60 l-60,0 z" fill="green"/>
<path d="M6726,6184 l0.5,0.5" stroke="black" stroke-width="5"/>
<path d="M3617,4471 l60,0 l0,60 l-60,0 z" fill="green"/>
<path d="M3647,4501 l-568.5,-158" stroke="black" stroke-width="5"/>
<path d="M6568,2802 l60,0 l0,60 l-60,0 z" fill="green"/>
<path d="M6598,2832 l-487.5,-86" stroke="black" stroke-width="5"/>
<path d="M4427,5531 l60,0 l0,60 l-60,0 z" fill="green"/>
<path d="M4457,5561 l0,0" stroke="black" stroke-width="5"/>
<path d="M3729,4849 l60,0 l0,60 l-60,0 z" fill="green"/>
<path d="M3759,4879 l-62.5,-113.5" stroke="black" stroke-width="5"/>
<path d="M7767,6251 l60,0 l0,60 l-60,0 z" fill="green"/>
<path d="M7797,6281 l-52,-88" stroke="black" stroke-width="5"/>
<path d="M3192,9009 l60,0 l0,60 l-60,0 z" fill="green"/>
<path d="M3222,9039 l0,0.5" stroke="black" stroke-width="5"/>
<path d="M4216,3806 l60,0 l0,60 l-60,0 z" fill="green"/>
<path d="M4246,3836 l-603,156.5" stroke="black" stroke-width="5"/>
<path d="M8144,3456 l60,0 l0,60 l-60,0 z" fill="green"/>
<path d="M8174,3486 l110,34.5" stroke="black" stroke-width="5"/>
<path d="M6663,2449 l60,0 l0,60 l-60,0 z" fill="green"/>
<path d="M6693,2479 l0.5,0.5" stroke="black" stroke-width="5"/>
<path d="M2025,3658 l60,0 l0,60 l-60,0 z" fill="green"/>
<path d="M2055,3688 l-327.5,604.5" stroke="black" stroke-width="5"/>
<path d="M1417,604 l60,0 l0,60 l-60,0 z" fill="green"/>
<path d="M1447,634 l231,-179" stroke="black" stroke-width="5"/>
<path d="M2913,5385 l60,0 l0,60 l-60,0 z" fill="green"/>
<path d="M2943,5415 l0,0.5" stroke="black" stroke-width="5"/>
<path d="M2442,9701 l60,0 l0,60 l-60,0 z" fill="green"/>
<path d="M2472,9731 l0.5,-12.5" stroke="black" stroke-width="5"/>
<path d="M5274,3845 l60,0 l0,60 l-60,0 z" fill="green"/>
<path d="M5304,3875 l234,94" stroke="black" stroke-width="5"/>
<path d="M6055,3781 l60,0 l0,60 l-60,0 z" fill="green"/>
<path d="M6085,3811 l662,-169.5" stroke="black" stroke-width="5"/>
<path d="M2508,177 l60,0 l0,60 l-60,0 z" fill="green"/>
<path d="M2538,207 l356.5,-88.5" stroke="black" stroke-width="5"/>
<path d="M7243,9792 l60,0 l0,60 l-60,0 z" fill="green"/>
<path d="M7273,9822 l0.5,-14.5" stroke="black" stroke-width="5"/>
<path d="M7706,782 l60,0 l0,60 l-60,0 z" fill="green"/>
<path d="M7736,812 l-310,275.5" stroke="black" stroke-width="5"/>
<path d="M6625,991 l60,0 l0,60 l-60,0 z" fill="green"/>
<path d="M6655,1021 l-236.5,341" stroke="black" stroke-width="5"/>
<path d="M4510,6566 l60,0 l0,60 l-60,0 z" fill="green"/>
<path d="M4540,6596 l-15,0.5" stroke="black" stroke-width="5"/>
<path d="M7543,8005 l60,0 l0,60 l-60,0 z" fill="green"/>
<path d="M7573,8035 l-135.5,0.5" stroke="black" stroke-width="5"/>
<path d="M1149,9814 l60,0 l0,60 l-60,0 z" fill="green"/>
<path d="M1179,9844 l-258,-64" stroke="black" stroke-width="5"/>
<path d="M426,3782 l60,0 l0,60 l-60,0 z" fill="green"/>
<path d="M456,3812 l137,209.5" stroke="black" stroke-width="5"/>
<path d="M8544,7670 l60,0 l0,60 l-60,0 z" fill="green"/>
<path d="M8574,7700 l0,0.5" stroke="black" stroke-width="5"/>
<path d="M8180,5508 l60,0 l0,60 l-60,0 z" fill="green"/>
<path d="M8210,5538 l17.5,-126" stroke="black" stroke-width="5"/>
<path d="M145,2975 l60,0 l0,60 l-60,0 z" fill="green"/>
<path d="M175,3005 l0.5,0" stroke="black" stroke-width="5"/>
<path d="M5001,1192 l60,0 l0,60 l-60,0 z" fill="green"/>
<path d="M5031,1222 l0.5,0" stroke="black" stroke-width="5"/>
<path d="M8424,6734 l60,0 l0,60 l-60,0 z" fill="green"/>
<path d="M8454,6764 l170.5,-247.5" stroke="black" stroke-width="5"/>
<path d="M4043,3487 l60,0 l0,60 l-60,0 z" fill="green"/>
<path d="M4073,3517 l0,0.5" stroke="black" stroke-width="5"/>
<path d="M6633,3011 l60,0 l0,60 l-60,0 z" fill="green"/>
<path d="M6663,3041 l4.5,111" stroke="black" stroke-width="5"/>
<path d="M7385,4990 l60,0 l0,60 l-60,0 z" fill="green"/>
<path d="M7415,5020 l96,-109.5" stroke="black" stroke-width="5"/>
<path d="M7379,4044 l60,0 l0,60 l-60,0 z" fill="green"/>
<path d="M7409,4074 l260.5,0" stroke="black" stroke-width="5"/>
<path d="M763,869 l60,0 l0,60 l-60,0 z" fill="green"/>
<path d="M793,899 l-36,0.5" stroke="black" stroke-width="5"/>
<path d="M8123,6435 l60,0 l0,60 l-60,0 z" fill="green"/>
<path d="M8153,6465 l6,-695.5" stroke="black" stroke-width="5"/>
<path d="M8083,791 l60,0 l0,60 l-60,0 z" fill="green"/>
<path d="M8113,821 l0,0" stroke="black" stroke-width="5"/>
<path d="M9278,7334 l60,0 l0,60 l-60,0 z" fill="green"/>
<path d="M9308,7364 l0,0.5" stroke="black" stroke-width="5"/>
<path d="M8051,548 l60,0 l0,60 l-60,0 z" fill="green"/>
<path d="M8081,578 l0.5,-172.5" stroke="black" stroke-width="5"/>
<path d="M518,8902 l60,0 l0,60 l-60,0 z" fill="green"/>
<path d="M548,8932 l0,0.5" stroke="black" stroke-width="5"/>
<path d="M1041,518 l60,0 l0,60 l-60,0 z" fill="green"/>
<path d="M1071,548 l-535,-273.5" stroke="black" stroke-width="5"/>
<path d="M9041,9141 l60,0 l0,60 l-60,0 z" fill="green"/>
<path d="M9071,9171 l60,-279" stroke="black" stroke-width="5"/>
<path d="M279,5801 l60,0 l0,60 l-60,0 z" fill="green"/>
<path d="M309,5831 l0,3.5" stroke="black" stroke-width="5"/>
<path d="M3946,4761 l60,0 l0,60 l-60,0 z" fill="green"/>
<path d="M3976,4791 l186.5,0" stroke="black" stroke-width="5"/>
<path d="M6022,2038 l60,0 l0,60 l-60,0 z" fill="green"/>
<path d="M6052,2068 l-90.5,165" stroke="black" stroke-width="5"/>
<path d="M8236,7030 l60,0 l0,60 l-60,0 z" fill="green"/>
<path d="M8266,7060 l0.5,0.5" stroke="black" stroke-width="5"/>
<path d="M8342,7445 l60,0 l0,60 l-60,0 z" fill="green"/>
<path d="M8372,7475 l90,-135" stroke="black" stroke-width="5"/>
<path d="M4257,8070 l60,0 l0,60 l-60,0 z" fill="green"/>
<path d="M4287,8100 l0.5,-214" stroke="black" stroke-width="5"/>
<path d="M6241,7420 l60,0 l0,60 l-60,0 z" fill="green"/>
<path d="M6271,7450 l0,-17" stroke="black" stroke-width="5"/>
<path d="M6113,3896 l60,0 l0,60 l-60,0 z" fill="green"/>
<path d="M6143,3926 l92,1143.5" stroke="black" stroke-width="5"/>
<path d="M5689,3545 l60,0 l0,60 l-60,0 z" fill="green"/>
<path d="M5719,3575 l-20,-84.5" stroke="black" stroke-width="5"/>
<path d="M1330,9382 l60,0 l0,60 l-60,0 z" fill="green"/>
<path d="M1360,9412 l64.5,-14" stroke="black" stroke-width="5"/>
<path d="M6091,6952 l60,0 l0,60 l-60,0 z" fill="green"/>
<path d="M6121,6982 l-183.5,50" stroke="black" stroke-width="5"/>
<path d="M2150,3289 l60,0 l0,60 l-60,0 z" fill="green"/>
<path d="M2180,3319 l-452.5,31.5" stroke="black" stroke-width="5"/>
<path d="M4519,4581 l60,0 l0,60 l-60,0 z" fill="green"/>
<path d="M4549,4611 l406.5,358.5" stroke="black" stroke-width="5"/>
<path d="M5598,1854 l60,0 l0,60 l-60,0 z" fill="green"/>
<path d="M5628,1884 l39.5,-293" stroke="black" stroke-width="5"/>
<path d="M4669,4379 l60,0 l0,60 l-60,0 z" fill="green"/>
<path d="M4699,4409 l0,-29" stroke="black" stroke-width="5"/>
<path d="M8385,8038 l60,0 l0,60 l-60,0 z" fill="green"/>
<path d="M8415,8068 l0.5,0" stroke="black" stroke-width="5"/>
<path d="M1759,8493 l60,0 l0,60 l-60,0 z" fill="green"/>
<path d="M1789,8523 l0.5,0.5" stroke="black" stroke-width="5"/>
<path d="M9574,6046 l60,0 l0,60 l-60,0 z" fill="green"/>
<path d="M9604,6076 l-62,269.5" stroke="black" stroke-width="5"/>
<path d="M854,7228 l60,0 l0,60 l-60,0 z" fill="green"/>
<path d="M884,7258 l0,0" stroke="black" stroke-width="5"/>
<path d="M9726,5885 l60,0 l0,60 l-60,0 z" fill="green"/>
<path d="M9756,5915 l-119.5,-160.5" stroke="black" stroke-width="5"/>
<path d="M2002,7214 l60,0 l0,60 l-60,0 z" fill="green"/>
<path d="M2032,7244 l-266.5,101" stroke="black" stroke-width="5"/>
<path d="M1628,2596 l60,0 l0,60 l-60,0 z" fill="green"/>
<path d="M1658,2626 l0,0" stroke="black" stroke-width="5"/>
<path d="M8018,7010 l60,0 l0,60 l-60,0 z" fill="green"/>
<path d="M8048,7040 l-67,0.5" stroke="black" stroke-width="5"/>
<path d="M4081,9321 l60,0 l0,60 l-60,0 z" fill="green"/>
<path d="M4111,9351 l-332,-368.5" stroke="black" stroke-width="5"/>
<path d="M8537,9798 l60,0 l0,60 l-60,0 z" fill="green"/>
<path d="M8567,9828 l178.5,-242" stroke="black" stroke-width="5"/>
<path d="M3534,7011 l60,0 l0,60 l-60,0 z" fill="green"/>
<path d="M3564,7041 l0,0.5" stroke="black" stroke-width="5"/>
<path d="M5110,3946 l60,0 l0,60 l-60,0 z" fill="green"/>
<path d="M5140,3976 l0.5,0.5" stroke="black" stroke-width="5"/>
<path d="M1163,9321 l60,0 l0,60 l-60,0 z" fill="green"/>
<path d="M1193,9351 l0.5,0" stroke="black" stroke-width="5"/>
<path d="M8443,2172 l60,0 l0,60 l-60,0 z" fill="green"/>
<path d="M8473,2202 l0,0.5" stroke="black" stroke-width="5"/>
<path d="M3055,2260 l60,0 l0,60 l-60,0 z" fill="green"/>
<path d="M3085,2290 l-158,-123.5" stroke="black" stroke-width="5"/>
<path d="M965,6442 l60,0 l0,60 l-60,0 z" fill="green"/>
<path d="M995,6472 l0.5,0.5" stroke="black" stroke-width="5"/>
<path d="M7850,8087 l60,0 l0,60 l-60,0 z" fill="green"/>
<path d="M7880,8117 l0.5,0" stroke="black" stroke-width="5"/>
<path d="M6339,2020 l60,0 l0,60 l-60,0 z" fill="green"/>
<path d="M6369,2050 l301.5,3.5" stroke="black" stroke-width="5"/>
<path d="M4737,1447 l60,0 l0,60 l-60,0 z" fill="green"/>
<path d="M4767,1477 l-15,0" stroke="black" stroke-width="5"/>
<path d="M9760,2532 l60,0 l0,60 l-60,0 z" fill="green"/>
<path d="M9790,2562 l0,0" stroke="black" stroke-width="5"/>
<path d="M4247,9345 l60,0 l0,60 l-60,0 z" fill="green"/>
<path d="M4277,9375 l2.5,0" stroke="black" stroke-width="5"/>
<path d="M6330,445 l60,0 l0,60 l-60,0 z" fill="green"/>
<path d="M6360,475 l41.5,0.5" stroke="black" stroke-width="5"/>
<path d="M8881,3612 l60,0 l0,60 l-60,0 z" fill="green"/>
<path d="M8911,3642 l0.5,0" stroke="black" stroke-width="5"/>
<path d="M9286,4047 l60,0 l0,60 l-60,0 z" fill="green"/>
<path d="M9316,4077 l0,122" stroke="black" stroke-width="5"/>
<path d="M2502,7126 l60,0 l0,60 l-60,0 z" fill="green"/>
<path d="M2532,7156 l-150,0" stroke="black" stroke-width="5"/>
<path d="M4941,3805 l60,0 l0,60 l-60,0 z" fill="green"/>
<path d="M4971,3835 l-111.5,0" stroke="black" stroke-width="5"/>
<path d="M6949,8966 l60,0 l0,60 l-60,0 z" fill="green"/>
<path d="M6979,8996 l-296,-166" stroke="black" stroke-width="5"/>
<path d="M8736,8019 l60,0 l0,60 l-60,0 z" fill="green"/>
<path d="M8766,8049 l475.5,-82.5" stroke="black" stroke-width="5"/>
<path d="M4157,3739 l60,0 l0,60 l-60,0 z" fill="green"/>
<path d="M4187,3769 l-544,-2" stroke="black" stroke-width="5"/>
<path d="M8734,4533 l60,0 l0,60 l-60,0 z" fill="green"/>
<path d="M8764,4563 l-5.5,74" stroke="black" stroke-width="5"/>
<path d="M3872,5401 l60,0 l0,60 l-60,0 z" fill="green"/>
<path d="M3902,5431 l0.5,15" stroke="black" stroke-width="5"/>
<path d="M4946,6825 l60,0 l0,60 l-60,0 z" fill="green"/>
<path d="M4976,6855 l0,0.5" stroke="black" stroke-width="5"/>
<path d="M9426,4805 l60,0 l0,60 l-60,0 z" fill="green"/>
<path d="M9456,4835 l0.5,66.5" stroke="black" stroke-width="5"/>
<path d="M668,2650 l60,0 l0,60 l-60,0 z" fill="green"/>
<path d="M698,2680 l0,-36.5" stroke="black" stroke-width="5"/>
<path d="M8492,74 l60,0 l0,60 l-60,0 z" fill="green"/>
<path d="M8522,104 l-121,-51.5" stroke="black" stroke-width="5"/>
<path d="M1433,9598 l60,0 l0,60 l-60,0 z" fill="green"/>
<path d="M1463,9628 l0,0.5" stroke="black" stroke-width="5"/>
<path d="M-19,3981 l60,0 l0,60 l-60,0 z" fill="green"/>
<path d="M11,4011 l107,0" stroke="black" stroke-width="5"/>
<path d="M7203,5825 l60,0 l0,60 l-60,0 z" fill="green"/>
<path d="M7233,5855 l-181,631.5" stroke="black" stroke-width="5"/>
<path d="M1899,5076 l60,0 l0,60 l-60,0 z" fill="green"/>
<path d="M1929,5106 l0.5,0" stroke="black" stroke-width="5"/>
<path d="M9140,2691 l60,0 l0,60 l-60,0 z" fill="green"/>
<path d="M9170,2721 l85.5,-346" stroke="black" stroke-width="5"/>
<path d="M5256,8326 l60,0 l0,60 l-60,0 z" fill="green"/>
<path d="M5286,8356 l0,-102" stroke="black" stroke-width="5"/>
<path d="M509,2922 l60,0 l0,60 l-60,0 z" fill="green"/>
<path d="M539,2952 l219,61" stroke="black" stroke-width="5"/>
<path d="M68,9661 l60,0 l0,60 l-60,0 z" fill="green"/>
<path d="M98,9691 l126,-20" stroke="black" stroke-width="5"/>
<path d="M5682,204 l60,0 l0,60 l-60,0 z" fill="green"/>
<path d="M5712,234 l0,35.5" stroke="black" stroke-width="5"/>
<path d="M2474,342 l60,0 l0,60 l-60,0 z" fill="green"/>
<path d="M2504,372 l0,0" stroke="black" stroke-width="5"/>
<path d="M5249,8432 l60,0 l0,60 l-60,0 z" fill="green"/>
<path d="M5279,8462 l50.5,481.5" stroke="black" stroke-width="5"/>
<path d="M3726,4964 l60,0 l0,60 l-60,0 z" fill="green"/>
<path d="M3756,4994 l-698.5,85" stroke="black" stroke-width="5"/>
<path d="M5369,9395 l60,0 l0,60 l-60,0 z" fill="green"/>
<path d="M5399,9425 l537,287.5" stroke="black" stroke-width="5"/>
<path d="M8813,7193 l60,0 l0,60 l-60,0 z" fill="green"/>
<path d="M8843,7223 l0.5,0" stroke="black" stroke-width="5"/>
<path d="M7231,4073 l60,0 l0,60 l-60,0 z" fill="green"/>
<path d="M7261,4103 l-39.5,0" stroke="black" stroke-width="5"/>
<path d="M7032,7531 l60,0 l0,60 l-60,0 z" fill="green"/>
<path d="M7062,7561 l0,0.5" stroke="black" stroke-width="5"/>
<path d="M1554,904 l60,0 l0,60 l-60,0 z" fill="green"/>
<path d="M1584,934 l0.5,0.5" stroke="black" stroke-width="5"/>
<path d="M8337,4449 l60,0 l0,60 l-60,0 z" fill="green"/>
<path d="M8367,4479 l0,0" stroke="black" stroke-width="5"/>
<path d="M9470,7000 l60,0 l0,60 l-60,0 z" fill="green"/>
<path d="M9500,7030 l0,-177.5" stroke="black" stroke-width="5"/>
<path d="M6150,6838 l60,0 l0,60 l-60,0 z" fill="green"/>
<path d="M6180,6868 l0,-213.5" stroke="black" stroke-width="5"/>
<path d="M8833,830 l60,0 l0,60 l-60,0 z" fill="green"/>
<path d="M8863,860 l0,99.5" stroke="black" stroke-width="5"/>
<path d="M4355,8279 l60,0 l0,60 l-60,0 z" fill="green"/>
<path d="M4385,8309 l0.5,0.5" stroke="black" stroke-width="5"/>
<path d="M6596,4377 l60,0 l0,60 l-60,0 z" fill="green"/>
<path d="M6626,4407 l0.5,0" stroke="black" stroke-width="5"/>
<path d="M8997,1821 l60,0 l0,60 l-60,0 z" fill="green"/>
<path d="M9027,1851 l50.5,-319.5" stroke="black" stroke-width="5"/>
<path d="M4375,45 l60,0 l0,60 l-60,0 z" fill="green"/>
<path d="M4405,75 l0.5,142.5" stroke="black" stroke-width="5"/>
<path d="M392,7100 l60,0 l0,60 l-60,0 z" fill="green"/>
<path d="M422,7130 l-97,0" stroke="black" stroke-width="5"/>
<path d="M2629,7108 l60,0 l0,60 l-60,0 z" fill="green"/>
<path d="M2659,7138 l431.5,-218" stroke="black" stroke-width="5"/>
<path d="M5896,4096 l60,0 l0,60 l-60,0 z" fill="green"/>
<path d="M5926,4126 l-323.5,242.5" stroke="black" stroke-width="5"/>
<path d="M815,1833 l60,0 l0,60 l-60,0 z" fill="green"/>
<path d="M845,1863 l-5.5,0.5" stroke="black" stroke-width="5"/>
<path d="M1815,6809 l60,0 l0,60 l-60,0 z" fill="green"/>
<path d="M1845,6839 l-79.5,-761.5" stroke="black" stroke-width="5"/>
<path d="M1991,8349 l60,0 l0,60 l-60,0 z" fill="green"/>
<path d="M2021,8379 l56.5,0.5" stroke="black" stroke-width="5"/>
<path d="M6061,3886 l60,0 l0,60 l-60,0 z" fill="green"/>
<path d="M6091,3916 l-91,53" stroke="black" stroke-width="5"/>
<path d="M93,3250 l60,0 l0,60 l-60,0 z" fill="green"/>
<path d="M123,3280 l168,126" stroke="black" stroke-width="5"/>
<path d="M5031,8484 l60,0 l0,60 l-60,0 z" fill="green"/>
<path d="M5061,8514 l-249,656" stroke="black" stroke-width="5"/>
<path d="M1247,617 l60,0 l0,60 l-60,0 z" fill="green"/>
<path d="M1277,647 l-32.5,0" stroke="black" stroke-width="5"/>
<path d="M3955,9557 l60,0 l0,60 l-60,0 z" fill="green"/>
<path d="M3985,9587 l288.5,206.5" stroke="black" stroke-width="5"/>
<text font-size="114.33239009500589" text-anchor="middle" x="6947" y="8197.016336533252">
0
</text>
<text font-size="114.33239009500589" text-anchor="middle" x="6163" y="3192.016336533252">
1
</text>
<text font-size="114.33239009500589" text-anchor="middle" x="8554.5" y="5694.516336533252">
2
</text>
<text font-size="114.33239009500589" text-anchor="middle" x="7745" y="6716.516336533252">
3
</text>
<text font-size="114.33239009500589" text-anchor="middle" x="2267" y="9075.016336533252">
4
</text>
<text font-size="114.33239009500589" text-anchor="middle" x="5528" y="7529.516336533252">
5
</text>
<text font-size="114.33239009500589" text-anchor="middle" x="3660.5" y="1928.0163365332521">
6
</text>
<text font-size="114.33239009500589" text-anchor="middle" x="8075.5" y="9571.016336533252">
7
</text>
<text font-size="114.33239009500589" text-anchor="middle" x="5309" y="1754.0163365332521">
8
</text>
<text font-size="114.33239009500589" text-anchor="middle" x="3029.5" y="2973.016336533252">
9
</text>
<text font-size="114.33239009500589" text-anchor="middle" x="1103" y="3590.016336533252">
10
</text>
<text font-size="114.33239009500589" text-anchor="middle" x="5991.5" y="8949.516336533252">
11
</text>
<text font-size="114.33239009500589" text-anchor="middle" x="1023" y="6920.016336533252">
12
</text>
<text font-size="114.33239009500589" text-anchor="middle" x="5783.5" y="48.01633653325206">
13
</text>
<text font-size="114.33239009500589" text-anchor="middle" x="7721.5" y="2179.016336533252">
14
</text>
<text font-size="114.33239009500589" text-anchor="middle" x="2405" y="3293.516336533252">
15
</text>
<text font-size="114.33239009500589" text-anchor="middle" x="7670.5" y="8870.016336533252">
16
</text>
<text font-size="114.33239009500589" text-anchor="middle" x="7041.5" y="5436.016336533252">
17
</text>
<text font-size="114.33239009500589" text-anchor="middle" x="2814" y="1293.5163365332521">
18
</text>
<text font-size="114.33239009500589" text-anchor="middle" x="3376" y="9833.516336533252">
19
</text>
<text font-size="114.33239009500589" text-anchor="middle" x="8779" y="8371.016336533252">
20
</text>
<text font-size="114.33239009500589" text-anchor="middle" x="5891" y="8204.516336533252">
21
</text>
<text font-size="114.33239009500589" text-anchor="middle" x="8682.5" y="446.51633653325206">
22
</text>
<text font-size="114.33239009500589" text-anchor="middle" x="9592" y="3431.016336533252">
23
</text>
<text font-size="114.33239009500589" text-anchor="middle" x="7363" y="9378.516336533252">
24
</text>
<text font-size="114.33239009500589" text-anchor="middle" x="511" y="5400.016336533252">
25
</text>
<text font-size="114.33239009500589" text-anchor="middle" x="6726.5" y="6224.516336533252">
26
</text>
<text font-size="114.33239009500589" text-anchor="middle" x="3078.5" y="4383.016336533252">
27
</text>
<text font-size="114.33239009500589" text-anchor="middle" x="6110.5" y="2786.016336533252">
28
</text>
<text font-size="114.33239009500589" text-anchor="middle" x="4457" y="5601.016336533252">
29
</text>
<text font-size="114.33239009500589" text-anchor="middle" x="3696.5" y="4805.516336533252">
30
</text>
<text font-size="114.33239009500589" text-anchor="middle" x="7745" y="6233.016336533252">
31
</text>
<text font-size="114.33239009500589" text-anchor="middle" x="3222" y="9079.516336533252">
32
</text>
<text font-size="114.33239009500589" text-anchor="middle" x="3643" y="4032.516336533252">
33
</text>
<text font-size="114.33239009500589" text-anchor="middle" x="8284" y="3560.516336533252">
34
</text>
<text font-size="114.33239009500589" text-anchor="middle" x="6693.5" y="2519.516336533252">
35
</text>
<text font-size="114.33239009500589" text-anchor="middle" x="1727.5" y="4332.516336533252">
36
</text>
<text font-size="114.33239009500589" text-anchor="middle" x="1678" y="495.01633653325206">
37
</text>
<text font-size="114.33239009500589" text-anchor="middle" x="2943" y="5455.516336533252">
38
</text>
<text font-size="114.33239009500589" text-anchor="middle" x="2472.5" y="9758.516336533252">
39
</text>
<text font-size="114.33239009500589" text-anchor="middle" x="5538" y="4009.016336533252">
40
</text>
<text font-size="114.33239009500589" text-anchor="middle" x="6747" y="3681.516336533252">
41
</text>
<text font-size="114.33239009500589" text-anchor="middle" x="2894.5" y="158.51633653325206">
42
</text>
<text font-size="114.33239009500589" text-anchor="middle" x="7273.5" y="9847.516336533252">
43
</text>
<text font-size="114.33239009500589" text-anchor="middle" x="7426" y="1127.5163365332521">
44
</text>
<text font-size="114.33239009500589" text-anchor="middle" x="6418.5" y="1402.0163365332521">
45
</text>
<text font-size="114.33239009500589" text-anchor="middle" x="4525" y="6636.516336533252">
46
</text>
<text font-size="114.33239009500589" text-anchor="middle" x="7437.5" y="8075.516336533252">
47
</text>
<text font-size="114.33239009500589" text-anchor="middle" x="921" y="9820.016336533252">
48
</text>
<text font-size="114.33239009500589" text-anchor="middle" x="593" y="4061.516336533252">
49
</text>
<text font-size="114.33239009500589" text-anchor="middle" x="8574" y="7740.516336533252">
50
</text>
<text font-size="114.33239009500589" text-anchor="middle" x="8227.5" y="5452.016336533252">
51
</text>
<text font-size="114.33239009500589" text-anchor="middle" x="175.5" y="3045.016336533252">
52
</text>
<text font-size="114.33239009500589" text-anchor="middle" x="5031.5" y="1262.0163365332521">
53
</text>
<text font-size="114.33239009500589" text-anchor="middle" x="8624.5" y="6556.516336533252">
54
</text>
<text font-size="114.33239009500589" text-anchor="middle" x="4073" y="3557.516336533252">
55
</text>
<text font-size="114.33239009500589" text-anchor="middle" x="6667.5" y="3192.016336533252">
56
</text>
<text font-size="114.33239009500589" text-anchor="middle" x="7511" y="4950.516336533252">
57
</text>
<text font-size="114.33239009500589" text-anchor="middle" x="7669.5" y="4114.016336533252">
58
</text>
<text font-size="114.33239009500589" text-anchor="middle" x="757" y="939.5163365332521">
59
</text>
<text font-size="114.33239009500589" text-anchor="middle" x="8159" y="5809.516336533252">
60
</text>
<text font-size="114.33239009500589" text-anchor="middle" x="8113" y="861.0163365332521">
61
</text>
<text font-size="114.33239009500589" text-anchor="middle" x="9308" y="7404.516336533252">
62
</text>
<text font-size="114.33239009500589" text-anchor="middle" x="8081.5" y="445.51633653325206">
63
</text>
<text font-size="114.33239009500589" text-anchor="middle" x="548" y="8972.516336533252">
64
</text>
<text font-size="114.33239009500589" text-anchor="middle" x="536" y="314.51633653325206">
65
</text>
<text font-size="114.33239009500589" text-anchor="middle" x="9131" y="8932.016336533252">
66
</text>
<text font-size="114.33239009500589" text-anchor="middle" x="309" y="5874.516336533252">
67
</text>
<text font-size="114.33239009500589" text-anchor="middle" x="4162.5" y="4831.016336533252">
68
</text>
<text font-size="114.33239009500589" text-anchor="middle" x="5961.5" y="2273.016336533252">
69
</text>
<text font-size="114.33239009500589" text-anchor="middle" x="8266.5" y="7100.516336533252">
70
</text>
<text font-size="114.33239009500589" text-anchor="middle" x="8462" y="7380.016336533252">
71
</text>
<text font-size="114.33239009500589" text-anchor="middle" x="4287.5" y="7926.016336533252">
72
</text>
<text font-size="114.33239009500589" text-anchor="middle" x="6271" y="7473.016336533252">
73
</text>
<text font-size="114.33239009500589" text-anchor="middle" x="6235" y="5109.516336533252">
74
</text>
<text font-size="114.33239009500589" text-anchor="middle" x="5699" y="3530.516336533252">
75
</text>
<text font-size="114.33239009500589" text-anchor="middle" x="1424.5" y="9438.016336533252">
76
</text>
<text font-size="114.33239009500589" text-anchor="middle" x="5937.5" y="7072.016336533252">
77
</text>
<text font-size="114.33239009500589" text-anchor="middle" x="1727.5" y="3390.516336533252">
78
</text>
<text font-size="114.33239009500589" text-anchor="middle" x="4955.5" y="5009.516336533252">
79
</text>
<text font-size="114.33239009500589" text-anchor="middle" x="5667.5" y="1631.0163365332521">
80
</text>
<text font-size="114.33239009500589" text-anchor="middle" x="4699" y="4420.016336533252">
81
</text>
<text font-size="114.33239009500589" text-anchor="middle" x="8415.5" y="8108.016336533252">
82
</text>
<text font-size="114.33239009500589" text-anchor="middle" x="1789.5" y="8563.516336533252">
83
</text>
<text font-size="114.33239009500589" text-anchor="middle" x="9542" y="6385.516336533252">
84
</text>
<text font-size="114.33239009500589" text-anchor="middle" x="884" y="7298.016336533252">
85
</text>
<text font-size="114.33239009500589" text-anchor="middle" x="9636.5" y="5794.516336533252">
86
</text>
<text font-size="114.33239009500589" text-anchor="middle" x="1765.5" y="7385.016336533252">
87
</text>
<text font-size="114.33239009500589" text-anchor="middle" x="1658" y="2666.016336533252">
88
</text>
<text font-size="114.33239009500589" text-anchor="middle" x="7981" y="7080.516336533252">
89
</text>
<text font-size="114.33239009500589" text-anchor="middle" x="3779" y="9022.516336533252">
90
</text>
<text font-size="114.33239009500589" text-anchor="middle" x="8745.5" y="9626.016336533252">
91
</text>
<text font-size="114.33239009500589" text-anchor="middle" x="3564" y="7081.516336533252">
92
</text>
<text font-size="114.33239009500589" text-anchor="middle" x="5140.5" y="4016.516336533252">
93
</text>
<text font-size="114.33239009500589" text-anchor="middle" x="1193.5" y="9391.016336533252">
94
</text>
<text font-size="114.33239009500589" text-anchor="middle" x="8473" y="2242.516336533252">
95
</text>
<text font-size="114.33239009500589" text-anchor="middle" x="2927" y="2206.516336533252">
96
</text>
<text font-size="114.33239009500589" text-anchor="middle" x="995.5" y="6512.516336533252">
97
</text>
<text font-size="114.33239009500589" text-anchor="middle" x="7880.5" y="8157.016336533252">
98
</text>
<text font-size="114.33239009500589" text-anchor="middle" x="6670.5" y="2093.516336533252">
99
</text>
<text font-size="114.33239009500589" text-anchor="middle" x="4752" y="1517.0163365332521">
100
</text>
<text font-size="114.33239009500589" text-anchor="middle" x="9790" y="2602.016336533252">
101
</text>
<text font-size="114.33239009500589" text-anchor="middle" x="4279.5" y="9415.016336533252">
102
</text>
<text font-size="114.33239009500589" text-anchor="middle" x="6401.5" y="515.5163365332521">
103
</text>
<text font-size="114.33239009500589" text-anchor="middle" x="8911.5" y="3682.016336533252">
104
</text>
<text font-size="114.33239009500589" text-anchor="middle" x="9316" y="4239.016336533252">
105
</text>
<text font-size="114.33239009500589" text-anchor="middle" x="2382" y="7196.016336533252">
106
</text>
<text font-size="114.33239009500589" text-anchor="middle" x="4859.5" y="3875.016336533252">
107
</text>
<text font-size="114.33239009500589" text-anchor="middle" x="6683" y="8870.016336533252">
108
</text>
<text font-size="114.33239009500589" text-anchor="middle" x="9241.5" y="8006.516336533252">
109
</text>
<text font-size="114.33239009500589" text-anchor="middle" x="3643" y="3807.016336533252">
110
</text>
<text font-size="114.33239009500589" text-anchor="middle" x="8758.5" y="4677.016336533252">
111
</text>
<text font-size="114.33239009500589" text-anchor="middle" x="3902.5" y="5486.016336533252">
112
</text>
<text font-size="114.33239009500589" text-anchor="middle" x="4976" y="6895.516336533252">
113
</text>
<text font-size="114.33239009500589" text-anchor="middle" x="9456.5" y="4941.516336533252">
114
</text>
<text font-size="114.33239009500589" text-anchor="middle" x="698" y="2683.516336533252">
115
</text>
<text font-size="114.33239009500589" text-anchor="middle" x="8401" y="92.51633653325206">
116
</text>
<text font-size="114.33239009500589" text-anchor="middle" x="1463" y="9668.516336533252">
117
</text>
<text font-size="114.33239009500589" text-anchor="middle" x="118" y="4051.016336533252">
118
</text>
<text font-size="114.33239009500589" text-anchor="middle" x="7052" y="6526.516336533252">
119
</text>
<text font-size="114.33239009500589" text-anchor="middle" x="1929.5" y="5146.016336533252">
120
</text>
<text font-size="114.33239009500589" text-anchor="middle" x="9255.5" y="2415.016336533252">
121
</text>
<text font-size="114.33239009500589" text-anchor="middle" x="5286" y="8294.016336533252">
122
</text>
<text font-size="114.33239009500589" text-anchor="middle" x="758" y="3053.016336533252">
123
</text>
<text font-size="114.33239009500589" text-anchor="middle" x="224" y="9711.016336533252">
124
</text>
<text font-size="114.33239009500589" text-anchor="middle" x="5712" y="309.51633653325206">
125
</text>
<text font-size="114.33239009500589" text-anchor="middle" x="2504" y="412.01633653325206">
126
</text>
<text font-size="114.33239009500589" text-anchor="middle" x="5329.5" y="8983.516336533252">
127
</text>
<text font-size="114.33239009500589" text-anchor="middle" x="3057.5" y="5119.016336533252">
128
</text>
<text font-size="114.33239009500589" text-anchor="middle" x="5936" y="9752.516336533252">
129
</text>
<text font-size="114.33239009500589" text-anchor="middle" x="8843.5" y="7263.016336533252">
130
</text>
<text font-size="114.33239009500589" text-anchor="middle" x="7221.5" y="4143.016336533252">
131
</text>
<text font-size="114.33239009500589" text-anchor="middle" x="7062" y="7601.516336533252">
132
</text>
<text font-size="114.33239009500589" text-anchor="middle" x="1584.5" y="974.5163365332521">
133
</text>
<text font-size="114.33239009500589" text-anchor="middle" x="8367" y="4519.016336533252">
134
</text>
<text font-size="114.33239009500589" text-anchor="middle" x="9500" y="6892.516336533252">
135
</text>
<text font-size="114.33239009500589" text-anchor="middle" x="6180" y="6694.516336533252">
136
</text>
<text font-size="114.33239009500589" text-anchor="middle" x="8863" y="999.5163365332521">
137
</text>
<text font-size="114.33239009500589" text-anchor="middle" x="4385.5" y="8349.516336533252">
138
</text>
<text font-size="114.33239009500589" text-anchor="middle" x="6626.5" y="4447.016336533252">
139
</text>
<text font-size="114.33239009500589" text-anchor="middle" x="9077.5" y="1571.5163365332521">
140
</text>
<text font-size="114.33239009500589" text-anchor="middle" x="4405.5" y="257.51633653325206">
141
</text>
<text font-size="114.33239009500589" text-anchor="middle" x="325" y="7170.016336533252">
142
</text>
<text font-size="114.33239009500589" text-anchor="middle" x="3090.5" y="6960.016336533252">
143
</text>
<text font-size="114.33239009500589" text-anchor="middle" x="5602.5" y="4408.516336533252">
144
</text>
<text font-size="114.33239009500589" text-anchor="middle" x="839.5" y="1903.5163365332521">
145
</text>
<text font-size="114.33239009500589" text-anchor="middle" x="1765.5" y="6117.516336533252">
146
</text>
<text font-size="114.33239009500589" text-anchor="middle" x="2077.5" y="8419.516336533252">
147
</text>
<text font-size="114.33239009500589" text-anchor="middle" x="6000" y="4009.016336533252">
148
</text>
<text font-size="114.33239009500589" text-anchor="middle" x="291" y="3446.016336533252">
149
</text>
<text font-size="114.33239009500589" text-anchor="middle" x="4812" y="9210.016336533252">
150
</text>
<text font-size="114.33239009500589" text-anchor="middle" x="1244.5" y="687.0163365332521">
151
</text>
<text font-size="114.33239009500589" text-anchor="middle" x="4273.5" y="9833.516336533252">
152
</text>
</svg>