<svg viewBox="-100 -100 10200 10200" xmlns="http://www.w3.org/2000/svg">
<path d="M0,0 l10000,0 l0,10000 l-10000,0 z" fill="white"/>
<path d="M1603,4078 l673,0 l0,664 l-673,0 z" fill="#fe00ff" stroke="black" stroke-width="5"/>
<path d="M0,1741 l308,0 l0,1273 l-308,0 z" fill="#bc00ff" stroke="black" stroke-width="5"/>
<path d="M3355,6743 l1070,0 l0,1020 l-1070,0 z" fill="#fe00ff" stroke="black" stroke-width="5"/>
<path d="M7411,2203 l147,0 l0,2146 l-147,0 z" fill="#2200ff" stroke="black" stroke-width="5"/>
<path d="M5154,9240 l2482,0 l0,436 l-2482,0 z" fill="#fe00ff" stroke="black" stroke-width="5"/>
<path d="M7992,5138 l980,0 l0,891 l-980,0 z" fill="#fe00ff" stroke="black" stroke-width="5"/>
<path d="M3607,9676 l2337,0 l0,158 l-2337,0 z" fill="#0f00ff" stroke="black" stroke-width="5"/>
<path d="M7712,795 l550,0 l0,549 l-550,0 z" fill="#fe00ff" stroke="black" stroke-width="5"/>
<path d="M1537,6267 l792,0 l0,682 l-792,0 z" fill="#fe00ff" stroke="black" stroke-width="5"/>
<path d="M9007,1279 l690,0 l0,690 l-690,0 z" fill="#fe00ff" stroke="black" stroke-width="5"/>
<path d="M3147,3320 l1023,0 l0,1023 l-1023,0 z" fill="#fe00ff" stroke="black" stroke-width="5"/>
<path d="M8314,8073 l659,0 l0,1497 l-659,0 z" fill="#a500ff" stroke="black" stroke-width="5"/>
<path d="M9459,8816 l541,0 l0,754 l-541,0 z" fill="#3d00ff" stroke="black" stroke-width="5"/>
<path d="M308,2906 l568,0 l0,783 l-568,0 z" fill="#fe00ff" stroke="black" stroke-width="5"/>
<path d="M6637,4512 l2335,0 l0,626 l-2335,0 z" fill="#e900ff" stroke="black" stroke-width="5"/>
<path d="M2041,1739 l601,0 l0,713 l-601,0 z" fill="#fe00ff" stroke="black" stroke-width="5"/>
<path d="M2341,2611 l806,0 l0,1164 l-806,0 z" fill="#fe00ff" stroke="black" stroke-width="5"/>
<path d="M6942,189 l770,0 l0,1304 l-770,0 z" fill="#fe00ff" stroke="black" stroke-width="5"/>
<path d="M7827,9834 l1093,0 l0,166 l-1093,0 z" fill="#0100ff" stroke="black" stroke-width="5"/>
<path d="M3388,1079 l331,0 l0,330 l-331,0 z" fill="#fe00ff" stroke="black" stroke-width="5"/>
<path d="M4763,0 l1136,0 l0,167 l-1136,0 z" fill="#fe00ff" stroke="black" stroke-width="5"/>
<path d="M3147,2065 l663,0 l0,1255 l-663,0 z" fill="#f100ff" stroke="black" stroke-width="5"/>
<path d="M6041,6998 l486,0 l0,486 l-486,0 z" fill="#fe00ff" stroke="black" stroke-width="5"/>
<path d="M5427,8024 l657,0 l0,549 l-657,0 z" fill="#fe00ff" stroke="black" stroke-width="5"/>
<path d="M705,1863 l1336,0 l0,689 l-1336,0 z" fill="#d500ff" stroke="black" stroke-width="5"/>
<path d="M9459,8113 l541,0 l0,703 l-541,0 z" fill="#fe00ff" stroke="black" stroke-width="5"/>
<path d="M2655,8878 l952,0 l0,812 l-952,0 z" fill="#fe00ff" stroke="black" stroke-width="5"/>
<path d="M5528,167 l1414,0 l0,2213 l-1414,0 z" fill="#fa00ff" stroke="black" stroke-width="5"/>
<path d="M9510,6614 l490,0 l0,1499 l-490,0 z" fill="#7d00ff" stroke="black" stroke-width="5"/>
<path d="M543,1049 l578,0 l0,577 l-578,0 z" fill="#fe00ff" stroke="black" stroke-width="5"/>
<path d="M0,9834 l7827,0 l0,166 l-7827,0 z" fill="#fe00ff" stroke="black" stroke-width="5"/>
<path d="M6714,6291 l695,0 l0,695 l-695,0 z" fill="#fe00ff" stroke="black" stroke-width="5"/>
<path d="M5089,6029 l3883,0 l0,253 l-3883,0 z" fill="#a900ff" stroke="black" stroke-width="5"/>
<path d="M0,483 l543,0 l0,1257 l-543,0 z" fill="#fe00ff" stroke="black" stroke-width="5"/>
<path d="M2355,0 l1807,0 l0,1079 l-1807,0 z" fill="#fe00ff" stroke="black" stroke-width="5"/>
<path d="M8486,0 l521,0 l0,1969 l-521,0 z" fill="#4b00ff" stroke="black" stroke-width="5"/>
<path d="M247,7664 l691,0 l0,690 l-691,0 z" fill="#fe00ff" stroke="black" stroke-width="5"/>
<path d="M5426,8573 l201,0 l0,200 l-201,0 z" fill="#fe00ff" stroke="black" stroke-width="5"/>
<path d="M8973,8113 l486,0 l0,1259 l-486,0 z" fill="#fe00ff" stroke="black" stroke-width="5"/>
<path d="M5671,8573 l628,0 l0,667 l-628,0 z" fill="#fe00ff" stroke="black" stroke-width="5"/>
<path d="M1187,7337 l150,0 l0,150 l-150,0 z" fill="#fe00ff" stroke="black" stroke-width="5"/>
<path d="M7962,7922 l352,0 l0,351 l-352,0 z" fill="#fe00ff" stroke="black" stroke-width="5"/>
<path d="M431,5658 l1898,0 l0,608 l-1898,0 z" fill="#fe00ff" stroke="black" stroke-width="5"/>
<path d="M7558,2349 l928,0 l0,737 l-928,0 z" fill="#5d00ff" stroke="black" stroke-width="5"/>
<path d="M2676,7259 l679,0 l0,504 l-679,0 z" fill="#fe00ff" stroke="black" stroke-width="5"/>
<path d="M4785,7484 l2750,0 l0,540 l-2750,0 z" fill="#fe00ff" stroke="black" stroke-width="5"/>
<path d="M872,52 l602,0 l0,602 l-602,0 z" fill="#fe00ff" stroke="black" stroke-width="5"/>
<path d="M5789,3573 l776,0 l0,776 l-776,0 z" fill="#fe00ff" stroke="black" stroke-width="5"/>
<path d="M5627,8573 l44,0 l0,667 l-44,0 z" fill="#0000ff" stroke="black" stroke-width="5"/>
<path d="M247,6266 l940,0 l0,1398 l-940,0 z" fill="#fb00ff" stroke="black" stroke-width="5"/>
<path d="M2379,7763 l1598,0 l0,319 l-1598,0 z" fill="#fe00ff" stroke="black" stroke-width="5"/>
<path d="M8244,6320 l517,0 l0,517 l-517,0 z" fill="#fe00ff" stroke="black" stroke-width="5"/>
<path d="M1920,2832 l53,0 l0,53 l-53,0 z" fill="#fe00ff" stroke="black" stroke-width="5"/>
<path d="M462,4622 l846,0 l0,845 l-846,0 z" fill="#fe00ff" stroke="black" stroke-width="5"/>
<path d="M2329,6222 l399,0 l0,399 l-399,0 z" fill="#fe00ff" stroke="black" stroke-width="5"/>
<path d="M3977,7784 l660,0 l0,777 l-660,0 z" fill="#fe00ff" stroke="black" stroke-width="5"/>
<path d="M1410,1156 l631,0 l0,707 l-631,0 z" fill="#fe00ff" stroke="black" stroke-width="5"/>
<path d="M6565,2752 l846,0 l0,1321 l-846,0 z" fill="#fe00ff" stroke="black" stroke-width="5"/>
<path d="M8920,9570 l571,0 l0,430 l-571,0 z" fill="#fe00ff" stroke="black" stroke-width="5"/>
<path d="M0,8427 l490,0 l0,662 l-490,0 z" fill="#fe00ff" stroke="black" stroke-width="5"/>
<path d="M3810,1697 l430,0 l0,430 l-430,0 z" fill="#fe00ff" stroke="black" stroke-width="5"/>
<path d="M8486,3317 l589,0 l0,1032 l-589,0 z" fill="#3300ff" stroke="black" stroke-width="5"/>
<path d="M1786,5212 l447,0 l0,446 l-447,0 z" fill="#fe00ff" stroke="black" stroke-width="5"/>
<path d="M1187,6266 l1142,0 l0,1 l-1142,0 z" fill="#0000ff" stroke="black" stroke-width="5"/>
<path d="M2642,1079 l224,0 l0,1532 l-224,0 z" fill="#0a00ff" stroke="black" stroke-width="5"/>
<path d="M4785,7246 l1256,0 l0,238 l-1256,0 z" fill="#0400ff" stroke="black" stroke-width="5"/>
<path d="M938,8170 l929,0 l0,1028 l-929,0 z" fill="#fe00ff" stroke="black" stroke-width="5"/>
<path d="M0,1740 l1410,0 l0,1 l-1410,0 z" fill="#0000ff" stroke="black" stroke-width="5"/>
<path d="M9112,7716 l398,0 l0,397 l-398,0 z" fill="#fe00ff" stroke="black" stroke-width="5"/>
<path d="M5796,2380 l597,0 l0,470 l-597,0 z" fill="#fe00ff" stroke="black" stroke-width="5"/>
<path d="M8017,7305 l121,0 l0,121 l-121,0 z" fill="#fe00ff" stroke="black" stroke-width="5"/>
<path d="M500,2463 l205,0 l0,204 l-205,0 z" fill="#fe00ff" stroke="black" stroke-width="5"/>
<path d="M3281,8082 l442,0 l0,441 l-442,0 z" fill="#fe00ff" stroke="black" stroke-width="5"/>
<path d="M8333,7583 l491,0 l0,490 l-491,0 z" fill="#fe00ff" stroke="black" stroke-width="5"/>
<path d="M4134,2596 l419,0 l0,419 l-419,0 z" fill="#fe00ff" stroke="black" stroke-width="5"/>
<path d="M3579,4467 l661,0 l0,661 l-661,0 z" fill="#fe00ff" stroke="black" stroke-width="5"/>
<path d="M2866,1409 l944,0 l0,656 l-944,0 z" fill="#5b00ff" stroke="black" stroke-width="5"/>
<path d="M1690,4742 l350,0 l0,349 l-350,0 z" fill="#fe00ff" stroke="black" stroke-width="5"/>
<path d="M4425,6282 l1616,0 l0,964 l-1616,0 z" fill="#e600ff" stroke="black" stroke-width="5"/>
<path d="M5658,5376 l613,0 l0,612 l-613,0 z" fill="#fe00ff" stroke="black" stroke-width="5"/>
<path d="M876,2552 l753,0 l0,1507 l-753,0 z" fill="#fe00ff" stroke="black" stroke-width="5"/>
<path d="M4162,197 l390,0 l0,389 l-390,0 z" fill="#fe00ff" stroke="black" stroke-width="5"/>
<path d="M8972,4512 l307,0 l0,1644 l-307,0 z" fill="#7800ff" stroke="black" stroke-width="5"/>
<path d="M3723,8082 l254,0 l0,1594 l-254,0 z" fill="#1100ff" stroke="black" stroke-width="5"/>
<path d="M9590,6446 l168,0 l0,168 l-168,0 z" fill="#fe00ff" stroke="black" stroke-width="5"/>
<path d="M5944,9676 l2976,0 l0,158 l-2976,0 z" fill="#4000ff" stroke="black" stroke-width="5"/>
<path d="M0,3014 l308,0 l0,1994 l-308,0 z" fill="#fe00ff" stroke="black" stroke-width="5"/>
<path d="M7558,3086 l928,0 l0,928 l-928,0 z" fill="#fe00ff" stroke="black" stroke-width="5"/>
<path d="M4240,4349 l5760,0 l0,163 l-5760,0 z" fill="#fb00ff" stroke="black" stroke-width="5"/>
<path d="M7409,6282 l695,0 l0,1023 l-695,0 z" fill="#fe00ff" stroke="black" stroke-width="5"/>
<path d="M9075,2578 l754,0 l0,753 l-754,0 z" fill="#fe00ff" stroke="black" stroke-width="5"/>
<path d="M7233,1493 l1253,0 l0,710 l-1253,0 z" fill="#fe00ff" stroke="black" stroke-width="5"/>
<path d="M4240,878 l1288,0 l0,1604 l-1288,0 z" fill="#fe00ff" stroke="black" stroke-width="5"/>
<path d="M3183,9690 l145,0 l0,144 l-145,0 z" fill="#fe00ff" stroke="black" stroke-width="5"/>
<path d="M7874,2203 l147,0 l0,146 l-147,0 z" fill="#fe00ff" stroke="black" stroke-width="5"/>
<path d="M4513,7246 l272,0 l0,271 l-272,0 z" fill="#fe00ff" stroke="black" stroke-width="5"/>
<path d="M3303,5775 l925,0 l0,924 l-925,0 z" fill="#fe00ff" stroke="black" stroke-width="5"/>
<path d="M5766,4512 l871,0 l0,826 l-871,0 z" fill="#fe00ff" stroke="black" stroke-width="5"/>
<path d="M4584,5737 l505,0 l0,505 l-505,0 z" fill="#fe00ff" stroke="black" stroke-width="5"/>
<path d="M8972,6156 l307,0 l0,1560 l-307,0 z" fill="#0400ff" stroke="black" stroke-width="5"/>
<path d="M5008,167 l276,0 l0,276 l-276,0 z" fill="#fe00ff" stroke="black" stroke-width="5"/>
<path d="M9279,5177 l721,0 l0,1117 l-721,0 z" fill="#fe00ff" stroke="black" stroke-width="5"/>
<path d="M4240,4512 l1526,0 l0,864 l-1526,0 z" fill="#dc00ff" stroke="black" stroke-width="5"/>
<path d="M0,5008 l247,0 l0,3419 l-247,0 z" fill="#b800ff" stroke="black" stroke-width="5"/>
<path d="M8486,1969 l589,0 l0,1348 l-589,0 z" fill="#f800ff" stroke="black" stroke-width="5"/>
<path d="M1909,4383 l60,0 l0,60 l-60,0 z" fill="green"/>
<path d="M1939,4413 l0.5,-3" stroke="black" stroke-width="5"/>
<path d="M-28,2762 l60,0 l0,60 l-60,0 z" fill="green"/>
<path d="M2,2792 l152,-414.5" stroke="black" stroke-width="5"/>
<path d="M3517,7590 l60,0 l0,60 l-60,0 z" fill="green"/>
<path d="M3547,7620 l343,-367" stroke="black" stroke-width="5"/>
<path d="M7381,3710 l60,0 l0,60 l-60,0 z" fill="green"/>
<path d="M7411,3740 l73.5,-464" stroke="black" stroke-width="5"/>
<path d="M6365,9511 l60,0 l0,60 l-60,0 z" fill="green"/>
<path d="M6395,9541 l0,-83" stroke="black" stroke-width="5"/>
<path d="M8452,5598 l60,0 l0,60 l-60,0 z" fill="green"/>
<path d="M8482,5628 l0,-44.5" stroke="black" stroke-width="5"/>
<path d="M5913,9766 l60,0 l0,60 l-60,0 z" fill="green"/>
<path d="M5943,9796 l-1167.5,-41" stroke="black" stroke-width="5"/>
<path d="M7957,1039 l60,0 l0,60 l-60,0 z" fill="green"/>
<path d="M7987,1069 l0,0.5" stroke="black" stroke-width="5"/>
<path d="M1938,6488 l60,0 l0,60 l-60,0 z" fill="green"/>
<path d="M1968,6518 l-35,90" stroke="black" stroke-width="5"/>
<path d="M9322,1594 l60,0 l0,60 l-60,0 z" fill="green"/>
<path d="M9352,1624 l0,0" stroke="black" stroke-width="5"/>
<path d="M3117,3290 l60,0 l0,60 l-60,0 z" fill="green"/>
<path d="M3147,3320 l511.5,511.5" stroke="black" stroke-width="5"/>
<path d="M8942,8570 l60,0 l0,60 l-60,0 z" fill="green"/>
<path d="M8972,8600 l-328.5,221.5" stroke="black" stroke-width="5"/>
<path d="M9965,8786 l60,0 l0,60 l-60,0 z" fill="green"/>
<path d="M9995,8816 l-265.5,377" stroke="black" stroke-width="5"/>
<path d="M669,3267 l60,0 l0,60 l-60,0 z" fill="green"/>
<path d="M699,3297 l-107,0.5" stroke="black" stroke-width="5"/>
<path d="M8441,4513 l60,0 l0,60 l-60,0 z" fill="green"/>
<path d="M8471,4543 l-666.5,282" stroke="black" stroke-width="5"/>
<path d="M2255,2065 l60,0 l0,60 l-60,0 z" fill="green"/>
<path d="M2285,2095 l56.5,0.5" stroke="black" stroke-width="5"/>
<path d="M2892,3163 l60,0 l0,60 l-60,0 z" fill="green"/>
<path d="M2922,3193 l-178,0" stroke="black" stroke-width="5"/>
<path d="M7681,929 l60,0 l0,60 l-60,0 z" fill="green"/>
<path d="M7711,959 l-384,-118" stroke="black" stroke-width="5"/>
<path d="M8325,9953 l60,0 l0,60 l-60,0 z" fill="green"/>
<path d="M8355,9983 l18.5,-66" stroke="black" stroke-width="5"/>
<path d="M3523,1214 l60,0 l0,60 l-60,0 z" fill="green"/>
<path d="M3553,1244 l0.5,0" stroke="black" stroke-width="5"/>
<path d="M5301,42 l60,0 l0,60 l-60,0 z" fill="green"/>
<path d="M5331,72 l0,11.5" stroke="black" stroke-width="5"/>
<path d="M3281,2510 l60,0 l0,60 l-60,0 z" fill="green"/>
<path d="M3311,2540 l167.5,152.5" stroke="black" stroke-width="5"/>
<path d="M6254,7211 l60,0 l0,60 l-60,0 z" fill="green"/>
<path d="M6284,7241 l0,0" stroke="black" stroke-width="5"/>
<path d="M5725,8322 l60,0 l0,60 l-60,0 z" fill="green"/>
<path d="M5755,8352 l0.5,-53.5" stroke="black" stroke-width="5"/>
<path d="M2010,1833 l60,0 l0,60 l-60,0 z" fill="green"/>
<path d="M2040,1863 l-667,344.5" stroke="black" stroke-width="5"/>
<path d="M9854,8505 l60,0 l0,60 l-60,0 z" fill="green"/>
<path d="M9884,8535 l-154.5,-70.5" stroke="black" stroke-width="5"/>
<path d="M3101,9324 l60,0 l0,60 l-60,0 z" fill="green"/>
<path d="M3131,9354 l0,-70" stroke="black" stroke-width="5"/>
<path d="M5909,2349 l60,0 l0,60 l-60,0 z" fill="green"/>
<path d="M5939,2379 l296,-1105.5" stroke="black" stroke-width="5"/>
<path d="M9737,7835 l60,0 l0,60 l-60,0 z" fill="green"/>
<path d="M9767,7865 l-12,-501.5" stroke="black" stroke-width="5"/>
<path d="M802,1307 l60,0 l0,60 l-60,0 z" fill="green"/>
<path d="M832,1337 l0,0.5" stroke="black" stroke-width="5"/>
<path d="M3266,9869 l60,0 l0,60 l-60,0 z" fill="green"/>
<path d="M3296,9899 l617.5,18" stroke="black" stroke-width="5"/>
<path d="M7031,6608 l60,0 l0,60 l-60,0 z" fill="green"/>
<path d="M7061,6638 l0.5,0.5" stroke="black" stroke-width="5"/>
<path d="M8076,5999 l60,0 l0,60 l-60,0 z" fill="green"/>
<path d="M8106,6029 l-1075.5,126.5" stroke="black" stroke-width="5"/>
<path d="M77,1529 l60,0 l0,60 l-60,0 z" fill="green"/>
<path d="M107,1559 l164.5,-447.5" stroke="black" stroke-width="5"/>
<path d="M3779,403 l60,0 l0,60 l-60,0 z" fill="green"/>
<path d="M3809,433 l-550.5,106.5" stroke="black" stroke-width="5"/>
<path d="M8727,1865 l60,0 l0,60 l-60,0 z" fill="green"/>
<path d="M8757,1895 l-10.5,-910.5" stroke="black" stroke-width="5"/>
<path d="M562,7979 l60,0 l0,60 l-60,0 z" fill="green"/>
<path d="M592,8009 l0.5,0" stroke="black" stroke-width="5"/>
<path d="M5496,8643 l60,0 l0,60 l-60,0 z" fill="green"/>
<path d="M5526,8673 l0.5,0" stroke="black" stroke-width="5"/>
<path d="M9097,8688 l60,0 l0,60 l-60,0 z" fill="green"/>
<path d="M9127,8718 l89,24.5" stroke="black" stroke-width="5"/>
<path d="M5765,8707 l60,0 l0,60 l-60,0 z" fill="green"/>
<path d="M5795,8737 l190,169.5" stroke="black" stroke-width="5"/>
<path d="M1232,7382 l60,0 l0,60 l-60,0 z" fill="green"/>
<path d="M1262,7412 l0,0" stroke="black" stroke-width="5"/>
<path d="M8108,8067 l60,0 l0,60 l-60,0 z" fill="green"/>
<path d="M8138,8097 l0,0.5" stroke="black" stroke-width="5"/>
<path d="M2042,6161 l60,0 l0,60 l-60,0 z" fill="green"/>
<path d="M2072,6191 l-692,-229" stroke="black" stroke-width="5"/>
<path d="M7808,2934 l60,0 l0,60 l-60,0 z" fill="green"/>
<path d="M7838,2964 l184,-246.5" stroke="black" stroke-width="5"/>
<path d="M2985,7568 l60,0 l0,60 l-60,0 z" fill="green"/>
<path d="M3015,7598 l0.5,-87" stroke="black" stroke-width="5"/>
<path d="M6035,7936 l60,0 l0,60 l-60,0 z" fill="green"/>
<path d="M6065,7966 l95,-212" stroke="black" stroke-width="5"/>
<path d="M1143,323 l60,0 l0,60 l-60,0 z" fill="green"/>
<path d="M1173,353 l0,0" stroke="black" stroke-width="5"/>
<path d="M6147,3931 l60,0 l0,60 l-60,0 z" fill="green"/>
<path d="M6177,3961 l0,0" stroke="black" stroke-width="5"/>
<path d="M5640,8658 l60,0 l0,60 l-60,0 z" fill="green"/>
<path d="M5670,8688 l-21,218.5" stroke="black" stroke-width="5"/>
<path d="M719,6874 l60,0 l0,60 l-60,0 z" fill="green"/>
<path d="M749,6904 l-32,61" stroke="black" stroke-width="5"/>
<path d="M3148,7733 l60,0 l0,60 l-60,0 z" fill="green"/>
<path d="M3178,7763 l0,159.5" stroke="black" stroke-width="5"/>
<path d="M8472,6548 l60,0 l0,60 l-60,0 z" fill="green"/>
<path d="M8502,6578 l0.5,0.5" stroke="black" stroke-width="5"/>
<path d="M1916,2828 l60,0 l0,60 l-60,0 z" fill="green"/>
<path d="M1946,2858 l0.5,0.5" stroke="black" stroke-width="5"/>
<path d="M855,5014 l60,0 l0,60 l-60,0 z" fill="green"/>
<path d="M885,5044 l0,0.5" stroke="black" stroke-width="5"/>
<path d="M2498,6391 l60,0 l0,60 l-60,0 z" fill="green"/>
<path d="M2528,6421 l0.5,0.5" stroke="black" stroke-width="5"/>
<path d="M4218,8142 l60,0 l0,60 l-60,0 z" fill="green"/>
<path d="M4248,8172 l59,0.5" stroke="black" stroke-width="5"/>
<path d="M1916,1662 l60,0 l0,60 l-60,0 z" fill="green"/>
<path d="M1946,1692 l-220.5,-182.5" stroke="black" stroke-width="5"/>
<path d="M6837,3382 l60,0 l0,60 l-60,0 z" fill="green"/>
<path d="M6867,3412 l121,0.5" stroke="black" stroke-width="5"/>
<path d="M9175,9825 l60,0 l0,60 l-60,0 z" fill="green"/>
<path d="M9205,9855 l0.5,-70" stroke="black" stroke-width="5"/>
<path d="M129,8728 l60,0 l0,60 l-60,0 z" fill="green"/>
<path d="M159,8758 l86,0" stroke="black" stroke-width="5"/>
<path d="M3995,1882 l60,0 l0,60 l-60,0 z" fill="green"/>
<path d="M4025,1912 l0,0" stroke="black" stroke-width="5"/>
<path d="M8695,3287 l60,0 l0,60 l-60,0 z" fill="green"/>
<path d="M8725,3317 l55.5,516" stroke="black" stroke-width="5"/>
<path d="M1979,5405 l60,0 l0,60 l-60,0 z" fill="green"/>
<path d="M2009,5435 l0.5,0" stroke="black" stroke-width="5"/>
<path d="M2028,6236 l60,0 l0,60 l-60,0 z" fill="green"/>
<path d="M2058,6266 l-300,0.5" stroke="black" stroke-width="5"/>
<path d="M2835,1681 l60,0 l0,60 l-60,0 z" fill="green"/>
<path d="M2865,1711 l-111,134" stroke="black" stroke-width="5"/>
<path d="M5427,7399 l60,0 l0,60 l-60,0 z" fill="green"/>
<path d="M5457,7429 l-44,-64" stroke="black" stroke-width="5"/>
<path d="M1323,8654 l60,0 l0,60 l-60,0 z" fill="green"/>
<path d="M1353,8684 l49.5,0" stroke="black" stroke-width="5"/>
<path d="M95,1710 l60,0 l0,60 l-60,0 z" fill="green"/>
<path d="M125,1740 l580,0.5" stroke="black" stroke-width="5"/>
<path d="M9281,7884 l60,0 l0,60 l-60,0 z" fill="green"/>
<path d="M9311,7914 l0,0.5" stroke="black" stroke-width="5"/>
<path d="M6064,2522 l60,0 l0,60 l-60,0 z" fill="green"/>
<path d="M6094,2552 l0.5,63" stroke="black" stroke-width="5"/>
<path d="M8047,7335 l60,0 l0,60 l-60,0 z" fill="green"/>
<path d="M8077,7365 l0.5,0.5" stroke="black" stroke-width="5"/>
<path d="M572,2535 l60,0 l0,60 l-60,0 z" fill="green"/>
<path d="M602,2565 l0.5,0" stroke="black" stroke-width="5"/>
<path d="M3472,8272 l60,0 l0,60 l-60,0 z" fill="green"/>
<path d="M3502,8302 l0,0.5" stroke="black" stroke-width="5"/>
<path d="M8548,7798 l60,0 l0,60 l-60,0 z" fill="green"/>
<path d="M8578,7828 l0.5,0" stroke="black" stroke-width="5"/>
<path d="M4313,2775 l60,0 l0,60 l-60,0 z" fill="green"/>
<path d="M4343,2805 l0.5,0.5" stroke="black" stroke-width="5"/>
<path d="M3879,4767 l60,0 l0,60 l-60,0 z" fill="green"/>
<path d="M3909,4797 l0.5,0.5" stroke="black" stroke-width="5"/>
<path d="M3628,2034 l60,0 l0,60 l-60,0 z" fill="green"/>
<path d="M3658,2064 l-320,-327" stroke="black" stroke-width="5"/>
<path d="M1835,4886 l60,0 l0,60 l-60,0 z" fill="green"/>
<path d="M1865,4916 l0,0.5" stroke="black" stroke-width="5"/>
<path d="M4635,7213 l60,0 l0,60 l-60,0 z" fill="green"/>
<path d="M4665,7243 l568,-479" stroke="black" stroke-width="5"/>
<path d="M5934,5652 l60,0 l0,60 l-60,0 z" fill="green"/>
<path d="M5964,5682 l0.5,0" stroke="black" stroke-width="5"/>
<path d="M846,3275 l60,0 l0,60 l-60,0 z" fill="green"/>
<path d="M876,3305 l376.5,0.5" stroke="black" stroke-width="5"/>
<path d="M4327,361 l60,0 l0,60 l-60,0 z" fill="green"/>
<path d="M4357,391 l0,0.5" stroke="black" stroke-width="5"/>
<path d="M9068,5154 l60,0 l0,60 l-60,0 z" fill="green"/>
<path d="M9098,5184 l27.5,150" stroke="black" stroke-width="5"/>
<path d="M3862,8236 l60,0 l0,60 l-60,0 z" fill="green"/>
<path d="M3892,8266 l-42,613" stroke="black" stroke-width="5"/>
<path d="M9644,6500 l60,0 l0,60 l-60,0 z" fill="green"/>
<path d="M9674,6530 l0,0" stroke="black" stroke-width="5"/>
<path d="M6403,9646 l60,0 l0,60 l-60,0 z" fill="green"/>
<path d="M6433,9676 l999,79" stroke="black" stroke-width="5"/>
<path d="M77,2984 l60,0 l0,60 l-60,0 z" fill="green"/>
<path d="M107,3014 l47,997" stroke="black" stroke-width="5"/>
<path d="M7992,3520 l60,0 l0,60 l-60,0 z" fill="green"/>
<path d="M8022,3550 l0,0" stroke="black" stroke-width="5"/>
<path d="M5896,4481 l60,0 l0,60 l-60,0 z" fill="green"/>
<path d="M5926,4511 l1194,-80.5" stroke="black" stroke-width="5"/>
<path d="M7544,6782 l60,0 l0,60 l-60,0 z" fill="green"/>
<path d="M7574,6812 l182.5,-18.5" stroke="black" stroke-width="5"/>
<path d="M9422,2924 l60,0 l0,60 l-60,0 z" fill="green"/>
<path d="M9452,2954 l0,0.5" stroke="black" stroke-width="5"/>
<path d="M7844,2102 l60,0 l0,60 l-60,0 z" fill="green"/>
<path d="M7874,2132 l-14.5,-284" stroke="black" stroke-width="5"/>
<path d="M4695,1650 l60,0 l0,60 l-60,0 z" fill="green"/>
<path d="M4725,1680 l159,0" stroke="black" stroke-width="5"/>
<path d="M3225,9732 l60,0 l0,60 l-60,0 z" fill="green"/>
<path d="M3255,9762 l0.5,0" stroke="black" stroke-width="5"/>
<path d="M7917,2246 l60,0 l0,60 l-60,0 z" fill="green"/>
<path d="M7947,2276 l0.5,0" stroke="black" stroke-width="5"/>
<path d="M4619,7351 l60,0 l0,60 l-60,0 z" fill="green"/>
<path d="M4649,7381 l0,0.5" stroke="black" stroke-width="5"/>
<path d="M3735,6207 l60,0 l0,60 l-60,0 z" fill="green"/>
<path d="M3765,6237 l0.5,0" stroke="black" stroke-width="5"/>
<path d="M6171,4872 l60,0 l0,60 l-60,0 z" fill="green"/>
<path d="M6201,4902 l0.5,23" stroke="black" stroke-width="5"/>
<path d="M4806,5959 l60,0 l0,60 l-60,0 z" fill="green"/>
<path d="M4836,5989 l0.5,0.5" stroke="black" stroke-width="5"/>
<path d="M8993,6126 l60,0 l0,60 l-60,0 z" fill="green"/>
<path d="M9023,6156 l102.5,780" stroke="black" stroke-width="5"/>
<path d="M5116,275 l60,0 l0,60 l-60,0 z" fill="green"/>
<path d="M5146,305 l0,0" stroke="black" stroke-width="5"/>
<path d="M9807,5705 l60,0 l0,60 l-60,0 z" fill="green"/>
<path d="M9837,5735 l-197.5,0.5" stroke="black" stroke-width="5"/>
<path d="M5720,5246 l60,0 l0,60 l-60,0 z" fill="green"/>
<path d="M5750,5276 l-747,-332" stroke="black" stroke-width="5"/>
<path d="M209,7953 l60,0 l0,60 l-60,0 z" fill="green"/>
<path d="M239,7983 l-115.5,-1265.5" stroke="black" stroke-width="5"/>
<path d="M8781,2891 l60,0 l0,60 l-60,0 z" fill="green"/>
<path d="M8811,2921 l-30.5,-278" stroke="black" stroke-width="5"/>
<text font-size="138.01311186847084" text-anchor="middle" x="1939.5" y="4458.304589153965">
0
</text>
<text font-size="138.01311186847084" text-anchor="middle" x="154" y="2425.8045891539646">
1
</text>
<text font-size="138.01311186847084" text-anchor="middle" x="3890" y="7301.304589153965">
2
</text>
<text font-size="138.01311186847084" text-anchor="middle" x="7484.5" y="3324.3045891539646">
3
</text>
<text font-size="138.01311186847084" text-anchor="middle" x="6395" y="9506.304589153964">
4
</text>
<text font-size="138.01311186847084" text-anchor="middle" x="8482" y="5631.804589153965">
5
</text>
<text font-size="138.01311186847084" text-anchor="middle" x="4775.5" y="9803.304589153964">
6
</text>
<text font-size="138.01311186847084" text-anchor="middle" x="7987" y="1117.8045891539648">
7
</text>
<text font-size="138.01311186847084" text-anchor="middle" x="1933" y="6656.304589153965">
8
</text>
<text font-size="138.01311186847084" text-anchor="middle" x="9352" y="1672.3045891539648">
9
</text>
<text font-size="138.01311186847084" text-anchor="middle" x="3658.5" y="3879.8045891539646">
10
</text>
<text font-size="138.01311186847084" text-anchor="middle" x="8643.5" y="8869.804589153964">
11
</text>
<text font-size="138.01311186847084" text-anchor="middle" x="9729.5" y="9241.304589153964">
12
</text>
<text font-size="138.01311186847084" text-anchor="middle" x="592" y="3345.8045891539646">
13
</text>
<text font-size="138.01311186847084" text-anchor="middle" x="7804.5" y="4873.304589153965">
14
</text>
<text font-size="138.01311186847084" text-anchor="middle" x="2341.5" y="2143.8045891539646">
15
</text>
<text font-size="138.01311186847084" text-anchor="middle" x="2744" y="3241.3045891539646">
16
</text>
<text font-size="138.01311186847084" text-anchor="middle" x="7327" y="889.3045891539648">
17
</text>
<text font-size="138.01311186847084" text-anchor="middle" x="8373.5" y="9965.304589153964">
18
</text>
<text font-size="138.01311186847084" text-anchor="middle" x="3553.5" y="1292.3045891539648">
19
</text>
<text font-size="138.01311186847084" text-anchor="middle" x="5331" y="131.8045891539648">
20
</text>
<text font-size="138.01311186847084" text-anchor="middle" x="3478.5" y="2740.8045891539646">
21
</text>
<text font-size="138.01311186847084" text-anchor="middle" x="6284" y="7289.304589153965">
22
</text>
<text font-size="138.01311186847084" text-anchor="middle" x="5755.5" y="8346.804589153964">
23
</text>
<text font-size="138.01311186847084" text-anchor="middle" x="1373" y="2255.8045891539646">
24
</text>
<text font-size="138.01311186847084" text-anchor="middle" x="9729.5" y="8512.804589153964">
25
</text>
<text font-size="138.01311186847084" text-anchor="middle" x="3131" y="9332.304589153964">
26
</text>
<text font-size="138.01311186847084" text-anchor="middle" x="6235" y="1321.8045891539648">
27
</text>
<text font-size="138.01311186847084" text-anchor="middle" x="9755" y="7411.804589153965">
28
</text>
<text font-size="138.01311186847084" text-anchor="middle" x="832" y="1385.8045891539648">
29
</text>
<text font-size="138.01311186847084" text-anchor="middle" x="3913.5" y="9965.304589153964">
30
</text>
<text font-size="138.01311186847084" text-anchor="middle" x="7061.5" y="6686.804589153965">
31
</text>
<text font-size="138.01311186847084" text-anchor="middle" x="7030.5" y="6203.804589153965">
32
</text>
<text font-size="138.01311186847084" text-anchor="middle" x="271.5" y="1159.8045891539648">
33
</text>
<text font-size="138.01311186847084" text-anchor="middle" x="3258.5" y="587.8045891539648">
34
</text>
<text font-size="138.01311186847084" text-anchor="middle" x="8746.5" y="1032.8045891539648">
35
</text>
<text font-size="138.01311186847084" text-anchor="middle" x="592.5" y="8057.304589153965">
36
</text>
<text font-size="138.01311186847084" text-anchor="middle" x="5526.5" y="8721.304589153964">
37
</text>
<text font-size="138.01311186847084" text-anchor="middle" x="9216" y="8790.804589153964">
38
</text>
<text font-size="138.01311186847084" text-anchor="middle" x="5985" y="8954.804589153964">
39
</text>
<text font-size="138.01311186847084" text-anchor="middle" x="1262" y="7460.304589153965">
40
</text>
<text font-size="138.01311186847084" text-anchor="middle" x="8138" y="8145.804589153965">
41
</text>
<text font-size="138.01311186847084" text-anchor="middle" x="1380" y="6010.304589153965">
42
</text>
<text font-size="138.01311186847084" text-anchor="middle" x="8022" y="2765.8045891539646">
43
</text>
<text font-size="138.01311186847084" text-anchor="middle" x="3015.5" y="7559.304589153965">
44
</text>
<text font-size="138.01311186847084" text-anchor="middle" x="6160" y="7802.304589153965">
45
</text>
<text font-size="138.01311186847084" text-anchor="middle" x="1173" y="401.3045891539648">
46
</text>
<text font-size="138.01311186847084" text-anchor="middle" x="6177" y="4009.3045891539646">
47
</text>
<text font-size="138.01311186847084" text-anchor="middle" x="5649" y="8954.804589153964">
48
</text>
<text font-size="138.01311186847084" text-anchor="middle" x="717" y="7013.304589153965">
49
</text>
<text font-size="138.01311186847084" text-anchor="middle" x="3178" y="7970.804589153965">
50
</text>
<text font-size="138.01311186847084" text-anchor="middle" x="8502.5" y="6626.804589153965">
51
</text>
<text font-size="138.01311186847084" text-anchor="middle" x="1946.5" y="2906.8045891539646">
52
</text>
<text font-size="138.01311186847084" text-anchor="middle" x="885" y="5092.804589153965">
53
</text>
<text font-size="138.01311186847084" text-anchor="middle" x="2528.5" y="6469.804589153965">
54
</text>
<text font-size="138.01311186847084" text-anchor="middle" x="4307" y="8220.804589153964">
55
</text>
<text font-size="138.01311186847084" text-anchor="middle" x="1725.5" y="1557.8045891539648">
56
</text>
<text font-size="138.01311186847084" text-anchor="middle" x="6988" y="3460.8045891539646">
57
</text>
<text font-size="138.01311186847084" text-anchor="middle" x="9205.5" y="9833.304589153964">
58
</text>
<text font-size="138.01311186847084" text-anchor="middle" x="245" y="8806.304589153964">
59
</text>
<text font-size="138.01311186847084" text-anchor="middle" x="4025" y="1960.3045891539648">
60
</text>
<text font-size="138.01311186847084" text-anchor="middle" x="8780.5" y="3881.3045891539646">
61
</text>
<text font-size="138.01311186847084" text-anchor="middle" x="2009.5" y="5483.304589153965">
62
</text>
<text font-size="138.01311186847084" text-anchor="middle" x="1758" y="6314.804589153965">
63
</text>
<text font-size="138.01311186847084" text-anchor="middle" x="2754" y="1893.3045891539648">
64
</text>
<text font-size="138.01311186847084" text-anchor="middle" x="5413" y="7413.304589153965">
65
</text>
<text font-size="138.01311186847084" text-anchor="middle" x="1402.5" y="8732.304589153964">
66
</text>
<text font-size="138.01311186847084" text-anchor="middle" x="705" y="1788.8045891539648">
67
</text>
<text font-size="138.01311186847084" text-anchor="middle" x="9311" y="7962.804589153965">
68
</text>
<text font-size="138.01311186847084" text-anchor="middle" x="6094.5" y="2663.3045891539646">
69
</text>
<text font-size="138.01311186847084" text-anchor="middle" x="8077.5" y="7413.804589153965">
70
</text>
<text font-size="138.01311186847084" text-anchor="middle" x="602.5" y="2613.3045891539646">
71
</text>
<text font-size="138.01311186847084" text-anchor="middle" x="3502" y="8350.804589153964">
72
</text>
<text font-size="138.01311186847084" text-anchor="middle" x="8578.5" y="7876.304589153965">
73
</text>
<text font-size="138.01311186847084" text-anchor="middle" x="4343.5" y="2853.8045891539646">
74
</text>
<text font-size="138.01311186847084" text-anchor="middle" x="3909.5" y="4845.804589153965">
75
</text>
<text font-size="138.01311186847084" text-anchor="middle" x="3338" y="1785.3045891539648">
76
</text>
<text font-size="138.01311186847084" text-anchor="middle" x="1865" y="4964.804589153965">
77
</text>
<text font-size="138.01311186847084" text-anchor="middle" x="5233" y="6812.304589153965">
78
</text>
<text font-size="138.01311186847084" text-anchor="middle" x="5964.5" y="5730.304589153965">
79
</text>
<text font-size="138.01311186847084" text-anchor="middle" x="1252.5" y="3353.8045891539646">
80
</text>
<text font-size="138.01311186847084" text-anchor="middle" x="4357" y="439.8045891539648">
81
</text>
<text font-size="138.01311186847084" text-anchor="middle" x="9125.5" y="5382.304589153965">
82
</text>
<text font-size="138.01311186847084" text-anchor="middle" x="3850" y="8927.304589153964">
83
</text>
<text font-size="138.01311186847084" text-anchor="middle" x="9674" y="6578.304589153965">
84
</text>
<text font-size="138.01311186847084" text-anchor="middle" x="7432" y="9803.304589153964">
85
</text>
<text font-size="138.01311186847084" text-anchor="middle" x="154" y="4059.3045891539646">
86
</text>
<text font-size="138.01311186847084" text-anchor="middle" x="8022" y="3598.3045891539646">
87
</text>
<text font-size="138.01311186847084" text-anchor="middle" x="7120" y="4478.804589153965">
88
</text>
<text font-size="138.01311186847084" text-anchor="middle" x="7756.5" y="6841.804589153965">
89
</text>
<text font-size="138.01311186847084" text-anchor="middle" x="9452" y="3002.8045891539646">
90
</text>
<text font-size="138.01311186847084" text-anchor="middle" x="7859.5" y="1896.3045891539648">
91
</text>
<text font-size="138.01311186847084" text-anchor="middle" x="4884" y="1728.3045891539648">
92
</text>
<text font-size="138.01311186847084" text-anchor="middle" x="3255.5" y="9810.304589153964">
93
</text>
<text font-size="138.01311186847084" text-anchor="middle" x="7947.5" y="2324.3045891539646">
94
</text>
<text font-size="138.01311186847084" text-anchor="middle" x="4649" y="7429.804589153965">
95
</text>
<text font-size="138.01311186847084" text-anchor="middle" x="3765.5" y="6285.304589153965">
96
</text>
<text font-size="138.01311186847084" text-anchor="middle" x="6201.5" y="4973.304589153965">
97
</text>
<text font-size="138.01311186847084" text-anchor="middle" x="4836.5" y="6037.804589153965">
98
</text>
<text font-size="138.01311186847084" text-anchor="middle" x="9125.5" y="6984.304589153965">
99
</text>
<text font-size="138.01311186847084" text-anchor="middle" x="5146" y="353.3045891539648">
100
</text>
<text font-size="138.01311186847084" text-anchor="middle" x="9639.5" y="5783.804589153965">
101
</text>
<text font-size="138.01311186847084" text-anchor="middle" x="5003" y="4992.304589153965">
102
</text>
<text font-size="138.01311186847084" text-anchor="middle" x="123.5" y="6765.804589153965">
103
</text>
<text font-size="138.01311186847084" text-anchor="middle" x="8780.5" y="2691.3045891539646">
104
</text>
</svg>