<svg viewBox="-100 -100 10200 10200" xmlns="http://www.w3.org/2000/svg">
<path d="M0,0 l10000,0 l0,10000 l-10000,0 z" fill="white"/>
<path d="M1857,8353 l376,0 l0,1647 l-376,0 z" fill="#fe00ff" stroke="black" stroke-width="5"/>
<path d="M8759,2288 l984,0 l0,983 l-984,0 z" fill="#fe00ff" stroke="black" stroke-width="5"/>
<path d="M8388,8453 l526,0 l0,526 l-526,0 z" fill="#fe00ff" stroke="black" stroke-width="5"/>
<path d="M6731,8892 l860,0 l0,860 l-860,0 z" fill="#fe00ff" stroke="black" stroke-width="5"/>
<path d="M9079,4333 l409,0 l0,409 l-409,0 z" fill="#fe00ff" stroke="black" stroke-width="5"/>
<path d="M2196,1868 l991,0 l0,990 l-991,0 z" fill="#fe00ff" stroke="black" stroke-width="5"/>
<path d="M9054,7602 l243,0 l0,242 l-243,0 z" fill="#fe00ff" stroke="black" stroke-width="5"/>
<path d="M4200,8217 l966,0 l0,593 l-966,0 z" fill="#1700ff" stroke="black" stroke-width="5"/>
<path d="M7675,7436 l322,0 l0,301 l-322,0 z" fill="#fe00ff" stroke="black" stroke-width="5"/>
<path d="M9297,5830 l494,0 l0,4007 l-494,0 z" fill="#fe00ff" stroke="black" stroke-width="5"/>
<path d="M5154,3171 l2105,0 l0,1838 l-2105,0 z" fill="#fe00ff" stroke="black" stroke-width="5"/>
<path d="M4632,1265 l628,0 l0,837 l-628,0 z" fill="#0600ff" stroke="black" stroke-width="5"/>
<path d="M2392,5484 l382,0 l0,680 l-382,0 z" fill="#fe00ff" stroke="black" stroke-width="5"/>
<path d="M3201,3155 l782,0 l0,1564 l-782,0 z" fill="#fe00ff" stroke="black" stroke-width="5"/>
<path d="M9638,0 l362,0 l0,1009 l-362,0 z" fill="#0600ff" stroke="black" stroke-width="5"/>
<path d="M6315,5009 l752,0 l0,695 l-752,0 z" fill="#a100ff" stroke="black" stroke-width="5"/>
<path d="M5423,6948 l55,0 l0,54 l-55,0 z" fill="#fe00ff" stroke="black" stroke-width="5"/>
<path d="M5261,1619 l982,0 l0,1552 l-982,0 z" fill="#fe00ff" stroke="black" stroke-width="5"/>
<path d="M1213,9211 l644,0 l0,644 l-644,0 z" fill="#fe00ff" stroke="black" stroke-width="5"/>
<path d="M6315,5704 l638,0 l0,808 l-638,0 z" fill="#fe00ff" stroke="black" stroke-width="5"/>
<path d="M8808,6909 l489,0 l0,447 l-489,0 z" fill="#fe00ff" stroke="black" stroke-width="5"/>
<path d="M72,4849 l400,0 l0,399 l-400,0 z" fill="#fe00ff" stroke="black" stroke-width="5"/>
<path d="M3519,4857 l446,0 l0,445 l-446,0 z" fill="#fe00ff" stroke="black" stroke-width="5"/>
<path d="M908,463 l497,0 l0,1640 l-497,0 z" fill="#fe00ff" stroke="black" stroke-width="5"/>
<path d="M721,7514 l1105,0 l0,1214 l-1105,0 z" fill="#fe00ff" stroke="black" stroke-width="5"/>
<path d="M1405,261 l1142,0 l0,1607 l-1142,0 z" fill="#4e00ff" stroke="black" stroke-width="5"/>
<path d="M8338,4742 l1662,0 l0,1088 l-1662,0 z" fill="#fe00ff" stroke="black" stroke-width="5"/>
<path d="M4741,6241 l682,0 l0,1488 l-682,0 z" fill="#fe00ff" stroke="black" stroke-width="5"/>
<path d="M7956,7071 l366,0 l0,365 l-366,0 z" fill="#fe00ff" stroke="black" stroke-width="5"/>
<path d="M4353,8810 l813,0 l0,1190 l-813,0 z" fill="#fe00ff" stroke="black" stroke-width="5"/>
<path d="M5932,0 l3706,0 l0,1009 l-3706,0 z" fill="#fe00ff" stroke="black" stroke-width="5"/>
<path d="M5674,5009 l641,0 l0,3401 l-641,0 z" fill="#8800ff" stroke="black" stroke-width="5"/>
<path d="M2494,0 l3438,0 l0,261 l-3438,0 z" fill="#6b00ff" stroke="black" stroke-width="5"/>
<path d="M5166,8410 l976,0 l0,1162 l-976,0 z" fill="#fe00ff" stroke="black" stroke-width="5"/>
<path d="M5287,568 l645,0 l0,1051 l-645,0 z" fill="#fe00ff" stroke="black" stroke-width="5"/>
<path d="M6464,7024 l1156,0 l0,1156 l-1156,0 z" fill="#fe00ff" stroke="black" stroke-width="5"/>
<path d="M2156,7842 l511,0 l0,511 l-511,0 z" fill="#fe00ff" stroke="black" stroke-width="5"/>
<path d="M6243,1009 l1303,0 l0,1027 l-1303,0 z" fill="#6300ff" stroke="black" stroke-width="5"/>
<path d="M1071,2268 l1125,0 l0,911 l-1125,0 z" fill="#fe00ff" stroke="black" stroke-width="5"/>
<path d="M4632,568 l655,0 l0,697 l-655,0 z" fill="#fe00ff" stroke="black" stroke-width="5"/>
<path d="M4632,261 l1300,0 l0,307 l-1300,0 z" fill="#1700ff" stroke="black" stroke-width="5"/>
<path d="M6396,8716 l317,0 l0,317 l-317,0 z" fill="#fe00ff" stroke="black" stroke-width="5"/>
<path d="M3350,1868 l525,0 l0,776 l-525,0 z" fill="#fe00ff" stroke="black" stroke-width="5"/>
<path d="M2233,8810 l2120,0 l0,1190 l-2120,0 z" fill="#fc00ff" stroke="black" stroke-width="5"/>
<path d="M3675,8217 l525,0 l0,262 l-525,0 z" fill="#fe00ff" stroke="black" stroke-width="5"/>
<path d="M3983,3070 l1171,0 l0,1450 l-1171,0 z" fill="#fe00ff" stroke="black" stroke-width="5"/>
<path d="M6875,2036 l739,0 l0,739 l-739,0 z" fill="#fe00ff" stroke="black" stroke-width="5"/>
<path d="M4632,2102 l628,0 l0,847 l-628,0 z" fill="#fe00ff" stroke="black" stroke-width="5"/>
<path d="M151,1681 l757,0 l0,378 l-757,0 z" fill="#fe00ff" stroke="black" stroke-width="5"/>
<path d="M5287,5843 l387,0 l0,387 l-387,0 z" fill="#fe00ff" stroke="black" stroke-width="5"/>
<path d="M2478,3666 l405,0 l0,405 l-405,0 z" fill="#fe00ff" stroke="black" stroke-width="5"/>
<path d="M0,0 l2494,0 l0,261 l-2494,0 z" fill="#4600ff" stroke="black" stroke-width="5"/>
<path d="M7067,5176 l659,0 l0,658 l-659,0 z" fill="#fe00ff" stroke="black" stroke-width="5"/>
<path d="M7546,1009 l68,0 l0,1027 l-68,0 z" fill="#0000ff" stroke="black" stroke-width="5"/>
<path d="M652,3179 l864,0 l0,864 l-864,0 z" fill="#fe00ff" stroke="black" stroke-width="5"/>
<path d="M5260,1265 l1,0 l0,1906 l-1,0 z" fill="#0000ff" stroke="black" stroke-width="5"/>
<path d="M2547,606 l512,0 l0,512 l-512,0 z" fill="#fe00ff" stroke="black" stroke-width="5"/>
<path d="M9791,5830 l209,0 l0,4170 l-209,0 z" fill="#1600ff" stroke="black" stroke-width="5"/>
<path d="M2547,1118 l1328,0 l0,750 l-1328,0 z" fill="#c000ff" stroke="black" stroke-width="5"/>
<path d="M3875,261 l757,0 l0,2809 l-757,0 z" fill="#c100ff" stroke="black" stroke-width="5"/>
<path d="M8456,7356 l598,0 l0,890 l-598,0 z" fill="#fe00ff" stroke="black" stroke-width="5"/>
<path d="M0,5248 l1839,0 l0,1833 l-1839,0 z" fill="#fe00ff" stroke="black" stroke-width="5"/>
<path d="M3037,6758 l1704,0 l0,1459 l-1704,0 z" fill="#fe00ff" stroke="black" stroke-width="5"/>
<path d="M1839,5757 l553,0 l0,899 l-553,0 z" fill="#fe00ff" stroke="black" stroke-width="5"/>
<path d="M721,8728 l492,0 l0,1272 l-492,0 z" fill="#0d00ff" stroke="black" stroke-width="5"/>
<path d="M7614,1009 l2386,0 l0,1279 l-2386,0 z" fill="#ab00ff" stroke="black" stroke-width="5"/>
<path d="M0,7081 l721,0 l0,2919 l-721,0 z" fill="#fe00ff" stroke="black" stroke-width="5"/>
<path d="M0,2059 l652,0 l0,2790 l-652,0 z" fill="#d300ff" stroke="black" stroke-width="5"/>
<path d="M2202,9269 l60,0 l0,60 l-60,0 z" fill="green"/>
<path d="M2232,9299 l-187,-122.5" stroke="black" stroke-width="5"/>
<path d="M9221,2749 l60,0 l0,60 l-60,0 z" fill="green"/>
<path d="M9251,2779 l0,0.5" stroke="black" stroke-width="5"/>
<path d="M8621,8686 l60,0 l0,60 l-60,0 z" fill="green"/>
<path d="M8651,8716 l0,0" stroke="black" stroke-width="5"/>
<path d="M7131,9292 l60,0 l0,60 l-60,0 z" fill="green"/>
<path d="M7161,9322 l0,0" stroke="black" stroke-width="5"/>
<path d="M9253,4507 l60,0 l0,60 l-60,0 z" fill="green"/>
<path d="M9283,4537 l0.5,0.5" stroke="black" stroke-width="5"/>
<path d="M2661,2333 l60,0 l0,60 l-60,0 z" fill="green"/>
<path d="M2691,2363 l0.5,0" stroke="black" stroke-width="5"/>
<path d="M9145,7693 l60,0 l0,60 l-60,0 z" fill="green"/>
<path d="M9175,7723 l0.5,0" stroke="black" stroke-width="5"/>
<path d="M4737,8779 l60,0 l0,60 l-60,0 z" fill="green"/>
<path d="M4767,8809 l-84,-295.5" stroke="black" stroke-width="5"/>
<path d="M7806,7546 l60,0 l0,60 l-60,0 z" fill="green"/>
<path d="M7836,7576 l0,10.5" stroke="black" stroke-width="5"/>
<path d="M9330,7803 l60,0 l0,60 l-60,0 z" fill="green"/>
<path d="M9360,7833 l184,0.5" stroke="black" stroke-width="5"/>
<path d="M5390,3141 l60,0 l0,60 l-60,0 z" fill="green"/>
<path d="M5420,3171 l786.5,919" stroke="black" stroke-width="5"/>
<path d="M4837,1572 l60,0 l0,60 l-60,0 z" fill="green"/>
<path d="M4867,1602 l79,81.5" stroke="black" stroke-width="5"/>
<path d="M2403,5794 l60,0 l0,60 l-60,0 z" fill="green"/>
<path d="M2433,5824 l150,0" stroke="black" stroke-width="5"/>
<path d="M3952,3907 l60,0 l0,60 l-60,0 z" fill="green"/>
<path d="M3982,3937 l-390,0" stroke="black" stroke-width="5"/>
<path d="M9608,848 l60,0 l0,60 l-60,0 z" fill="green"/>
<path d="M9638,878 l181,-373.5" stroke="black" stroke-width="5"/>
<path d="M6285,5273 l60,0 l0,60 l-60,0 z" fill="green"/>
<path d="M6315,5303 l376,53.5" stroke="black" stroke-width="5"/>
<path d="M5420,6945 l60,0 l0,60 l-60,0 z" fill="green"/>
<path d="M5450,6975 l0.5,0" stroke="black" stroke-width="5"/>
<path d="M5396,2406 l60,0 l0,60 l-60,0 z" fill="green"/>
<path d="M5426,2436 l326,-41" stroke="black" stroke-width="5"/>
<path d="M1505,9503 l60,0 l0,60 l-60,0 z" fill="green"/>
<path d="M1535,9533 l0,0" stroke="black" stroke-width="5"/>
<path d="M6519,6078 l60,0 l0,60 l-60,0 z" fill="green"/>
<path d="M6549,6108 l85,0" stroke="black" stroke-width="5"/>
<path d="M9072,7173 l60,0 l0,60 l-60,0 z" fill="green"/>
<path d="M9102,7203 l-49.5,-70.5" stroke="black" stroke-width="5"/>
<path d="M242,5018 l60,0 l0,60 l-60,0 z" fill="green"/>
<path d="M272,5048 l0,0.5" stroke="black" stroke-width="5"/>
<path d="M3712,5049 l60,0 l0,60 l-60,0 z" fill="green"/>
<path d="M3742,5079 l0,0.5" stroke="black" stroke-width="5"/>
<path d="M1374,1253 l60,0 l0,60 l-60,0 z" fill="green"/>
<path d="M1404,1283 l-247.5,0" stroke="black" stroke-width="5"/>
<path d="M1188,8091 l60,0 l0,60 l-60,0 z" fill="green"/>
<path d="M1218,8121 l55.5,0" stroke="black" stroke-width="5"/>
<path d="M1732,1345 l60,0 l0,60 l-60,0 z" fill="green"/>
<path d="M1762,1375 l214,-310.5" stroke="black" stroke-width="5"/>
<path d="M9436,5132 l60,0 l0,60 l-60,0 z" fill="green"/>
<path d="M9466,5162 l-297,124" stroke="black" stroke-width="5"/>
<path d="M4922,6955 l60,0 l0,60 l-60,0 z" fill="green"/>
<path d="M4952,6985 l130,0" stroke="black" stroke-width="5"/>
<path d="M8109,7223 l60,0 l0,60 l-60,0 z" fill="green"/>
<path d="M8139,7253 l0,0.5" stroke="black" stroke-width="5"/>
<path d="M5135,9266 l60,0 l0,60 l-60,0 z" fill="green"/>
<path d="M5165,9296 l-405.5,109" stroke="black" stroke-width="5"/>
<path d="M9048,926 l60,0 l0,60 l-60,0 z" fill="green"/>
<path d="M9078,956 l-1293,-451.5" stroke="black" stroke-width="5"/>
<path d="M5842,5622 l60,0 l0,60 l-60,0 z" fill="green"/>
<path d="M5872,5652 l122.5,1057.5" stroke="black" stroke-width="5"/>
<path d="M4290,230 l60,0 l0,60 l-60,0 z" fill="green"/>
<path d="M4320,260 l-107,-129.5" stroke="black" stroke-width="5"/>
<path d="M5530,8961 l60,0 l0,60 l-60,0 z" fill="green"/>
<path d="M5560,8991 l94,0" stroke="black" stroke-width="5"/>
<path d="M5466,905 l60,0 l0,60 l-60,0 z" fill="green"/>
<path d="M5496,935 l113.5,158.5" stroke="black" stroke-width="5"/>
<path d="M7012,7572 l60,0 l0,60 l-60,0 z" fill="green"/>
<path d="M7042,7602 l0,0" stroke="black" stroke-width="5"/>
<path d="M2381,8067 l60,0 l0,60 l-60,0 z" fill="green"/>
<path d="M2411,8097 l0.5,0.5" stroke="black" stroke-width="5"/>
<path d="M6955,1426 l60,0 l0,60 l-60,0 z" fill="green"/>
<path d="M6985,1456 l-90.5,66.5" stroke="black" stroke-width="5"/>
<path d="M1683,2880 l60,0 l0,60 l-60,0 z" fill="green"/>
<path d="M1713,2910 l-79.5,-186.5" stroke="black" stroke-width="5"/>
<path d="M4908,886 l60,0 l0,60 l-60,0 z" fill="green"/>
<path d="M4938,916 l21.5,0.5" stroke="black" stroke-width="5"/>
<path d="M4737,370 l60,0 l0,60 l-60,0 z" fill="green"/>
<path d="M4767,400 l515,14.5" stroke="black" stroke-width="5"/>
<path d="M6524,8844 l60,0 l0,60 l-60,0 z" fill="green"/>
<path d="M6554,8874 l0.5,0.5" stroke="black" stroke-width="5"/>
<path d="M3844,2089 l60,0 l0,60 l-60,0 z" fill="green"/>
<path d="M3874,2119 l-261.5,137" stroke="black" stroke-width="5"/>
<path d="M4203,9160 l60,0 l0,60 l-60,0 z" fill="green"/>
<path d="M4233,9190 l-940,215" stroke="black" stroke-width="5"/>
<path d="M3907,8187 l60,0 l0,60 l-60,0 z" fill="green"/>
<path d="M3937,8217 l0.5,131" stroke="black" stroke-width="5"/>
<path d="M4399,3765 l60,0 l0,60 l-60,0 z" fill="green"/>
<path d="M4429,3795 l139.5,0" stroke="black" stroke-width="5"/>
<path d="M7214,2375 l60,0 l0,60 l-60,0 z" fill="green"/>
<path d="M7244,2405 l0.5,0.5" stroke="black" stroke-width="5"/>
<path d="M5026,2495 l60,0 l0,60 l-60,0 z" fill="green"/>
<path d="M5056,2525 l-110,0.5" stroke="black" stroke-width="5"/>
<path d="M499,2028 l60,0 l0,60 l-60,0 z" fill="green"/>
<path d="M529,2058 l0.5,-188" stroke="black" stroke-width="5"/>
<path d="M5450,6006 l60,0 l0,60 l-60,0 z" fill="green"/>
<path d="M5480,6036 l0.5,0.5" stroke="black" stroke-width="5"/>
<path d="M2650,3838 l60,0 l0,60 l-60,0 z" fill="green"/>
<path d="M2680,3868 l0.5,0.5" stroke="black" stroke-width="5"/>
<path d="M2463,121 l60,0 l0,60 l-60,0 z" fill="green"/>
<path d="M2493,151 l-1246,-20.5" stroke="black" stroke-width="5"/>
<path d="M7366,5475 l60,0 l0,60 l-60,0 z" fill="green"/>
<path d="M7396,5505 l0.5,0" stroke="black" stroke-width="5"/>
<path d="M7516,1083 l60,0 l0,60 l-60,0 z" fill="green"/>
<path d="M7546,1113 l34,409.5" stroke="black" stroke-width="5"/>
<path d="M1054,3581 l60,0 l0,60 l-60,0 z" fill="green"/>
<path d="M1084,3611 l0,0" stroke="black" stroke-width="5"/>
<path d="M5230,2366 l60,0 l0,60 l-60,0 z" fill="green"/>
<path d="M5260,2396 l0.5,-178" stroke="black" stroke-width="5"/>
<path d="M2773,832 l60,0 l0,60 l-60,0 z" fill="green"/>
<path d="M2803,862 l0,0" stroke="black" stroke-width="5"/>
<path d="M9761,8168 l60,0 l0,60 l-60,0 z" fill="green"/>
<path d="M9791,8198 l104.5,-283" stroke="black" stroke-width="5"/>
<path d="M3245,1608 l60,0 l0,60 l-60,0 z" fill="green"/>
<path d="M3275,1638 l-64,-145" stroke="black" stroke-width="5"/>
<path d="M4402,2560 l60,0 l0,60 l-60,0 z" fill="green"/>
<path d="M4432,2590 l-178.5,-924.5" stroke="black" stroke-width="5"/>
<path d="M8871,7771 l60,0 l0,60 l-60,0 z" fill="green"/>
<path d="M8901,7801 l-146,0" stroke="black" stroke-width="5"/>
<path d="M619,5862 l60,0 l0,60 l-60,0 z" fill="green"/>
<path d="M649,5892 l270.5,272.5" stroke="black" stroke-width="5"/>
<path d="M3859,7580 l60,0 l0,60 l-60,0 z" fill="green"/>
<path d="M3889,7610 l0,-122.5" stroke="black" stroke-width="5"/>
<path d="M1912,6176 l60,0 l0,60 l-60,0 z" fill="green"/>
<path d="M1942,6206 l173.5,0.5" stroke="black" stroke-width="5"/>
<path d="M691,9005 l60,0 l0,60 l-60,0 z" fill="green"/>
<path d="M721,9035 l246,329" stroke="black" stroke-width="5"/>
<path d="M9037,979 l60,0 l0,60 l-60,0 z" fill="green"/>
<path d="M9067,1009 l-260,639.5" stroke="black" stroke-width="5"/>
<path d="M95,9100 l60,0 l0,60 l-60,0 z" fill="green"/>
<path d="M125,9130 l235.5,-589.5" stroke="black" stroke-width="5"/>
<path d="M36,4140 l60,0 l0,60 l-60,0 z" fill="green"/>
<path d="M66,4170 l260,-716" stroke="black" stroke-width="5"/>
<text font-size="171.49858514250883" text-anchor="middle" x="2045" y="9236.524504799878">
0
</text>
<text font-size="171.49858514250883" text-anchor="middle" x="9251" y="2839.5245047998783">
1
</text>
<text font-size="171.49858514250883" text-anchor="middle" x="8651" y="8776.024504799878">
2
</text>
<text font-size="171.49858514250883" text-anchor="middle" x="7161" y="9382.024504799878">
3
</text>
<text font-size="171.49858514250883" text-anchor="middle" x="9283.5" y="4597.524504799878">
4
</text>
<text font-size="171.49858514250883" text-anchor="middle" x="2691.5" y="2423.0245047998783">
5
</text>
<text font-size="171.49858514250883" text-anchor="middle" x="9175.5" y="7783.024504799878">
6
</text>
<text font-size="171.49858514250883" text-anchor="middle" x="4683" y="8573.524504799878">
7
</text>
<text font-size="171.49858514250883" text-anchor="middle" x="7836" y="7646.524504799878">
8
</text>
<text font-size="171.49858514250883" text-anchor="middle" x="9544" y="7893.524504799878">
9
</text>
<text font-size="171.49858514250883" text-anchor="middle" x="6206.5" y="4150.024504799878">
10
</text>
<text font-size="171.49858514250883" text-anchor="middle" x="4946" y="1743.524504799878">
11
</text>
<text font-size="171.49858514250883" text-anchor="middle" x="2583" y="5884.024504799878">
12
</text>
<text font-size="171.49858514250883" text-anchor="middle" x="3592" y="3997.0245047998783">
13
</text>
<text font-size="171.49858514250883" text-anchor="middle" x="9819" y="564.5245047998781">
14
</text>
<text font-size="171.49858514250883" text-anchor="middle" x="6691" y="5416.524504799878">
15
</text>
<text font-size="171.49858514250883" text-anchor="middle" x="5450.5" y="7035.024504799878">
16
</text>
<text font-size="171.49858514250883" text-anchor="middle" x="5752" y="2455.0245047998783">
17
</text>
<text font-size="171.49858514250883" text-anchor="middle" x="1535" y="9593.024504799878">
18
</text>
<text font-size="171.49858514250883" text-anchor="middle" x="6634" y="6168.024504799878">
19
</text>
<text font-size="171.49858514250883" text-anchor="middle" x="9052.5" y="7192.524504799878">
20
</text>
<text font-size="171.49858514250883" text-anchor="middle" x="272" y="5108.524504799878">
21
</text>
<text font-size="171.49858514250883" text-anchor="middle" x="3742" y="5139.524504799878">
22
</text>
<text font-size="171.49858514250883" text-anchor="middle" x="1156.5" y="1343.024504799878">
23
</text>
<text font-size="171.49858514250883" text-anchor="middle" x="1273.5" y="8181.024504799878">
24
</text>
<text font-size="171.49858514250883" text-anchor="middle" x="1976" y="1124.524504799878">
25
</text>
<text font-size="171.49858514250883" text-anchor="middle" x="9169" y="5346.024504799878">
26
</text>
<text font-size="171.49858514250883" text-anchor="middle" x="5082" y="7045.024504799878">
27
</text>
<text font-size="171.49858514250883" text-anchor="middle" x="8139" y="7313.524504799878">
28
</text>
<text font-size="171.49858514250883" text-anchor="middle" x="4759.5" y="9465.024504799878">
29
</text>
<text font-size="171.49858514250883" text-anchor="middle" x="7785" y="564.5245047998781">
30
</text>
<text font-size="171.49858514250883" text-anchor="middle" x="5994.5" y="6769.524504799878">
31
</text>
<text font-size="171.49858514250883" text-anchor="middle" x="4213" y="190.5245047998781">
32
</text>
<text font-size="171.49858514250883" text-anchor="middle" x="5654" y="9051.024504799878">
33
</text>
<text font-size="171.49858514250883" text-anchor="middle" x="5609.5" y="1153.524504799878">
34
</text>
<text font-size="171.49858514250883" text-anchor="middle" x="7042" y="7662.024504799878">
35
</text>
<text font-size="171.49858514250883" text-anchor="middle" x="2411.5" y="8157.524504799878">
36
</text>
<text font-size="171.49858514250883" text-anchor="middle" x="6894.5" y="1582.524504799878">
37
</text>
<text font-size="171.49858514250883" text-anchor="middle" x="1633.5" y="2783.5245047998783">
38
</text>
<text font-size="171.49858514250883" text-anchor="middle" x="4959.5" y="976.5245047998781">
39
</text>
<text font-size="171.49858514250883" text-anchor="middle" x="5282" y="474.52450479987806">
40
</text>
<text font-size="171.49858514250883" text-anchor="middle" x="6554.5" y="8934.524504799878">
41
</text>
<text font-size="171.49858514250883" text-anchor="middle" x="3612.5" y="2316.0245047998783">
42
</text>
<text font-size="171.49858514250883" text-anchor="middle" x="3293" y="9465.024504799878">
43
</text>
<text font-size="171.49858514250883" text-anchor="middle" x="3937.5" y="8408.024504799878">
44
</text>
<text font-size="171.49858514250883" text-anchor="middle" x="4568.5" y="3855.0245047998783">
45
</text>
<text font-size="171.49858514250883" text-anchor="middle" x="7244.5" y="2465.5245047998783">
46
</text>
<text font-size="171.49858514250883" text-anchor="middle" x="4946" y="2585.5245047998783">
47
</text>
<text font-size="171.49858514250883" text-anchor="middle" x="529.5" y="1930.024504799878">
48
</text>
<text font-size="171.49858514250883" text-anchor="middle" x="5480.5" y="6096.524504799878">
49
</text>
<text font-size="171.49858514250883" text-anchor="middle" x="2680.5" y="3928.5245047998783">
50
</text>
<text font-size="171.49858514250883" text-anchor="middle" x="1247" y="190.5245047998781">
51
</text>
<text font-size="171.49858514250883" text-anchor="middle" x="7396.5" y="5565.024504799878">
52
</text>
<text font-size="171.49858514250883" text-anchor="middle" x="7580" y="1582.524504799878">
53
</text>
<text font-size="171.49858514250883" text-anchor="middle" x="1084" y="3671.0245047998783">
54
</text>
<text font-size="171.49858514250883" text-anchor="middle" x="5260.5" y="2278.0245047998783">
55
</text>
<text font-size="171.49858514250883" text-anchor="middle" x="2803" y="922.0245047998781">
56
</text>
<text font-size="171.49858514250883" text-anchor="middle" x="9895.5" y="7975.024504799878">
57
</text>
<text font-size="171.49858514250883" text-anchor="middle" x="3211" y="1553.024504799878">
58
</text>
<text font-size="171.49858514250883" text-anchor="middle" x="4253.5" y="1725.524504799878">
59
</text>
<text font-size="171.49858514250883" text-anchor="middle" x="8755" y="7861.024504799878">
60
</text>
<text font-size="171.49858514250883" text-anchor="middle" x="919.5" y="6224.524504799878">
61
</text>
<text font-size="171.49858514250883" text-anchor="middle" x="3889" y="7547.524504799878">
62
</text>
<text font-size="171.49858514250883" text-anchor="middle" x="2115.5" y="6266.524504799878">
63
</text>
<text font-size="171.49858514250883" text-anchor="middle" x="967" y="9424.024504799878">
64
</text>
<text font-size="171.49858514250883" text-anchor="middle" x="8807" y="1708.524504799878">
65
</text>
<text font-size="171.49858514250883" text-anchor="middle" x="360.5" y="8600.524504799878">
66
</text>
<text font-size="171.49858514250883" text-anchor="middle" x="326" y="3514.0245047998783">
67
</text>
</svg>