<svg viewBox="-100 -100 10200 10200" xmlns="http://www.w3.org/2000/svg">
<path d="M0,0 l10000,0 l0,10000 l-10000,0 z" fill="white"/>
<path d="M1685,5523 l547,0 l0,863 l-547,0 z" fill="#fe00ff" stroke="black" stroke-width="5"/>
<path d="M8962,5942 l330,0 l0,1908 l-330,0 z" fill="#8400ff" stroke="black" stroke-width="5"/>
<path d="M2800,975 l809,0 l0,809 l-809,0 z" fill="#fe00ff" stroke="black" stroke-width="5"/>
<path d="M8408,6557 l554,0 l0,553 l-554,0 z" fill="#fe00ff" stroke="black" stroke-width="5"/>
<path d="M7756,9379 l694,0 l0,621 l-694,0 z" fill="#fe00ff" stroke="black" stroke-width="5"/>
<path d="M5132,1424 l552,0 l0,1357 l-552,0 z" fill="#af00ff" stroke="black" stroke-width="5"/>
<path d="M3940,8990 l73,0 l0,73 l-73,0 z" fill="#fe00ff" stroke="black" stroke-width="5"/>
<path d="M8344,4043 l1362,0 l0,847 l-1362,0 z" fill="#f300ff" stroke="black" stroke-width="5"/>
<path d="M5805,8339 l190,0 l0,1661 l-190,0 z" fill="#5400ff" stroke="black" stroke-width="5"/>
<path d="M8424,2013 l417,0 l0,417 l-417,0 z" fill="#fe00ff" stroke="black" stroke-width="5"/>
<path d="M2429,5523 l264,0 l0,264 l-264,0 z" fill="#fe00ff" stroke="black" stroke-width="5"/>
<path d="M2387,6719 l763,0 l0,763 l-763,0 z" fill="#fe00ff" stroke="black" stroke-width="5"/>
<path d="M9472,9785 l347,0 l0,215 l-347,0 z" fill="#fe00ff" stroke="black" stroke-width="5"/>
<path d="M5653,4036 l979,0 l0,490 l-979,0 z" fill="#fe00ff" stroke="black" stroke-width="5"/>
<path d="M9706,4020 l294,0 l0,468 l-294,0 z" fill="#fe00ff" stroke="black" stroke-width="5"/>
<path d="M6975,5262 l1050,0 l0,833 l-1050,0 z" fill="#fe00ff" stroke="black" stroke-width="5"/>
<path d="M2676,4772 l487,0 l0,487 l-487,0 z" fill="#fe00ff" stroke="black" stroke-width="5"/>
<path d="M5796,7094 l461,0 l0,327 l-461,0 z" fill="#fe00ff" stroke="black" stroke-width="5"/>
<path d="M7954,1010 l470,0 l0,1498 l-470,0 z" fill="#ed00ff" stroke="black" stroke-width="5"/>
<path d="M6488,0 l1931,0 l0,364 l-1931,0 z" fill="#fe00ff" stroke="black" stroke-width="5"/>
<path d="M3427,8244 l478,0 l0,477 l-478,0 z" fill="#fe00ff" stroke="black" stroke-width="5"/>
<path d="M345,2152 l606,0 l0,606 l-606,0 z" fill="#fe00ff" stroke="black" stroke-width="5"/>
<path d="M6068,4526 l670,0 l0,1402 l-670,0 z" fill="#b800ff" stroke="black" stroke-width="5"/>
<path d="M8958,1558 l300,0 l0,299 l-300,0 z" fill="#fe00ff" stroke="black" stroke-width="5"/>
<path d="M2308,8178 l418,0 l0,666 l-418,0 z" fill="#0500ff" stroke="black" stroke-width="5"/>
<path d="M3395,4848 l170,0 l0,169 l-170,0 z" fill="#fe00ff" stroke="black" stroke-width="5"/>
<path d="M7176,6878 l522,0 l0,694 l-522,0 z" fill="#fe00ff" stroke="black" stroke-width="5"/>
<path d="M3876,3165 l249,0 l0,248 l-249,0 z" fill="#fe00ff" stroke="black" stroke-width="5"/>
<path d="M761,3862 l439,0 l0,505 l-439,0 z" fill="#fe00ff" stroke="black" stroke-width="5"/>
<path d="M3409,2781 l2302,0 l0,384 l-2302,0 z" fill="#fd00ff" stroke="black" stroke-width="5"/>
<path d="M9825,4725 l175,0 l0,241 l-175,0 z" fill="#fe00ff" stroke="black" stroke-width="5"/>
<path d="M0,5722 l322,0 l0,1406 l-322,0 z" fill="#a500ff" stroke="black" stroke-width="5"/>
<path d="M7504,8108 l548,0 l0,394 l-548,0 z" fill="#6d00ff" stroke="black" stroke-width="5"/>
<path d="M5455,8339 l350,0 l0,542 l-350,0 z" fill="#0400ff" stroke="black" stroke-width="5"/>
<path d="M4584,3322 l525,0 l0,525 l-525,0 z" fill="#fe00ff" stroke="black" stroke-width="5"/>
<path d="M4820,7853 l76,0 l0,76 l-76,0 z" fill="#fe00ff" stroke="black" stroke-width="5"/>
<path d="M8432,7802 l377,0 l0,377 l-377,0 z" fill="#fe00ff" stroke="black" stroke-width="5"/>
<path d="M7371,364 l646,0 l0,646 l-646,0 z" fill="#fe00ff" stroke="black" stroke-width="5"/>
<path d="M4802,332 l762,0 l0,1092 l-762,0 z" fill="#fe00ff" stroke="black" stroke-width="5"/>
<path d="M2232,6650 l918,0 l0,69 l-918,0 z" fill="#0000ff" stroke="black" stroke-width="5"/>
<path d="M3486,5487 l192,0 l0,191 l-192,0 z" fill="#fe00ff" stroke="black" stroke-width="5"/>
<path d="M2232,7482 l494,0 l0,696 l-494,0 z" fill="#2b00ff" stroke="black" stroke-width="5"/>
<path d="M3675,4343 l1284,0 l0,641 l-1284,0 z" fill="#fe00ff" stroke="black" stroke-width="5"/>
<path d="M8863,0 l625,0 l0,525 l-625,0 z" fill="#fe00ff" stroke="black" stroke-width="5"/>
<path d="M5711,3028 l469,0 l0,469 l-469,0 z" fill="#fe00ff" stroke="black" stroke-width="5"/>
<path d="M2726,7482 l1,0 l0,1362 l-1,0 z" fill="#0000ff" stroke="black" stroke-width="5"/>
<path d="M1583,4213 l771,0 l0,554 l-771,0 z" fill="#fe00ff" stroke="black" stroke-width="5"/>
<path d="M345,1999 l4030,0 l0,153 l-4030,0 z" fill="#fe00ff" stroke="black" stroke-width="5"/>
<path d="M5455,8881 l350,0 l0,350 l-350,0 z" fill="#fe00ff" stroke="black" stroke-width="5"/>
<path d="M7263,4213 l674,0 l0,596 l-674,0 z" fill="#fe00ff" stroke="black" stroke-width="5"/>
<path d="M7195,3671 l542,0 l0,542 l-542,0 z" fill="#fe00ff" stroke="black" stroke-width="5"/>
<path d="M1200,3769 l383,0 l0,764 l-383,0 z" fill="#fe00ff" stroke="black" stroke-width="5"/>
<path d="M1027,1412 l172,0 l0,171 l-172,0 z" fill="#fe00ff" stroke="black" stroke-width="5"/>
<path d="M7458,1158 l341,0 l0,341 l-341,0 z" fill="#fe00ff" stroke="black" stroke-width="5"/>
<path d="M0,4367 l739,0 l0,625 l-739,0 z" fill="#1000ff" stroke="black" stroke-width="5"/>
<path d="M689,1707 l354,0 l0,292 l-354,0 z" fill="#fe00ff" stroke="black" stroke-width="5"/>
<path d="M952,6009 l287,0 l0,287 l-287,0 z" fill="#fe00ff" stroke="black" stroke-width="5"/>
<path d="M8344,3493 l551,0 l0,550 l-551,0 z" fill="#fe00ff" stroke="black" stroke-width="5"/>
<path d="M5564,0 l924,0 l0,824 l-924,0 z" fill="#e800ff" stroke="black" stroke-width="5"/>
<path d="M6805,6095 l956,0 l0,783 l-956,0 z" fill="#fe00ff" stroke="black" stroke-width="5"/>
<path d="M5737,2164 l624,0 l0,857 l-624,0 z" fill="#fe00ff" stroke="black" stroke-width="5"/>
<path d="M8628,9215 l274,0 l0,274 l-274,0 z" fill="#fe00ff" stroke="black" stroke-width="5"/>
<path d="M3194,9814 l113,0 l0,113 l-113,0 z" fill="#fe00ff" stroke="black" stroke-width="5"/>
<path d="M271,144 l621,0 l0,621 l-621,0 z" fill="#fe00ff" stroke="black" stroke-width="5"/>
<path d="M6938,6878 l238,0 l0,717 l-238,0 z" fill="#1400ff" stroke="black" stroke-width="5"/>
<path d="M6070,8087 l349,0 l0,348 l-349,0 z" fill="#fe00ff" stroke="black" stroke-width="5"/>
<path d="M3150,6650 l1095,0 l0,832 l-1095,0 z" fill="#7c00ff" stroke="black" stroke-width="5"/>
<path d="M4858,2541 l274,0 l0,240 l-274,0 z" fill="#0000ff" stroke="black" stroke-width="5"/>
<path d="M0,551 l237,0 l0,1378 l-237,0 z" fill="#5d00ff" stroke="black" stroke-width="5"/>
<path d="M227,7128 l809,0 l0,808 l-809,0 z" fill="#fe00ff" stroke="black" stroke-width="5"/>
<path d="M739,4367 l231,0 l0,1642 l-231,0 z" fill="#ee00ff" stroke="black" stroke-width="5"/>
<path d="M4375,1424 l533,0 l0,937 l-533,0 z" fill="#2900ff" stroke="black" stroke-width="5"/>
<path d="M6738,3757 l237,0 l0,2338 l-237,0 z" fill="#6600ff" stroke="black" stroke-width="5"/>
<path d="M2232,5787 l859,0 l0,368 l-859,0 z" fill="#fe00ff" stroke="black" stroke-width="5"/>
<path d="M7567,8502 l561,0 l0,561 l-561,0 z" fill="#fe00ff" stroke="black" stroke-width="5"/>
<path d="M1583,3844 l2161,0 l0,369 l-2161,0 z" fill="#1f00ff" stroke="black" stroke-width="5"/>
<path d="M9292,5987 l708,0 l0,987 l-708,0 z" fill="#fe00ff" stroke="black" stroke-width="5"/>
<path d="M8025,5181 l306,0 l0,610 l-306,0 z" fill="#fe00ff" stroke="black" stroke-width="5"/>
<path d="M4004,2361 l519,0 l0,420 l-519,0 z" fill="#fe00ff" stroke="black" stroke-width="5"/>
<path d="M1685,6386 l547,0 l0,1695 l-547,0 z" fill="#fe00ff" stroke="black" stroke-width="5"/>
<path d="M7937,3623 l407,0 l0,1558 l-407,0 z" fill="#dd00ff" stroke="black" stroke-width="5"/>
<path d="M8490,2430 l703,0 l0,577 l-703,0 z" fill="#fe00ff" stroke="black" stroke-width="5"/>
<path d="M538,8956 l298,0 l0,298 l-298,0 z" fill="#fe00ff" stroke="black" stroke-width="5"/>
<path d="M1953,5049 l723,0 l0,474 l-723,0 z" fill="#fe00ff" stroke="black" stroke-width="5"/>
<path d="M7668,2917 l542,0 l0,464 l-542,0 z" fill="#fe00ff" stroke="black" stroke-width="5"/>
<path d="M4245,7421 l2693,0 l0,273 l-2693,0 z" fill="#fe00ff" stroke="black" stroke-width="5"/>
<path d="M5342,7694 l646,0 l0,645 l-646,0 z" fill="#fe00ff" stroke="black" stroke-width="5"/>
<path d="M9488,0 l512,0 l0,1185 l-512,0 z" fill="#f800ff" stroke="black" stroke-width="5"/>
<path d="M2071,3587 l257,0 l0,257 l-257,0 z" fill="#fe00ff" stroke="black" stroke-width="5"/>
<path d="M9488,1185 l512,0 l0,2030 l-512,0 z" fill="#fe00ff" stroke="black" stroke-width="5"/>
<path d="M1246,5049 l439,0 l0,1650 l-439,0 z" fill="#fe00ff" stroke="black" stroke-width="5"/>
<path d="M5564,824 l482,0 l0,542 l-482,0 z" fill="#fe00ff" stroke="black" stroke-width="5"/>
<path d="M9292,6974 l708,0 l0,426 l-708,0 z" fill="#2100ff" stroke="black" stroke-width="5"/>
<path d="M7504,7776 l928,0 l0,332 l-928,0 z" fill="#fe00ff" stroke="black" stroke-width="5"/>
<path d="M322,5358 l417,0 l0,583 l-417,0 z" fill="#fe00ff" stroke="black" stroke-width="5"/>
<path d="M7948,7471 l312,0 l0,305 l-312,0 z" fill="#fe00ff" stroke="black" stroke-width="5"/>
<path d="M4013,8244 l1049,0 l0,1061 l-1049,0 z" fill="#a600ff" stroke="black" stroke-width="5"/>
<path d="M8331,5454 l179,0 l0,202 l-179,0 z" fill="#fe00ff" stroke="black" stroke-width="5"/>
<path d="M6027,9676 l283,0 l0,282 l-283,0 z" fill="#fe00ff" stroke="black" stroke-width="5"/>
<path d="M5699,5816 l369,0 l0,369 l-369,0 z" fill="#fe00ff" stroke="black" stroke-width="5"/>
<path d="M970,5380 l276,0 l0,476 l-276,0 z" fill="#fe00ff" stroke="black" stroke-width="5"/>
<path d="M8991,7850 l533,0 l0,532 l-533,0 z" fill="#fe00ff" stroke="black" stroke-width="5"/>
<path d="M6727,8502 l840,0 l0,1383 l-840,0 z" fill="#fe00ff" stroke="black" stroke-width="5"/>
<path d="M8432,8382 l1238,0 l0,833 l-1238,0 z" fill="#fe00ff" stroke="black" stroke-width="5"/>
<path d="M4192,9305 l559,0 l0,559 l-559,0 z" fill="#fe00ff" stroke="black" stroke-width="5"/>
<path d="M5062,8645 l393,0 l0,583 l-393,0 z" fill="#fe00ff" stroke="black" stroke-width="5"/>
<path d="M8052,8108 l380,0 l0,394 l-380,0 z" fill="#3300ff" stroke="black" stroke-width="5"/>
<path d="M2308,8844 l950,0 l0,797 l-950,0 z" fill="#fe00ff" stroke="black" stroke-width="5"/>
<path d="M3211,5017 l854,0 l0,470 l-854,0 z" fill="#fe00ff" stroke="black" stroke-width="5"/>
<path d="M3510,3558 l71,0 l0,71 l-71,0 z" fill="#fe00ff" stroke="black" stroke-width="5"/>
<path d="M4523,2441 l335,0 l0,335 l-335,0 z" fill="#fe00ff" stroke="black" stroke-width="5"/>
<path d="M2232,6155 l1285,0 l0,495 l-1285,0 z" fill="#fe00ff" stroke="black" stroke-width="5"/>
<path d="M7868,2174 l86,0 l0,86 l-86,0 z" fill="#fe00ff" stroke="black" stroke-width="5"/>
<path d="M5486,3497 l2858,0 l0,126 l-2858,0 z" fill="#a900ff" stroke="black" stroke-width="5"/>
<path d="M5995,9274 l303,0 l0,402 l-303,0 z" fill="#0d00ff" stroke="black" stroke-width="5"/>
<path d="M6223,3021 l42,0 l0,40 l-42,0 z" fill="#ff00ff" stroke="black" stroke-width="5"/>
<path d="M5767,3623 l706,0 l0,413 l-706,0 z" fill="#fe00ff" stroke="black" stroke-width="5"/>
<path d="M6298,9274 l356,0 l0,356 l-356,0 z" fill="#fe00ff" stroke="black" stroke-width="5"/>
<path d="M6361,2010 l1507,0 l0,488 l-1507,0 z" fill="#fe00ff" stroke="black" stroke-width="5"/>
<path d="M0,0 l271,0 l0,551 l-271,0 z" fill="#0600ff" stroke="black" stroke-width="5"/>
<path d="M1383,4767 l253,0 l0,252 l-253,0 z" fill="#fe00ff" stroke="black" stroke-width="5"/>
<path d="M8419,0 l444,0 l0,548 l-444,0 z" fill="#3600ff" stroke="black" stroke-width="5"/>
<path d="M5355,3400 l131,0 l0,130 l-131,0 z" fill="#fe00ff" stroke="black" stroke-width="5"/>
<path d="M2727,7482 l1518,0 l0,762 l-1518,0 z" fill="#f200ff" stroke="black" stroke-width="5"/>
<path d="M1878,0 l922,0 l0,1999 l-922,0 z" fill="#e300ff" stroke="black" stroke-width="5"/>
<path d="M5538,4994 l373,0 l0,373 l-373,0 z" fill="#fe00ff" stroke="black" stroke-width="5"/>
<path d="M2693,5259 l518,0 l0,528 l-518,0 z" fill="#c300ff" stroke="black" stroke-width="5"/>
<path d="M5684,1366 l968,0 l0,644 l-968,0 z" fill="#fe00ff" stroke="black" stroke-width="5"/>
<path d="M3609,712 l1193,0 l0,712 l-1193,0 z" fill="#3500ff" stroke="black" stroke-width="5"/>
<path d="M5995,8837 l732,0 l0,437 l-732,0 z" fill="#fe00ff" stroke="black" stroke-width="5"/>
<path d="M1635,8178 l673,0 l0,1758 l-673,0 z" fill="#fe00ff" stroke="black" stroke-width="5"/>
<path d="M1636,4767 l1040,0 l0,282 l-1040,0 z" fill="#5d00ff" stroke="black" stroke-width="5"/>
<path d="M1379,9029 l256,0 l0,256 l-256,0 z" fill="#fe00ff" stroke="black" stroke-width="5"/>
<path d="M4908,1424 l224,0 l0,1117 l-224,0 z" fill="#1300ff" stroke="black" stroke-width="5"/>
<path d="M8687,548 l801,0 l0,916 l-801,0 z" fill="#fe00ff" stroke="black" stroke-width="5"/>
<path d="M0,4992 l322,0 l0,730 l-322,0 z" fill="#7200ff" stroke="black" stroke-width="5"/>
<path d="M4214,5185 l737,0 l0,736 l-737,0 z" fill="#fe00ff" stroke="black" stroke-width="5"/>
<path d="M237,765 l962,0 l0,647 l-962,0 z" fill="#fe00ff" stroke="black" stroke-width="5"/>
<path d="M8510,4890 l739,0 l0,1052 l-739,0 z" fill="#fe00ff" stroke="black" stroke-width="5"/>
<path d="M6361,2498 l676,0 l0,675 l-676,0 z" fill="#fe00ff" stroke="black" stroke-width="5"/>
<path d="M6068,5928 l670,0 l0,908 l-670,0 z" fill="#fe00ff" stroke="black" stroke-width="5"/>
<path d="M6938,7595 l566,0 l0,568 l-566,0 z" fill="#fe00ff" stroke="black" stroke-width="5"/>
<path d="M0,3577 l761,0 l0,790 l-761,0 z" fill="#9a00ff" stroke="black" stroke-width="5"/>
<path d="M1199,1032 l679,0 l0,899 l-679,0 z" fill="#fe00ff" stroke="black" stroke-width="5"/>
<path d="M0,1929 l345,0 l0,1648 l-345,0 z" fill="#fe00ff" stroke="black" stroke-width="5"/>
<path d="M2812,2732 l597,0 l0,597 l-597,0 z" fill="#fe00ff" stroke="black" stroke-width="5"/>
<path d="M3744,3486 l840,0 l0,857 l-840,0 z" fill="#fe00ff" stroke="black" stroke-width="5"/>
<path d="M9292,7400 l708,0 l0,450 l-708,0 z" fill="#0d00ff" stroke="black" stroke-width="5"/>
<path d="M3521,215 l498,0 l0,497 l-498,0 z" fill="#fe00ff" stroke="black" stroke-width="5"/>
<path d="M7482,2508 l816,0 l0,409 l-816,0 z" fill="#fe00ff" stroke="black" stroke-width="5"/>
<path d="M6473,3623 l722,0 l0,134 l-722,0 z" fill="#0100ff" stroke="black" stroke-width="5"/>
<path d="M2137,5874 l60,0 l0,60 l-60,0 z" fill="green"/>
<path d="M2167,5904 l-208.5,50.5" stroke="black" stroke-width="5"/>
<path d="M9049,7132 l60,0 l0,60 l-60,0 z" fill="green"/>
<path d="M9079,7162 l48,-266" stroke="black" stroke-width="5"/>
<path d="M3174,1349 l60,0 l0,60 l-60,0 z" fill="green"/>
<path d="M3204,1379 l0.5,0.5" stroke="black" stroke-width="5"/>
<path d="M8655,6803 l60,0 l0,60 l-60,0 z" fill="green"/>
<path d="M8685,6833 l0,0.5" stroke="black" stroke-width="5"/>
<path d="M8073,9695 l60,0 l0,60 l-60,0 z" fill="green"/>
<path d="M8103,9725 l0,-35.5" stroke="black" stroke-width="5"/>
<path d="M5530,1394 l60,0 l0,60 l-60,0 z" fill="green"/>
<path d="M5560,1424 l-152,678.5" stroke="black" stroke-width="5"/>
<path d="M3946,8996 l60,0 l0,60 l-60,0 z" fill="green"/>
<path d="M3976,9026 l0.5,0.5" stroke="black" stroke-width="5"/>
<path d="M8361,4015 l60,0 l0,60 l-60,0 z" fill="green"/>
<path d="M8391,4045 l634,421.5" stroke="black" stroke-width="5"/>
<path d="M5861,9051 l60,0 l0,60 l-60,0 z" fill="green"/>
<path d="M5891,9081 l9,88.5" stroke="black" stroke-width="5"/>
<path d="M8602,2191 l60,0 l0,60 l-60,0 z" fill="green"/>
<path d="M8632,2221 l0.5,0.5" stroke="black" stroke-width="5"/>
<path d="M2531,5625 l60,0 l0,60 l-60,0 z" fill="green"/>
<path d="M2561,5655 l0,0" stroke="black" stroke-width="5"/>
<path d="M2738,7070 l60,0 l0,60 l-60,0 z" fill="green"/>
<path d="M2768,7100 l0.5,0.5" stroke="black" stroke-width="5"/>
<path d="M9615,9928 l60,0 l0,60 l-60,0 z" fill="green"/>
<path d="M9645,9958 l0.5,-65.5" stroke="black" stroke-width="5"/>
<path d="M6112,4006 l60,0 l0,60 l-60,0 z" fill="green"/>
<path d="M6142,4036 l0.5,245" stroke="black" stroke-width="5"/>
<path d="M9909,4224 l60,0 l0,60 l-60,0 z" fill="green"/>
<path d="M9939,4254 l-86,0" stroke="black" stroke-width="5"/>
<path d="M7532,5880 l60,0 l0,60 l-60,0 z" fill="green"/>
<path d="M7562,5910 l-62,-231.5" stroke="black" stroke-width="5"/>
<path d="M2889,4985 l60,0 l0,60 l-60,0 z" fill="green"/>
<path d="M2919,5015 l0.5,0.5" stroke="black" stroke-width="5"/>
<path d="M5996,7294 l60,0 l0,60 l-60,0 z" fill="green"/>
<path d="M6026,7324 l0.5,-66.5" stroke="black" stroke-width="5"/>
<path d="M8186,2012 l60,0 l0,60 l-60,0 z" fill="green"/>
<path d="M8216,2042 l-27,-283" stroke="black" stroke-width="5"/>
<path d="M7423,67 l60,0 l0,60 l-60,0 z" fill="green"/>
<path d="M7453,97 l0.5,85" stroke="black" stroke-width="5"/>
<path d="M3636,8452 l60,0 l0,60 l-60,0 z" fill="green"/>
<path d="M3666,8482 l0,0.5" stroke="black" stroke-width="5"/>
<path d="M618,2425 l60,0 l0,60 l-60,0 z" fill="green"/>
<path d="M648,2455 l0,0" stroke="black" stroke-width="5"/>
<path d="M6371,5897 l60,0 l0,60 l-60,0 z" fill="green"/>
<path d="M6401,5927 l2,-700" stroke="black" stroke-width="5"/>
<path d="M9078,1677 l60,0 l0,60 l-60,0 z" fill="green"/>
<path d="M9108,1707 l0,0.5" stroke="black" stroke-width="5"/>
<path d="M2442,8813 l60,0 l0,60 l-60,0 z" fill="green"/>
<path d="M2472,8843 l45,-332" stroke="black" stroke-width="5"/>
<path d="M3450,4902 l60,0 l0,60 l-60,0 z" fill="green"/>
<path d="M3480,4932 l0,0.5" stroke="black" stroke-width="5"/>
<path d="M7320,7195 l60,0 l0,60 l-60,0 z" fill="green"/>
<path d="M7350,7225 l87,0" stroke="black" stroke-width="5"/>
<path d="M3970,3259 l60,0 l0,60 l-60,0 z" fill="green"/>
<path d="M4000,3289 l0.5,0" stroke="black" stroke-width="5"/>
<path d="M983,4084 l60,0 l0,60 l-60,0 z" fill="green"/>
<path d="M1013,4114 l-32.5,0.5" stroke="black" stroke-width="5"/>
<path d="M4354,2751 l60,0 l0,60 l-60,0 z" fill="green"/>
<path d="M4384,2781 l176,192" stroke="black" stroke-width="5"/>
<path d="M9915,4815 l60,0 l0,60 l-60,0 z" fill="green"/>
<path d="M9945,4845 l-32.5,0.5" stroke="black" stroke-width="5"/>
<path d="M291,5692 l60,0 l0,60 l-60,0 z" fill="green"/>
<path d="M321,5722 l-160,703" stroke="black" stroke-width="5"/>
<path d="M7724,8133 l60,0 l0,60 l-60,0 z" fill="green"/>
<path d="M7754,8163 l24,142" stroke="black" stroke-width="5"/>
<path d="M5727,8743 l60,0 l0,60 l-60,0 z" fill="green"/>
<path d="M5757,8773 l-127,-163" stroke="black" stroke-width="5"/>
<path d="M4816,3554 l60,0 l0,60 l-60,0 z" fill="green"/>
<path d="M4846,3584 l0.5,0.5" stroke="black" stroke-width="5"/>
<path d="M4828,7861 l60,0 l0,60 l-60,0 z" fill="green"/>
<path d="M4858,7891 l0,0" stroke="black" stroke-width="5"/>
<path d="M8590,7960 l60,0 l0,60 l-60,0 z" fill="green"/>
<path d="M8620,7990 l0.5,0.5" stroke="black" stroke-width="5"/>
<path d="M7664,657 l60,0 l0,60 l-60,0 z" fill="green"/>
<path d="M7694,687 l0,0" stroke="black" stroke-width="5"/>
<path d="M5533,1064 l60,0 l0,60 l-60,0 z" fill="green"/>
<path d="M5563,1094 l-380,-216" stroke="black" stroke-width="5"/>
<path d="M2782,6620 l60,0 l0,60 l-60,0 z" fill="green"/>
<path d="M2812,6650 l-121,34.5" stroke="black" stroke-width="5"/>
<path d="M3552,5552 l60,0 l0,60 l-60,0 z" fill="green"/>
<path d="M3582,5582 l0,0.5" stroke="black" stroke-width="5"/>
<path d="M2320,7802 l60,0 l0,60 l-60,0 z" fill="green"/>
<path d="M2350,7832 l129,-2" stroke="black" stroke-width="5"/>
<path d="M4287,4313 l60,0 l0,60 l-60,0 z" fill="green"/>
<path d="M4317,4343 l0,320.5" stroke="black" stroke-width="5"/>
<path d="M9198,129 l60,0 l0,60 l-60,0 z" fill="green"/>
<path d="M9228,159 l-52.5,103.5" stroke="black" stroke-width="5"/>
<path d="M5915,3232 l60,0 l0,60 l-60,0 z" fill="green"/>
<path d="M5945,3262 l0.5,0.5" stroke="black" stroke-width="5"/>
<path d="M2696,7527 l60,0 l0,60 l-60,0 z" fill="green"/>
<path d="M2726,7557 l0.5,606" stroke="black" stroke-width="5"/>
<path d="M1752,4439 l60,0 l0,60 l-60,0 z" fill="green"/>
<path d="M1782,4469 l186.5,21" stroke="black" stroke-width="5"/>
<path d="M784,1969 l60,0 l0,60 l-60,0 z" fill="green"/>
<path d="M814,1999 l1546,76.5" stroke="black" stroke-width="5"/>
<path d="M5600,9026 l60,0 l0,60 l-60,0 z" fill="green"/>
<path d="M5630,9056 l0,0" stroke="black" stroke-width="5"/>
<path d="M7570,4442 l60,0 l0,60 l-60,0 z" fill="green"/>
<path d="M7600,4472 l0,39" stroke="black" stroke-width="5"/>
<path d="M7436,3912 l60,0 l0,60 l-60,0 z" fill="green"/>
<path d="M7466,3942 l0,0" stroke="black" stroke-width="5"/>
<path d="M1170,4121 l60,0 l0,60 l-60,0 z" fill="green"/>
<path d="M1200,4151 l191.5,0" stroke="black" stroke-width="5"/>
<path d="M1083,1467 l60,0 l0,60 l-60,0 z" fill="green"/>
<path d="M1113,1497 l0,0.5" stroke="black" stroke-width="5"/>
<path d="M7598,1298 l60,0 l0,60 l-60,0 z" fill="green"/>
<path d="M7628,1328 l0.5,0.5" stroke="black" stroke-width="5"/>
<path d="M108,4961 l60,0 l0,60 l-60,0 z" fill="green"/>
<path d="M138,4991 l231.5,-311.5" stroke="black" stroke-width="5"/>
<path d="M836,1854 l60,0 l0,60 l-60,0 z" fill="green"/>
<path d="M866,1884 l0,-31" stroke="black" stroke-width="5"/>
<path d="M1065,6122 l60,0 l0,60 l-60,0 z" fill="green"/>
<path d="M1095,6152 l0.5,0.5" stroke="black" stroke-width="5"/>
<path d="M8589,3738 l60,0 l0,60 l-60,0 z" fill="green"/>
<path d="M8619,3768 l0.5,0" stroke="black" stroke-width="5"/>
<path d="M5846,502 l60,0 l0,60 l-60,0 z" fill="green"/>
<path d="M5876,532 l150,-120" stroke="black" stroke-width="5"/>
<path d="M7253,6542 l60,0 l0,60 l-60,0 z" fill="green"/>
<path d="M7283,6572 l0,-85.5" stroke="black" stroke-width="5"/>
<path d="M6229,2655 l60,0 l0,60 l-60,0 z" fill="green"/>
<path d="M6259,2685 l-210,-92.5" stroke="black" stroke-width="5"/>
<path d="M8735,9322 l60,0 l0,60 l-60,0 z" fill="green"/>
<path d="M8765,9352 l0,0" stroke="black" stroke-width="5"/>
<path d="M3220,9840 l60,0 l0,60 l-60,0 z" fill="green"/>
<path d="M3250,9870 l0.5,0.5" stroke="black" stroke-width="5"/>
<path d="M551,424 l60,0 l0,60 l-60,0 z" fill="green"/>
<path d="M581,454 l0.5,0.5" stroke="black" stroke-width="5"/>
<path d="M7145,7219 l60,0 l0,60 l-60,0 z" fill="green"/>
<path d="M7175,7249 l-118,-12.5" stroke="black" stroke-width="5"/>
<path d="M6214,8231 l60,0 l0,60 l-60,0 z" fill="green"/>
<path d="M6244,8261 l0.5,0" stroke="black" stroke-width="5"/>
<path d="M3295,7347 l60,0 l0,60 l-60,0 z" fill="green"/>
<path d="M3325,7377 l372.5,-311" stroke="black" stroke-width="5"/>
<path d="M4985,2511 l60,0 l0,60 l-60,0 z" fill="green"/>
<path d="M5015,2541 l-20,120" stroke="black" stroke-width="5"/>
<path d="M109,869 l60,0 l0,60 l-60,0 z" fill="green"/>
<path d="M139,899 l-20.5,341" stroke="black" stroke-width="5"/>
<path d="M601,7502 l60,0 l0,60 l-60,0 z" fill="green"/>
<path d="M631,7532 l0.5,0" stroke="black" stroke-width="5"/>
<path d="M768,5396 l60,0 l0,60 l-60,0 z" fill="green"/>
<path d="M798,5426 l56.5,-238" stroke="black" stroke-width="5"/>
<path d="M4877,1542 l60,0 l0,60 l-60,0 z" fill="green"/>
<path d="M4907,1572 l-265.5,320.5" stroke="black" stroke-width="5"/>
<path d="M6944,5923 l60,0 l0,60 l-60,0 z" fill="green"/>
<path d="M6974,5953 l-117.5,-1027" stroke="black" stroke-width="5"/>
<path d="M2631,5786 l60,0 l0,60 l-60,0 z" fill="green"/>
<path d="M2661,5816 l0.5,155" stroke="black" stroke-width="5"/>
<path d="M7817,8752 l60,0 l0,60 l-60,0 z" fill="green"/>
<path d="M7847,8782 l0.5,0.5" stroke="black" stroke-width="5"/>
<path d="M1781,4182 l60,0 l0,60 l-60,0 z" fill="green"/>
<path d="M1811,4212 l852.5,-183.5" stroke="black" stroke-width="5"/>
<path d="M9755,6450 l60,0 l0,60 l-60,0 z" fill="green"/>
<path d="M9785,6480 l-139,0.5" stroke="black" stroke-width="5"/>
<path d="M8300,5456 l60,0 l0,60 l-60,0 z" fill="green"/>
<path d="M8330,5486 l-152,0" stroke="black" stroke-width="5"/>
<path d="M4275,2632 l60,0 l0,60 l-60,0 z" fill="green"/>
<path d="M4305,2662 l-41.5,-91" stroke="black" stroke-width="5"/>
<path d="M2000,6621 l60,0 l0,60 l-60,0 z" fill="green"/>
<path d="M2030,6651 l-71.5,582.5" stroke="black" stroke-width="5"/>
<path d="M8235,3988 l60,0 l0,60 l-60,0 z" fill="green"/>
<path d="M8265,4018 l-124.5,384" stroke="black" stroke-width="5"/>
<path d="M8811,2625 l60,0 l0,60 l-60,0 z" fill="green"/>
<path d="M8841,2655 l0.5,63.5" stroke="black" stroke-width="5"/>
<path d="M657,9075 l60,0 l0,60 l-60,0 z" fill="green"/>
<path d="M687,9105 l0,0" stroke="black" stroke-width="5"/>
<path d="M2332,5307 l60,0 l0,60 l-60,0 z" fill="green"/>
<path d="M2362,5337 l-47.5,-51" stroke="black" stroke-width="5"/>
<path d="M7909,3081 l60,0 l0,60 l-60,0 z" fill="green"/>
<path d="M7939,3111 l0,38" stroke="black" stroke-width="5"/>
<path d="M6041,7391 l60,0 l0,60 l-60,0 z" fill="green"/>
<path d="M6071,7421 l-479.5,136.5" stroke="black" stroke-width="5"/>
<path d="M5635,7986 l60,0 l0,60 l-60,0 z" fill="green"/>
<path d="M5665,8016 l0,0.5" stroke="black" stroke-width="5"/>
<path d="M9458,153 l60,0 l0,60 l-60,0 z" fill="green"/>
<path d="M9488,183 l256,409.5" stroke="black" stroke-width="5"/>
<path d="M2169,3685 l60,0 l0,60 l-60,0 z" fill="green"/>
<path d="M2199,3715 l0.5,0.5" stroke="black" stroke-width="5"/>
<path d="M9838,1155 l60,0 l0,60 l-60,0 z" fill="green"/>
<path d="M9868,1185 l-124,1015" stroke="black" stroke-width="5"/>
<path d="M1216,5586 l60,0 l0,60 l-60,0 z" fill="green"/>
<path d="M1246,5616 l219.5,258" stroke="black" stroke-width="5"/>
<path d="M5745,1065 l60,0 l0,60 l-60,0 z" fill="green"/>
<path d="M5775,1095 l30,0" stroke="black" stroke-width="5"/>
<path d="M9511,7104 l60,0 l0,60 l-60,0 z" fill="green"/>
<path d="M9541,7134 l105,53" stroke="black" stroke-width="5"/>
<path d="M8167,7746 l60,0 l0,60 l-60,0 z" fill="green"/>
<path d="M8197,7776 l-229,166" stroke="black" stroke-width="5"/>
<path d="M417,5619 l60,0 l0,60 l-60,0 z" fill="green"/>
<path d="M447,5649 l83.5,0.5" stroke="black" stroke-width="5"/>
<path d="M8074,7596 l60,0 l0,60 l-60,0 z" fill="green"/>
<path d="M8104,7626 l0,-2.5" stroke="black" stroke-width="5"/>
<path d="M4819,9121 l60,0 l0,60 l-60,0 z" fill="green"/>
<path d="M4849,9151 l-311.5,-376.5" stroke="black" stroke-width="5"/>
<path d="M8379,5525 l60,0 l0,60 l-60,0 z" fill="green"/>
<path d="M8409,5555 l11.5,0" stroke="black" stroke-width="5"/>
<path d="M6138,9787 l60,0 l0,60 l-60,0 z" fill="green"/>
<path d="M6168,9817 l0.5,0" stroke="black" stroke-width="5"/>
<path d="M5853,5970 l60,0 l0,60 l-60,0 z" fill="green"/>
<path d="M5883,6000 l0.5,0.5" stroke="black" stroke-width="5"/>
<path d="M1178,5588 l60,0 l0,60 l-60,0 z" fill="green"/>
<path d="M1208,5618 l-100,0" stroke="black" stroke-width="5"/>
<path d="M9227,8086 l60,0 l0,60 l-60,0 z" fill="green"/>
<path d="M9257,8116 l0.5,0" stroke="black" stroke-width="5"/>
<path d="M7354,8692 l60,0 l0,60 l-60,0 z" fill="green"/>
<path d="M7384,8722 l-237,471.5" stroke="black" stroke-width="5"/>
<path d="M9018,8747 l60,0 l0,60 l-60,0 z" fill="green"/>
<path d="M9048,8777 l3,21.5" stroke="black" stroke-width="5"/>
<path d="M4441,9554 l60,0 l0,60 l-60,0 z" fill="green"/>
<path d="M4471,9584 l0.5,0.5" stroke="black" stroke-width="5"/>
<path d="M5324,8906 l60,0 l0,60 l-60,0 z" fill="green"/>
<path d="M5354,8936 l-95.5,0.5" stroke="black" stroke-width="5"/>
<path d="M8022,8078 l60,0 l0,60 l-60,0 z" fill="green"/>
<path d="M8052,8108 l190,197" stroke="black" stroke-width="5"/>
<path d="M2753,9136 l60,0 l0,60 l-60,0 z" fill="green"/>
<path d="M2783,9166 l0,76.5" stroke="black" stroke-width="5"/>
<path d="M3608,5368 l60,0 l0,60 l-60,0 z" fill="green"/>
<path d="M3638,5398 l0,-146" stroke="black" stroke-width="5"/>
<path d="M3515,3563 l60,0 l0,60 l-60,0 z" fill="green"/>
<path d="M3545,3593 l0.5,0.5" stroke="black" stroke-width="5"/>
<path d="M4660,2578 l60,0 l0,60 l-60,0 z" fill="green"/>
<path d="M4690,2608 l0.5,0.5" stroke="black" stroke-width="5"/>
<path d="M2834,6125 l60,0 l0,60 l-60,0 z" fill="green"/>
<path d="M2864,6155 l10.5,247.5" stroke="black" stroke-width="5"/>
<path d="M7881,2187 l60,0 l0,60 l-60,0 z" fill="green"/>
<path d="M7911,2217 l0,0" stroke="black" stroke-width="5"/>
<path d="M6107,3572 l60,0 l0,60 l-60,0 z" fill="green"/>
<path d="M6137,3602 l778,-42" stroke="black" stroke-width="5"/>
<path d="M6192,9566 l60,0 l0,60 l-60,0 z" fill="green"/>
<path d="M6222,9596 l-75.5,-121" stroke="black" stroke-width="5"/>
<path d="M6214,3011 l60,0 l0,60 l-60,0 z" fill="green"/>
<path d="M6244,3041 l0,0" stroke="black" stroke-width="5"/>
<path d="M6090,3946 l60,0 l0,60 l-60,0 z" fill="green"/>
<path d="M6120,3976 l0,-146.5" stroke="black" stroke-width="5"/>
<path d="M6446,9422 l60,0 l0,60 l-60,0 z" fill="green"/>
<path d="M6476,9452 l0,0" stroke="black" stroke-width="5"/>
<path d="M6433,2078 l60,0 l0,60 l-60,0 z" fill="green"/>
<path d="M6463,2108 l651.5,146" stroke="black" stroke-width="5"/>
<path d="M198,520 l60,0 l0,60 l-60,0 z" fill="green"/>
<path d="M228,550 l-92.5,-274.5" stroke="black" stroke-width="5"/>
<path d="M1479,4863 l60,0 l0,60 l-60,0 z" fill="green"/>
<path d="M1509,4893 l0.5,0" stroke="black" stroke-width="5"/>
<path d="M8702,517 l60,0 l0,60 l-60,0 z" fill="green"/>
<path d="M8732,547 l-91,-273" stroke="black" stroke-width="5"/>
<path d="M5390,3435 l60,0 l0,60 l-60,0 z" fill="green"/>
<path d="M5420,3465 l0.5,0" stroke="black" stroke-width="5"/>
<path d="M3416,8070 l60,0 l0,60 l-60,0 z" fill="green"/>
<path d="M3446,8100 l40,-237" stroke="black" stroke-width="5"/>
<path d="M2455,1301 l60,0 l0,60 l-60,0 z" fill="green"/>
<path d="M2485,1331 l-146,-331.5" stroke="black" stroke-width="5"/>
<path d="M5694,5150 l60,0 l0,60 l-60,0 z" fill="green"/>
<path d="M5724,5180 l0.5,0.5" stroke="black" stroke-width="5"/>
<path d="M2936,5662 l60,0 l0,60 l-60,0 z" fill="green"/>
<path d="M2966,5692 l-14,-169" stroke="black" stroke-width="5"/>
<path d="M6138,1496 l60,0 l0,60 l-60,0 z" fill="green"/>
<path d="M6168,1526 l0,162" stroke="black" stroke-width="5"/>
<path d="M4180,1106 l60,0 l0,60 l-60,0 z" fill="green"/>
<path d="M4210,1136 l-4.5,-68" stroke="black" stroke-width="5"/>
<path d="M6331,9172 l60,0 l0,60 l-60,0 z" fill="green"/>
<path d="M6361,9202 l0,-146.5" stroke="black" stroke-width="5"/>
<path d="M1623,9027 l60,0 l0,60 l-60,0 z" fill="green"/>
<path d="M1653,9057 l318.5,0" stroke="black" stroke-width="5"/>
<path d="M2478,5018 l60,0 l0,60 l-60,0 z" fill="green"/>
<path d="M2508,5048 l-352,-140" stroke="black" stroke-width="5"/>
<path d="M1477,9127 l60,0 l0,60 l-60,0 z" fill="green"/>
<path d="M1507,9157 l0,0" stroke="black" stroke-width="5"/>
<path d="M5101,1444 l60,0 l0,60 l-60,0 z" fill="green"/>
<path d="M5131,1474 l-111,508.5" stroke="black" stroke-width="5"/>
<path d="M9137,953 l60,0 l0,60 l-60,0 z" fill="green"/>
<path d="M9167,983 l-79.5,23" stroke="black" stroke-width="5"/>
<path d="M-13,5305 l60,0 l0,60 l-60,0 z" fill="green"/>
<path d="M17,5335 l144,22" stroke="black" stroke-width="5"/>
<path d="M4552,5523 l60,0 l0,60 l-60,0 z" fill="green"/>
<path d="M4582,5553 l0.5,0" stroke="black" stroke-width="5"/>
<path d="M939,908 l60,0 l0,60 l-60,0 z" fill="green"/>
<path d="M969,938 l-251,150.5" stroke="black" stroke-width="5"/>
<path d="M8693,5386 l60,0 l0,60 l-60,0 z" fill="green"/>
<path d="M8723,5416 l156.5,0" stroke="black" stroke-width="5"/>
<path d="M6669,2805 l60,0 l0,60 l-60,0 z" fill="green"/>
<path d="M6699,2835 l0,0.5" stroke="black" stroke-width="5"/>
<path d="M6202,6301 l60,0 l0,60 l-60,0 z" fill="green"/>
<path d="M6232,6331 l171,51" stroke="black" stroke-width="5"/>
<path d="M7192,7849 l60,0 l0,60 l-60,0 z" fill="green"/>
<path d="M7222,7879 l-1,0" stroke="black" stroke-width="5"/>
<path d="M348,3825 l60,0 l0,60 l-60,0 z" fill="green"/>
<path d="M378,3855 l2.5,117" stroke="black" stroke-width="5"/>
<path d="M1399,1451 l60,0 l0,60 l-60,0 z" fill="green"/>
<path d="M1429,1481 l109.5,0.5" stroke="black" stroke-width="5"/>
<path d="M158,2723 l60,0 l0,60 l-60,0 z" fill="green"/>
<path d="M188,2753 l-15.5,0" stroke="black" stroke-width="5"/>
<path d="M3080,3000 l60,0 l0,60 l-60,0 z" fill="green"/>
<path d="M3110,3030 l0.5,0.5" stroke="black" stroke-width="5"/>
<path d="M4194,3936 l60,0 l0,60 l-60,0 z" fill="green"/>
<path d="M4224,3966 l-60,-51.5" stroke="black" stroke-width="5"/>
<path d="M9607,7370 l60,0 l0,60 l-60,0 z" fill="green"/>
<path d="M9637,7400 l9,225" stroke="black" stroke-width="5"/>
<path d="M3740,433 l60,0 l0,60 l-60,0 z" fill="green"/>
<path d="M3770,463 l0,0.5" stroke="black" stroke-width="5"/>
<path d="M7860,2886 l60,0 l0,60 l-60,0 z" fill="green"/>
<path d="M7890,2916 l0,-203.5" stroke="black" stroke-width="5"/>
<path d="M6865,3726 l60,0 l0,60 l-60,0 z" fill="green"/>
<path d="M6895,3756 l-61,-66" stroke="black" stroke-width="5"/>
<text font-size="115.0870675296872" text-anchor="middle" x="1958.5" y="5994.78047363539">
0
</text>
<text font-size="115.0870675296872" text-anchor="middle" x="9127" y="6936.28047363539">
1
</text>
<text font-size="115.0870675296872" text-anchor="middle" x="3204.5" y="1419.7804736353905">
2
</text>
<text font-size="115.0870675296872" text-anchor="middle" x="8685" y="6873.78047363539">
3
</text>
<text font-size="115.0870675296872" text-anchor="middle" x="8103" y="9729.78047363539">
4
</text>
<text font-size="115.0870675296872" text-anchor="middle" x="5408" y="2142.7804736353905">
5
</text>
<text font-size="115.0870675296872" text-anchor="middle" x="3976.5" y="9066.78047363539">
6
</text>
<text font-size="115.0870675296872" text-anchor="middle" x="9025" y="4506.78047363539">
7
</text>
<text font-size="115.0870675296872" text-anchor="middle" x="5900" y="9209.78047363539">
8
</text>
<text font-size="115.0870675296872" text-anchor="middle" x="8632.5" y="2261.7804736353905">
9
</text>
<text font-size="115.0870675296872" text-anchor="middle" x="2561" y="5695.28047363539">
10
</text>
<text font-size="115.0870675296872" text-anchor="middle" x="2768.5" y="7140.78047363539">
11
</text>
<text font-size="115.0870675296872" text-anchor="middle" x="9645.5" y="9932.78047363539">
12
</text>
<text font-size="115.0870675296872" text-anchor="middle" x="6142.5" y="4321.28047363539">
13
</text>
<text font-size="115.0870675296872" text-anchor="middle" x="9853" y="4294.28047363539">
14
</text>
<text font-size="115.0870675296872" text-anchor="middle" x="7500" y="5718.78047363539">
15
</text>
<text font-size="115.0870675296872" text-anchor="middle" x="2919.5" y="5055.78047363539">
16
</text>
<text font-size="115.0870675296872" text-anchor="middle" x="6026.5" y="7297.78047363539">
17
</text>
<text font-size="115.0870675296872" text-anchor="middle" x="8189" y="1799.2804736353905">
18
</text>
<text font-size="115.0870675296872" text-anchor="middle" x="7453.5" y="222.28047363539054">
19
</text>
<text font-size="115.0870675296872" text-anchor="middle" x="3666" y="8522.78047363539">
20
</text>
<text font-size="115.0870675296872" text-anchor="middle" x="648" y="2495.2804736353905">
21
</text>
<text font-size="115.0870675296872" text-anchor="middle" x="6403" y="5267.28047363539">
22
</text>
<text font-size="115.0870675296872" text-anchor="middle" x="9108" y="1747.7804736353905">
23
</text>
<text font-size="115.0870675296872" text-anchor="middle" x="2517" y="8551.28047363539">
24
</text>
<text font-size="115.0870675296872" text-anchor="middle" x="3480" y="4972.78047363539">
25
</text>
<text font-size="115.0870675296872" text-anchor="middle" x="7437" y="7265.28047363539">
26
</text>
<text font-size="115.0870675296872" text-anchor="middle" x="4000.5" y="3329.2804736353905">
27
</text>
<text font-size="115.0870675296872" text-anchor="middle" x="980.5" y="4154.78047363539">
28
</text>
<text font-size="115.0870675296872" text-anchor="middle" x="4560" y="3013.2804736353905">
29
</text>
<text font-size="115.0870675296872" text-anchor="middle" x="9912.5" y="4885.78047363539">
30
</text>
<text font-size="115.0870675296872" text-anchor="middle" x="161" y="6465.28047363539">
31
</text>
<text font-size="115.0870675296872" text-anchor="middle" x="7778" y="8345.28047363539">
32
</text>
<text font-size="115.0870675296872" text-anchor="middle" x="5630" y="8650.28047363539">
33
</text>
<text font-size="115.0870675296872" text-anchor="middle" x="4846.5" y="3624.7804736353905">
34
</text>
<text font-size="115.0870675296872" text-anchor="middle" x="4858" y="7931.28047363539">
35
</text>
<text font-size="115.0870675296872" text-anchor="middle" x="8620.5" y="8030.78047363539">
36
</text>
<text font-size="115.0870675296872" text-anchor="middle" x="7694" y="727.2804736353905">
37
</text>
<text font-size="115.0870675296872" text-anchor="middle" x="5183" y="918.2804736353905">
38
</text>
<text font-size="115.0870675296872" text-anchor="middle" x="2691" y="6724.78047363539">
39
</text>
<text font-size="115.0870675296872" text-anchor="middle" x="3582" y="5622.78047363539">
40
</text>
<text font-size="115.0870675296872" text-anchor="middle" x="2479" y="7870.28047363539">
41
</text>
<text font-size="115.0870675296872" text-anchor="middle" x="4317" y="4703.78047363539">
42
</text>
<text font-size="115.0870675296872" text-anchor="middle" x="9175.5" y="302.78047363539054">
43
</text>
<text font-size="115.0870675296872" text-anchor="middle" x="5945.5" y="3302.7804736353905">
44
</text>
<text font-size="115.0870675296872" text-anchor="middle" x="2726.5" y="8203.28047363539">
45
</text>
<text font-size="115.0870675296872" text-anchor="middle" x="1968.5" y="4530.28047363539">
46
</text>
<text font-size="115.0870675296872" text-anchor="middle" x="2360" y="2115.7804736353905">
47
</text>
<text font-size="115.0870675296872" text-anchor="middle" x="5630" y="9096.28047363539">
48
</text>
<text font-size="115.0870675296872" text-anchor="middle" x="7600" y="4551.28047363539">
49
</text>
<text font-size="115.0870675296872" text-anchor="middle" x="7466" y="3982.2804736353905">
50
</text>
<text font-size="115.0870675296872" text-anchor="middle" x="1391.5" y="4191.28047363539">
51
</text>
<text font-size="115.0870675296872" text-anchor="middle" x="1113" y="1537.7804736353905">
52
</text>
<text font-size="115.0870675296872" text-anchor="middle" x="7628.5" y="1368.7804736353905">
53
</text>
<text font-size="115.0870675296872" text-anchor="middle" x="369.5" y="4719.78047363539">
54
</text>
<text font-size="115.0870675296872" text-anchor="middle" x="866" y="1893.2804736353905">
55
</text>
<text font-size="115.0870675296872" text-anchor="middle" x="1095.5" y="6192.78047363539">
56
</text>
<text font-size="115.0870675296872" text-anchor="middle" x="8619.5" y="3808.2804736353905">
57
</text>
<text font-size="115.0870675296872" text-anchor="middle" x="6026" y="452.28047363539054">
58
</text>
<text font-size="115.0870675296872" text-anchor="middle" x="7283" y="6526.78047363539">
59
</text>
<text font-size="115.0870675296872" text-anchor="middle" x="6049" y="2632.7804736353905">
60
</text>
<text font-size="115.0870675296872" text-anchor="middle" x="8765" y="9392.28047363539">
61
</text>
<text font-size="115.0870675296872" text-anchor="middle" x="3250.5" y="9910.78047363539">
62
</text>
<text font-size="115.0870675296872" text-anchor="middle" x="581.5" y="494.78047363539054">
63
</text>
<text font-size="115.0870675296872" text-anchor="middle" x="7057" y="7276.78047363539">
64
</text>
<text font-size="115.0870675296872" text-anchor="middle" x="6244.5" y="8301.28047363539">
65
</text>
<text font-size="115.0870675296872" text-anchor="middle" x="3697.5" y="7106.28047363539">
66
</text>
<text font-size="115.0870675296872" text-anchor="middle" x="4995" y="2701.2804736353905">
67
</text>
<text font-size="115.0870675296872" text-anchor="middle" x="118.5" y="1280.2804736353905">
68
</text>
<text font-size="115.0870675296872" text-anchor="middle" x="631.5" y="7572.28047363539">
69
</text>
<text font-size="115.0870675296872" text-anchor="middle" x="854.5" y="5228.28047363539">
70
</text>
<text font-size="115.0870675296872" text-anchor="middle" x="4641.5" y="1932.7804736353905">
71
</text>
<text font-size="115.0870675296872" text-anchor="middle" x="6856.5" y="4966.28047363539">
72
</text>
<text font-size="115.0870675296872" text-anchor="middle" x="2661.5" y="6011.28047363539">
73
</text>
<text font-size="115.0870675296872" text-anchor="middle" x="7847.5" y="8822.78047363539">
74
</text>
<text font-size="115.0870675296872" text-anchor="middle" x="2663.5" y="4068.7804736353905">
75
</text>
<text font-size="115.0870675296872" text-anchor="middle" x="9646" y="6520.78047363539">
76
</text>
<text font-size="115.0870675296872" text-anchor="middle" x="8178" y="5526.28047363539">
77
</text>
<text font-size="115.0870675296872" text-anchor="middle" x="4263.5" y="2611.2804736353905">
78
</text>
<text font-size="115.0870675296872" text-anchor="middle" x="1958.5" y="7273.78047363539">
79
</text>
<text font-size="115.0870675296872" text-anchor="middle" x="8140.5" y="4442.28047363539">
80
</text>
<text font-size="115.0870675296872" text-anchor="middle" x="8841.5" y="2758.7804736353905">
81
</text>
<text font-size="115.0870675296872" text-anchor="middle" x="687" y="9145.28047363539">
82
</text>
<text font-size="115.0870675296872" text-anchor="middle" x="2314.5" y="5326.28047363539">
83
</text>
<text font-size="115.0870675296872" text-anchor="middle" x="7939" y="3189.2804736353905">
84
</text>
<text font-size="115.0870675296872" text-anchor="middle" x="5591.5" y="7597.78047363539">
85
</text>
<text font-size="115.0870675296872" text-anchor="middle" x="5665" y="8056.78047363539">
86
</text>
<text font-size="115.0870675296872" text-anchor="middle" x="9744" y="632.7804736353905">
87
</text>
<text font-size="115.0870675296872" text-anchor="middle" x="2199.5" y="3755.7804736353905">
88
</text>
<text font-size="115.0870675296872" text-anchor="middle" x="9744" y="2240.2804736353905">
89
</text>
<text font-size="115.0870675296872" text-anchor="middle" x="1465.5" y="5914.28047363539">
90
</text>
<text font-size="115.0870675296872" text-anchor="middle" x="5805" y="1135.2804736353905">
91
</text>
<text font-size="115.0870675296872" text-anchor="middle" x="9646" y="7227.28047363539">
92
</text>
<text font-size="115.0870675296872" text-anchor="middle" x="7968" y="7982.28047363539">
93
</text>
<text font-size="115.0870675296872" text-anchor="middle" x="530.5" y="5689.78047363539">
94
</text>
<text font-size="115.0870675296872" text-anchor="middle" x="8104" y="7663.78047363539">
95
</text>
<text font-size="115.0870675296872" text-anchor="middle" x="4537.5" y="8814.78047363539">
96
</text>
<text font-size="115.0870675296872" text-anchor="middle" x="8420.5" y="5595.28047363539">
97
</text>
<text font-size="115.0870675296872" text-anchor="middle" x="6168.5" y="9857.28047363539">
98
</text>
<text font-size="115.0870675296872" text-anchor="middle" x="5883.5" y="6040.78047363539">
99
</text>
<text font-size="115.0870675296872" text-anchor="middle" x="1108" y="5658.28047363539">
100
</text>
<text font-size="115.0870675296872" text-anchor="middle" x="9257.5" y="8156.28047363539">
101
</text>
<text font-size="115.0870675296872" text-anchor="middle" x="7147" y="9233.78047363539">
102
</text>
<text font-size="115.0870675296872" text-anchor="middle" x="9051" y="8838.78047363539">
103
</text>
<text font-size="115.0870675296872" text-anchor="middle" x="4471.5" y="9624.78047363539">
104
</text>
<text font-size="115.0870675296872" text-anchor="middle" x="5258.5" y="8976.78047363539">
105
</text>
<text font-size="115.0870675296872" text-anchor="middle" x="8242" y="8345.28047363539">
106
</text>
<text font-size="115.0870675296872" text-anchor="middle" x="2783" y="9282.78047363539">
107
</text>
<text font-size="115.0870675296872" text-anchor="middle" x="3638" y="5292.28047363539">
108
</text>
<text font-size="115.0870675296872" text-anchor="middle" x="3545.5" y="3633.7804736353905">
109
</text>
<text font-size="115.0870675296872" text-anchor="middle" x="4690.5" y="2648.7804736353905">
110
</text>
<text font-size="115.0870675296872" text-anchor="middle" x="2874.5" y="6442.78047363539">
111
</text>
<text font-size="115.0870675296872" text-anchor="middle" x="7911" y="2257.2804736353905">
112
</text>
<text font-size="115.0870675296872" text-anchor="middle" x="6915" y="3600.2804736353905">
113
</text>
<text font-size="115.0870675296872" text-anchor="middle" x="6146.5" y="9515.28047363539">
114
</text>
<text font-size="115.0870675296872" text-anchor="middle" x="6244" y="3081.2804736353905">
115
</text>
<text font-size="115.0870675296872" text-anchor="middle" x="6120" y="3869.7804736353905">
116
</text>
<text font-size="115.0870675296872" text-anchor="middle" x="6476" y="9492.28047363539">
117
</text>
<text font-size="115.0870675296872" text-anchor="middle" x="7114.5" y="2294.2804736353905">
118
</text>
<text font-size="115.0870675296872" text-anchor="middle" x="135.5" y="315.78047363539054">
119
</text>
<text font-size="115.0870675296872" text-anchor="middle" x="1509.5" y="4933.28047363539">
120
</text>
<text font-size="115.0870675296872" text-anchor="middle" x="8641" y="314.28047363539054">
121
</text>
<text font-size="115.0870675296872" text-anchor="middle" x="5420.5" y="3505.2804736353905">
122
</text>
<text font-size="115.0870675296872" text-anchor="middle" x="3486" y="7903.28047363539">
123
</text>
<text font-size="115.0870675296872" text-anchor="middle" x="2339" y="1039.7804736353905">
124
</text>
<text font-size="115.0870675296872" text-anchor="middle" x="5724.5" y="5220.78047363539">
125
</text>
<text font-size="115.0870675296872" text-anchor="middle" x="2952" y="5563.28047363539">
126
</text>
<text font-size="115.0870675296872" text-anchor="middle" x="6168" y="1728.2804736353905">
127
</text>
<text font-size="115.0870675296872" text-anchor="middle" x="4205.5" y="1108.2804736353905">
128
</text>
<text font-size="115.0870675296872" text-anchor="middle" x="6361" y="9095.78047363539">
129
</text>
<text font-size="115.0870675296872" text-anchor="middle" x="1971.5" y="9097.28047363539">
130
</text>
<text font-size="115.0870675296872" text-anchor="middle" x="2156" y="4948.28047363539">
131
</text>
<text font-size="115.0870675296872" text-anchor="middle" x="1507" y="9197.28047363539">
132
</text>
<text font-size="115.0870675296872" text-anchor="middle" x="5020" y="2022.7804736353905">
133
</text>
<text font-size="115.0870675296872" text-anchor="middle" x="9087.5" y="1046.2804736353905">
134
</text>
<text font-size="115.0870675296872" text-anchor="middle" x="161" y="5397.28047363539">
135
</text>
<text font-size="115.0870675296872" text-anchor="middle" x="4582.5" y="5593.28047363539">
136
</text>
<text font-size="115.0870675296872" text-anchor="middle" x="718" y="1128.7804736353905">
137
</text>
<text font-size="115.0870675296872" text-anchor="middle" x="8879.5" y="5456.28047363539">
138
</text>
<text font-size="115.0870675296872" text-anchor="middle" x="6699" y="2875.7804736353905">
139
</text>
<text font-size="115.0870675296872" text-anchor="middle" x="6403" y="6422.28047363539">
140
</text>
<text font-size="115.0870675296872" text-anchor="middle" x="7221" y="7919.28047363539">
141
</text>
<text font-size="115.0870675296872" text-anchor="middle" x="380.5" y="4012.2804736353905">
142
</text>
<text font-size="115.0870675296872" text-anchor="middle" x="1538.5" y="1521.7804736353905">
143
</text>
<text font-size="115.0870675296872" text-anchor="middle" x="172.5" y="2793.2804736353905">
144
</text>
<text font-size="115.0870675296872" text-anchor="middle" x="3110.5" y="3070.7804736353905">
145
</text>
<text font-size="115.0870675296872" text-anchor="middle" x="4164" y="3954.7804736353905">
146
</text>
<text font-size="115.0870675296872" text-anchor="middle" x="9646" y="7665.28047363539">
147
</text>
<text font-size="115.0870675296872" text-anchor="middle" x="3770" y="503.78047363539054">
148
</text>
<text font-size="115.0870675296872" text-anchor="middle" x="7890" y="2752.7804736353905">
149
</text>
<text font-size="115.0870675296872" text-anchor="middle" x="6834" y="3730.2804736353905">
150
</text>
</svg>