<svg viewBox="-100 -100 10200 10200" xmlns="http://www.w3.org/2000/svg">
<path d="M0,0 l10000,0 l0,10000 l-10000,0 z" fill="white"/>
<path d="M527,5710 l1216,0 l0,1216 l-1216,0 z" fill="#fe00ff" stroke="black" stroke-width="5"/>
<path d="M3645,6255 l455,0 l0,744 l-455,0 z" fill="#fe00ff" stroke="black" stroke-width="5"/>
<path d="M5468,5421 l821,0 l0,2869 l-821,0 z" fill="#fe00ff" stroke="black" stroke-width="5"/>
<path d="M6264,4297 l780,0 l0,903 l-780,0 z" fill="#fe00ff" stroke="black" stroke-width="5"/>
<path d="M6264,2783 l761,0 l0,554 l-761,0 z" fill="#2800ff" stroke="black" stroke-width="5"/>
<path d="M3057,7680 l1237,0 l0,1296 l-1237,0 z" fill="#4700ff" stroke="black" stroke-width="5"/>
<path d="M2245,1353 l437,0 l0,437 l-437,0 z" fill="#fe00ff" stroke="black" stroke-width="5"/>
<path d="M3462,3856 l741,0 l0,740 l-741,0 z" fill="#fe00ff" stroke="black" stroke-width="5"/>
<path d="M8367,618 l1633,0 l0,694 l-1633,0 z" fill="#3700ff" stroke="black" stroke-width="5"/>
<path d="M2440,2881 l445,0 l0,1616 l-445,0 z" fill="#fd00ff" stroke="black" stroke-width="5"/>
<path d="M7025,1264 l819,0 l0,1682 l-819,0 z" fill="#fe00ff" stroke="black" stroke-width="5"/>
<path d="M8093,0 l1001,0 l0,618 l-1001,0 z" fill="#3900ff" stroke="black" stroke-width="5"/>
<path d="M4203,3398 l4,0 l0,1674 l-4,0 z" fill="#0000ff" stroke="black" stroke-width="5"/>
<path d="M8019,1938 l757,0 l0,756 l-757,0 z" fill="#fe00ff" stroke="black" stroke-width="5"/>
<path d="M9094,0 l741,0 l0,618 l-741,0 z" fill="#1e00ff" stroke="black" stroke-width="5"/>
<path d="M4820,9454 l440,0 l0,439 l-440,0 z" fill="#fe00ff" stroke="black" stroke-width="5"/>
<path d="M3152,733 l743,0 l0,743 l-743,0 z" fill="#fe00ff" stroke="black" stroke-width="5"/>
<path d="M2885,2881 l1,0 l0,4046 l-1,0 z" fill="#0000ff" stroke="black" stroke-width="5"/>
<path d="M6264,3337 l1009,0 l0,960 l-1009,0 z" fill="#fe00ff" stroke="black" stroke-width="5"/>
<path d="M2487,6927 l754,0 l0,753 l-754,0 z" fill="#fe00ff" stroke="black" stroke-width="5"/>
<path d="M7929,1358 l170,0 l0,278 l-170,0 z" fill="#fe00ff" stroke="black" stroke-width="5"/>
<path d="M8162,7646 l1838,0 l0,1486 l-1838,0 z" fill="#fe00ff" stroke="black" stroke-width="5"/>
<path d="M5786,4487 l179,0 l0,178 l-179,0 z" fill="#fe00ff" stroke="black" stroke-width="5"/>
<path d="M6436,6773 l668,0 l0,933 l-668,0 z" fill="#fe00ff" stroke="black" stroke-width="5"/>
<path d="M4454,347 l271,0 l0,1892 l-271,0 z" fill="#4e00ff" stroke="black" stroke-width="5"/>
<path d="M4695,5072 l773,0 l0,1564 l-773,0 z" fill="#fe00ff" stroke="black" stroke-width="5"/>
<path d="M4100,5072 l595,0 l0,2344 l-595,0 z" fill="#ca00ff" stroke="black" stroke-width="5"/>
<path d="M2243,1029 l426,0 l0,324 l-426,0 z" fill="#fe00ff" stroke="black" stroke-width="5"/>
<path d="M1507,4078 l107,0 l0,211 l-107,0 z" fill="#fe00ff" stroke="black" stroke-width="5"/>
<path d="M8635,4118 l616,0 l0,1405 l-616,0 z" fill="#fe00ff" stroke="black" stroke-width="5"/>
<path d="M7844,1636 l175,0 l0,5111 l-175,0 z" fill="#fe00ff" stroke="black" stroke-width="5"/>
<path d="M0,4497 l896,0 l0,592 l-896,0 z" fill="#f800ff" stroke="black" stroke-width="5"/>
<path d="M4725,0 l689,0 l0,3398 l-689,0 z" fill="#fa00ff" stroke="black" stroke-width="5"/>
<path d="M5414,0 l848,0 l0,1083 l-848,0 z" fill="#fe00ff" stroke="black" stroke-width="5"/>
<path d="M6264,1830 l761,0 l0,952 l-761,0 z" fill="#fe00ff" stroke="black" stroke-width="5"/>
<path d="M8776,1312 l1224,0 l0,1676 l-1224,0 z" fill="#e600ff" stroke="black" stroke-width="5"/>
<path d="M6798,0 l1295,0 l0,1079 l-1295,0 z" fill="#fe00ff" stroke="black" stroke-width="5"/>
<path d="M6392,8066 l1770,0 l0,528 l-1770,0 z" fill="#4400ff" stroke="black" stroke-width="5"/>
<path d="M9835,120 l118,0 l0,118 l-118,0 z" fill="#fe00ff" stroke="black" stroke-width="5"/>
<path d="M6436,5200 l1302,0 l0,1016 l-1302,0 z" fill="#fe00ff" stroke="black" stroke-width="5"/>
<path d="M1799,7009 l610,0 l0,609 l-610,0 z" fill="#fe00ff" stroke="black" stroke-width="5"/>
<path d="M1970,0 l2755,0 l0,347 l-2755,0 z" fill="#7200ff" stroke="black" stroke-width="5"/>
<path d="M896,4497 l1031,0 l0,1136 l-1031,0 z" fill="#fe00ff" stroke="black" stroke-width="5"/>
<path d="M1970,1790 l1876,0 l0,1091 l-1876,0 z" fill="#f200ff" stroke="black" stroke-width="5"/>
<path d="M548,2688 l194,0 l0,193 l-194,0 z" fill="#fe00ff" stroke="black" stroke-width="5"/>
<path d="M3861,3798 l44,0 l0,43 l-44,0 z" fill="#fe00ff" stroke="black" stroke-width="5"/>
<path d="M9251,4252 l650,0 l0,1301 l-650,0 z" fill="#fe00ff" stroke="black" stroke-width="5"/>
<path d="M6436,6296 l528,0 l0,477 l-528,0 z" fill="#fe00ff" stroke="black" stroke-width="5"/>
<path d="M7824,6747 l338,0 l0,1319 l-338,0 z" fill="#7a00ff" stroke="black" stroke-width="5"/>
<path d="M1927,4497 l958,0 l0,1289 l-958,0 z" fill="#fe00ff" stroke="black" stroke-width="5"/>
<path d="M4207,3398 l1365,0 l0,1674 l-1365,0 z" fill="#fe00ff" stroke="black" stroke-width="5"/>
<path d="M7083,1079 l381,0 l0,185 l-381,0 z" fill="#fe00ff" stroke="black" stroke-width="5"/>
<path d="M8963,3571 l413,0 l0,412 l-413,0 z" fill="#fe00ff" stroke="black" stroke-width="5"/>
<path d="M1182,7245 l610,0 l0,610 l-610,0 z" fill="#fe00ff" stroke="black" stroke-width="5"/>
<path d="M8019,3761 l616,0 l0,2149 l-616,0 z" fill="#fe00ff" stroke="black" stroke-width="5"/>
<path d="M9154,2988 l355,0 l0,354 l-355,0 z" fill="#fe00ff" stroke="black" stroke-width="5"/>
<path d="M3272,6350 l373,0 l0,373 l-373,0 z" fill="#fe00ff" stroke="black" stroke-width="5"/>
<path d="M4294,7416 l1174,0 l0,1217 l-1174,0 z" fill="#fe00ff" stroke="black" stroke-width="5"/>
<path d="M6290,5200 l146,0 l0,2866 l-146,0 z" fill="#b800ff" stroke="black" stroke-width="5"/>
<path d="M1335,7855 l1722,0 l0,1121 l-1722,0 z" fill="#bc00ff" stroke="black" stroke-width="5"/>
<path d="M7535,9327 l475,0 l0,673 l-475,0 z" fill="#fe00ff" stroke="black" stroke-width="5"/>
<path d="M8099,1312 l569,0 l0,569 l-569,0 z" fill="#fe00ff" stroke="black" stroke-width="5"/>
<path d="M957,3961 l211,0 l0,423 l-211,0 z" fill="#fe00ff" stroke="black" stroke-width="5"/>
<path d="M2886,5008 l1214,0 l0,1247 l-1214,0 z" fill="#f500ff" stroke="black" stroke-width="5"/>
<path d="M346,5089 l315,0 l0,314 l-315,0 z" fill="#fe00ff" stroke="black" stroke-width="5"/>
<path d="M7104,7538 l720,0 l0,528 l-720,0 z" fill="#fe00ff" stroke="black" stroke-width="5"/>
<path d="M6263,0 l1,0 l0,5421 l-1,0 z" fill="#0000ff" stroke="black" stroke-width="5"/>
<path d="M0,3275 l957,0 l0,1222 l-957,0 z" fill="#7c00ff" stroke="black" stroke-width="5"/>
<path d="M5550,8290 l842,0 l0,841 l-842,0 z" fill="#fe00ff" stroke="black" stroke-width="5"/>
<path d="M5414,1693 l849,0 l0,1579 l-849,0 z" fill="#fe00ff" stroke="black" stroke-width="5"/>
<path d="M9237,7386 l519,0 l0,260 l-519,0 z" fill="#fe00ff" stroke="black" stroke-width="5"/>
<path d="M3846,1476 l608,0 l0,763 l-608,0 z" fill="#d900ff" stroke="black" stroke-width="5"/>
<path d="M1335,8976 l3485,0 l0,1024 l-3485,0 z" fill="#fd00ff" stroke="black" stroke-width="5"/>
<path d="M6264,2782 l761,0 l0,1 l-761,0 z" fill="#0000ff" stroke="black" stroke-width="5"/>
<path d="M6392,8594 l1618,0 l0,733 l-1618,0 z" fill="#df00ff" stroke="black" stroke-width="5"/>
<path d="M2886,3710 l576,0 l0,1298 l-576,0 z" fill="#fe00ff" stroke="black" stroke-width="5"/>
<path d="M0,2881 l2236,0 l0,394 l-2236,0 z" fill="#fe00ff" stroke="black" stroke-width="5"/>
<path d="M3846,2239 l879,0 l0,1159 l-879,0 z" fill="#a500ff" stroke="black" stroke-width="5"/>
<path d="M5572,3925 l301,0 l0,562 l-301,0 z" fill="#fe00ff" stroke="black" stroke-width="5"/>
<path d="M779,159 l1191,0 l0,2376 l-1191,0 z" fill="#fe00ff" stroke="black" stroke-width="5"/>
<path d="M8010,9132 l1990,0 l0,868 l-1990,0 z" fill="#fe00ff" stroke="black" stroke-width="5"/>
<path d="M1614,3521 l826,0 l0,976 l-826,0 z" fill="#fe00ff" stroke="black" stroke-width="5"/>
<path d="M341,8873 l994,0 l0,993 l-994,0 z" fill="#fe00ff" stroke="black" stroke-width="5"/>
<path d="M0,584 l779,0 l0,1218 l-779,0 z" fill="#fe00ff" stroke="black" stroke-width="5"/>
<path d="M6289,5200 l1,0 l0,3090 l-1,0 z" fill="#0000ff" stroke="black" stroke-width="5"/>
<path d="M8093,750 l274,0 l0,429 l-274,0 z" fill="#fe00ff" stroke="black" stroke-width="5"/>
<path d="M1105,6288 l60,0 l0,60 l-60,0 z" fill="green"/>
<path d="M1135,6318 l0,0" stroke="black" stroke-width="5"/>
<path d="M3698,6597 l60,0 l0,60 l-60,0 z" fill="green"/>
<path d="M3728,6627 l144.5,0" stroke="black" stroke-width="5"/>
<path d="M5438,7458 l60,0 l0,60 l-60,0 z" fill="green"/>
<path d="M5468,7488 l410.5,-632.5" stroke="black" stroke-width="5"/>
<path d="M6385,4541 l60,0 l0,60 l-60,0 z" fill="green"/>
<path d="M6415,4571 l239,177.5" stroke="black" stroke-width="5"/>
<path d="M6367,3081 l60,0 l0,60 l-60,0 z" fill="green"/>
<path d="M6397,3111 l247.5,-51" stroke="black" stroke-width="5"/>
<path d="M3027,8945 l60,0 l0,60 l-60,0 z" fill="green"/>
<path d="M3057,8975 l618.5,-647" stroke="black" stroke-width="5"/>
<path d="M2433,1541 l60,0 l0,60 l-60,0 z" fill="green"/>
<path d="M2463,1571 l0.5,0.5" stroke="black" stroke-width="5"/>
<path d="M3802,4196 l60,0 l0,60 l-60,0 z" fill="green"/>
<path d="M3832,4226 l0.5,0" stroke="black" stroke-width="5"/>
<path d="M8840,928 l60,0 l0,60 l-60,0 z" fill="green"/>
<path d="M8870,958 l313.5,7" stroke="black" stroke-width="5"/>
<path d="M2727,4439 l60,0 l0,60 l-60,0 z" fill="green"/>
<path d="M2757,4469 l-94.5,-780" stroke="black" stroke-width="5"/>
<path d="M7316,1817 l60,0 l0,60 l-60,0 z" fill="green"/>
<path d="M7346,1847 l88.5,258" stroke="black" stroke-width="5"/>
<path d="M8063,174 l60,0 l0,60 l-60,0 z" fill="green"/>
<path d="M8093,204 l500.5,105" stroke="black" stroke-width="5"/>
<path d="M4176,4042 l60,0 l0,60 l-60,0 z" fill="green"/>
<path d="M4206,4072 l-1,163" stroke="black" stroke-width="5"/>
<path d="M8367,2286 l60,0 l0,60 l-60,0 z" fill="green"/>
<path d="M8397,2316 l0.5,0" stroke="black" stroke-width="5"/>
<path d="M9064,587 l60,0 l0,60 l-60,0 z" fill="green"/>
<path d="M9094,617 l370.5,-308" stroke="black" stroke-width="5"/>
<path d="M5010,9643 l60,0 l0,60 l-60,0 z" fill="green"/>
<path d="M5040,9673 l0,0.5" stroke="black" stroke-width="5"/>
<path d="M3493,1074 l60,0 l0,60 l-60,0 z" fill="green"/>
<path d="M3523,1104 l0.5,0.5" stroke="black" stroke-width="5"/>
<path d="M2855,4467 l60,0 l0,60 l-60,0 z" fill="green"/>
<path d="M2885,4497 l0.5,407" stroke="black" stroke-width="5"/>
<path d="M6284,4266 l60,0 l0,60 l-60,0 z" fill="green"/>
<path d="M6314,4296 l454.5,-479" stroke="black" stroke-width="5"/>
<path d="M2834,7273 l60,0 l0,60 l-60,0 z" fill="green"/>
<path d="M2864,7303 l0,0.5" stroke="black" stroke-width="5"/>
<path d="M8037,1467 l60,0 l0,60 l-60,0 z" fill="green"/>
<path d="M8067,1497 l-53,0" stroke="black" stroke-width="5"/>
<path d="M9843,9101 l60,0 l0,60 l-60,0 z" fill="green"/>
<path d="M9873,9131 l-792,-742" stroke="black" stroke-width="5"/>
<path d="M5845,4546 l60,0 l0,60 l-60,0 z" fill="green"/>
<path d="M5875,4576 l0.5,0" stroke="black" stroke-width="5"/>
<path d="M6529,7061 l60,0 l0,60 l-60,0 z" fill="green"/>
<path d="M6559,7091 l211,148.5" stroke="black" stroke-width="5"/>
<path d="M4424,1607 l60,0 l0,60 l-60,0 z" fill="green"/>
<path d="M4454,1637 l135.5,-344" stroke="black" stroke-width="5"/>
<path d="M5129,5381 l60,0 l0,60 l-60,0 z" fill="green"/>
<path d="M5159,5411 l-77.5,443" stroke="black" stroke-width="5"/>
<path d="M4664,5645 l60,0 l0,60 l-60,0 z" fill="green"/>
<path d="M4694,5675 l-296.5,569" stroke="black" stroke-width="5"/>
<path d="M2426,1211 l60,0 l0,60 l-60,0 z" fill="green"/>
<path d="M2456,1241 l0,-50" stroke="black" stroke-width="5"/>
<path d="M1583,4153 l60,0 l0,60 l-60,0 z" fill="green"/>
<path d="M1613,4183 l-52.5,0.5" stroke="black" stroke-width="5"/>
<path d="M8710,4790 l60,0 l0,60 l-60,0 z" fill="green"/>
<path d="M8740,4820 l203,0.5" stroke="black" stroke-width="5"/>
<path d="M7814,2000 l60,0 l0,60 l-60,0 z" fill="green"/>
<path d="M7844,2030 l87.5,2161.5" stroke="black" stroke-width="5"/>
<path d="M826,4489 l60,0 l0,60 l-60,0 z" fill="green"/>
<path d="M856,4519 l-408,274" stroke="black" stroke-width="5"/>
<path d="M5275,230 l60,0 l0,60 l-60,0 z" fill="green"/>
<path d="M5305,260 l-235.5,1439" stroke="black" stroke-width="5"/>
<path d="M5384,206 l60,0 l0,60 l-60,0 z" fill="green"/>
<path d="M5414,236 l424,305.5" stroke="black" stroke-width="5"/>
<path d="M6368,2427 l60,0 l0,60 l-60,0 z" fill="green"/>
<path d="M6398,2457 l246.5,-151" stroke="black" stroke-width="5"/>
<path d="M9372,2124 l60,0 l0,60 l-60,0 z" fill="green"/>
<path d="M9402,2154 l-14,-4" stroke="black" stroke-width="5"/>
<path d="M7660,156 l60,0 l0,60 l-60,0 z" fill="green"/>
<path d="M7690,186 l-244.5,353.5" stroke="black" stroke-width="5"/>
<path d="M7326,8036 l60,0 l0,60 l-60,0 z" fill="green"/>
<path d="M7356,8066 l-79,264" stroke="black" stroke-width="5"/>
<path d="M9864,149 l60,0 l0,60 l-60,0 z" fill="green"/>
<path d="M9894,179 l0,0" stroke="black" stroke-width="5"/>
<path d="M6795,5273 l60,0 l0,60 l-60,0 z" fill="green"/>
<path d="M6825,5303 l262,405" stroke="black" stroke-width="5"/>
<path d="M2074,7283 l60,0 l0,60 l-60,0 z" fill="green"/>
<path d="M2104,7313 l0,0.5" stroke="black" stroke-width="5"/>
<path d="M4694,316 l60,0 l0,60 l-60,0 z" fill="green"/>
<path d="M4724,346 l-1376.5,-172.5" stroke="black" stroke-width="5"/>
<path d="M1434,5035 l60,0 l0,60 l-60,0 z" fill="green"/>
<path d="M1464,5065 l-52.5,0" stroke="black" stroke-width="5"/>
<path d="M1940,2208 l60,0 l0,60 l-60,0 z" fill="green"/>
<path d="M1970,2238 l938,97.5" stroke="black" stroke-width="5"/>
<path d="M615,2754 l60,0 l0,60 l-60,0 z" fill="green"/>
<path d="M645,2784 l0,0.5" stroke="black" stroke-width="5"/>
<path d="M3853,3789 l60,0 l0,60 l-60,0 z" fill="green"/>
<path d="M3883,3819 l0,0.5" stroke="black" stroke-width="5"/>
<path d="M9221,4872 l60,0 l0,60 l-60,0 z" fill="green"/>
<path d="M9251,4902 l325,0.5" stroke="black" stroke-width="5"/>
<path d="M6458,6742 l60,0 l0,60 l-60,0 z" fill="green"/>
<path d="M6488,6772 l212,-237.5" stroke="black" stroke-width="5"/>
<path d="M7976,7664 l60,0 l0,60 l-60,0 z" fill="green"/>
<path d="M8006,7694 l-13,-287.5" stroke="black" stroke-width="5"/>
<path d="M1897,4792 l60,0 l0,60 l-60,0 z" fill="green"/>
<path d="M1927,4822 l479,319.5" stroke="black" stroke-width="5"/>
<path d="M4741,3920 l60,0 l0,60 l-60,0 z" fill="green"/>
<path d="M4771,3950 l118.5,285" stroke="black" stroke-width="5"/>
<path d="M7243,1233 l60,0 l0,60 l-60,0 z" fill="green"/>
<path d="M7273,1263 l0.5,-91.5" stroke="black" stroke-width="5"/>
<path d="M9139,3747 l60,0 l0,60 l-60,0 z" fill="green"/>
<path d="M9169,3777 l0.5,0" stroke="black" stroke-width="5"/>
<path d="M1457,7520 l60,0 l0,60 l-60,0 z" fill="green"/>
<path d="M1487,7550 l0,0" stroke="black" stroke-width="5"/>
<path d="M8604,4805 l60,0 l0,60 l-60,0 z" fill="green"/>
<path d="M8634,4835 l-307,0.5" stroke="black" stroke-width="5"/>
<path d="M9301,3135 l60,0 l0,60 l-60,0 z" fill="green"/>
<path d="M9331,3165 l0.5,0" stroke="black" stroke-width="5"/>
<path d="M3428,6506 l60,0 l0,60 l-60,0 z" fill="green"/>
<path d="M3458,6536 l0.5,0.5" stroke="black" stroke-width="5"/>
<path d="M4872,7994 l60,0 l0,60 l-60,0 z" fill="green"/>
<path d="M4902,8024 l-21,0.5" stroke="black" stroke-width="5"/>
<path d="M6405,6996 l60,0 l0,60 l-60,0 z" fill="green"/>
<path d="M6435,7026 l-72,-393" stroke="black" stroke-width="5"/>
<path d="M1805,8566 l60,0 l0,60 l-60,0 z" fill="green"/>
<path d="M1835,8596 l361,-180.5" stroke="black" stroke-width="5"/>
<path d="M7860,9652 l60,0 l0,60 l-60,0 z" fill="green"/>
<path d="M7890,9682 l-117.5,-18.5" stroke="black" stroke-width="5"/>
<path d="M8353,1566 l60,0 l0,60 l-60,0 z" fill="green"/>
<path d="M8383,1596 l0.5,0.5" stroke="black" stroke-width="5"/>
<path d="M927,4142 l60,0 l0,60 l-60,0 z" fill="green"/>
<path d="M957,4172 l105.5,0.5" stroke="black" stroke-width="5"/>
<path d="M3429,5491 l60,0 l0,60 l-60,0 z" fill="green"/>
<path d="M3459,5521 l34,110.5" stroke="black" stroke-width="5"/>
<path d="M473,5216 l60,0 l0,60 l-60,0 z" fill="green"/>
<path d="M503,5246 l0.5,0" stroke="black" stroke-width="5"/>
<path d="M7434,7867 l60,0 l0,60 l-60,0 z" fill="green"/>
<path d="M7464,7897 l0,-95" stroke="black" stroke-width="5"/>
<path d="M6233,2342 l60,0 l0,60 l-60,0 z" fill="green"/>
<path d="M6263,2372 l0.5,338.5" stroke="black" stroke-width="5"/>
<path d="M750,4224 l60,0 l0,60 l-60,0 z" fill="green"/>
<path d="M780,4254 l-301.5,-368" stroke="black" stroke-width="5"/>
<path d="M5941,8680 l60,0 l0,60 l-60,0 z" fill="green"/>
<path d="M5971,8710 l0,0.5" stroke="black" stroke-width="5"/>
<path d="M5787,2452 l60,0 l0,60 l-60,0 z" fill="green"/>
<path d="M5817,2482 l21.5,0.5" stroke="black" stroke-width="5"/>
<path d="M9466,7615 l60,0 l0,60 l-60,0 z" fill="green"/>
<path d="M9496,7645 l0.5,-129" stroke="black" stroke-width="5"/>
<path d="M3816,2208 l60,0 l0,60 l-60,0 z" fill="green"/>
<path d="M3846,2238 l304,-380.5" stroke="black" stroke-width="5"/>
<path d="M2215,9785 l60,0 l0,60 l-60,0 z" fill="green"/>
<path d="M2245,9815 l832.5,-327" stroke="black" stroke-width="5"/>
<path d="M6457,2752 l60,0 l0,60 l-60,0 z" fill="green"/>
<path d="M6487,2782 l157.5,0.5" stroke="black" stroke-width="5"/>
<path d="M7318,8564 l60,0 l0,60 l-60,0 z" fill="green"/>
<path d="M7348,8594 l-147,366.5" stroke="black" stroke-width="5"/>
<path d="M3218,4329 l60,0 l0,60 l-60,0 z" fill="green"/>
<path d="M3248,4359 l-74,0" stroke="black" stroke-width="5"/>
<path d="M509,3244 l60,0 l0,60 l-60,0 z" fill="green"/>
<path d="M539,3274 l579,-196" stroke="black" stroke-width="5"/>
<path d="M4366,3367 l60,0 l0,60 l-60,0 z" fill="green"/>
<path d="M4396,3397 l-110.5,-578.5" stroke="black" stroke-width="5"/>
<path d="M5542,4196 l60,0 l0,60 l-60,0 z" fill="green"/>
<path d="M5572,4226 l150.5,-20" stroke="black" stroke-width="5"/>
<path d="M959,1317 l60,0 l0,60 l-60,0 z" fill="green"/>
<path d="M989,1347 l385.5,0" stroke="black" stroke-width="5"/>
<path d="M9390,9581 l60,0 l0,60 l-60,0 z" fill="green"/>
<path d="M9420,9611 l-415,-45" stroke="black" stroke-width="5"/>
<path d="M1882,4019 l60,0 l0,60 l-60,0 z" fill="green"/>
<path d="M1912,4049 l115,-40" stroke="black" stroke-width="5"/>
<path d="M808,9339 l60,0 l0,60 l-60,0 z" fill="green"/>
<path d="M838,9369 l0,0.5" stroke="black" stroke-width="5"/>
<path d="M140,1163 l60,0 l0,60 l-60,0 z" fill="green"/>
<path d="M170,1193 l219.5,0" stroke="black" stroke-width="5"/>
<path d="M6259,7043 l60,0 l0,60 l-60,0 z" fill="green"/>
<path d="M6289,7073 l0.5,-328" stroke="black" stroke-width="5"/>
<path d="M8123,934 l60,0 l0,60 l-60,0 z" fill="green"/>
<path d="M8153,964 l77,0.5" stroke="black" stroke-width="5"/>
<text font-size="152.49857033260466" text-anchor="middle" x="1135" y="6371.374499616411">
0
</text>
<text font-size="152.49857033260466" text-anchor="middle" x="3872.5" y="6680.374499616411">
1
</text>
<text font-size="152.49857033260466" text-anchor="middle" x="5878.5" y="6908.874499616411">
2
</text>
<text font-size="152.49857033260466" text-anchor="middle" x="6654" y="4801.874499616411">
3
</text>
<text font-size="152.49857033260466" text-anchor="middle" x="6644.5" y="3113.3744996164114">
4
</text>
<text font-size="152.49857033260466" text-anchor="middle" x="3675.5" y="8381.374499616411">
5
</text>
<text font-size="152.49857033260466" text-anchor="middle" x="2463.5" y="1624.8744996164116">
6
</text>
<text font-size="152.49857033260466" text-anchor="middle" x="3832.5" y="4279.374499616411">
7
</text>
<text font-size="152.49857033260466" text-anchor="middle" x="9183.5" y="1018.3744996164116">
8
</text>
<text font-size="152.49857033260466" text-anchor="middle" x="2662.5" y="3742.3744996164114">
9
</text>
<text font-size="152.49857033260466" text-anchor="middle" x="7434.5" y="2158.3744996164114">
10
</text>
<text font-size="152.49857033260466" text-anchor="middle" x="8593.5" y="362.37449961641164">
11
</text>
<text font-size="152.49857033260466" text-anchor="middle" x="4205" y="4288.374499616411">
12
</text>
<text font-size="152.49857033260466" text-anchor="middle" x="8397.5" y="2369.3744996164114">
13
</text>
<text font-size="152.49857033260466" text-anchor="middle" x="9464.5" y="362.37449961641164">
14
</text>
<text font-size="152.49857033260466" text-anchor="middle" x="5040" y="9726.874499616411">
15
</text>
<text font-size="152.49857033260466" text-anchor="middle" x="3523.5" y="1157.8744996164116">
16
</text>
<text font-size="152.49857033260466" text-anchor="middle" x="2885.5" y="4957.374499616411">
17
</text>
<text font-size="152.49857033260466" text-anchor="middle" x="6768.5" y="3870.3744996164114">
18
</text>
<text font-size="152.49857033260466" text-anchor="middle" x="2864" y="7356.874499616411">
19
</text>
<text font-size="152.49857033260466" text-anchor="middle" x="8014" y="1550.3744996164116">
20
</text>
<text font-size="152.49857033260466" text-anchor="middle" x="9081" y="8442.374499616411">
21
</text>
<text font-size="152.49857033260466" text-anchor="middle" x="5875.5" y="4629.374499616411">
22
</text>
<text font-size="152.49857033260466" text-anchor="middle" x="6770" y="7292.874499616411">
23
</text>
<text font-size="152.49857033260466" text-anchor="middle" x="4589.5" y="1346.3744996164116">
24
</text>
<text font-size="152.49857033260466" text-anchor="middle" x="5081.5" y="5907.374499616411">
25
</text>
<text font-size="152.49857033260466" text-anchor="middle" x="4397.5" y="6297.374499616411">
26
</text>
<text font-size="152.49857033260466" text-anchor="middle" x="2456" y="1244.3744996164116">
27
</text>
<text font-size="152.49857033260466" text-anchor="middle" x="1560.5" y="4236.874499616411">
28
</text>
<text font-size="152.49857033260466" text-anchor="middle" x="8943" y="4873.874499616411">
29
</text>
<text font-size="152.49857033260466" text-anchor="middle" x="7931.5" y="4244.874499616411">
30
</text>
<text font-size="152.49857033260466" text-anchor="middle" x="448" y="4846.374499616411">
31
</text>
<text font-size="152.49857033260466" text-anchor="middle" x="5069.5" y="1752.3744996164116">
32
</text>
<text font-size="152.49857033260466" text-anchor="middle" x="5838" y="594.8744996164116">
33
</text>
<text font-size="152.49857033260466" text-anchor="middle" x="6644.5" y="2359.3744996164114">
34
</text>
<text font-size="152.49857033260466" text-anchor="middle" x="9388" y="2203.3744996164114">
35
</text>
<text font-size="152.49857033260466" text-anchor="middle" x="7445.5" y="592.8744996164116">
36
</text>
<text font-size="152.49857033260466" text-anchor="middle" x="7277" y="8383.374499616411">
37
</text>
<text font-size="152.49857033260466" text-anchor="middle" x="9894" y="232.37449961641164">
38
</text>
<text font-size="152.49857033260466" text-anchor="middle" x="7087" y="5761.374499616411">
39
</text>
<text font-size="152.49857033260466" text-anchor="middle" x="2104" y="7366.874499616411">
40
</text>
<text font-size="152.49857033260466" text-anchor="middle" x="3347.5" y="226.87449961641164">
41
</text>
<text font-size="152.49857033260466" text-anchor="middle" x="1411.5" y="5118.374499616411">
42
</text>
<text font-size="152.49857033260466" text-anchor="middle" x="2908" y="2388.8744996164114">
43
</text>
<text font-size="152.49857033260466" text-anchor="middle" x="645" y="2837.8744996164114">
44
</text>
<text font-size="152.49857033260466" text-anchor="middle" x="3883" y="3872.8744996164114">
45
</text>
<text font-size="152.49857033260466" text-anchor="middle" x="9576" y="4955.874499616411">
46
</text>
<text font-size="152.49857033260466" text-anchor="middle" x="6700" y="6587.874499616411">
47
</text>
<text font-size="152.49857033260466" text-anchor="middle" x="7993" y="7459.874499616411">
48
</text>
<text font-size="152.49857033260466" text-anchor="middle" x="2406" y="5194.874499616411">
49
</text>
<text font-size="152.49857033260466" text-anchor="middle" x="4889.5" y="4288.374499616411">
50
</text>
<text font-size="152.49857033260466" text-anchor="middle" x="7273.5" y="1224.8744996164116">
51
</text>
<text font-size="152.49857033260466" text-anchor="middle" x="9169.5" y="3830.3744996164114">
52
</text>
<text font-size="152.49857033260466" text-anchor="middle" x="1487" y="7603.374499616411">
53
</text>
<text font-size="152.49857033260466" text-anchor="middle" x="8327" y="4888.874499616411">
54
</text>
<text font-size="152.49857033260466" text-anchor="middle" x="9331.5" y="3218.3744996164114">
55
</text>
<text font-size="152.49857033260466" text-anchor="middle" x="3458.5" y="6589.874499616411">
56
</text>
<text font-size="152.49857033260466" text-anchor="middle" x="4881" y="8077.874499616411">
57
</text>
<text font-size="152.49857033260466" text-anchor="middle" x="6363" y="6686.374499616411">
58
</text>
<text font-size="152.49857033260466" text-anchor="middle" x="2196" y="8468.874499616411">
59
</text>
<text font-size="152.49857033260466" text-anchor="middle" x="7772.5" y="9716.874499616411">
60
</text>
<text font-size="152.49857033260466" text-anchor="middle" x="8383.5" y="1649.8744996164116">
61
</text>
<text font-size="152.49857033260466" text-anchor="middle" x="1062.5" y="4225.874499616411">
62
</text>
<text font-size="152.49857033260466" text-anchor="middle" x="3493" y="5684.874499616411">
63
</text>
<text font-size="152.49857033260466" text-anchor="middle" x="503.5" y="5299.374499616411">
64
</text>
<text font-size="152.49857033260466" text-anchor="middle" x="7464" y="7855.374499616411">
65
</text>
<text font-size="152.49857033260466" text-anchor="middle" x="6263.5" y="2763.8744996164114">
66
</text>
<text font-size="152.49857033260466" text-anchor="middle" x="478.5" y="3939.3744996164114">
67
</text>
<text font-size="152.49857033260466" text-anchor="middle" x="5971" y="8763.874499616411">
68
</text>
<text font-size="152.49857033260466" text-anchor="middle" x="5838.5" y="2535.8744996164114">
69
</text>
<text font-size="152.49857033260466" text-anchor="middle" x="9496.5" y="7569.374499616411">
70
</text>
<text font-size="152.49857033260466" text-anchor="middle" x="4150" y="1910.8744996164116">
71
</text>
<text font-size="152.49857033260466" text-anchor="middle" x="3077.5" y="9541.374499616411">
72
</text>
<text font-size="152.49857033260466" text-anchor="middle" x="6644.5" y="2835.8744996164114">
73
</text>
<text font-size="152.49857033260466" text-anchor="middle" x="7201" y="9013.874499616411">
74
</text>
<text font-size="152.49857033260466" text-anchor="middle" x="3174" y="4412.374499616411">
75
</text>
<text font-size="152.49857033260466" text-anchor="middle" x="1118" y="3131.3744996164114">
76
</text>
<text font-size="152.49857033260466" text-anchor="middle" x="4285.5" y="2871.8744996164114">
77
</text>
<text font-size="152.49857033260466" text-anchor="middle" x="5722.5" y="4259.374499616411">
78
</text>
<text font-size="152.49857033260466" text-anchor="middle" x="1374.5" y="1400.3744996164116">
79
</text>
<text font-size="152.49857033260466" text-anchor="middle" x="9005" y="9619.374499616411">
80
</text>
<text font-size="152.49857033260466" text-anchor="middle" x="2027" y="4062.3744996164114">
81
</text>
<text font-size="152.49857033260466" text-anchor="middle" x="838" y="9422.874499616411">
82
</text>
<text font-size="152.49857033260466" text-anchor="middle" x="389.5" y="1246.3744996164116">
83
</text>
<text font-size="152.49857033260466" text-anchor="middle" x="6289.5" y="6798.374499616411">
84
</text>
<text font-size="152.49857033260466" text-anchor="middle" x="8230" y="1017.8744996164116">
85
</text>
</svg>