<svg viewBox="-100 -100 10200 10200" xmlns="http://www.w3.org/2000/svg">
<path d="M0,0 l10000,0 l0,10000 l-10000,0 z" fill="white"/>
<path d="M2045,0 l1581,0 l0,1097 l-1581,0 z" fill="#6f00ff" stroke="black" stroke-width="5"/>
<path d="M3960,6706 l737,0 l0,736 l-737,0 z" fill="#fe00ff" stroke="black" stroke-width="5"/>
<path d="M2810,2278 l715,0 l0,1022 l-715,0 z" fill="#bb00ff" stroke="black" stroke-width="5"/>
<path d="M945,2160 l7545,0 l0,1 l-7545,0 z" fill="#0000ff" stroke="black" stroke-width="5"/>
<path d="M8022,3184 l1953,0 l0,1816 l-1953,0 z" fill="#fe00ff" stroke="black" stroke-width="5"/>
<path d="M6141,732 l290,0 l0,290 l-290,0 z" fill="#fe00ff" stroke="black" stroke-width="5"/>
<path d="M4724,8891 l3992,0 l0,774 l-3992,0 z" fill="#fe00ff" stroke="black" stroke-width="5"/>
<path d="M7291,7112 l609,0 l0,608 l-609,0 z" fill="#fe00ff" stroke="black" stroke-width="5"/>
<path d="M5920,2547 l376,0 l0,646 l-376,0 z" fill="#fe00ff" stroke="black" stroke-width="5"/>
<path d="M2918,3766 l607,0 l0,877 l-607,0 z" fill="#fe00ff" stroke="black" stroke-width="5"/>
<path d="M8181,1056 l1819,0 l0,848 l-1819,0 z" fill="#fe00ff" stroke="black" stroke-width="5"/>
<path d="M2948,5089 l330,0 l0,330 l-330,0 z" fill="#fe00ff" stroke="black" stroke-width="5"/>
<path d="M1337,3175 l1233,0 l0,1185 l-1233,0 z" fill="#fe00ff" stroke="black" stroke-width="5"/>
<path d="M3525,3978 l136,0 l0,4427 l-136,0 z" fill="#6700ff" stroke="black" stroke-width="5"/>
<path d="M6704,7720 l2293,0 l0,1171 l-2293,0 z" fill="#fe00ff" stroke="black" stroke-width="5"/>
<path d="M2685,4643 l263,0 l0,3762 l-263,0 z" fill="#fe00ff" stroke="black" stroke-width="5"/>
<path d="M6480,9665 l3520,0 l0,335 l-3520,0 z" fill="#fe00ff" stroke="black" stroke-width="5"/>
<path d="M6705,2161 l387,0 l0,336 l-387,0 z" fill="#fe00ff" stroke="black" stroke-width="5"/>
<path d="M2310,8405 l1331,0 l0,898 l-1331,0 z" fill="#fe00ff" stroke="black" stroke-width="5"/>
<path d="M4958,750 l616,0 l0,615 l-616,0 z" fill="#fe00ff" stroke="black" stroke-width="5"/>
<path d="M307,1097 l2687,0 l0,948 l-2687,0 z" fill="#fe00ff" stroke="black" stroke-width="5"/>
<path d="M2013,2379 l797,0 l0,796 l-797,0 z" fill="#fe00ff" stroke="black" stroke-width="5"/>
<path d="M4272,2572 l936,0 l0,1406 l-936,0 z" fill="#fe00ff" stroke="black" stroke-width="5"/>
<path d="M2948,5419 l577,0 l0,2986 l-577,0 z" fill="#dd00ff" stroke="black" stroke-width="5"/>
<path d="M5490,3918 l894,0 l0,1541 l-894,0 z" fill="#fe00ff" stroke="black" stroke-width="5"/>
<path d="M8997,8355 l537,0 l0,536 l-537,0 z" fill="#fe00ff" stroke="black" stroke-width="5"/>
<path d="M9328,201 l672,0 l0,855 l-672,0 z" fill="#fe00ff" stroke="black" stroke-width="5"/>
<path d="M4506,4172 l601,0 l0,600 l-601,0 z" fill="#fe00ff" stroke="black" stroke-width="5"/>
<path d="M5348,6482 l1371,0 l0,966 l-1371,0 z" fill="#fe00ff" stroke="black" stroke-width="5"/>
<path d="M0,8118 l560,0 l0,634 l-560,0 z" fill="#fe00ff" stroke="black" stroke-width="5"/>
<path d="M1536,6562 l466,0 l0,466 l-466,0 z" fill="#fe00ff" stroke="black" stroke-width="5"/>
<path d="M3525,2278 l747,0 l0,886 l-747,0 z" fill="#1100ff" stroke="black" stroke-width="5"/>
<path d="M5327,5459 l770,0 l0,1023 l-770,0 z" fill="#5c00ff" stroke="black" stroke-width="5"/>
<path d="M9206,5859 l794,0 l0,1101 l-794,0 z" fill="#4600ff" stroke="black" stroke-width="5"/>
<path d="M1143,226 l902,0 l0,871 l-902,0 z" fill="#fe00ff" stroke="black" stroke-width="5"/>
<path d="M2918,3300 l607,0 l0,466 l-607,0 z" fill="#0300ff" stroke="black" stroke-width="5"/>
<path d="M7268,6211 l697,0 l0,575 l-697,0 z" fill="#fe00ff" stroke="black" stroke-width="5"/>
<path d="M3661,3978 l845,0 l0,1147 l-845,0 z" fill="#fe00ff" stroke="black" stroke-width="5"/>
<path d="M8490,1904 l811,0 l0,810 l-811,0 z" fill="#fe00ff" stroke="black" stroke-width="5"/>
<path d="M945,2161 l5760,0 l0,117 l-5760,0 z" fill="#5c00ff" stroke="black" stroke-width="5"/>
<path d="M1344,8822 l349,0 l0,349 l-349,0 z" fill="#fe00ff" stroke="black" stroke-width="5"/>
<path d="M0,2045 l945,0 l0,1100 l-945,0 z" fill="#fe00ff" stroke="black" stroke-width="5"/>
<path d="M2570,3300 l348,0 l0,1343 l-348,0 z" fill="#1000ff" stroke="black" stroke-width="5"/>
<path d="M6296,2278 l88,0 l0,1640 l-88,0 z" fill="#0000ff" stroke="black" stroke-width="5"/>
<path d="M6384,2497 l1638,0 l0,2337 l-1638,0 z" fill="#fe00ff" stroke="black" stroke-width="5"/>
<path d="M3626,94 l914,0 l0,913 l-914,0 z" fill="#fe00ff" stroke="black" stroke-width="5"/>
<path d="M5107,4198 l383,0 l0,1038 l-383,0 z" fill="#fe00ff" stroke="black" stroke-width="5"/>
<path d="M6766,983 l1328,0 l0,1177 l-1328,0 z" fill="#fe00ff" stroke="black" stroke-width="5"/>
<path d="M4640,5540 l687,0 l0,687 l-687,0 z" fill="#fe00ff" stroke="black" stroke-width="5"/>
<path d="M8836,8891 l1164,0 l0,774 l-1164,0 z" fill="#fe00ff" stroke="black" stroke-width="5"/>
<path d="M3525,3164 l747,0 l0,814 l-747,0 z" fill="#fe00ff" stroke="black" stroke-width="5"/>
<path d="M1050,2278 l287,0 l0,4750 l-287,0 z" fill="#6b00ff" stroke="black" stroke-width="5"/>
<path d="M4540,0 l1601,0 l0,750 l-1601,0 z" fill="#3d00ff" stroke="black" stroke-width="5"/>
<path d="M0,3591 l1050,0 l0,1853 l-1050,0 z" fill="#fe00ff" stroke="black" stroke-width="5"/>
<path d="M9037,6960 l963,0 l0,1395 l-963,0 z" fill="#fe00ff" stroke="black" stroke-width="5"/>
<path d="M3661,5125 l979,0 l0,1581 l-979,0 z" fill="#7100ff" stroke="black" stroke-width="5"/>
<path d="M2322,5440 l363,0 l0,363 l-363,0 z" fill="#fe00ff" stroke="black" stroke-width="5"/>
<path d="M1027,7028 l1336,0 l0,993 l-1336,0 z" fill="#fe00ff" stroke="black" stroke-width="5"/>
<path d="M8542,5000 l861,0 l0,859 l-861,0 z" fill="#ff00ff" stroke="black" stroke-width="5"/>
<path d="M7965,5859 l1241,0 l0,1101 l-1241,0 z" fill="#3d00ff" stroke="black" stroke-width="5"/>
<path d="M7192,5714 l497,0 l0,497 l-497,0 z" fill="#fe00ff" stroke="black" stroke-width="5"/>
<path d="M0,9303 l4724,0 l0,697 l-4724,0 z" fill="#f500ff" stroke="black" stroke-width="5"/>
<path d="M6097,5459 l1023,0 l0,1023 l-1023,0 z" fill="#fe00ff" stroke="black" stroke-width="5"/>
<path d="M3023,532 l60,0 l0,60 l-60,0 z" fill="green"/>
<path d="M3053,562 l-217.5,-13.5" stroke="black" stroke-width="5"/>
<path d="M4298,7044 l60,0 l0,60 l-60,0 z" fill="green"/>
<path d="M4328,7074 l0.5,0" stroke="black" stroke-width="5"/>
<path d="M2969,2740 l60,0 l0,60 l-60,0 z" fill="green"/>
<path d="M2999,2770 l168.5,19" stroke="black" stroke-width="5"/>
<path d="M6927,2130 l60,0 l0,60 l-60,0 z" fill="green"/>
<path d="M6957,2160 l-2239.5,0.5" stroke="black" stroke-width="5"/>
<path d="M8968,4130 l60,0 l0,60 l-60,0 z" fill="green"/>
<path d="M8998,4160 l0.5,-68" stroke="black" stroke-width="5"/>
<path d="M6256,847 l60,0 l0,60 l-60,0 z" fill="green"/>
<path d="M6286,877 l0,0" stroke="black" stroke-width="5"/>
<path d="M6690,8932 l60,0 l0,60 l-60,0 z" fill="green"/>
<path d="M6720,8962 l0,316" stroke="black" stroke-width="5"/>
<path d="M7565,7386 l60,0 l0,60 l-60,0 z" fill="green"/>
<path d="M7595,7416 l0.5,0" stroke="black" stroke-width="5"/>
<path d="M6212,2840 l60,0 l0,60 l-60,0 z" fill="green"/>
<path d="M6242,2870 l-134,0" stroke="black" stroke-width="5"/>
<path d="M3056,4174 l60,0 l0,60 l-60,0 z" fill="green"/>
<path d="M3086,4204 l135.5,0.5" stroke="black" stroke-width="5"/>
<path d="M9308,1248 l60,0 l0,60 l-60,0 z" fill="green"/>
<path d="M9338,1278 l-247.5,202" stroke="black" stroke-width="5"/>
<path d="M3083,5224 l60,0 l0,60 l-60,0 z" fill="green"/>
<path d="M3113,5254 l0,0" stroke="black" stroke-width="5"/>
<path d="M1915,3706 l60,0 l0,60 l-60,0 z" fill="green"/>
<path d="M1945,3736 l8.5,31.5" stroke="black" stroke-width="5"/>
<path d="M3546,3948 l60,0 l0,60 l-60,0 z" fill="green"/>
<path d="M3576,3978 l17,2213.5" stroke="black" stroke-width="5"/>
<path d="M7954,7805 l60,0 l0,60 l-60,0 z" fill="green"/>
<path d="M7984,7835 l-133.5,470.5" stroke="black" stroke-width="5"/>
<path d="M2672,5558 l60,0 l0,60 l-60,0 z" fill="green"/>
<path d="M2702,5588 l114.5,936" stroke="black" stroke-width="5"/>
<path d="M8737,9822 l60,0 l0,60 l-60,0 z" fill="green"/>
<path d="M8767,9852 l-527,-19.5" stroke="black" stroke-width="5"/>
<path d="M6868,2274 l60,0 l0,60 l-60,0 z" fill="green"/>
<path d="M6898,2304 l0.5,25" stroke="black" stroke-width="5"/>
<path d="M2945,8608 l60,0 l0,60 l-60,0 z" fill="green"/>
<path d="M2975,8638 l0.5,216" stroke="black" stroke-width="5"/>
<path d="M5236,1027 l60,0 l0,60 l-60,0 z" fill="green"/>
<path d="M5266,1057 l0,0.5" stroke="black" stroke-width="5"/>
<path d="M1620,1067 l60,0 l0,60 l-60,0 z" fill="green"/>
<path d="M1650,1097 l0.5,474" stroke="black" stroke-width="5"/>
<path d="M2381,2747 l60,0 l0,60 l-60,0 z" fill="green"/>
<path d="M2411,2777 l0.5,0" stroke="black" stroke-width="5"/>
<path d="M4452,3269 l60,0 l0,60 l-60,0 z" fill="green"/>
<path d="M4482,3299 l258,-24" stroke="black" stroke-width="5"/>
<path d="M3021,5924 l60,0 l0,60 l-60,0 z" fill="green"/>
<path d="M3051,5954 l185.5,958" stroke="black" stroke-width="5"/>
<path d="M5460,4781 l60,0 l0,60 l-60,0 z" fill="green"/>
<path d="M5490,4811 l447,-122.5" stroke="black" stroke-width="5"/>
<path d="M9235,8593 l60,0 l0,60 l-60,0 z" fill="green"/>
<path d="M9265,8623 l0.5,0" stroke="black" stroke-width="5"/>
<path d="M9725,598 l60,0 l0,60 l-60,0 z" fill="green"/>
<path d="M9755,628 l-91,0.5" stroke="black" stroke-width="5"/>
<path d="M4776,4442 l60,0 l0,60 l-60,0 z" fill="green"/>
<path d="M4806,4472 l0.5,0" stroke="black" stroke-width="5"/>
<path d="M6003,6733 l60,0 l0,60 l-60,0 z" fill="green"/>
<path d="M6033,6763 l0.5,202" stroke="black" stroke-width="5"/>
<path d="M212,8405 l60,0 l0,60 l-60,0 z" fill="green"/>
<path d="M242,8435 l38,0" stroke="black" stroke-width="5"/>
<path d="M1739,6765 l60,0 l0,60 l-60,0 z" fill="green"/>
<path d="M1769,6795 l0,0" stroke="black" stroke-width="5"/>
<path d="M3731,3133 l60,0 l0,60 l-60,0 z" fill="green"/>
<path d="M3761,3163 l137.5,-442" stroke="black" stroke-width="5"/>
<path d="M5685,5888 l60,0 l0,60 l-60,0 z" fill="green"/>
<path d="M5715,5918 l-3,52.5" stroke="black" stroke-width="5"/>
<path d="M9453,6087 l60,0 l0,60 l-60,0 z" fill="green"/>
<path d="M9483,6117 l120,292.5" stroke="black" stroke-width="5"/>
<path d="M1564,646 l60,0 l0,60 l-60,0 z" fill="green"/>
<path d="M1594,676 l0,-14.5" stroke="black" stroke-width="5"/>
<path d="M2896,3270 l60,0 l0,60 l-60,0 z" fill="green"/>
<path d="M2926,3300 l295.5,233" stroke="black" stroke-width="5"/>
<path d="M7586,6407 l60,0 l0,60 l-60,0 z" fill="green"/>
<path d="M7616,6437 l0.5,61.5" stroke="black" stroke-width="5"/>
<path d="M4325,4401 l60,0 l0,60 l-60,0 z" fill="green"/>
<path d="M4355,4431 l-271.5,120.5" stroke="black" stroke-width="5"/>
<path d="M8865,2279 l60,0 l0,60 l-60,0 z" fill="green"/>
<path d="M8895,2309 l0.5,0" stroke="black" stroke-width="5"/>
<path d="M2867,2247 l60,0 l0,60 l-60,0 z" fill="green"/>
<path d="M2897,2277 l928,-57.5" stroke="black" stroke-width="5"/>
<path d="M1488,8966 l60,0 l0,60 l-60,0 z" fill="green"/>
<path d="M1518,8996 l0.5,0.5" stroke="black" stroke-width="5"/>
<path d="M365,2565 l60,0 l0,60 l-60,0 z" fill="green"/>
<path d="M395,2595 l77.5,0" stroke="black" stroke-width="5"/>
<path d="M2887,4320 l60,0 l0,60 l-60,0 z" fill="green"/>
<path d="M2917,4350 l-173,-378.5" stroke="black" stroke-width="5"/>
<path d="M6266,2822 l60,0 l0,60 l-60,0 z" fill="green"/>
<path d="M6296,2852 l44,246" stroke="black" stroke-width="5"/>
<path d="M7106,3609 l60,0 l0,60 l-60,0 z" fill="green"/>
<path d="M7136,3639 l67,26.5" stroke="black" stroke-width="5"/>
<path d="M4053,520 l60,0 l0,60 l-60,0 z" fill="green"/>
<path d="M4083,550 l0,0.5" stroke="black" stroke-width="5"/>
<path d="M5111,4687 l60,0 l0,60 l-60,0 z" fill="green"/>
<path d="M5141,4717 l157.5,0" stroke="black" stroke-width="5"/>
<path d="M7400,1616 l60,0 l0,60 l-60,0 z" fill="green"/>
<path d="M7430,1646 l0,-74.5" stroke="black" stroke-width="5"/>
<path d="M4953,5853 l60,0 l0,60 l-60,0 z" fill="green"/>
<path d="M4983,5883 l0.5,0.5" stroke="black" stroke-width="5"/>
<path d="M9401,9040 l60,0 l0,60 l-60,0 z" fill="green"/>
<path d="M9431,9070 l-13,208" stroke="black" stroke-width="5"/>
<path d="M3595,3680 l60,0 l0,60 l-60,0 z" fill="green"/>
<path d="M3625,3710 l273.5,-139" stroke="black" stroke-width="5"/>
<path d="M1306,4052 l60,0 l0,60 l-60,0 z" fill="green"/>
<path d="M1336,4082 l-142.5,571" stroke="black" stroke-width="5"/>
<path d="M5328,439 l60,0 l0,60 l-60,0 z" fill="green"/>
<path d="M5358,469 l-17.5,-94" stroke="black" stroke-width="5"/>
<path d="M94,4487 l60,0 l0,60 l-60,0 z" fill="green"/>
<path d="M124,4517 l401,0.5" stroke="black" stroke-width="5"/>
<path d="M9767,7689 l60,0 l0,60 l-60,0 z" fill="green"/>
<path d="M9797,7719 l-278.5,-61.5" stroke="black" stroke-width="5"/>
<path d="M4119,5145 l60,0 l0,60 l-60,0 z" fill="green"/>
<path d="M4149,5175 l1.5,740.5" stroke="black" stroke-width="5"/>
<path d="M2473,5591 l60,0 l0,60 l-60,0 z" fill="green"/>
<path d="M2503,5621 l0.5,0.5" stroke="black" stroke-width="5"/>
<path d="M1665,7323 l60,0 l0,60 l-60,0 z" fill="green"/>
<path d="M1695,7353 l0,171.5" stroke="black" stroke-width="5"/>
<path d="M8942,5399 l60,0 l0,60 l-60,0 z" fill="green"/>
<path d="M8972,5429 l0.5,0.5" stroke="black" stroke-width="5"/>
<path d="M9175,6277 l60,0 l0,60 l-60,0 z" fill="green"/>
<path d="M9205,6307 l-619.5,102.5" stroke="black" stroke-width="5"/>
<path d="M7410,5932 l60,0 l0,60 l-60,0 z" fill="green"/>
<path d="M7440,5962 l0.5,0.5" stroke="black" stroke-width="5"/>
<path d="M2146,9932 l60,0 l0,60 l-60,0 z" fill="green"/>
<path d="M2176,9962 l186,-310.5" stroke="black" stroke-width="5"/>
<path d="M6578,5940 l60,0 l0,60 l-60,0 z" fill="green"/>
<path d="M6608,5970 l0.5,0.5" stroke="black" stroke-width="5"/>
<text font-size="178.1741612749496" text-anchor="middle" x="2835.5" y="610.8609564462323">
0
</text>
<text font-size="178.1741612749496" text-anchor="middle" x="4328.5" y="7136.360956446232">
1
</text>
<text font-size="178.1741612749496" text-anchor="middle" x="3167.5" y="2851.360956446232">
2
</text>
<text font-size="178.1741612749496" text-anchor="middle" x="4717.5" y="2222.860956446232">
3
</text>
<text font-size="178.1741612749496" text-anchor="middle" x="8998.5" y="4154.360956446232">
4
</text>
<text font-size="178.1741612749496" text-anchor="middle" x="6286" y="939.3609564462323">
5
</text>
<text font-size="178.1741612749496" text-anchor="middle" x="6720" y="9340.360956446233">
6
</text>
<text font-size="178.1741612749496" text-anchor="middle" x="7595.5" y="7478.360956446232">
7
</text>
<text font-size="178.1741612749496" text-anchor="middle" x="6108" y="2932.360956446232">
8
</text>
<text font-size="178.1741612749496" text-anchor="middle" x="3221.5" y="4266.860956446232">
9
</text>
<text font-size="178.1741612749496" text-anchor="middle" x="9090.5" y="1542.3609564462324">
10
</text>
<text font-size="178.1741612749496" text-anchor="middle" x="3113" y="5316.360956446232">
11
</text>
<text font-size="178.1741612749496" text-anchor="middle" x="1953.5" y="3829.860956446232">
12
</text>
<text font-size="178.1741612749496" text-anchor="middle" x="3593" y="6253.860956446232">
13
</text>
<text font-size="178.1741612749496" text-anchor="middle" x="7850.5" y="8367.860956446233">
14
</text>
<text font-size="178.1741612749496" text-anchor="middle" x="2816.5" y="6586.360956446232">
15
</text>
<text font-size="178.1741612749496" text-anchor="middle" x="8240" y="9894.860956446233">
16
</text>
<text font-size="178.1741612749496" text-anchor="middle" x="6898.5" y="2391.360956446232">
17
</text>
<text font-size="178.1741612749496" text-anchor="middle" x="2975.5" y="8916.360956446233">
18
</text>
<text font-size="178.1741612749496" text-anchor="middle" x="5266" y="1119.8609564462324">
19
</text>
<text font-size="178.1741612749496" text-anchor="middle" x="1650.5" y="1633.3609564462324">
20
</text>
<text font-size="178.1741612749496" text-anchor="middle" x="2411.5" y="2839.360956446232">
21
</text>
<text font-size="178.1741612749496" text-anchor="middle" x="4740" y="3337.360956446232">
22
</text>
<text font-size="178.1741612749496" text-anchor="middle" x="3236.5" y="6974.360956446232">
23
</text>
<text font-size="178.1741612749496" text-anchor="middle" x="5937" y="4750.860956446232">
24
</text>
<text font-size="178.1741612749496" text-anchor="middle" x="9265.5" y="8685.360956446233">
25
</text>
<text font-size="178.1741612749496" text-anchor="middle" x="9664" y="690.8609564462323">
26
</text>
<text font-size="178.1741612749496" text-anchor="middle" x="4806.5" y="4534.360956446232">
27
</text>
<text font-size="178.1741612749496" text-anchor="middle" x="6033.5" y="7027.360956446232">
28
</text>
<text font-size="178.1741612749496" text-anchor="middle" x="280" y="8497.360956446233">
29
</text>
<text font-size="178.1741612749496" text-anchor="middle" x="1769" y="6857.360956446232">
30
</text>
<text font-size="178.1741612749496" text-anchor="middle" x="3898.5" y="2783.360956446232">
31
</text>
<text font-size="178.1741612749496" text-anchor="middle" x="5712" y="6032.860956446232">
32
</text>
<text font-size="178.1741612749496" text-anchor="middle" x="9603" y="6471.860956446232">
33
</text>
<text font-size="178.1741612749496" text-anchor="middle" x="1594" y="723.8609564462323">
34
</text>
<text font-size="178.1741612749496" text-anchor="middle" x="3221.5" y="3595.360956446232">
35
</text>
<text font-size="178.1741612749496" text-anchor="middle" x="7616.5" y="6560.860956446232">
36
</text>
<text font-size="178.1741612749496" text-anchor="middle" x="4083.5" y="4613.860956446232">
37
</text>
<text font-size="178.1741612749496" text-anchor="middle" x="8895.5" y="2371.360956446232">
38
</text>
<text font-size="178.1741612749496" text-anchor="middle" x="3825" y="2281.860956446232">
39
</text>
<text font-size="178.1741612749496" text-anchor="middle" x="1518.5" y="9058.860956446233">
40
</text>
<text font-size="178.1741612749496" text-anchor="middle" x="472.5" y="2657.360956446232">
41
</text>
<text font-size="178.1741612749496" text-anchor="middle" x="2744" y="4033.860956446232">
42
</text>
<text font-size="178.1741612749496" text-anchor="middle" x="6340" y="3160.360956446232">
43
</text>
<text font-size="178.1741612749496" text-anchor="middle" x="7203" y="3727.860956446232">
44
</text>
<text font-size="178.1741612749496" text-anchor="middle" x="4083" y="612.8609564462323">
45
</text>
<text font-size="178.1741612749496" text-anchor="middle" x="5298.5" y="4779.360956446232">
46
</text>
<text font-size="178.1741612749496" text-anchor="middle" x="7430" y="1633.8609564462324">
47
</text>
<text font-size="178.1741612749496" text-anchor="middle" x="4983.5" y="5945.860956446232">
48
</text>
<text font-size="178.1741612749496" text-anchor="middle" x="9418" y="9340.360956446233">
49
</text>
<text font-size="178.1741612749496" text-anchor="middle" x="3898.5" y="3633.360956446232">
50
</text>
<text font-size="178.1741612749496" text-anchor="middle" x="1193.5" y="4715.360956446232">
51
</text>
<text font-size="178.1741612749496" text-anchor="middle" x="5340.5" y="437.36095644623236">
52
</text>
<text font-size="178.1741612749496" text-anchor="middle" x="525" y="4579.860956446232">
53
</text>
<text font-size="178.1741612749496" text-anchor="middle" x="9518.5" y="7719.860956446232">
54
</text>
<text font-size="178.1741612749496" text-anchor="middle" x="4150.5" y="5977.860956446232">
55
</text>
<text font-size="178.1741612749496" text-anchor="middle" x="2503.5" y="5683.860956446232">
56
</text>
<text font-size="178.1741612749496" text-anchor="middle" x="1695" y="7586.860956446232">
57
</text>
<text font-size="178.1741612749496" text-anchor="middle" x="8972.5" y="5491.860956446232">
58
</text>
<text font-size="178.1741612749496" text-anchor="middle" x="8585.5" y="6471.860956446232">
59
</text>
<text font-size="178.1741612749496" text-anchor="middle" x="7440.5" y="6024.860956446232">
60
</text>
<text font-size="178.1741612749496" text-anchor="middle" x="2362" y="9713.860956446233">
61
</text>
<text font-size="178.1741612749496" text-anchor="middle" x="6608.5" y="6032.860956446232">
62
</text>
</svg>