<svg viewBox="-100 -100 10200 10200" xmlns="http://www.w3.org/2000/svg">
<path d="M0,0 l10000,0 l0,10000 l-10000,0 z" fill="white"/>
<path d="M393,9508 l471,0 l0,470 l-471,0 z" fill="#fe00ff" stroke="black" stroke-width="5"/>
<path d="M3636,1695 l2451,0 l0,232 l-2451,0 z" fill="#1000ff" stroke="black" stroke-width="5"/>
<path d="M5339,6406 l1743,0 l0,441 l-1743,0 z" fill="#eb00ff" stroke="black" stroke-width="5"/>
<path d="M3696,6339 l1017,0 l0,1170 l-1017,0 z" fill="#fe00ff" stroke="black" stroke-width="5"/>
<path d="M9038,8316 l962,0 l0,1253 l-962,0 z" fill="#fe00ff" stroke="black" stroke-width="5"/>
<path d="M4713,6175 l626,0 l0,1036 l-626,0 z" fill="#0c00ff" stroke="black" stroke-width="5"/>
<path d="M7600,3920 l1729,0 l0,809 l-1729,0 z" fill="#fe00ff" stroke="black" stroke-width="5"/>
<path d="M6087,1711 l395,0 l0,395 l-395,0 z" fill="#fe00ff" stroke="black" stroke-width="5"/>
<path d="M6463,7680 l602,0 l0,1204 l-602,0 z" fill="#fe00ff" stroke="black" stroke-width="5"/>
<path d="M6421,4814 l661,0 l0,1592 l-661,0 z" fill="#e500ff" stroke="black" stroke-width="5"/>
<path d="M9472,9569 l361,0 l0,360 l-361,0 z" fill="#fe00ff" stroke="black" stroke-width="5"/>
<path d="M1010,7200 l1341,0 l0,1340 l-1341,0 z" fill="#fe00ff" stroke="black" stroke-width="5"/>
<path d="M9643,6142 l329,0 l0,328 l-329,0 z" fill="#fe00ff" stroke="black" stroke-width="5"/>
<path d="M4825,331 l3099,0 l0,779 l-3099,0 z" fill="#e500ff" stroke="black" stroke-width="5"/>
<path d="M7445,7690 l989,0 l0,1751 l-989,0 z" fill="#fe00ff" stroke="black" stroke-width="5"/>
<path d="M8269,3090 l1661,0 l0,830 l-1661,0 z" fill="#fe00ff" stroke="black" stroke-width="5"/>
<path d="M1537,2597 l389,0 l0,3679 l-389,0 z" fill="#6c00ff" stroke="black" stroke-width="5"/>
<path d="M1926,0 l419,0 l0,1188 l-419,0 z" fill="#0300ff" stroke="black" stroke-width="5"/>
<path d="M3280,8666 l1180,0 l0,1179 l-1180,0 z" fill="#fe00ff" stroke="black" stroke-width="5"/>
<path d="M9153,0 l847,0 l0,3090 l-847,0 z" fill="#fd00ff" stroke="black" stroke-width="5"/>
<path d="M8455,6716 l983,0 l0,1318 l-983,0 z" fill="#fe00ff" stroke="black" stroke-width="5"/>
<path d="M6612,2304 l865,0 l0,868 l-865,0 z" fill="#fe00ff" stroke="black" stroke-width="5"/>
<path d="M4825,0 l457,0 l0,331 l-457,0 z" fill="#fe00ff" stroke="black" stroke-width="5"/>
<path d="M3696,5496 l524,0 l0,843 l-524,0 z" fill="#2800ff" stroke="black" stroke-width="5"/>
<path d="M6724,4148 l667,0 l0,666 l-667,0 z" fill="#fe00ff" stroke="black" stroke-width="5"/>
<path d="M5555,1110 l2369,0 l0,445 l-2369,0 z" fill="#3b00ff" stroke="black" stroke-width="5"/>
<path d="M2858,853 l778,0 l0,1529 l-778,0 z" fill="#fe00ff" stroke="black" stroke-width="5"/>
<path d="M4220,4930 l1246,0 l0,1245 l-1246,0 z" fill="#fe00ff" stroke="black" stroke-width="5"/>
<path d="M4957,1110 l598,0 l0,585 l-598,0 z" fill="#fe00ff" stroke="black" stroke-width="5"/>
<path d="M9587,6696 l395,0 l0,395 l-395,0 z" fill="#fe00ff" stroke="black" stroke-width="5"/>
<path d="M8766,1344 l387,0 l0,1746 l-387,0 z" fill="#fe00ff" stroke="black" stroke-width="5"/>
<path d="M1387,2058 l539,0 l0,539 l-539,0 z" fill="#fe00ff" stroke="black" stroke-width="5"/>
<path d="M7477,2574 l608,0 l0,607 l-608,0 z" fill="#fe00ff" stroke="black" stroke-width="5"/>
<path d="M4732,7622 l1412,0 l0,706 l-1412,0 z" fill="#fe00ff" stroke="black" stroke-width="5"/>
<path d="M5573,5564 l848,0 l0,842 l-848,0 z" fill="#fe00ff" stroke="black" stroke-width="5"/>
<path d="M7082,6296 l615,0 l0,615 l-615,0 z" fill="#fe00ff" stroke="black" stroke-width="5"/>
<path d="M8391,4729 l938,0 l0,1359 l-938,0 z" fill="#fe00ff" stroke="black" stroke-width="5"/>
<path d="M0,3828 l1537,0 l0,1735 l-1537,0 z" fill="#d800ff" stroke="black" stroke-width="5"/>
<path d="M4997,7211 l1502,0 l0,411 l-1502,0 z" fill="#fe00ff" stroke="black" stroke-width="5"/>
<path d="M260,5563 l230,0 l0,229 l-230,0 z" fill="#fe00ff" stroke="black" stroke-width="5"/>
<path d="M3789,5348 l149,0 l0,148 l-149,0 z" fill="#fe00ff" stroke="black" stroke-width="5"/>
<path d="M7859,5137 l532,0 l0,531 l-532,0 z" fill="#fe00ff" stroke="black" stroke-width="5"/>
<path d="M2787,3819 l1359,0 l0,1359 l-1359,0 z" fill="#fe00ff" stroke="black" stroke-width="5"/>
<path d="M8434,8034 l604,0 l0,1535 l-604,0 z" fill="#6f00ff" stroke="black" stroke-width="5"/>
<path d="M6482,1555 l1442,0 l0,749 l-1442,0 z" fill="#fe00ff" stroke="black" stroke-width="5"/>
<path d="M4273,1927 l630,0 l0,629 l-630,0 z" fill="#fe00ff" stroke="black" stroke-width="5"/>
<path d="M2620,6771 l751,0 l0,750 l-751,0 z" fill="#fe00ff" stroke="black" stroke-width="5"/>
<path d="M1215,6276 l738,0 l0,738 l-738,0 z" fill="#fe00ff" stroke="black" stroke-width="5"/>
<path d="M5466,3920 l955,0 l0,1644 l-955,0 z" fill="#9c00ff" stroke="black" stroke-width="5"/>
<path d="M0,0 l1926,0 l0,2058 l-1926,0 z" fill="#fe00ff" stroke="black" stroke-width="5"/>
<path d="M7924,812 l842,0 l0,1103 l-842,0 z" fill="#fe00ff" stroke="black" stroke-width="5"/>
<path d="M3693,0 l1132,0 l0,1015 l-1132,0 z" fill="#fe00ff" stroke="black" stroke-width="5"/>
<path d="M9438,7091 l562,0 l0,1225 l-562,0 z" fill="#6700ff" stroke="black" stroke-width="5"/>
<path d="M8085,1915 l681,0 l0,1175 l-681,0 z" fill="#7d00ff" stroke="black" stroke-width="5"/>
<path d="M1926,1188 l932,0 l0,1159 l-932,0 z" fill="#fe00ff" stroke="black" stroke-width="5"/>
<path d="M9329,4171 l671,0 l0,729 l-671,0 z" fill="#fe00ff" stroke="black" stroke-width="5"/>
<path d="M5075,9424 l974,0 l0,576 l-974,0 z" fill="#fe00ff" stroke="black" stroke-width="5"/>
<path d="M557,2795 l980,0 l0,1033 l-980,0 z" fill="#fe00ff" stroke="black" stroke-width="5"/>
<path d="M2909,5751 l787,0 l0,1020 l-787,0 z" fill="#fe00ff" stroke="black" stroke-width="5"/>
<path d="M4481,3356 l866,0 l0,865 l-866,0 z" fill="#fe00ff" stroke="black" stroke-width="5"/>
<path d="M6049,9424 l25,0 l0,576 l-25,0 z" fill="#0000ff" stroke="black" stroke-width="5"/>
<path d="M5633,3181 l2636,0 l0,739 l-2636,0 z" fill="#fe00ff" stroke="black" stroke-width="5"/>
<path d="M3598,3209 l415,0 l0,414 l-415,0 z" fill="#fe00ff" stroke="black" stroke-width="5"/>
<path d="M7065,6911 l380,0 l0,1123 l-380,0 z" fill="#1100ff" stroke="black" stroke-width="5"/>
<path d="M6074,9569 l3398,0 l0,431 l-3398,0 z" fill="#fe00ff" stroke="black" stroke-width="5"/>
<path d="M7745,6980 l710,0 l0,710 l-710,0 z" fill="#fe00ff" stroke="black" stroke-width="5"/>
<path d="M4460,8328 l1374,0 l0,1096 l-1374,0 z" fill="#5c00ff" stroke="black" stroke-width="5"/>
<path d="M2345,0 l1348,0 l0,853 l-1348,0 z" fill="#f600ff" stroke="black" stroke-width="5"/>
<path d="M5488,6847 l408,0 l0,364 l-408,0 z" fill="#fe00ff" stroke="black" stroke-width="5"/>
<path d="M1926,2347 l571,0 l0,600 l-571,0 z" fill="#fe00ff" stroke="black" stroke-width="5"/>
<path d="M6445,8884 l620,0 l0,685 l-620,0 z" fill="#0d00ff" stroke="black" stroke-width="5"/>
<path d="M5834,8814 l611,0 l0,610 l-611,0 z" fill="#fe00ff" stroke="black" stroke-width="5"/>
<path d="M7065,8034 l380,0 l0,1194 l-380,0 z" fill="#fe00ff" stroke="black" stroke-width="5"/>
<path d="M598,9713 l60,0 l0,60 l-60,0 z" fill="green"/>
<path d="M628,9743 l0.5,0" stroke="black" stroke-width="5"/>
<path d="M5023,1665 l60,0 l0,60 l-60,0 z" fill="green"/>
<path d="M5053,1695 l-191.5,116" stroke="black" stroke-width="5"/>
<path d="M5898,6376 l60,0 l0,60 l-60,0 z" fill="green"/>
<path d="M5928,6406 l282.5,220.5" stroke="black" stroke-width="5"/>
<path d="M3882,6677 l60,0 l0,60 l-60,0 z" fill="green"/>
<path d="M3912,6707 l292.5,217" stroke="black" stroke-width="5"/>
<path d="M9768,9047 l60,0 l0,60 l-60,0 z" fill="green"/>
<path d="M9798,9077 l-279,-134.5" stroke="black" stroke-width="5"/>
<path d="M5308,6650 l60,0 l0,60 l-60,0 z" fill="green"/>
<path d="M5338,6680 l-312,13" stroke="black" stroke-width="5"/>
<path d="M8776,4698 l60,0 l0,60 l-60,0 z" fill="green"/>
<path d="M8806,4728 l-341.5,-403.5" stroke="black" stroke-width="5"/>
<path d="M6254,1878 l60,0 l0,60 l-60,0 z" fill="green"/>
<path d="M6284,1908 l0.5,0.5" stroke="black" stroke-width="5"/>
<path d="M7034,8252 l60,0 l0,60 l-60,0 z" fill="green"/>
<path d="M7064,8282 l-300,0" stroke="black" stroke-width="5"/>
<path d="M6948,6178 l60,0 l0,60 l-60,0 z" fill="green"/>
<path d="M6978,6208 l-226.5,-598" stroke="black" stroke-width="5"/>
<path d="M9622,9719 l60,0 l0,60 l-60,0 z" fill="green"/>
<path d="M9652,9749 l0.5,0" stroke="black" stroke-width="5"/>
<path d="M1650,7840 l60,0 l0,60 l-60,0 z" fill="green"/>
<path d="M1680,7870 l0.5,0" stroke="black" stroke-width="5"/>
<path d="M9777,6276 l60,0 l0,60 l-60,0 z" fill="green"/>
<path d="M9807,6306 l0.5,0" stroke="black" stroke-width="5"/>
<path d="M5116,851 l60,0 l0,60 l-60,0 z" fill="green"/>
<path d="M5146,881 l1228.5,-160.5" stroke="black" stroke-width="5"/>
<path d="M7415,8422 l60,0 l0,60 l-60,0 z" fill="green"/>
<path d="M7445,8452 l494.5,113.5" stroke="black" stroke-width="5"/>
<path d="M9069,3060 l60,0 l0,60 l-60,0 z" fill="green"/>
<path d="M9099,3090 l0.5,415" stroke="black" stroke-width="5"/>
<path d="M1507,2838 l60,0 l0,60 l-60,0 z" fill="green"/>
<path d="M1537,2868 l194.5,1568.5" stroke="black" stroke-width="5"/>
<path d="M2314,769 l60,0 l0,60 l-60,0 z" fill="green"/>
<path d="M2344,799 l-208.5,-205" stroke="black" stroke-width="5"/>
<path d="M3840,9225 l60,0 l0,60 l-60,0 z" fill="green"/>
<path d="M3870,9255 l0,0.5" stroke="black" stroke-width="5"/>
<path d="M9123,2601 l60,0 l0,60 l-60,0 z" fill="green"/>
<path d="M9153,2631 l423.5,-1086" stroke="black" stroke-width="5"/>
<path d="M8748,7345 l60,0 l0,60 l-60,0 z" fill="green"/>
<path d="M8778,7375 l168.5,0" stroke="black" stroke-width="5"/>
<path d="M7099,2624 l60,0 l0,60 l-60,0 z" fill="green"/>
<path d="M7129,2654 l-84.5,84" stroke="black" stroke-width="5"/>
<path d="M5023,73 l60,0 l0,60 l-60,0 z" fill="green"/>
<path d="M5053,103 l0.5,62.5" stroke="black" stroke-width="5"/>
<path d="M3666,6308 l60,0 l0,60 l-60,0 z" fill="green"/>
<path d="M3696,6338 l262,-420.5" stroke="black" stroke-width="5"/>
<path d="M7027,4451 l60,0 l0,60 l-60,0 z" fill="green"/>
<path d="M7057,4481 l0.5,0" stroke="black" stroke-width="5"/>
<path d="M6450,1217 l60,0 l0,60 l-60,0 z" fill="green"/>
<path d="M6480,1247 l259.5,85.5" stroke="black" stroke-width="5"/>
<path d="M2841,1587 l60,0 l0,60 l-60,0 z" fill="green"/>
<path d="M2871,1617 l376,0.5" stroke="black" stroke-width="5"/>
<path d="M4813,5522 l60,0 l0,60 l-60,0 z" fill="green"/>
<path d="M4843,5552 l0,0.5" stroke="black" stroke-width="5"/>
<path d="M5226,1379 l60,0 l0,60 l-60,0 z" fill="green"/>
<path d="M5256,1409 l0,-6.5" stroke="black" stroke-width="5"/>
<path d="M9754,6863 l60,0 l0,60 l-60,0 z" fill="green"/>
<path d="M9784,6893 l0.5,0.5" stroke="black" stroke-width="5"/>
<path d="M8989,2511 l60,0 l0,60 l-60,0 z" fill="green"/>
<path d="M9019,2541 l-59.5,-324" stroke="black" stroke-width="5"/>
<path d="M1626,2297 l60,0 l0,60 l-60,0 z" fill="green"/>
<path d="M1656,2327 l0.5,0.5" stroke="black" stroke-width="5"/>
<path d="M7751,2847 l60,0 l0,60 l-60,0 z" fill="green"/>
<path d="M7781,2877 l0,0.5" stroke="black" stroke-width="5"/>
<path d="M5408,7592 l60,0 l0,60 l-60,0 z" fill="green"/>
<path d="M5438,7622 l0,353" stroke="black" stroke-width="5"/>
<path d="M5967,5957 l60,0 l0,60 l-60,0 z" fill="green"/>
<path d="M5997,5987 l0,-2" stroke="black" stroke-width="5"/>
<path d="M7359,6573 l60,0 l0,60 l-60,0 z" fill="green"/>
<path d="M7389,6603 l0.5,0.5" stroke="black" stroke-width="5"/>
<path d="M8397,5086 l60,0 l0,60 l-60,0 z" fill="green"/>
<path d="M8427,5116 l433,292.5" stroke="black" stroke-width="5"/>
<path d="M825,4281 l60,0 l0,60 l-60,0 z" fill="green"/>
<path d="M855,4311 l-86.5,384.5" stroke="black" stroke-width="5"/>
<path d="M5718,7181 l60,0 l0,60 l-60,0 z" fill="green"/>
<path d="M5748,7211 l0,205.5" stroke="black" stroke-width="5"/>
<path d="M345,5647 l60,0 l0,60 l-60,0 z" fill="green"/>
<path d="M375,5677 l0,0.5" stroke="black" stroke-width="5"/>
<path d="M3833,5392 l60,0 l0,60 l-60,0 z" fill="green"/>
<path d="M3863,5422 l0.5,0" stroke="black" stroke-width="5"/>
<path d="M8095,5372 l60,0 l0,60 l-60,0 z" fill="green"/>
<path d="M8125,5402 l0,0.5" stroke="black" stroke-width="5"/>
<path d="M3436,4468 l60,0 l0,60 l-60,0 z" fill="green"/>
<path d="M3466,4498 l0.5,0.5" stroke="black" stroke-width="5"/>
<path d="M8999,8464 l60,0 l0,60 l-60,0 z" fill="green"/>
<path d="M9029,8494 l-293,307.5" stroke="black" stroke-width="5"/>
<path d="M7159,2273 l60,0 l0,60 l-60,0 z" fill="green"/>
<path d="M7189,2303 l14,-373.5" stroke="black" stroke-width="5"/>
<path d="M4558,2211 l60,0 l0,60 l-60,0 z" fill="green"/>
<path d="M4588,2241 l0,0.5" stroke="black" stroke-width="5"/>
<path d="M2965,7116 l60,0 l0,60 l-60,0 z" fill="green"/>
<path d="M2995,7146 l0.5,0" stroke="black" stroke-width="5"/>
<path d="M1554,6615 l60,0 l0,60 l-60,0 z" fill="green"/>
<path d="M1584,6645 l0,0" stroke="black" stroke-width="5"/>
<path d="M6143,4560 l60,0 l0,60 l-60,0 z" fill="green"/>
<path d="M6173,4590 l-229.5,152" stroke="black" stroke-width="5"/>
<path d="M157,403 l60,0 l0,60 l-60,0 z" fill="green"/>
<path d="M187,433 l776,596" stroke="black" stroke-width="5"/>
<path d="M8446,1333 l60,0 l0,60 l-60,0 z" fill="green"/>
<path d="M8476,1363 l-131,0.5" stroke="black" stroke-width="5"/>
<path d="M4318,329 l60,0 l0,60 l-60,0 z" fill="green"/>
<path d="M4348,359 l-89,148.5" stroke="black" stroke-width="5"/>
<path d="M9767,8075 l60,0 l0,60 l-60,0 z" fill="green"/>
<path d="M9797,8105 l-78,-401.5" stroke="black" stroke-width="5"/>
<path d="M8735,2661 l60,0 l0,60 l-60,0 z" fill="green"/>
<path d="M8765,2691 l-339.5,-188.5" stroke="black" stroke-width="5"/>
<path d="M2215,1770 l60,0 l0,60 l-60,0 z" fill="green"/>
<path d="M2245,1800 l147,-32.5" stroke="black" stroke-width="5"/>
<path d="M9664,4505 l60,0 l0,60 l-60,0 z" fill="green"/>
<path d="M9694,4535 l-29.5,0.5" stroke="black" stroke-width="5"/>
<path d="M5706,9500 l60,0 l0,60 l-60,0 z" fill="green"/>
<path d="M5736,9530 l-174,182" stroke="black" stroke-width="5"/>
<path d="M1043,3281 l60,0 l0,60 l-60,0 z" fill="green"/>
<path d="M1073,3311 l-26,0.5" stroke="black" stroke-width="5"/>
<path d="M3560,6402 l60,0 l0,60 l-60,0 z" fill="green"/>
<path d="M3590,6432 l-287.5,-171" stroke="black" stroke-width="5"/>
<path d="M4884,3758 l60,0 l0,60 l-60,0 z" fill="green"/>
<path d="M4914,3788 l0,0.5" stroke="black" stroke-width="5"/>
<path d="M6019,9683 l60,0 l0,60 l-60,0 z" fill="green"/>
<path d="M6049,9713 l12.5,-1" stroke="black" stroke-width="5"/>
<path d="M7824,3645 l60,0 l0,60 l-60,0 z" fill="green"/>
<path d="M7854,3675 l-903,-124.5" stroke="black" stroke-width="5"/>
<path d="M3775,3386 l60,0 l0,60 l-60,0 z" fill="green"/>
<path d="M3805,3416 l0.5,0" stroke="black" stroke-width="5"/>
<path d="M7183,8003 l60,0 l0,60 l-60,0 z" fill="green"/>
<path d="M7213,8033 l42,-560.5" stroke="black" stroke-width="5"/>
<path d="M9387,9653 l60,0 l0,60 l-60,0 z" fill="green"/>
<path d="M9417,9683 l-1644,101.5" stroke="black" stroke-width="5"/>
<path d="M8070,7305 l60,0 l0,60 l-60,0 z" fill="green"/>
<path d="M8100,7335 l0,0" stroke="black" stroke-width="5"/>
<path d="M4681,8403 l60,0 l0,60 l-60,0 z" fill="green"/>
<path d="M4711,8433 l436,443" stroke="black" stroke-width="5"/>
<path d="M3050,665 l60,0 l0,60 l-60,0 z" fill="green"/>
<path d="M3080,695 l-61,-268.5" stroke="black" stroke-width="5"/>
<path d="M5662,7020 l60,0 l0,60 l-60,0 z" fill="green"/>
<path d="M5692,7050 l0,-21" stroke="black" stroke-width="5"/>
<path d="M2166,2617 l60,0 l0,60 l-60,0 z" fill="green"/>
<path d="M2196,2647 l15.5,0" stroke="black" stroke-width="5"/>
<path d="M6617,9348 l60,0 l0,60 l-60,0 z" fill="green"/>
<path d="M6647,9378 l108,-151.5" stroke="black" stroke-width="5"/>
<path d="M6109,9089 l60,0 l0,60 l-60,0 z" fill="green"/>
<path d="M6139,9119 l0.5,0" stroke="black" stroke-width="5"/>
<path d="M7395,8403 l60,0 l0,60 l-60,0 z" fill="green"/>
<path d="M7425,8433 l-170,198" stroke="black" stroke-width="5"/>
<text font-size="165.5211777204736" text-anchor="middle" x="628.5" y="9800.932412202166">
0
</text>
<text font-size="165.5211777204736" text-anchor="middle" x="4861.5" y="1868.9324122021658">
1
</text>
<text font-size="165.5211777204736" text-anchor="middle" x="6210.5" y="6684.432412202165">
2
</text>
<text font-size="165.5211777204736" text-anchor="middle" x="4204.5" y="6981.932412202165">
3
</text>
<text font-size="165.5211777204736" text-anchor="middle" x="9519" y="9000.432412202166">
4
</text>
<text font-size="165.5211777204736" text-anchor="middle" x="5026" y="6750.932412202165">
5
</text>
<text font-size="165.5211777204736" text-anchor="middle" x="8464.5" y="4382.432412202165">
6
</text>
<text font-size="165.5211777204736" text-anchor="middle" x="6284.5" y="1966.4324122021658">
7
</text>
<text font-size="165.5211777204736" text-anchor="middle" x="6764" y="8339.932412202166">
8
</text>
<text font-size="165.5211777204736" text-anchor="middle" x="6751.5" y="5667.932412202165">
9
</text>
<text font-size="165.5211777204736" text-anchor="middle" x="9652.5" y="9806.932412202166">
10
</text>
<text font-size="165.5211777204736" text-anchor="middle" x="1680.5" y="7927.932412202165">
11
</text>
<text font-size="165.5211777204736" text-anchor="middle" x="9807.5" y="6363.932412202165">
12
</text>
<text font-size="165.5211777204736" text-anchor="middle" x="6374.5" y="778.4324122021658">
13
</text>
<text font-size="165.5211777204736" text-anchor="middle" x="7939.5" y="8623.432412202166">
14
</text>
<text font-size="165.5211777204736" text-anchor="middle" x="9099.5" y="3562.932412202166">
15
</text>
<text font-size="165.5211777204736" text-anchor="middle" x="1731.5" y="4494.432412202165">
16
</text>
<text font-size="165.5211777204736" text-anchor="middle" x="2135.5" y="651.9324122021658">
17
</text>
<text font-size="165.5211777204736" text-anchor="middle" x="3870" y="9313.432412202166">
18
</text>
<text font-size="165.5211777204736" text-anchor="middle" x="9576.5" y="1602.9324122021658">
19
</text>
<text font-size="165.5211777204736" text-anchor="middle" x="8946.5" y="7432.932412202165">
20
</text>
<text font-size="165.5211777204736" text-anchor="middle" x="7044.5" y="2795.932412202166">
21
</text>
<text font-size="165.5211777204736" text-anchor="middle" x="5053.5" y="223.43241220216575">
22
</text>
<text font-size="165.5211777204736" text-anchor="middle" x="3958" y="5975.432412202165">
23
</text>
<text font-size="165.5211777204736" text-anchor="middle" x="7057.5" y="4538.932412202165">
24
</text>
<text font-size="165.5211777204736" text-anchor="middle" x="6739.5" y="1390.4324122021658">
25
</text>
<text font-size="165.5211777204736" text-anchor="middle" x="3247" y="1675.4324122021658">
26
</text>
<text font-size="165.5211777204736" text-anchor="middle" x="4843" y="5610.432412202165">
27
</text>
<text font-size="165.5211777204736" text-anchor="middle" x="5256" y="1460.4324122021658">
28
</text>
<text font-size="165.5211777204736" text-anchor="middle" x="9784.5" y="6951.432412202165">
29
</text>
<text font-size="165.5211777204736" text-anchor="middle" x="8959.5" y="2274.932412202166">
30
</text>
<text font-size="165.5211777204736" text-anchor="middle" x="1656.5" y="2385.432412202166">
31
</text>
<text font-size="165.5211777204736" text-anchor="middle" x="7781" y="2935.432412202166">
32
</text>
<text font-size="165.5211777204736" text-anchor="middle" x="5438" y="8032.932412202165">
33
</text>
<text font-size="165.5211777204736" text-anchor="middle" x="5997" y="6042.932412202165">
34
</text>
<text font-size="165.5211777204736" text-anchor="middle" x="7389.5" y="6661.432412202165">
35
</text>
<text font-size="165.5211777204736" text-anchor="middle" x="8860" y="5466.432412202165">
36
</text>
<text font-size="165.5211777204736" text-anchor="middle" x="768.5" y="4753.432412202165">
37
</text>
<text font-size="165.5211777204736" text-anchor="middle" x="5748" y="7474.432412202165">
38
</text>
<text font-size="165.5211777204736" text-anchor="middle" x="375" y="5735.432412202165">
39
</text>
<text font-size="165.5211777204736" text-anchor="middle" x="3863.5" y="5479.932412202165">
40
</text>
<text font-size="165.5211777204736" text-anchor="middle" x="8125" y="5460.432412202165">
41
</text>
<text font-size="165.5211777204736" text-anchor="middle" x="3466.5" y="4556.432412202165">
42
</text>
<text font-size="165.5211777204736" text-anchor="middle" x="8736" y="8859.432412202166">
43
</text>
<text font-size="165.5211777204736" text-anchor="middle" x="7203" y="1987.4324122021658">
44
</text>
<text font-size="165.5211777204736" text-anchor="middle" x="4588" y="2299.432412202166">
45
</text>
<text font-size="165.5211777204736" text-anchor="middle" x="2995.5" y="7203.932412202165">
46
</text>
<text font-size="165.5211777204736" text-anchor="middle" x="1584" y="6702.932412202165">
47
</text>
<text font-size="165.5211777204736" text-anchor="middle" x="5943.5" y="4799.932412202165">
48
</text>
<text font-size="165.5211777204736" text-anchor="middle" x="963" y="1086.9324122021658">
49
</text>
<text font-size="165.5211777204736" text-anchor="middle" x="8345" y="1421.4324122021658">
50
</text>
<text font-size="165.5211777204736" text-anchor="middle" x="4259" y="565.4324122021658">
51
</text>
<text font-size="165.5211777204736" text-anchor="middle" x="9719" y="7761.432412202165">
52
</text>
<text font-size="165.5211777204736" text-anchor="middle" x="8425.5" y="2560.432412202166">
53
</text>
<text font-size="165.5211777204736" text-anchor="middle" x="2392" y="1825.4324122021658">
54
</text>
<text font-size="165.5211777204736" text-anchor="middle" x="9664.5" y="4593.432412202165">
55
</text>
<text font-size="165.5211777204736" text-anchor="middle" x="5562" y="9769.932412202166">
56
</text>
<text font-size="165.5211777204736" text-anchor="middle" x="1047" y="3369.432412202166">
57
</text>
<text font-size="165.5211777204736" text-anchor="middle" x="3302.5" y="6318.932412202165">
58
</text>
<text font-size="165.5211777204736" text-anchor="middle" x="4914" y="3846.432412202166">
59
</text>
<text font-size="165.5211777204736" text-anchor="middle" x="6061.5" y="9769.932412202166">
60
</text>
<text font-size="165.5211777204736" text-anchor="middle" x="6951" y="3608.432412202166">
61
</text>
<text font-size="165.5211777204736" text-anchor="middle" x="3805.5" y="3473.932412202166">
62
</text>
<text font-size="165.5211777204736" text-anchor="middle" x="7255" y="7530.432412202165">
63
</text>
<text font-size="165.5211777204736" text-anchor="middle" x="7773" y="9842.432412202166">
64
</text>
<text font-size="165.5211777204736" text-anchor="middle" x="8100" y="7392.932412202165">
65
</text>
<text font-size="165.5211777204736" text-anchor="middle" x="5147" y="8933.932412202166">
66
</text>
<text font-size="165.5211777204736" text-anchor="middle" x="3019" y="484.4324122021658">
67
</text>
<text font-size="165.5211777204736" text-anchor="middle" x="5692" y="7086.932412202165">
68
</text>
<text font-size="165.5211777204736" text-anchor="middle" x="2211.5" y="2704.932412202166">
69
</text>
<text font-size="165.5211777204736" text-anchor="middle" x="6755" y="9284.432412202166">
70
</text>
<text font-size="165.5211777204736" text-anchor="middle" x="6139.5" y="9176.932412202166">
71
</text>
<text font-size="165.5211777204736" text-anchor="middle" x="7255" y="8688.932412202166">
72
</text>
</svg>