<svg viewBox="-100 -100 10200 10200" xmlns="http://www.w3.org/2000/svg">
<path d="M0,0 l10000,0 l0,10000 l-10000,0 z" fill="white"/>
<path d="M9546,2950 l454,0 l0,978 l-454,0 z" fill="#fe00ff" stroke="black" stroke-width="5"/>
<path d="M5247,5265 l631,0 l0,4735 l-631,0 z" fill="#fe00ff" stroke="black" stroke-width="5"/>
<path d="M3199,4442 l2048,0 l0,1308 l-2048,0 z" fill="#e400ff" stroke="black" stroke-width="5"/>
<path d="M2658,9039 l707,0 l0,707 l-707,0 z" fill="#fe00ff" stroke="black" stroke-width="5"/>
<path d="M596,3948 l567,0 l0,923 l-567,0 z" fill="#fe00ff" stroke="black" stroke-width="5"/>
<path d="M7044,4409 l1169,0 l0,948 l-1169,0 z" fill="#fe00ff" stroke="black" stroke-width="5"/>
<path d="M6275,3077 l731,0 l0,730 l-731,0 z" fill="#fe00ff" stroke="black" stroke-width="5"/>
<path d="M1923,5750 l1442,0 l0,1505 l-1442,0 z" fill="#e800ff" stroke="black" stroke-width="5"/>
<path d="M8863,2595 l887,0 l0,247 l-887,0 z" fill="#fe00ff" stroke="black" stroke-width="5"/>
<path d="M7260,5828 l452,0 l0,451 l-452,0 z" fill="#fe00ff" stroke="black" stroke-width="5"/>
<path d="M0,4871 l1923,0 l0,2384 l-1923,0 z" fill="#fe00ff" stroke="black" stroke-width="5"/>
<path d="M1370,7255 l1642,0 l0,767 l-1642,0 z" fill="#fe00ff" stroke="black" stroke-width="5"/>
<path d="M9038,2842 l508,0 l0,1400 l-508,0 z" fill="#1900ff" stroke="black" stroke-width="5"/>
<path d="M7006,2777 l761,0 l0,1632 l-761,0 z" fill="#fe00ff" stroke="black" stroke-width="5"/>
<path d="M7756,0 l1379,0 l0,857 l-1379,0 z" fill="#fe00ff" stroke="black" stroke-width="5"/>
<path d="M7767,2595 l609,0 l0,1324 l-609,0 z" fill="#8800ff" stroke="black" stroke-width="5"/>
<path d="M7767,3919 l1108,0 l0,490 l-1108,0 z" fill="#3500ff" stroke="black" stroke-width="5"/>
<path d="M7566,7346 l1343,0 l0,1342 l-1343,0 z" fill="#fe00ff" stroke="black" stroke-width="5"/>
<path d="M1163,2765 l918,0 l0,2106 l-918,0 z" fill="#fe00ff" stroke="black" stroke-width="5"/>
<path d="M5267,0 l1948,0 l0,985 l-1948,0 z" fill="#fe00ff" stroke="black" stroke-width="5"/>
<path d="M8403,3122 l635,0 l0,797 l-635,0 z" fill="#fe00ff" stroke="black" stroke-width="5"/>
<path d="M2081,4632 l1118,0 l0,1118 l-1118,0 z" fill="#fe00ff" stroke="black" stroke-width="5"/>
<path d="M1512,9746 l1853,0 l0,254 l-1853,0 z" fill="#fe00ff" stroke="black" stroke-width="5"/>
<path d="M0,8210 l1187,0 l0,1790 l-1187,0 z" fill="#fe00ff" stroke="black" stroke-width="5"/>
<path d="M1751,0 l757,0 l0,758 l-757,0 z" fill="#fe00ff" stroke="black" stroke-width="5"/>
<path d="M5912,6279 l1800,0 l0,1054 l-1800,0 z" fill="#fe00ff" stroke="black" stroke-width="5"/>
<path d="M8953,4755 l287,0 l0,5245 l-287,0 z" fill="#1600ff" stroke="black" stroke-width="5"/>
<path d="M181,2765 l717,0 l0,368 l-717,0 z" fill="#fe00ff" stroke="black" stroke-width="5"/>
<path d="M1188,8022 l1933,0 l0,1017 l-1933,0 z" fill="#3b00ff" stroke="black" stroke-width="5"/>
<path d="M386,7255 l590,0 l0,295 l-590,0 z" fill="#fe00ff" stroke="black" stroke-width="5"/>
<path d="M1187,7255 l1,0 l0,2745 l-1,0 z" fill="#0000ff" stroke="black" stroke-width="5"/>
<path d="M2861,2703 l551,0 l0,551 l-551,0 z" fill="#fe00ff" stroke="black" stroke-width="5"/>
<path d="M0,2004 l1391,0 l0,761 l-1391,0 z" fill="#fe00ff" stroke="black" stroke-width="5"/>
<path d="M5148,985 l2895,0 l0,394 l-2895,0 z" fill="#6c00ff" stroke="black" stroke-width="5"/>
<path d="M3365,6584 l1882,0 l0,3416 l-1882,0 z" fill="#fe00ff" stroke="black" stroke-width="5"/>
<path d="M3306,3638 l1538,0 l0,804 l-1538,0 z" fill="#fe00ff" stroke="black" stroke-width="5"/>
<path d="M8043,1373 l1222,0 l0,1222 l-1222,0 z" fill="#fe00ff" stroke="black" stroke-width="5"/>
<path d="M8213,4409 l662,0 l0,1516 l-662,0 z" fill="#2c00ff" stroke="black" stroke-width="5"/>
<path d="M1751,758 l2120,0 l0,1872 l-2120,0 z" fill="#fe00ff" stroke="black" stroke-width="5"/>
<path d="M9240,5265 l760,0 l0,1472 l-760,0 z" fill="#fe00ff" stroke="black" stroke-width="5"/>
<path d="M0,0 l1751,0 l0,2004 l-1751,0 z" fill="#b800ff" stroke="black" stroke-width="5"/>
<path d="M8875,4242 l514,0 l0,513 l-514,0 z" fill="#fe00ff" stroke="black" stroke-width="5"/>
<path d="M5878,7333 l1688,0 l0,2667 l-1688,0 z" fill="#fe00ff" stroke="black" stroke-width="5"/>
<path d="M8043,857 l1957,0 l0,516 l-1957,0 z" fill="#4b00ff" stroke="black" stroke-width="5"/>
<path d="M3121,7837 l244,0 l0,1202 l-244,0 z" fill="#1600ff" stroke="black" stroke-width="5"/>
<path d="M3012,7255 l353,0 l0,582 l-353,0 z" fill="#fe00ff" stroke="black" stroke-width="5"/>
<path d="M7712,5925 l1241,0 l0,1267 l-1241,0 z" fill="#fe00ff" stroke="black" stroke-width="5"/>
<path d="M5091,1379 l1567,0 l0,1498 l-1567,0 z" fill="#fe00ff" stroke="black" stroke-width="5"/>
<path d="M3871,0 l1277,0 l0,996 l-1277,0 z" fill="#fe00ff" stroke="black" stroke-width="5"/>
<path d="M8122,8688 l831,0 l0,1312 l-831,0 z" fill="#fe00ff" stroke="black" stroke-width="5"/>
<path d="M8376,2595 l487,0 l0,527 l-487,0 z" fill="#7900ff" stroke="black" stroke-width="5"/>
<path d="M9516,3409 l60,0 l0,60 l-60,0 z" fill="green"/>
<path d="M9546,3439 l227,0" stroke="black" stroke-width="5"/>
<path d="M5217,9417 l60,0 l0,60 l-60,0 z" fill="green"/>
<path d="M5247,9447 l315.5,-1814.5" stroke="black" stroke-width="5"/>
<path d="M4049,4412 l60,0 l0,60 l-60,0 z" fill="green"/>
<path d="M4079,4442 l144,654" stroke="black" stroke-width="5"/>
<path d="M2981,9362 l60,0 l0,60 l-60,0 z" fill="green"/>
<path d="M3011,9392 l0.5,0.5" stroke="black" stroke-width="5"/>
<path d="M1132,4485 l60,0 l0,60 l-60,0 z" fill="green"/>
<path d="M1162,4515 l-282.5,-105.5" stroke="black" stroke-width="5"/>
<path d="M7696,4645 l60,0 l0,60 l-60,0 z" fill="green"/>
<path d="M7726,4675 l-97.5,208" stroke="black" stroke-width="5"/>
<path d="M6610,3412 l60,0 l0,60 l-60,0 z" fill="green"/>
<path d="M6640,3442 l0.5,0" stroke="black" stroke-width="5"/>
<path d="M2650,6360 l60,0 l0,60 l-60,0 z" fill="green"/>
<path d="M2680,6390 l-36,112.5" stroke="black" stroke-width="5"/>
<path d="M9243,2811 l60,0 l0,60 l-60,0 z" fill="green"/>
<path d="M9273,2841 l33.5,-122.5" stroke="black" stroke-width="5"/>
<path d="M7456,6023 l60,0 l0,60 l-60,0 z" fill="green"/>
<path d="M7486,6053 l0,0.5" stroke="black" stroke-width="5"/>
<path d="M222,6511 l60,0 l0,60 l-60,0 z" fill="green"/>
<path d="M252,6541 l709.5,-478" stroke="black" stroke-width="5"/>
<path d="M2161,7991 l60,0 l0,60 l-60,0 z" fill="green"/>
<path d="M2191,8021 l0,-382.5" stroke="black" stroke-width="5"/>
<path d="M9008,3583 l60,0 l0,60 l-60,0 z" fill="green"/>
<path d="M9038,3613 l254,-71" stroke="black" stroke-width="5"/>
<path d="M7736,4378 l60,0 l0,60 l-60,0 z" fill="green"/>
<path d="M7766,4408 l-379.5,-815" stroke="black" stroke-width="5"/>
<path d="M8415,457 l60,0 l0,60 l-60,0 z" fill="green"/>
<path d="M8445,487 l0.5,-58.5" stroke="black" stroke-width="5"/>
<path d="M8345,2793 l60,0 l0,60 l-60,0 z" fill="green"/>
<path d="M8375,2823 l-303.5,434" stroke="black" stroke-width="5"/>
<path d="M8156,4120 l60,0 l0,60 l-60,0 z" fill="green"/>
<path d="M8186,4150 l135,14" stroke="black" stroke-width="5"/>
<path d="M8207,7987 l60,0 l0,60 l-60,0 z" fill="green"/>
<path d="M8237,8017 l0.5,0" stroke="black" stroke-width="5"/>
<path d="M1762,4398 l60,0 l0,60 l-60,0 z" fill="green"/>
<path d="M1792,4428 l-170,-610" stroke="black" stroke-width="5"/>
<path d="M6211,-18 l60,0 l0,60 l-60,0 z" fill="green"/>
<path d="M6241,12 l0,480.5" stroke="black" stroke-width="5"/>
<path d="M8771,3490 l60,0 l0,60 l-60,0 z" fill="green"/>
<path d="M8801,3520 l-80.5,0.5" stroke="black" stroke-width="5"/>
<path d="M2610,5161 l60,0 l0,60 l-60,0 z" fill="green"/>
<path d="M2640,5191 l0,0" stroke="black" stroke-width="5"/>
<path d="M2815,9758 l60,0 l0,60 l-60,0 z" fill="green"/>
<path d="M2845,9788 l-406.5,85" stroke="black" stroke-width="5"/>
<path d="M73,9872 l60,0 l0,60 l-60,0 z" fill="green"/>
<path d="M103,9902 l490.5,-797" stroke="black" stroke-width="5"/>
<path d="M1721,-28 l60,0 l0,60 l-60,0 z" fill="green"/>
<path d="M1751,2 l378.5,377" stroke="black" stroke-width="5"/>
<path d="M6947,7036 l60,0 l0,60 l-60,0 z" fill="green"/>
<path d="M6977,7066 l-165,-260" stroke="black" stroke-width="5"/>
<path d="M8923,6166 l60,0 l0,60 l-60,0 z" fill="green"/>
<path d="M8953,6196 l143.5,1181.5" stroke="black" stroke-width="5"/>
<path d="M509,2745 l60,0 l0,60 l-60,0 z" fill="green"/>
<path d="M539,2775 l0.5,174" stroke="black" stroke-width="5"/>
<path d="M2093,8388 l60,0 l0,60 l-60,0 z" fill="green"/>
<path d="M2123,8418 l31.5,112.5" stroke="black" stroke-width="5"/>
<path d="M651,7225 l60,0 l0,60 l-60,0 z" fill="green"/>
<path d="M681,7255 l0,147.5" stroke="black" stroke-width="5"/>
<path d="M1157,8893 l60,0 l0,60 l-60,0 z" fill="green"/>
<path d="M1187,8923 l0.5,-295.5" stroke="black" stroke-width="5"/>
<path d="M3106,2948 l60,0 l0,60 l-60,0 z" fill="green"/>
<path d="M3136,2978 l0.5,0.5" stroke="black" stroke-width="5"/>
<path d="M407,1974 l60,0 l0,60 l-60,0 z" fill="green"/>
<path d="M437,2004 l258.5,380.5" stroke="black" stroke-width="5"/>
<path d="M6168,1348 l60,0 l0,60 l-60,0 z" fill="green"/>
<path d="M6198,1378 l397.5,-196" stroke="black" stroke-width="5"/>
<path d="M3485,9401 l60,0 l0,60 l-60,0 z" fill="green"/>
<path d="M3515,9431 l791,-1139" stroke="black" stroke-width="5"/>
<path d="M4045,4376 l60,0 l0,60 l-60,0 z" fill="green"/>
<path d="M4075,4406 l0,-366" stroke="black" stroke-width="5"/>
<path d="M8624,1954 l60,0 l0,60 l-60,0 z" fill="green"/>
<path d="M8654,1984 l0,0" stroke="black" stroke-width="5"/>
<path d="M8183,4776 l60,0 l0,60 l-60,0 z" fill="green"/>
<path d="M8213,4806 l331,361" stroke="black" stroke-width="5"/>
<path d="M2330,747 l60,0 l0,60 l-60,0 z" fill="green"/>
<path d="M2360,777 l451,917" stroke="black" stroke-width="5"/>
<path d="M9945,5971 l60,0 l0,60 l-60,0 z" fill="green"/>
<path d="M9975,6001 l-355,0" stroke="black" stroke-width="5"/>
<path d="M735,790 l60,0 l0,60 l-60,0 z" fill="green"/>
<path d="M765,820 l110.5,182" stroke="black" stroke-width="5"/>
<path d="M9102,4468 l60,0 l0,60 l-60,0 z" fill="green"/>
<path d="M9132,4498 l0,0.5" stroke="black" stroke-width="5"/>
<path d="M5848,9170 l60,0 l0,60 l-60,0 z" fill="green"/>
<path d="M5878,9200 l844,-533.5" stroke="black" stroke-width="5"/>
<path d="M8155,827 l60,0 l0,60 l-60,0 z" fill="green"/>
<path d="M8185,857 l836.5,258" stroke="black" stroke-width="5"/>
<path d="M3091,8519 l60,0 l0,60 l-60,0 z" fill="green"/>
<path d="M3121,8549 l122,-111" stroke="black" stroke-width="5"/>
<path d="M3239,7311 l60,0 l0,60 l-60,0 z" fill="green"/>
<path d="M3269,7341 l-80.5,205" stroke="black" stroke-width="5"/>
<path d="M8291,6528 l60,0 l0,60 l-60,0 z" fill="green"/>
<path d="M8321,6558 l11.5,0.5" stroke="black" stroke-width="5"/>
<path d="M5844,2063 l60,0 l0,60 l-60,0 z" fill="green"/>
<path d="M5874,2093 l0.5,35" stroke="black" stroke-width="5"/>
<path d="M4479,328 l60,0 l0,60 l-60,0 z" fill="green"/>
<path d="M4509,358 l0.5,140" stroke="black" stroke-width="5"/>
<path d="M8796,9303 l60,0 l0,60 l-60,0 z" fill="green"/>
<path d="M8826,9333 l-288.5,11" stroke="black" stroke-width="5"/>
<path d="M8832,2582 l60,0 l0,60 l-60,0 z" fill="green"/>
<path d="M8862,2612 l-242.5,246.5" stroke="black" stroke-width="5"/>
<text font-size="198.02950859533485" text-anchor="middle" x="9773" y="3508.3103280083674">
0
</text>
<text font-size="198.02950859533485" text-anchor="middle" x="5562.5" y="7701.810328008367">
1
</text>
<text font-size="198.02950859533485" text-anchor="middle" x="4223" y="5165.310328008367">
2
</text>
<text font-size="198.02950859533485" text-anchor="middle" x="3011.5" y="9461.810328008367">
3
</text>
<text font-size="198.02950859533485" text-anchor="middle" x="879.5" y="4478.810328008367">
4
</text>
<text font-size="198.02950859533485" text-anchor="middle" x="7628.5" y="4952.310328008367">
5
</text>
<text font-size="198.02950859533485" text-anchor="middle" x="6640.5" y="3511.3103280083674">
6
</text>
<text font-size="198.02950859533485" text-anchor="middle" x="2644" y="6571.810328008367">
7
</text>
<text font-size="198.02950859533485" text-anchor="middle" x="9306.5" y="2787.8103280083674">
8
</text>
<text font-size="198.02950859533485" text-anchor="middle" x="7486" y="6122.810328008367">
9
</text>
<text font-size="198.02950859533485" text-anchor="middle" x="961.5" y="6132.310328008367">
10
</text>
<text font-size="198.02950859533485" text-anchor="middle" x="2191" y="7707.810328008367">
11
</text>
<text font-size="198.02950859533485" text-anchor="middle" x="9292" y="3611.3103280083674">
12
</text>
<text font-size="198.02950859533485" text-anchor="middle" x="7386.5" y="3662.3103280083674">
13
</text>
<text font-size="198.02950859533485" text-anchor="middle" x="8445.5" y="497.8103280083672">
14
</text>
<text font-size="198.02950859533485" text-anchor="middle" x="8071.5" y="3326.3103280083674">
15
</text>
<text font-size="198.02950859533485" text-anchor="middle" x="8321" y="4233.310328008367">
16
</text>
<text font-size="198.02950859533485" text-anchor="middle" x="8237.5" y="8086.310328008367">
17
</text>
<text font-size="198.02950859533485" text-anchor="middle" x="1622" y="3887.3103280083674">
18
</text>
<text font-size="198.02950859533485" text-anchor="middle" x="6241" y="561.8103280083672">
19
</text>
<text font-size="198.02950859533485" text-anchor="middle" x="8720.5" y="3589.8103280083674">
20
</text>
<text font-size="198.02950859533485" text-anchor="middle" x="2640" y="5260.310328008367">
21
</text>
<text font-size="198.02950859533485" text-anchor="middle" x="2438.5" y="9942.310328008367">
22
</text>
<text font-size="198.02950859533485" text-anchor="middle" x="593.5" y="9174.310328008367">
23
</text>
<text font-size="198.02950859533485" text-anchor="middle" x="2129.5" y="448.3103280083672">
24
</text>
<text font-size="198.02950859533485" text-anchor="middle" x="6812" y="6875.310328008367">
25
</text>
<text font-size="198.02950859533485" text-anchor="middle" x="9096.5" y="7446.810328008367">
26
</text>
<text font-size="198.02950859533485" text-anchor="middle" x="539.5" y="3018.3103280083674">
27
</text>
<text font-size="198.02950859533485" text-anchor="middle" x="2154.5" y="8599.810328008367">
28
</text>
<text font-size="198.02950859533485" text-anchor="middle" x="681" y="7471.810328008367">
29
</text>
<text font-size="198.02950859533485" text-anchor="middle" x="1187.5" y="8696.810328008367">
30
</text>
<text font-size="198.02950859533485" text-anchor="middle" x="3136.5" y="3047.8103280083674">
31
</text>
<text font-size="198.02950859533485" text-anchor="middle" x="695.5" y="2453.8103280083674">
32
</text>
<text font-size="198.02950859533485" text-anchor="middle" x="6595.5" y="1251.3103280083672">
33
</text>
<text font-size="198.02950859533485" text-anchor="middle" x="4306" y="8361.310328008367">
34
</text>
<text font-size="198.02950859533485" text-anchor="middle" x="4075" y="4109.310328008367">
35
</text>
<text font-size="198.02950859533485" text-anchor="middle" x="8654" y="2053.3103280083674">
36
</text>
<text font-size="198.02950859533485" text-anchor="middle" x="8544" y="5236.310328008367">
37
</text>
<text font-size="198.02950859533485" text-anchor="middle" x="2811" y="1763.3103280083672">
38
</text>
<text font-size="198.02950859533485" text-anchor="middle" x="9620" y="6070.310328008367">
39
</text>
<text font-size="198.02950859533485" text-anchor="middle" x="875.5" y="1071.3103280083672">
40
</text>
<text font-size="198.02950859533485" text-anchor="middle" x="9132" y="4567.810328008367">
41
</text>
<text font-size="198.02950859533485" text-anchor="middle" x="6722" y="8735.810328008367">
42
</text>
<text font-size="198.02950859533485" text-anchor="middle" x="9021.5" y="1184.3103280083672">
43
</text>
<text font-size="198.02950859533485" text-anchor="middle" x="3243" y="8507.310328008367">
44
</text>
<text font-size="198.02950859533485" text-anchor="middle" x="3188.5" y="7615.310328008367">
45
</text>
<text font-size="198.02950859533485" text-anchor="middle" x="8332.5" y="6627.810328008367">
46
</text>
<text font-size="198.02950859533485" text-anchor="middle" x="5874.5" y="2197.3103280083674">
47
</text>
<text font-size="198.02950859533485" text-anchor="middle" x="4509.5" y="567.3103280083672">
48
</text>
<text font-size="198.02950859533485" text-anchor="middle" x="8537.5" y="9413.310328008367">
49
</text>
<text font-size="198.02950859533485" text-anchor="middle" x="8619.5" y="2927.8103280083674">
50
</text>
</svg>