<svg viewBox="-100 -100 10200 10200" xmlns="http://www.w3.org/2000/svg">
<path d="M0,0 l10000,0 l0,10000 l-10000,0 z" fill="white"/>
<path d="M6161,0 l2002,0 l0,1931 l-2002,0 z" fill="#f500ff" stroke="black" stroke-width="5"/>
<path d="M934,2651 l1333,0 l0,2150 l-1333,0 z" fill="#fe00ff" stroke="black" stroke-width="5"/>
<path d="M9060,7617 l274,0 l0,137 l-274,0 z" fill="#fe00ff" stroke="black" stroke-width="5"/>
<path d="M0,2053 l934,0 l0,2574 l-934,0 z" fill="#fe00ff" stroke="black" stroke-width="5"/>
<path d="M8359,5228 l476,0 l0,741 l-476,0 z" fill="#fe00ff" stroke="black" stroke-width="5"/>
<path d="M8568,8302 l690,0 l0,392 l-690,0 z" fill="#fe00ff" stroke="black" stroke-width="5"/>
<path d="M6485,9524 l2458,0 l0,476 l-2458,0 z" fill="#fe00ff" stroke="black" stroke-width="5"/>
<path d="M5883,9524 l547,0 l0,351 l-547,0 z" fill="#fe00ff" stroke="black" stroke-width="5"/>
<path d="M3278,4674 l3131,0 l0,757 l-3131,0 z" fill="#fe00ff" stroke="black" stroke-width="5"/>
<path d="M2350,6428 l3056,0 l0,282 l-3056,0 z" fill="#3500ff" stroke="black" stroke-width="5"/>
<path d="M8083,7052 l230,0 l0,114 l-230,0 z" fill="#fe00ff" stroke="black" stroke-width="5"/>
<path d="M8163,231 l1217,0 l0,1335 l-1217,0 z" fill="#fe00ff" stroke="black" stroke-width="5"/>
<path d="M7172,7642 l143,0 l0,143 l-143,0 z" fill="#fe00ff" stroke="black" stroke-width="5"/>
<path d="M8472,6964 l1115,0 l0,653 l-1115,0 z" fill="#fe00ff" stroke="black" stroke-width="5"/>
<path d="M8835,4166 l561,0 l0,2798 l-561,0 z" fill="#fe00ff" stroke="black" stroke-width="5"/>
<path d="M4529,5431 l877,0 l0,877 l-877,0 z" fill="#fe00ff" stroke="black" stroke-width="5"/>
<path d="M7089,8546 l1479,0 l0,978 l-1479,0 z" fill="#fe00ff" stroke="black" stroke-width="5"/>
<path d="M1102,4801 l264,0 l0,236 l-264,0 z" fill="#fe00ff" stroke="black" stroke-width="5"/>
<path d="M2540,4674 l571,0 l0,545 l-571,0 z" fill="#fe00ff" stroke="black" stroke-width="5"/>
<path d="M5406,5431 l1900,0 l0,1587 l-1900,0 z" fill="#fc00ff" stroke="black" stroke-width="5"/>
<path d="M4964,7018 l2208,0 l0,1425 l-2208,0 z" fill="#fe00ff" stroke="black" stroke-width="5"/>
<path d="M3278,5431 l1251,0 l0,997 l-1251,0 z" fill="#fe00ff" stroke="black" stroke-width="5"/>
<path d="M0,9190 l5775,0 l0,810 l-5775,0 z" fill="#c700ff" stroke="black" stroke-width="5"/>
<path d="M5928,3247 l724,0 l0,723 l-724,0 z" fill="#fe00ff" stroke="black" stroke-width="5"/>
<path d="M7306,4981 l1053,0 l0,2071 l-1053,0 z" fill="#2000ff" stroke="black" stroke-width="5"/>
<path d="M2960,7719 l1881,0 l0,1471 l-1881,0 z" fill="#fe00ff" stroke="black" stroke-width="5"/>
<path d="M934,2053 l2060,0 l0,598 l-2060,0 z" fill="#c200ff" stroke="black" stroke-width="5"/>
<path d="M9380,658 l620,0 l0,871 l-620,0 z" fill="#fe00ff" stroke="black" stroke-width="5"/>
<path d="M2994,1293 l779,0 l0,778 l-779,0 z" fill="#fe00ff" stroke="black" stroke-width="5"/>
<path d="M3941,875 l266,0 l0,265 l-266,0 z" fill="#fe00ff" stroke="black" stroke-width="5"/>
<path d="M9396,4173 l135,0 l0,2791 l-135,0 z" fill="#fe00ff" stroke="black" stroke-width="5"/>
<path d="M3111,4674 l167,0 l0,578 l-167,0 z" fill="#0000ff" stroke="black" stroke-width="5"/>
<path d="M2579,4273 l363,0 l0,362 l-363,0 z" fill="#fe00ff" stroke="black" stroke-width="5"/>
<path d="M5903,1931 l590,0 l0,589 l-590,0 z" fill="#fe00ff" stroke="black" stroke-width="5"/>
<path d="M8568,8773 l462,0 l0,751 l-462,0 z" fill="#fe00ff" stroke="black" stroke-width="5"/>
<path d="M4817,2365 l797,0 l0,815 l-797,0 z" fill="#fe00ff" stroke="black" stroke-width="5"/>
<path d="M7315,7617 l1745,0 l0,685 l-1745,0 z" fill="#b500ff" stroke="black" stroke-width="5"/>
<path d="M2423,7719 l537,0 l0,742 l-537,0 z" fill="#fe00ff" stroke="black" stroke-width="5"/>
<path d="M47,998 l1593,0 l0,1055 l-1593,0 z" fill="#fe00ff" stroke="black" stroke-width="5"/>
<path d="M2921,779 l557,0 l0,514 l-557,0 z" fill="#fe00ff" stroke="black" stroke-width="5"/>
<path d="M2258,5252 l1020,0 l0,1137 l-1020,0 z" fill="#fe00ff" stroke="black" stroke-width="5"/>
<path d="M660,8579 l611,0 l0,611 l-611,0 z" fill="#fe00ff" stroke="black" stroke-width="5"/>
<path d="M8697,5090 l138,0 l0,138 l-138,0 z" fill="#fe00ff" stroke="black" stroke-width="5"/>
<path d="M2994,2071 l1823,0 l0,854 l-1823,0 z" fill="#2600ff" stroke="black" stroke-width="5"/>
<path d="M948,6157 l702,0 l0,414 l-702,0 z" fill="#fe00ff" stroke="black" stroke-width="5"/>
<path d="M1775,5416 l483,0 l0,965 l-483,0 z" fill="#fe00ff" stroke="black" stroke-width="5"/>
<path d="M7851,4505 l951,0 l0,476 l-951,0 z" fill="#fe00ff" stroke="black" stroke-width="5"/>
<path d="M8189,2654 l1342,0 l0,1403 l-1342,0 z" fill="#fe00ff" stroke="black" stroke-width="5"/>
<path d="M1229,6571 l1121,0 l0,1480 l-1121,0 z" fill="#fe00ff" stroke="black" stroke-width="5"/>
<path d="M2852,6710 l2112,0 l0,1009 l-2112,0 z" fill="#fe00ff" stroke="black" stroke-width="5"/>
<path d="M5775,8443 l1314,0 l0,1081 l-1314,0 z" fill="#fe00ff" stroke="black" stroke-width="5"/>
<path d="M0,7012 l1229,0 l0,1242 l-1229,0 z" fill="#fe00ff" stroke="black" stroke-width="5"/>
<path d="M9531,1529 l469,0 l0,5435 l-469,0 z" fill="#de00ff" stroke="black" stroke-width="5"/>
<path d="M3068,2925 l1749,0 l0,1749 l-1749,0 z" fill="#fe00ff" stroke="black" stroke-width="5"/>
<path d="M6409,3970 l141,0 l0,1461 l-141,0 z" fill="#0400ff" stroke="black" stroke-width="5"/>
<path d="M5200,0 l961,0 l0,910 l-961,0 z" fill="#fe00ff" stroke="black" stroke-width="5"/>
<path d="M6550,4109 l756,0 l0,1041 l-756,0 z" fill="#fe00ff" stroke="black" stroke-width="5"/>
<path d="M7373,441 l60,0 l0,60 l-60,0 z" fill="green"/>
<path d="M7403,471 l-241,494.5" stroke="black" stroke-width="5"/>
<path d="M904,3437 l60,0 l0,60 l-60,0 z" fill="green"/>
<path d="M934,3467 l666.5,259" stroke="black" stroke-width="5"/>
<path d="M9167,7587 l60,0 l0,60 l-60,0 z" fill="green"/>
<path d="M9197,7617 l0,68.5" stroke="black" stroke-width="5"/>
<path d="M728,3310 l60,0 l0,60 l-60,0 z" fill="green"/>
<path d="M758,3340 l-291,0" stroke="black" stroke-width="5"/>
<path d="M8802,5466 l60,0 l0,60 l-60,0 z" fill="green"/>
<path d="M8832,5496 l-235,102.5" stroke="black" stroke-width="5"/>
<path d="M8835,8272 l60,0 l0,60 l-60,0 z" fill="green"/>
<path d="M8865,8302 l48,196" stroke="black" stroke-width="5"/>
<path d="M7684,9717 l60,0 l0,60 l-60,0 z" fill="green"/>
<path d="M7714,9747 l0,15" stroke="black" stroke-width="5"/>
<path d="M6126,9572 l60,0 l0,60 l-60,0 z" fill="green"/>
<path d="M6156,9602 l0.5,97.5" stroke="black" stroke-width="5"/>
<path d="M4733,4882 l60,0 l0,60 l-60,0 z" fill="green"/>
<path d="M4763,4912 l80.5,140.5" stroke="black" stroke-width="5"/>
<path d="M4382,6679 l60,0 l0,60 l-60,0 z" fill="green"/>
<path d="M4412,6709 l-534,-140" stroke="black" stroke-width="5"/>
<path d="M8168,7022 l60,0 l0,60 l-60,0 z" fill="green"/>
<path d="M8198,7052 l0,57" stroke="black" stroke-width="5"/>
<path d="M8801,868 l60,0 l0,60 l-60,0 z" fill="green"/>
<path d="M8831,898 l-59.5,0.5" stroke="black" stroke-width="5"/>
<path d="M7213,7683 l60,0 l0,60 l-60,0 z" fill="green"/>
<path d="M7243,7713 l0.5,0.5" stroke="black" stroke-width="5"/>
<path d="M8999,7256 l60,0 l0,60 l-60,0 z" fill="green"/>
<path d="M9029,7286 l0.5,4.5" stroke="black" stroke-width="5"/>
<path d="M9256,5535 l60,0 l0,60 l-60,0 z" fill="green"/>
<path d="M9286,5565 l-170.5,0" stroke="black" stroke-width="5"/>
<path d="M4499,5401 l60,0 l0,60 l-60,0 z" fill="green"/>
<path d="M4529,5431 l438.5,438.5" stroke="black" stroke-width="5"/>
<path d="M7713,9493 l60,0 l0,60 l-60,0 z" fill="green"/>
<path d="M7743,9523 l85.5,-488" stroke="black" stroke-width="5"/>
<path d="M1204,4875 l60,0 l0,60 l-60,0 z" fill="green"/>
<path d="M1234,4905 l0,14" stroke="black" stroke-width="5"/>
<path d="M2795,4903 l60,0 l0,60 l-60,0 z" fill="green"/>
<path d="M2825,4933 l0.5,13.5" stroke="black" stroke-width="5"/>
<path d="M6191,5508 l60,0 l0,60 l-60,0 z" fill="green"/>
<path d="M6221,5538 l135,686.5" stroke="black" stroke-width="5"/>
<path d="M6294,8347 l60,0 l0,60 l-60,0 z" fill="green"/>
<path d="M6324,8377 l-256,-646.5" stroke="black" stroke-width="5"/>
<path d="M4037,5515 l60,0 l0,60 l-60,0 z" fill="green"/>
<path d="M4067,5545 l-163.5,384.5" stroke="black" stroke-width="5"/>
<path d="M270,9708 l60,0 l0,60 l-60,0 z" fill="green"/>
<path d="M300,9738 l2587.5,-143" stroke="black" stroke-width="5"/>
<path d="M6260,3578 l60,0 l0,60 l-60,0 z" fill="green"/>
<path d="M6290,3608 l0,0.5" stroke="black" stroke-width="5"/>
<path d="M8137,5585 l60,0 l0,60 l-60,0 z" fill="green"/>
<path d="M8167,5615 l-334.5,401.5" stroke="black" stroke-width="5"/>
<path d="M3501,8351 l60,0 l0,60 l-60,0 z" fill="green"/>
<path d="M3531,8381 l369.5,73.5" stroke="black" stroke-width="5"/>
<path d="M1216,2620 l60,0 l0,60 l-60,0 z" fill="green"/>
<path d="M1246,2650 l718,-298" stroke="black" stroke-width="5"/>
<path d="M9785,1063 l60,0 l0,60 l-60,0 z" fill="green"/>
<path d="M9815,1093 l-125,0.5" stroke="black" stroke-width="5"/>
<path d="M3353,1652 l60,0 l0,60 l-60,0 z" fill="green"/>
<path d="M3383,1682 l0.5,0" stroke="black" stroke-width="5"/>
<path d="M4044,977 l60,0 l0,60 l-60,0 z" fill="green"/>
<path d="M4074,1007 l0,0.5" stroke="black" stroke-width="5"/>
<path d="M9366,5579 l60,0 l0,60 l-60,0 z" fill="green"/>
<path d="M9396,5609 l67.5,-40.5" stroke="black" stroke-width="5"/>
<path d="M3213,4722 l60,0 l0,60 l-60,0 z" fill="green"/>
<path d="M3243,4752 l-48.5,211" stroke="black" stroke-width="5"/>
<path d="M2730,4424 l60,0 l0,60 l-60,0 z" fill="green"/>
<path d="M2760,4454 l0.5,0" stroke="black" stroke-width="5"/>
<path d="M6168,2195 l60,0 l0,60 l-60,0 z" fill="green"/>
<path d="M6198,2225 l0,0.5" stroke="black" stroke-width="5"/>
<path d="M8538,9204 l60,0 l0,60 l-60,0 z" fill="green"/>
<path d="M8568,9234 l231,-85.5" stroke="black" stroke-width="5"/>
<path d="M5176,2742 l60,0 l0,60 l-60,0 z" fill="green"/>
<path d="M5206,2772 l9.5,0.5" stroke="black" stroke-width="5"/>
<path d="M8582,7676 l60,0 l0,60 l-60,0 z" fill="green"/>
<path d="M8612,7706 l-424.5,253.5" stroke="black" stroke-width="5"/>
<path d="M2929,7895 l60,0 l0,60 l-60,0 z" fill="green"/>
<path d="M2959,7925 l-267.5,165" stroke="black" stroke-width="5"/>
<path d="M813,1764 l60,0 l0,60 l-60,0 z" fill="green"/>
<path d="M843,1794 l0.5,-268.5" stroke="black" stroke-width="5"/>
<path d="M3169,1027 l60,0 l0,60 l-60,0 z" fill="green"/>
<path d="M3199,1057 l0.5,-21" stroke="black" stroke-width="5"/>
<path d="M2679,5790 l60,0 l0,60 l-60,0 z" fill="green"/>
<path d="M2709,5820 l59,0.5" stroke="black" stroke-width="5"/>
<path d="M935,8854 l60,0 l0,60 l-60,0 z" fill="green"/>
<path d="M965,8884 l0.5,0.5" stroke="black" stroke-width="5"/>
<path d="M8736,5129 l60,0 l0,60 l-60,0 z" fill="green"/>
<path d="M8766,5159 l0,0" stroke="black" stroke-width="5"/>
<path d="M3084,2247 l60,0 l0,60 l-60,0 z" fill="green"/>
<path d="M3114,2277 l791.5,221" stroke="black" stroke-width="5"/>
<path d="M1269,6478 l60,0 l0,60 l-60,0 z" fill="green"/>
<path d="M1299,6508 l0,-144" stroke="black" stroke-width="5"/>
<path d="M2227,5868 l60,0 l0,60 l-60,0 z" fill="green"/>
<path d="M2257,5898 l-240.5,0.5" stroke="black" stroke-width="5"/>
<path d="M8296,4950 l60,0 l0,60 l-60,0 z" fill="green"/>
<path d="M8326,4980 l0.5,-237" stroke="black" stroke-width="5"/>
<path d="M8860,3325 l60,0 l0,60 l-60,0 z" fill="green"/>
<path d="M8890,3355 l-30,0.5" stroke="black" stroke-width="5"/>
<path d="M1580,7281 l60,0 l0,60 l-60,0 z" fill="green"/>
<path d="M1610,7311 l179.5,0" stroke="black" stroke-width="5"/>
<path d="M3955,7688 l60,0 l0,60 l-60,0 z" fill="green"/>
<path d="M3985,7718 l-77,-503.5" stroke="black" stroke-width="5"/>
<path d="M6402,9069 l60,0 l0,60 l-60,0 z" fill="green"/>
<path d="M6432,9099 l0,-115.5" stroke="black" stroke-width="5"/>
<path d="M578,7603 l60,0 l0,60 l-60,0 z" fill="green"/>
<path d="M608,7633 l6.5,0" stroke="black" stroke-width="5"/>
<path d="M9501,3046 l60,0 l0,60 l-60,0 z" fill="green"/>
<path d="M9531,3076 l234.5,1170.5" stroke="black" stroke-width="5"/>
<path d="M3912,3769 l60,0 l0,60 l-60,0 z" fill="green"/>
<path d="M3942,3799 l0.5,0.5" stroke="black" stroke-width="5"/>
<path d="M6519,4817 l60,0 l0,60 l-60,0 z" fill="green"/>
<path d="M6549,4847 l-69.5,-146.5" stroke="black" stroke-width="5"/>
<path d="M5650,400 l60,0 l0,60 l-60,0 z" fill="green"/>
<path d="M5680,430 l0.5,25" stroke="black" stroke-width="5"/>
<path d="M6756,4599 l60,0 l0,60 l-60,0 z" fill="green"/>
<path d="M6786,4629 l142,0.5" stroke="black" stroke-width="5"/>
<text font-size="187.3171623163388" text-anchor="middle" x="7162" y="1031.0610068107185">
0
</text>
<text font-size="187.3171623163388" text-anchor="middle" x="1600.5" y="3791.5610068107185">
1
</text>
<text font-size="187.3171623163388" text-anchor="middle" x="9197" y="7751.061006810719">
2
</text>
<text font-size="187.3171623163388" text-anchor="middle" x="467" y="3405.5610068107185">
3
</text>
<text font-size="187.3171623163388" text-anchor="middle" x="8597" y="5664.061006810719">
4
</text>
<text font-size="187.3171623163388" text-anchor="middle" x="8913" y="8563.561006810718">
5
</text>
<text font-size="187.3171623163388" text-anchor="middle" x="7714" y="9827.561006810718">
6
</text>
<text font-size="187.3171623163388" text-anchor="middle" x="6156.5" y="9765.061006810718">
7
</text>
<text font-size="187.3171623163388" text-anchor="middle" x="4843.5" y="5118.061006810719">
8
</text>
<text font-size="187.3171623163388" text-anchor="middle" x="3878" y="6634.561006810719">
9
</text>
<text font-size="187.3171623163388" text-anchor="middle" x="8198" y="7174.561006810719">
10
</text>
<text font-size="187.3171623163388" text-anchor="middle" x="8771.5" y="964.0610068107186">
11
</text>
<text font-size="187.3171623163388" text-anchor="middle" x="7243.5" y="7779.061006810719">
12
</text>
<text font-size="187.3171623163388" text-anchor="middle" x="9029.5" y="7356.061006810719">
13
</text>
<text font-size="187.3171623163388" text-anchor="middle" x="9115.5" y="5630.561006810719">
14
</text>
<text font-size="187.3171623163388" text-anchor="middle" x="4967.5" y="5935.061006810719">
15
</text>
<text font-size="187.3171623163388" text-anchor="middle" x="7828.5" y="9100.561006810718">
16
</text>
<text font-size="187.3171623163388" text-anchor="middle" x="1234" y="4984.561006810719">
17
</text>
<text font-size="187.3171623163388" text-anchor="middle" x="2825.5" y="5012.061006810719">
18
</text>
<text font-size="187.3171623163388" text-anchor="middle" x="6356" y="6290.061006810719">
19
</text>
<text font-size="187.3171623163388" text-anchor="middle" x="6068" y="7796.061006810719">
20
</text>
<text font-size="187.3171623163388" text-anchor="middle" x="3903.5" y="5995.061006810719">
21
</text>
<text font-size="187.3171623163388" text-anchor="middle" x="2887.5" y="9660.561006810718">
22
</text>
<text font-size="187.3171623163388" text-anchor="middle" x="6290" y="3674.0610068107185">
23
</text>
<text font-size="187.3171623163388" text-anchor="middle" x="7832.5" y="6082.061006810719">
24
</text>
<text font-size="187.3171623163388" text-anchor="middle" x="3900.5" y="8520.061006810718">
25
</text>
<text font-size="187.3171623163388" text-anchor="middle" x="1964" y="2417.5610068107185">
26
</text>
<text font-size="187.3171623163388" text-anchor="middle" x="9690" y="1159.0610068107185">
27
</text>
<text font-size="187.3171623163388" text-anchor="middle" x="3383.5" y="1747.5610068107185">
28
</text>
<text font-size="187.3171623163388" text-anchor="middle" x="4074" y="1073.0610068107185">
29
</text>
<text font-size="187.3171623163388" text-anchor="middle" x="9463.5" y="5634.061006810719">
30
</text>
<text font-size="187.3171623163388" text-anchor="middle" x="3194.5" y="5028.561006810719">
31
</text>
<text font-size="187.3171623163388" text-anchor="middle" x="2760.5" y="4519.561006810719">
32
</text>
<text font-size="187.3171623163388" text-anchor="middle" x="6198" y="2291.0610068107185">
33
</text>
<text font-size="187.3171623163388" text-anchor="middle" x="8799" y="9214.061006810718">
34
</text>
<text font-size="187.3171623163388" text-anchor="middle" x="5215.5" y="2838.0610068107185">
35
</text>
<text font-size="187.3171623163388" text-anchor="middle" x="8187.5" y="8025.061006810719">
36
</text>
<text font-size="187.3171623163388" text-anchor="middle" x="2691.5" y="8155.561006810719">
37
</text>
<text font-size="187.3171623163388" text-anchor="middle" x="843.5" y="1591.0610068107185">
38
</text>
<text font-size="187.3171623163388" text-anchor="middle" x="3199.5" y="1101.5610068107185">
39
</text>
<text font-size="187.3171623163388" text-anchor="middle" x="2768" y="5886.061006810719">
40
</text>
<text font-size="187.3171623163388" text-anchor="middle" x="965.5" y="8950.061006810718">
41
</text>
<text font-size="187.3171623163388" text-anchor="middle" x="8766" y="5224.561006810719">
42
</text>
<text font-size="187.3171623163388" text-anchor="middle" x="3905.5" y="2563.5610068107185">
43
</text>
<text font-size="187.3171623163388" text-anchor="middle" x="1299" y="6429.561006810719">
44
</text>
<text font-size="187.3171623163388" text-anchor="middle" x="2016.5" y="5964.061006810719">
45
</text>
<text font-size="187.3171623163388" text-anchor="middle" x="8326.5" y="4808.561006810719">
46
</text>
<text font-size="187.3171623163388" text-anchor="middle" x="8860" y="3421.0610068107185">
47
</text>
<text font-size="187.3171623163388" text-anchor="middle" x="1789.5" y="7376.561006810719">
48
</text>
<text font-size="187.3171623163388" text-anchor="middle" x="3908" y="7280.061006810719">
49
</text>
<text font-size="187.3171623163388" text-anchor="middle" x="6432" y="9049.061006810718">
50
</text>
<text font-size="187.3171623163388" text-anchor="middle" x="614.5" y="7698.561006810719">
51
</text>
<text font-size="187.3171623163388" text-anchor="middle" x="9765.5" y="4312.061006810719">
52
</text>
<text font-size="187.3171623163388" text-anchor="middle" x="3942.5" y="3865.0610068107185">
53
</text>
<text font-size="187.3171623163388" text-anchor="middle" x="6479.5" y="4766.061006810719">
54
</text>
<text font-size="187.3171623163388" text-anchor="middle" x="5680.5" y="520.5610068107186">
55
</text>
<text font-size="187.3171623163388" text-anchor="middle" x="6928" y="4695.061006810719">
56
</text>
</svg>