<svg viewBox="-100 -100 10200 10200" xmlns="http://www.w3.org/2000/svg">
<path d="M0,0 l10000,0 l0,10000 l-10000,0 z" fill="white"/>
<path d="M8182,6055 l1818,0 l0,1536 l-1818,0 z" fill="#fe00ff" stroke="black" stroke-width="5"/>
<path d="M1680,7927 l838,0 l0,1524 l-838,0 z" fill="#fe00ff" stroke="black" stroke-width="5"/>
<path d="M5788,1553 l831,0 l0,725 l-831,0 z" fill="#fe00ff" stroke="black" stroke-width="5"/>
<path d="M2414,711 l1294,0 l0,1241 l-1294,0 z" fill="#fe00ff" stroke="black" stroke-width="5"/>
<path d="M29,3836 l1239,0 l0,1239 l-1239,0 z" fill="#fe00ff" stroke="black" stroke-width="5"/>
<path d="M637,6445 l419,0 l0,418 l-419,0 z" fill="#fe00ff" stroke="black" stroke-width="5"/>
<path d="M7452,4137 l555,0 l0,555 l-555,0 z" fill="#fe00ff" stroke="black" stroke-width="5"/>
<path d="M7380,585 l1242,0 l0,1397 l-1242,0 z" fill="#fe00ff" stroke="black" stroke-width="5"/>
<path d="M3708,0 l418,0 l0,1952 l-418,0 z" fill="#4400ff" stroke="black" stroke-width="5"/>
<path d="M5403,2278 l2122,0 l0,764 l-2122,0 z" fill="#fe00ff" stroke="black" stroke-width="5"/>
<path d="M0,2324 l1552,0 l0,1335 l-1552,0 z" fill="#fe00ff" stroke="black" stroke-width="5"/>
<path d="M1552,2057 l894,0 l0,893 l-894,0 z" fill="#fe00ff" stroke="black" stroke-width="5"/>
<path d="M6740,8937 l574,0 l0,1063 l-574,0 z" fill="#fe00ff" stroke="black" stroke-width="5"/>
<path d="M4114,5766 l458,0 l0,457 l-458,0 z" fill="#fe00ff" stroke="black" stroke-width="5"/>
<path d="M7452,7591 l939,0 l0,1697 l-939,0 z" fill="#3400ff" stroke="black" stroke-width="5"/>
<path d="M7452,5975 l1520,0 l0,80 l-1520,0 z" fill="#0000ff" stroke="black" stroke-width="5"/>
<path d="M1434,3729 l1072,0 l0,1071 l-1072,0 z" fill="#fe00ff" stroke="black" stroke-width="5"/>
<path d="M8934,0 l430,0 l0,316 l-430,0 z" fill="#fe00ff" stroke="black" stroke-width="5"/>
<path d="M6577,3321 l215,0 l0,328 l-215,0 z" fill="#fe00ff" stroke="black" stroke-width="5"/>
<path d="M5403,3064 l542,0 l0,542 l-542,0 z" fill="#fe00ff" stroke="black" stroke-width="5"/>
<path d="M981,1218 l640,0 l0,639 l-640,0 z" fill="#fe00ff" stroke="black" stroke-width="5"/>
<path d="M2717,2837 l958,0 l0,958 l-958,0 z" fill="#fe00ff" stroke="black" stroke-width="5"/>
<path d="M8988,1906 l1012,0 l0,313 l-1012,0 z" fill="#0300ff" stroke="black" stroke-width="5"/>
<path d="M0,8627 l1005,0 l0,1233 l-1005,0 z" fill="#fe00ff" stroke="black" stroke-width="5"/>
<path d="M8988,2736 l1012,0 l0,1536 l-1012,0 z" fill="#4700ff" stroke="black" stroke-width="5"/>
<path d="M5792,4926 l1162,0 l0,1161 l-1162,0 z" fill="#fe00ff" stroke="black" stroke-width="5"/>
<path d="M4280,2171 l724,0 l0,723 l-724,0 z" fill="#fe00ff" stroke="black" stroke-width="5"/>
<path d="M7452,4692 l1520,0 l0,1283 l-1520,0 z" fill="#d800ff" stroke="black" stroke-width="5"/>
<path d="M3209,1952 l538,0 l0,538 l-538,0 z" fill="#fe00ff" stroke="black" stroke-width="5"/>
<path d="M3724,6384 l1348,0 l0,1500 l-1348,0 z" fill="#fe00ff" stroke="black" stroke-width="5"/>
<path d="M2472,6149 l992,0 l0,992 l-992,0 z" fill="#fe00ff" stroke="black" stroke-width="5"/>
<path d="M0,6863 l2472,0 l0,468 l-2472,0 z" fill="#c900ff" stroke="black" stroke-width="5"/>
<path d="M1005,8511 l675,0 l0,675 l-675,0 z" fill="#fe00ff" stroke="black" stroke-width="5"/>
<path d="M8622,726 l1180,0 l0,1180 l-1180,0 z" fill="#fe00ff" stroke="black" stroke-width="5"/>
<path d="M7314,9343 l641,0 l0,657 l-641,0 z" fill="#fe00ff" stroke="black" stroke-width="5"/>
<path d="M0,0 l3708,0 l0,359 l-3708,0 z" fill="#9200ff" stroke="black" stroke-width="5"/>
<path d="M10,7331 l2483,0 l0,596 l-2483,0 z" fill="#fe00ff" stroke="black" stroke-width="5"/>
<path d="M0,1347 l744,0 l0,977 l-744,0 z" fill="#fe00ff" stroke="black" stroke-width="5"/>
<path d="M7747,1982 l1241,0 l0,1240 l-1241,0 z" fill="#fe00ff" stroke="black" stroke-width="5"/>
<path d="M1268,4800 l2196,0 l0,1349 l-2196,0 z" fill="#ca00ff" stroke="black" stroke-width="5"/>
<path d="M7525,1982 l222,0 l0,2155 l-222,0 z" fill="#2700ff" stroke="black" stroke-width="5"/>
<path d="M3464,3881 l650,0 l0,2503 l-650,0 z" fill="#5900ff" stroke="black" stroke-width="5"/>
<path d="M7974,9288 l2026,0 l0,712 l-2026,0 z" fill="#fe00ff" stroke="black" stroke-width="5"/>
<path d="M5581,7789 l947,0 l0,947 l-947,0 z" fill="#fe00ff" stroke="black" stroke-width="5"/>
<path d="M5072,5178 l720,0 l0,2611 l-720,0 z" fill="#f800ff" stroke="black" stroke-width="5"/>
<path d="M26,359 l1714,0 l0,859 l-1714,0 z" fill="#fe00ff" stroke="black" stroke-width="5"/>
<path d="M6954,4024 l498,0 l0,4623 l-498,0 z" fill="#fe00ff" stroke="black" stroke-width="5"/>
<path d="M4126,171 l1351,0 l0,1351 l-1351,0 z" fill="#fe00ff" stroke="black" stroke-width="5"/>
<path d="M2518,7884 l2793,0 l0,2116 l-2793,0 z" fill="#fe00ff" stroke="black" stroke-width="5"/>
<path d="M9186,2219 l518,0 l0,517 l-518,0 z" fill="#fe00ff" stroke="black" stroke-width="5"/>
<path d="M8391,7591 l1609,0 l0,1696 l-1609,0 z" fill="#eb00ff" stroke="black" stroke-width="5"/>
<path d="M8972,4272 l1028,0 l0,1783 l-1028,0 z" fill="#fe00ff" stroke="black" stroke-width="5"/>
<path d="M8391,9287 l1609,0 l0,1 l-1609,0 z" fill="#0000ff" stroke="black" stroke-width="5"/>
<path d="M3806,2894 l1597,0 l0,987 l-1597,0 z" fill="#fe00ff" stroke="black" stroke-width="5"/>
<path d="M6792,3042 l492,0 l0,982 l-492,0 z" fill="#fe00ff" stroke="black" stroke-width="5"/>
<path d="M4720,4454 l724,0 l0,724 l-724,0 z" fill="#fe00ff" stroke="black" stroke-width="5"/>
<path d="M9688,6025 l60,0 l0,60 l-60,0 z" fill="green"/>
<path d="M9718,6055 l-627,768" stroke="black" stroke-width="5"/>
<path d="M1726,8659 l60,0 l0,60 l-60,0 z" fill="green"/>
<path d="M1756,8689 l343,0" stroke="black" stroke-width="5"/>
<path d="M6173,1938 l60,0 l0,60 l-60,0 z" fill="green"/>
<path d="M6203,1968 l0.5,-52.5" stroke="black" stroke-width="5"/>
<path d="M3031,1327 l60,0 l0,60 l-60,0 z" fill="green"/>
<path d="M3061,1357 l0,-25.5" stroke="black" stroke-width="5"/>
<path d="M618,4425 l60,0 l0,60 l-60,0 z" fill="green"/>
<path d="M648,4455 l0.5,0.5" stroke="black" stroke-width="5"/>
<path d="M816,6624 l60,0 l0,60 l-60,0 z" fill="green"/>
<path d="M846,6654 l0.5,0" stroke="black" stroke-width="5"/>
<path d="M7699,4384 l60,0 l0,60 l-60,0 z" fill="green"/>
<path d="M7729,4414 l0.5,0.5" stroke="black" stroke-width="5"/>
<path d="M8416,1620 l60,0 l0,60 l-60,0 z" fill="green"/>
<path d="M8446,1650 l-445,-366.5" stroke="black" stroke-width="5"/>
<path d="M3862,1455 l60,0 l0,60 l-60,0 z" fill="green"/>
<path d="M3892,1485 l25,-509" stroke="black" stroke-width="5"/>
<path d="M6406,2248 l60,0 l0,60 l-60,0 z" fill="green"/>
<path d="M6436,2278 l28,382" stroke="black" stroke-width="5"/>
<path d="M469,2412 l60,0 l0,60 l-60,0 z" fill="green"/>
<path d="M499,2442 l277,549.5" stroke="black" stroke-width="5"/>
<path d="M1969,2473 l60,0 l0,60 l-60,0 z" fill="green"/>
<path d="M1999,2503 l0,0.5" stroke="black" stroke-width="5"/>
<path d="M7283,9480 l60,0 l0,60 l-60,0 z" fill="green"/>
<path d="M7313,9510 l-286,-41.5" stroke="black" stroke-width="5"/>
<path d="M4313,5964 l60,0 l0,60 l-60,0 z" fill="green"/>
<path d="M4343,5994 l0,0.5" stroke="black" stroke-width="5"/>
<path d="M8360,9076 l60,0 l0,60 l-60,0 z" fill="green"/>
<path d="M8390,9106 l-468.5,-666.5" stroke="black" stroke-width="5"/>
<path d="M8338,5945 l60,0 l0,60 l-60,0 z" fill="green"/>
<path d="M8368,5975 l-156,40" stroke="black" stroke-width="5"/>
<path d="M1940,4234 l60,0 l0,60 l-60,0 z" fill="green"/>
<path d="M1970,4264 l0,0.5" stroke="black" stroke-width="5"/>
<path d="M9119,71 l60,0 l0,60 l-60,0 z" fill="green"/>
<path d="M9149,101 l0,57" stroke="black" stroke-width="5"/>
<path d="M6710,3455 l60,0 l0,60 l-60,0 z" fill="green"/>
<path d="M6740,3485 l-55.5,0" stroke="black" stroke-width="5"/>
<path d="M5644,3305 l60,0 l0,60 l-60,0 z" fill="green"/>
<path d="M5674,3335 l0,0" stroke="black" stroke-width="5"/>
<path d="M1271,1507 l60,0 l0,60 l-60,0 z" fill="green"/>
<path d="M1301,1537 l0,0.5" stroke="black" stroke-width="5"/>
<path d="M3166,3286 l60,0 l0,60 l-60,0 z" fill="green"/>
<path d="M3196,3316 l0,0" stroke="black" stroke-width="5"/>
<path d="M9221,2096 l60,0 l0,60 l-60,0 z" fill="green"/>
<path d="M9251,2126 l243,-63.5" stroke="black" stroke-width="5"/>
<path d="M548,9213 l60,0 l0,60 l-60,0 z" fill="green"/>
<path d="M578,9243 l-75.5,0.5" stroke="black" stroke-width="5"/>
<path d="M9765,3326 l60,0 l0,60 l-60,0 z" fill="green"/>
<path d="M9795,3356 l-301,148" stroke="black" stroke-width="5"/>
<path d="M6343,5476 l60,0 l0,60 l-60,0 z" fill="green"/>
<path d="M6373,5506 l0,0.5" stroke="black" stroke-width="5"/>
<path d="M4612,2502 l60,0 l0,60 l-60,0 z" fill="green"/>
<path d="M4642,2532 l0,0.5" stroke="black" stroke-width="5"/>
<path d="M8583,5307 l60,0 l0,60 l-60,0 z" fill="green"/>
<path d="M8613,5337 l-401,-3.5" stroke="black" stroke-width="5"/>
<path d="M3448,2191 l60,0 l0,60 l-60,0 z" fill="green"/>
<path d="M3478,2221 l0,0" stroke="black" stroke-width="5"/>
<path d="M4444,7104 l60,0 l0,60 l-60,0 z" fill="green"/>
<path d="M4474,7134 l-76,0" stroke="black" stroke-width="5"/>
<path d="M2938,6615 l60,0 l0,60 l-60,0 z" fill="green"/>
<path d="M2968,6645 l0,0" stroke="black" stroke-width="5"/>
<path d="M1276,7300 l60,0 l0,60 l-60,0 z" fill="green"/>
<path d="M1306,7330 l-70,-233" stroke="black" stroke-width="5"/>
<path d="M1312,8818 l60,0 l0,60 l-60,0 z" fill="green"/>
<path d="M1342,8848 l0.5,0.5" stroke="black" stroke-width="5"/>
<path d="M9182,1286 l60,0 l0,60 l-60,0 z" fill="green"/>
<path d="M9212,1316 l0,0" stroke="black" stroke-width="5"/>
<path d="M7530,9708 l60,0 l0,60 l-60,0 z" fill="green"/>
<path d="M7560,9738 l74.5,-66.5" stroke="black" stroke-width="5"/>
<path d="M604,328 l60,0 l0,60 l-60,0 z" fill="green"/>
<path d="M634,358 l1220,-178.5" stroke="black" stroke-width="5"/>
<path d="M1221,7464 l60,0 l0,60 l-60,0 z" fill="green"/>
<path d="M1251,7494 l0.5,135" stroke="black" stroke-width="5"/>
<path d="M226,1805 l60,0 l0,60 l-60,0 z" fill="green"/>
<path d="M256,1835 l116,0.5" stroke="black" stroke-width="5"/>
<path d="M8337,2572 l60,0 l0,60 l-60,0 z" fill="green"/>
<path d="M8367,2602 l0.5,0" stroke="black" stroke-width="5"/>
<path d="M2397,5725 l60,0 l0,60 l-60,0 z" fill="green"/>
<path d="M2427,5755 l-61,-280.5" stroke="black" stroke-width="5"/>
<path d="M7688,2135 l60,0 l0,60 l-60,0 z" fill="green"/>
<path d="M7718,2165 l-82,894.5" stroke="black" stroke-width="5"/>
<path d="M3756,5943 l60,0 l0,60 l-60,0 z" fill="green"/>
<path d="M3786,5973 l3,-840.5" stroke="black" stroke-width="5"/>
<path d="M9433,9927 l60,0 l0,60 l-60,0 z" fill="green"/>
<path d="M9463,9957 l-476,-313" stroke="black" stroke-width="5"/>
<path d="M6024,8232 l60,0 l0,60 l-60,0 z" fill="green"/>
<path d="M6054,8262 l0.5,0.5" stroke="black" stroke-width="5"/>
<path d="M5042,6702 l60,0 l0,60 l-60,0 z" fill="green"/>
<path d="M5072,6732 l360,-248.5" stroke="black" stroke-width="5"/>
<path d="M853,1084 l60,0 l0,60 l-60,0 z" fill="green"/>
<path d="M883,1114 l0,-325.5" stroke="black" stroke-width="5"/>
<path d="M7254,4585 l60,0 l0,60 l-60,0 z" fill="green"/>
<path d="M7284,4615 l-81,1720.5" stroke="black" stroke-width="5"/>
<path d="M4771,816 l60,0 l0,60 l-60,0 z" fill="green"/>
<path d="M4801,846 l0.5,0.5" stroke="black" stroke-width="5"/>
<path d="M3025,8710 l60,0 l0,60 l-60,0 z" fill="green"/>
<path d="M3055,8740 l859.5,202" stroke="black" stroke-width="5"/>
<path d="M9415,2447 l60,0 l0,60 l-60,0 z" fill="green"/>
<path d="M9445,2477 l0,0.5" stroke="black" stroke-width="5"/>
<path d="M9718,8603 l60,0 l0,60 l-60,0 z" fill="green"/>
<path d="M9748,8633 l-552.5,-194" stroke="black" stroke-width="5"/>
<path d="M9946,5247 l60,0 l0,60 l-60,0 z" fill="green"/>
<path d="M9976,5277 l-490,-113.5" stroke="black" stroke-width="5"/>
<path d="M9108,9257 l60,0 l0,60 l-60,0 z" fill="green"/>
<path d="M9138,9287 l57.5,0.5" stroke="black" stroke-width="5"/>
<path d="M4719,2909 l60,0 l0,60 l-60,0 z" fill="green"/>
<path d="M4749,2939 l-144.5,448.5" stroke="black" stroke-width="5"/>
<path d="M6762,3503 l60,0 l0,60 l-60,0 z" fill="green"/>
<path d="M6792,3533 l246,0" stroke="black" stroke-width="5"/>
<path d="M5052,4786 l60,0 l0,60 l-60,0 z" fill="green"/>
<path d="M5082,4816 l0,0" stroke="black" stroke-width="5"/>
<text font-size="188.9822365046136" text-anchor="middle" x="9091" y="6889.143782776615">
0
</text>
<text font-size="188.9822365046136" text-anchor="middle" x="2099" y="8755.143782776615">
1
</text>
<text font-size="188.9822365046136" text-anchor="middle" x="6203.5" y="1981.6437827766147">
2
</text>
<text font-size="188.9822365046136" text-anchor="middle" x="3061" y="1397.6437827766147">
3
</text>
<text font-size="188.9822365046136" text-anchor="middle" x="648.5" y="4521.643782776615">
4
</text>
<text font-size="188.9822365046136" text-anchor="middle" x="846.5" y="6720.143782776615">
5
</text>
<text font-size="188.9822365046136" text-anchor="middle" x="7729.5" y="4480.643782776615">
6
</text>
<text font-size="188.9822365046136" text-anchor="middle" x="8001" y="1349.6437827766147">
7
</text>
<text font-size="188.9822365046136" text-anchor="middle" x="3917" y="1042.1437827766147">
8
</text>
<text font-size="188.9822365046136" text-anchor="middle" x="6464" y="2726.143782776615">
9
</text>
<text font-size="188.9822365046136" text-anchor="middle" x="776" y="3057.643782776615">
10
</text>
<text font-size="188.9822365046136" text-anchor="middle" x="1999" y="2569.643782776615">
11
</text>
<text font-size="188.9822365046136" text-anchor="middle" x="7027" y="9534.643782776615">
12
</text>
<text font-size="188.9822365046136" text-anchor="middle" x="4343" y="6060.643782776615">
13
</text>
<text font-size="188.9822365046136" text-anchor="middle" x="7921.5" y="8505.643782776615">
14
</text>
<text font-size="188.9822365046136" text-anchor="middle" x="8212" y="6081.143782776615">
15
</text>
<text font-size="188.9822365046136" text-anchor="middle" x="1970" y="4330.643782776615">
16
</text>
<text font-size="188.9822365046136" text-anchor="middle" x="9149" y="224.14378277661476">
17
</text>
<text font-size="188.9822365046136" text-anchor="middle" x="6684.5" y="3551.143782776615">
18
</text>
<text font-size="188.9822365046136" text-anchor="middle" x="5674" y="3401.143782776615">
19
</text>
<text font-size="188.9822365046136" text-anchor="middle" x="1301" y="1603.6437827766147">
20
</text>
<text font-size="188.9822365046136" text-anchor="middle" x="3196" y="3382.143782776615">
21
</text>
<text font-size="188.9822365046136" text-anchor="middle" x="9494" y="2128.643782776615">
22
</text>
<text font-size="188.9822365046136" text-anchor="middle" x="502.5" y="9309.643782776615">
23
</text>
<text font-size="188.9822365046136" text-anchor="middle" x="9494" y="3570.143782776615">
24
</text>
<text font-size="188.9822365046136" text-anchor="middle" x="6373" y="5572.643782776615">
25
</text>
<text font-size="188.9822365046136" text-anchor="middle" x="4642" y="2598.643782776615">
26
</text>
<text font-size="188.9822365046136" text-anchor="middle" x="8212" y="5399.643782776615">
27
</text>
<text font-size="188.9822365046136" text-anchor="middle" x="3478" y="2287.143782776615">
28
</text>
<text font-size="188.9822365046136" text-anchor="middle" x="4398" y="7200.143782776615">
29
</text>
<text font-size="188.9822365046136" text-anchor="middle" x="2968" y="6711.143782776615">
30
</text>
<text font-size="188.9822365046136" text-anchor="middle" x="1236" y="7163.143782776615">
31
</text>
<text font-size="188.9822365046136" text-anchor="middle" x="1342.5" y="8914.643782776615">
32
</text>
<text font-size="188.9822365046136" text-anchor="middle" x="9212" y="1382.1437827766147">
33
</text>
<text font-size="188.9822365046136" text-anchor="middle" x="7634.5" y="9737.643782776615">
34
</text>
<text font-size="188.9822365046136" text-anchor="middle" x="1854" y="245.64378277661476">
35
</text>
<text font-size="188.9822365046136" text-anchor="middle" x="1251.5" y="7695.143782776615">
36
</text>
<text font-size="188.9822365046136" text-anchor="middle" x="372" y="1901.6437827766147">
37
</text>
<text font-size="188.9822365046136" text-anchor="middle" x="8367.5" y="2668.143782776615">
38
</text>
<text font-size="188.9822365046136" text-anchor="middle" x="2366" y="5540.643782776615">
39
</text>
<text font-size="188.9822365046136" text-anchor="middle" x="7636" y="3125.643782776615">
40
</text>
<text font-size="188.9822365046136" text-anchor="middle" x="3789" y="5198.643782776615">
41
</text>
<text font-size="188.9822365046136" text-anchor="middle" x="8987" y="9710.143782776615">
42
</text>
<text font-size="188.9822365046136" text-anchor="middle" x="6054.5" y="8328.643782776615">
43
</text>
<text font-size="188.9822365046136" text-anchor="middle" x="5432" y="6549.643782776615">
44
</text>
<text font-size="188.9822365046136" text-anchor="middle" x="883" y="854.6437827766148">
45
</text>
<text font-size="188.9822365046136" text-anchor="middle" x="7203" y="6401.643782776615">
46
</text>
<text font-size="188.9822365046136" text-anchor="middle" x="4801.5" y="912.6437827766148">
47
</text>
<text font-size="188.9822365046136" text-anchor="middle" x="3914.5" y="9008.143782776615">
48
</text>
<text font-size="188.9822365046136" text-anchor="middle" x="9445" y="2543.643782776615">
49
</text>
<text font-size="188.9822365046136" text-anchor="middle" x="9195.5" y="8505.143782776615">
50
</text>
<text font-size="188.9822365046136" text-anchor="middle" x="9486" y="5229.643782776615">
51
</text>
<text font-size="188.9822365046136" text-anchor="middle" x="9195.5" y="9353.643782776615">
52
</text>
<text font-size="188.9822365046136" text-anchor="middle" x="4604.5" y="3453.643782776615">
53
</text>
<text font-size="188.9822365046136" text-anchor="middle" x="7038" y="3599.143782776615">
54
</text>
<text font-size="188.9822365046136" text-anchor="middle" x="5082" y="4882.143782776615">
55
</text>
</svg>