<svg viewBox="-100 -100 10200 10200" xmlns="http://www.w3.org/2000/svg">
<path d="M0,0 l10000,0 l0,10000 l-10000,0 z" fill="white"/>
<path d="M3771,9229 l961,0 l0,771 l-961,0 z" fill="#da00ff" stroke="black" stroke-width="5"/>
<path d="M1368,3163 l422,0 l0,662 l-422,0 z" fill="#7400ff" stroke="black" stroke-width="5"/>
<path d="M2987,6769 l739,0 l0,1296 l-739,0 z" fill="#fe00ff" stroke="black" stroke-width="5"/>
<path d="M7705,7831 l717,0 l0,622 l-717,0 z" fill="#fe00ff" stroke="black" stroke-width="5"/>
<path d="M8793,0 l1207,0 l0,851 l-1207,0 z" fill="#2800ff" stroke="black" stroke-width="5"/>
<path d="M0,9707 l3478,0 l0,293 l-3478,0 z" fill="#fd00ff" stroke="black" stroke-width="5"/>
<path d="M5681,8526 l437,0 l0,436 l-437,0 z" fill="#fe00ff" stroke="black" stroke-width="5"/>
<path d="M1563,2208 l310,0 l0,343 l-310,0 z" fill="#fe00ff" stroke="black" stroke-width="5"/>
<path d="M2886,6393 l1,0 l0,1082 l-1,0 z" fill="#2b00ff" stroke="black" stroke-width="5"/>
<path d="M7582,7830 l123,0 l0,1403 l-123,0 z" fill="#8b00ff" stroke="black" stroke-width="5"/>
<path d="M7360,1034 l300,0 l0,300 l-300,0 z" fill="#fe00ff" stroke="black" stroke-width="5"/>
<path d="M5776,4013 l342,0 l0,411 l-342,0 z" fill="#fe00ff" stroke="black" stroke-width="5"/>
<path d="M8945,6079 l277,0 l0,1751 l-277,0 z" fill="#8500ff" stroke="black" stroke-width="5"/>
<path d="M2187,5690 l700,0 l0,703 l-700,0 z" fill="#fe00ff" stroke="black" stroke-width="5"/>
<path d="M1010,2771 l392,0 l0,392 l-392,0 z" fill="#fe00ff" stroke="black" stroke-width="5"/>
<path d="M6009,6367 l14,0 l0,26 l-14,0 z" fill="#fe00ff" stroke="black" stroke-width="5"/>
<path d="M5248,3529 l528,0 l0,1275 l-528,0 z" fill="#fc00ff" stroke="black" stroke-width="5"/>
<path d="M3348,4870 l607,0 l0,607 l-607,0 z" fill="#fe00ff" stroke="black" stroke-width="5"/>
<path d="M7607,2240 l1409,0 l0,610 l-1409,0 z" fill="#fe00ff" stroke="black" stroke-width="5"/>
<path d="M4610,857 l301,0 l0,264 l-301,0 z" fill="#fe00ff" stroke="black" stroke-width="5"/>
<path d="M7081,2861 l176,0 l0,350 l-176,0 z" fill="#fe00ff" stroke="black" stroke-width="5"/>
<path d="M3835,8562 l667,0 l0,667 l-667,0 z" fill="#fe00ff" stroke="black" stroke-width="5"/>
<path d="M1277,6803 l1092,0 l0,939 l-1092,0 z" fill="#fe00ff" stroke="black" stroke-width="5"/>
<path d="M7660,6116 l91,0 l0,180 l-91,0 z" fill="#fe00ff" stroke="black" stroke-width="5"/>
<path d="M1357,5035 l830,0 l0,745 l-830,0 z" fill="#0e00ff" stroke="black" stroke-width="5"/>
<path d="M6152,6786 l1301,0 l0,514 l-1301,0 z" fill="#fe00ff" stroke="black" stroke-width="5"/>
<path d="M8793,851 l1207,0 l0,212 l-1207,0 z" fill="#0800ff" stroke="black" stroke-width="5"/>
<path d="M18,6393 l629,0 l0,212 l-629,0 z" fill="#fe00ff" stroke="black" stroke-width="5"/>
<path d="M4940,4804 l688,0 l0,687 l-688,0 z" fill="#fe00ff" stroke="black" stroke-width="5"/>
<path d="M3726,6481 l45,0 l0,3519 l-45,0 z" fill="#0c00ff" stroke="black" stroke-width="5"/>
<path d="M5109,528 l1027,0 l0,1738 l-1027,0 z" fill="#fe00ff" stroke="black" stroke-width="5"/>
<path d="M0,3958 l1034,0 l0,1128 l-1034,0 z" fill="#fe00ff" stroke="black" stroke-width="5"/>
<path d="M647,6803 l630,0 l0,648 l-630,0 z" fill="#eb00ff" stroke="black" stroke-width="5"/>
<path d="M7034,6368 l419,0 l0,418 l-419,0 z" fill="#fe00ff" stroke="black" stroke-width="5"/>
<path d="M4914,4413 l279,0 l0,198 l-279,0 z" fill="#fe00ff" stroke="black" stroke-width="5"/>
<path d="M1873,1286 l455,0 l0,1265 l-455,0 z" fill="#e800ff" stroke="black" stroke-width="5"/>
<path d="M3110,3811 l490,0 l0,490 l-490,0 z" fill="#fe00ff" stroke="black" stroke-width="5"/>
<path d="M2376,4538 l311,0 l0,156 l-311,0 z" fill="#fe00ff" stroke="black" stroke-width="5"/>
<path d="M647,6393 l2239,0 l0,410 l-2239,0 z" fill="#ee00ff" stroke="black" stroke-width="5"/>
<path d="M1034,4694 l141,0 l0,140 l-141,0 z" fill="#fe00ff" stroke="black" stroke-width="5"/>
<path d="M3627,3654 l539,0 l0,546 l-539,0 z" fill="#fe00ff" stroke="black" stroke-width="5"/>
<path d="M503,3163 l865,0 l0,795 l-865,0 z" fill="#fe00ff" stroke="black" stroke-width="5"/>
<path d="M7336,1428 l358,0 l0,583 l-358,0 z" fill="#fe00ff" stroke="black" stroke-width="5"/>
<path d="M6136,528 l586,0 l0,1738 l-586,0 z" fill="#9d00ff" stroke="black" stroke-width="5"/>
<path d="M6118,8526 l650,0 l0,707 l-650,0 z" fill="#e800ff" stroke="black" stroke-width="5"/>
<path d="M8944,5228 l1,0 l0,2602 l-1,0 z" fill="#0000ff" stroke="black" stroke-width="5"/>
<path d="M9087,1063 l512,0 l0,1787 l-512,0 z" fill="#c400ff" stroke="black" stroke-width="5"/>
<path d="M64,8264 l735,0 l0,734 l-735,0 z" fill="#fe00ff" stroke="black" stroke-width="5"/>
<path d="M4502,8607 l738,0 l0,622 l-738,0 z" fill="#1500ff" stroke="black" stroke-width="5"/>
<path d="M7337,7830 l245,0 l0,1403 l-245,0 z" fill="#c000ff" stroke="black" stroke-width="5"/>
<path d="M3938,0 l1171,0 l0,857 l-1171,0 z" fill="#fe00ff" stroke="black" stroke-width="5"/>
<path d="M7694,731 l1,0 l0,1509 l-1,0 z" fill="#0000ff" stroke="black" stroke-width="5"/>
<path d="M2115,7742 l254,0 l0,554 l-254,0 z" fill="#0400ff" stroke="black" stroke-width="5"/>
<path d="M5687,8192 l313,0 l0,334 l-313,0 z" fill="#fe00ff" stroke="black" stroke-width="5"/>
<path d="M4797,6481 l457,0 l0,541 l-457,0 z" fill="#fe00ff" stroke="black" stroke-width="5"/>
<path d="M6722,1832 l468,0 l0,935 l-468,0 z" fill="#fe00ff" stroke="black" stroke-width="5"/>
<path d="M4229,6481 l568,0 l0,283 l-568,0 z" fill="#fe00ff" stroke="black" stroke-width="5"/>
<path d="M6923,0 l1187,0 l0,731 l-1187,0 z" fill="#fe00ff" stroke="black" stroke-width="5"/>
<path d="M998,1348 l875,0 l0,860 l-875,0 z" fill="#fe00ff" stroke="black" stroke-width="5"/>
<path d="M4914,5625 l341,0 l0,341 l-341,0 z" fill="#fe00ff" stroke="black" stroke-width="5"/>
<path d="M7817,5228 l1127,0 l0,1418 l-1127,0 z" fill="#de00ff" stroke="black" stroke-width="5"/>
<path d="M7403,3701 l394,0 l0,198 l-394,0 z" fill="#fe00ff" stroke="black" stroke-width="5"/>
<path d="M2328,988 l167,0 l0,3503 l-167,0 z" fill="#fe00ff" stroke="black" stroke-width="5"/>
<path d="M3937,7236 l509,0 l0,255 l-509,0 z" fill="#fe00ff" stroke="black" stroke-width="5"/>
<path d="M2980,828 l634,0 l0,633 l-634,0 z" fill="#fe00ff" stroke="black" stroke-width="5"/>
<path d="M1698,8296 l795,0 l0,492 l-795,0 z" fill="#fe00ff" stroke="black" stroke-width="5"/>
<path d="M2505,431 l942,0 l0,397 l-942,0 z" fill="#fe00ff" stroke="black" stroke-width="5"/>
<path d="M3955,4434 l959,0 l0,1638 l-959,0 z" fill="#fe00ff" stroke="black" stroke-width="5"/>
<path d="M627,24 l621,0 l0,620 l-621,0 z" fill="#fe00ff" stroke="black" stroke-width="5"/>
<path d="M8972,5530 l549,0 l0,549 l-549,0 z" fill="#fe00ff" stroke="black" stroke-width="5"/>
<path d="M3478,9694 l248,0 l0,306 l-248,0 z" fill="#fe00ff" stroke="black" stroke-width="5"/>
<path d="M2495,828 l243,0 l0,1033 l-243,0 z" fill="#3000ff" stroke="black" stroke-width="5"/>
<path d="M1837,2551 l491,0 l0,490 l-491,0 z" fill="#fe00ff" stroke="black" stroke-width="5"/>
<path d="M6045,2266 l677,0 l0,490 l-677,0 z" fill="#8d00ff" stroke="black" stroke-width="5"/>
<path d="M7266,5135 l327,0 l0,327 l-327,0 z" fill="#fe00ff" stroke="black" stroke-width="5"/>
<path d="M3263,3522 l248,0 l0,248 l-248,0 z" fill="#fe00ff" stroke="black" stroke-width="5"/>
<path d="M2369,6803 l284,0 l0,1493 l-284,0 z" fill="#df00ff" stroke="black" stroke-width="5"/>
<path d="M9456,2867 l516,0 l0,1030 l-516,0 z" fill="#fe00ff" stroke="black" stroke-width="5"/>
<path d="M2069,9326 l336,0 l0,336 l-336,0 z" fill="#fe00ff" stroke="black" stroke-width="5"/>
<path d="M9346,8810 l405,0 l0,405 l-405,0 z" fill="#fe00ff" stroke="black" stroke-width="5"/>
<path d="M8422,8050 l433,0 l0,433 l-433,0 z" fill="#fe00ff" stroke="black" stroke-width="5"/>
<path d="M9599,1063 l401,0 l0,1804 l-401,0 z" fill="#7f00ff" stroke="black" stroke-width="5"/>
<path d="M1248,0 l953,0 l0,1286 l-953,0 z" fill="#fe00ff" stroke="black" stroke-width="5"/>
<path d="M6045,2756 l299,0 l0,1257 l-299,0 z" fill="#4300ff" stroke="black" stroke-width="5"/>
<path d="M9222,6079 l299,0 l0,411 l-299,0 z" fill="#fe00ff" stroke="black" stroke-width="5"/>
<path d="M166,5780 l2021,0 l0,613 l-2021,0 z" fill="#fe00ff" stroke="black" stroke-width="5"/>
<path d="M2887,6329 l3122,0 l0,152 l-3122,0 z" fill="#f000ff" stroke="black" stroke-width="5"/>
<path d="M4732,9233 l3727,0 l0,767 l-3727,0 z" fill="#d700ff" stroke="black" stroke-width="5"/>
<path d="M9521,6013 l258,0 l0,310 l-258,0 z" fill="#fe00ff" stroke="black" stroke-width="5"/>
<path d="M2738,1461 l2371,0 l0,400 l-2371,0 z" fill="#da00ff" stroke="black" stroke-width="5"/>
<path d="M2579,0 l819,0 l0,431 l-819,0 z" fill="#fe00ff" stroke="black" stroke-width="5"/>
<path d="M5501,0 l1422,0 l0,528 l-1422,0 z" fill="#fe00ff" stroke="black" stroke-width="5"/>
<path d="M4864,8101 l817,0 l0,506 l-817,0 z" fill="#fe00ff" stroke="black" stroke-width="5"/>
<path d="M6344,2756 l378,0 l0,44 l-378,0 z" fill="#0000ff" stroke="black" stroke-width="5"/>
<path d="M1175,4694 l1012,0 l0,341 l-1012,0 z" fill="#f900ff" stroke="black" stroke-width="5"/>
<path d="M7705,7830 l2295,0 l0,1 l-2295,0 z" fill="#0000ff" stroke="black" stroke-width="5"/>
<path d="M2495,1861 l303,0 l0,2188 l-303,0 z" fill="#fe00ff" stroke="black" stroke-width="5"/>
<path d="M7866,1826 l449,0 l0,414 l-449,0 z" fill="#fe00ff" stroke="black" stroke-width="5"/>
<path d="M5248,2266 l797,0 l0,1263 l-797,0 z" fill="#fe00ff" stroke="black" stroke-width="5"/>
<path d="M2798,1861 l2311,0 l0,373 l-2311,0 z" fill="#e500ff" stroke="black" stroke-width="5"/>
<path d="M6768,8526 l569,0 l0,707 l-569,0 z" fill="#2500ff" stroke="black" stroke-width="5"/>
<path d="M8315,1826 l772,0 l0,414 l-772,0 z" fill="#0b00ff" stroke="black" stroke-width="5"/>
<path d="M7751,4757 l66,0 l0,1889 l-66,0 z" fill="#0900ff" stroke="black" stroke-width="5"/>
<path d="M3947,7491 l800,0 l0,628 l-800,0 z" fill="#fe00ff" stroke="black" stroke-width="5"/>
<path d="M3959,857 l519,0 l0,518 l-519,0 z" fill="#fe00ff" stroke="black" stroke-width="5"/>
<path d="M7227,7947 l110,0 l0,109 l-110,0 z" fill="#fe00ff" stroke="black" stroke-width="5"/>
<path d="M7453,6646 l1404,0 l0,1184 l-1404,0 z" fill="#fe00ff" stroke="black" stroke-width="5"/>
<path d="M647,7451 l618,0 l0,813 l-618,0 z" fill="#7500ff" stroke="black" stroke-width="5"/>
<path d="M3670,2309 l496,0 l0,501 l-496,0 z" fill="#fe00ff" stroke="black" stroke-width="5"/>
<path d="M2798,2234 l385,0 l0,688 l-385,0 z" fill="#fe00ff" stroke="black" stroke-width="5"/>
<path d="M7695,731 l1098,0 l0,1094 l-1098,0 z" fill="#b100ff" stroke="black" stroke-width="5"/>
<path d="M7695,1825 l1392,0 l0,1 l-1392,0 z" fill="#0000ff" stroke="black" stroke-width="5"/>
<path d="M1265,7742 l850,0 l0,554 l-850,0 z" fill="#fe00ff" stroke="black" stroke-width="5"/>
<path d="M869,5344 l122,0 l0,242 l-122,0 z" fill="#fe00ff" stroke="black" stroke-width="5"/>
<path d="M1790,3478 l301,0 l0,300 l-301,0 z" fill="#fe00ff" stroke="black" stroke-width="5"/>
<path d="M4167,2839 l1081,0 l0,1574 l-1081,0 z" fill="#fe00ff" stroke="black" stroke-width="5"/>
<path d="M8349,2850 l1107,0 l0,1452 l-1107,0 z" fill="#fe00ff" stroke="black" stroke-width="5"/>
<path d="M3322,9438 l215,0 l0,214 l-215,0 z" fill="#fe00ff" stroke="black" stroke-width="5"/>
<path d="M2671,8065 l773,0 l0,696 l-773,0 z" fill="#fe00ff" stroke="black" stroke-width="5"/>
<path d="M4460,6072 l547,0 l0,257 l-547,0 z" fill="#fe00ff" stroke="black" stroke-width="5"/>
<path d="M8459,8680 l569,0 l0,568 l-569,0 z" fill="#fe00ff" stroke="black" stroke-width="5"/>
<path d="M135,9336 l741,0 l0,371 l-741,0 z" fill="#fe00ff" stroke="black" stroke-width="5"/>
<path d="M4166,2234 l1,0 l0,2200 l-1,0 z" fill="#0000ff" stroke="black" stroke-width="5"/>
<path d="M6000,7300 l1227,0 l0,1226 l-1227,0 z" fill="#6f00ff" stroke="black" stroke-width="5"/>
<path d="M6915,3899 l1265,0 l0,858 l-1265,0 z" fill="#fe00ff" stroke="black" stroke-width="5"/>
<path d="M8180,4562 l1239,0 l0,666 l-1239,0 z" fill="#fe00ff" stroke="black" stroke-width="5"/>
<path d="M3447,42 l491,0 l0,786 l-491,0 z" fill="#fe00ff" stroke="black" stroke-width="5"/>
<path d="M6118,4330 l73,0 l0,73 l-73,0 z" fill="#fe00ff" stroke="black" stroke-width="5"/>
<path d="M991,5264 l366,0 l0,516 l-366,0 z" fill="#fe00ff" stroke="black" stroke-width="5"/>
<path d="M6344,2800 l737,0 l0,935 l-737,0 z" fill="#fe00ff" stroke="black" stroke-width="5"/>
<path d="M2187,4694 l1161,0 l0,996 l-1161,0 z" fill="#c600ff" stroke="black" stroke-width="5"/>
<path d="M3595,6072 l865,0 l0,257 l-865,0 z" fill="#fe00ff" stroke="black" stroke-width="5"/>
<path d="M5240,8607 l441,0 l0,626 l-441,0 z" fill="#fd00ff" stroke="black" stroke-width="5"/>
<path d="M1451,3825 l877,0 l0,869 l-877,0 z" fill="#fe00ff" stroke="black" stroke-width="5"/>
<path d="M2653,7475 l316,0 l0,316 l-316,0 z" fill="#fe00ff" stroke="black" stroke-width="5"/>
<path d="M0,6605 l647,0 l0,1227 l-647,0 z" fill="#fe00ff" stroke="black" stroke-width="5"/>
<path d="M3997,8119 l867,0 l0,434 l-867,0 z" fill="#fe00ff" stroke="black" stroke-width="5"/>
<path d="M8793,1063 l294,0 l0,762 l-294,0 z" fill="#8600ff" stroke="black" stroke-width="5"/>
<path d="M4701,9738 l60,0 l0,60 l-60,0 z" fill="green"/>
<path d="M4731,9768 l-479.5,-153.5" stroke="black" stroke-width="5"/>
<path d="M1338,3465 l60,0 l0,60 l-60,0 z" fill="green"/>
<path d="M1368,3495 l211,-1" stroke="black" stroke-width="5"/>
<path d="M3604,7387 l60,0 l0,60 l-60,0 z" fill="green"/>
<path d="M3634,7417 l-277.5,0" stroke="black" stroke-width="5"/>
<path d="M8119,7883 l60,0 l0,60 l-60,0 z" fill="green"/>
<path d="M8149,7913 l-85.5,229" stroke="black" stroke-width="5"/>
<path d="M9357,820 l60,0 l0,60 l-60,0 z" fill="green"/>
<path d="M9387,850 l9.5,-424.5" stroke="black" stroke-width="5"/>
<path d="M567,9901 l60,0 l0,60 l-60,0 z" fill="green"/>
<path d="M597,9931 l1142,-77.5" stroke="black" stroke-width="5"/>
<path d="M5869,8714 l60,0 l0,60 l-60,0 z" fill="green"/>
<path d="M5899,8744 l0.5,0" stroke="black" stroke-width="5"/>
<path d="M1842,2487 l60,0 l0,60 l-60,0 z" fill="green"/>
<path d="M1872,2517 l-154,-137.5" stroke="black" stroke-width="5"/>
<path d="M2856,6363 l60,0 l0,60 l-60,0 z" fill="green"/>
<path d="M2886,6393 l0.5,541" stroke="black" stroke-width="5"/>
<path d="M7674,8082 l60,0 l0,60 l-60,0 z" fill="green"/>
<path d="M7704,8112 l-60.5,419.5" stroke="black" stroke-width="5"/>
<path d="M7480,1154 l60,0 l0,60 l-60,0 z" fill="green"/>
<path d="M7510,1184 l0,0" stroke="black" stroke-width="5"/>
<path d="M5952,4188 l60,0 l0,60 l-60,0 z" fill="green"/>
<path d="M5982,4218 l-35,0.5" stroke="black" stroke-width="5"/>
<path d="M9191,6209 l60,0 l0,60 l-60,0 z" fill="green"/>
<path d="M9221,6239 l-137.5,715.5" stroke="black" stroke-width="5"/>
<path d="M2795,6297 l60,0 l0,60 l-60,0 z" fill="green"/>
<path d="M2825,6327 l-288,-285.5" stroke="black" stroke-width="5"/>
<path d="M1176,2937 l60,0 l0,60 l-60,0 z" fill="green"/>
<path d="M1206,2967 l0,0" stroke="black" stroke-width="5"/>
<path d="M5979,6350 l60,0 l0,60 l-60,0 z" fill="green"/>
<path d="M6009,6380 l7,0" stroke="black" stroke-width="5"/>
<path d="M5218,3713 l60,0 l0,60 l-60,0 z" fill="green"/>
<path d="M5248,3743 l264,423.5" stroke="black" stroke-width="5"/>
<path d="M3621,5143 l60,0 l0,60 l-60,0 z" fill="green"/>
<path d="M3651,5173 l0.5,0.5" stroke="black" stroke-width="5"/>
<path d="M8281,2760 l60,0 l0,60 l-60,0 z" fill="green"/>
<path d="M8311,2790 l0.5,-245" stroke="black" stroke-width="5"/>
<path d="M4730,941 l60,0 l0,60 l-60,0 z" fill="green"/>
<path d="M4760,971 l0.5,18" stroke="black" stroke-width="5"/>
<path d="M7051,3006 l60,0 l0,60 l-60,0 z" fill="green"/>
<path d="M7081,3036 l88,0" stroke="black" stroke-width="5"/>
<path d="M4138,8865 l60,0 l0,60 l-60,0 z" fill="green"/>
<path d="M4168,8895 l0.5,0.5" stroke="black" stroke-width="5"/>
<path d="M1793,7166 l60,0 l0,60 l-60,0 z" fill="green"/>
<path d="M1823,7196 l0,76.5" stroke="black" stroke-width="5"/>
<path d="M7720,6176 l60,0 l0,60 l-60,0 z" fill="green"/>
<path d="M7750,6206 l-44.5,0" stroke="black" stroke-width="5"/>
<path d="M1399,5305 l60,0 l0,60 l-60,0 z" fill="green"/>
<path d="M1429,5335 l343,72.5" stroke="black" stroke-width="5"/>
<path d="M7009,7269 l60,0 l0,60 l-60,0 z" fill="green"/>
<path d="M7039,7299 l-236.5,-256" stroke="black" stroke-width="5"/>
<path d="M9227,1032 l60,0 l0,60 l-60,0 z" fill="green"/>
<path d="M9257,1062 l139.5,-105" stroke="black" stroke-width="5"/>
<path d="M575,6574 l60,0 l0,60 l-60,0 z" fill="green"/>
<path d="M605,6604 l-272.5,-105" stroke="black" stroke-width="5"/>
<path d="M5254,5117 l60,0 l0,60 l-60,0 z" fill="green"/>
<path d="M5284,5147 l0,0.5" stroke="black" stroke-width="5"/>
<path d="M3740,9866 l60,0 l0,60 l-60,0 z" fill="green"/>
<path d="M3770,9896 l-21.5,-1655.5" stroke="black" stroke-width="5"/>
<path d="M6061,1479 l60,0 l0,60 l-60,0 z" fill="green"/>
<path d="M6091,1509 l-468.5,-112" stroke="black" stroke-width="5"/>
<path d="M249,4239 l60,0 l0,60 l-60,0 z" fill="green"/>
<path d="M279,4269 l238,253" stroke="black" stroke-width="5"/>
<path d="M778,7117 l60,0 l0,60 l-60,0 z" fill="green"/>
<path d="M808,7147 l154,-20" stroke="black" stroke-width="5"/>
<path d="M7422,6755 l60,0 l0,60 l-60,0 z" fill="green"/>
<path d="M7452,6785 l-208.5,-208" stroke="black" stroke-width="5"/>
<path d="M4963,4383 l60,0 l0,60 l-60,0 z" fill="green"/>
<path d="M4993,4413 l60.5,99" stroke="black" stroke-width="5"/>
<path d="M2247,2368 l60,0 l0,60 l-60,0 z" fill="green"/>
<path d="M2277,2398 l-176.5,-479.5" stroke="black" stroke-width="5"/>
<path d="M3325,4026 l60,0 l0,60 l-60,0 z" fill="green"/>
<path d="M3355,4056 l0,0" stroke="black" stroke-width="5"/>
<path d="M2501,4663 l60,0 l0,60 l-60,0 z" fill="green"/>
<path d="M2531,4693 l0.5,-77" stroke="black" stroke-width="5"/>
<path d="M2167,6772 l60,0 l0,60 l-60,0 z" fill="green"/>
<path d="M2197,6802 l-430.5,-204" stroke="black" stroke-width="5"/>
<path d="M1074,4734 l60,0 l0,60 l-60,0 z" fill="green"/>
<path d="M1104,4764 l0.5,0" stroke="black" stroke-width="5"/>
<path d="M3870,3897 l60,0 l0,60 l-60,0 z" fill="green"/>
<path d="M3900,3927 l-3.5,0" stroke="black" stroke-width="5"/>
<path d="M931,3470 l60,0 l0,60 l-60,0 z" fill="green"/>
<path d="M961,3500 l-25.5,60.5" stroke="black" stroke-width="5"/>
<path d="M7597,1689 l60,0 l0,60 l-60,0 z" fill="green"/>
<path d="M7627,1719 l-112,0.5" stroke="black" stroke-width="5"/>
<path d="M6106,1441 l60,0 l0,60 l-60,0 z" fill="green"/>
<path d="M6136,1471 l293,-74" stroke="black" stroke-width="5"/>
<path d="M6110,8725 l60,0 l0,60 l-60,0 z" fill="green"/>
<path d="M6140,8755 l303,124.5" stroke="black" stroke-width="5"/>
<path d="M8914,6196 l60,0 l0,60 l-60,0 z" fill="green"/>
<path d="M8944,6226 l0.5,303" stroke="black" stroke-width="5"/>
<path d="M9203,2078 l60,0 l0,60 l-60,0 z" fill="green"/>
<path d="M9233,2108 l110,-151.5" stroke="black" stroke-width="5"/>
<path d="M401,8601 l60,0 l0,60 l-60,0 z" fill="green"/>
<path d="M431,8631 l0.5,0" stroke="black" stroke-width="5"/>
<path d="M5015,8738 l60,0 l0,60 l-60,0 z" fill="green"/>
<path d="M5045,8768 l-174,150" stroke="black" stroke-width="5"/>
<path d="M7551,7962 l60,0 l0,60 l-60,0 z" fill="green"/>
<path d="M7581,7992 l-121.5,539.5" stroke="black" stroke-width="5"/>
<path d="M4599,559 l60,0 l0,60 l-60,0 z" fill="green"/>
<path d="M4629,589 l-105.5,-160.5" stroke="black" stroke-width="5"/>
<path d="M7664,1623 l60,0 l0,60 l-60,0 z" fill="green"/>
<path d="M7694,1653 l0.5,-167.5" stroke="black" stroke-width="5"/>
<path d="M2142,8265 l60,0 l0,60 l-60,0 z" fill="green"/>
<path d="M2172,8295 l70,-276" stroke="black" stroke-width="5"/>
<path d="M5969,8474 l60,0 l0,60 l-60,0 z" fill="green"/>
<path d="M5999,8504 l-155.5,-145" stroke="black" stroke-width="5"/>
<path d="M4934,6702 l60,0 l0,60 l-60,0 z" fill="green"/>
<path d="M4964,6732 l61.5,19.5" stroke="black" stroke-width="5"/>
<path d="M6692,2269 l60,0 l0,60 l-60,0 z" fill="green"/>
<path d="M6722,2299 l234,0.5" stroke="black" stroke-width="5"/>
<path d="M4483,6451 l60,0 l0,60 l-60,0 z" fill="green"/>
<path d="M4513,6481 l0,141.5" stroke="black" stroke-width="5"/>
<path d="M7472,94 l60,0 l0,60 l-60,0 z" fill="green"/>
<path d="M7502,124 l14.5,241.5" stroke="black" stroke-width="5"/>
<path d="M1724,2073 l60,0 l0,60 l-60,0 z" fill="green"/>
<path d="M1754,2103 l-318.5,-325" stroke="black" stroke-width="5"/>
<path d="M5054,5765 l60,0 l0,60 l-60,0 z" fill="green"/>
<path d="M5084,5795 l0.5,0.5" stroke="black" stroke-width="5"/>
<path d="M8389,5741 l60,0 l0,60 l-60,0 z" fill="green"/>
<path d="M8419,5771 l-38.5,166" stroke="black" stroke-width="5"/>
<path d="M7570,3868 l60,0 l0,60 l-60,0 z" fill="green"/>
<path d="M7600,3898 l0,-98" stroke="black" stroke-width="5"/>
<path d="M2464,2709 l60,0 l0,60 l-60,0 z" fill="green"/>
<path d="M2494,2739 l-82.5,0.5" stroke="black" stroke-width="5"/>
<path d="M4161,7460 l60,0 l0,60 l-60,0 z" fill="green"/>
<path d="M4191,7490 l0.5,-126.5" stroke="black" stroke-width="5"/>
<path d="M3267,1114 l60,0 l0,60 l-60,0 z" fill="green"/>
<path d="M3297,1144 l0,0.5" stroke="black" stroke-width="5"/>
<path d="M2065,8360 l60,0 l0,60 l-60,0 z" fill="green"/>
<path d="M2095,8390 l0.5,152" stroke="black" stroke-width="5"/>
<path d="M2946,450 l60,0 l0,60 l-60,0 z" fill="green"/>
<path d="M2976,480 l0,149.5" stroke="black" stroke-width="5"/>
<path d="M4134,5223 l60,0 l0,60 l-60,0 z" fill="green"/>
<path d="M4164,5253 l270.5,0" stroke="black" stroke-width="5"/>
<path d="M907,304 l60,0 l0,60 l-60,0 z" fill="green"/>
<path d="M937,334 l0.5,0" stroke="black" stroke-width="5"/>
<path d="M9216,5774 l60,0 l0,60 l-60,0 z" fill="green"/>
<path d="M9246,5804 l0.5,0.5" stroke="black" stroke-width="5"/>
<path d="M3448,9911 l60,0 l0,60 l-60,0 z" fill="green"/>
<path d="M3478,9941 l124,-94" stroke="black" stroke-width="5"/>
<path d="M2707,1830 l60,0 l0,60 l-60,0 z" fill="green"/>
<path d="M2737,1860 l-120.5,-515.5" stroke="black" stroke-width="5"/>
<path d="M2052,2766 l60,0 l0,60 l-60,0 z" fill="green"/>
<path d="M2082,2796 l0.5,0" stroke="black" stroke-width="5"/>
<path d="M6083,2236 l60,0 l0,60 l-60,0 z" fill="green"/>
<path d="M6113,2266 l270.5,245" stroke="black" stroke-width="5"/>
<path d="M7399,5268 l60,0 l0,60 l-60,0 z" fill="green"/>
<path d="M7429,5298 l0.5,0.5" stroke="black" stroke-width="5"/>
<path d="M3357,3616 l60,0 l0,60 l-60,0 z" fill="green"/>
<path d="M3387,3646 l0,0" stroke="black" stroke-width="5"/>
<path d="M2578,7430 l60,0 l0,60 l-60,0 z" fill="green"/>
<path d="M2608,7460 l-97,89.5" stroke="black" stroke-width="5"/>
<path d="M9426,3352 l60,0 l0,60 l-60,0 z" fill="green"/>
<path d="M9456,3382 l258,0" stroke="black" stroke-width="5"/>
<path d="M2207,9464 l60,0 l0,60 l-60,0 z" fill="green"/>
<path d="M2237,9494 l0,0" stroke="black" stroke-width="5"/>
<path d="M9518,8982 l60,0 l0,60 l-60,0 z" fill="green"/>
<path d="M9548,9012 l0.5,0.5" stroke="black" stroke-width="5"/>
<path d="M8608,8236 l60,0 l0,60 l-60,0 z" fill="green"/>
<path d="M8638,8266 l0.5,0.5" stroke="black" stroke-width="5"/>
<path d="M9569,2421 l60,0 l0,60 l-60,0 z" fill="green"/>
<path d="M9599,2451 l200.5,-486" stroke="black" stroke-width="5"/>
<path d="M1248,334 l60,0 l0,60 l-60,0 z" fill="green"/>
<path d="M1278,364 l446.5,279" stroke="black" stroke-width="5"/>
<path d="M6147,2726 l60,0 l0,60 l-60,0 z" fill="green"/>
<path d="M6177,2756 l17.5,628.5" stroke="black" stroke-width="5"/>
<path d="M9389,6133 l60,0 l0,60 l-60,0 z" fill="green"/>
<path d="M9419,6163 l-47.5,121.5" stroke="black" stroke-width="5"/>
<path d="M1189,6233 l60,0 l0,60 l-60,0 z" fill="green"/>
<path d="M1219,6263 l-42.5,-176.5" stroke="black" stroke-width="5"/>
<path d="M4456,6399 l60,0 l0,60 l-60,0 z" fill="green"/>
<path d="M4486,6429 l-38,-24" stroke="black" stroke-width="5"/>
<path d="M6973,9484 l60,0 l0,60 l-60,0 z" fill="green"/>
<path d="M7003,9514 l-407.5,102.5" stroke="black" stroke-width="5"/>
<path d="M9593,6138 l60,0 l0,60 l-60,0 z" fill="green"/>
<path d="M9623,6168 l27,0" stroke="black" stroke-width="5"/>
<path d="M2987,1563 l60,0 l0,60 l-60,0 z" fill="green"/>
<path d="M3017,1593 l906.5,68" stroke="black" stroke-width="5"/>
<path d="M2958,-9 l60,0 l0,60 l-60,0 z" fill="green"/>
<path d="M2988,21 l0.5,194.5" stroke="black" stroke-width="5"/>
<path d="M6182,231 l60,0 l0,60 l-60,0 z" fill="green"/>
<path d="M6212,261 l0,3" stroke="black" stroke-width="5"/>
<path d="M5172,8576 l60,0 l0,60 l-60,0 z" fill="green"/>
<path d="M5202,8606 l70.5,-252" stroke="black" stroke-width="5"/>
<path d="M6399,2769 l60,0 l0,60 l-60,0 z" fill="green"/>
<path d="M6429,2799 l104,-21" stroke="black" stroke-width="5"/>
<path d="M1479,5004 l60,0 l0,60 l-60,0 z" fill="green"/>
<path d="M1509,5034 l172,-169.5" stroke="black" stroke-width="5"/>
<path d="M8072,7800 l60,0 l0,60 l-60,0 z" fill="green"/>
<path d="M8102,7830 l750.5,0.5" stroke="black" stroke-width="5"/>
<path d="M2650,2591 l60,0 l0,60 l-60,0 z" fill="green"/>
<path d="M2680,2621 l-33.5,334" stroke="black" stroke-width="5"/>
<path d="M8060,1985 l60,0 l0,60 l-60,0 z" fill="green"/>
<path d="M8090,2015 l0.5,18" stroke="black" stroke-width="5"/>
<path d="M6014,2248 l60,0 l0,60 l-60,0 z" fill="green"/>
<path d="M6044,2278 l-397.5,619.5" stroke="black" stroke-width="5"/>
<path d="M2792,2203 l60,0 l0,60 l-60,0 z" fill="green"/>
<path d="M2822,2233 l1131.5,-185.5" stroke="black" stroke-width="5"/>
<path d="M6738,9202 l60,0 l0,60 l-60,0 z" fill="green"/>
<path d="M6768,9232 l284.5,-352.5" stroke="black" stroke-width="5"/>
<path d="M9056,1943 l60,0 l0,60 l-60,0 z" fill="green"/>
<path d="M9086,1973 l-385,60" stroke="black" stroke-width="5"/>
<path d="M7786,6194 l60,0 l0,60 l-60,0 z" fill="green"/>
<path d="M7816,6224 l-32,-522.5" stroke="black" stroke-width="5"/>
<path d="M4317,7734 l60,0 l0,60 l-60,0 z" fill="green"/>
<path d="M4347,7764 l0,41" stroke="black" stroke-width="5"/>
<path d="M4188,1086 l60,0 l0,60 l-60,0 z" fill="green"/>
<path d="M4218,1116 l0.5,0" stroke="black" stroke-width="5"/>
<path d="M7252,7971 l60,0 l0,60 l-60,0 z" fill="green"/>
<path d="M7282,8001 l0,0.5" stroke="black" stroke-width="5"/>
<path d="M8123,7319 l60,0 l0,60 l-60,0 z" fill="green"/>
<path d="M8153,7349 l2,-111" stroke="black" stroke-width="5"/>
<path d="M768,7421 l60,0 l0,60 l-60,0 z" fill="green"/>
<path d="M798,7451 l158,406.5" stroke="black" stroke-width="5"/>
<path d="M3891,2529 l60,0 l0,60 l-60,0 z" fill="green"/>
<path d="M3921,2559 l-3,0.5" stroke="black" stroke-width="5"/>
<path d="M2768,2508 l60,0 l0,60 l-60,0 z" fill="green"/>
<path d="M2798,2538 l192.5,40" stroke="black" stroke-width="5"/>
<path d="M8235,1377 l60,0 l0,60 l-60,0 z" fill="green"/>
<path d="M8265,1407 l-21,-129" stroke="black" stroke-width="5"/>
<path d="M8045,1795 l60,0 l0,60 l-60,0 z" fill="green"/>
<path d="M8075,1825 l316,0.5" stroke="black" stroke-width="5"/>
<path d="M1660,7857 l60,0 l0,60 l-60,0 z" fill="green"/>
<path d="M1690,7887 l0,132" stroke="black" stroke-width="5"/>
<path d="M960,5435 l60,0 l0,60 l-60,0 z" fill="green"/>
<path d="M990,5465 l-60,0" stroke="black" stroke-width="5"/>
<path d="M1910,3598 l60,0 l0,60 l-60,0 z" fill="green"/>
<path d="M1940,3628 l0.5,0" stroke="black" stroke-width="5"/>
<path d="M4604,3667 l60,0 l0,60 l-60,0 z" fill="green"/>
<path d="M4634,3697 l73.5,-71" stroke="black" stroke-width="5"/>
<path d="M9044,3546 l60,0 l0,60 l-60,0 z" fill="green"/>
<path d="M9074,3576 l-171.5,0" stroke="black" stroke-width="5"/>
<path d="M3399,9515 l60,0 l0,60 l-60,0 z" fill="green"/>
<path d="M3429,9545 l0.5,0" stroke="black" stroke-width="5"/>
<path d="M3027,8345 l60,0 l0,60 l-60,0 z" fill="green"/>
<path d="M3057,8375 l0.5,38" stroke="black" stroke-width="5"/>
<path d="M4433,6298 l60,0 l0,60 l-60,0 z" fill="green"/>
<path d="M4463,6328 l270.5,-127.5" stroke="black" stroke-width="5"/>
<path d="M8713,8934 l60,0 l0,60 l-60,0 z" fill="green"/>
<path d="M8743,8964 l0.5,0" stroke="black" stroke-width="5"/>
<path d="M475,9676 l60,0 l0,60 l-60,0 z" fill="green"/>
<path d="M505,9706 l0.5,-184.5" stroke="black" stroke-width="5"/>
<path d="M4136,3961 l60,0 l0,60 l-60,0 z" fill="green"/>
<path d="M4166,3991 l0.5,-657" stroke="black" stroke-width="5"/>
<path d="M6851,7679 l60,0 l0,60 l-60,0 z" fill="green"/>
<path d="M6881,7709 l-267.5,204" stroke="black" stroke-width="5"/>
<path d="M7517,4094 l60,0 l0,60 l-60,0 z" fill="green"/>
<path d="M7547,4124 l0.5,204" stroke="black" stroke-width="5"/>
<path d="M8723,5197 l60,0 l0,60 l-60,0 z" fill="green"/>
<path d="M8753,5227 l46.5,-332" stroke="black" stroke-width="5"/>
<path d="M3744,421 l60,0 l0,60 l-60,0 z" fill="green"/>
<path d="M3774,451 l-81.5,-16" stroke="black" stroke-width="5"/>
<path d="M6124,4336 l60,0 l0,60 l-60,0 z" fill="green"/>
<path d="M6154,4366 l0.5,0.5" stroke="black" stroke-width="5"/>
<path d="M1068,5492 l60,0 l0,60 l-60,0 z" fill="green"/>
<path d="M1098,5522 l76,0" stroke="black" stroke-width="5"/>
<path d="M6314,2871 l60,0 l0,60 l-60,0 z" fill="green"/>
<path d="M6344,2901 l368.5,366.5" stroke="black" stroke-width="5"/>
<path d="M2345,5404 l60,0 l0,60 l-60,0 z" fill="green"/>
<path d="M2375,5434 l392.5,-242" stroke="black" stroke-width="5"/>
<path d="M3997,6138 l60,0 l0,60 l-60,0 z" fill="green"/>
<path d="M4027,6168 l0.5,32.5" stroke="black" stroke-width="5"/>
<path d="M5210,8907 l60,0 l0,60 l-60,0 z" fill="green"/>
<path d="M5240,8937 l220.5,-17" stroke="black" stroke-width="5"/>
<path d="M2158,4532 l60,0 l0,60 l-60,0 z" fill="green"/>
<path d="M2188,4562 l-298.5,-302.5" stroke="black" stroke-width="5"/>
<path d="M2781,7603 l60,0 l0,60 l-60,0 z" fill="green"/>
<path d="M2811,7633 l0,0" stroke="black" stroke-width="5"/>
<path d="M616,6717 l60,0 l0,60 l-60,0 z" fill="green"/>
<path d="M646,6747 l-322.5,471.5" stroke="black" stroke-width="5"/>
<path d="M4400,8089 l60,0 l0,60 l-60,0 z" fill="green"/>
<path d="M4430,8119 l0.5,217" stroke="black" stroke-width="5"/>
<path d="M8763,1443 l60,0 l0,60 l-60,0 z" fill="green"/>
<path d="M8793,1473 l147,-29" stroke="black" stroke-width="5"/>
<text font-size="120.38585308576921" text-anchor="middle" x="4251.5" y="9656.63504858002">
0
</text>
<text font-size="120.38585308576921" text-anchor="middle" x="1579" y="3536.1350485800194">
1
</text>
<text font-size="120.38585308576921" text-anchor="middle" x="3356.5" y="7459.135048580019">
2
</text>
<text font-size="120.38585308576921" text-anchor="middle" x="8063.5" y="8184.135048580019">
3
</text>
<text font-size="120.38585308576921" text-anchor="middle" x="9396.5" y="467.6350485800192">
4
</text>
<text font-size="120.38585308576921" text-anchor="middle" x="1739" y="9895.63504858002">
5
</text>
<text font-size="120.38585308576921" text-anchor="middle" x="5899.5" y="8786.13504858002">
6
</text>
<text font-size="120.38585308576921" text-anchor="middle" x="1718" y="2421.6350485800194">
7
</text>
<text font-size="120.38585308576921" text-anchor="middle" x="2886.5" y="6976.135048580019">
8
</text>
<text font-size="120.38585308576921" text-anchor="middle" x="7643.5" y="8573.63504858002">
9
</text>
<text font-size="120.38585308576921" text-anchor="middle" x="7510" y="1226.1350485800192">
10
</text>
<text font-size="120.38585308576921" text-anchor="middle" x="5947" y="4260.635048580019">
11
</text>
<text font-size="120.38585308576921" text-anchor="middle" x="9083.5" y="6996.635048580019">
12
</text>
<text font-size="120.38585308576921" text-anchor="middle" x="2537" y="6083.635048580019">
13
</text>
<text font-size="120.38585308576921" text-anchor="middle" x="1206" y="3009.1350485800194">
14
</text>
<text font-size="120.38585308576921" text-anchor="middle" x="6016" y="6422.135048580019">
15
</text>
<text font-size="120.38585308576921" text-anchor="middle" x="5512" y="4208.635048580019">
16
</text>
<text font-size="120.38585308576921" text-anchor="middle" x="3651.5" y="5215.635048580019">
17
</text>
<text font-size="120.38585308576921" text-anchor="middle" x="8311.5" y="2587.1350485800194">
18
</text>
<text font-size="120.38585308576921" text-anchor="middle" x="4760.5" y="1031.1350485800192">
19
</text>
<text font-size="120.38585308576921" text-anchor="middle" x="7169" y="3078.1350485800194">
20
</text>
<text font-size="120.38585308576921" text-anchor="middle" x="4168.5" y="8937.63504858002">
21
</text>
<text font-size="120.38585308576921" text-anchor="middle" x="1823" y="7314.635048580019">
22
</text>
<text font-size="120.38585308576921" text-anchor="middle" x="7705.5" y="6248.135048580019">
23
</text>
<text font-size="120.38585308576921" text-anchor="middle" x="1772" y="5449.635048580019">
24
</text>
<text font-size="120.38585308576921" text-anchor="middle" x="6802.5" y="7085.135048580019">
25
</text>
<text font-size="120.38585308576921" text-anchor="middle" x="9396.5" y="999.1350485800192">
26
</text>
<text font-size="120.38585308576921" text-anchor="middle" x="332.5" y="6541.135048580019">
27
</text>
<text font-size="120.38585308576921" text-anchor="middle" x="5284" y="5189.635048580019">
28
</text>
<text font-size="120.38585308576921" text-anchor="middle" x="3748.5" y="8282.63504858002">
29
</text>
<text font-size="120.38585308576921" text-anchor="middle" x="5622.5" y="1439.1350485800192">
30
</text>
<text font-size="120.38585308576921" text-anchor="middle" x="517" y="4564.135048580019">
31
</text>
<text font-size="120.38585308576921" text-anchor="middle" x="962" y="7169.135048580019">
32
</text>
<text font-size="120.38585308576921" text-anchor="middle" x="7243.5" y="6619.135048580019">
33
</text>
<text font-size="120.38585308576921" text-anchor="middle" x="5053.5" y="4554.135048580019">
34
</text>
<text font-size="120.38585308576921" text-anchor="middle" x="2100.5" y="1960.6350485800192">
35
</text>
<text font-size="120.38585308576921" text-anchor="middle" x="3355" y="4098.135048580019">
36
</text>
<text font-size="120.38585308576921" text-anchor="middle" x="2531.5" y="4658.135048580019">
37
</text>
<text font-size="120.38585308576921" text-anchor="middle" x="1766.5" y="6640.135048580019">
38
</text>
<text font-size="120.38585308576921" text-anchor="middle" x="1104.5" y="4806.135048580019">
39
</text>
<text font-size="120.38585308576921" text-anchor="middle" x="3896.5" y="3969.1350485800194">
40
</text>
<text font-size="120.38585308576921" text-anchor="middle" x="935.5" y="3602.6350485800194">
41
</text>
<text font-size="120.38585308576921" text-anchor="middle" x="7515" y="1761.6350485800192">
42
</text>
<text font-size="120.38585308576921" text-anchor="middle" x="6429" y="1439.1350485800192">
43
</text>
<text font-size="120.38585308576921" text-anchor="middle" x="6443" y="8921.63504858002">
44
</text>
<text font-size="120.38585308576921" text-anchor="middle" x="8944.5" y="6571.135048580019">
45
</text>
<text font-size="120.38585308576921" text-anchor="middle" x="9343" y="1998.6350485800192">
46
</text>
<text font-size="120.38585308576921" text-anchor="middle" x="431.5" y="8673.13504858002">
47
</text>
<text font-size="120.38585308576921" text-anchor="middle" x="4871" y="8960.13504858002">
48
</text>
<text font-size="120.38585308576921" text-anchor="middle" x="7459.5" y="8573.63504858002">
49
</text>
<text font-size="120.38585308576921" text-anchor="middle" x="4523.5" y="470.6350485800192">
50
</text>
<text font-size="120.38585308576921" text-anchor="middle" x="7694.5" y="1527.6350485800192">
51
</text>
<text font-size="120.38585308576921" text-anchor="middle" x="2242" y="8061.135048580019">
52
</text>
<text font-size="120.38585308576921" text-anchor="middle" x="5843.5" y="8401.13504858002">
53
</text>
<text font-size="120.38585308576921" text-anchor="middle" x="5025.5" y="6793.635048580019">
54
</text>
<text font-size="120.38585308576921" text-anchor="middle" x="6956" y="2341.6350485800194">
55
</text>
<text font-size="120.38585308576921" text-anchor="middle" x="4513" y="6664.635048580019">
56
</text>
<text font-size="120.38585308576921" text-anchor="middle" x="7516.5" y="407.6350485800192">
57
</text>
<text font-size="120.38585308576921" text-anchor="middle" x="1435.5" y="1820.1350485800192">
58
</text>
<text font-size="120.38585308576921" text-anchor="middle" x="5084.5" y="5837.635048580019">
59
</text>
<text font-size="120.38585308576921" text-anchor="middle" x="8380.5" y="5979.135048580019">
60
</text>
<text font-size="120.38585308576921" text-anchor="middle" x="7600" y="3842.1350485800194">
61
</text>
<text font-size="120.38585308576921" text-anchor="middle" x="2411.5" y="2781.6350485800194">
62
</text>
<text font-size="120.38585308576921" text-anchor="middle" x="4191.5" y="7405.635048580019">
63
</text>
<text font-size="120.38585308576921" text-anchor="middle" x="3297" y="1186.6350485800192">
64
</text>
<text font-size="120.38585308576921" text-anchor="middle" x="2095.5" y="8584.13504858002">
65
</text>
<text font-size="120.38585308576921" text-anchor="middle" x="2976" y="671.6350485800192">
66
</text>
<text font-size="120.38585308576921" text-anchor="middle" x="4434.5" y="5295.135048580019">
67
</text>
<text font-size="120.38585308576921" text-anchor="middle" x="937.5" y="376.1350485800192">
68
</text>
<text font-size="120.38585308576921" text-anchor="middle" x="9246.5" y="5846.635048580019">
69
</text>
<text font-size="120.38585308576921" text-anchor="middle" x="3602" y="9889.13504858002">
70
</text>
<text font-size="120.38585308576921" text-anchor="middle" x="2616.5" y="1386.6350485800192">
71
</text>
<text font-size="120.38585308576921" text-anchor="middle" x="2082.5" y="2838.1350485800194">
72
</text>
<text font-size="120.38585308576921" text-anchor="middle" x="6383.5" y="2553.1350485800194">
73
</text>
<text font-size="120.38585308576921" text-anchor="middle" x="7429.5" y="5340.635048580019">
74
</text>
<text font-size="120.38585308576921" text-anchor="middle" x="3387" y="3688.1350485800194">
75
</text>
<text font-size="120.38585308576921" text-anchor="middle" x="2511" y="7591.635048580019">
76
</text>
<text font-size="120.38585308576921" text-anchor="middle" x="9714" y="3424.1350485800194">
77
</text>
<text font-size="120.38585308576921" text-anchor="middle" x="2237" y="9536.13504858002">
78
</text>
<text font-size="120.38585308576921" text-anchor="middle" x="9548.5" y="9054.63504858002">
79
</text>
<text font-size="120.38585308576921" text-anchor="middle" x="8638.5" y="8308.63504858002">
80
</text>
<text font-size="120.38585308576921" text-anchor="middle" x="9799.5" y="2007.1350485800192">
81
</text>
<text font-size="120.38585308576921" text-anchor="middle" x="1724.5" y="685.1350485800192">
82
</text>
<text font-size="120.38585308576921" text-anchor="middle" x="6194.5" y="3426.6350485800194">
83
</text>
<text font-size="120.38585308576921" text-anchor="middle" x="9371.5" y="6326.635048580019">
84
</text>
<text font-size="120.38585308576921" text-anchor="middle" x="1176.5" y="6128.635048580019">
85
</text>
<text font-size="120.38585308576921" text-anchor="middle" x="4448" y="6447.135048580019">
86
</text>
<text font-size="120.38585308576921" text-anchor="middle" x="6595.5" y="9658.63504858002">
87
</text>
<text font-size="120.38585308576921" text-anchor="middle" x="9650" y="6210.135048580019">
88
</text>
<text font-size="120.38585308576921" text-anchor="middle" x="3923.5" y="1703.1350485800192">
89
</text>
<text font-size="120.38585308576921" text-anchor="middle" x="2988.5" y="257.6350485800192">
90
</text>
<text font-size="120.38585308576921" text-anchor="middle" x="6212" y="306.1350485800192">
91
</text>
<text font-size="120.38585308576921" text-anchor="middle" x="5272.5" y="8396.13504858002">
92
</text>
<text font-size="120.38585308576921" text-anchor="middle" x="6533" y="2820.1350485800194">
93
</text>
<text font-size="120.38585308576921" text-anchor="middle" x="1681" y="4906.635048580019">
94
</text>
<text font-size="120.38585308576921" text-anchor="middle" x="8852.5" y="7872.635048580019">
95
</text>
<text font-size="120.38585308576921" text-anchor="middle" x="2646.5" y="2997.1350485800194">
96
</text>
<text font-size="120.38585308576921" text-anchor="middle" x="8090.5" y="2075.1350485800194">
97
</text>
<text font-size="120.38585308576921" text-anchor="middle" x="5646.5" y="2939.6350485800194">
98
</text>
<text font-size="120.38585308576921" text-anchor="middle" x="3953.5" y="2089.6350485800194">
99
</text>
<text font-size="120.38585308576921" text-anchor="middle" x="7052.5" y="8921.63504858002">
100
</text>
<text font-size="120.38585308576921" text-anchor="middle" x="8701" y="2075.1350485800194">
101
</text>
<text font-size="120.38585308576921" text-anchor="middle" x="7784" y="5743.635048580019">
102
</text>
<text font-size="120.38585308576921" text-anchor="middle" x="4347" y="7847.135048580019">
103
</text>
<text font-size="120.38585308576921" text-anchor="middle" x="4218.5" y="1158.1350485800192">
104
</text>
<text font-size="120.38585308576921" text-anchor="middle" x="7282" y="8043.635048580019">
105
</text>
<text font-size="120.38585308576921" text-anchor="middle" x="8155" y="7280.135048580019">
106
</text>
<text font-size="120.38585308576921" text-anchor="middle" x="956" y="7899.635048580019">
107
</text>
<text font-size="120.38585308576921" text-anchor="middle" x="3918" y="2601.6350485800194">
108
</text>
<text font-size="120.38585308576921" text-anchor="middle" x="2990.5" y="2620.1350485800194">
109
</text>
<text font-size="120.38585308576921" text-anchor="middle" x="8244" y="1320.1350485800192">
110
</text>
<text font-size="120.38585308576921" text-anchor="middle" x="8391" y="1867.6350485800192">
111
</text>
<text font-size="120.38585308576921" text-anchor="middle" x="1690" y="8061.135048580019">
112
</text>
<text font-size="120.38585308576921" text-anchor="middle" x="930" y="5507.135048580019">
113
</text>
<text font-size="120.38585308576921" text-anchor="middle" x="1940.5" y="3670.1350485800194">
114
</text>
<text font-size="120.38585308576921" text-anchor="middle" x="4707.5" y="3668.1350485800194">
115
</text>
<text font-size="120.38585308576921" text-anchor="middle" x="8902.5" y="3618.1350485800194">
116
</text>
<text font-size="120.38585308576921" text-anchor="middle" x="3429.5" y="9587.13504858002">
117
</text>
<text font-size="120.38585308576921" text-anchor="middle" x="3057.5" y="8455.13504858002">
118
</text>
<text font-size="120.38585308576921" text-anchor="middle" x="4733.5" y="6242.635048580019">
119
</text>
<text font-size="120.38585308576921" text-anchor="middle" x="8743.5" y="9006.13504858002">
120
</text>
<text font-size="120.38585308576921" text-anchor="middle" x="505.5" y="9563.63504858002">
121
</text>
<text font-size="120.38585308576921" text-anchor="middle" x="4166.5" y="3376.1350485800194">
122
</text>
<text font-size="120.38585308576921" text-anchor="middle" x="6613.5" y="7955.135048580019">
123
</text>
<text font-size="120.38585308576921" text-anchor="middle" x="7547.5" y="4370.135048580019">
124
</text>
<text font-size="120.38585308576921" text-anchor="middle" x="8799.5" y="4937.135048580019">
125
</text>
<text font-size="120.38585308576921" text-anchor="middle" x="3692.5" y="477.1350485800192">
126
</text>
<text font-size="120.38585308576921" text-anchor="middle" x="6154.5" y="4408.635048580019">
127
</text>
<text font-size="120.38585308576921" text-anchor="middle" x="1174" y="5564.135048580019">
128
</text>
<text font-size="120.38585308576921" text-anchor="middle" x="6712.5" y="3309.6350485800194">
129
</text>
<text font-size="120.38585308576921" text-anchor="middle" x="2767.5" y="5234.135048580019">
130
</text>
<text font-size="120.38585308576921" text-anchor="middle" x="4027.5" y="6242.635048580019">
131
</text>
<text font-size="120.38585308576921" text-anchor="middle" x="5460.5" y="8962.13504858002">
132
</text>
<text font-size="120.38585308576921" text-anchor="middle" x="1889.5" y="4301.635048580019">
133
</text>
<text font-size="120.38585308576921" text-anchor="middle" x="2811" y="7675.135048580019">
134
</text>
<text font-size="120.38585308576921" text-anchor="middle" x="323.5" y="7260.635048580019">
135
</text>
<text font-size="120.38585308576921" text-anchor="middle" x="4430.5" y="8378.13504858002">
136
</text>
<text font-size="120.38585308576921" text-anchor="middle" x="8940" y="1486.1350485800192">
137
</text>
</svg>