<svg viewBox="-100 -100 10200 10200" xmlns="http://www.w3.org/2000/svg">
<path d="M0,0 l10000,0 l0,10000 l-10000,0 z" fill="white"/>
<path d="M4397,8015 l1207,0 l0,1181 l-1207,0 z" fill="#fe00ff" stroke="black" stroke-width="5"/>
<path d="M8485,1958 l782,0 l0,857 l-782,0 z" fill="#fe00ff" stroke="black" stroke-width="5"/>
<path d="M185,7357 l973,0 l0,972 l-973,0 z" fill="#fe00ff" stroke="black" stroke-width="5"/>
<path d="M7284,1639 l1180,0 l0,590 l-1180,0 z" fill="#fe00ff" stroke="black" stroke-width="5"/>
<path d="M1972,5618 l869,0 l0,946 l-869,0 z" fill="#fe00ff" stroke="black" stroke-width="5"/>
<path d="M3252,6100 l1204,0 l0,1203 l-1204,0 z" fill="#fe00ff" stroke="black" stroke-width="5"/>
<path d="M7715,3814 l1287,0 l0,1325 l-1287,0 z" fill="#fe00ff" stroke="black" stroke-width="5"/>
<path d="M5668,3334 l4332,0 l0,319 l-4332,0 z" fill="#6200ff" stroke="black" stroke-width="5"/>
<path d="M5583,11 l1209,0 l0,1208 l-1209,0 z" fill="#fe00ff" stroke="black" stroke-width="5"/>
<path d="M4983,1414 l1038,0 l0,1680 l-1038,0 z" fill="#fe00ff" stroke="black" stroke-width="5"/>
<path d="M2108,7451 l507,0 l0,687 l-507,0 z" fill="#fe00ff" stroke="black" stroke-width="5"/>
<path d="M8413,8205 l445,0 l0,445 l-445,0 z" fill="#fe00ff" stroke="black" stroke-width="5"/>
<path d="M1971,5380 l1,0 l0,4418 l-1,0 z" fill="#0000ff" stroke="black" stroke-width="5"/>
<path d="M2615,7163 l546,0 l0,1092 l-546,0 z" fill="#fe00ff" stroke="black" stroke-width="5"/>
<path d="M0,0 l2918,0 l0,1168 l-2918,0 z" fill="#fe00ff" stroke="black" stroke-width="5"/>
<path d="M2841,6069 l7159,0 l0,31 l-7159,0 z" fill="#0200ff" stroke="black" stroke-width="5"/>
<path d="M9276,4103 l624,0 l0,623 l-624,0 z" fill="#fe00ff" stroke="black" stroke-width="5"/>
<path d="M4430,295 l420,0 l0,419 l-420,0 z" fill="#fe00ff" stroke="black" stroke-width="5"/>
<path d="M3191,7711 l924,0 l0,1706 l-924,0 z" fill="#4400ff" stroke="black" stroke-width="5"/>
<path d="M3161,7303 l4575,0 l0,408 l-4575,0 z" fill="#2000ff" stroke="black" stroke-width="5"/>
<path d="M6150,5077 l884,0 l0,866 l-884,0 z" fill="#fe00ff" stroke="black" stroke-width="5"/>
<path d="M4605,3603 l1063,0 l0,1894 l-1063,0 z" fill="#fe00ff" stroke="black" stroke-width="5"/>
<path d="M7626,2229 l554,0 l0,323 l-554,0 z" fill="#fe00ff" stroke="black" stroke-width="5"/>
<path d="M4115,9196 l2099,0 l0,227 l-2099,0 z" fill="#1100ff" stroke="black" stroke-width="5"/>
<path d="M6251,4442 l636,0 l0,635 l-636,0 z" fill="#fe00ff" stroke="black" stroke-width="5"/>
<path d="M0,3602 l1917,0 l0,816 l-1917,0 z" fill="#dd00ff" stroke="black" stroke-width="5"/>
<path d="M9267,2599 l733,0 l0,735 l-733,0 z" fill="#fe00ff" stroke="black" stroke-width="5"/>
<path d="M0,7357 l185,0 l0,2441 l-185,0 z" fill="#0f00ff" stroke="black" stroke-width="5"/>
<path d="M2907,5122 l1698,0 l0,947 l-1698,0 z" fill="#7300ff" stroke="black" stroke-width="5"/>
<path d="M7451,8650 l2549,0 l0,651 l-2549,0 z" fill="#2800ff" stroke="black" stroke-width="5"/>
<path d="M0,6641 l1214,0 l0,716 l-1214,0 z" fill="#4700ff" stroke="black" stroke-width="5"/>
<path d="M0,1168 l1084,0 l0,2434 l-1084,0 z" fill="#e500ff" stroke="black" stroke-width="5"/>
<path d="M1972,8255 l1219,0 l0,1162 l-1219,0 z" fill="#3100ff" stroke="black" stroke-width="5"/>
<path d="M7736,7381 l1515,0 l0,824 l-1515,0 z" fill="#fe00ff" stroke="black" stroke-width="5"/>
<path d="M1158,7357 l56,0 l0,2441 l-56,0 z" fill="#0100ff" stroke="black" stroke-width="5"/>
<path d="M4573,714 l410,0 l0,2889 l-410,0 z" fill="#1b00ff" stroke="black" stroke-width="5"/>
<path d="M1214,5834 l757,0 l0,2440 l-757,0 z" fill="#fe00ff" stroke="black" stroke-width="5"/>
<path d="M854,5037 l1034,0 l0,797 l-1034,0 z" fill="#fe00ff" stroke="black" stroke-width="5"/>
<path d="M5779,7893 l435,0 l0,435 l-435,0 z" fill="#fe00ff" stroke="black" stroke-width="5"/>
<path d="M6021,1865 l659,0 l0,659 l-659,0 z" fill="#fe00ff" stroke="black" stroke-width="5"/>
<path d="M3118,1544 l1455,0 l0,1455 l-1455,0 z" fill="#fe00ff" stroke="black" stroke-width="5"/>
<path d="M2529,1464 l441,0 l0,440 l-441,0 z" fill="#fe00ff" stroke="black" stroke-width="5"/>
<path d="M407,5834 l807,0 l0,807 l-807,0 z" fill="#fe00ff" stroke="black" stroke-width="5"/>
<path d="M8014,5139 l508,0 l0,507 l-508,0 z" fill="#fe00ff" stroke="black" stroke-width="5"/>
<path d="M6214,7778 l1237,0 l0,2020 l-1237,0 z" fill="#fe00ff" stroke="black" stroke-width="5"/>
<path d="M0,9798 l7451,0 l0,202 l-7451,0 z" fill="#e400ff" stroke="black" stroke-width="5"/>
<path d="M1917,4391 l990,0 l0,989 l-990,0 z" fill="#fe00ff" stroke="black" stroke-width="5"/>
<path d="M9002,4726 l998,0 l0,1109 l-998,0 z" fill="#fe00ff" stroke="black" stroke-width="5"/>
<path d="M7451,9301 l1847,0 l0,699 l-1847,0 z" fill="#fe00ff" stroke="black" stroke-width="5"/>
<path d="M4131,4649 l474,0 l0,473 l-474,0 z" fill="#fe00ff" stroke="black" stroke-width="5"/>
<path d="M1085,4418 l399,0 l0,398 l-399,0 z" fill="#fe00ff" stroke="black" stroke-width="5"/>
<path d="M9002,3653 l998,0 l0,450 l-998,0 z" fill="#1a00ff" stroke="black" stroke-width="5"/>
<path d="M1084,3202 l400,0 l0,400 l-400,0 z" fill="#fe00ff" stroke="black" stroke-width="5"/>
<path d="M4115,9423 l2099,0 l0,375 l-2099,0 z" fill="#2600ff" stroke="black" stroke-width="5"/>
<path d="M2494,9417 l1621,0 l0,381 l-1621,0 z" fill="#fe00ff" stroke="black" stroke-width="5"/>
<path d="M4970,8588 l60,0 l0,60 l-60,0 z" fill="green"/>
<path d="M5000,8618 l0.5,-12.5" stroke="black" stroke-width="5"/>
<path d="M8883,2356 l60,0 l0,60 l-60,0 z" fill="green"/>
<path d="M8913,2386 l-37,0.5" stroke="black" stroke-width="5"/>
<path d="M641,7813 l60,0 l0,60 l-60,0 z" fill="green"/>
<path d="M671,7843 l0.5,0" stroke="black" stroke-width="5"/>
<path d="M7844,2198 l60,0 l0,60 l-60,0 z" fill="green"/>
<path d="M7874,2228 l0,-294" stroke="black" stroke-width="5"/>
<path d="M2338,6061 l60,0 l0,60 l-60,0 z" fill="green"/>
<path d="M2368,6091 l38.5,0" stroke="black" stroke-width="5"/>
<path d="M3824,6671 l60,0 l0,60 l-60,0 z" fill="green"/>
<path d="M3854,6701 l0,0.5" stroke="black" stroke-width="5"/>
<path d="M8481,4579 l60,0 l0,60 l-60,0 z" fill="green"/>
<path d="M8511,4609 l-152.5,-132.5" stroke="black" stroke-width="5"/>
<path d="M9556,3622 l60,0 l0,60 l-60,0 z" fill="green"/>
<path d="M9586,3652 l-1752,-158.5" stroke="black" stroke-width="5"/>
<path d="M6157,585 l60,0 l0,60 l-60,0 z" fill="green"/>
<path d="M6187,615 l0.5,0" stroke="black" stroke-width="5"/>
<path d="M5792,2224 l60,0 l0,60 l-60,0 z" fill="green"/>
<path d="M5822,2254 l-320,0" stroke="black" stroke-width="5"/>
<path d="M2422,7764 l60,0 l0,60 l-60,0 z" fill="green"/>
<path d="M2452,7794 l-90.5,0.5" stroke="black" stroke-width="5"/>
<path d="M8605,8397 l60,0 l0,60 l-60,0 z" fill="green"/>
<path d="M8635,8427 l0.5,0.5" stroke="black" stroke-width="5"/>
<path d="M1941,6386 l60,0 l0,60 l-60,0 z" fill="green"/>
<path d="M1971,6416 l0.5,1173" stroke="black" stroke-width="5"/>
<path d="M2585,7679 l60,0 l0,60 l-60,0 z" fill="green"/>
<path d="M2615,7709 l273,0" stroke="black" stroke-width="5"/>
<path d="M629,1137 l60,0 l0,60 l-60,0 z" fill="green"/>
<path d="M659,1167 l800,-583" stroke="black" stroke-width="5"/>
<path d="M3456,6039 l60,0 l0,60 l-60,0 z" fill="green"/>
<path d="M3486,6069 l2934.5,15.5" stroke="black" stroke-width="5"/>
<path d="M9558,4384 l60,0 l0,60 l-60,0 z" fill="green"/>
<path d="M9588,4414 l0,0.5" stroke="black" stroke-width="5"/>
<path d="M4610,474 l60,0 l0,60 l-60,0 z" fill="green"/>
<path d="M4640,504 l0,0.5" stroke="black" stroke-width="5"/>
<path d="M3497,9286 l60,0 l0,60 l-60,0 z" fill="green"/>
<path d="M3527,9316 l126,-752" stroke="black" stroke-width="5"/>
<path d="M4057,7680 l60,0 l0,60 l-60,0 z" fill="green"/>
<path d="M4087,7710 l1361.5,-203" stroke="black" stroke-width="5"/>
<path d="M6562,5471 l60,0 l0,60 l-60,0 z" fill="green"/>
<path d="M6592,5501 l0,9" stroke="black" stroke-width="5"/>
<path d="M4691,4520 l60,0 l0,60 l-60,0 z" fill="green"/>
<path d="M4721,4550 l415.5,0" stroke="black" stroke-width="5"/>
<path d="M7873,2245 l60,0 l0,60 l-60,0 z" fill="green"/>
<path d="M7903,2275 l0,115.5" stroke="black" stroke-width="5"/>
<path d="M4901,9166 l60,0 l0,60 l-60,0 z" fill="green"/>
<path d="M4931,9196 l233.5,113.5" stroke="black" stroke-width="5"/>
<path d="M6539,4729 l60,0 l0,60 l-60,0 z" fill="green"/>
<path d="M6569,4759 l0,0.5" stroke="black" stroke-width="5"/>
<path d="M1016,4339 l60,0 l0,60 l-60,0 z" fill="green"/>
<path d="M1046,4369 l-87.5,-359" stroke="black" stroke-width="5"/>
<path d="M9605,2936 l60,0 l0,60 l-60,0 z" fill="green"/>
<path d="M9635,2966 l-1.5,0.5" stroke="black" stroke-width="5"/>
<path d="M114,8120 l60,0 l0,60 l-60,0 z" fill="green"/>
<path d="M144,8150 l-51.5,427.5" stroke="black" stroke-width="5"/>
<path d="M3903,5372 l60,0 l0,60 l-60,0 z" fill="green"/>
<path d="M3933,5402 l-177,193.5" stroke="black" stroke-width="5"/>
<path d="M8601,9270 l60,0 l0,60 l-60,0 z" fill="green"/>
<path d="M8631,9300 l94.5,-324.5" stroke="black" stroke-width="5"/>
<path d="M367,6804 l60,0 l0,60 l-60,0 z" fill="green"/>
<path d="M397,6834 l210,165" stroke="black" stroke-width="5"/>
<path d="M296,2882 l60,0 l0,60 l-60,0 z" fill="green"/>
<path d="M326,2912 l216,-527" stroke="black" stroke-width="5"/>
<path d="M3160,9386 l60,0 l0,60 l-60,0 z" fill="green"/>
<path d="M3190,9416 l-608.5,-580" stroke="black" stroke-width="5"/>
<path d="M8463,8108 l60,0 l0,60 l-60,0 z" fill="green"/>
<path d="M8493,8138 l0.5,-345" stroke="black" stroke-width="5"/>
<path d="M1178,7605 l60,0 l0,60 l-60,0 z" fill="green"/>
<path d="M1208,7635 l-22,942.5" stroke="black" stroke-width="5"/>
<path d="M4871,1710 l60,0 l0,60 l-60,0 z" fill="green"/>
<path d="M4901,1740 l-123,418.5" stroke="black" stroke-width="5"/>
<path d="M1242,6465 l60,0 l0,60 l-60,0 z" fill="green"/>
<path d="M1272,6495 l320.5,559" stroke="black" stroke-width="5"/>
<path d="M1341,5523 l60,0 l0,60 l-60,0 z" fill="green"/>
<path d="M1371,5553 l0,-117.5" stroke="black" stroke-width="5"/>
<path d="M5966,8080 l60,0 l0,60 l-60,0 z" fill="green"/>
<path d="M5996,8110 l0.5,0.5" stroke="black" stroke-width="5"/>
<path d="M6320,2164 l60,0 l0,60 l-60,0 z" fill="green"/>
<path d="M6350,2194 l0.5,0.5" stroke="black" stroke-width="5"/>
<path d="M3815,2241 l60,0 l0,60 l-60,0 z" fill="green"/>
<path d="M3845,2271 l0.5,0.5" stroke="black" stroke-width="5"/>
<path d="M2719,1654 l60,0 l0,60 l-60,0 z" fill="green"/>
<path d="M2749,1684 l0.5,0" stroke="black" stroke-width="5"/>
<path d="M780,6207 l60,0 l0,60 l-60,0 z" fill="green"/>
<path d="M810,6237 l0.5,0.5" stroke="black" stroke-width="5"/>
<path d="M8238,5362 l60,0 l0,60 l-60,0 z" fill="green"/>
<path d="M8268,5392 l0,0.5" stroke="black" stroke-width="5"/>
<path d="M7420,9425 l60,0 l0,60 l-60,0 z" fill="green"/>
<path d="M7450,9455 l-617.5,-667" stroke="black" stroke-width="5"/>
<path d="M3427,9768 l60,0 l0,60 l-60,0 z" fill="green"/>
<path d="M3457,9798 l268.5,101" stroke="black" stroke-width="5"/>
<path d="M2382,4855 l60,0 l0,60 l-60,0 z" fill="green"/>
<path d="M2412,4885 l0,0.5" stroke="black" stroke-width="5"/>
<path d="M9640,5137 l60,0 l0,60 l-60,0 z" fill="green"/>
<path d="M9670,5167 l-169,113.5" stroke="black" stroke-width="5"/>
<path d="M8195,9724 l60,0 l0,60 l-60,0 z" fill="green"/>
<path d="M8225,9754 l149.5,-103.5" stroke="black" stroke-width="5"/>
<path d="M4338,4855 l60,0 l0,60 l-60,0 z" fill="green"/>
<path d="M4368,4885 l0,0.5" stroke="black" stroke-width="5"/>
<path d="M1254,4587 l60,0 l0,60 l-60,0 z" fill="green"/>
<path d="M1284,4617 l0.5,0" stroke="black" stroke-width="5"/>
<path d="M9542,3638 l60,0 l0,60 l-60,0 z" fill="green"/>
<path d="M9572,3668 l-71,210" stroke="black" stroke-width="5"/>
<path d="M1254,3372 l60,0 l0,60 l-60,0 z" fill="green"/>
<path d="M1284,3402 l0,0" stroke="black" stroke-width="5"/>
<path d="M5020,9393 l60,0 l0,60 l-60,0 z" fill="green"/>
<path d="M5050,9423 l114.5,187.5" stroke="black" stroke-width="5"/>
<path d="M3274,9613 l60,0 l0,60 l-60,0 z" fill="green"/>
<path d="M3304,9643 l0.5,-35.5" stroke="black" stroke-width="5"/>
<text font-size="190.69251784911845" text-anchor="middle" x="5000.5" y="8672.242381247192">
0
</text>
<text font-size="190.69251784911845" text-anchor="middle" x="8876" y="2453.2423812471916">
1
</text>
<text font-size="190.69251784911845" text-anchor="middle" x="671.5" y="7909.742381247192">
2
</text>
<text font-size="190.69251784911845" text-anchor="middle" x="7874" y="2000.7423812471914">
3
</text>
<text font-size="190.69251784911845" text-anchor="middle" x="2406.5" y="6157.742381247192">
4
</text>
<text font-size="190.69251784911845" text-anchor="middle" x="3854" y="6768.242381247192">
5
</text>
<text font-size="190.69251784911845" text-anchor="middle" x="8358.5" y="4543.242381247192">
6
</text>
<text font-size="190.69251784911845" text-anchor="middle" x="7834" y="3560.2423812471916">
7
</text>
<text font-size="190.69251784911845" text-anchor="middle" x="6187.5" y="681.7423812471915">
8
</text>
<text font-size="190.69251784911845" text-anchor="middle" x="5502" y="2320.7423812471916">
9
</text>
<text font-size="190.69251784911845" text-anchor="middle" x="2361.5" y="7861.242381247192">
10
</text>
<text font-size="190.69251784911845" text-anchor="middle" x="8635.5" y="8494.242381247192">
11
</text>
<text font-size="190.69251784911845" text-anchor="middle" x="1971.5" y="7655.742381247192">
12
</text>
<text font-size="190.69251784911845" text-anchor="middle" x="2888" y="7775.742381247192">
13
</text>
<text font-size="190.69251784911845" text-anchor="middle" x="1459" y="650.7423812471915">
14
</text>
<text font-size="190.69251784911845" text-anchor="middle" x="6420.5" y="6151.242381247192">
15
</text>
<text font-size="190.69251784911845" text-anchor="middle" x="9588" y="4481.242381247192">
16
</text>
<text font-size="190.69251784911845" text-anchor="middle" x="4640" y="571.2423812471915">
17
</text>
<text font-size="190.69251784911845" text-anchor="middle" x="3653" y="8630.742381247192">
18
</text>
<text font-size="190.69251784911845" text-anchor="middle" x="5448.5" y="7573.742381247192">
19
</text>
<text font-size="190.69251784911845" text-anchor="middle" x="6592" y="5576.742381247192">
20
</text>
<text font-size="190.69251784911845" text-anchor="middle" x="5136.5" y="4616.742381247192">
21
</text>
<text font-size="190.69251784911845" text-anchor="middle" x="7903" y="2457.2423812471916">
22
</text>
<text font-size="190.69251784911845" text-anchor="middle" x="5164.5" y="9376.242381247192">
23
</text>
<text font-size="190.69251784911845" text-anchor="middle" x="6569" y="4826.242381247192">
24
</text>
<text font-size="190.69251784911845" text-anchor="middle" x="958.5" y="4076.7423812471916">
25
</text>
<text font-size="190.69251784911845" text-anchor="middle" x="9633.5" y="3033.2423812471916">
26
</text>
<text font-size="190.69251784911845" text-anchor="middle" x="92.5" y="8644.242381247192">
27
</text>
<text font-size="190.69251784911845" text-anchor="middle" x="3756" y="5662.242381247192">
28
</text>
<text font-size="190.69251784911845" text-anchor="middle" x="8725.5" y="9042.242381247192">
29
</text>
<text font-size="190.69251784911845" text-anchor="middle" x="607" y="7065.742381247192">
30
</text>
<text font-size="190.69251784911845" text-anchor="middle" x="542" y="2451.7423812471916">
31
</text>
<text font-size="190.69251784911845" text-anchor="middle" x="2581.5" y="8902.742381247192">
32
</text>
<text font-size="190.69251784911845" text-anchor="middle" x="8493.5" y="7859.742381247192">
33
</text>
<text font-size="190.69251784911845" text-anchor="middle" x="1186" y="8644.242381247192">
34
</text>
<text font-size="190.69251784911845" text-anchor="middle" x="4778" y="2225.2423812471916">
35
</text>
<text font-size="190.69251784911845" text-anchor="middle" x="1592.5" y="7120.742381247192">
36
</text>
<text font-size="190.69251784911845" text-anchor="middle" x="1371" y="5502.242381247192">
37
</text>
<text font-size="190.69251784911845" text-anchor="middle" x="5996.5" y="8177.242381247192">
38
</text>
<text font-size="190.69251784911845" text-anchor="middle" x="6350.5" y="2261.2423812471916">
39
</text>
<text font-size="190.69251784911845" text-anchor="middle" x="3845.5" y="2338.2423812471916">
40
</text>
<text font-size="190.69251784911845" text-anchor="middle" x="2749.5" y="1750.7423812471914">
41
</text>
<text font-size="190.69251784911845" text-anchor="middle" x="810.5" y="6304.242381247192">
42
</text>
<text font-size="190.69251784911845" text-anchor="middle" x="8268" y="5459.242381247192">
43
</text>
<text font-size="190.69251784911845" text-anchor="middle" x="6832.5" y="8854.742381247192">
44
</text>
<text font-size="190.69251784911845" text-anchor="middle" x="3725.5" y="9965.742381247192">
45
</text>
<text font-size="190.69251784911845" text-anchor="middle" x="2412" y="4952.242381247192">
46
</text>
<text font-size="190.69251784911845" text-anchor="middle" x="9501" y="5347.242381247192">
47
</text>
<text font-size="190.69251784911845" text-anchor="middle" x="8374.5" y="9717.242381247192">
48
</text>
<text font-size="190.69251784911845" text-anchor="middle" x="4368" y="4952.242381247192">
49
</text>
<text font-size="190.69251784911845" text-anchor="middle" x="1284.5" y="4683.742381247192">
50
</text>
<text font-size="190.69251784911845" text-anchor="middle" x="9501" y="3944.7423812471916">
51
</text>
<text font-size="190.69251784911845" text-anchor="middle" x="1284" y="3468.7423812471916">
52
</text>
<text font-size="190.69251784911845" text-anchor="middle" x="5164.5" y="9677.242381247192">
53
</text>
<text font-size="190.69251784911845" text-anchor="middle" x="3304.5" y="9674.242381247192">
54
</text>
</svg>