<svg viewBox="-100 -100 10200 10200" xmlns="http://www.w3.org/2000/svg">
<path d="M0,0 l10000,0 l0,10000 l-10000,0 z" fill="white"/>
<path d="M1085,6050 l769,0 l0,930 l-769,0 z" fill="#fe00ff" stroke="black" stroke-width="5"/>
<path d="M7779,6454 l278,0 l0,278 l-278,0 z" fill="#fe00ff" stroke="black" stroke-width="5"/>
<path d="M9641,9562 l255,0 l0,254 l-255,0 z" fill="#fe00ff" stroke="black" stroke-width="5"/>
<path d="M5857,5805 l673,0 l0,674 l-673,0 z" fill="#fe00ff" stroke="black" stroke-width="5"/>
<path d="M1019,0 l1635,0 l0,1039 l-1635,0 z" fill="#fe00ff" stroke="black" stroke-width="5"/>
<path d="M3449,7514 l174,0 l0,1036 l-174,0 z" fill="#0200ff" stroke="black" stroke-width="5"/>
<path d="M9299,3596 l587,0 l0,586 l-587,0 z" fill="#fe00ff" stroke="black" stroke-width="5"/>
<path d="M7960,4476 l547,0 l0,658 l-547,0 z" fill="#fe00ff" stroke="black" stroke-width="5"/>
<path d="M7916,1932 l44,0 l0,3202 l-44,0 z" fill="#0700ff" stroke="black" stroke-width="5"/>
<path d="M7691,5886 l177,0 l0,176 l-177,0 z" fill="#fe00ff" stroke="black" stroke-width="5"/>
<path d="M8558,5404 l1442,0 l0,358 l-1442,0 z" fill="#1700ff" stroke="black" stroke-width="5"/>
<path d="M2349,4906 l337,0 l0,337 l-337,0 z" fill="#fe00ff" stroke="black" stroke-width="5"/>
<path d="M8921,4182 l1079,0 l0,354 l-1079,0 z" fill="#1e00ff" stroke="black" stroke-width="5"/>
<path d="M209,1468 l2839,0 l0,299 l-2839,0 z" fill="#fe00ff" stroke="black" stroke-width="5"/>
<path d="M7286,9583 l303,0 l0,303 l-303,0 z" fill="#fe00ff" stroke="black" stroke-width="5"/>
<path d="M3432,4899 l426,0 l0,426 l-426,0 z" fill="#fe00ff" stroke="black" stroke-width="5"/>
<path d="M281,6980 l1679,0 l0,1052 l-1679,0 z" fill="#fe00ff" stroke="black" stroke-width="5"/>
<path d="M6980,0 l1967,0 l0,925 l-1967,0 z" fill="#b200ff" stroke="black" stroke-width="5"/>
<path d="M0,3242 l552,0 l0,2849 l-552,0 z" fill="#fe00ff" stroke="black" stroke-width="5"/>
<path d="M3447,4210 l211,0 l0,211 l-211,0 z" fill="#fe00ff" stroke="black" stroke-width="5"/>
<path d="M3241,2714 l1083,0 l0,350 l-1083,0 z" fill="#4200ff" stroke="black" stroke-width="5"/>
<path d="M5678,3382 l512,0 l0,1611 l-512,0 z" fill="#2c00ff" stroke="black" stroke-width="5"/>
<path d="M7318,7706 l231,0 l0,230 l-231,0 z" fill="#fe00ff" stroke="black" stroke-width="5"/>
<path d="M6634,7019 l986,0 l0,682 l-986,0 z" fill="#fe00ff" stroke="black" stroke-width="5"/>
<path d="M7553,925 l395,0 l0,394 l-395,0 z" fill="#fe00ff" stroke="black" stroke-width="5"/>
<path d="M0,130 l209,0 l0,1957 l-209,0 z" fill="#fe00ff" stroke="black" stroke-width="5"/>
<path d="M4897,3886 l781,0 l0,781 l-781,0 z" fill="#fe00ff" stroke="black" stroke-width="5"/>
<path d="M3720,3382 l526,0 l0,526 l-526,0 z" fill="#fe00ff" stroke="black" stroke-width="5"/>
<path d="M7057,4507 l53,0 l0,53 l-53,0 z" fill="#fe00ff" stroke="black" stroke-width="5"/>
<path d="M7960,3714 l961,0 l0,759 l-961,0 z" fill="#0e00ff" stroke="black" stroke-width="5"/>
<path d="M825,3595 l125,0 l0,124 l-125,0 z" fill="#fe00ff" stroke="black" stroke-width="5"/>
<path d="M1265,2668 l817,0 l0,3382 l-817,0 z" fill="#f700ff" stroke="black" stroke-width="5"/>
<path d="M9532,786 l468,0 l0,551 l-468,0 z" fill="#1f00ff" stroke="black" stroke-width="5"/>
<path d="M2202,6935 l627,0 l0,613 l-627,0 z" fill="#fe00ff" stroke="black" stroke-width="5"/>
<path d="M166,6091 l617,0 l0,558 l-617,0 z" fill="#fe00ff" stroke="black" stroke-width="5"/>
<path d="M8065,8259 l207,0 l0,206 l-207,0 z" fill="#fe00ff" stroke="black" stroke-width="5"/>
<path d="M9261,7195 l739,0 l0,2367 l-739,0 z" fill="#fe00ff" stroke="black" stroke-width="5"/>
<path d="M5852,8849 l363,0 l0,1151 l-363,0 z" fill="#0c00ff" stroke="black" stroke-width="5"/>
<path d="M9723,526 l261,0 l0,260 l-261,0 z" fill="#fe00ff" stroke="black" stroke-width="5"/>
<path d="M1019,1039 l430,0 l0,429 l-430,0 z" fill="#fe00ff" stroke="black" stroke-width="5"/>
<path d="M4748,0 l892,0 l0,1335 l-892,0 z" fill="#f200ff" stroke="black" stroke-width="5"/>
<path d="M2932,78 l321,0 l0,320 l-321,0 z" fill="#fe00ff" stroke="black" stroke-width="5"/>
<path d="M1264,9230 l433,0 l0,526 l-433,0 z" fill="#fe00ff" stroke="black" stroke-width="5"/>
<path d="M3623,7564 l811,0 l0,986 l-811,0 z" fill="#fe00ff" stroke="black" stroke-width="5"/>
<path d="M7009,6542 l478,0 l0,477 l-478,0 z" fill="#fe00ff" stroke="black" stroke-width="5"/>
<path d="M8701,4877 l133,0 l0,133 l-133,0 z" fill="#fe00ff" stroke="black" stroke-width="5"/>
<path d="M8988,9116 l273,0 l0,273 l-273,0 z" fill="#fe00ff" stroke="black" stroke-width="5"/>
<path d="M1854,6194 l561,0 l0,560 l-561,0 z" fill="#fe00ff" stroke="black" stroke-width="5"/>
<path d="M8921,4536 l1079,0 l0,868 l-1079,0 z" fill="#c600ff" stroke="black" stroke-width="5"/>
<path d="M5189,1408 l1377,0 l0,556 l-1377,0 z" fill="#fe00ff" stroke="black" stroke-width="5"/>
<path d="M6530,5622 l287,0 l0,1397 l-287,0 z" fill="#6000ff" stroke="black" stroke-width="5"/>
<path d="M676,8480 l550,0 l0,550 l-550,0 z" fill="#fe00ff" stroke="black" stroke-width="5"/>
<path d="M2900,9051 l558,0 l0,383 l-558,0 z" fill="#fe00ff" stroke="black" stroke-width="5"/>
<path d="M803,9030 l461,0 l0,889 l-461,0 z" fill="#fe00ff" stroke="black" stroke-width="5"/>
<path d="M2274,2239 l967,0 l0,886 l-967,0 z" fill="#fe00ff" stroke="black" stroke-width="5"/>
<path d="M722,3719 l543,0 l0,464 l-543,0 z" fill="#fe00ff" stroke="black" stroke-width="5"/>
<path d="M6176,7738 l1142,0 l0,1111 l-1142,0 z" fill="#fe00ff" stroke="black" stroke-width="5"/>
<path d="M9532,1337 l468,0 l0,767 l-468,0 z" fill="#fe00ff" stroke="black" stroke-width="5"/>
<path d="M5636,6479 l678,0 l0,850 l-678,0 z" fill="#fe00ff" stroke="black" stroke-width="5"/>
<path d="M552,5690 l402,0 l0,401 l-402,0 z" fill="#fe00ff" stroke="black" stroke-width="5"/>
<path d="M9292,5762 l369,0 l0,368 l-369,0 z" fill="#fe00ff" stroke="black" stroke-width="5"/>
<path d="M8254,2289 l973,0 l0,973 l-973,0 z" fill="#fe00ff" stroke="black" stroke-width="5"/>
<path d="M7620,6908 l1318,0 l0,1351 l-1318,0 z" fill="#fe00ff" stroke="black" stroke-width="5"/>
<path d="M7211,5134 l1347,0 l0,752 l-1347,0 z" fill="#fe00ff" stroke="black" stroke-width="5"/>
<path d="M2986,9434 l354,0 l0,353 l-354,0 z" fill="#fe00ff" stroke="black" stroke-width="5"/>
<path d="M8941,1796 l126,0 l0,126 l-126,0 z" fill="#fe00ff" stroke="black" stroke-width="5"/>
<path d="M6190,3767 l820,0 l0,820 l-820,0 z" fill="#fe00ff" stroke="black" stroke-width="5"/>
<path d="M5049,8880 l803,0 l0,1068 l-803,0 z" fill="#fe00ff" stroke="black" stroke-width="5"/>
<path d="M4696,6753 l727,0 l0,761 l-727,0 z" fill="#fe00ff" stroke="black" stroke-width="5"/>
<path d="M3048,1335 l2141,0 l0,432 l-2141,0 z" fill="#dc00ff" stroke="black" stroke-width="5"/>
<path d="M6396,9192 l890,0 l0,808 l-890,0 z" fill="#fe00ff" stroke="black" stroke-width="5"/>
<path d="M3858,3908 l1039,0 l0,1611 l-1039,0 z" fill="#f300ff" stroke="black" stroke-width="5"/>
<path d="M764,0 l255,0 l0,1468 l-255,0 z" fill="#2300ff" stroke="black" stroke-width="5"/>
<path d="M5423,7303 l213,0 l0,211 l-213,0 z" fill="#0000ff" stroke="black" stroke-width="5"/>
<path d="M9085,97 l49,0 l0,49 l-49,0 z" fill="#fe00ff" stroke="black" stroke-width="5"/>
<path d="M4379,379 l369,0 l0,369 l-369,0 z" fill="#fe00ff" stroke="black" stroke-width="5"/>
<path d="M2580,6371 l564,0 l0,564 l-564,0 z" fill="#fe00ff" stroke="black" stroke-width="5"/>
<path d="M6808,2831 l968,0 l0,936 l-968,0 z" fill="#fe00ff" stroke="black" stroke-width="5"/>
<path d="M4324,2714 l2484,0 l0,350 l-2484,0 z" fill="#3c00ff" stroke="black" stroke-width="5"/>
<path d="M2082,3473 l191,0 l0,191 l-191,0 z" fill="#fe00ff" stroke="black" stroke-width="5"/>
<path d="M6817,5775 l394,0 l0,393 l-394,0 z" fill="#fe00ff" stroke="black" stroke-width="5"/>
<path d="M7564,1319 l701,0 l0,613 l-701,0 z" fill="#fe00ff" stroke="black" stroke-width="5"/>
<path d="M0,2668 l1265,0 l0,574 l-1265,0 z" fill="#1600ff" stroke="black" stroke-width="5"/>
<path d="M1541,1767 l1217,0 l0,472 l-1217,0 z" fill="#b700ff" stroke="black" stroke-width="5"/>
<path d="M7589,8465 l1068,0 l0,1535 l-1068,0 z" fill="#fd00ff" stroke="black" stroke-width="5"/>
<path d="M5538,6592 l98,0 l0,98 l-98,0 z" fill="#fe00ff" stroke="black" stroke-width="5"/>
<path d="M640,1767 l901,0 l0,901 l-901,0 z" fill="#fe00ff" stroke="black" stroke-width="5"/>
<path d="M4512,5519 l1885,0 l0,278 l-1885,0 z" fill="#fe00ff" stroke="black" stroke-width="5"/>
<path d="M8507,4473 l414,0 l0,404 l-414,0 z" fill="#fe00ff" stroke="black" stroke-width="5"/>
<path d="M7623,4283 l293,0 l0,355 l-293,0 z" fill="#fe00ff" stroke="black" stroke-width="5"/>
<path d="M5048,4993 l1052,0 l0,526 l-1052,0 z" fill="#fe00ff" stroke="black" stroke-width="5"/>
<path d="M3192,6457 l187,0 l0,186 l-187,0 z" fill="#fe00ff" stroke="black" stroke-width="5"/>
<path d="M2654,398 l1233,0 l0,937 l-1233,0 z" fill="#fe00ff" stroke="black" stroke-width="5"/>
<path d="M8947,766 l585,0 l0,767 l-585,0 z" fill="#fe00ff" stroke="black" stroke-width="5"/>
<path d="M2686,4566 l746,0 l0,1531 l-746,0 z" fill="#3100ff" stroke="black" stroke-width="5"/>
<path d="M1960,7548 l1489,0 l0,892 l-1489,0 z" fill="#fe00ff" stroke="black" stroke-width="5"/>
<path d="M3458,8550 l735,0 l0,1450 l-735,0 z" fill="#e600ff" stroke="black" stroke-width="5"/>
<path d="M5391,1964 l948,0 l0,733 l-948,0 z" fill="#fe00ff" stroke="black" stroke-width="5"/>
<path d="M5522,7966 l619,0 l0,619 l-619,0 z" fill="#fe00ff" stroke="black" stroke-width="5"/>
<path d="M3241,3064 l3567,0 l0,318 l-3567,0 z" fill="#b800ff" stroke="black" stroke-width="5"/>
<path d="M6157,1203 l206,0 l0,205 l-206,0 z" fill="#fe00ff" stroke="black" stroke-width="5"/>
<path d="M5336,6451 l202,0 l0,302 l-202,0 z" fill="#fe00ff" stroke="black" stroke-width="5"/>
<path d="M4193,8550 l856,0 l0,928 l-856,0 z" fill="#fe00ff" stroke="black" stroke-width="5"/>
<path d="M4936,5797 l666,0 l0,654 l-666,0 z" fill="#fe00ff" stroke="black" stroke-width="5"/>
<path d="M3379,6097 l1317,0 l0,1417 l-1317,0 z" fill="#fe00ff" stroke="black" stroke-width="5"/>
<path d="M2848,3789 l599,0 l0,777 l-599,0 z" fill="#fe00ff" stroke="black" stroke-width="5"/>
<path d="M6397,4587 l814,0 l0,1035 l-814,0 z" fill="#4f00ff" stroke="black" stroke-width="5"/>
<path d="M2758,1767 l1058,0 l0,472 l-1058,0 z" fill="#5c00ff" stroke="black" stroke-width="5"/>
<path d="M5640,220 l1340,0 l0,983 l-1340,0 z" fill="#fe00ff" stroke="black" stroke-width="5"/>
<path d="M3816,1904 l810,0 l0,810 l-810,0 z" fill="#fe00ff" stroke="black" stroke-width="5"/>
<path d="M8657,9636 l404,0 l0,364 l-404,0 z" fill="#fe00ff" stroke="black" stroke-width="5"/>
<path d="M8099,3392 l323,0 l0,322 l-323,0 z" fill="#fe00ff" stroke="black" stroke-width="5"/>
<path d="M4434,7514 l1016,0 l0,665 l-1016,0 z" fill="#fe00ff" stroke="black" stroke-width="5"/>
<path d="M6510,7614 l124,0 l0,124 l-124,0 z" fill="#fe00ff" stroke="black" stroke-width="5"/>
<path d="M209,567 l555,0 l0,655 l-555,0 z" fill="#fe00ff" stroke="black" stroke-width="5"/>
<path d="M6215,8849 l343,0 l0,343 l-343,0 z" fill="#fe00ff" stroke="black" stroke-width="5"/>
<path d="M5423,6753 l213,0 l0,550 l-213,0 z" fill="#1100ff" stroke="black" stroke-width="5"/>
<path d="M2273,3125 l429,0 l0,473 l-429,0 z" fill="#fe00ff" stroke="black" stroke-width="5"/>
<path d="M1520,6485 l60,0 l0,60 l-60,0 z" fill="green"/>
<path d="M1550,6515 l-80.5,0" stroke="black" stroke-width="5"/>
<path d="M7888,6563 l60,0 l0,60 l-60,0 z" fill="green"/>
<path d="M7918,6593 l0,0" stroke="black" stroke-width="5"/>
<path d="M9738,9659 l60,0 l0,60 l-60,0 z" fill="green"/>
<path d="M9768,9689 l0.5,0" stroke="black" stroke-width="5"/>
<path d="M6164,6112 l60,0 l0,60 l-60,0 z" fill="green"/>
<path d="M6194,6142 l-0.5,0" stroke="black" stroke-width="5"/>
<path d="M1082,343 l60,0 l0,60 l-60,0 z" fill="green"/>
<path d="M1112,373 l724.5,146.5" stroke="black" stroke-width="5"/>
<path d="M3419,8042 l60,0 l0,60 l-60,0 z" fill="green"/>
<path d="M3449,8072 l87,-40" stroke="black" stroke-width="5"/>
<path d="M9562,3859 l60,0 l0,60 l-60,0 z" fill="green"/>
<path d="M9592,3889 l0.5,0" stroke="black" stroke-width="5"/>
<path d="M8258,4775 l60,0 l0,60 l-60,0 z" fill="green"/>
<path d="M8288,4805 l-54.5,0" stroke="black" stroke-width="5"/>
<path d="M7886,4503 l60,0 l0,60 l-60,0 z" fill="green"/>
<path d="M7916,4533 l22,-1000" stroke="black" stroke-width="5"/>
<path d="M7749,5944 l60,0 l0,60 l-60,0 z" fill="green"/>
<path d="M7779,5974 l0.5,0" stroke="black" stroke-width="5"/>
<path d="M9702,5374 l60,0 l0,60 l-60,0 z" fill="green"/>
<path d="M9732,5404 l-453,179" stroke="black" stroke-width="5"/>
<path d="M2487,5044 l60,0 l0,60 l-60,0 z" fill="green"/>
<path d="M2517,5074 l0.5,0.5" stroke="black" stroke-width="5"/>
<path d="M9794,4505 l60,0 l0,60 l-60,0 z" fill="green"/>
<path d="M9824,4535 l-363.5,-176" stroke="black" stroke-width="5"/>
<path d="M1040,1642 l60,0 l0,60 l-60,0 z" fill="green"/>
<path d="M1070,1672 l558.5,-54.5" stroke="black" stroke-width="5"/>
<path d="M7407,9704 l60,0 l0,60 l-60,0 z" fill="green"/>
<path d="M7437,9734 l0.5,0.5" stroke="black" stroke-width="5"/>
<path d="M3615,5082 l60,0 l0,60 l-60,0 z" fill="green"/>
<path d="M3645,5112 l0,0" stroke="black" stroke-width="5"/>
<path d="M1141,7112 l60,0 l0,60 l-60,0 z" fill="green"/>
<path d="M1171,7142 l-50.5,364" stroke="black" stroke-width="5"/>
<path d="M7489,734 l60,0 l0,60 l-60,0 z" fill="green"/>
<path d="M7519,764 l444.5,-301.5" stroke="black" stroke-width="5"/>
<path d="M469,5853 l60,0 l0,60 l-60,0 z" fill="green"/>
<path d="M499,5883 l-223,-1216.5" stroke="black" stroke-width="5"/>
<path d="M3522,4285 l60,0 l0,60 l-60,0 z" fill="green"/>
<path d="M3552,4315 l0.5,0.5" stroke="black" stroke-width="5"/>
<path d="M3896,2939 l60,0 l0,60 l-60,0 z" fill="green"/>
<path d="M3926,2969 l-143.5,-80" stroke="black" stroke-width="5"/>
<path d="M5791,4124 l60,0 l0,60 l-60,0 z" fill="green"/>
<path d="M5821,4154 l113,33.5" stroke="black" stroke-width="5"/>
<path d="M7403,7791 l60,0 l0,60 l-60,0 z" fill="green"/>
<path d="M7433,7821 l0.5,0" stroke="black" stroke-width="5"/>
<path d="M7064,7146 l60,0 l0,60 l-60,0 z" fill="green"/>
<path d="M7094,7176 l33,184" stroke="black" stroke-width="5"/>
<path d="M7720,1092 l60,0 l0,60 l-60,0 z" fill="green"/>
<path d="M7750,1122 l0.5,0" stroke="black" stroke-width="5"/>
<path d="M178,1078 l60,0 l0,60 l-60,0 z" fill="green"/>
<path d="M208,1108 l-103.5,0.5" stroke="black" stroke-width="5"/>
<path d="M5257,4246 l60,0 l0,60 l-60,0 z" fill="green"/>
<path d="M5287,4276 l0.5,0.5" stroke="black" stroke-width="5"/>
<path d="M3953,3615 l60,0 l0,60 l-60,0 z" fill="green"/>
<path d="M3983,3645 l0,0" stroke="black" stroke-width="5"/>
<path d="M7053,4503 l60,0 l0,60 l-60,0 z" fill="green"/>
<path d="M7083,4533 l0.5,0.5" stroke="black" stroke-width="5"/>
<path d="M8656,4082 l60,0 l0,60 l-60,0 z" fill="green"/>
<path d="M8686,4112 l-245.5,-18.5" stroke="black" stroke-width="5"/>
<path d="M857,3627 l60,0 l0,60 l-60,0 z" fill="green"/>
<path d="M887,3657 l0.5,0" stroke="black" stroke-width="5"/>
<path d="M1985,3419 l60,0 l0,60 l-60,0 z" fill="green"/>
<path d="M2015,3449 l-341.5,910" stroke="black" stroke-width="5"/>
<path d="M9505,1032 l60,0 l0,60 l-60,0 z" fill="green"/>
<path d="M9535,1062 l231,-0.5" stroke="black" stroke-width="5"/>
<path d="M2485,7204 l60,0 l0,60 l-60,0 z" fill="green"/>
<path d="M2515,7234 l0.5,7.5" stroke="black" stroke-width="5"/>
<path d="M444,6310 l60,0 l0,60 l-60,0 z" fill="green"/>
<path d="M474,6340 l0.5,30" stroke="black" stroke-width="5"/>
<path d="M8138,8332 l60,0 l0,60 l-60,0 z" fill="green"/>
<path d="M8168,8362 l0.5,0" stroke="black" stroke-width="5"/>
<path d="M9948,8959 l60,0 l0,60 l-60,0 z" fill="green"/>
<path d="M9978,8989 l-347.5,-610.5" stroke="black" stroke-width="5"/>
<path d="M5945,9263 l60,0 l0,60 l-60,0 z" fill="green"/>
<path d="M5975,9293 l58.5,131.5" stroke="black" stroke-width="5"/>
<path d="M9823,626 l60,0 l0,60 l-60,0 z" fill="green"/>
<path d="M9853,656 l0.5,0" stroke="black" stroke-width="5"/>
<path d="M1204,1223 l60,0 l0,60 l-60,0 z" fill="green"/>
<path d="M1234,1253 l0,0.5" stroke="black" stroke-width="5"/>
<path d="M4844,622 l60,0 l0,60 l-60,0 z" fill="green"/>
<path d="M4874,652 l320,15.5" stroke="black" stroke-width="5"/>
<path d="M3062,208 l60,0 l0,60 l-60,0 z" fill="green"/>
<path d="M3092,238 l0.5,0" stroke="black" stroke-width="5"/>
<path d="M1403,9463 l60,0 l0,60 l-60,0 z" fill="green"/>
<path d="M1433,9493 l47.5,0" stroke="black" stroke-width="5"/>
<path d="M4150,8092 l60,0 l0,60 l-60,0 z" fill="green"/>
<path d="M4180,8122 l-151.5,-65" stroke="black" stroke-width="5"/>
<path d="M7218,6750 l60,0 l0,60 l-60,0 z" fill="green"/>
<path d="M7248,6780 l0,0.5" stroke="black" stroke-width="5"/>
<path d="M8737,4913 l60,0 l0,60 l-60,0 z" fill="green"/>
<path d="M8767,4943 l0.5,0.5" stroke="black" stroke-width="5"/>
<path d="M9094,9222 l60,0 l0,60 l-60,0 z" fill="green"/>
<path d="M9124,9252 l0.5,0.5" stroke="black" stroke-width="5"/>
<path d="M2104,6444 l60,0 l0,60 l-60,0 z" fill="green"/>
<path d="M2134,6474 l0.5,0" stroke="black" stroke-width="5"/>
<path d="M9472,4940 l60,0 l0,60 l-60,0 z" fill="green"/>
<path d="M9502,4970 l-41.5,0" stroke="black" stroke-width="5"/>
<path d="M5847,1933 l60,0 l0,60 l-60,0 z" fill="green"/>
<path d="M5877,1963 l0.5,-277" stroke="black" stroke-width="5"/>
<path d="M6500,5832 l60,0 l0,60 l-60,0 z" fill="green"/>
<path d="M6530,5862 l143.5,458.5" stroke="black" stroke-width="5"/>
<path d="M921,8725 l60,0 l0,60 l-60,0 z" fill="green"/>
<path d="M951,8755 l0,0" stroke="black" stroke-width="5"/>
<path d="M3149,9300 l60,0 l0,60 l-60,0 z" fill="green"/>
<path d="M3179,9330 l0,-87.5" stroke="black" stroke-width="5"/>
<path d="M1233,9427 l60,0 l0,60 l-60,0 z" fill="green"/>
<path d="M1263,9457 l-229.5,17.5" stroke="black" stroke-width="5"/>
<path d="M2727,2692 l60,0 l0,60 l-60,0 z" fill="green"/>
<path d="M2757,2722 l0.5,-40" stroke="black" stroke-width="5"/>
<path d="M963,3882 l60,0 l0,60 l-60,0 z" fill="green"/>
<path d="M993,3912 l0.5,39" stroke="black" stroke-width="5"/>
<path d="M6971,8103 l60,0 l0,60 l-60,0 z" fill="green"/>
<path d="M7001,8133 l-254,160.5" stroke="black" stroke-width="5"/>
<path d="M9886,1690 l60,0 l0,60 l-60,0 z" fill="green"/>
<path d="M9916,1720 l-150,0.5" stroke="black" stroke-width="5"/>
<path d="M5853,6868 l60,0 l0,60 l-60,0 z" fill="green"/>
<path d="M5883,6898 l92,6" stroke="black" stroke-width="5"/>
<path d="M723,5860 l60,0 l0,60 l-60,0 z" fill="green"/>
<path d="M753,5890 l0,0.5" stroke="black" stroke-width="5"/>
<path d="M9446,5916 l60,0 l0,60 l-60,0 z" fill="green"/>
<path d="M9476,5946 l0.5,0" stroke="black" stroke-width="5"/>
<path d="M8710,2745 l60,0 l0,60 l-60,0 z" fill="green"/>
<path d="M8740,2775 l0.5,0.5" stroke="black" stroke-width="5"/>
<path d="M8000,7786 l60,0 l0,60 l-60,0 z" fill="green"/>
<path d="M8030,7816 l249,-232.5" stroke="black" stroke-width="5"/>
<path d="M7731,5786 l60,0 l0,60 l-60,0 z" fill="green"/>
<path d="M7761,5816 l123.5,-306" stroke="black" stroke-width="5"/>
<path d="M3133,9580 l60,0 l0,60 l-60,0 z" fill="green"/>
<path d="M3163,9610 l0,0.5" stroke="black" stroke-width="5"/>
<path d="M8974,1829 l60,0 l0,60 l-60,0 z" fill="green"/>
<path d="M9004,1859 l0,0" stroke="black" stroke-width="5"/>
<path d="M6570,4147 l60,0 l0,60 l-60,0 z" fill="green"/>
<path d="M6600,4177 l0,0" stroke="black" stroke-width="5"/>
<path d="M5288,9384 l60,0 l0,60 l-60,0 z" fill="green"/>
<path d="M5318,9414 l132.5,0" stroke="black" stroke-width="5"/>
<path d="M5053,7096 l60,0 l0,60 l-60,0 z" fill="green"/>
<path d="M5083,7126 l-23.5,7.5" stroke="black" stroke-width="5"/>
<path d="M3626,1363 l60,0 l0,60 l-60,0 z" fill="green"/>
<path d="M3656,1393 l462.5,158" stroke="black" stroke-width="5"/>
<path d="M6999,9666 l60,0 l0,60 l-60,0 z" fill="green"/>
<path d="M7029,9696 l-188,-100" stroke="black" stroke-width="5"/>
<path d="M4678,4427 l60,0 l0,60 l-60,0 z" fill="green"/>
<path d="M4708,4457 l-330.5,256.5" stroke="black" stroke-width="5"/>
<path d="M882,1276 l60,0 l0,60 l-60,0 z" fill="green"/>
<path d="M912,1306 l-20.5,-572" stroke="black" stroke-width="5"/>
<path d="M5495,7273 l60,0 l0,60 l-60,0 z" fill="green"/>
<path d="M5525,7303 l4.5,105.5" stroke="black" stroke-width="5"/>
<path d="M9079,91 l60,0 l0,60 l-60,0 z" fill="green"/>
<path d="M9109,121 l0.5,0.5" stroke="black" stroke-width="5"/>
<path d="M4533,533 l60,0 l0,60 l-60,0 z" fill="green"/>
<path d="M4563,563 l0.5,0.5" stroke="black" stroke-width="5"/>
<path d="M2832,6623 l60,0 l0,60 l-60,0 z" fill="green"/>
<path d="M2862,6653 l0,0" stroke="black" stroke-width="5"/>
<path d="M7262,3284 l60,0 l0,60 l-60,0 z" fill="green"/>
<path d="M7292,3314 l0,-15" stroke="black" stroke-width="5"/>
<path d="M4294,2889 l60,0 l0,60 l-60,0 z" fill="green"/>
<path d="M4324,2919 l1242,-30" stroke="black" stroke-width="5"/>
<path d="M2147,3538 l60,0 l0,60 l-60,0 z" fill="green"/>
<path d="M2177,3568 l0.5,0.5" stroke="black" stroke-width="5"/>
<path d="M6984,5941 l60,0 l0,60 l-60,0 z" fill="green"/>
<path d="M7014,5971 l0,0.5" stroke="black" stroke-width="5"/>
<path d="M7884,1552 l60,0 l0,60 l-60,0 z" fill="green"/>
<path d="M7914,1582 l0.5,43.5" stroke="black" stroke-width="5"/>
<path d="M378,3201 l60,0 l0,60 l-60,0 z" fill="green"/>
<path d="M408,3231 l224.5,-276" stroke="black" stroke-width="5"/>
<path d="M1924,1873 l60,0 l0,60 l-60,0 z" fill="green"/>
<path d="M1954,1903 l195.5,100" stroke="black" stroke-width="5"/>
<path d="M8357,9436 l60,0 l0,60 l-60,0 z" fill="green"/>
<path d="M8387,9466 l-264,-233.5" stroke="black" stroke-width="5"/>
<path d="M5557,6611 l60,0 l0,60 l-60,0 z" fill="green"/>
<path d="M5587,6641 l0,0" stroke="black" stroke-width="5"/>
<path d="M1060,2187 l60,0 l0,60 l-60,0 z" fill="green"/>
<path d="M1090,2217 l0.5,0.5" stroke="black" stroke-width="5"/>
<path d="M5424,5671 l60,0 l0,60 l-60,0 z" fill="green"/>
<path d="M5454,5701 l0.5,-43" stroke="black" stroke-width="5"/>
<path d="M8684,4649 l60,0 l0,60 l-60,0 z" fill="green"/>
<path d="M8714,4679 l0,-4" stroke="black" stroke-width="5"/>
<path d="M7770,4430 l60,0 l0,60 l-60,0 z" fill="green"/>
<path d="M7800,4460 l-30.5,0.5" stroke="black" stroke-width="5"/>
<path d="M5544,5488 l60,0 l0,60 l-60,0 z" fill="green"/>
<path d="M5574,5518 l0,-262" stroke="black" stroke-width="5"/>
<path d="M3255,6520 l60,0 l0,60 l-60,0 z" fill="green"/>
<path d="M3285,6550 l0.5,0" stroke="black" stroke-width="5"/>
<path d="M3240,688 l60,0 l0,60 l-60,0 z" fill="green"/>
<path d="M3270,718 l0.5,148.5" stroke="black" stroke-width="5"/>
<path d="M9300,1119 l60,0 l0,60 l-60,0 z" fill="green"/>
<path d="M9330,1149 l-90.5,0.5" stroke="black" stroke-width="5"/>
<path d="M3090,5234 l60,0 l0,60 l-60,0 z" fill="green"/>
<path d="M3120,5264 l-61,67.5" stroke="black" stroke-width="5"/>
<path d="M2797,7544 l60,0 l0,60 l-60,0 z" fill="green"/>
<path d="M2827,7574 l-122.5,420" stroke="black" stroke-width="5"/>
<path d="M4162,9279 l60,0 l0,60 l-60,0 z" fill="green"/>
<path d="M4192,9309 l-366.5,-34" stroke="black" stroke-width="5"/>
<path d="M5835,2193 l60,0 l0,60 l-60,0 z" fill="green"/>
<path d="M5865,2223 l0,107.5" stroke="black" stroke-width="5"/>
<path d="M5801,8245 l60,0 l0,60 l-60,0 z" fill="green"/>
<path d="M5831,8275 l0.5,0.5" stroke="black" stroke-width="5"/>
<path d="M3970,3034 l60,0 l0,60 l-60,0 z" fill="green"/>
<path d="M4000,3064 l1024.5,159" stroke="black" stroke-width="5"/>
<path d="M6230,1275 l60,0 l0,60 l-60,0 z" fill="green"/>
<path d="M6260,1305 l0,0.5" stroke="black" stroke-width="5"/>
<path d="M5457,6572 l60,0 l0,60 l-60,0 z" fill="green"/>
<path d="M5487,6602 l-50,0" stroke="black" stroke-width="5"/>
<path d="M4554,8984 l60,0 l0,60 l-60,0 z" fill="green"/>
<path d="M4584,9014 l37,0" stroke="black" stroke-width="5"/>
<path d="M5239,6100 l60,0 l0,60 l-60,0 z" fill="green"/>
<path d="M5269,6130 l0,-6" stroke="black" stroke-width="5"/>
<path d="M4504,7356 l60,0 l0,60 l-60,0 z" fill="green"/>
<path d="M4534,7386 l-496.5,-580.5" stroke="black" stroke-width="5"/>
<path d="M3206,4147 l60,0 l0,60 l-60,0 z" fill="green"/>
<path d="M3236,4177 l-88.5,0.5" stroke="black" stroke-width="5"/>
<path d="M6616,5591 l60,0 l0,60 l-60,0 z" fill="green"/>
<path d="M6646,5621 l158,-516.5" stroke="black" stroke-width="5"/>
<path d="M2728,1944 l60,0 l0,60 l-60,0 z" fill="green"/>
<path d="M2758,1974 l529,29" stroke="black" stroke-width="5"/>
<path d="M6280,859 l60,0 l0,60 l-60,0 z" fill="green"/>
<path d="M6310,889 l0,-177.5" stroke="black" stroke-width="5"/>
<path d="M4191,2279 l60,0 l0,60 l-60,0 z" fill="green"/>
<path d="M4221,2309 l0,0" stroke="black" stroke-width="5"/>
<path d="M8829,9807 l60,0 l0,60 l-60,0 z" fill="green"/>
<path d="M8859,9837 l0,-19" stroke="black" stroke-width="5"/>
<path d="M8230,3523 l60,0 l0,60 l-60,0 z" fill="green"/>
<path d="M8260,3553 l0.5,0" stroke="black" stroke-width="5"/>
<path d="M4912,7641 l60,0 l0,60 l-60,0 z" fill="green"/>
<path d="M4942,7671 l0,175.5" stroke="black" stroke-width="5"/>
<path d="M6542,7646 l60,0 l0,60 l-60,0 z" fill="green"/>
<path d="M6572,7676 l0,0" stroke="black" stroke-width="5"/>
<path d="M407,864 l60,0 l0,60 l-60,0 z" fill="green"/>
<path d="M437,894 l49.5,0.5" stroke="black" stroke-width="5"/>
<path d="M6356,8990 l60,0 l0,60 l-60,0 z" fill="green"/>
<path d="M6386,9020 l0.5,0.5" stroke="black" stroke-width="5"/>
<path d="M5393,6930 l60,0 l0,60 l-60,0 z" fill="green"/>
<path d="M5423,6960 l106.5,68" stroke="black" stroke-width="5"/>
<path d="M2435,3331 l60,0 l0,60 l-60,0 z" fill="green"/>
<path d="M2465,3361 l22.5,0.5" stroke="black" stroke-width="5"/>
<text font-size="130.18891098082386" text-anchor="middle" x="1469.5" y="6560.566118843289">
0
</text>
<text font-size="130.18891098082386" text-anchor="middle" x="7918" y="6638.566118843289">
1
</text>
<text font-size="130.18891098082386" text-anchor="middle" x="9768.5" y="9734.566118843288">
2
</text>
<text font-size="130.18891098082386" text-anchor="middle" x="6193.5" y="6187.566118843289">
3
</text>
<text font-size="130.18891098082386" text-anchor="middle" x="1836.5" y="565.0661188432883">
4
</text>
<text font-size="130.18891098082386" text-anchor="middle" x="3536" y="8077.566118843289">
5
</text>
<text font-size="130.18891098082386" text-anchor="middle" x="9592.5" y="3934.566118843288">
6
</text>
<text font-size="130.18891098082386" text-anchor="middle" x="8233.5" y="4850.566118843289">
7
</text>
<text font-size="130.18891098082386" text-anchor="middle" x="7938" y="3578.566118843288">
8
</text>
<text font-size="130.18891098082386" text-anchor="middle" x="7779.5" y="6019.566118843289">
9
</text>
<text font-size="130.18891098082386" text-anchor="middle" x="9279" y="5628.566118843289">
10
</text>
<text font-size="130.18891098082386" text-anchor="middle" x="2517.5" y="5120.066118843289">
11
</text>
<text font-size="130.18891098082386" text-anchor="middle" x="9460.5" y="4404.566118843289">
12
</text>
<text font-size="130.18891098082386" text-anchor="middle" x="1628.5" y="1663.0661188432885">
13
</text>
<text font-size="130.18891098082386" text-anchor="middle" x="7437.5" y="9780.066118843288">
14
</text>
<text font-size="130.18891098082386" text-anchor="middle" x="3645" y="5157.566118843289">
15
</text>
<text font-size="130.18891098082386" text-anchor="middle" x="1120.5" y="7551.566118843289">
16
</text>
<text font-size="130.18891098082386" text-anchor="middle" x="7963.5" y="508.06611884328834">
17
</text>
<text font-size="130.18891098082386" text-anchor="middle" x="276" y="4712.066118843289">
18
</text>
<text font-size="130.18891098082386" text-anchor="middle" x="3552.5" y="4361.066118843289">
19
</text>
<text font-size="130.18891098082386" text-anchor="middle" x="3782.5" y="2934.566118843288">
20
</text>
<text font-size="130.18891098082386" text-anchor="middle" x="5934" y="4233.066118843289">
21
</text>
<text font-size="130.18891098082386" text-anchor="middle" x="7433.5" y="7866.566118843289">
22
</text>
<text font-size="130.18891098082386" text-anchor="middle" x="7127" y="7405.566118843289">
23
</text>
<text font-size="130.18891098082386" text-anchor="middle" x="7750.5" y="1167.5661188432885">
24
</text>
<text font-size="130.18891098082386" text-anchor="middle" x="104.5" y="1154.0661188432885">
25
</text>
<text font-size="130.18891098082386" text-anchor="middle" x="5287.5" y="4322.066118843289">
26
</text>
<text font-size="130.18891098082386" text-anchor="middle" x="3983" y="3690.566118843288">
27
</text>
<text font-size="130.18891098082386" text-anchor="middle" x="7083.5" y="4579.066118843289">
28
</text>
<text font-size="130.18891098082386" text-anchor="middle" x="8440.5" y="4139.066118843289">
29
</text>
<text font-size="130.18891098082386" text-anchor="middle" x="887.5" y="3702.566118843288">
30
</text>
<text font-size="130.18891098082386" text-anchor="middle" x="1673.5" y="4404.566118843289">
31
</text>
<text font-size="130.18891098082386" text-anchor="middle" x="9766" y="1107.0661188432885">
32
</text>
<text font-size="130.18891098082386" text-anchor="middle" x="2515.5" y="7287.066118843289">
33
</text>
<text font-size="130.18891098082386" text-anchor="middle" x="474.5" y="6415.566118843289">
34
</text>
<text font-size="130.18891098082386" text-anchor="middle" x="8168.5" y="8407.566118843288">
35
</text>
<text font-size="130.18891098082386" text-anchor="middle" x="9630.5" y="8424.066118843288">
36
</text>
<text font-size="130.18891098082386" text-anchor="middle" x="6033.5" y="9470.066118843288">
37
</text>
<text font-size="130.18891098082386" text-anchor="middle" x="9853.5" y="701.5661188432883">
38
</text>
<text font-size="130.18891098082386" text-anchor="middle" x="1234" y="1299.0661188432885">
39
</text>
<text font-size="130.18891098082386" text-anchor="middle" x="5194" y="713.0661188432883">
40
</text>
<text font-size="130.18891098082386" text-anchor="middle" x="3092.5" y="283.56611884328834">
41
</text>
<text font-size="130.18891098082386" text-anchor="middle" x="1480.5" y="9538.566118843288">
42
</text>
<text font-size="130.18891098082386" text-anchor="middle" x="4028.5" y="8102.566118843289">
43
</text>
<text font-size="130.18891098082386" text-anchor="middle" x="7248" y="6826.066118843289">
44
</text>
<text font-size="130.18891098082386" text-anchor="middle" x="8767.5" y="4989.066118843289">
45
</text>
<text font-size="130.18891098082386" text-anchor="middle" x="9124.5" y="9298.066118843288">
46
</text>
<text font-size="130.18891098082386" text-anchor="middle" x="2134.5" y="6519.566118843289">
47
</text>
<text font-size="130.18891098082386" text-anchor="middle" x="9460.5" y="5015.566118843289">
48
</text>
<text font-size="130.18891098082386" text-anchor="middle" x="5877.5" y="1731.5661188432885">
49
</text>
<text font-size="130.18891098082386" text-anchor="middle" x="6673.5" y="6366.066118843289">
50
</text>
<text font-size="130.18891098082386" text-anchor="middle" x="951" y="8800.566118843288">
51
</text>
<text font-size="130.18891098082386" text-anchor="middle" x="3179" y="9288.066118843288">
52
</text>
<text font-size="130.18891098082386" text-anchor="middle" x="1033.5" y="9520.066118843288">
53
</text>
<text font-size="130.18891098082386" text-anchor="middle" x="2757.5" y="2727.566118843288">
54
</text>
<text font-size="130.18891098082386" text-anchor="middle" x="993.5" y="3996.566118843288">
55
</text>
<text font-size="130.18891098082386" text-anchor="middle" x="6747" y="8339.066118843288">
56
</text>
<text font-size="130.18891098082386" text-anchor="middle" x="9766" y="1766.0661188432885">
57
</text>
<text font-size="130.18891098082386" text-anchor="middle" x="5975" y="6949.566118843289">
58
</text>
<text font-size="130.18891098082386" text-anchor="middle" x="753" y="5936.066118843289">
59
</text>
<text font-size="130.18891098082386" text-anchor="middle" x="9476.5" y="5991.566118843289">
60
</text>
<text font-size="130.18891098082386" text-anchor="middle" x="8740.5" y="2821.066118843288">
61
</text>
<text font-size="130.18891098082386" text-anchor="middle" x="8279" y="7629.066118843289">
62
</text>
<text font-size="130.18891098082386" text-anchor="middle" x="7884.5" y="5555.566118843289">
63
</text>
<text font-size="130.18891098082386" text-anchor="middle" x="3163" y="9656.066118843288">
64
</text>
<text font-size="130.18891098082386" text-anchor="middle" x="9004" y="1904.5661188432885">
65
</text>
<text font-size="130.18891098082386" text-anchor="middle" x="6600" y="4222.566118843289">
66
</text>
<text font-size="130.18891098082386" text-anchor="middle" x="5450.5" y="9459.566118843288">
67
</text>
<text font-size="130.18891098082386" text-anchor="middle" x="5059.5" y="7179.066118843289">
68
</text>
<text font-size="130.18891098082386" text-anchor="middle" x="4118.5" y="1596.5661188432885">
69
</text>
<text font-size="130.18891098082386" text-anchor="middle" x="6841" y="9641.566118843288">
70
</text>
<text font-size="130.18891098082386" text-anchor="middle" x="4377.5" y="4759.066118843289">
71
</text>
<text font-size="130.18891098082386" text-anchor="middle" x="891.5" y="779.5661188432883">
72
</text>
<text font-size="130.18891098082386" text-anchor="middle" x="5529.5" y="7454.066118843289">
73
</text>
<text font-size="130.18891098082386" text-anchor="middle" x="9109.5" y="167.06611884328834">
74
</text>
<text font-size="130.18891098082386" text-anchor="middle" x="4563.5" y="609.0661188432883">
75
</text>
<text font-size="130.18891098082386" text-anchor="middle" x="2862" y="6698.566118843289">
76
</text>
<text font-size="130.18891098082386" text-anchor="middle" x="7292" y="3344.566118843288">
77
</text>
<text font-size="130.18891098082386" text-anchor="middle" x="5566" y="2934.566118843288">
78
</text>
<text font-size="130.18891098082386" text-anchor="middle" x="2177.5" y="3614.066118843288">
79
</text>
<text font-size="130.18891098082386" text-anchor="middle" x="7014" y="6017.066118843289">
80
</text>
<text font-size="130.18891098082386" text-anchor="middle" x="7914.5" y="1671.0661188432885">
81
</text>
<text font-size="130.18891098082386" text-anchor="middle" x="632.5" y="3000.566118843288">
82
</text>
<text font-size="130.18891098082386" text-anchor="middle" x="2149.5" y="2048.566118843288">
83
</text>
<text font-size="130.18891098082386" text-anchor="middle" x="8123" y="9278.066118843288">
84
</text>
<text font-size="130.18891098082386" text-anchor="middle" x="5587" y="6686.566118843289">
85
</text>
<text font-size="130.18891098082386" text-anchor="middle" x="1090.5" y="2263.066118843288">
86
</text>
<text font-size="130.18891098082386" text-anchor="middle" x="5454.5" y="5703.566118843289">
87
</text>
<text font-size="130.18891098082386" text-anchor="middle" x="8714" y="4720.566118843289">
88
</text>
<text font-size="130.18891098082386" text-anchor="middle" x="7769.5" y="4506.066118843289">
89
</text>
<text font-size="130.18891098082386" text-anchor="middle" x="5574" y="5301.566118843289">
90
</text>
<text font-size="130.18891098082386" text-anchor="middle" x="3285.5" y="6595.566118843289">
91
</text>
<text font-size="130.18891098082386" text-anchor="middle" x="3270.5" y="912.0661188432883">
92
</text>
<text font-size="130.18891098082386" text-anchor="middle" x="9239.5" y="1195.0661188432885">
93
</text>
<text font-size="130.18891098082386" text-anchor="middle" x="3059" y="5377.066118843289">
94
</text>
<text font-size="130.18891098082386" text-anchor="middle" x="2704.5" y="8039.566118843289">
95
</text>
<text font-size="130.18891098082386" text-anchor="middle" x="3825.5" y="9320.566118843288">
96
</text>
<text font-size="130.18891098082386" text-anchor="middle" x="5865" y="2376.066118843288">
97
</text>
<text font-size="130.18891098082386" text-anchor="middle" x="5831.5" y="8321.066118843288">
98
</text>
<text font-size="130.18891098082386" text-anchor="middle" x="5024.5" y="3268.566118843288">
99
</text>
<text font-size="130.18891098082386" text-anchor="middle" x="6260" y="1351.0661188432885">
100
</text>
<text font-size="130.18891098082386" text-anchor="middle" x="5437" y="6647.566118843289">
101
</text>
<text font-size="130.18891098082386" text-anchor="middle" x="4621" y="9059.566118843288">
102
</text>
<text font-size="130.18891098082386" text-anchor="middle" x="5269" y="6169.566118843289">
103
</text>
<text font-size="130.18891098082386" text-anchor="middle" x="4037.5" y="6851.066118843289">
104
</text>
<text font-size="130.18891098082386" text-anchor="middle" x="3147.5" y="4223.066118843289">
105
</text>
<text font-size="130.18891098082386" text-anchor="middle" x="6804" y="5150.066118843289">
106
</text>
<text font-size="130.18891098082386" text-anchor="middle" x="3287" y="2048.566118843288">
107
</text>
<text font-size="130.18891098082386" text-anchor="middle" x="6310" y="757.0661188432883">
108
</text>
<text font-size="130.18891098082386" text-anchor="middle" x="4221" y="2354.566118843288">
109
</text>
<text font-size="130.18891098082386" text-anchor="middle" x="8859" y="9863.566118843288">
110
</text>
<text font-size="130.18891098082386" text-anchor="middle" x="8260.5" y="3598.566118843288">
111
</text>
<text font-size="130.18891098082386" text-anchor="middle" x="4942" y="7892.066118843289">
112
</text>
<text font-size="130.18891098082386" text-anchor="middle" x="6572" y="7721.566118843289">
113
</text>
<text font-size="130.18891098082386" text-anchor="middle" x="486.5" y="940.0661188432883">
114
</text>
<text font-size="130.18891098082386" text-anchor="middle" x="6386.5" y="9066.066118843288">
115
</text>
<text font-size="130.18891098082386" text-anchor="middle" x="5529.5" y="7073.566118843289">
116
</text>
<text font-size="130.18891098082386" text-anchor="middle" x="2487.5" y="3407.066118843288">
117
</text>
</svg>