<svg viewBox="-100 -100 10200 10200" xmlns="http://www.w3.org/2000/svg">
<path d="M0,0 l10000,0 l0,10000 l-10000,0 z" fill="white"/>
<path d="M4678,5338 l1201,0 l0,1200 l-1201,0 z" fill="#fe00ff" stroke="black" stroke-width="5"/>
<path d="M6103,6163 l726,0 l0,726 l-726,0 z" fill="#fe00ff" stroke="black" stroke-width="5"/>
<path d="M1098,6022 l550,0 l0,550 l-550,0 z" fill="#fe00ff" stroke="black" stroke-width="5"/>
<path d="M951,178 l419,0 l0,345 l-419,0 z" fill="#0000ff" stroke="black" stroke-width="5"/>
<path d="M6103,8645 l988,0 l0,1355 l-988,0 z" fill="#5a00ff" stroke="black" stroke-width="5"/>
<path d="M1660,8936 l1919,0 l0,1064 l-1919,0 z" fill="#fe00ff" stroke="black" stroke-width="5"/>
<path d="M1627,3421 l2363,0 l0,241 l-2363,0 z" fill="#1100ff" stroke="black" stroke-width="5"/>
<path d="M6103,6889 l1515,0 l0,1756 l-1515,0 z" fill="#fe00ff" stroke="black" stroke-width="5"/>
<path d="M0,0 l1370,0 l0,178 l-1370,0 z" fill="#0500ff" stroke="black" stroke-width="5"/>
<path d="M7397,1404 l111,0 l0,110 l-111,0 z" fill="#fe00ff" stroke="black" stroke-width="5"/>
<path d="M325,4923 l1760,0 l0,1099 l-1760,0 z" fill="#fe00ff" stroke="black" stroke-width="5"/>
<path d="M6465,3770 l1156,0 l0,2191 l-1156,0 z" fill="#fe00ff" stroke="black" stroke-width="5"/>
<path d="M0,3421 l1300,0 l0,517 l-1300,0 z" fill="#1500ff" stroke="black" stroke-width="5"/>
<path d="M1379,7430 l1248,0 l0,1506 l-1248,0 z" fill="#fe00ff" stroke="black" stroke-width="5"/>
<path d="M8998,8719 l827,0 l0,1281 l-827,0 z" fill="#fe00ff" stroke="black" stroke-width="5"/>
<path d="M5902,698 l709,0 l0,1620 l-709,0 z" fill="#8d00ff" stroke="black" stroke-width="5"/>
<path d="M5879,3455 l224,0 l0,6545 l-224,0 z" fill="#c000ff" stroke="black" stroke-width="5"/>
<path d="M1370,0 l669,0 l0,523 l-669,0 z" fill="#fe00ff" stroke="black" stroke-width="5"/>
<path d="M3990,2420 l1105,0 l0,1105 l-1105,0 z" fill="#fe00ff" stroke="black" stroke-width="5"/>
<path d="M8214,5206 l233,0 l0,4794 l-233,0 z" fill="#bb00ff" stroke="black" stroke-width="5"/>
<path d="M0,178 l951,0 l0,2072 l-951,0 z" fill="#fe00ff" stroke="black" stroke-width="5"/>
<path d="M7807,274 l681,0 l0,681 l-681,0 z" fill="#fe00ff" stroke="black" stroke-width="5"/>
<path d="M4146,8412 l1327,0 l0,1327 l-1327,0 z" fill="#fe00ff" stroke="black" stroke-width="5"/>
<path d="M7478,8710 l736,0 l0,1290 l-736,0 z" fill="#fe00ff" stroke="black" stroke-width="5"/>
<path d="M6611,0 l786,0 l0,2549 l-786,0 z" fill="#b000ff" stroke="black" stroke-width="5"/>
<path d="M2679,3662 l3200,0 l0,927 l-3200,0 z" fill="#8d00ff" stroke="black" stroke-width="5"/>
<path d="M0,6022 l1098,0 l0,2051 l-1098,0 z" fill="#c700ff" stroke="black" stroke-width="5"/>
<path d="M3547,2988 l406,0 l0,405 l-406,0 z" fill="#fe00ff" stroke="black" stroke-width="5"/>
<path d="M8578,2160 l878,0 l0,877 l-878,0 z" fill="#fe00ff" stroke="black" stroke-width="5"/>
<path d="M6947,2549 l1221,0 l0,1221 l-1221,0 z" fill="#fe00ff" stroke="black" stroke-width="5"/>
<path d="M7621,4124 l1082,0 l0,1082 l-1082,0 z" fill="#fe00ff" stroke="black" stroke-width="5"/>
<path d="M171,8073 l1208,0 l0,1254 l-1208,0 z" fill="#fe00ff" stroke="black" stroke-width="5"/>
<path d="M3475,6804 l834,0 l0,833 l-834,0 z" fill="#fe00ff" stroke="black" stroke-width="5"/>
<path d="M4954,698 l948,0 l0,734 l-948,0 z" fill="#fe00ff" stroke="black" stroke-width="5"/>
<path d="M17,4217 l670,0 l0,669 l-670,0 z" fill="#fe00ff" stroke="black" stroke-width="5"/>
<path d="M577,2408 l2025,0 l0,1013 l-2025,0 z" fill="#fe00ff" stroke="black" stroke-width="5"/>
<path d="M4496,1432 l1175,0 l0,886 l-1175,0 z" fill="#fe00ff" stroke="black" stroke-width="5"/>
<path d="M1379,8936 l173,0 l0,173 l-173,0 z" fill="#fe00ff" stroke="black" stroke-width="5"/>
<path d="M4221,0 l2130,0 l0,698 l-2130,0 z" fill="#fe00ff" stroke="black" stroke-width="5"/>
<path d="M864,3938 l436,0 l0,436 l-436,0 z" fill="#fe00ff" stroke="black" stroke-width="5"/>
<path d="M2164,3662 l515,0 l0,2251 l-515,0 z" fill="#fe00ff" stroke="black" stroke-width="5"/>
<path d="M1300,3421 l327,0 l0,1502 l-327,0 z" fill="#fe00ff" stroke="black" stroke-width="5"/>
<path d="M8703,4178 l1297,0 l0,3686 l-1297,0 z" fill="#fe00ff" stroke="black" stroke-width="5"/>
<path d="M951,523 l1563,0 l0,886 l-1563,0 z" fill="#fe00ff" stroke="black" stroke-width="5"/>
<path d="M0,2250 l577,0 l0,1171 l-577,0 z" fill="#0e00ff" stroke="black" stroke-width="5"/>
<path d="M5095,2318 l1318,0 l0,1137 l-1318,0 z" fill="#fe00ff" stroke="black" stroke-width="5"/>
<path d="M8447,9099 l551,0 l0,551 l-551,0 z" fill="#fe00ff" stroke="black" stroke-width="5"/>
<path d="M0,9327 l1660,0 l0,673 l-1660,0 z" fill="#d200ff" stroke="black" stroke-width="5"/>
<path d="M2627,7637 l1519,0 l0,1299 l-1519,0 z" fill="#9800ff" stroke="black" stroke-width="5"/>
<path d="M1627,3984 l537,0 l0,536 l-537,0 z" fill="#fe00ff" stroke="black" stroke-width="5"/>
<path d="M7091,9131 l387,0 l0,478 l-387,0 z" fill="#fe00ff" stroke="black" stroke-width="5"/>
<path d="M5671,1432 l231,0 l0,886 l-231,0 z" fill="#0100ff" stroke="black" stroke-width="5"/>
<path d="M8488,0 l263,0 l0,2160 l-263,0 z" fill="#1100ff" stroke="black" stroke-width="5"/>
<path d="M2859,4589 l1819,0 l0,2215 l-1819,0 z" fill="#fe00ff" stroke="black" stroke-width="5"/>
<path d="M8751,832 l655,0 l0,672 l-655,0 z" fill="#fe00ff" stroke="black" stroke-width="5"/>
<path d="M5248,5908 l60,0 l0,60 l-60,0 z" fill="green"/>
<path d="M5278,5938 l0.5,0" stroke="black" stroke-width="5"/>
<path d="M6436,6496 l60,0 l0,60 l-60,0 z" fill="green"/>
<path d="M6466,6526 l0,0" stroke="black" stroke-width="5"/>
<path d="M1343,6267 l60,0 l0,60 l-60,0 z" fill="green"/>
<path d="M1373,6297 l0,0" stroke="black" stroke-width="5"/>
<path d="M924,195 l60,0 l0,60 l-60,0 z" fill="green"/>
<path d="M954,225 l206.5,125.5" stroke="black" stroke-width="5"/>
<path d="M6728,9878 l60,0 l0,60 l-60,0 z" fill="green"/>
<path d="M6758,9908 l-161,-585.5" stroke="black" stroke-width="5"/>
<path d="M1630,9479 l60,0 l0,60 l-60,0 z" fill="green"/>
<path d="M1660,9509 l959.5,-41" stroke="black" stroke-width="5"/>
<path d="M2283,3631 l60,0 l0,60 l-60,0 z" fill="green"/>
<path d="M2313,3661 l495.5,-119.5" stroke="black" stroke-width="5"/>
<path d="M6467,7494 l60,0 l0,60 l-60,0 z" fill="green"/>
<path d="M6497,7524 l363.5,243" stroke="black" stroke-width="5"/>
<path d="M324,147 l60,0 l0,60 l-60,0 z" fill="green"/>
<path d="M354,177 l331,-88" stroke="black" stroke-width="5"/>
<path d="M7422,1429 l60,0 l0,60 l-60,0 z" fill="green"/>
<path d="M7452,1459 l0.5,0" stroke="black" stroke-width="5"/>
<path d="M1175,5589 l60,0 l0,60 l-60,0 z" fill="green"/>
<path d="M1205,5619 l0,-146.5" stroke="black" stroke-width="5"/>
<path d="M7562,4803 l60,0 l0,60 l-60,0 z" fill="green"/>
<path d="M7592,4833 l-549,32.5" stroke="black" stroke-width="5"/>
<path d="M813,3593 l60,0 l0,60 l-60,0 z" fill="green"/>
<path d="M843,3623 l-193,56.5" stroke="black" stroke-width="5"/>
<path d="M1367,8629 l60,0 l0,60 l-60,0 z" fill="green"/>
<path d="M1397,8659 l606,-476" stroke="black" stroke-width="5"/>
<path d="M9073,9410 l60,0 l0,60 l-60,0 z" fill="green"/>
<path d="M9103,9440 l308.5,-80.5" stroke="black" stroke-width="5"/>
<path d="M6165,1578 l60,0 l0,60 l-60,0 z" fill="green"/>
<path d="M6195,1608 l61.5,-100" stroke="black" stroke-width="5"/>
<path d="M5982,6166 l60,0 l0,60 l-60,0 z" fill="green"/>
<path d="M6012,6196 l-21,531.5" stroke="black" stroke-width="5"/>
<path d="M1674,158 l60,0 l0,60 l-60,0 z" fill="green"/>
<path d="M1704,188 l0.5,73.5" stroke="black" stroke-width="5"/>
<path d="M4512,2942 l60,0 l0,60 l-60,0 z" fill="green"/>
<path d="M4542,2972 l0.5,0.5" stroke="black" stroke-width="5"/>
<path d="M8221,9011 l60,0 l0,60 l-60,0 z" fill="green"/>
<path d="M8251,9041 l79.5,-1438" stroke="black" stroke-width="5"/>
<path d="M323,1028 l60,0 l0,60 l-60,0 z" fill="green"/>
<path d="M353,1058 l122.5,156" stroke="black" stroke-width="5"/>
<path d="M8117,584 l60,0 l0,60 l-60,0 z" fill="green"/>
<path d="M8147,614 l0.5,0.5" stroke="black" stroke-width="5"/>
<path d="M4779,9045 l60,0 l0,60 l-60,0 z" fill="green"/>
<path d="M4809,9075 l0.5,0.5" stroke="black" stroke-width="5"/>
<path d="M7448,9415 l60,0 l0,60 l-60,0 z" fill="green"/>
<path d="M7478,9445 l368,-90" stroke="black" stroke-width="5"/>
<path d="M6581,1677 l60,0 l0,60 l-60,0 z" fill="green"/>
<path d="M6611,1707 l393,-432.5" stroke="black" stroke-width="5"/>
<path d="M2649,4316 l60,0 l0,60 l-60,0 z" fill="green"/>
<path d="M2679,4346 l1600,-220.5" stroke="black" stroke-width="5"/>
<path d="M231,6653 l60,0 l0,60 l-60,0 z" fill="green"/>
<path d="M261,6683 l288,364.5" stroke="black" stroke-width="5"/>
<path d="M3720,3160 l60,0 l0,60 l-60,0 z" fill="green"/>
<path d="M3750,3190 l0,0.5" stroke="black" stroke-width="5"/>
<path d="M8987,2568 l60,0 l0,60 l-60,0 z" fill="green"/>
<path d="M9017,2598 l0,0.5" stroke="black" stroke-width="5"/>
<path d="M7527,3129 l60,0 l0,60 l-60,0 z" fill="green"/>
<path d="M7557,3159 l0.5,0.5" stroke="black" stroke-width="5"/>
<path d="M8132,4635 l60,0 l0,60 l-60,0 z" fill="green"/>
<path d="M8162,4665 l0,0" stroke="black" stroke-width="5"/>
<path d="M1005,8907 l60,0 l0,60 l-60,0 z" fill="green"/>
<path d="M1035,8937 l-260,-237" stroke="black" stroke-width="5"/>
<path d="M3862,7190 l60,0 l0,60 l-60,0 z" fill="green"/>
<path d="M3892,7220 l0,0.5" stroke="black" stroke-width="5"/>
<path d="M5398,1142 l60,0 l0,60 l-60,0 z" fill="green"/>
<path d="M5428,1172 l0,-107" stroke="black" stroke-width="5"/>
<path d="M322,4521 l60,0 l0,60 l-60,0 z" fill="green"/>
<path d="M352,4551 l0,0.5" stroke="black" stroke-width="5"/>
<path d="M1559,3390 l60,0 l0,60 l-60,0 z" fill="green"/>
<path d="M1589,3420 l0.5,-505.5" stroke="black" stroke-width="5"/>
<path d="M5352,1402 l60,0 l0,60 l-60,0 z" fill="green"/>
<path d="M5382,1432 l-298.5,443" stroke="black" stroke-width="5"/>
<path d="M1435,8992 l60,0 l0,60 l-60,0 z" fill="green"/>
<path d="M1465,9022 l0.5,0.5" stroke="black" stroke-width="5"/>
<path d="M5256,261 l60,0 l0,60 l-60,0 z" fill="green"/>
<path d="M5286,291 l0,58" stroke="black" stroke-width="5"/>
<path d="M1052,4126 l60,0 l0,60 l-60,0 z" fill="green"/>
<path d="M1082,4156 l0,0" stroke="black" stroke-width="5"/>
<path d="M2385,4361 l60,0 l0,60 l-60,0 z" fill="green"/>
<path d="M2415,4391 l6.5,396.5" stroke="black" stroke-width="5"/>
<path d="M1505,3910 l60,0 l0,60 l-60,0 z" fill="green"/>
<path d="M1535,3940 l-71.5,232" stroke="black" stroke-width="5"/>
<path d="M9595,5991 l60,0 l0,60 l-60,0 z" fill="green"/>
<path d="M9625,6021 l-273.5,0" stroke="black" stroke-width="5"/>
<path d="M1702,597 l60,0 l0,60 l-60,0 z" fill="green"/>
<path d="M1732,627 l0.5,339" stroke="black" stroke-width="5"/>
<path d="M14,3166 l60,0 l0,60 l-60,0 z" fill="green"/>
<path d="M44,3196 l244.5,-360.5" stroke="black" stroke-width="5"/>
<path d="M5536,2579 l60,0 l0,60 l-60,0 z" fill="green"/>
<path d="M5566,2609 l188,277.5" stroke="black" stroke-width="5"/>
<path d="M8692,9344 l60,0 l0,60 l-60,0 z" fill="green"/>
<path d="M8722,9374 l0.5,0.5" stroke="black" stroke-width="5"/>
<path d="M1319,9297 l60,0 l0,60 l-60,0 z" fill="green"/>
<path d="M1349,9327 l-519,336.5" stroke="black" stroke-width="5"/>
<path d="M3980,8438 l60,0 l0,60 l-60,0 z" fill="green"/>
<path d="M4010,8468 l-623.5,-181.5" stroke="black" stroke-width="5"/>
<path d="M1865,4222 l60,0 l0,60 l-60,0 z" fill="green"/>
<path d="M1895,4252 l0.5,0" stroke="black" stroke-width="5"/>
<path d="M7300,9340 l60,0 l0,60 l-60,0 z" fill="green"/>
<path d="M7330,9370 l-45.5,0" stroke="black" stroke-width="5"/>
<path d="M5641,1524 l60,0 l0,60 l-60,0 z" fill="green"/>
<path d="M5671,1554 l115.5,321" stroke="black" stroke-width="5"/>
<path d="M8720,909 l60,0 l0,60 l-60,0 z" fill="green"/>
<path d="M8750,939 l-130.5,141" stroke="black" stroke-width="5"/>
<path d="M4359,6089 l60,0 l0,60 l-60,0 z" fill="green"/>
<path d="M4389,6119 l-620.5,-422.5" stroke="black" stroke-width="5"/>
<path d="M9040,1138 l60,0 l0,60 l-60,0 z" fill="green"/>
<path d="M9070,1168 l8.5,0" stroke="black" stroke-width="5"/>
<text font-size="190.69251784911845" text-anchor="middle" x="5278.5" y="6004.742381247192">
0
</text>
<text font-size="190.69251784911845" text-anchor="middle" x="6466" y="6592.742381247192">
1
</text>
<text font-size="190.69251784911845" text-anchor="middle" x="1373" y="6363.742381247192">
2
</text>
<text font-size="190.69251784911845" text-anchor="middle" x="1160.5" y="417.2423812471915">
3
</text>
<text font-size="190.69251784911845" text-anchor="middle" x="6597" y="9389.242381247192">
4
</text>
<text font-size="190.69251784911845" text-anchor="middle" x="2619.5" y="9534.742381247192">
5
</text>
<text font-size="190.69251784911845" text-anchor="middle" x="2808.5" y="3608.2423812471916">
6
</text>
<text font-size="190.69251784911845" text-anchor="middle" x="6860.5" y="7833.742381247192">
7
</text>
<text font-size="190.69251784911845" text-anchor="middle" x="685" y="155.74238124719145">
8
</text>
<text font-size="190.69251784911845" text-anchor="middle" x="7452.5" y="1525.7423812471914">
9
</text>
<text font-size="190.69251784911845" text-anchor="middle" x="1205" y="5539.242381247192">
10
</text>
<text font-size="190.69251784911845" text-anchor="middle" x="7043" y="4932.242381247192">
11
</text>
<text font-size="190.69251784911845" text-anchor="middle" x="650" y="3746.2423812471916">
12
</text>
<text font-size="190.69251784911845" text-anchor="middle" x="2003" y="8249.742381247192">
13
</text>
<text font-size="190.69251784911845" text-anchor="middle" x="9411.5" y="9426.242381247192">
14
</text>
<text font-size="190.69251784911845" text-anchor="middle" x="6256.5" y="1574.7423812471914">
15
</text>
<text font-size="190.69251784911845" text-anchor="middle" x="5991" y="6794.242381247192">
16
</text>
<text font-size="190.69251784911845" text-anchor="middle" x="1704.5" y="328.2423812471915">
17
</text>
<text font-size="190.69251784911845" text-anchor="middle" x="4542.5" y="3039.2423812471916">
18
</text>
<text font-size="190.69251784911845" text-anchor="middle" x="8330.5" y="7669.742381247192">
19
</text>
<text font-size="190.69251784911845" text-anchor="middle" x="475.5" y="1280.7423812471914">
20
</text>
<text font-size="190.69251784911845" text-anchor="middle" x="8147.5" y="681.2423812471915">
21
</text>
<text font-size="190.69251784911845" text-anchor="middle" x="4809.5" y="9142.242381247192">
22
</text>
<text font-size="190.69251784911845" text-anchor="middle" x="7846" y="9421.742381247192">
23
</text>
<text font-size="190.69251784911845" text-anchor="middle" x="7004" y="1341.2423812471914">
24
</text>
<text font-size="190.69251784911845" text-anchor="middle" x="4279" y="4192.242381247192">
25
</text>
<text font-size="190.69251784911845" text-anchor="middle" x="549" y="7114.242381247192">
26
</text>
<text font-size="190.69251784911845" text-anchor="middle" x="3750" y="3257.2423812471916">
27
</text>
<text font-size="190.69251784911845" text-anchor="middle" x="9017" y="2665.2423812471916">
28
</text>
<text font-size="190.69251784911845" text-anchor="middle" x="7557.5" y="3226.2423812471916">
29
</text>
<text font-size="190.69251784911845" text-anchor="middle" x="8162" y="4731.742381247192">
30
</text>
<text font-size="190.69251784911845" text-anchor="middle" x="775" y="8766.742381247192">
31
</text>
<text font-size="190.69251784911845" text-anchor="middle" x="3892" y="7287.242381247192">
32
</text>
<text font-size="190.69251784911845" text-anchor="middle" x="5428" y="1131.7423812471914">
33
</text>
<text font-size="190.69251784911845" text-anchor="middle" x="352" y="4618.242381247192">
34
</text>
<text font-size="190.69251784911845" text-anchor="middle" x="1589.5" y="2981.2423812471916">
35
</text>
<text font-size="190.69251784911845" text-anchor="middle" x="5083.5" y="1941.7423812471914">
36
</text>
<text font-size="190.69251784911845" text-anchor="middle" x="1465.5" y="9089.242381247192">
37
</text>
<text font-size="190.69251784911845" text-anchor="middle" x="5286" y="415.7423812471915">
38
</text>
<text font-size="190.69251784911845" text-anchor="middle" x="1082" y="4222.742381247192">
39
</text>
<text font-size="190.69251784911845" text-anchor="middle" x="2421.5" y="4854.242381247192">
40
</text>
<text font-size="190.69251784911845" text-anchor="middle" x="1463.5" y="4238.742381247192">
41
</text>
<text font-size="190.69251784911845" text-anchor="middle" x="9351.5" y="6087.742381247192">
42
</text>
<text font-size="190.69251784911845" text-anchor="middle" x="1732.5" y="1032.7423812471914">
43
</text>
<text font-size="190.69251784911845" text-anchor="middle" x="288.5" y="2902.2423812471916">
44
</text>
<text font-size="190.69251784911845" text-anchor="middle" x="5754" y="2953.2423812471916">
45
</text>
<text font-size="190.69251784911845" text-anchor="middle" x="8722.5" y="9441.242381247192">
46
</text>
<text font-size="190.69251784911845" text-anchor="middle" x="830" y="9730.242381247192">
47
</text>
<text font-size="190.69251784911845" text-anchor="middle" x="3386.5" y="8353.242381247192">
48
</text>
<text font-size="190.69251784911845" text-anchor="middle" x="1895.5" y="4318.742381247192">
49
</text>
<text font-size="190.69251784911845" text-anchor="middle" x="7284.5" y="9436.742381247192">
50
</text>
<text font-size="190.69251784911845" text-anchor="middle" x="5786.5" y="1941.7423812471914">
51
</text>
<text font-size="190.69251784911845" text-anchor="middle" x="8619.5" y="1146.7423812471914">
52
</text>
<text font-size="190.69251784911845" text-anchor="middle" x="3768.5" y="5763.242381247192">
53
</text>
<text font-size="190.69251784911845" text-anchor="middle" x="9078.5" y="1234.7423812471914">
54
</text>
</svg>