<svg viewBox="-100 -100 10200 10200" xmlns="http://www.w3.org/2000/svg">
<path d="M0,0 l10000,0 l0,10000 l-10000,0 z" fill="white"/>
<path d="M7346,7454 l1041,0 l0,385 l-1041,0 z" fill="#4a00ff" stroke="black" stroke-width="5"/>
<path d="M6999,6200 l1756,0 l0,682 l-1756,0 z" fill="#fe00ff" stroke="black" stroke-width="5"/>
<path d="M4280,6073 l850,0 l0,574 l-850,0 z" fill="#9500ff" stroke="black" stroke-width="5"/>
<path d="M4710,7395 l595,0 l0,1460 l-595,0 z" fill="#1b00ff" stroke="black" stroke-width="5"/>
<path d="M1104,2442 l2018,0 l0,1319 l-2018,0 z" fill="#e300ff" stroke="black" stroke-width="5"/>
<path d="M8755,6200 l1245,0 l0,868 l-1245,0 z" fill="#fe00ff" stroke="black" stroke-width="5"/>
<path d="M3681,2485 l615,0 l0,308 l-615,0 z" fill="#fe00ff" stroke="black" stroke-width="5"/>
<path d="M6974,4860 l1297,0 l0,1289 l-1297,0 z" fill="#fe00ff" stroke="black" stroke-width="5"/>
<path d="M724,0 l1009,0 l0,1487 l-1009,0 z" fill="#fe00ff" stroke="black" stroke-width="5"/>
<path d="M8706,1461 l844,0 l0,3493 l-844,0 z" fill="#c500ff" stroke="black" stroke-width="5"/>
<path d="M5130,5639 l1311,0 l0,1008 l-1311,0 z" fill="#fc00ff" stroke="black" stroke-width="5"/>
<path d="M1733,0 l669,0 l0,1001 l-669,0 z" fill="#fe00ff" stroke="black" stroke-width="5"/>
<path d="M4296,2699 l1164,0 l0,1125 l-1164,0 z" fill="#fe00ff" stroke="black" stroke-width="5"/>
<path d="M8748,9309 l646,0 l0,566 l-646,0 z" fill="#fe00ff" stroke="black" stroke-width="5"/>
<path d="M6173,0 l233,0 l0,2323 l-233,0 z" fill="#fe00ff" stroke="black" stroke-width="5"/>
<path d="M0,8198 l1075,0 l0,1072 l-1075,0 z" fill="#e600ff" stroke="black" stroke-width="5"/>
<path d="M5995,7395 l810,0 l0,1202 l-810,0 z" fill="#3500ff" stroke="black" stroke-width="5"/>
<path d="M1360,3761 l1,0 l0,1881 l-1,0 z" fill="#0000ff" stroke="black" stroke-width="5"/>
<path d="M5148,5326 l1258,0 l0,313 l-1258,0 z" fill="#fe00ff" stroke="black" stroke-width="5"/>
<path d="M5666,8796 l2721,0 l0,690 l-2721,0 z" fill="#fe00ff" stroke="black" stroke-width="5"/>
<path d="M0,729 l669,0 l0,844 l-669,0 z" fill="#fe00ff" stroke="black" stroke-width="5"/>
<path d="M6974,44 l1391,0 l0,1450 l-1391,0 z" fill="#fe00ff" stroke="black" stroke-width="5"/>
<path d="M3413,8768 l402,0 l0,402 l-402,0 z" fill="#fe00ff" stroke="black" stroke-width="5"/>
<path d="M8528,1264 l328,0 l0,197 l-328,0 z" fill="#fe00ff" stroke="black" stroke-width="5"/>
<path d="M7326,4378 l483,0 l0,482 l-483,0 z" fill="#fe00ff" stroke="black" stroke-width="5"/>
<path d="M601,6150 l109,0 l0,108 l-109,0 z" fill="#fe00ff" stroke="black" stroke-width="5"/>
<path d="M0,2532 l1104,0 l0,1229 l-1104,0 z" fill="#d800ff" stroke="black" stroke-width="5"/>
<path d="M4045,7619 l665,0 l0,664 l-665,0 z" fill="#fe00ff" stroke="black" stroke-width="5"/>
<path d="M1075,9118 l766,0 l0,777 l-766,0 z" fill="#fe00ff" stroke="black" stroke-width="5"/>
<path d="M3122,2793 l1087,0 l0,2445 l-1087,0 z" fill="#9900ff" stroke="black" stroke-width="5"/>
<path d="M8856,1177 l450,0 l0,284 l-450,0 z" fill="#fe00ff" stroke="black" stroke-width="5"/>
<path d="M4298,8855 l834,0 l0,834 l-834,0 z" fill="#fe00ff" stroke="black" stroke-width="5"/>
<path d="M4209,3824 l161,0 l0,321 l-161,0 z" fill="#fe00ff" stroke="black" stroke-width="5"/>
<path d="M5130,4436 l890,0 l0,890 l-890,0 z" fill="#fe00ff" stroke="black" stroke-width="5"/>
<path d="M6802,5639 l3,0 l0,1756 l-3,0 z" fill="#0000ff" stroke="black" stroke-width="5"/>
<path d="M0,3761 l1360,0 l0,1783 l-1360,0 z" fill="#fe00ff" stroke="black" stroke-width="5"/>
<path d="M1129,5642 l844,0 l0,844 l-844,0 z" fill="#fe00ff" stroke="black" stroke-width="5"/>
<path d="M385,6684 l864,0 l0,864 l-864,0 z" fill="#fe00ff" stroke="black" stroke-width="5"/>
<path d="M9550,2206 l450,0 l0,1001 l-450,0 z" fill="#fe00ff" stroke="black" stroke-width="5"/>
<path d="M2707,1889 l2536,0 l0,1 l-2536,0 z" fill="#0000ff" stroke="black" stroke-width="5"/>
<path d="M6490,8597 l1756,0 l0,199 l-1756,0 z" fill="#fe00ff" stroke="black" stroke-width="5"/>
<path d="M0,9270 l1075,0 l0,730 l-1075,0 z" fill="#fe00ff" stroke="black" stroke-width="5"/>
<path d="M5305,7395 l690,0 l0,769 l-690,0 z" fill="#fe00ff" stroke="black" stroke-width="5"/>
<path d="M9550,3207 l450,0 l0,1502 l-450,0 z" fill="#fe00ff" stroke="black" stroke-width="5"/>
<path d="M3122,5238 l2008,0 l0,835 l-2008,0 z" fill="#8100ff" stroke="black" stroke-width="5"/>
<path d="M3159,6073 l1121,0 l0,561 l-1121,0 z" fill="#fe00ff" stroke="black" stroke-width="5"/>
<path d="M8226,9875 l1774,0 l0,125 l-1774,0 z" fill="#5500ff" stroke="black" stroke-width="5"/>
<path d="M0,7548 l1740,0 l0,650 l-1740,0 z" fill="#fe00ff" stroke="black" stroke-width="5"/>
<path d="M7967,6882 l572,0 l0,572 l-572,0 z" fill="#fe00ff" stroke="black" stroke-width="5"/>
<path d="M8512,3043 l194,0 l0,386 l-194,0 z" fill="#fe00ff" stroke="black" stroke-width="5"/>
<path d="M2376,8629 l415,0 l0,414 l-415,0 z" fill="#fe00ff" stroke="black" stroke-width="5"/>
<path d="M6406,3 l568,0 l0,5636 l-568,0 z" fill="#fe00ff" stroke="black" stroke-width="5"/>
<path d="M1361,3761 l1761,0 l0,1502 l-1761,0 z" fill="#fe00ff" stroke="black" stroke-width="5"/>
<path d="M2402,0 l3771,0 l0,703 l-3771,0 z" fill="#fe00ff" stroke="black" stroke-width="5"/>
<path d="M2402,703 l2181,0 l0,449 l-2181,0 z" fill="#fe00ff" stroke="black" stroke-width="5"/>
<path d="M5460,2606 l946,0 l0,1598 l-946,0 z" fill="#fe00ff" stroke="black" stroke-width="5"/>
<path d="M2707,1152 l969,0 l0,737 l-969,0 z" fill="#fe00ff" stroke="black" stroke-width="5"/>
<path d="M6805,5639 l169,0 l0,1469 l-169,0 z" fill="#5200ff" stroke="black" stroke-width="5"/>
<path d="M6805,7108 l541,0 l0,540 l-541,0 z" fill="#fe00ff" stroke="black" stroke-width="5"/>
<path d="M2644,6828 l1132,0 l0,908 l-1132,0 z" fill="#fe00ff" stroke="black" stroke-width="5"/>
<path d="M8271,4954 l1494,0 l0,1246 l-1494,0 z" fill="#fe00ff" stroke="black" stroke-width="5"/>
<path d="M6710,9486 l1516,0 l0,514 l-1516,0 z" fill="#fe00ff" stroke="black" stroke-width="5"/>
<path d="M3776,6647 l2665,0 l0,748 l-2665,0 z" fill="#fe00ff" stroke="black" stroke-width="5"/>
<path d="M6441,5639 l361,0 l0,1756 l-361,0 z" fill="#0900ff" stroke="black" stroke-width="5"/>
<path d="M7243,7839 l1144,0 l0,758 l-1144,0 z" fill="#fe00ff" stroke="black" stroke-width="5"/>
<path d="M2427,5505 l410,0 l0,410 l-410,0 z" fill="#fe00ff" stroke="black" stroke-width="5"/>
<path d="M8387,7454 l1613,0 l0,1855 l-1613,0 z" fill="#d900ff" stroke="black" stroke-width="5"/>
<path d="M4349,4167 l765,0 l0,765 l-765,0 z" fill="#fe00ff" stroke="black" stroke-width="5"/>
<path d="M6805,7648 l438,0 l0,949 l-438,0 z" fill="#9500ff" stroke="black" stroke-width="5"/>
<path d="M5305,8597 l1185,0 l0,199 l-1185,0 z" fill="#1300ff" stroke="black" stroke-width="5"/>
<path d="M2707,1890 l627,0 l0,552 l-627,0 z" fill="#fe00ff" stroke="black" stroke-width="5"/>
<path d="M1733,1152 l974,0 l0,1290 l-974,0 z" fill="#fe00ff" stroke="black" stroke-width="5"/>
<path d="M3246,7736 l799,0 l0,833 l-799,0 z" fill="#fe00ff" stroke="black" stroke-width="5"/>
<path d="M6406,0 l3594,0 l0,3 l-3594,0 z" fill="#0000ff" stroke="black" stroke-width="5"/>
<path d="M5243,1775 l832,0 l0,831 l-832,0 z" fill="#fe00ff" stroke="black" stroke-width="5"/>
<path d="M0,1573 l1104,0 l0,959 l-1104,0 z" fill="#7a00ff" stroke="black" stroke-width="5"/>
<path d="M8031,7808 l60,0 l0,60 l-60,0 z" fill="green"/>
<path d="M8061,7838 l-194.5,-191.5" stroke="black" stroke-width="5"/>
<path d="M8724,6217 l60,0 l0,60 l-60,0 z" fill="green"/>
<path d="M8754,6247 l-877,294" stroke="black" stroke-width="5"/>
<path d="M4965,6616 l60,0 l0,60 l-60,0 z" fill="green"/>
<path d="M4995,6646 l-290,-286" stroke="black" stroke-width="5"/>
<path d="M5062,7393 l60,0 l0,60 l-60,0 z" fill="green"/>
<path d="M5092,7423 l-84.5,702" stroke="black" stroke-width="5"/>
<path d="M2221,3730 l60,0 l0,60 l-60,0 z" fill="green"/>
<path d="M2251,3760 l-138,-658.5" stroke="black" stroke-width="5"/>
<path d="M9161,6170 l60,0 l0,60 l-60,0 z" fill="green"/>
<path d="M9191,6200 l186.5,434" stroke="black" stroke-width="5"/>
<path d="M3958,2762 l60,0 l0,60 l-60,0 z" fill="green"/>
<path d="M3988,2792 l0.5,-153" stroke="black" stroke-width="5"/>
<path d="M7778,4951 l60,0 l0,60 l-60,0 z" fill="green"/>
<path d="M7808,4981 l-185.5,523.5" stroke="black" stroke-width="5"/>
<path d="M1479,671 l60,0 l0,60 l-60,0 z" fill="green"/>
<path d="M1509,701 l-280.5,42.5" stroke="black" stroke-width="5"/>
<path d="M9176,3007 l60,0 l0,60 l-60,0 z" fill="green"/>
<path d="M9206,3037 l-78,170.5" stroke="black" stroke-width="5"/>
<path d="M5928,6444 l60,0 l0,60 l-60,0 z" fill="green"/>
<path d="M5958,6474 l-172.5,-331" stroke="black" stroke-width="5"/>
<path d="M2371,301 l60,0 l0,60 l-60,0 z" fill="green"/>
<path d="M2401,331 l-333.5,169.5" stroke="black" stroke-width="5"/>
<path d="M4826,3272 l60,0 l0,60 l-60,0 z" fill="green"/>
<path d="M4856,3302 l22,-40.5" stroke="black" stroke-width="5"/>
<path d="M9041,9602 l60,0 l0,60 l-60,0 z" fill="green"/>
<path d="M9071,9632 l0,-40" stroke="black" stroke-width="5"/>
<path d="M6375,640 l60,0 l0,60 l-60,0 z" fill="green"/>
<path d="M6405,670 l-115.5,491.5" stroke="black" stroke-width="5"/>
<path d="M580,9239 l60,0 l0,60 l-60,0 z" fill="green"/>
<path d="M610,9269 l-72.5,-535" stroke="black" stroke-width="5"/>
<path d="M6042,8065 l60,0 l0,60 l-60,0 z" fill="green"/>
<path d="M6072,8095 l328,-99" stroke="black" stroke-width="5"/>
<path d="M1330,4113 l60,0 l0,60 l-60,0 z" fill="green"/>
<path d="M1360,4143 l0.5,558.5" stroke="black" stroke-width="5"/>
<path d="M5870,5591 l60,0 l0,60 l-60,0 z" fill="green"/>
<path d="M5900,5621 l-123,-138.5" stroke="black" stroke-width="5"/>
<path d="M7379,9455 l60,0 l0,60 l-60,0 z" fill="green"/>
<path d="M7409,9485 l-382.5,-344" stroke="black" stroke-width="5"/>
<path d="M216,1121 l60,0 l0,60 l-60,0 z" fill="green"/>
<path d="M246,1151 l88.5,0" stroke="black" stroke-width="5"/>
<path d="M7610,739 l60,0 l0,60 l-60,0 z" fill="green"/>
<path d="M7640,769 l29.5,0" stroke="black" stroke-width="5"/>
<path d="M3584,8939 l60,0 l0,60 l-60,0 z" fill="green"/>
<path d="M3614,8969 l0,0" stroke="black" stroke-width="5"/>
<path d="M8662,1398 l60,0 l0,60 l-60,0 z" fill="green"/>
<path d="M8692,1428 l0,-65.5" stroke="black" stroke-width="5"/>
<path d="M7537,4589 l60,0 l0,60 l-60,0 z" fill="green"/>
<path d="M7567,4619 l0.5,0" stroke="black" stroke-width="5"/>
<path d="M625,6174 l60,0 l0,60 l-60,0 z" fill="green"/>
<path d="M655,6204 l0.5,0" stroke="black" stroke-width="5"/>
<path d="M1073,3676 l60,0 l0,60 l-60,0 z" fill="green"/>
<path d="M1103,3706 l-551,-559.5" stroke="black" stroke-width="5"/>
<path d="M4347,7921 l60,0 l0,60 l-60,0 z" fill="green"/>
<path d="M4377,7951 l0.5,0" stroke="black" stroke-width="5"/>
<path d="M1422,9476 l60,0 l0,60 l-60,0 z" fill="green"/>
<path d="M1452,9506 l6,0.5" stroke="black" stroke-width="5"/>
<path d="M3092,3761 l60,0 l0,60 l-60,0 z" fill="green"/>
<path d="M3122,3791 l543.5,224.5" stroke="black" stroke-width="5"/>
<path d="M8991,1430 l60,0 l0,60 l-60,0 z" fill="green"/>
<path d="M9021,1460 l60,-141" stroke="black" stroke-width="5"/>
<path d="M4685,9242 l60,0 l0,60 l-60,0 z" fill="green"/>
<path d="M4715,9272 l0,0" stroke="black" stroke-width="5"/>
<path d="M4179,3954 l60,0 l0,60 l-60,0 z" fill="green"/>
<path d="M4209,3984 l80.5,0.5" stroke="black" stroke-width="5"/>
<path d="M5545,4851 l60,0 l0,60 l-60,0 z" fill="green"/>
<path d="M5575,4881 l0,0" stroke="black" stroke-width="5"/>
<path d="M6772,7082 l60,0 l0,60 l-60,0 z" fill="green"/>
<path d="M6802,7112 l1.5,-595" stroke="black" stroke-width="5"/>
<path d="M791,4473 l60,0 l0,60 l-60,0 z" fill="green"/>
<path d="M821,4503 l-141,149.5" stroke="black" stroke-width="5"/>
<path d="M1521,6034 l60,0 l0,60 l-60,0 z" fill="green"/>
<path d="M1551,6064 l0,0" stroke="black" stroke-width="5"/>
<path d="M787,7086 l60,0 l0,60 l-60,0 z" fill="green"/>
<path d="M817,7116 l0,0" stroke="black" stroke-width="5"/>
<path d="M9559,3063 l60,0 l0,60 l-60,0 z" fill="green"/>
<path d="M9589,3093 l186,-386.5" stroke="black" stroke-width="5"/>
<path d="M2876,1859 l60,0 l0,60 l-60,0 z" fill="green"/>
<path d="M2906,1889 l1069,0.5" stroke="black" stroke-width="5"/>
<path d="M6935,8765 l60,0 l0,60 l-60,0 z" fill="green"/>
<path d="M6965,8795 l403,-98.5" stroke="black" stroke-width="5"/>
<path d="M149,9958 l60,0 l0,60 l-60,0 z" fill="green"/>
<path d="M179,9988 l358.5,-353" stroke="black" stroke-width="5"/>
<path d="M5275,7445 l60,0 l0,60 l-60,0 z" fill="green"/>
<path d="M5305,7475 l345,304.5" stroke="black" stroke-width="5"/>
<path d="M9520,3177 l60,0 l0,60 l-60,0 z" fill="green"/>
<path d="M9550,3207 l225,751" stroke="black" stroke-width="5"/>
<path d="M3173,5208 l60,0 l0,60 l-60,0 z" fill="green"/>
<path d="M3203,5238 l923,417.5" stroke="black" stroke-width="5"/>
<path d="M3689,6043 l60,0 l0,60 l-60,0 z" fill="green"/>
<path d="M3719,6073 l0.5,280.5" stroke="black" stroke-width="5"/>
<path d="M8923,9845 l60,0 l0,60 l-60,0 z" fill="green"/>
<path d="M8953,9875 l160,62.5" stroke="black" stroke-width="5"/>
<path d="M575,8167 l60,0 l0,60 l-60,0 z" fill="green"/>
<path d="M605,8197 l265,-324" stroke="black" stroke-width="5"/>
<path d="M8223,7138 l60,0 l0,60 l-60,0 z" fill="green"/>
<path d="M8253,7168 l0,0" stroke="black" stroke-width="5"/>
<path d="M8675,3206 l60,0 l0,60 l-60,0 z" fill="green"/>
<path d="M8705,3236 l-96,0" stroke="black" stroke-width="5"/>
<path d="M2553,8806 l60,0 l0,60 l-60,0 z" fill="green"/>
<path d="M2583,8836 l0.5,0" stroke="black" stroke-width="5"/>
<path d="M6943,161 l60,0 l0,60 l-60,0 z" fill="green"/>
<path d="M6973,191 l-283,2630" stroke="black" stroke-width="5"/>
<path d="M2397,3979 l60,0 l0,60 l-60,0 z" fill="green"/>
<path d="M2427,4009 l-185.5,503" stroke="black" stroke-width="5"/>
<path d="M2736,237 l60,0 l0,60 l-60,0 z" fill="green"/>
<path d="M2766,267 l1521.5,84.5" stroke="black" stroke-width="5"/>
<path d="M2566,673 l60,0 l0,60 l-60,0 z" fill="green"/>
<path d="M2596,703 l896.5,224.5" stroke="black" stroke-width="5"/>
<path d="M6232,2805 l60,0 l0,60 l-60,0 z" fill="green"/>
<path d="M6262,2835 l-329,570" stroke="black" stroke-width="5"/>
<path d="M2855,1427 l60,0 l0,60 l-60,0 z" fill="green"/>
<path d="M2885,1457 l306.5,63.5" stroke="black" stroke-width="5"/>
<path d="M6862,5609 l60,0 l0,60 l-60,0 z" fill="green"/>
<path d="M6892,5639 l-2.5,734.5" stroke="black" stroke-width="5"/>
<path d="M7045,7348 l60,0 l0,60 l-60,0 z" fill="green"/>
<path d="M7075,7378 l0.5,0" stroke="black" stroke-width="5"/>
<path d="M3303,7486 l60,0 l0,60 l-60,0 z" fill="green"/>
<path d="M3333,7516 l-123,-234" stroke="black" stroke-width="5"/>
<path d="M8988,5670 l60,0 l0,60 l-60,0 z" fill="green"/>
<path d="M9018,5700 l0,-123" stroke="black" stroke-width="5"/>
<path d="M7438,9587 l60,0 l0,60 l-60,0 z" fill="green"/>
<path d="M7468,9617 l0,126" stroke="black" stroke-width="5"/>
<path d="M5078,7364 l60,0 l0,60 l-60,0 z" fill="green"/>
<path d="M5108,7394 l0.5,-373" stroke="black" stroke-width="5"/>
<path d="M6556,6959 l60,0 l0,60 l-60,0 z" fill="green"/>
<path d="M6586,6989 l35.5,-472" stroke="black" stroke-width="5"/>
<path d="M8356,8137 l60,0 l0,60 l-60,0 z" fill="green"/>
<path d="M8386,8167 l-571,51" stroke="black" stroke-width="5"/>
<path d="M2602,5680 l60,0 l0,60 l-60,0 z" fill="green"/>
<path d="M2632,5710 l0,0" stroke="black" stroke-width="5"/>
<path d="M9062,8773 l60,0 l0,60 l-60,0 z" fill="green"/>
<path d="M9092,8803 l101.5,-421.5" stroke="black" stroke-width="5"/>
<path d="M4701,4519 l60,0 l0,60 l-60,0 z" fill="green"/>
<path d="M4731,4549 l0.5,0.5" stroke="black" stroke-width="5"/>
<path d="M6961,8534 l60,0 l0,60 l-60,0 z" fill="green"/>
<path d="M6991,8564 l33,-441.5" stroke="black" stroke-width="5"/>
<path d="M6459,8567 l60,0 l0,60 l-60,0 z" fill="green"/>
<path d="M6489,8597 l-591.5,99.5" stroke="black" stroke-width="5"/>
<path d="M2871,1979 l60,0 l0,60 l-60,0 z" fill="green"/>
<path d="M2901,2009 l119.5,157" stroke="black" stroke-width="5"/>
<path d="M2676,2130 l60,0 l0,60 l-60,0 z" fill="green"/>
<path d="M2706,2160 l-486,-363" stroke="black" stroke-width="5"/>
<path d="M3633,8122 l60,0 l0,60 l-60,0 z" fill="green"/>
<path d="M3663,8152 l-17.5,0.5" stroke="black" stroke-width="5"/>
<path d="M6807,-28 l60,0 l0,60 l-60,0 z" fill="green"/>
<path d="M6837,2 l1366,-0.5" stroke="black" stroke-width="5"/>
<path d="M5629,2160 l60,0 l0,60 l-60,0 z" fill="green"/>
<path d="M5659,2190 l0,0.5" stroke="black" stroke-width="5"/>
<path d="M923,2501 l60,0 l0,60 l-60,0 z" fill="green"/>
<path d="M953,2531 l-401,-478.5" stroke="black" stroke-width="5"/>
<text font-size="162.22142113076254" text-anchor="middle" x="7866.5" y="7703.277497395767">
0
</text>
<text font-size="162.22142113076254" text-anchor="middle" x="7877" y="6597.777497395767">
1
</text>
<text font-size="162.22142113076254" text-anchor="middle" x="4705" y="6416.777497395767">
2
</text>
<text font-size="162.22142113076254" text-anchor="middle" x="5007.5" y="8181.777497395767">
3
</text>
<text font-size="162.22142113076254" text-anchor="middle" x="2113" y="3158.2774973957667">
4
</text>
<text font-size="162.22142113076254" text-anchor="middle" x="9377.5" y="6690.777497395767">
5
</text>
<text font-size="162.22142113076254" text-anchor="middle" x="3988.5" y="2695.7774973957667">
6
</text>
<text font-size="162.22142113076254" text-anchor="middle" x="7622.5" y="5561.277497395767">
7
</text>
<text font-size="162.22142113076254" text-anchor="middle" x="1228.5" y="800.2774973957669">
8
</text>
<text font-size="162.22142113076254" text-anchor="middle" x="9128" y="3264.2774973957667">
9
</text>
<text font-size="162.22142113076254" text-anchor="middle" x="5785.5" y="6199.777497395767">
10
</text>
<text font-size="162.22142113076254" text-anchor="middle" x="2067.5" y="557.2774973957669">
11
</text>
<text font-size="162.22142113076254" text-anchor="middle" x="4878" y="3318.2774973957667">
12
</text>
<text font-size="162.22142113076254" text-anchor="middle" x="9071" y="9648.777497395768">
13
</text>
<text font-size="162.22142113076254" text-anchor="middle" x="6289.5" y="1218.2774973957669">
14
</text>
<text font-size="162.22142113076254" text-anchor="middle" x="537.5" y="8790.777497395768">
15
</text>
<text font-size="162.22142113076254" text-anchor="middle" x="6400" y="8052.777497395767">
16
</text>
<text font-size="162.22142113076254" text-anchor="middle" x="1360.5" y="4758.277497395767">
17
</text>
<text font-size="162.22142113076254" text-anchor="middle" x="5777" y="5539.277497395767">
18
</text>
<text font-size="162.22142113076254" text-anchor="middle" x="7026.5" y="9197.777497395768">
19
</text>
<text font-size="162.22142113076254" text-anchor="middle" x="334.5" y="1207.7774973957669">
20
</text>
<text font-size="162.22142113076254" text-anchor="middle" x="7669.5" y="825.7774973957669">
21
</text>
<text font-size="162.22142113076254" text-anchor="middle" x="3614" y="9025.777497395768">
22
</text>
<text font-size="162.22142113076254" text-anchor="middle" x="8692" y="1419.2774973957669">
23
</text>
<text font-size="162.22142113076254" text-anchor="middle" x="7567.5" y="4675.777497395767">
24
</text>
<text font-size="162.22142113076254" text-anchor="middle" x="655.5" y="6260.777497395767">
25
</text>
<text font-size="162.22142113076254" text-anchor="middle" x="552" y="3203.2774973957667">
26
</text>
<text font-size="162.22142113076254" text-anchor="middle" x="4377.5" y="8007.777497395767">
27
</text>
<text font-size="162.22142113076254" text-anchor="middle" x="1458" y="9563.277497395768">
28
</text>
<text font-size="162.22142113076254" text-anchor="middle" x="3665.5" y="4072.2774973957667">
29
</text>
<text font-size="162.22142113076254" text-anchor="middle" x="9081" y="1375.7774973957669">
30
</text>
<text font-size="162.22142113076254" text-anchor="middle" x="4715" y="9328.777497395768">
31
</text>
<text font-size="162.22142113076254" text-anchor="middle" x="4289.5" y="4041.2774973957667">
32
</text>
<text font-size="162.22142113076254" text-anchor="middle" x="5575" y="4937.777497395767">
33
</text>
<text font-size="162.22142113076254" text-anchor="middle" x="6803.5" y="6573.777497395767">
34
</text>
<text font-size="162.22142113076254" text-anchor="middle" x="680" y="4709.277497395767">
35
</text>
<text font-size="162.22142113076254" text-anchor="middle" x="1551" y="6120.777497395767">
36
</text>
<text font-size="162.22142113076254" text-anchor="middle" x="817" y="7172.777497395767">
37
</text>
<text font-size="162.22142113076254" text-anchor="middle" x="9775" y="2763.2774973957667">
38
</text>
<text font-size="162.22142113076254" text-anchor="middle" x="3975" y="1946.2774973957669">
39
</text>
<text font-size="162.22142113076254" text-anchor="middle" x="7368" y="8753.277497395768">
40
</text>
<text font-size="162.22142113076254" text-anchor="middle" x="537.5" y="9691.777497395768">
41
</text>
<text font-size="162.22142113076254" text-anchor="middle" x="5650" y="7836.277497395767">
42
</text>
<text font-size="162.22142113076254" text-anchor="middle" x="9775" y="4014.7774973957667">
43
</text>
<text font-size="162.22142113076254" text-anchor="middle" x="4126" y="5712.277497395767">
44
</text>
<text font-size="162.22142113076254" text-anchor="middle" x="3719.5" y="6410.277497395767">
45
</text>
<text font-size="162.22142113076254" text-anchor="middle" x="9113" y="9994.277497395768">
46
</text>
<text font-size="162.22142113076254" text-anchor="middle" x="870" y="7929.777497395767">
47
</text>
<text font-size="162.22142113076254" text-anchor="middle" x="8253" y="7224.777497395767">
48
</text>
<text font-size="162.22142113076254" text-anchor="middle" x="8609" y="3292.7774973957667">
49
</text>
<text font-size="162.22142113076254" text-anchor="middle" x="2583.5" y="8892.777497395768">
50
</text>
<text font-size="162.22142113076254" text-anchor="middle" x="6690" y="2877.7774973957667">
51
</text>
<text font-size="162.22142113076254" text-anchor="middle" x="2241.5" y="4568.777497395767">
52
</text>
<text font-size="162.22142113076254" text-anchor="middle" x="4287.5" y="408.2774973957669">
53
</text>
<text font-size="162.22142113076254" text-anchor="middle" x="3492.5" y="984.2774973957669">
54
</text>
<text font-size="162.22142113076254" text-anchor="middle" x="5933" y="3461.7774973957667">
55
</text>
<text font-size="162.22142113076254" text-anchor="middle" x="3191.5" y="1577.2774973957669">
56
</text>
<text font-size="162.22142113076254" text-anchor="middle" x="6889.5" y="6430.277497395767">
57
</text>
<text font-size="162.22142113076254" text-anchor="middle" x="7075.5" y="7434.777497395767">
58
</text>
<text font-size="162.22142113076254" text-anchor="middle" x="3210" y="7338.777497395767">
59
</text>
<text font-size="162.22142113076254" text-anchor="middle" x="9018" y="5633.777497395767">
60
</text>
<text font-size="162.22142113076254" text-anchor="middle" x="7468" y="9799.777497395768">
61
</text>
<text font-size="162.22142113076254" text-anchor="middle" x="5108.5" y="7077.777497395767">
62
</text>
<text font-size="162.22142113076254" text-anchor="middle" x="6621.5" y="6573.777497395767">
63
</text>
<text font-size="162.22142113076254" text-anchor="middle" x="7815" y="8274.777497395768">
64
</text>
<text font-size="162.22142113076254" text-anchor="middle" x="2632" y="5766.777497395767">
65
</text>
<text font-size="162.22142113076254" text-anchor="middle" x="9193.5" y="8438.277497395768">
66
</text>
<text font-size="162.22142113076254" text-anchor="middle" x="4731.5" y="4606.277497395767">
67
</text>
<text font-size="162.22142113076254" text-anchor="middle" x="7024" y="8179.277497395767">
68
</text>
<text font-size="162.22142113076254" text-anchor="middle" x="5897.5" y="8753.277497395768">
69
</text>
<text font-size="162.22142113076254" text-anchor="middle" x="3020.5" y="2222.7774973957667">
70
</text>
<text font-size="162.22142113076254" text-anchor="middle" x="2220" y="1853.7774973957669">
71
</text>
<text font-size="162.22142113076254" text-anchor="middle" x="3645.5" y="8209.277497395768">
72
</text>
<text font-size="162.22142113076254" text-anchor="middle" x="8203" y="58.277497395766886">
73
</text>
<text font-size="162.22142113076254" text-anchor="middle" x="5659" y="2247.2774973957667">
74
</text>
<text font-size="162.22142113076254" text-anchor="middle" x="552" y="2109.2774973957667">
75
</text>
</svg>