<svg viewBox="-100 -100 10200 10200" xmlns="http://www.w3.org/2000/svg">
<path d="M0,0 l10000,0 l0,10000 l-10000,0 z" fill="white"/>
<path d="M3497,170 l1413,0 l0,1519 l-1413,0 z" fill="#fe00ff" stroke="black" stroke-width="5"/>
<path d="M1091,8226 l4217,0 l0,688 l-4217,0 z" fill="#fe00ff" stroke="black" stroke-width="5"/>
<path d="M1302,3940 l627,0 l0,627 l-627,0 z" fill="#fe00ff" stroke="black" stroke-width="5"/>
<path d="M7533,4157 l489,0 l0,733 l-489,0 z" fill="#fe00ff" stroke="black" stroke-width="5"/>
<path d="M8559,5258 l520,0 l0,764 l-520,0 z" fill="#fe00ff" stroke="black" stroke-width="5"/>
<path d="M4910,170 l255,0 l0,1519 l-255,0 z" fill="#0000ff" stroke="black" stroke-width="5"/>
<path d="M2458,0 l6620,0 l0,170 l-6620,0 z" fill="#fe00ff" stroke="black" stroke-width="5"/>
<path d="M0,2005 l565,0 l0,635 l-565,0 z" fill="#fe00ff" stroke="black" stroke-width="5"/>
<path d="M8373,7926 l642,0 l0,322 l-642,0 z" fill="#fe00ff" stroke="black" stroke-width="5"/>
<path d="M2089,1566 l863,0 l0,1036 l-863,0 z" fill="#fe00ff" stroke="black" stroke-width="5"/>
<path d="M9637,3522 l363,0 l0,4726 l-363,0 z" fill="#6000ff" stroke="black" stroke-width="5"/>
<path d="M9053,1966 l947,0 l0,1556 l-947,0 z" fill="#fe00ff" stroke="black" stroke-width="5"/>
<path d="M9079,5258 l558,0 l0,2301 l-558,0 z" fill="#4000ff" stroke="black" stroke-width="5"/>
<path d="M2664,4567 l304,0 l0,303 l-304,0 z" fill="#fe00ff" stroke="black" stroke-width="5"/>
<path d="M8022,3522 l1615,0 l0,1736 l-1615,0 z" fill="#3e00ff" stroke="black" stroke-width="5"/>
<path d="M8022,6655 l484,0 l0,904 l-484,0 z" fill="#fe00ff" stroke="black" stroke-width="5"/>
<path d="M4641,9150 l521,0 l0,520 l-521,0 z" fill="#fe00ff" stroke="black" stroke-width="5"/>
<path d="M1302,4727 l358,0 l0,3499 l-358,0 z" fill="#fe00ff" stroke="black" stroke-width="5"/>
<path d="M4653,1690 l442,0 l0,3976 l-442,0 z" fill="#fe00ff" stroke="black" stroke-width="5"/>
<path d="M0,4027 l1302,0 l0,2703 l-1302,0 z" fill="#fe00ff" stroke="black" stroke-width="5"/>
<path d="M232,6730 l1070,0 l0,1496 l-1070,0 z" fill="#7c00ff" stroke="black" stroke-width="5"/>
<path d="M5095,1690 l1372,0 l0,1924 l-1372,0 z" fill="#fe00ff" stroke="black" stroke-width="5"/>
<path d="M3426,2594 l1227,0 l0,1003 l-1227,0 z" fill="#fe00ff" stroke="black" stroke-width="5"/>
<path d="M8081,7559 l1556,0 l0,367 l-1556,0 z" fill="#0f00ff" stroke="black" stroke-width="5"/>
<path d="M7523,7559 l558,0 l0,2441 l-558,0 z" fill="#5a00ff" stroke="black" stroke-width="5"/>
<path d="M7136,1879 l1424,0 l0,712 l-1424,0 z" fill="#fe00ff" stroke="black" stroke-width="5"/>
<path d="M0,6730 l232,0 l0,3270 l-232,0 z" fill="#6100ff" stroke="black" stroke-width="5"/>
<path d="M3701,9454 l391,0 l0,390 l-391,0 z" fill="#fe00ff" stroke="black" stroke-width="5"/>
<path d="M1660,5565 l483,0 l0,523 l-483,0 z" fill="#fe00ff" stroke="black" stroke-width="5"/>
<path d="M2042,1513 l47,0 l0,1089 l-47,0 z" fill="#0000ff" stroke="black" stroke-width="5"/>
<path d="M565,1513 l1477,0 l0,1089 l-1477,0 z" fill="#a200ff" stroke="black" stroke-width="5"/>
<path d="M3264,9090 l421,0 l0,420 l-421,0 z" fill="#fe00ff" stroke="black" stroke-width="5"/>
<path d="M1975,2602 l660,0 l0,435 l-660,0 z" fill="#fe00ff" stroke="black" stroke-width="5"/>
<path d="M5609,4943 l2413,0 l0,2616 l-2413,0 z" fill="#fe00ff" stroke="black" stroke-width="5"/>
<path d="M1660,6088 l1256,0 l0,1860 l-1256,0 z" fill="#fe00ff" stroke="black" stroke-width="5"/>
<path d="M2952,1726 l474,0 l0,1384 l-474,0 z" fill="#fe00ff" stroke="black" stroke-width="5"/>
<path d="M305,0 l2153,0 l0,1513 l-2153,0 z" fill="#fe00ff" stroke="black" stroke-width="5"/>
<path d="M1182,8914 l800,0 l0,799 l-800,0 z" fill="#fe00ff" stroke="black" stroke-width="5"/>
<path d="M5165,1008 l423,0 l0,422 l-423,0 z" fill="#fe00ff" stroke="black" stroke-width="5"/>
<path d="M4106,2306 l547,0 l0,288 l-547,0 z" fill="#fe00ff" stroke="black" stroke-width="5"/>
<path d="M8081,8248 l1919,0 l0,1752 l-1919,0 z" fill="#fe00ff" stroke="black" stroke-width="5"/>
<path d="M2223,3110 l1131,0 l0,1062 l-1131,0 z" fill="#fe00ff" stroke="black" stroke-width="5"/>
<path d="M4653,1689 l2881,0 l0,1 l-2881,0 z" fill="#0000ff" stroke="black" stroke-width="5"/>
<path d="M6423,7730 l1100,0 l0,2200 l-1100,0 z" fill="#fe00ff" stroke="black" stroke-width="5"/>
<path d="M3426,1689 l421,0 l0,905 l-421,0 z" fill="#1800ff" stroke="black" stroke-width="5"/>
<path d="M232,8372 l859,0 l0,859 l-859,0 z" fill="#fe00ff" stroke="black" stroke-width="5"/>
<path d="M3847,1689 l806,0 l0,611 l-806,0 z" fill="#fe00ff" stroke="black" stroke-width="5"/>
<path d="M1036,3085 l1187,0 l0,855 l-1187,0 z" fill="#fe00ff" stroke="black" stroke-width="5"/>
<path d="M7534,494 l1654,0 l0,1385 l-1654,0 z" fill="#fe00ff" stroke="black" stroke-width="5"/>
<path d="M3847,2300 l806,0 l0,6 l-806,0 z" fill="#0000ff" stroke="black" stroke-width="5"/>
<path d="M6467,2195 l328,0 l0,328 l-328,0 z" fill="#fe00ff" stroke="black" stroke-width="5"/>
<path d="M4634,975 l60,0 l0,60 l-60,0 z" fill="green"/>
<path d="M4664,1005 l-460.5,-75.5" stroke="black" stroke-width="5"/>
<path d="M1403,8196 l60,0 l0,60 l-60,0 z" fill="green"/>
<path d="M1433,8226 l1766.5,344" stroke="black" stroke-width="5"/>
<path d="M1585,4223 l60,0 l0,60 l-60,0 z" fill="green"/>
<path d="M1615,4253 l0.5,0.5" stroke="black" stroke-width="5"/>
<path d="M7870,4493 l60,0 l0,60 l-60,0 z" fill="green"/>
<path d="M7900,4523 l-122.5,0.5" stroke="black" stroke-width="5"/>
<path d="M8911,5610 l60,0 l0,60 l-60,0 z" fill="green"/>
<path d="M8941,5640 l-122,0" stroke="black" stroke-width="5"/>
<path d="M4880,1073 l60,0 l0,60 l-60,0 z" fill="green"/>
<path d="M4910,1103 l127.5,-173.5" stroke="black" stroke-width="5"/>
<path d="M3841,139 l60,0 l0,60 l-60,0 z" fill="green"/>
<path d="M3871,169 l1897,-84" stroke="black" stroke-width="5"/>
<path d="M217,2292 l60,0 l0,60 l-60,0 z" fill="green"/>
<path d="M247,2322 l35.5,0.5" stroke="black" stroke-width="5"/>
<path d="M8664,8217 l60,0 l0,60 l-60,0 z" fill="green"/>
<path d="M8694,8247 l0,-160" stroke="black" stroke-width="5"/>
<path d="M2576,2054 l60,0 l0,60 l-60,0 z" fill="green"/>
<path d="M2606,2084 l-85.5,0" stroke="black" stroke-width="5"/>
<path d="M9607,3591 l60,0 l0,60 l-60,0 z" fill="green"/>
<path d="M9637,3621 l181.5,2264" stroke="black" stroke-width="5"/>
<path d="M9801,2714 l60,0 l0,60 l-60,0 z" fill="green"/>
<path d="M9831,2744 l-304.5,0" stroke="black" stroke-width="5"/>
<path d="M9049,5697 l60,0 l0,60 l-60,0 z" fill="green"/>
<path d="M9079,5727 l279,681.5" stroke="black" stroke-width="5"/>
<path d="M2786,4688 l60,0 l0,60 l-60,0 z" fill="green"/>
<path d="M2816,4718 l0,0.5" stroke="black" stroke-width="5"/>
<path d="M8900,4076 l60,0 l0,60 l-60,0 z" fill="green"/>
<path d="M8930,4106 l-100.5,284" stroke="black" stroke-width="5"/>
<path d="M7992,7108 l60,0 l0,60 l-60,0 z" fill="green"/>
<path d="M8022,7138 l242,-31" stroke="black" stroke-width="5"/>
<path d="M4871,9380 l60,0 l0,60 l-60,0 z" fill="green"/>
<path d="M4901,9410 l0.5,0" stroke="black" stroke-width="5"/>
<path d="M1340,6614 l60,0 l0,60 l-60,0 z" fill="green"/>
<path d="M1370,6644 l111,-167.5" stroke="black" stroke-width="5"/>
<path d="M4623,2096 l60,0 l0,60 l-60,0 z" fill="green"/>
<path d="M4653,2126 l221,1552" stroke="black" stroke-width="5"/>
<path d="M371,5348 l60,0 l0,60 l-60,0 z" fill="green"/>
<path d="M401,5378 l250,0.5" stroke="black" stroke-width="5"/>
<path d="M1237,8084 l60,0 l0,60 l-60,0 z" fill="green"/>
<path d="M1267,8114 l-500,-636" stroke="black" stroke-width="5"/>
<path d="M5065,1891 l60,0 l0,60 l-60,0 z" fill="green"/>
<path d="M5095,1921 l686,731" stroke="black" stroke-width="5"/>
<path d="M4217,2743 l60,0 l0,60 l-60,0 z" fill="green"/>
<path d="M4247,2773 l-207.5,322.5" stroke="black" stroke-width="5"/>
<path d="M8108,7601 l60,0 l0,60 l-60,0 z" fill="green"/>
<path d="M8138,7631 l721,111.5" stroke="black" stroke-width="5"/>
<path d="M7964,8620 l60,0 l0,60 l-60,0 z" fill="green"/>
<path d="M7994,8650 l-192,129.5" stroke="black" stroke-width="5"/>
<path d="M7818,1849 l60,0 l0,60 l-60,0 z" fill="green"/>
<path d="M7848,1879 l0,356" stroke="black" stroke-width="5"/>
<path d="M-22,8466 l60,0 l0,60 l-60,0 z" fill="green"/>
<path d="M8,8496 l108,-131" stroke="black" stroke-width="5"/>
<path d="M3866,9619 l60,0 l0,60 l-60,0 z" fill="green"/>
<path d="M3896,9649 l0.5,0" stroke="black" stroke-width="5"/>
<path d="M1851,5796 l60,0 l0,60 l-60,0 z" fill="green"/>
<path d="M1881,5826 l20.5,0.5" stroke="black" stroke-width="5"/>
<path d="M2012,1736 l60,0 l0,60 l-60,0 z" fill="green"/>
<path d="M2042,1766 l23.5,291.5" stroke="black" stroke-width="5"/>
<path d="M1200,1526 l60,0 l0,60 l-60,0 z" fill="green"/>
<path d="M1230,1556 l73.5,501.5" stroke="black" stroke-width="5"/>
<path d="M3444,9270 l60,0 l0,60 l-60,0 z" fill="green"/>
<path d="M3474,9300 l0.5,0" stroke="black" stroke-width="5"/>
<path d="M2275,2677 l60,0 l0,60 l-60,0 z" fill="green"/>
<path d="M2305,2707 l0,112.5" stroke="black" stroke-width="5"/>
<path d="M6887,6221 l60,0 l0,60 l-60,0 z" fill="green"/>
<path d="M6917,6251 l-101.5,0" stroke="black" stroke-width="5"/>
<path d="M1630,6663 l60,0 l0,60 l-60,0 z" fill="green"/>
<path d="M1660,6693 l628,325" stroke="black" stroke-width="5"/>
<path d="M2922,2388 l60,0 l0,60 l-60,0 z" fill="green"/>
<path d="M2952,2418 l237,0" stroke="black" stroke-width="5"/>
<path d="M1351,407 l60,0 l0,60 l-60,0 z" fill="green"/>
<path d="M1381,437 l0.5,319.5" stroke="black" stroke-width="5"/>
<path d="M1552,9283 l60,0 l0,60 l-60,0 z" fill="green"/>
<path d="M1582,9313 l0,0.5" stroke="black" stroke-width="5"/>
<path d="M5346,1189 l60,0 l0,60 l-60,0 z" fill="green"/>
<path d="M5376,1219 l0.5,0" stroke="black" stroke-width="5"/>
<path d="M4364,2563 l60,0 l0,60 l-60,0 z" fill="green"/>
<path d="M4394,2593 l-14.5,-143" stroke="black" stroke-width="5"/>
<path d="M9328,8978 l60,0 l0,60 l-60,0 z" fill="green"/>
<path d="M9358,9008 l-317.5,116" stroke="black" stroke-width="5"/>
<path d="M2758,3576 l60,0 l0,60 l-60,0 z" fill="green"/>
<path d="M2788,3606 l0.5,35" stroke="black" stroke-width="5"/>
<path d="M4762,1659 l60,0 l0,60 l-60,0 z" fill="green"/>
<path d="M4792,1689 l1301.5,0.5" stroke="black" stroke-width="5"/>
<path d="M7492,8800 l60,0 l0,60 l-60,0 z" fill="green"/>
<path d="M7522,8830 l-549,0" stroke="black" stroke-width="5"/>
<path d="M3396,2561 l60,0 l0,60 l-60,0 z" fill="green"/>
<path d="M3426,2591 l210.5,-449.5" stroke="black" stroke-width="5"/>
<path d="M631,8771 l60,0 l0,60 l-60,0 z" fill="green"/>
<path d="M661,8801 l0.5,0.5" stroke="black" stroke-width="5"/>
<path d="M4460,2070 l60,0 l0,60 l-60,0 z" fill="green"/>
<path d="M4490,2100 l-240,-105.5" stroke="black" stroke-width="5"/>
<path d="M1709,3757 l60,0 l0,60 l-60,0 z" fill="green"/>
<path d="M1739,3787 l-109.5,-274.5" stroke="black" stroke-width="5"/>
<path d="M8331,1291 l60,0 l0,60 l-60,0 z" fill="green"/>
<path d="M8361,1321 l0,-134.5" stroke="black" stroke-width="5"/>
<path d="M4270,2270 l60,0 l0,60 l-60,0 z" fill="green"/>
<path d="M4300,2300 l-50,3" stroke="black" stroke-width="5"/>
<path d="M6601,2329 l60,0 l0,60 l-60,0 z" fill="green"/>
<path d="M6631,2359 l0,0" stroke="black" stroke-width="5"/>
<text font-size="198.02950859533485" text-anchor="middle" x="4203.5" y="998.8103280083672">
0
</text>
<text font-size="198.02950859533485" text-anchor="middle" x="3199.5" y="8639.310328008367">
1
</text>
<text font-size="198.02950859533485" text-anchor="middle" x="1615.5" y="4322.810328008367">
2
</text>
<text font-size="198.02950859533485" text-anchor="middle" x="7777.5" y="4592.810328008367">
3
</text>
<text font-size="198.02950859533485" text-anchor="middle" x="8819" y="5709.310328008367">
4
</text>
<text font-size="198.02950859533485" text-anchor="middle" x="5037.5" y="998.8103280083672">
5
</text>
<text font-size="198.02950859533485" text-anchor="middle" x="5768" y="154.3103280083672">
6
</text>
<text font-size="198.02950859533485" text-anchor="middle" x="282.5" y="2391.8103280083674">
7
</text>
<text font-size="198.02950859533485" text-anchor="middle" x="8694" y="8156.310328008367">
8
</text>
<text font-size="198.02950859533485" text-anchor="middle" x="2520.5" y="2153.3103280083674">
9
</text>
<text font-size="198.02950859533485" text-anchor="middle" x="9818.5" y="5954.310328008367">
10
</text>
<text font-size="198.02950859533485" text-anchor="middle" x="9526.5" y="2813.3103280083674">
11
</text>
<text font-size="198.02950859533485" text-anchor="middle" x="9358" y="6477.810328008367">
12
</text>
<text font-size="198.02950859533485" text-anchor="middle" x="2816" y="4787.810328008367">
13
</text>
<text font-size="198.02950859533485" text-anchor="middle" x="8829.5" y="4459.310328008367">
14
</text>
<text font-size="198.02950859533485" text-anchor="middle" x="8264" y="7176.310328008367">
15
</text>
<text font-size="198.02950859533485" text-anchor="middle" x="4901.5" y="9479.310328008367">
16
</text>
<text font-size="198.02950859533485" text-anchor="middle" x="1481" y="6545.810328008367">
17
</text>
<text font-size="198.02950859533485" text-anchor="middle" x="4874" y="3747.3103280083674">
18
</text>
<text font-size="198.02950859533485" text-anchor="middle" x="651" y="5447.810328008367">
19
</text>
<text font-size="198.02950859533485" text-anchor="middle" x="767" y="7547.310328008367">
20
</text>
<text font-size="198.02950859533485" text-anchor="middle" x="5781" y="2721.3103280083674">
21
</text>
<text font-size="198.02950859533485" text-anchor="middle" x="4039.5" y="3164.8103280083674">
22
</text>
<text font-size="198.02950859533485" text-anchor="middle" x="8859" y="7811.810328008367">
23
</text>
<text font-size="198.02950859533485" text-anchor="middle" x="7802" y="8848.810328008367">
24
</text>
<text font-size="198.02950859533485" text-anchor="middle" x="7848" y="2304.3103280083674">
25
</text>
<text font-size="198.02950859533485" text-anchor="middle" x="116" y="8434.310328008367">
26
</text>
<text font-size="198.02950859533485" text-anchor="middle" x="3896.5" y="9718.310328008367">
27
</text>
<text font-size="198.02950859533485" text-anchor="middle" x="1901.5" y="5895.810328008367">
28
</text>
<text font-size="198.02950859533485" text-anchor="middle" x="2065.5" y="2126.8103280083674">
29
</text>
<text font-size="198.02950859533485" text-anchor="middle" x="1303.5" y="2126.8103280083674">
30
</text>
<text font-size="198.02950859533485" text-anchor="middle" x="3474.5" y="9369.310328008367">
31
</text>
<text font-size="198.02950859533485" text-anchor="middle" x="2305" y="2888.8103280083674">
32
</text>
<text font-size="198.02950859533485" text-anchor="middle" x="6815.5" y="6320.310328008367">
33
</text>
<text font-size="198.02950859533485" text-anchor="middle" x="2288" y="7087.310328008367">
34
</text>
<text font-size="198.02950859533485" text-anchor="middle" x="3189" y="2487.3103280083674">
35
</text>
<text font-size="198.02950859533485" text-anchor="middle" x="1381.5" y="825.8103280083672">
36
</text>
<text font-size="198.02950859533485" text-anchor="middle" x="1582" y="9382.810328008367">
37
</text>
<text font-size="198.02950859533485" text-anchor="middle" x="5376.5" y="1288.3103280083672">
38
</text>
<text font-size="198.02950859533485" text-anchor="middle" x="4379.5" y="2519.3103280083674">
39
</text>
<text font-size="198.02950859533485" text-anchor="middle" x="9040.5" y="9193.310328008367">
40
</text>
<text font-size="198.02950859533485" text-anchor="middle" x="2788.5" y="3710.3103280083674">
41
</text>
<text font-size="198.02950859533485" text-anchor="middle" x="6093.5" y="1758.8103280083672">
42
</text>
<text font-size="198.02950859533485" text-anchor="middle" x="6973" y="8899.310328008367">
43
</text>
<text font-size="198.02950859533485" text-anchor="middle" x="3636.5" y="2210.8103280083674">
44
</text>
<text font-size="198.02950859533485" text-anchor="middle" x="661.5" y="8870.810328008367">
45
</text>
<text font-size="198.02950859533485" text-anchor="middle" x="4250" y="2063.8103280083674">
46
</text>
<text font-size="198.02950859533485" text-anchor="middle" x="1629.5" y="3581.8103280083674">
47
</text>
<text font-size="198.02950859533485" text-anchor="middle" x="8361" y="1255.8103280083672">
48
</text>
<text font-size="198.02950859533485" text-anchor="middle" x="4250" y="2372.3103280083674">
49
</text>
<text font-size="198.02950859533485" text-anchor="middle" x="6631" y="2428.3103280083674">
50
</text>
</svg>