<svg viewBox="-100 -100 10200 10200" xmlns="http://www.w3.org/2000/svg">
<path d="M0,0 l10000,0 l0,10000 l-10000,0 z" fill="white"/>
<path d="M1552,2722 l1616,0 l0,886 l-1616,0 z" fill="#fe00ff" stroke="black" stroke-width="5"/>
<path d="M8545,7034 l509,0 l0,509 l-509,0 z" fill="#fe00ff" stroke="black" stroke-width="5"/>
<path d="M3955,4694 l1905,0 l0,988 l-1905,0 z" fill="#fe00ff" stroke="black" stroke-width="5"/>
<path d="M3168,1328 l2239,0 l0,2179 l-2239,0 z" fill="#fe00ff" stroke="black" stroke-width="5"/>
<path d="M7057,461 l2486,0 l0,614 l-2486,0 z" fill="#fe00ff" stroke="black" stroke-width="5"/>
<path d="M29,8188 l389,0 l0,388 l-389,0 z" fill="#fe00ff" stroke="black" stroke-width="5"/>
<path d="M4719,6559 l319,0 l0,1077 l-319,0 z" fill="#7200ff" stroke="black" stroke-width="5"/>
<path d="M7380,2654 l1647,0 l0,2054 l-1647,0 z" fill="#fe00ff" stroke="black" stroke-width="5"/>
<path d="M9027,4583 l973,0 l0,1502 l-973,0 z" fill="#5800ff" stroke="black" stroke-width="5"/>
<path d="M5407,1328 l826,0 l0,1427 l-826,0 z" fill="#fe00ff" stroke="black" stroke-width="5"/>
<path d="M1809,7232 l1516,0 l0,759 l-1516,0 z" fill="#fe00ff" stroke="black" stroke-width="5"/>
<path d="M7035,6377 l1510,0 l0,2447 l-1510,0 z" fill="#fe00ff" stroke="black" stroke-width="5"/>
<path d="M7034,7344 l1,0 l0,647 l-1,0 z" fill="#0000ff" stroke="black" stroke-width="5"/>
<path d="M8516,5856 l435,0 l0,229 l-435,0 z" fill="#fe00ff" stroke="black" stroke-width="5"/>
<path d="M0,6734 l311,0 l0,569 l-311,0 z" fill="#fe00ff" stroke="black" stroke-width="5"/>
<path d="M359,5452 l2144,0 l0,1121 l-2144,0 z" fill="#fe00ff" stroke="black" stroke-width="5"/>
<path d="M4799,5682 l877,0 l0,877 l-877,0 z" fill="#fe00ff" stroke="black" stroke-width="5"/>
<path d="M2503,4590 l1216,0 l0,1216 l-1216,0 z" fill="#fe00ff" stroke="black" stroke-width="5"/>
<path d="M4629,4389 l306,0 l0,305 l-306,0 z" fill="#fe00ff" stroke="black" stroke-width="5"/>
<path d="M7320,5856 l1196,0 l0,521 l-1196,0 z" fill="#fe00ff" stroke="black" stroke-width="5"/>
<path d="M1488,7991 l1205,0 l0,2009 l-1205,0 z" fill="#d100ff" stroke="black" stroke-width="5"/>
<path d="M8162,8824 l892,0 l0,853 l-892,0 z" fill="#fe00ff" stroke="black" stroke-width="5"/>
<path d="M890,959 l1643,0 l0,1763 l-1643,0 z" fill="#fe00ff" stroke="black" stroke-width="5"/>
<path d="M6232,4170 l803,0 l0,947 l-803,0 z" fill="#fe00ff" stroke="black" stroke-width="5"/>
<path d="M3679,7991 l3356,0 l0,2009 l-3356,0 z" fill="#c000ff" stroke="black" stroke-width="5"/>
<path d="M4472,3507 l886,0 l0,882 l-886,0 z" fill="#fe00ff" stroke="black" stroke-width="5"/>
<path d="M6002,7344 l1032,0 l0,647 l-1032,0 z" fill="#2300ff" stroke="black" stroke-width="5"/>
<path d="M6003,5479 l1032,0 l0,1865 l-1032,0 z" fill="#fe00ff" stroke="black" stroke-width="5"/>
<path d="M7057,1075 l2943,0 l0,253 l-2943,0 z" fill="#e000ff" stroke="black" stroke-width="5"/>
<path d="M6002,2755 l1,0 l0,4589 l-1,0 z" fill="#0000ff" stroke="black" stroke-width="5"/>
<path d="M3678,7991 l1,0 l0,2009 l-1,0 z" fill="#0000ff" stroke="black" stroke-width="5"/>
<path d="M7035,1997 l345,0 l0,3859 l-345,0 z" fill="#c200ff" stroke="black" stroke-width="5"/>
<path d="M1022,5051 l799,0 l0,401 l-799,0 z" fill="#9b00ff" stroke="black" stroke-width="5"/>
<path d="M8865,0 l849,0 l0,461 l-849,0 z" fill="#fe00ff" stroke="black" stroke-width="5"/>
<path d="M436,3918 l1385,0 l0,1133 l-1385,0 z" fill="#fe00ff" stroke="black" stroke-width="5"/>
<path d="M9054,7034 l642,0 l0,2966 l-642,0 z" fill="#5400ff" stroke="black" stroke-width="5"/>
<path d="M2533,2495 l39,0 l0,76 l-39,0 z" fill="#fe00ff" stroke="black" stroke-width="5"/>
<path d="M1734,6573 l1065,0 l0,659 l-1065,0 z" fill="#fe00ff" stroke="black" stroke-width="5"/>
<path d="M7551,0 l981,0 l0,461 l-981,0 z" fill="#fe00ff" stroke="black" stroke-width="5"/>
<path d="M742,6573 l992,0 l0,1339 l-992,0 z" fill="#fe00ff" stroke="black" stroke-width="5"/>
<path d="M8681,6085 l1090,0 l0,949 l-1090,0 z" fill="#fe00ff" stroke="black" stroke-width="5"/>
<path d="M3325,6744 l1240,0 l0,1247 l-1240,0 z" fill="#fe00ff" stroke="black" stroke-width="5"/>
<path d="M621,5051 l401,0 l0,401 l-401,0 z" fill="#fe00ff" stroke="black" stroke-width="5"/>
<path d="M2693,7991 l985,0 l0,2009 l-985,0 z" fill="#ea00ff" stroke="black" stroke-width="5"/>
<path d="M3283,0 l3774,0 l0,1328 l-3774,0 z" fill="#fe00ff" stroke="black" stroke-width="5"/>
<path d="M7380,5254 l349,0 l0,349 l-349,0 z" fill="#fe00ff" stroke="black" stroke-width="5"/>
<path d="M734,9143 l754,0 l0,857 l-754,0 z" fill="#fe00ff" stroke="black" stroke-width="5"/>
<path d="M9062,2737 l938,0 l0,1846 l-938,0 z" fill="#fe00ff" stroke="black" stroke-width="5"/>
<path d="M4565,5682 l154,0 l0,1954 l-154,0 z" fill="#3f00ff" stroke="black" stroke-width="5"/>
<path d="M4598,7636 l338,0 l0,337 l-338,0 z" fill="#fe00ff" stroke="black" stroke-width="5"/>
<path d="M9696,7034 l304,0 l0,1556 l-304,0 z" fill="#fe00ff" stroke="black" stroke-width="5"/>
<path d="M7729,4708 l1298,0 l0,1148 l-1298,0 z" fill="#5500ff" stroke="black" stroke-width="5"/>
<path d="M6233,1328 l2113,0 l0,669 l-2113,0 z" fill="#fe00ff" stroke="black" stroke-width="5"/>
<path d="M5038,6559 l964,0 l0,1432 l-964,0 z" fill="#fd00ff" stroke="black" stroke-width="5"/>
<path d="M1821,3608 l682,0 l0,1844 l-682,0 z" fill="#5a00ff" stroke="black" stroke-width="5"/>
<path d="M3489,3507 l983,0 l0,954 l-983,0 z" fill="#fe00ff" stroke="black" stroke-width="5"/>
<path d="M2409,2692 l60,0 l0,60 l-60,0 z" fill="green"/>
<path d="M2439,2722 l-79,443" stroke="black" stroke-width="5"/>
<path d="M8769,7258 l60,0 l0,60 l-60,0 z" fill="green"/>
<path d="M8799,7288 l0.5,0.5" stroke="black" stroke-width="5"/>
<path d="M4877,4831 l60,0 l0,60 l-60,0 z" fill="green"/>
<path d="M4907,4861 l0.5,327" stroke="black" stroke-width="5"/>
<path d="M4257,2417 l60,0 l0,60 l-60,0 z" fill="green"/>
<path d="M4287,2447 l0.5,-29.5" stroke="black" stroke-width="5"/>
<path d="M8101,642 l60,0 l0,60 l-60,0 z" fill="green"/>
<path d="M8131,672 l169,96" stroke="black" stroke-width="5"/>
<path d="M193,8352 l60,0 l0,60 l-60,0 z" fill="green"/>
<path d="M223,8382 l0.5,0" stroke="black" stroke-width="5"/>
<path d="M5007,6707 l60,0 l0,60 l-60,0 z" fill="green"/>
<path d="M5037,6737 l-158.5,360.5" stroke="black" stroke-width="5"/>
<path d="M7969,3651 l60,0 l0,60 l-60,0 z" fill="green"/>
<path d="M7999,3681 l204.5,0" stroke="black" stroke-width="5"/>
<path d="M9586,5254 l60,0 l0,60 l-60,0 z" fill="green"/>
<path d="M9616,5284 l-102.5,50" stroke="black" stroke-width="5"/>
<path d="M5398,1920 l60,0 l0,60 l-60,0 z" fill="green"/>
<path d="M5428,1950 l392,91.5" stroke="black" stroke-width="5"/>
<path d="M2537,7960 l60,0 l0,60 l-60,0 z" fill="green"/>
<path d="M2567,7990 l0,-378.5" stroke="black" stroke-width="5"/>
<path d="M8310,6900 l60,0 l0,60 l-60,0 z" fill="green"/>
<path d="M8340,6930 l-550,670.5" stroke="black" stroke-width="5"/>
<path d="M7004,7511 l60,0 l0,60 l-60,0 z" fill="green"/>
<path d="M7034,7541 l0.5,126.5" stroke="black" stroke-width="5"/>
<path d="M8612,5960 l60,0 l0,60 l-60,0 z" fill="green"/>
<path d="M8642,5990 l91.5,-19.5" stroke="black" stroke-width="5"/>
<path d="M-3,6988 l60,0 l0,60 l-60,0 z" fill="green"/>
<path d="M27,7018 l128.5,0.5" stroke="black" stroke-width="5"/>
<path d="M1690,6164 l60,0 l0,60 l-60,0 z" fill="green"/>
<path d="M1720,6194 l-289,-181.5" stroke="black" stroke-width="5"/>
<path d="M5207,6090 l60,0 l0,60 l-60,0 z" fill="green"/>
<path d="M5237,6120 l0.5,0.5" stroke="black" stroke-width="5"/>
<path d="M3081,5168 l60,0 l0,60 l-60,0 z" fill="green"/>
<path d="M3111,5198 l0,0" stroke="black" stroke-width="5"/>
<path d="M4752,4511 l60,0 l0,60 l-60,0 z" fill="green"/>
<path d="M4782,4541 l0,0.5" stroke="black" stroke-width="5"/>
<path d="M7888,6346 l60,0 l0,60 l-60,0 z" fill="green"/>
<path d="M7918,6376 l0,-259.5" stroke="black" stroke-width="5"/>
<path d="M2182,9963 l60,0 l0,60 l-60,0 z" fill="green"/>
<path d="M2212,9993 l-121.5,-997.5" stroke="black" stroke-width="5"/>
<path d="M8633,9145 l60,0 l0,60 l-60,0 z" fill="green"/>
<path d="M8663,9175 l-55,75.5" stroke="black" stroke-width="5"/>
<path d="M2376,2444 l60,0 l0,60 l-60,0 z" fill="green"/>
<path d="M2406,2474 l-694.5,-633.5" stroke="black" stroke-width="5"/>
<path d="M6675,4613 l60,0 l0,60 l-60,0 z" fill="green"/>
<path d="M6705,4643 l-71.5,0.5" stroke="black" stroke-width="5"/>
<path d="M5443,8931 l60,0 l0,60 l-60,0 z" fill="green"/>
<path d="M5473,8961 l-116,34.5" stroke="black" stroke-width="5"/>
<path d="M4442,3477 l60,0 l0,60 l-60,0 z" fill="green"/>
<path d="M4472,3507 l443,441" stroke="black" stroke-width="5"/>
<path d="M6218,7314 l60,0 l0,60 l-60,0 z" fill="green"/>
<path d="M6248,7344 l270,323.5" stroke="black" stroke-width="5"/>
<path d="M6416,6793 l60,0 l0,60 l-60,0 z" fill="green"/>
<path d="M6446,6823 l73,-411.5" stroke="black" stroke-width="5"/>
<path d="M8201,1045 l60,0 l0,60 l-60,0 z" fill="green"/>
<path d="M8231,1075 l297.5,126.5" stroke="black" stroke-width="5"/>
<path d="M5972,6925 l60,0 l0,60 l-60,0 z" fill="green"/>
<path d="M6002,6955 l0.5,-1905.5" stroke="black" stroke-width="5"/>
<path d="M3648,9829 l60,0 l0,60 l-60,0 z" fill="green"/>
<path d="M3678,9859 l0.5,-863.5" stroke="black" stroke-width="5"/>
<path d="M7342,5577 l60,0 l0,60 l-60,0 z" fill="green"/>
<path d="M7372,5607 l-164.5,-1680.5" stroke="black" stroke-width="5"/>
<path d="M1337,5209 l60,0 l0,60 l-60,0 z" fill="green"/>
<path d="M1367,5239 l54.5,12.5" stroke="black" stroke-width="5"/>
<path d="M9259,109 l60,0 l0,60 l-60,0 z" fill="green"/>
<path d="M9289,139 l0.5,91.5" stroke="black" stroke-width="5"/>
<path d="M1189,4670 l60,0 l0,60 l-60,0 z" fill="green"/>
<path d="M1219,4700 l-90.5,-215.5" stroke="black" stroke-width="5"/>
<path d="M9176,7255 l60,0 l0,60 l-60,0 z" fill="green"/>
<path d="M9206,7285 l169,1232" stroke="black" stroke-width="5"/>
<path d="M2503,2503 l60,0 l0,60 l-60,0 z" fill="green"/>
<path d="M2533,2533 l19.5,0" stroke="black" stroke-width="5"/>
<path d="M2136,7174 l60,0 l0,60 l-60,0 z" fill="green"/>
<path d="M2166,7204 l100.5,-301.5" stroke="black" stroke-width="5"/>
<path d="M8011,430 l60,0 l0,60 l-60,0 z" fill="green"/>
<path d="M8041,460 l0.5,-229.5" stroke="black" stroke-width="5"/>
<path d="M1703,6891 l60,0 l0,60 l-60,0 z" fill="green"/>
<path d="M1733,6921 l-495,321.5" stroke="black" stroke-width="5"/>
<path d="M9196,6599 l60,0 l0,60 l-60,0 z" fill="green"/>
<path d="M9226,6629 l0,-69.5" stroke="black" stroke-width="5"/>
<path d="M3414,7835 l60,0 l0,60 l-60,0 z" fill="green"/>
<path d="M3444,7865 l501,-497.5" stroke="black" stroke-width="5"/>
<path d="M791,5221 l60,0 l0,60 l-60,0 z" fill="green"/>
<path d="M821,5251 l0.5,0.5" stroke="black" stroke-width="5"/>
<path d="M2663,9894 l60,0 l0,60 l-60,0 z" fill="green"/>
<path d="M2693,9924 l492.5,-928.5" stroke="black" stroke-width="5"/>
<path d="M5140,801 l60,0 l0,60 l-60,0 z" fill="green"/>
<path d="M5170,831 l0,-167" stroke="black" stroke-width="5"/>
<path d="M7524,5398 l60,0 l0,60 l-60,0 z" fill="green"/>
<path d="M7554,5428 l0.5,0.5" stroke="black" stroke-width="5"/>
<path d="M1457,9865 l60,0 l0,60 l-60,0 z" fill="green"/>
<path d="M1487,9895 l-376,-323.5" stroke="black" stroke-width="5"/>
<path d="M9954,3630 l60,0 l0,60 l-60,0 z" fill="green"/>
<path d="M9984,3660 l-453,0" stroke="black" stroke-width="5"/>
<path d="M4688,6667 l60,0 l0,60 l-60,0 z" fill="green"/>
<path d="M4718,6697 l-76,-38" stroke="black" stroke-width="5"/>
<path d="M4737,7774 l60,0 l0,60 l-60,0 z" fill="green"/>
<path d="M4767,7804 l0,0.5" stroke="black" stroke-width="5"/>
<path d="M9666,7369 l60,0 l0,60 l-60,0 z" fill="green"/>
<path d="M9696,7399 l152,413" stroke="black" stroke-width="5"/>
<path d="M8188,5825 l60,0 l0,60 l-60,0 z" fill="green"/>
<path d="M8218,5855 l160,-573" stroke="black" stroke-width="5"/>
<path d="M7121,1966 l60,0 l0,60 l-60,0 z" fill="green"/>
<path d="M7151,1996 l138.5,-333.5" stroke="black" stroke-width="5"/>
<path d="M5575,7080 l60,0 l0,60 l-60,0 z" fill="green"/>
<path d="M5605,7110 l-85,165" stroke="black" stroke-width="5"/>
<path d="M1791,4172 l60,0 l0,60 l-60,0 z" fill="green"/>
<path d="M1821,4202 l341,328" stroke="black" stroke-width="5"/>
<path d="M4104,3785 l60,0 l0,60 l-60,0 z" fill="green"/>
<path d="M4134,3815 l-153.5,169" stroke="black" stroke-width="5"/>
<text font-size="188.9822365046136" text-anchor="middle" x="2360" y="3231.143782776615">
0
</text>
<text font-size="188.9822365046136" text-anchor="middle" x="8799.5" y="7354.643782776615">
1
</text>
<text font-size="188.9822365046136" text-anchor="middle" x="4907.5" y="5254.143782776615">
2
</text>
<text font-size="188.9822365046136" text-anchor="middle" x="4287.5" y="2483.643782776615">
3
</text>
<text font-size="188.9822365046136" text-anchor="middle" x="8300" y="834.1437827766148">
4
</text>
<text font-size="188.9822365046136" text-anchor="middle" x="223.5" y="8448.143782776615">
5
</text>
<text font-size="188.9822365046136" text-anchor="middle" x="4878.5" y="7163.643782776615">
6
</text>
<text font-size="188.9822365046136" text-anchor="middle" x="8203.5" y="3747.143782776615">
7
</text>
<text font-size="188.9822365046136" text-anchor="middle" x="9513.5" y="5400.143782776615">
8
</text>
<text font-size="188.9822365046136" text-anchor="middle" x="5820" y="2107.643782776615">
9
</text>
<text font-size="188.9822365046136" text-anchor="middle" x="2567" y="7677.643782776615">
10
</text>
<text font-size="188.9822365046136" text-anchor="middle" x="7790" y="7666.643782776615">
11
</text>
<text font-size="188.9822365046136" text-anchor="middle" x="7034.5" y="7733.643782776615">
12
</text>
<text font-size="188.9822365046136" text-anchor="middle" x="8733.5" y="6036.643782776615">
13
</text>
<text font-size="188.9822365046136" text-anchor="middle" x="155.5" y="7084.643782776615">
14
</text>
<text font-size="188.9822365046136" text-anchor="middle" x="1431" y="6078.643782776615">
15
</text>
<text font-size="188.9822365046136" text-anchor="middle" x="5237.5" y="6186.643782776615">
16
</text>
<text font-size="188.9822365046136" text-anchor="middle" x="3111" y="5264.143782776615">
17
</text>
<text font-size="188.9822365046136" text-anchor="middle" x="4782" y="4607.643782776615">
18
</text>
<text font-size="188.9822365046136" text-anchor="middle" x="7918" y="6182.643782776615">
19
</text>
<text font-size="188.9822365046136" text-anchor="middle" x="2090.5" y="9061.643782776615">
20
</text>
<text font-size="188.9822365046136" text-anchor="middle" x="8608" y="9316.643782776615">
21
</text>
<text font-size="188.9822365046136" text-anchor="middle" x="1711.5" y="1906.6437827766147">
22
</text>
<text font-size="188.9822365046136" text-anchor="middle" x="6633.5" y="4709.643782776615">
23
</text>
<text font-size="188.9822365046136" text-anchor="middle" x="5357" y="9061.643782776615">
24
</text>
<text font-size="188.9822365046136" text-anchor="middle" x="4915" y="4014.143782776615">
25
</text>
<text font-size="188.9822365046136" text-anchor="middle" x="6518" y="7733.643782776615">
26
</text>
<text font-size="188.9822365046136" text-anchor="middle" x="6519" y="6477.643782776615">
27
</text>
<text font-size="188.9822365046136" text-anchor="middle" x="8528.5" y="1267.6437827766147">
28
</text>
<text font-size="188.9822365046136" text-anchor="middle" x="6002.5" y="5115.643782776615">
29
</text>
<text font-size="188.9822365046136" text-anchor="middle" x="3678.5" y="9061.643782776615">
30
</text>
<text font-size="188.9822365046136" text-anchor="middle" x="7207.5" y="3992.643782776615">
31
</text>
<text font-size="188.9822365046136" text-anchor="middle" x="1421.5" y="5317.643782776615">
32
</text>
<text font-size="188.9822365046136" text-anchor="middle" x="9289.5" y="296.6437827766148">
33
</text>
<text font-size="188.9822365046136" text-anchor="middle" x="1128.5" y="4550.643782776615">
34
</text>
<text font-size="188.9822365046136" text-anchor="middle" x="9375" y="8583.143782776615">
35
</text>
<text font-size="188.9822365046136" text-anchor="middle" x="2552.5" y="2599.143782776615">
36
</text>
<text font-size="188.9822365046136" text-anchor="middle" x="2266.5" y="6968.643782776615">
37
</text>
<text font-size="188.9822365046136" text-anchor="middle" x="8041.5" y="296.6437827766148">
38
</text>
<text font-size="188.9822365046136" text-anchor="middle" x="1238" y="7308.643782776615">
39
</text>
<text font-size="188.9822365046136" text-anchor="middle" x="9226" y="6625.643782776615">
40
</text>
<text font-size="188.9822365046136" text-anchor="middle" x="3945" y="7433.643782776615">
41
</text>
<text font-size="188.9822365046136" text-anchor="middle" x="821.5" y="5317.643782776615">
42
</text>
<text font-size="188.9822365046136" text-anchor="middle" x="3185.5" y="9061.643782776615">
43
</text>
<text font-size="188.9822365046136" text-anchor="middle" x="5170" y="730.1437827766148">
44
</text>
<text font-size="188.9822365046136" text-anchor="middle" x="7554.5" y="5494.643782776615">
45
</text>
<text font-size="188.9822365046136" text-anchor="middle" x="1111" y="9637.643782776615">
46
</text>
<text font-size="188.9822365046136" text-anchor="middle" x="9531" y="3726.143782776615">
47
</text>
<text font-size="188.9822365046136" text-anchor="middle" x="4642" y="6725.143782776615">
48
</text>
<text font-size="188.9822365046136" text-anchor="middle" x="4767" y="7870.643782776615">
49
</text>
<text font-size="188.9822365046136" text-anchor="middle" x="9848" y="7878.143782776615">
50
</text>
<text font-size="188.9822365046136" text-anchor="middle" x="8378" y="5348.143782776615">
51
</text>
<text font-size="188.9822365046136" text-anchor="middle" x="7289.5" y="1728.6437827766147">
52
</text>
<text font-size="188.9822365046136" text-anchor="middle" x="5520" y="7341.143782776615">
53
</text>
<text font-size="188.9822365046136" text-anchor="middle" x="2162" y="4596.143782776615">
54
</text>
<text font-size="188.9822365046136" text-anchor="middle" x="3980.5" y="4050.143782776615">
55
</text>
</svg>