<svg viewBox="-100 -100 10200 10200" xmlns="http://www.w3.org/2000/svg">
<path d="M0,0 l10000,0 l0,10000 l-10000,0 z" fill="white"/>
<path d="M4862,6127 l1731,0 l0,866 l-1731,0 z" fill="#aa00ff" stroke="black" stroke-width="5"/>
<path d="M0,3043 l1165,0 l0,1140 l-1165,0 z" fill="#fe00ff" stroke="black" stroke-width="5"/>
<path d="M4285,2065 l677,0 l0,676 l-677,0 z" fill="#fe00ff" stroke="black" stroke-width="5"/>
<path d="M4862,7894 l592,0 l0,592 l-592,0 z" fill="#fe00ff" stroke="black" stroke-width="5"/>
<path d="M4563,4300 l862,0 l0,861 l-862,0 z" fill="#fe00ff" stroke="black" stroke-width="5"/>
<path d="M1165,3533 l830,0 l0,829 l-830,0 z" fill="#fe00ff" stroke="black" stroke-width="5"/>
<path d="M8833,6693 l391,0 l0,391 l-391,0 z" fill="#fe00ff" stroke="black" stroke-width="5"/>
<path d="M3223,8219 l1153,0 l0,1011 l-1153,0 z" fill="#d100ff" stroke="black" stroke-width="5"/>
<path d="M7377,3219 l713,0 l0,2078 l-713,0 z" fill="#de00ff" stroke="black" stroke-width="5"/>
<path d="M6243,7655 l1547,0 l0,1671 l-1547,0 z" fill="#c400ff" stroke="black" stroke-width="5"/>
<path d="M6735,18 l584,0 l0,583 l-584,0 z" fill="#fe00ff" stroke="black" stroke-width="5"/>
<path d="M5973,9326 l607,0 l0,606 l-607,0 z" fill="#fe00ff" stroke="black" stroke-width="5"/>
<path d="M8090,3219 l1013,0 l0,2303 l-1013,0 z" fill="#fe00ff" stroke="black" stroke-width="5"/>
<path d="M4862,6993 l457,0 l0,901 l-457,0 z" fill="#1100ff" stroke="black" stroke-width="5"/>
<path d="M3777,348 l880,0 l0,880 l-880,0 z" fill="#fe00ff" stroke="black" stroke-width="5"/>
<path d="M4376,7932 l486,0 l0,554 l-486,0 z" fill="#0500ff" stroke="black" stroke-width="5"/>
<path d="M4376,8486 l1140,0 l0,1514 l-1140,0 z" fill="#fe00ff" stroke="black" stroke-width="5"/>
<path d="M473,4183 l688,0 l0,1082 l-688,0 z" fill="#fe00ff" stroke="black" stroke-width="5"/>
<path d="M5076,5237 l890,0 l0,890 l-890,0 z" fill="#fe00ff" stroke="black" stroke-width="5"/>
<path d="M3233,5697 l1095,0 l0,576 l-1095,0 z" fill="#fe00ff" stroke="black" stroke-width="5"/>
<path d="M1484,1580 l1306,0 l0,907 l-1306,0 z" fill="#fe00ff" stroke="black" stroke-width="5"/>
<path d="M3222,6916 l1640,0 l0,1016 l-1640,0 z" fill="#ec00ff" stroke="black" stroke-width="5"/>
<path d="M7464,5297 l563,0 l0,562 l-563,0 z" fill="#fe00ff" stroke="black" stroke-width="5"/>
<path d="M7790,5859 l1,0 l0,4141 l-1,0 z" fill="#0000ff" stroke="black" stroke-width="5"/>
<path d="M756,499 l606,0 l0,956 l-606,0 z" fill="#fe00ff" stroke="black" stroke-width="5"/>
<path d="M3351,9230 l834,0 l0,770 l-834,0 z" fill="#fe00ff" stroke="black" stroke-width="5"/>
<path d="M0,0 l756,0 l0,2375 l-756,0 z" fill="#fe00ff" stroke="black" stroke-width="5"/>
<path d="M1161,4719 l1732,0 l0,1384 l-1732,0 z" fill="#fd00ff" stroke="black" stroke-width="5"/>
<path d="M5425,4155 l1144,0 l0,1082 l-1144,0 z" fill="#d400ff" stroke="black" stroke-width="5"/>
<path d="M5516,7548 l727,0 l0,1778 l-727,0 z" fill="#5e00ff" stroke="black" stroke-width="5"/>
<path d="M7268,7379 l75,0 l0,74 l-75,0 z" fill="#fe00ff" stroke="black" stroke-width="5"/>
<path d="M1362,0 l718,0 l0,1580 l-718,0 z" fill="#c100ff" stroke="black" stroke-width="5"/>
<path d="M0,8403 l761,0 l0,1519 l-761,0 z" fill="#fe00ff" stroke="black" stroke-width="5"/>
<path d="M0,4183 l473,0 l0,1724 l-473,0 z" fill="#8800ff" stroke="black" stroke-width="5"/>
<path d="M8487,1102 l1276,0 l0,889 l-1276,0 z" fill="#6400ff" stroke="black" stroke-width="5"/>
<path d="M0,5907 l583,0 l0,196 l-583,0 z" fill="#0000ff" stroke="black" stroke-width="5"/>
<path d="M583,5891 l213,0 l0,212 l-213,0 z" fill="#fe00ff" stroke="black" stroke-width="5"/>
<path d="M3222,7932 l1,0 l0,2068 l-1,0 z" fill="#0000ff" stroke="black" stroke-width="5"/>
<path d="M2664,290 l754,0 l0,753 l-754,0 z" fill="#fe00ff" stroke="black" stroke-width="5"/>
<path d="M2801,6916 l421,0 l0,3084 l-421,0 z" fill="#fe00ff" stroke="black" stroke-width="5"/>
<path d="M5319,7131 l418,0 l0,417 l-418,0 z" fill="#fe00ff" stroke="black" stroke-width="5"/>
<path d="M2080,0 l584,0 l0,1580 l-584,0 z" fill="#5c00ff" stroke="black" stroke-width="5"/>
<path d="M6569,4173 l808,0 l0,1954 l-808,0 z" fill="#b200ff" stroke="black" stroke-width="5"/>
<path d="M7319,288 l1168,0 l0,1291 l-1168,0 z" fill="#fe00ff" stroke="black" stroke-width="5"/>
<path d="M2413,3523 l2150,0 l0,1082 l-2150,0 z" fill="#3e00ff" stroke="black" stroke-width="5"/>
<path d="M7238,2160 l1060,0 l0,1059 l-1060,0 z" fill="#fe00ff" stroke="black" stroke-width="5"/>
<path d="M3283,2477 l682,0 l0,681 l-682,0 z" fill="#fe00ff" stroke="black" stroke-width="5"/>
<path d="M2413,3250 l273,0 l0,273 l-273,0 z" fill="#fe00ff" stroke="black" stroke-width="5"/>
<path d="M3271,7932 l288,0 l0,287 l-288,0 z" fill="#fe00ff" stroke="black" stroke-width="5"/>
<path d="M1525,6103 l1208,0 l0,1371 l-1208,0 z" fill="#9100ff" stroke="black" stroke-width="5"/>
<path d="M9763,1102 l237,0 l0,2425 l-237,0 z" fill="#0a00ff" stroke="black" stroke-width="5"/>
<path d="M3281,5264 l664,0 l0,433 l-664,0 z" fill="#fe00ff" stroke="black" stroke-width="5"/>
<path d="M9103,3527 l681,0 l0,680 l-681,0 z" fill="#fe00ff" stroke="black" stroke-width="5"/>
<path d="M6883,3411 l223,0 l0,222 l-223,0 z" fill="#fe00ff" stroke="black" stroke-width="5"/>
<path d="M4830,1797 l131,0 l0,131 l-131,0 z" fill="#fe00ff" stroke="black" stroke-width="5"/>
<path d="M6593,6987 l669,0 l0,668 l-669,0 z" fill="#fe00ff" stroke="black" stroke-width="5"/>
<path d="M7791,7480 l2209,0 l0,1713 l-2209,0 z" fill="#fe00ff" stroke="black" stroke-width="5"/>
<path d="M6705,3633 l672,0 l0,540 l-672,0 z" fill="#fe00ff" stroke="black" stroke-width="5"/>
<path d="M7916,9193 l1168,0 l0,807 l-1168,0 z" fill="#fe00ff" stroke="black" stroke-width="5"/>
<path d="M2733,6285 l632,0 l0,631 l-632,0 z" fill="#fe00ff" stroke="black" stroke-width="5"/>
<path d="M2893,4605 l1319,0 l0,659 l-1319,0 z" fill="#fe00ff" stroke="black" stroke-width="5"/>
<path d="M9065,1991 l602,0 l0,601 l-602,0 z" fill="#fe00ff" stroke="black" stroke-width="5"/>
<path d="M1995,2487 l418,0 l0,2232 l-418,0 z" fill="#fe00ff" stroke="black" stroke-width="5"/>
<path d="M5647,922 l729,0 l0,729 l-729,0 z" fill="#fe00ff" stroke="black" stroke-width="5"/>
<path d="M9176,234 l824,0 l0,868 l-824,0 z" fill="#fe00ff" stroke="black" stroke-width="5"/>
<path d="M5903,3434 l722,0 l0,721 l-722,0 z" fill="#fe00ff" stroke="black" stroke-width="5"/>
<path d="M0,6103 l1525,0 l0,1556 l-1525,0 z" fill="#fe00ff" stroke="black" stroke-width="5"/>
<path d="M2136,7474 l665,0 l0,959 l-665,0 z" fill="#fe00ff" stroke="black" stroke-width="5"/>
<path d="M5632,6395 l60,0 l0,60 l-60,0 z" fill="green"/>
<path d="M5662,6425 l65.5,135" stroke="black" stroke-width="5"/>
<path d="M647,4152 l60,0 l0,60 l-60,0 z" fill="green"/>
<path d="M677,4182 l-94.5,-569" stroke="black" stroke-width="5"/>
<path d="M4593,2373 l60,0 l0,60 l-60,0 z" fill="green"/>
<path d="M4623,2403 l0.5,0" stroke="black" stroke-width="5"/>
<path d="M5128,8160 l60,0 l0,60 l-60,0 z" fill="green"/>
<path d="M5158,8190 l0,0" stroke="black" stroke-width="5"/>
<path d="M4964,4700 l60,0 l0,60 l-60,0 z" fill="green"/>
<path d="M4994,4730 l0,0.5" stroke="black" stroke-width="5"/>
<path d="M1550,3917 l60,0 l0,60 l-60,0 z" fill="green"/>
<path d="M1580,3947 l0,0.5" stroke="black" stroke-width="5"/>
<path d="M8998,6858 l60,0 l0,60 l-60,0 z" fill="green"/>
<path d="M9028,6888 l0.5,0.5" stroke="black" stroke-width="5"/>
<path d="M3774,8644 l60,0 l0,60 l-60,0 z" fill="green"/>
<path d="M3804,8674 l-4.5,50.5" stroke="black" stroke-width="5"/>
<path d="M7579,3564 l60,0 l0,60 l-60,0 z" fill="green"/>
<path d="M7609,3594 l124.5,664" stroke="black" stroke-width="5"/>
<path d="M6213,9263 l60,0 l0,60 l-60,0 z" fill="green"/>
<path d="M6243,9293 l773.5,-802.5" stroke="black" stroke-width="5"/>
<path d="M6997,279 l60,0 l0,60 l-60,0 z" fill="green"/>
<path d="M7027,309 l0,0.5" stroke="black" stroke-width="5"/>
<path d="M6246,9599 l60,0 l0,60 l-60,0 z" fill="green"/>
<path d="M6276,9629 l0.5,0" stroke="black" stroke-width="5"/>
<path d="M8060,3484 l60,0 l0,60 l-60,0 z" fill="green"/>
<path d="M8090,3514 l506.5,856.5" stroke="black" stroke-width="5"/>
<path d="M5083,6963 l60,0 l0,60 l-60,0 z" fill="green"/>
<path d="M5113,6993 l-22.5,450.5" stroke="black" stroke-width="5"/>
<path d="M4187,758 l60,0 l0,60 l-60,0 z" fill="green"/>
<path d="M4217,788 l0,0" stroke="black" stroke-width="5"/>
<path d="M4346,8368 l60,0 l0,60 l-60,0 z" fill="green"/>
<path d="M4376,8398 l243,-189" stroke="black" stroke-width="5"/>
<path d="M4385,8933 l60,0 l0,60 l-60,0 z" fill="green"/>
<path d="M4415,8963 l531,280" stroke="black" stroke-width="5"/>
<path d="M589,4693 l60,0 l0,60 l-60,0 z" fill="green"/>
<path d="M619,4723 l198,1" stroke="black" stroke-width="5"/>
<path d="M5491,5652 l60,0 l0,60 l-60,0 z" fill="green"/>
<path d="M5521,5682 l0,0" stroke="black" stroke-width="5"/>
<path d="M3750,5696 l60,0 l0,60 l-60,0 z" fill="green"/>
<path d="M3780,5726 l0.5,259" stroke="black" stroke-width="5"/>
<path d="M2107,2088 l60,0 l0,60 l-60,0 z" fill="green"/>
<path d="M2137,2118 l0,-84.5" stroke="black" stroke-width="5"/>
<path d="M3414,7232 l60,0 l0,60 l-60,0 z" fill="green"/>
<path d="M3444,7262 l598,162" stroke="black" stroke-width="5"/>
<path d="M7715,5548 l60,0 l0,60 l-60,0 z" fill="green"/>
<path d="M7745,5578 l0.5,0" stroke="black" stroke-width="5"/>
<path d="M7760,8549 l60,0 l0,60 l-60,0 z" fill="green"/>
<path d="M7790,8579 l0.5,-649.5" stroke="black" stroke-width="5"/>
<path d="M1148,947 l60,0 l0,60 l-60,0 z" fill="green"/>
<path d="M1178,977 l-119,0" stroke="black" stroke-width="5"/>
<path d="M3738,9617 l60,0 l0,60 l-60,0 z" fill="green"/>
<path d="M3768,9647 l0,-32" stroke="black" stroke-width="5"/>
<path d="M725,803 l60,0 l0,60 l-60,0 z" fill="green"/>
<path d="M755,833 l-377,354.5" stroke="black" stroke-width="5"/>
<path d="M1789,5749 l60,0 l0,60 l-60,0 z" fill="green"/>
<path d="M1819,5779 l208,-368" stroke="black" stroke-width="5"/>
<path d="M5461,4964 l60,0 l0,60 l-60,0 z" fill="green"/>
<path d="M5491,4994 l506,-298" stroke="black" stroke-width="5"/>
<path d="M5662,8997 l60,0 l0,60 l-60,0 z" fill="green"/>
<path d="M5692,9027 l187.5,-590" stroke="black" stroke-width="5"/>
<path d="M7275,7386 l60,0 l0,60 l-60,0 z" fill="green"/>
<path d="M7305,7416 l0.5,0" stroke="black" stroke-width="5"/>
<path d="M1332,922 l60,0 l0,60 l-60,0 z" fill="green"/>
<path d="M1362,952 l359,-162" stroke="black" stroke-width="5"/>
<path d="M-28,9132 l60,0 l0,60 l-60,0 z" fill="green"/>
<path d="M2,9162 l378.5,0.5" stroke="black" stroke-width="5"/>
<path d="M442,4797 l60,0 l0,60 l-60,0 z" fill="green"/>
<path d="M472,4827 l-235.5,218" stroke="black" stroke-width="5"/>
<path d="M8701,1609 l60,0 l0,60 l-60,0 z" fill="green"/>
<path d="M8731,1639 l394,-92.5" stroke="black" stroke-width="5"/>
<path d="M287,5877 l60,0 l0,60 l-60,0 z" fill="green"/>
<path d="M317,5907 l-25.5,98" stroke="black" stroke-width="5"/>
<path d="M659,5967 l60,0 l0,60 l-60,0 z" fill="green"/>
<path d="M689,5997 l0.5,0" stroke="black" stroke-width="5"/>
<path d="M3192,8248 l60,0 l0,60 l-60,0 z" fill="green"/>
<path d="M3222,8278 l0.5,688" stroke="black" stroke-width="5"/>
<path d="M3011,636 l60,0 l0,60 l-60,0 z" fill="green"/>
<path d="M3041,666 l0,0.5" stroke="black" stroke-width="5"/>
<path d="M2771,7986 l60,0 l0,60 l-60,0 z" fill="green"/>
<path d="M2801,8016 l210.5,442" stroke="black" stroke-width="5"/>
<path d="M5498,7309 l60,0 l0,60 l-60,0 z" fill="green"/>
<path d="M5528,7339 l0,0.5" stroke="black" stroke-width="5"/>
<path d="M2050,1549 l60,0 l0,60 l-60,0 z" fill="green"/>
<path d="M2080,1579 l292,-789" stroke="black" stroke-width="5"/>
<path d="M6539,4862 l60,0 l0,60 l-60,0 z" fill="green"/>
<path d="M6569,4892 l404,258" stroke="black" stroke-width="5"/>
<path d="M7811,903 l60,0 l0,60 l-60,0 z" fill="green"/>
<path d="M7841,933 l62,0.5" stroke="black" stroke-width="5"/>
<path d="M2846,4544 l60,0 l0,60 l-60,0 z" fill="green"/>
<path d="M2876,4574 l612,-510" stroke="black" stroke-width="5"/>
<path d="M7738,2659 l60,0 l0,60 l-60,0 z" fill="green"/>
<path d="M7768,2689 l0,0.5" stroke="black" stroke-width="5"/>
<path d="M3594,2787 l60,0 l0,60 l-60,0 z" fill="green"/>
<path d="M3624,2817 l0,0.5" stroke="black" stroke-width="5"/>
<path d="M2519,3356 l60,0 l0,60 l-60,0 z" fill="green"/>
<path d="M2549,3386 l0.5,0.5" stroke="black" stroke-width="5"/>
<path d="M3385,8045 l60,0 l0,60 l-60,0 z" fill="green"/>
<path d="M3415,8075 l0,0.5" stroke="black" stroke-width="5"/>
<path d="M1671,6537 l60,0 l0,60 l-60,0 z" fill="green"/>
<path d="M1701,6567 l428,221.5" stroke="black" stroke-width="5"/>
<path d="M9733,1072 l60,0 l0,60 l-60,0 z" fill="green"/>
<path d="M9763,1102 l118.5,1212.5" stroke="black" stroke-width="5"/>
<path d="M3583,5335 l60,0 l0,60 l-60,0 z" fill="green"/>
<path d="M3613,5365 l0,115.5" stroke="black" stroke-width="5"/>
<path d="M9413,3837 l60,0 l0,60 l-60,0 z" fill="green"/>
<path d="M9443,3867 l0.5,0" stroke="black" stroke-width="5"/>
<path d="M6964,3492 l60,0 l0,60 l-60,0 z" fill="green"/>
<path d="M6994,3522 l0.5,0" stroke="black" stroke-width="5"/>
<path d="M4865,1832 l60,0 l0,60 l-60,0 z" fill="green"/>
<path d="M4895,1862 l0.5,0.5" stroke="black" stroke-width="5"/>
<path d="M6897,7291 l60,0 l0,60 l-60,0 z" fill="green"/>
<path d="M6927,7321 l0.5,0" stroke="black" stroke-width="5"/>
<path d="M8887,9162 l60,0 l0,60 l-60,0 z" fill="green"/>
<path d="M8917,9192 l-21.5,-855.5" stroke="black" stroke-width="5"/>
<path d="M7011,3807 l60,0 l0,60 l-60,0 z" fill="green"/>
<path d="M7041,3837 l0,66" stroke="black" stroke-width="5"/>
<path d="M8470,9702 l60,0 l0,60 l-60,0 z" fill="green"/>
<path d="M8500,9732 l0,-135.5" stroke="black" stroke-width="5"/>
<path d="M3019,6570 l60,0 l0,60 l-60,0 z" fill="green"/>
<path d="M3049,6600 l0,0.5" stroke="black" stroke-width="5"/>
<path d="M3522,5233 l60,0 l0,60 l-60,0 z" fill="green"/>
<path d="M3552,5263 l0.5,-328.5" stroke="black" stroke-width="5"/>
<path d="M9336,2261 l60,0 l0,60 l-60,0 z" fill="green"/>
<path d="M9366,2291 l0,0.5" stroke="black" stroke-width="5"/>
<path d="M2087,3573 l60,0 l0,60 l-60,0 z" fill="green"/>
<path d="M2117,3603 l87,0" stroke="black" stroke-width="5"/>
<path d="M5981,1256 l60,0 l0,60 l-60,0 z" fill="green"/>
<path d="M6011,1286 l0.5,0.5" stroke="black" stroke-width="5"/>
<path d="M9734,792 l60,0 l0,60 l-60,0 z" fill="green"/>
<path d="M9764,822 l-176,-154" stroke="black" stroke-width="5"/>
<path d="M6234,3764 l60,0 l0,60 l-60,0 z" fill="green"/>
<path d="M6264,3794 l0,0.5" stroke="black" stroke-width="5"/>
<path d="M507,6641 l60,0 l0,60 l-60,0 z" fill="green"/>
<path d="M537,6671 l225.5,210" stroke="black" stroke-width="5"/>
<path d="M2585,7923 l60,0 l0,60 l-60,0 z" fill="green"/>
<path d="M2615,7953 l-146.5,0.5" stroke="black" stroke-width="5"/>
<text font-size="171.49858514250883" text-anchor="middle" x="5727.5" y="6620.024504799878">
0
</text>
<text font-size="171.49858514250883" text-anchor="middle" x="582.5" y="3673.0245047998783">
1
</text>
<text font-size="171.49858514250883" text-anchor="middle" x="4623.5" y="2463.0245047998783">
2
</text>
<text font-size="171.49858514250883" text-anchor="middle" x="5158" y="8250.024504799878">
3
</text>
<text font-size="171.49858514250883" text-anchor="middle" x="4994" y="4790.524504799878">
4
</text>
<text font-size="171.49858514250883" text-anchor="middle" x="1580" y="4007.5245047998783">
5
</text>
<text font-size="171.49858514250883" text-anchor="middle" x="9028.5" y="6948.524504799878">
6
</text>
<text font-size="171.49858514250883" text-anchor="middle" x="3799.5" y="8784.524504799878">
7
</text>
<text font-size="171.49858514250883" text-anchor="middle" x="7733.5" y="4318.024504799878">
8
</text>
<text font-size="171.49858514250883" text-anchor="middle" x="7016.5" y="8550.524504799878">
9
</text>
<text font-size="171.49858514250883" text-anchor="middle" x="7027" y="369.52450479987806">
10
</text>
<text font-size="171.49858514250883" text-anchor="middle" x="6276.5" y="9689.024504799878">
11
</text>
<text font-size="171.49858514250883" text-anchor="middle" x="8596.5" y="4430.524504799878">
12
</text>
<text font-size="171.49858514250883" text-anchor="middle" x="5090.5" y="7503.524504799878">
13
</text>
<text font-size="171.49858514250883" text-anchor="middle" x="4217" y="848.0245047998781">
14
</text>
<text font-size="171.49858514250883" text-anchor="middle" x="4619" y="8269.024504799878">
15
</text>
<text font-size="171.49858514250883" text-anchor="middle" x="4946" y="9303.024504799878">
16
</text>
<text font-size="171.49858514250883" text-anchor="middle" x="817" y="4784.024504799878">
17
</text>
<text font-size="171.49858514250883" text-anchor="middle" x="5521" y="5742.024504799878">
18
</text>
<text font-size="171.49858514250883" text-anchor="middle" x="3780.5" y="6045.024504799878">
19
</text>
<text font-size="171.49858514250883" text-anchor="middle" x="2137" y="2093.5245047998783">
20
</text>
<text font-size="171.49858514250883" text-anchor="middle" x="4042" y="7484.024504799878">
21
</text>
<text font-size="171.49858514250883" text-anchor="middle" x="7745.5" y="5638.024504799878">
22
</text>
<text font-size="171.49858514250883" text-anchor="middle" x="7790.5" y="7989.524504799878">
23
</text>
<text font-size="171.49858514250883" text-anchor="middle" x="1059" y="1037.024504799878">
24
</text>
<text font-size="171.49858514250883" text-anchor="middle" x="3768" y="9675.024504799878">
25
</text>
<text font-size="171.49858514250883" text-anchor="middle" x="378" y="1247.524504799878">
26
</text>
<text font-size="171.49858514250883" text-anchor="middle" x="2027" y="5471.024504799878">
27
</text>
<text font-size="171.49858514250883" text-anchor="middle" x="5997" y="4756.024504799878">
28
</text>
<text font-size="171.49858514250883" text-anchor="middle" x="5879.5" y="8497.024504799878">
29
</text>
<text font-size="171.49858514250883" text-anchor="middle" x="7305.5" y="7476.024504799878">
30
</text>
<text font-size="171.49858514250883" text-anchor="middle" x="1721" y="850.0245047998781">
31
</text>
<text font-size="171.49858514250883" text-anchor="middle" x="380.5" y="9222.524504799878">
32
</text>
<text font-size="171.49858514250883" text-anchor="middle" x="236.5" y="5105.024504799878">
33
</text>
<text font-size="171.49858514250883" text-anchor="middle" x="9125" y="1606.524504799878">
34
</text>
<text font-size="171.49858514250883" text-anchor="middle" x="291.5" y="6065.024504799878">
35
</text>
<text font-size="171.49858514250883" text-anchor="middle" x="689.5" y="6057.024504799878">
36
</text>
<text font-size="171.49858514250883" text-anchor="middle" x="3222.5" y="9026.024504799878">
37
</text>
<text font-size="171.49858514250883" text-anchor="middle" x="3041" y="726.5245047998781">
38
</text>
<text font-size="171.49858514250883" text-anchor="middle" x="3011.5" y="8518.024504799878">
39
</text>
<text font-size="171.49858514250883" text-anchor="middle" x="5528" y="7399.524504799878">
40
</text>
<text font-size="171.49858514250883" text-anchor="middle" x="2372" y="850.0245047998781">
41
</text>
<text font-size="171.49858514250883" text-anchor="middle" x="6973" y="5210.024504799878">
42
</text>
<text font-size="171.49858514250883" text-anchor="middle" x="7903" y="993.5245047998781">
43
</text>
<text font-size="171.49858514250883" text-anchor="middle" x="3488" y="4124.024504799878">
44
</text>
<text font-size="171.49858514250883" text-anchor="middle" x="7768" y="2749.5245047998783">
45
</text>
<text font-size="171.49858514250883" text-anchor="middle" x="3624" y="2877.5245047998783">
46
</text>
<text font-size="171.49858514250883" text-anchor="middle" x="2549.5" y="3446.5245047998783">
47
</text>
<text font-size="171.49858514250883" text-anchor="middle" x="3415" y="8135.524504799878">
48
</text>
<text font-size="171.49858514250883" text-anchor="middle" x="2129" y="6848.524504799878">
49
</text>
<text font-size="171.49858514250883" text-anchor="middle" x="9881.5" y="2374.5245047998783">
50
</text>
<text font-size="171.49858514250883" text-anchor="middle" x="3613" y="5540.524504799878">
51
</text>
<text font-size="171.49858514250883" text-anchor="middle" x="9443.5" y="3927.0245047998783">
52
</text>
<text font-size="171.49858514250883" text-anchor="middle" x="6994.5" y="3582.0245047998783">
53
</text>
<text font-size="171.49858514250883" text-anchor="middle" x="4895.5" y="1922.524504799878">
54
</text>
<text font-size="171.49858514250883" text-anchor="middle" x="6927.5" y="7381.024504799878">
55
</text>
<text font-size="171.49858514250883" text-anchor="middle" x="8895.5" y="8396.524504799878">
56
</text>
<text font-size="171.49858514250883" text-anchor="middle" x="7041" y="3963.0245047998783">
57
</text>
<text font-size="171.49858514250883" text-anchor="middle" x="8500" y="9656.524504799878">
58
</text>
<text font-size="171.49858514250883" text-anchor="middle" x="3049" y="6660.524504799878">
59
</text>
<text font-size="171.49858514250883" text-anchor="middle" x="3552.5" y="4994.524504799878">
60
</text>
<text font-size="171.49858514250883" text-anchor="middle" x="9366" y="2351.5245047998783">
61
</text>
<text font-size="171.49858514250883" text-anchor="middle" x="2204" y="3663.0245047998783">
62
</text>
<text font-size="171.49858514250883" text-anchor="middle" x="6011.5" y="1346.524504799878">
63
</text>
<text font-size="171.49858514250883" text-anchor="middle" x="9588" y="728.0245047998781">
64
</text>
<text font-size="171.49858514250883" text-anchor="middle" x="6264" y="3854.5245047998783">
65
</text>
<text font-size="171.49858514250883" text-anchor="middle" x="762.5" y="6941.024504799878">
66
</text>
<text font-size="171.49858514250883" text-anchor="middle" x="2468.5" y="8013.524504799878">
67
</text>
</svg>