<svg viewBox="-100 -100 10200 10200" xmlns="http://www.w3.org/2000/svg">
<path d="M0,0 l10000,0 l0,10000 l-10000,0 z" fill="white"/>
<path d="M0,522 l748,0 l0,1186 l-748,0 z" fill="#fe00ff" stroke="black" stroke-width="5"/>
<path d="M7851,0 l354,0 l0,1801 l-354,0 z" fill="#fd00ff" stroke="black" stroke-width="5"/>
<path d="M1631,9842 l802,0 l0,158 l-802,0 z" fill="#fe00ff" stroke="black" stroke-width="5"/>
<path d="M1631,9017 l310,0 l0,182 l-310,0 z" fill="#fe00ff" stroke="black" stroke-width="5"/>
<path d="M3885,39 l1181,0 l0,1076 l-1181,0 z" fill="#fe00ff" stroke="black" stroke-width="5"/>
<path d="M3933,6978 l1779,0 l0,557 l-1779,0 z" fill="#cc00ff" stroke="black" stroke-width="5"/>
<path d="M9203,2745 l797,0 l0,2084 l-797,0 z" fill="#9800ff" stroke="black" stroke-width="5"/>
<path d="M4598,1673 l1691,0 l0,1226 l-1691,0 z" fill="#fe00ff" stroke="black" stroke-width="5"/>
<path d="M6001,8543 l744,0 l0,371 l-744,0 z" fill="#fe00ff" stroke="black" stroke-width="5"/>
<path d="M4912,3872 l151,0 l0,151 l-151,0 z" fill="#fe00ff" stroke="black" stroke-width="5"/>
<path d="M8205,64 l873,0 l0,1743 l-873,0 z" fill="#fe00ff" stroke="black" stroke-width="5"/>
<path d="M0,4506 l424,0 l0,546 l-424,0 z" fill="#fe00ff" stroke="black" stroke-width="5"/>
<path d="M6098,3190 l2903,0 l0,944 l-2903,0 z" fill="#f400ff" stroke="black" stroke-width="5"/>
<path d="M7488,1080 l363,0 l0,721 l-363,0 z" fill="#fe00ff" stroke="black" stroke-width="5"/>
<path d="M5806,7150 l535,0 l0,268 l-535,0 z" fill="#fe00ff" stroke="black" stroke-width="5"/>
<path d="M1862,819 l521,0 l0,891 l-521,0 z" fill="#fe00ff" stroke="black" stroke-width="5"/>
<path d="M2468,7772 l865,0 l0,865 l-865,0 z" fill="#fe00ff" stroke="black" stroke-width="5"/>
<path d="M4614,5797 l479,0 l0,478 l-479,0 z" fill="#fe00ff" stroke="black" stroke-width="5"/>
<path d="M4614,6275 l1166,0 l0,703 l-1166,0 z" fill="#fe00ff" stroke="black" stroke-width="5"/>
<path d="M576,2262 l545,0 l0,233 l-545,0 z" fill="#0200ff" stroke="black" stroke-width="5"/>
<path d="M1631,9199 l2632,0 l0,643 l-2632,0 z" fill="#8900ff" stroke="black" stroke-width="5"/>
<path d="M3862,2524 l581,0 l0,291 l-581,0 z" fill="#fe00ff" stroke="black" stroke-width="5"/>
<path d="M8890,8723 l1110,0 l0,1277 l-1110,0 z" fill="#fe00ff" stroke="black" stroke-width="5"/>
<path d="M103,1799 l473,0 l0,473 l-473,0 z" fill="#fe00ff" stroke="black" stroke-width="5"/>
<path d="M5145,9205 l376,0 l0,375 l-376,0 z" fill="#fe00ff" stroke="black" stroke-width="5"/>
<path d="M4772,5266 l289,0 l0,145 l-289,0 z" fill="#fe00ff" stroke="black" stroke-width="5"/>
<path d="M4481,2899 l1073,0 l0,973 l-1073,0 z" fill="#fe00ff" stroke="black" stroke-width="5"/>
<path d="M7178,4968 l467,0 l0,933 l-467,0 z" fill="#fe00ff" stroke="black" stroke-width="5"/>
<path d="M9001,2745 l202,0 l0,5978 l-202,0 z" fill="#7f00ff" stroke="black" stroke-width="5"/>
<path d="M2263,1968 l1239,0 l0,1320 l-1239,0 z" fill="#fe00ff" stroke="black" stroke-width="5"/>
<path d="M0,7535 l5116,0 l0,1 l-5116,0 z" fill="#0000ff" stroke="black" stroke-width="5"/>
<path d="M9078,0 l922,0 l0,1593 l-922,0 z" fill="#4000ff" stroke="black" stroke-width="5"/>
<path d="M3579,5339 l1035,0 l0,1071 l-1035,0 z" fill="#fe00ff" stroke="black" stroke-width="5"/>
<path d="M5712,7418 l1423,0 l0,1125 l-1423,0 z" fill="#f700ff" stroke="black" stroke-width="5"/>
<path d="M440,5973 l328,0 l0,328 l-328,0 z" fill="#fe00ff" stroke="black" stroke-width="5"/>
<path d="M2906,230 l495,0 l0,495 l-495,0 z" fill="#fe00ff" stroke="black" stroke-width="5"/>
<path d="M0,0 l485,0 l0,522 l-485,0 z" fill="#2000ff" stroke="black" stroke-width="5"/>
<path d="M6897,5901 l718,0 l0,1517 l-718,0 z" fill="#8500ff" stroke="black" stroke-width="5"/>
<path d="M6747,5231 l150,0 l0,2187 l-150,0 z" fill="#fe00ff" stroke="black" stroke-width="5"/>
<path d="M7615,7318 l374,0 l0,100 l-374,0 z" fill="#0000ff" stroke="black" stroke-width="5"/>
<path d="M1597,5519 l466,0 l0,465 l-466,0 z" fill="#fe00ff" stroke="black" stroke-width="5"/>
<path d="M7135,8034 l1,0 l0,1966 l-1,0 z" fill="#0000ff" stroke="black" stroke-width="5"/>
<path d="M0,6679 l497,0 l0,669 l-497,0 z" fill="#fe00ff" stroke="black" stroke-width="5"/>
<path d="M2962,6410 l971,0 l0,970 l-971,0 z" fill="#fe00ff" stroke="black" stroke-width="5"/>
<path d="M6289,2112 l873,0 l0,1078 l-873,0 z" fill="#9f00ff" stroke="black" stroke-width="5"/>
<path d="M9268,7660 l732,0 l0,1063 l-732,0 z" fill="#fe00ff" stroke="black" stroke-width="5"/>
<path d="M1327,5051 l3122,0 l0,288 l-3122,0 z" fill="#fe00ff" stroke="black" stroke-width="5"/>
<path d="M3542,1115 l731,0 l0,596 l-731,0 z" fill="#fe00ff" stroke="black" stroke-width="5"/>
<path d="M7136,8034 l1753,0 l0,1339 l-1753,0 z" fill="#e600ff" stroke="black" stroke-width="5"/>
<path d="M4273,1115 l242,0 l0,120 l-242,0 z" fill="#fe00ff" stroke="black" stroke-width="5"/>
<path d="M7645,4835 l794,0 l0,606 l-794,0 z" fill="#fe00ff" stroke="black" stroke-width="5"/>
<path d="M1917,3288 l491,0 l0,491 l-491,0 z" fill="#fe00ff" stroke="black" stroke-width="5"/>
<path d="M9203,4829 l797,0 l0,962 l-797,0 z" fill="#fe00ff" stroke="black" stroke-width="5"/>
<path d="M1121,2414 l1116,0 l0,874 l-1116,0 z" fill="#3b00ff" stroke="black" stroke-width="5"/>
<path d="M7570,9373 l633,0 l0,627 l-633,0 z" fill="#fe00ff" stroke="black" stroke-width="5"/>
<path d="M3933,6511 l681,0 l0,467 l-681,0 z" fill="#a100ff" stroke="black" stroke-width="5"/>
<path d="M1557,0 l1209,0 l0,713 l-1209,0 z" fill="#fe00ff" stroke="black" stroke-width="5"/>
<path d="M0,2495 l1032,0 l0,1300 l-1032,0 z" fill="#fe00ff" stroke="black" stroke-width="5"/>
<path d="M0,7536 l3769,0 l0,231 l-3769,0 z" fill="#fe00ff" stroke="black" stroke-width="5"/>
<path d="M6289,1801 l1874,0 l0,310 l-1874,0 z" fill="#fe00ff" stroke="black" stroke-width="5"/>
<path d="M7989,7318 l1012,0 l0,100 l-1012,0 z" fill="#1400ff" stroke="black" stroke-width="5"/>
<path d="M5717,301 l480,0 l0,943 l-480,0 z" fill="#fe00ff" stroke="black" stroke-width="5"/>
<path d="M2086,4075 l761,0 l0,761 l-761,0 z" fill="#fe00ff" stroke="black" stroke-width="5"/>
<path d="M3933,6410 l681,0 l0,101 l-681,0 z" fill="#0500ff" stroke="black" stroke-width="5"/>
<path d="M725,1719 l396,0 l0,543 l-396,0 z" fill="#fe00ff" stroke="black" stroke-width="5"/>
<path d="M4449,4330 l1314,0 l0,936 l-1314,0 z" fill="#fe00ff" stroke="black" stroke-width="5"/>
<path d="M6289,2111 l2895,0 l0,1 l-2895,0 z" fill="#0000ff" stroke="black" stroke-width="5"/>
<path d="M7744,5441 l523,0 l0,262 l-523,0 z" fill="#fe00ff" stroke="black" stroke-width="5"/>
<path d="M485,0 l1072,0 l0,522 l-1072,0 z" fill="#fe00ff" stroke="black" stroke-width="5"/>
<path d="M4020,2815 l429,0 l0,2236 l-429,0 z" fill="#b500ff" stroke="black" stroke-width="5"/>
<path d="M8889,8034 l1,0 l0,1966 l-1,0 z" fill="#0000ff" stroke="black" stroke-width="5"/>
<path d="M2237,2505 l26,0 l0,152 l-26,0 z" fill="#fe00ff" stroke="black" stroke-width="5"/>
<path d="M2409,1033 l691,0 l0,691 l-691,0 z" fill="#fe00ff" stroke="black" stroke-width="5"/>
<path d="M5483,5266 l611,0 l0,826 l-611,0 z" fill="#fe00ff" stroke="black" stroke-width="5"/>
<path d="M1489,8256 l112,0 l0,111 l-112,0 z" fill="#fe00ff" stroke="black" stroke-width="5"/>
<path d="M8600,5445 l401,0 l0,469 l-401,0 z" fill="#fe00ff" stroke="black" stroke-width="5"/>
<path d="M5767,1244 l430,0 l0,429 l-430,0 z" fill="#fe00ff" stroke="black" stroke-width="5"/>
<path d="M7615,6562 l178,0 l0,177 l-178,0 z" fill="#fe00ff" stroke="black" stroke-width="5"/>
<path d="M2982,3641 l1038,0 l0,1037 l-1038,0 z" fill="#fe00ff" stroke="black" stroke-width="5"/>
<path d="M6734,4134 l291,0 l0,291 l-291,0 z" fill="#fe00ff" stroke="black" stroke-width="5"/>
<path d="M4263,8848 l678,0 l0,678 l-678,0 z" fill="#fe00ff" stroke="black" stroke-width="5"/>
<path d="M7162,2931 l259,0 l0,259 l-259,0 z" fill="#fe00ff" stroke="black" stroke-width="5"/>
<path d="M630,8475 l678,0 l0,339 l-678,0 z" fill="#fe00ff" stroke="black" stroke-width="5"/>
<path d="M0,8814 l1631,0 l0,1186 l-1631,0 z" fill="#fe00ff" stroke="black" stroke-width="5"/>
<path d="M5618,2899 l480,0 l0,480 l-480,0 z" fill="#fe00ff" stroke="black" stroke-width="5"/>
<path d="M748,713 l1114,0 l0,1006 l-1114,0 z" fill="#9500ff" stroke="black" stroke-width="5"/>
<path d="M7135,7418 l1858,0 l0,616 l-1858,0 z" fill="#fe00ff" stroke="black" stroke-width="5"/>
<path d="M8176,5914 l510,0 l0,491 l-510,0 z" fill="#fe00ff" stroke="black" stroke-width="5"/>
<path d="M4223,7536 l893,0 l0,795 l-893,0 z" fill="#fe00ff" stroke="black" stroke-width="5"/>
<path d="M6135,6022 l612,0 l0,1128 l-612,0 z" fill="#fe00ff" stroke="black" stroke-width="5"/>
<path d="M9184,1593 l816,0 l0,1152 l-816,0 z" fill="#fe00ff" stroke="black" stroke-width="5"/>
<path d="M6197,0 l291,0 l0,1673 l-291,0 z" fill="#4b00ff" stroke="black" stroke-width="5"/>
<path d="M768,5984 l2194,0 l0,1551 l-2194,0 z" fill="#f500ff" stroke="black" stroke-width="5"/>
<path d="M6488,429 l1000,0 l0,1372 l-1000,0 z" fill="#fe00ff" stroke="black" stroke-width="5"/>
<path d="M1121,1719 l1142,0 l0,695 l-1142,0 z" fill="#fe00ff" stroke="black" stroke-width="5"/>
<path d="M5093,5266 l390,0 l0,1009 l-390,0 z" fill="#cb00ff" stroke="black" stroke-width="5"/>
<path d="M7615,6755 l1386,0 l0,563 l-1386,0 z" fill="#a000ff" stroke="black" stroke-width="5"/>
<path d="M7871,6405 l1130,0 l0,350 l-1130,0 z" fill="#fe00ff" stroke="black" stroke-width="5"/>
<path d="M5377,317 l340,0 l0,339 l-340,0 z" fill="#fe00ff" stroke="black" stroke-width="5"/>
<path d="M5116,7535 l596,0 l0,1514 l-596,0 z" fill="#fe00ff" stroke="black" stroke-width="5"/>
<path d="M424,4836 l3596,0 l0,215 l-3596,0 z" fill="#b700ff" stroke="black" stroke-width="5"/>
<path d="M1601,7767 l837,0 l0,802 l-837,0 z" fill="#fe00ff" stroke="black" stroke-width="5"/>
<path d="M-13,948 l60,0 l0,60 l-60,0 z" fill="green"/>
<path d="M17,978 l357,137" stroke="black" stroke-width="5"/>
<path d="M7830,1644 l60,0 l0,60 l-60,0 z" fill="green"/>
<path d="M7860,1674 l168,-773.5" stroke="black" stroke-width="5"/>
<path d="M1601,9812 l60,0 l0,60 l-60,0 z" fill="green"/>
<path d="M1631,9842 l401,79" stroke="black" stroke-width="5"/>
<path d="M1729,9168 l60,0 l0,60 l-60,0 z" fill="green"/>
<path d="M1759,9198 l27,-90" stroke="black" stroke-width="5"/>
<path d="M4445,599 l60,0 l0,60 l-60,0 z" fill="green"/>
<path d="M4475,629 l0.5,-52" stroke="black" stroke-width="5"/>
<path d="M4457,7172 l60,0 l0,60 l-60,0 z" fill="green"/>
<path d="M4487,7202 l335.5,54.5" stroke="black" stroke-width="5"/>
<path d="M9359,3998 l60,0 l0,60 l-60,0 z" fill="green"/>
<path d="M9389,4028 l212.5,-241" stroke="black" stroke-width="5"/>
<path d="M6179,2672 l60,0 l0,60 l-60,0 z" fill="green"/>
<path d="M6209,2702 l-765.5,-416" stroke="black" stroke-width="5"/>
<path d="M6343,8513 l60,0 l0,60 l-60,0 z" fill="green"/>
<path d="M6373,8543 l0,185.5" stroke="black" stroke-width="5"/>
<path d="M4957,3917 l60,0 l0,60 l-60,0 z" fill="green"/>
<path d="M4987,3947 l0.5,0.5" stroke="black" stroke-width="5"/>
<path d="M9047,905 l60,0 l0,60 l-60,0 z" fill="green"/>
<path d="M9077,935 l-435.5,0.5" stroke="black" stroke-width="5"/>
<path d="M120,4749 l60,0 l0,60 l-60,0 z" fill="green"/>
<path d="M150,4779 l62,0" stroke="black" stroke-width="5"/>
<path d="M6800,3719 l60,0 l0,60 l-60,0 z" fill="green"/>
<path d="M6830,3749 l719.5,-87" stroke="black" stroke-width="5"/>
<path d="M7458,1412 l60,0 l0,60 l-60,0 z" fill="green"/>
<path d="M7488,1442 l181.5,-1.5" stroke="black" stroke-width="5"/>
<path d="M6043,7387 l60,0 l0,60 l-60,0 z" fill="green"/>
<path d="M6073,7417 l0.5,-133" stroke="black" stroke-width="5"/>
<path d="M1908,1234 l60,0 l0,60 l-60,0 z" fill="green"/>
<path d="M1938,1264 l184.5,0.5" stroke="black" stroke-width="5"/>
<path d="M2870,8174 l60,0 l0,60 l-60,0 z" fill="green"/>
<path d="M2900,8204 l0.5,0.5" stroke="black" stroke-width="5"/>
<path d="M4823,6006 l60,0 l0,60 l-60,0 z" fill="green"/>
<path d="M4853,6036 l0.5,0" stroke="black" stroke-width="5"/>
<path d="M4875,6518 l60,0 l0,60 l-60,0 z" fill="green"/>
<path d="M4905,6548 l292,78.5" stroke="black" stroke-width="5"/>
<path d="M783,2397 l60,0 l0,60 l-60,0 z" fill="green"/>
<path d="M813,2427 l35.5,-48.5" stroke="black" stroke-width="5"/>
<path d="M1804,9249 l60,0 l0,60 l-60,0 z" fill="green"/>
<path d="M1834,9279 l1113,241.5" stroke="black" stroke-width="5"/>
<path d="M4122,2784 l60,0 l0,60 l-60,0 z" fill="green"/>
<path d="M4152,2814 l0.5,-144.5" stroke="black" stroke-width="5"/>
<path d="M9524,8693 l60,0 l0,60 l-60,0 z" fill="green"/>
<path d="M9554,8723 l-109,638.5" stroke="black" stroke-width="5"/>
<path d="M309,2005 l60,0 l0,60 l-60,0 z" fill="green"/>
<path d="M339,2035 l0.5,0.5" stroke="black" stroke-width="5"/>
<path d="M5303,9362 l60,0 l0,60 l-60,0 z" fill="green"/>
<path d="M5333,9392 l0,0.5" stroke="black" stroke-width="5"/>
<path d="M4886,5236 l60,0 l0,60 l-60,0 z" fill="green"/>
<path d="M4916,5266 l0.5,72.5" stroke="black" stroke-width="5"/>
<path d="M4987,3384 l60,0 l0,60 l-60,0 z" fill="green"/>
<path d="M5017,3414 l0.5,-28.5" stroke="black" stroke-width="5"/>
<path d="M7614,5404 l60,0 l0,60 l-60,0 z" fill="green"/>
<path d="M7644,5434 l-232.5,0.5" stroke="black" stroke-width="5"/>
<path d="M8971,5740 l60,0 l0,60 l-60,0 z" fill="green"/>
<path d="M9001,5770 l101,-36" stroke="black" stroke-width="5"/>
<path d="M2669,2740 l60,0 l0,60 l-60,0 z" fill="green"/>
<path d="M2699,2770 l183.5,-142" stroke="black" stroke-width="5"/>
<path d="M4515,7505 l60,0 l0,60 l-60,0 z" fill="green"/>
<path d="M4545,7535 l-1987,0.5" stroke="black" stroke-width="5"/>
<path d="M9559,511 l60,0 l0,60 l-60,0 z" fill="green"/>
<path d="M9589,541 l-50,255.5" stroke="black" stroke-width="5"/>
<path d="M4254,6014 l60,0 l0,60 l-60,0 z" fill="green"/>
<path d="M4284,6044 l-187.5,-169.5" stroke="black" stroke-width="5"/>
<path d="M6409,8178 l60,0 l0,60 l-60,0 z" fill="green"/>
<path d="M6439,8208 l-15.5,-227.5" stroke="black" stroke-width="5"/>
<path d="M574,6107 l60,0 l0,60 l-60,0 z" fill="green"/>
<path d="M604,6137 l0,0" stroke="black" stroke-width="5"/>
<path d="M3123,447 l60,0 l0,60 l-60,0 z" fill="green"/>
<path d="M3153,477 l0.5,0.5" stroke="black" stroke-width="5"/>
<path d="M121,491 l60,0 l0,60 l-60,0 z" fill="green"/>
<path d="M151,521 l91.5,-260" stroke="black" stroke-width="5"/>
<path d="M7172,6825 l60,0 l0,60 l-60,0 z" fill="green"/>
<path d="M7202,6855 l54,-195.5" stroke="black" stroke-width="5"/>
<path d="M6866,6520 l60,0 l0,60 l-60,0 z" fill="green"/>
<path d="M6896,6550 l-74,-225.5" stroke="black" stroke-width="5"/>
<path d="M7958,7295 l60,0 l0,60 l-60,0 z" fill="green"/>
<path d="M7988,7325 l-186,43" stroke="black" stroke-width="5"/>
<path d="M1800,5721 l60,0 l0,60 l-60,0 z" fill="green"/>
<path d="M1830,5751 l0,0.5" stroke="black" stroke-width="5"/>
<path d="M7105,8241 l60,0 l0,60 l-60,0 z" fill="green"/>
<path d="M7135,8271 l0.5,746" stroke="black" stroke-width="5"/>
<path d="M132,6983 l60,0 l0,60 l-60,0 z" fill="green"/>
<path d="M162,7013 l86.5,0.5" stroke="black" stroke-width="5"/>
<path d="M3417,6865 l60,0 l0,60 l-60,0 z" fill="green"/>
<path d="M3447,6895 l0.5,0" stroke="black" stroke-width="5"/>
<path d="M6259,2646 l60,0 l0,60 l-60,0 z" fill="green"/>
<path d="M6289,2676 l436.5,-25" stroke="black" stroke-width="5"/>
<path d="M9855,8247 l60,0 l0,60 l-60,0 z" fill="green"/>
<path d="M9885,8277 l-251,-85.5" stroke="black" stroke-width="5"/>
<path d="M4418,5021 l60,0 l0,60 l-60,0 z" fill="green"/>
<path d="M4448,5051 l-1560,144" stroke="black" stroke-width="5"/>
<path d="M3945,1247 l60,0 l0,60 l-60,0 z" fill="green"/>
<path d="M3975,1277 l-67.5,136" stroke="black" stroke-width="5"/>
<path d="M7769,8854 l60,0 l0,60 l-60,0 z" fill="green"/>
<path d="M7799,8884 l213.5,-180.5" stroke="black" stroke-width="5"/>
<path d="M4364,1085 l60,0 l0,60 l-60,0 z" fill="green"/>
<path d="M4394,1115 l0,60" stroke="black" stroke-width="5"/>
<path d="M8011,5202 l60,0 l0,60 l-60,0 z" fill="green"/>
<path d="M8041,5232 l1,-94" stroke="black" stroke-width="5"/>
<path d="M2132,3503 l60,0 l0,60 l-60,0 z" fill="green"/>
<path d="M2162,3533 l0.5,0.5" stroke="black" stroke-width="5"/>
<path d="M9654,5280 l60,0 l0,60 l-60,0 z" fill="green"/>
<path d="M9684,5310 l-82.5,0" stroke="black" stroke-width="5"/>
<path d="M1977,2768 l60,0 l0,60 l-60,0 z" fill="green"/>
<path d="M2007,2798 l-328,53" stroke="black" stroke-width="5"/>
<path d="M7856,9659 l60,0 l0,60 l-60,0 z" fill="green"/>
<path d="M7886,9689 l0.5,-2.5" stroke="black" stroke-width="5"/>
<path d="M4290,6947 l60,0 l0,60 l-60,0 z" fill="green"/>
<path d="M4320,6977 l-46.5,-232.5" stroke="black" stroke-width="5"/>
<path d="M2131,79 l60,0 l0,60 l-60,0 z" fill="green"/>
<path d="M2161,109 l0.5,247.5" stroke="black" stroke-width="5"/>
<path d="M352,3115 l60,0 l0,60 l-60,0 z" fill="green"/>
<path d="M382,3145 l134,0" stroke="black" stroke-width="5"/>
<path d="M1616,7736 l60,0 l0,60 l-60,0 z" fill="green"/>
<path d="M1646,7766 l238.5,-114.5" stroke="black" stroke-width="5"/>
<path d="M6557,1822 l60,0 l0,60 l-60,0 z" fill="green"/>
<path d="M6587,1852 l639,104" stroke="black" stroke-width="5"/>
<path d="M8473,7288 l60,0 l0,60 l-60,0 z" fill="green"/>
<path d="M8503,7318 l-8,50" stroke="black" stroke-width="5"/>
<path d="M5893,824 l60,0 l0,60 l-60,0 z" fill="green"/>
<path d="M5923,854 l34,-81.5" stroke="black" stroke-width="5"/>
<path d="M2436,4425 l60,0 l0,60 l-60,0 z" fill="green"/>
<path d="M2466,4455 l0.5,0.5" stroke="black" stroke-width="5"/>
<path d="M3963,6480 l60,0 l0,60 l-60,0 z" fill="green"/>
<path d="M3993,6510 l280.5,-49.5" stroke="black" stroke-width="5"/>
<path d="M1090,1835 l60,0 l0,60 l-60,0 z" fill="green"/>
<path d="M1120,1865 l-197,125.5" stroke="black" stroke-width="5"/>
<path d="M4964,5069 l60,0 l0,60 l-60,0 z" fill="green"/>
<path d="M4994,5099 l112,-301" stroke="black" stroke-width="5"/>
<path d="M6443,2081 l60,0 l0,60 l-60,0 z" fill="green"/>
<path d="M6473,2111 l1263.5,0.5" stroke="black" stroke-width="5"/>
<path d="M7975,5411 l60,0 l0,60 l-60,0 z" fill="green"/>
<path d="M8005,5441 l0.5,131" stroke="black" stroke-width="5"/>
<path d="M1114,-9 l60,0 l0,60 l-60,0 z" fill="green"/>
<path d="M1144,21 l-123,240" stroke="black" stroke-width="5"/>
<path d="M4103,4546 l60,0 l0,60 l-60,0 z" fill="green"/>
<path d="M4133,4576 l101.5,-643" stroke="black" stroke-width="5"/>
<path d="M8859,8874 l60,0 l0,60 l-60,0 z" fill="green"/>
<path d="M8889,8904 l0.5,113" stroke="black" stroke-width="5"/>
<path d="M2207,2551 l60,0 l0,60 l-60,0 z" fill="green"/>
<path d="M2237,2581 l13,0" stroke="black" stroke-width="5"/>
<path d="M2724,1348 l60,0 l0,60 l-60,0 z" fill="green"/>
<path d="M2754,1378 l0.5,0.5" stroke="black" stroke-width="5"/>
<path d="M5636,5634 l60,0 l0,60 l-60,0 z" fill="green"/>
<path d="M5666,5664 l122.5,15" stroke="black" stroke-width="5"/>
<path d="M1515,8281 l60,0 l0,60 l-60,0 z" fill="green"/>
<path d="M1545,8311 l0,0.5" stroke="black" stroke-width="5"/>
<path d="M8804,5649 l60,0 l0,60 l-60,0 z" fill="green"/>
<path d="M8834,5679 l-33.5,0.5" stroke="black" stroke-width="5"/>
<path d="M5952,1428 l60,0 l0,60 l-60,0 z" fill="green"/>
<path d="M5982,1458 l0,0.5" stroke="black" stroke-width="5"/>
<path d="M7674,6620 l60,0 l0,60 l-60,0 z" fill="green"/>
<path d="M7704,6650 l0,0.5" stroke="black" stroke-width="5"/>
<path d="M3471,4129 l60,0 l0,60 l-60,0 z" fill="green"/>
<path d="M3501,4159 l0,0.5" stroke="black" stroke-width="5"/>
<path d="M6849,4249 l60,0 l0,60 l-60,0 z" fill="green"/>
<path d="M6879,4279 l0.5,0.5" stroke="black" stroke-width="5"/>
<path d="M4572,9157 l60,0 l0,60 l-60,0 z" fill="green"/>
<path d="M4602,9187 l0,0" stroke="black" stroke-width="5"/>
<path d="M7261,3030 l60,0 l0,60 l-60,0 z" fill="green"/>
<path d="M7291,3060 l0.5,0.5" stroke="black" stroke-width="5"/>
<path d="M939,8783 l60,0 l0,60 l-60,0 z" fill="green"/>
<path d="M969,8813 l0,-168.5" stroke="black" stroke-width="5"/>
<path d="M1071,9927 l60,0 l0,60 l-60,0 z" fill="green"/>
<path d="M1101,9957 l-285.5,-550" stroke="black" stroke-width="5"/>
<path d="M5828,3109 l60,0 l0,60 l-60,0 z" fill="green"/>
<path d="M5858,3139 l0,0" stroke="black" stroke-width="5"/>
<path d="M1831,1201 l60,0 l0,60 l-60,0 z" fill="green"/>
<path d="M1861,1231 l-556,-15" stroke="black" stroke-width="5"/>
<path d="M7701,8003 l60,0 l0,60 l-60,0 z" fill="green"/>
<path d="M7731,8033 l333,-307" stroke="black" stroke-width="5"/>
<path d="M8401,6120 l60,0 l0,60 l-60,0 z" fill="green"/>
<path d="M8431,6150 l0,9.5" stroke="black" stroke-width="5"/>
<path d="M4639,7854 l60,0 l0,60 l-60,0 z" fill="green"/>
<path d="M4669,7884 l0.5,49.5" stroke="black" stroke-width="5"/>
<path d="M6716,6602 l60,0 l0,60 l-60,0 z" fill="green"/>
<path d="M6746,6632 l-305,-46" stroke="black" stroke-width="5"/>
<path d="M9730,2139 l60,0 l0,60 l-60,0 z" fill="green"/>
<path d="M9760,2169 l-168,0" stroke="black" stroke-width="5"/>
<path d="M6457,946 l60,0 l0,60 l-60,0 z" fill="green"/>
<path d="M6487,976 l-144.5,-139.5" stroke="black" stroke-width="5"/>
<path d="M1880,6609 l60,0 l0,60 l-60,0 z" fill="green"/>
<path d="M1910,6639 l-45,120.5" stroke="black" stroke-width="5"/>
<path d="M6877,1085 l60,0 l0,60 l-60,0 z" fill="green"/>
<path d="M6907,1115 l81,0" stroke="black" stroke-width="5"/>
<path d="M1536,1689 l60,0 l0,60 l-60,0 z" fill="green"/>
<path d="M1566,1719 l126,347.5" stroke="black" stroke-width="5"/>
<path d="M5452,5752 l60,0 l0,60 l-60,0 z" fill="green"/>
<path d="M5482,5782 l-194,-11.5" stroke="black" stroke-width="5"/>
<path d="M8504,6725 l60,0 l0,60 l-60,0 z" fill="green"/>
<path d="M8534,6755 l-226,281.5" stroke="black" stroke-width="5"/>
<path d="M8474,6478 l60,0 l0,60 l-60,0 z" fill="green"/>
<path d="M8504,6508 l-68,72" stroke="black" stroke-width="5"/>
<path d="M5517,456 l60,0 l0,60 l-60,0 z" fill="green"/>
<path d="M5547,486 l0,0.5" stroke="black" stroke-width="5"/>
<path d="M5681,7732 l60,0 l0,60 l-60,0 z" fill="green"/>
<path d="M5711,7762 l-297,530" stroke="black" stroke-width="5"/>
<path d="M2932,5003 l60,0 l0,60 l-60,0 z" fill="green"/>
<path d="M2962,5033 l-740,-89.5" stroke="black" stroke-width="5"/>
<path d="M1880,8011 l60,0 l0,60 l-60,0 z" fill="green"/>
<path d="M1910,8041 l109.5,127" stroke="black" stroke-width="5"/>
<text font-size="140.028008402801" text-anchor="middle" x="374" y="1164.0098029409803">
0
</text>
<text font-size="140.028008402801" text-anchor="middle" x="8028" y="949.5098029409803">
1
</text>
<text font-size="140.028008402801" text-anchor="middle" x="2032" y="9970.00980294098">
2
</text>
<text font-size="140.028008402801" text-anchor="middle" x="1786" y="9157.00980294098">
3
</text>
<text font-size="140.028008402801" text-anchor="middle" x="4475.5" y="626.0098029409803">
4
</text>
<text font-size="140.028008402801" text-anchor="middle" x="4822.5" y="7305.50980294098">
5
</text>
<text font-size="140.028008402801" text-anchor="middle" x="9601.5" y="3836.0098029409805">
6
</text>
<text font-size="140.028008402801" text-anchor="middle" x="5443.5" y="2335.0098029409805">
7
</text>
<text font-size="140.028008402801" text-anchor="middle" x="6373" y="8777.50980294098">
8
</text>
<text font-size="140.028008402801" text-anchor="middle" x="4987.5" y="3996.5098029409805">
9
</text>
<text font-size="140.028008402801" text-anchor="middle" x="8641.5" y="984.5098029409803">
10
</text>
<text font-size="140.028008402801" text-anchor="middle" x="212" y="4828.00980294098">
11
</text>
<text font-size="140.028008402801" text-anchor="middle" x="7549.5" y="3711.0098029409805">
12
</text>
<text font-size="140.028008402801" text-anchor="middle" x="7669.5" y="1489.5098029409803">
13
</text>
<text font-size="140.028008402801" text-anchor="middle" x="6073.5" y="7333.00980294098">
14
</text>
<text font-size="140.028008402801" text-anchor="middle" x="2122.5" y="1313.5098029409803">
15
</text>
<text font-size="140.028008402801" text-anchor="middle" x="2900.5" y="8253.50980294098">
16
</text>
<text font-size="140.028008402801" text-anchor="middle" x="4853.5" y="6085.00980294098">
17
</text>
<text font-size="140.028008402801" text-anchor="middle" x="5197" y="6675.50980294098">
18
</text>
<text font-size="140.028008402801" text-anchor="middle" x="848.5" y="2427.5098029409805">
19
</text>
<text font-size="140.028008402801" text-anchor="middle" x="2947" y="9569.50980294098">
20
</text>
<text font-size="140.028008402801" text-anchor="middle" x="4152.5" y="2718.5098029409805">
21
</text>
<text font-size="140.028008402801" text-anchor="middle" x="9445" y="9410.50980294098">
22
</text>
<text font-size="140.028008402801" text-anchor="middle" x="339.5" y="2084.5098029409805">
23
</text>
<text font-size="140.028008402801" text-anchor="middle" x="5333" y="9441.50980294098">
24
</text>
<text font-size="140.028008402801" text-anchor="middle" x="4916.5" y="5387.50980294098">
25
</text>
<text font-size="140.028008402801" text-anchor="middle" x="5017.5" y="3434.5098029409805">
26
</text>
<text font-size="140.028008402801" text-anchor="middle" x="7411.5" y="5483.50980294098">
27
</text>
<text font-size="140.028008402801" text-anchor="middle" x="9102" y="5783.00980294098">
28
</text>
<text font-size="140.028008402801" text-anchor="middle" x="2882.5" y="2677.0098029409805">
29
</text>
<text font-size="140.028008402801" text-anchor="middle" x="2558" y="7584.50980294098">
30
</text>
<text font-size="140.028008402801" text-anchor="middle" x="9539" y="845.5098029409803">
31
</text>
<text font-size="140.028008402801" text-anchor="middle" x="4096.5" y="5923.50980294098">
32
</text>
<text font-size="140.028008402801" text-anchor="middle" x="6423.5" y="8029.50980294098">
33
</text>
<text font-size="140.028008402801" text-anchor="middle" x="604" y="6186.00980294098">
34
</text>
<text font-size="140.028008402801" text-anchor="middle" x="3153.5" y="526.5098029409803">
35
</text>
<text font-size="140.028008402801" text-anchor="middle" x="242.5" y="310.00980294098036">
36
</text>
<text font-size="140.028008402801" text-anchor="middle" x="7256" y="6708.50980294098">
37
</text>
<text font-size="140.028008402801" text-anchor="middle" x="6822" y="6373.50980294098">
38
</text>
<text font-size="140.028008402801" text-anchor="middle" x="7802" y="7417.00980294098">
39
</text>
<text font-size="140.028008402801" text-anchor="middle" x="1830" y="5800.50980294098">
40
</text>
<text font-size="140.028008402801" text-anchor="middle" x="7135.5" y="9066.00980294098">
41
</text>
<text font-size="140.028008402801" text-anchor="middle" x="248.5" y="7062.50980294098">
42
</text>
<text font-size="140.028008402801" text-anchor="middle" x="3447.5" y="6944.00980294098">
43
</text>
<text font-size="140.028008402801" text-anchor="middle" x="6725.5" y="2700.0098029409805">
44
</text>
<text font-size="140.028008402801" text-anchor="middle" x="9634" y="8240.50980294098">
45
</text>
<text font-size="140.028008402801" text-anchor="middle" x="2888" y="5244.00980294098">
46
</text>
<text font-size="140.028008402801" text-anchor="middle" x="3907.5" y="1462.0098029409803">
47
</text>
<text font-size="140.028008402801" text-anchor="middle" x="8012.5" y="8752.50980294098">
48
</text>
<text font-size="140.028008402801" text-anchor="middle" x="4394" y="1224.0098029409803">
49
</text>
<text font-size="140.028008402801" text-anchor="middle" x="8042" y="5187.00980294098">
50
</text>
<text font-size="140.028008402801" text-anchor="middle" x="2162.5" y="3582.5098029409805">
51
</text>
<text font-size="140.028008402801" text-anchor="middle" x="9601.5" y="5359.00980294098">
52
</text>
<text font-size="140.028008402801" text-anchor="middle" x="1679" y="2900.0098029409805">
53
</text>
<text font-size="140.028008402801" text-anchor="middle" x="7886.5" y="9735.50980294098">
54
</text>
<text font-size="140.028008402801" text-anchor="middle" x="4273.5" y="6793.50980294098">
55
</text>
<text font-size="140.028008402801" text-anchor="middle" x="2161.5" y="405.50980294098036">
56
</text>
<text font-size="140.028008402801" text-anchor="middle" x="516" y="3194.0098029409805">
57
</text>
<text font-size="140.028008402801" text-anchor="middle" x="1884.5" y="7700.50980294098">
58
</text>
<text font-size="140.028008402801" text-anchor="middle" x="7226" y="2005.0098029409803">
59
</text>
<text font-size="140.028008402801" text-anchor="middle" x="8495" y="7417.00980294098">
60
</text>
<text font-size="140.028008402801" text-anchor="middle" x="5957" y="821.5098029409803">
61
</text>
<text font-size="140.028008402801" text-anchor="middle" x="2466.5" y="4504.50980294098">
62
</text>
<text font-size="140.028008402801" text-anchor="middle" x="4273.5" y="6509.50980294098">
63
</text>
<text font-size="140.028008402801" text-anchor="middle" x="923" y="2039.5098029409803">
64
</text>
<text font-size="140.028008402801" text-anchor="middle" x="5106" y="4847.00980294098">
65
</text>
<text font-size="140.028008402801" text-anchor="middle" x="7736.5" y="2160.5098029409805">
66
</text>
<text font-size="140.028008402801" text-anchor="middle" x="8005.5" y="5621.00980294098">
67
</text>
<text font-size="140.028008402801" text-anchor="middle" x="1021" y="310.00980294098036">
68
</text>
<text font-size="140.028008402801" text-anchor="middle" x="4234.5" y="3982.0098029409805">
69
</text>
<text font-size="140.028008402801" text-anchor="middle" x="8889.5" y="9066.00980294098">
70
</text>
<text font-size="140.028008402801" text-anchor="middle" x="2250" y="2630.0098029409805">
71
</text>
<text font-size="140.028008402801" text-anchor="middle" x="2754.5" y="1427.5098029409803">
72
</text>
<text font-size="140.028008402801" text-anchor="middle" x="5788.5" y="5728.00980294098">
73
</text>
<text font-size="140.028008402801" text-anchor="middle" x="1545" y="8360.50980294098">
74
</text>
<text font-size="140.028008402801" text-anchor="middle" x="8800.5" y="5728.50980294098">
75
</text>
<text font-size="140.028008402801" text-anchor="middle" x="5982" y="1507.5098029409803">
76
</text>
<text font-size="140.028008402801" text-anchor="middle" x="7704" y="6699.50980294098">
77
</text>
<text font-size="140.028008402801" text-anchor="middle" x="3501" y="4208.50980294098">
78
</text>
<text font-size="140.028008402801" text-anchor="middle" x="6879.5" y="4328.50980294098">
79
</text>
<text font-size="140.028008402801" text-anchor="middle" x="4602" y="9236.00980294098">
80
</text>
<text font-size="140.028008402801" text-anchor="middle" x="7291.5" y="3109.5098029409805">
81
</text>
<text font-size="140.028008402801" text-anchor="middle" x="969" y="8693.50980294098">
82
</text>
<text font-size="140.028008402801" text-anchor="middle" x="815.5" y="9456.00980294098">
83
</text>
<text font-size="140.028008402801" text-anchor="middle" x="5858" y="3188.0098029409805">
84
</text>
<text font-size="140.028008402801" text-anchor="middle" x="1305" y="1265.0098029409803">
85
</text>
<text font-size="140.028008402801" text-anchor="middle" x="8064" y="7775.00980294098">
86
</text>
<text font-size="140.028008402801" text-anchor="middle" x="8431" y="6208.50980294098">
87
</text>
<text font-size="140.028008402801" text-anchor="middle" x="4669.5" y="7982.50980294098">
88
</text>
<text font-size="140.028008402801" text-anchor="middle" x="6441" y="6635.00980294098">
89
</text>
<text font-size="140.028008402801" text-anchor="middle" x="9592" y="2218.0098029409805">
90
</text>
<text font-size="140.028008402801" text-anchor="middle" x="6342.5" y="885.5098029409803">
91
</text>
<text font-size="140.028008402801" text-anchor="middle" x="1865" y="6808.50980294098">
92
</text>
<text font-size="140.028008402801" text-anchor="middle" x="6988" y="1164.0098029409803">
93
</text>
<text font-size="140.028008402801" text-anchor="middle" x="1692" y="2115.5098029409805">
94
</text>
<text font-size="140.028008402801" text-anchor="middle" x="5288" y="5819.50980294098">
95
</text>
<text font-size="140.028008402801" text-anchor="middle" x="8308" y="7085.50980294098">
96
</text>
<text font-size="140.028008402801" text-anchor="middle" x="8436" y="6629.00980294098">
97
</text>
<text font-size="140.028008402801" text-anchor="middle" x="5547" y="535.5098029409803">
98
</text>
<text font-size="140.028008402801" text-anchor="middle" x="5414" y="8341.00980294098">
99
</text>
<text font-size="140.028008402801" text-anchor="middle" x="2222" y="4992.50980294098">
100
</text>
<text font-size="140.028008402801" text-anchor="middle" x="2019.5" y="8217.00980294098">
101
</text>
</svg>