<svg viewBox="-100 -100 10200 10200" xmlns="http://www.w3.org/2000/svg">
<path d="M0,0 l10000,0 l0,10000 l-10000,0 z" fill="white"/>
<path d="M6070,4112 l831,0 l0,1635 l-831,0 z" fill="#d100ff" stroke="black" stroke-width="5"/>
<path d="M8274,1507 l607,0 l0,459 l-607,0 z" fill="#fe00ff" stroke="black" stroke-width="5"/>
<path d="M457,302 l1189,0 l0,926 l-1189,0 z" fill="#fe00ff" stroke="black" stroke-width="5"/>
<path d="M3353,942 l856,0 l0,751 l-856,0 z" fill="#fe00ff" stroke="black" stroke-width="5"/>
<path d="M3684,1693 l240,0 l0,240 l-240,0 z" fill="#fe00ff" stroke="black" stroke-width="5"/>
<path d="M639,7100 l909,0 l0,1045 l-909,0 z" fill="#fe00ff" stroke="black" stroke-width="5"/>
<path d="M4472,1117 l1,0 l0,666 l-1,0 z" fill="#0000ff" stroke="black" stroke-width="5"/>
<path d="M7360,8808 l348,0 l0,348 l-348,0 z" fill="#fe00ff" stroke="black" stroke-width="5"/>
<path d="M5491,5747 l837,0 l0,664 l-837,0 z" fill="#fe00ff" stroke="black" stroke-width="5"/>
<path d="M2914,2772 l269,0 l0,268 l-269,0 z" fill="#fe00ff" stroke="black" stroke-width="5"/>
<path d="M578,5102 l759,0 l0,914 l-759,0 z" fill="#fe00ff" stroke="black" stroke-width="5"/>
<path d="M6129,520 l643,0 l0,1582 l-643,0 z" fill="#fa00ff" stroke="black" stroke-width="5"/>
<path d="M5442,5119 l628,0 l0,628 l-628,0 z" fill="#fe00ff" stroke="black" stroke-width="5"/>
<path d="M6796,2440 l814,0 l0,640 l-814,0 z" fill="#fe00ff" stroke="black" stroke-width="5"/>
<path d="M8559,456 l56,0 l0,1051 l-56,0 z" fill="#0000ff" stroke="black" stroke-width="5"/>
<path d="M1159,3306 l824,0 l0,823 l-824,0 z" fill="#fe00ff" stroke="black" stroke-width="5"/>
<path d="M2820,0 l1237,0 l0,351 l-1237,0 z" fill="#fe00ff" stroke="black" stroke-width="5"/>
<path d="M0,1775 l2152,0 l0,1 l-2152,0 z" fill="#0000ff" stroke="black" stroke-width="5"/>
<path d="M2132,3040 l1101,0 l0,1617 l-1101,0 z" fill="#fe00ff" stroke="black" stroke-width="5"/>
<path d="M5106,804 l570,0 l0,805 l-570,0 z" fill="#fe00ff" stroke="black" stroke-width="5"/>
<path d="M167,6578 l322,0 l0,321 l-322,0 z" fill="#fe00ff" stroke="black" stroke-width="5"/>
<path d="M1646,840 l885,0 l0,834 l-885,0 z" fill="#0900ff" stroke="black" stroke-width="5"/>
<path d="M2152,1674 l297,0 l0,297 l-297,0 z" fill="#fe00ff" stroke="black" stroke-width="5"/>
<path d="M8109,1966 l761,0 l0,381 l-761,0 z" fill="#fe00ff" stroke="black" stroke-width="5"/>
<path d="M5982,7134 l1891,0 l0,470 l-1891,0 z" fill="#c200ff" stroke="black" stroke-width="5"/>
<path d="M3233,3689 l783,0 l0,1098 l-783,0 z" fill="#fe00ff" stroke="black" stroke-width="5"/>
<path d="M8740,5445 l949,0 l0,948 l-949,0 z" fill="#fe00ff" stroke="black" stroke-width="5"/>
<path d="M257,7018 l382,0 l0,1127 l-382,0 z" fill="#2900ff" stroke="black" stroke-width="5"/>
<path d="M6435,7604 l666,0 l0,665 l-666,0 z" fill="#fe00ff" stroke="black" stroke-width="5"/>
<path d="M6772,785 l501,0 l0,500 l-501,0 z" fill="#fe00ff" stroke="black" stroke-width="5"/>
<path d="M1476,5960 l815,0 l0,815 l-815,0 z" fill="#fe00ff" stroke="black" stroke-width="5"/>
<path d="M9505,7681 l495,0 l0,1471 l-495,0 z" fill="#fe00ff" stroke="black" stroke-width="5"/>
<path d="M740,4281 l733,0 l0,732 l-733,0 z" fill="#fe00ff" stroke="black" stroke-width="5"/>
<path d="M9405,6885 l521,0 l0,342 l-521,0 z" fill="#fe00ff" stroke="black" stroke-width="5"/>
<path d="M3574,9207 l1110,0 l0,175 l-1110,0 z" fill="#0400ff" stroke="black" stroke-width="5"/>
<path d="M6365,5747 l1732,0 l0,1138 l-1732,0 z" fill="#fe00ff" stroke="black" stroke-width="5"/>
<path d="M8097,5669 l423,0 l0,2103 l-423,0 z" fill="#fe00ff" stroke="black" stroke-width="5"/>
<path d="M96,2449 l419,0 l0,418 l-419,0 z" fill="#fe00ff" stroke="black" stroke-width="5"/>
<path d="M391,3207 l768,0 l0,1074 l-768,0 z" fill="#fe00ff" stroke="black" stroke-width="5"/>
<path d="M2058,8824 l607,0 l0,1176 l-607,0 z" fill="#df00ff" stroke="black" stroke-width="5"/>
<path d="M5981,7134 l1,0 l0,2866 l-1,0 z" fill="#0000ff" stroke="black" stroke-width="5"/>
<path d="M8081,3548 l455,0 l0,455 l-455,0 z" fill="#fe00ff" stroke="black" stroke-width="5"/>
<path d="M4654,6151 l837,0 l0,730 l-837,0 z" fill="#fe00ff" stroke="black" stroke-width="5"/>
<path d="M4962,4083 l827,0 l0,413 l-827,0 z" fill="#fe00ff" stroke="black" stroke-width="5"/>
<path d="M4844,804 l262,0 l0,313 l-262,0 z" fill="#fe00ff" stroke="black" stroke-width="5"/>
<path d="M1255,9047 l803,0 l0,802 l-803,0 z" fill="#fe00ff" stroke="black" stroke-width="5"/>
<path d="M9023,2216 l977,0 l0,1010 l-977,0 z" fill="#fe00ff" stroke="black" stroke-width="5"/>
<path d="M257,8145 l557,0 l0,735 l-557,0 z" fill="#fe00ff" stroke="black" stroke-width="5"/>
<path d="M4209,0 l635,0 l0,1117 l-635,0 z" fill="#b600ff" stroke="black" stroke-width="5"/>
<path d="M7610,2457 l1413,0 l0,432 l-1413,0 z" fill="#5c00ff" stroke="black" stroke-width="5"/>
<path d="M9405,7227 l595,0 l0,454 l-595,0 z" fill="#3500ff" stroke="black" stroke-width="5"/>
<path d="M4473,1117 l633,0 l0,666 l-633,0 z" fill="#5900ff" stroke="black" stroke-width="5"/>
<path d="M6525,8435 l614,0 l0,614 l-614,0 z" fill="#fe00ff" stroke="black" stroke-width="5"/>
<path d="M7744,8479 l1293,0 l0,1293 l-1293,0 z" fill="#fe00ff" stroke="black" stroke-width="5"/>
<path d="M4209,1117 l263,0 l0,666 l-263,0 z" fill="#0e00ff" stroke="black" stroke-width="5"/>
<path d="M8615,0 l1385,0 l0,894 l-1385,0 z" fill="#fe00ff" stroke="black" stroke-width="5"/>
<path d="M2531,862 l822,0 l0,410 l-822,0 z" fill="#fe00ff" stroke="black" stroke-width="5"/>
<path d="M380,1228 l662,0 l0,547 l-662,0 z" fill="#fe00ff" stroke="black" stroke-width="5"/>
<path d="M7305,4855 l1408,0 l0,722 l-1408,0 z" fill="#fe00ff" stroke="black" stroke-width="5"/>
<path d="M6901,4112 l404,0 l0,972 l-404,0 z" fill="#4100ff" stroke="black" stroke-width="5"/>
<path d="M5317,6881 l664,0 l0,688 l-664,0 z" fill="#fe00ff" stroke="black" stroke-width="5"/>
<path d="M4684,8885 l1121,0 l0,1115 l-1121,0 z" fill="#fe00ff" stroke="black" stroke-width="5"/>
<path d="M257,6899 l2902,0 l0,119 l-2902,0 z" fill="#0700ff" stroke="black" stroke-width="5"/>
<path d="M5676,0 l453,0 l0,2102 l-453,0 z" fill="#f500ff" stroke="black" stroke-width="5"/>
<path d="M3159,6824 l770,0 l0,769 l-770,0 z" fill="#fe00ff" stroke="black" stroke-width="5"/>
<path d="M4940,4496 l695,0 l0,458 l-695,0 z" fill="#fe00ff" stroke="black" stroke-width="5"/>
<path d="M4844,0 l77,0 l0,804 l-77,0 z" fill="#0000ff" stroke="black" stroke-width="5"/>
<path d="M4575,3542 l236,0 l0,236 l-236,0 z" fill="#fe00ff" stroke="black" stroke-width="5"/>
<path d="M9037,9152 l963,0 l0,848 l-963,0 z" fill="#5a00ff" stroke="black" stroke-width="5"/>
<path d="M4921,404 l459,0 l0,400 l-459,0 z" fill="#fe00ff" stroke="black" stroke-width="5"/>
<path d="M7273,456 l1286,0 l0,829 l-1286,0 z" fill="#fa00ff" stroke="black" stroke-width="5"/>
<path d="M8520,6393 l505,0 l0,1379 l-505,0 z" fill="#d300ff" stroke="black" stroke-width="5"/>
<path d="M5577,297 l78,0 l0,77 l-78,0 z" fill="#fe00ff" stroke="black" stroke-width="5"/>
<path d="M7873,7134 l224,0 l0,224 l-224,0 z" fill="#fe00ff" stroke="black" stroke-width="5"/>
<path d="M257,8880 l998,0 l0,1120 l-998,0 z" fill="#e500ff" stroke="black" stroke-width="5"/>
<path d="M5981,6885 l2116,0 l0,249 l-2116,0 z" fill="#5a00ff" stroke="black" stroke-width="5"/>
<path d="M8615,894 l1385,0 l0,1 l-1385,0 z" fill="#0000ff" stroke="black" stroke-width="5"/>
<path d="M5726,2102 l1070,0 l0,978 l-1070,0 z" fill="#fe00ff" stroke="black" stroke-width="5"/>
<path d="M3258,9067 l316,0 l0,315 l-316,0 z" fill="#fe00ff" stroke="black" stroke-width="5"/>
<path d="M2916,351 l527,0 l0,511 l-527,0 z" fill="#fe00ff" stroke="black" stroke-width="5"/>
<path d="M7610,2347 l1413,0 l0,110 l-1413,0 z" fill="#0100ff" stroke="black" stroke-width="5"/>
<path d="M6129,456 l1144,0 l0,64 l-1144,0 z" fill="#0000ff" stroke="black" stroke-width="5"/>
<path d="M1646,251 l349,0 l0,349 l-349,0 z" fill="#fe00ff" stroke="black" stroke-width="5"/>
<path d="M3574,8843 l359,0 l0,364 l-359,0 z" fill="#fe00ff" stroke="black" stroke-width="5"/>
<path d="M9405,6393 l595,0 l0,492 l-595,0 z" fill="#2400ff" stroke="black" stroke-width="5"/>
<path d="M8217,0 l398,0 l0,456 l-398,0 z" fill="#0400ff" stroke="black" stroke-width="5"/>
<path d="M9037,8119 l468,0 l0,516 l-468,0 z" fill="#fe00ff" stroke="black" stroke-width="5"/>
<path d="M2118,8593 l232,0 l0,231 l-232,0 z" fill="#fe00ff" stroke="black" stroke-width="5"/>
<path d="M3446,3061 l629,0 l0,628 l-629,0 z" fill="#fe00ff" stroke="black" stroke-width="5"/>
<path d="M7016,5084 l289,0 l0,288 l-289,0 z" fill="#fe00ff" stroke="black" stroke-width="5"/>
<path d="M3929,6152 l725,0 l0,1323 l-725,0 z" fill="#fe00ff" stroke="black" stroke-width="5"/>
<path d="M0,6899 l257,0 l0,3101 l-257,0 z" fill="#f200ff" stroke="black" stroke-width="5"/>
<path d="M1995,107 l560,0 l0,733 l-560,0 z" fill="#fe00ff" stroke="black" stroke-width="5"/>
<path d="M351,5494 l227,0 l0,226 l-227,0 z" fill="#fe00ff" stroke="black" stroke-width="5"/>
<path d="M8515,7772 l522,0 l0,707 l-522,0 z" fill="#fe00ff" stroke="black" stroke-width="5"/>
<path d="M7751,2889 l330,0 l0,1966 l-330,0 z" fill="#f800ff" stroke="black" stroke-width="5"/>
<path d="M2665,9382 l1520,0 l0,618 l-1520,0 z" fill="#fe00ff" stroke="black" stroke-width="5"/>
<path d="M4016,3778 l946,0 l0,718 l-946,0 z" fill="#f900ff" stroke="black" stroke-width="5"/>
<path d="M9059,3226 l847,0 l0,846 l-847,0 z" fill="#fe00ff" stroke="black" stroke-width="5"/>
<path d="M3924,1783 l675,0 l0,718 l-675,0 z" fill="#fe00ff" stroke="black" stroke-width="5"/>
<path d="M6129,0 l2088,0 l0,456 l-2088,0 z" fill="#ee00ff" stroke="black" stroke-width="5"/>
<path d="M9025,6755 l380,0 l0,758 l-380,0 z" fill="#fe00ff" stroke="black" stroke-width="5"/>
<path d="M2518,7593 l2022,0 l0,725 l-2022,0 z" fill="#fe00ff" stroke="black" stroke-width="5"/>
<path d="M6936,1285 l845,0 l0,811 l-845,0 z" fill="#fe00ff" stroke="black" stroke-width="5"/>
<path d="M8881,895 l1119,0 l0,1321 l-1119,0 z" fill="#cd00ff" stroke="black" stroke-width="5"/>
<path d="M6630,3080 l618,0 l0,1032 l-618,0 z" fill="#fe00ff" stroke="black" stroke-width="5"/>
<path d="M2665,8318 l909,0 l0,749 l-909,0 z" fill="#fe00ff" stroke="black" stroke-width="5"/>
<path d="M0,4493 l356,0 l0,501 l-356,0 z" fill="#fe00ff" stroke="black" stroke-width="5"/>
<path d="M362,1776 l703,0 l0,585 l-703,0 z" fill="#fe00ff" stroke="black" stroke-width="5"/>
<path d="M7248,3080 l503,0 l0,697 l-503,0 z" fill="#fe00ff" stroke="black" stroke-width="5"/>
<path d="M6870,4521 l60,0 l0,60 l-60,0 z" fill="green"/>
<path d="M6900,4551 l-414.5,378.5" stroke="black" stroke-width="5"/>
<path d="M8547,1780 l60,0 l0,60 l-60,0 z" fill="green"/>
<path d="M8577,1810 l0.5,-73.5" stroke="black" stroke-width="5"/>
<path d="M1071,916 l60,0 l0,60 l-60,0 z" fill="green"/>
<path d="M1101,946 l-49.5,-181" stroke="black" stroke-width="5"/>
<path d="M3820,1422 l60,0 l0,60 l-60,0 z" fill="green"/>
<path d="M3850,1452 l-69,-134.5" stroke="black" stroke-width="5"/>
<path d="M3774,1783 l60,0 l0,60 l-60,0 z" fill="green"/>
<path d="M3804,1813 l0,0" stroke="black" stroke-width="5"/>
<path d="M984,7604 l60,0 l0,60 l-60,0 z" fill="green"/>
<path d="M1014,7634 l79.5,-11.5" stroke="black" stroke-width="5"/>
<path d="M4442,1711 l60,0 l0,60 l-60,0 z" fill="green"/>
<path d="M4472,1741 l0.5,-291" stroke="black" stroke-width="5"/>
<path d="M7504,8952 l60,0 l0,60 l-60,0 z" fill="green"/>
<path d="M7534,8982 l0,0" stroke="black" stroke-width="5"/>
<path d="M5879,5962 l60,0 l0,60 l-60,0 z" fill="green"/>
<path d="M5909,5992 l0.5,87" stroke="black" stroke-width="5"/>
<path d="M3018,2876 l60,0 l0,60 l-60,0 z" fill="green"/>
<path d="M3048,2906 l0.5,0" stroke="black" stroke-width="5"/>
<path d="M850,5529 l60,0 l0,60 l-60,0 z" fill="green"/>
<path d="M880,5559 l77.5,0" stroke="black" stroke-width="5"/>
<path d="M6099,1188 l60,0 l0,60 l-60,0 z" fill="green"/>
<path d="M6129,1218 l321.5,93" stroke="black" stroke-width="5"/>
<path d="M5726,5403 l60,0 l0,60 l-60,0 z" fill="green"/>
<path d="M5756,5433 l0,0" stroke="black" stroke-width="5"/>
<path d="M7173,2816 l60,0 l0,60 l-60,0 z" fill="green"/>
<path d="M7203,2846 l0,-86" stroke="black" stroke-width="5"/>
<path d="M8529,811 l60,0 l0,60 l-60,0 z" fill="green"/>
<path d="M8559,841 l28,140.5" stroke="black" stroke-width="5"/>
<path d="M1541,3687 l60,0 l0,60 l-60,0 z" fill="green"/>
<path d="M1571,3717 l0,0.5" stroke="black" stroke-width="5"/>
<path d="M3408,231 l60,0 l0,60 l-60,0 z" fill="green"/>
<path d="M3438,261 l0.5,-85.5" stroke="black" stroke-width="5"/>
<path d="M573,1745 l60,0 l0,60 l-60,0 z" fill="green"/>
<path d="M603,1775 l473,0.5" stroke="black" stroke-width="5"/>
<path d="M2941,3786 l60,0 l0,60 l-60,0 z" fill="green"/>
<path d="M2971,3816 l-288.5,32.5" stroke="black" stroke-width="5"/>
<path d="M5090,913 l60,0 l0,60 l-60,0 z" fill="green"/>
<path d="M5120,943 l271,263.5" stroke="black" stroke-width="5"/>
<path d="M298,6708 l60,0 l0,60 l-60,0 z" fill="green"/>
<path d="M328,6738 l0,0.5" stroke="black" stroke-width="5"/>
<path d="M2498,1142 l60,0 l0,60 l-60,0 z" fill="green"/>
<path d="M2528,1172 l-439.5,85" stroke="black" stroke-width="5"/>
<path d="M2270,1792 l60,0 l0,60 l-60,0 z" fill="green"/>
<path d="M2300,1822 l0.5,0.5" stroke="black" stroke-width="5"/>
<path d="M8459,1936 l60,0 l0,60 l-60,0 z" fill="green"/>
<path d="M8489,1966 l0.5,190.5" stroke="black" stroke-width="5"/>
<path d="M6820,7409 l60,0 l0,60 l-60,0 z" fill="green"/>
<path d="M6850,7439 l77.5,-70" stroke="black" stroke-width="5"/>
<path d="M3985,3975 l60,0 l0,60 l-60,0 z" fill="green"/>
<path d="M4015,4005 l-390.5,233" stroke="black" stroke-width="5"/>
<path d="M9184,5889 l60,0 l0,60 l-60,0 z" fill="green"/>
<path d="M9214,5919 l0.5,0" stroke="black" stroke-width="5"/>
<path d="M608,7514 l60,0 l0,60 l-60,0 z" fill="green"/>
<path d="M638,7544 l-190,37.5" stroke="black" stroke-width="5"/>
<path d="M6738,7906 l60,0 l0,60 l-60,0 z" fill="green"/>
<path d="M6768,7936 l0,0.5" stroke="black" stroke-width="5"/>
<path d="M6992,1005 l60,0 l0,60 l-60,0 z" fill="green"/>
<path d="M7022,1035 l0.5,0" stroke="black" stroke-width="5"/>
<path d="M1853,6337 l60,0 l0,60 l-60,0 z" fill="green"/>
<path d="M1883,6367 l0.5,0.5" stroke="black" stroke-width="5"/>
<path d="M9486,8557 l60,0 l0,60 l-60,0 z" fill="green"/>
<path d="M9516,8587 l236.5,-170.5" stroke="black" stroke-width="5"/>
<path d="M1076,4617 l60,0 l0,60 l-60,0 z" fill="green"/>
<path d="M1106,4647 l0.5,0" stroke="black" stroke-width="5"/>
<path d="M9591,6893 l60,0 l0,60 l-60,0 z" fill="green"/>
<path d="M9621,6923 l44.5,133" stroke="black" stroke-width="5"/>
<path d="M3567,9177 l60,0 l0,60 l-60,0 z" fill="green"/>
<path d="M3597,9207 l532,87.5" stroke="black" stroke-width="5"/>
<path d="M7820,6854 l60,0 l0,60 l-60,0 z" fill="green"/>
<path d="M7850,6884 l-619,-568" stroke="black" stroke-width="5"/>
<path d="M8080,7250 l60,0 l0,60 l-60,0 z" fill="green"/>
<path d="M8110,7280 l198.5,-559.5" stroke="black" stroke-width="5"/>
<path d="M275,2628 l60,0 l0,60 l-60,0 z" fill="green"/>
<path d="M305,2658 l0.5,0" stroke="black" stroke-width="5"/>
<path d="M1123,3938 l60,0 l0,60 l-60,0 z" fill="green"/>
<path d="M1153,3968 l-378,-224" stroke="black" stroke-width="5"/>
<path d="M2080,9501 l60,0 l0,60 l-60,0 z" fill="green"/>
<path d="M2110,9531 l251.5,-119" stroke="black" stroke-width="5"/>
<path d="M5951,7364 l60,0 l0,60 l-60,0 z" fill="green"/>
<path d="M5981,7394 l0.5,1173" stroke="black" stroke-width="5"/>
<path d="M8278,3745 l60,0 l0,60 l-60,0 z" fill="green"/>
<path d="M8308,3775 l0.5,0.5" stroke="black" stroke-width="5"/>
<path d="M5155,6652 l60,0 l0,60 l-60,0 z" fill="green"/>
<path d="M5185,6682 l-112.5,-166" stroke="black" stroke-width="5"/>
<path d="M5345,4465 l60,0 l0,60 l-60,0 z" fill="green"/>
<path d="M5375,4495 l0.5,-205.5" stroke="black" stroke-width="5"/>
<path d="M4920,930 l60,0 l0,60 l-60,0 z" fill="green"/>
<path d="M4950,960 l25,0.5" stroke="black" stroke-width="5"/>
<path d="M1626,9418 l60,0 l0,60 l-60,0 z" fill="green"/>
<path d="M1656,9448 l0.5,0" stroke="black" stroke-width="5"/>
<path d="M9743,2935 l60,0 l0,60 l-60,0 z" fill="green"/>
<path d="M9773,2965 l-261.5,-244" stroke="black" stroke-width="5"/>
<path d="M416,8482 l60,0 l0,60 l-60,0 z" fill="green"/>
<path d="M446,8512 l89.5,0.5" stroke="black" stroke-width="5"/>
<path d="M4813,946 l60,0 l0,60 l-60,0 z" fill="green"/>
<path d="M4843,976 l-316.5,-417.5" stroke="black" stroke-width="5"/>
<path d="M7883,2858 l60,0 l0,60 l-60,0 z" fill="green"/>
<path d="M7913,2888 l403.5,-215" stroke="black" stroke-width="5"/>
<path d="M9789,7485 l60,0 l0,60 l-60,0 z" fill="green"/>
<path d="M9819,7515 l-116.5,-61" stroke="black" stroke-width="5"/>
<path d="M4981,1191 l60,0 l0,60 l-60,0 z" fill="green"/>
<path d="M5011,1221 l-221.5,229" stroke="black" stroke-width="5"/>
<path d="M6802,8712 l60,0 l0,60 l-60,0 z" fill="green"/>
<path d="M6832,8742 l0,0" stroke="black" stroke-width="5"/>
<path d="M9006,8449 l60,0 l0,60 l-60,0 z" fill="green"/>
<path d="M9036,8479 l-645.5,646.5" stroke="black" stroke-width="5"/>
<path d="M4179,1654 l60,0 l0,60 l-60,0 z" fill="green"/>
<path d="M4209,1684 l131.5,-234" stroke="black" stroke-width="5"/>
<path d="M9426,249 l60,0 l0,60 l-60,0 z" fill="green"/>
<path d="M9456,279 l-148.5,168" stroke="black" stroke-width="5"/>
<path d="M2912,832 l60,0 l0,60 l-60,0 z" fill="green"/>
<path d="M2942,862 l0,205" stroke="black" stroke-width="5"/>
<path d="M681,1528 l60,0 l0,60 l-60,0 z" fill="green"/>
<path d="M711,1558 l0,-56.5" stroke="black" stroke-width="5"/>
<path d="M7961,4825 l60,0 l0,60 l-60,0 z" fill="green"/>
<path d="M7991,4855 l18,361" stroke="black" stroke-width="5"/>
<path d="M6937,4500 l60,0 l0,60 l-60,0 z" fill="green"/>
<path d="M6967,4530 l136,68" stroke="black" stroke-width="5"/>
<path d="M5631,7195 l60,0 l0,60 l-60,0 z" fill="green"/>
<path d="M5661,7225 l-12,0" stroke="black" stroke-width="5"/>
<path d="M5214,9415 l60,0 l0,60 l-60,0 z" fill="green"/>
<path d="M5244,9445 l0.5,-2.5" stroke="black" stroke-width="5"/>
<path d="M237,6987 l60,0 l0,60 l-60,0 z" fill="green"/>
<path d="M267,7017 l1441,-58.5" stroke="black" stroke-width="5"/>
<path d="M5646,814 l60,0 l0,60 l-60,0 z" fill="green"/>
<path d="M5676,844 l226.5,207" stroke="black" stroke-width="5"/>
<path d="M3514,7178 l60,0 l0,60 l-60,0 z" fill="green"/>
<path d="M3544,7208 l0,0.5" stroke="black" stroke-width="5"/>
<path d="M5257,4576 l60,0 l0,60 l-60,0 z" fill="green"/>
<path d="M5287,4606 l0.5,119" stroke="black" stroke-width="5"/>
<path d="M4890,706 l60,0 l0,60 l-60,0 z" fill="green"/>
<path d="M4920,736 l-37.5,-334" stroke="black" stroke-width="5"/>
<path d="M4663,3630 l60,0 l0,60 l-60,0 z" fill="green"/>
<path d="M4693,3660 l0,0" stroke="black" stroke-width="5"/>
<path d="M9964,9122 l60,0 l0,60 l-60,0 z" fill="green"/>
<path d="M9994,9152 l-475.5,424" stroke="black" stroke-width="5"/>
<path d="M5111,612 l60,0 l0,60 l-60,0 z" fill="green"/>
<path d="M5141,642 l9.5,-38" stroke="black" stroke-width="5"/>
<path d="M8007,426 l60,0 l0,60 l-60,0 z" fill="green"/>
<path d="M8037,456 l-121,414.5" stroke="black" stroke-width="5"/>
<path d="M8490,7394 l60,0 l0,60 l-60,0 z" fill="green"/>
<path d="M8520,7424 l252.5,-341.5" stroke="black" stroke-width="5"/>
<path d="M5586,305 l60,0 l0,60 l-60,0 z" fill="green"/>
<path d="M5616,335 l0,0.5" stroke="black" stroke-width="5"/>
<path d="M7955,7216 l60,0 l0,60 l-60,0 z" fill="green"/>
<path d="M7985,7246 l0,0" stroke="black" stroke-width="5"/>
<path d="M1124,9413 l60,0 l0,60 l-60,0 z" fill="green"/>
<path d="M1154,9443 l-398,-3" stroke="black" stroke-width="5"/>
<path d="M7890,7034 l60,0 l0,60 l-60,0 z" fill="green"/>
<path d="M7920,7064 l-881,-54.5" stroke="black" stroke-width="5"/>
<path d="M9566,864 l60,0 l0,60 l-60,0 z" fill="green"/>
<path d="M9596,894 l-288.5,0.5" stroke="black" stroke-width="5"/>
<path d="M6436,2810 l60,0 l0,60 l-60,0 z" fill="green"/>
<path d="M6466,2840 l-205,-249" stroke="black" stroke-width="5"/>
<path d="M3386,9194 l60,0 l0,60 l-60,0 z" fill="green"/>
<path d="M3416,9224 l0,0.5" stroke="black" stroke-width="5"/>
<path d="M3149,584 l60,0 l0,60 l-60,0 z" fill="green"/>
<path d="M3179,614 l0.5,-7.5" stroke="black" stroke-width="5"/>
<path d="M7973,2426 l60,0 l0,60 l-60,0 z" fill="green"/>
<path d="M8003,2456 l313.5,-54" stroke="black" stroke-width="5"/>
<path d="M6400,489 l60,0 l0,60 l-60,0 z" fill="green"/>
<path d="M6430,519 l271,-31" stroke="black" stroke-width="5"/>
<path d="M1790,395 l60,0 l0,60 l-60,0 z" fill="green"/>
<path d="M1820,425 l0.5,0.5" stroke="black" stroke-width="5"/>
<path d="M3660,9056 l60,0 l0,60 l-60,0 z" fill="green"/>
<path d="M3690,9086 l63.5,-61" stroke="black" stroke-width="5"/>
<path d="M9581,6854 l60,0 l0,60 l-60,0 z" fill="green"/>
<path d="M9611,6884 l91.5,-245" stroke="black" stroke-width="5"/>
<path d="M8187,43 l60,0 l0,60 l-60,0 z" fill="green"/>
<path d="M8217,73 l199,155" stroke="black" stroke-width="5"/>
<path d="M9217,8347 l60,0 l0,60 l-60,0 z" fill="green"/>
<path d="M9247,8377 l24,0" stroke="black" stroke-width="5"/>
<path d="M2204,8678 l60,0 l0,60 l-60,0 z" fill="green"/>
<path d="M2234,8708 l0,0.5" stroke="black" stroke-width="5"/>
<path d="M3730,3345 l60,0 l0,60 l-60,0 z" fill="green"/>
<path d="M3760,3375 l0.5,0" stroke="black" stroke-width="5"/>
<path d="M7130,5198 l60,0 l0,60 l-60,0 z" fill="green"/>
<path d="M7160,5228 l0.5,0" stroke="black" stroke-width="5"/>
<path d="M4317,6783 l60,0 l0,60 l-60,0 z" fill="green"/>
<path d="M4347,6813 l-55.5,0.5" stroke="black" stroke-width="5"/>
<path d="M226,8534 l60,0 l0,60 l-60,0 z" fill="green"/>
<path d="M256,8564 l-127.5,-114.5" stroke="black" stroke-width="5"/>
<path d="M2158,443 l60,0 l0,60 l-60,0 z" fill="green"/>
<path d="M2188,473 l87,0.5" stroke="black" stroke-width="5"/>
<path d="M434,5577 l60,0 l0,60 l-60,0 z" fill="green"/>
<path d="M464,5607 l0.5,0" stroke="black" stroke-width="5"/>
<path d="M8942,8199 l60,0 l0,60 l-60,0 z" fill="green"/>
<path d="M8972,8229 l-196,-103.5" stroke="black" stroke-width="5"/>
<path d="M7721,3429 l60,0 l0,60 l-60,0 z" fill="green"/>
<path d="M7751,3459 l165,413" stroke="black" stroke-width="5"/>
<path d="M3198,9852 l60,0 l0,60 l-60,0 z" fill="green"/>
<path d="M3228,9882 l197,-191" stroke="black" stroke-width="5"/>
<path d="M4555,3974 l60,0 l0,60 l-60,0 z" fill="green"/>
<path d="M4585,4004 l-96,133" stroke="black" stroke-width="5"/>
<path d="M9452,3619 l60,0 l0,60 l-60,0 z" fill="green"/>
<path d="M9482,3649 l0.5,0" stroke="black" stroke-width="5"/>
<path d="M4210,2112 l60,0 l0,60 l-60,0 z" fill="green"/>
<path d="M4240,2142 l21.5,0" stroke="black" stroke-width="5"/>
<path d="M7890,284 l60,0 l0,60 l-60,0 z" fill="green"/>
<path d="M7920,314 l-747,-86" stroke="black" stroke-width="5"/>
<path d="M9374,7104 l60,0 l0,60 l-60,0 z" fill="green"/>
<path d="M9404,7134 l-189,0" stroke="black" stroke-width="5"/>
<path d="M3499,8278 l60,0 l0,60 l-60,0 z" fill="green"/>
<path d="M3529,8308 l0,-352.5" stroke="black" stroke-width="5"/>
<path d="M7328,1644 l60,0 l0,60 l-60,0 z" fill="green"/>
<path d="M7358,1674 l0.5,16.5" stroke="black" stroke-width="5"/>
<path d="M9939,1757 l60,0 l0,60 l-60,0 z" fill="green"/>
<path d="M9969,1787 l-528.5,-231.5" stroke="black" stroke-width="5"/>
<path d="M7217,3463 l60,0 l0,60 l-60,0 z" fill="green"/>
<path d="M7247,3493 l-308,103" stroke="black" stroke-width="5"/>
<path d="M3167,8820 l60,0 l0,60 l-60,0 z" fill="green"/>
<path d="M3197,8850 l-77.5,-157.5" stroke="black" stroke-width="5"/>
<path d="M76,4713 l60,0 l0,60 l-60,0 z" fill="green"/>
<path d="M106,4743 l72,0.5" stroke="black" stroke-width="5"/>
<path d="M683,1979 l60,0 l0,60 l-60,0 z" fill="green"/>
<path d="M713,2009 l0.5,59.5" stroke="black" stroke-width="5"/>
<path d="M7408,3398 l60,0 l0,60 l-60,0 z" fill="green"/>
<path d="M7438,3428 l61.5,0.5" stroke="black" stroke-width="5"/>
<text font-size="134.8399724926484" text-anchor="middle" x="6485.5" y="4976.693990372427">
0
</text>
<text font-size="134.8399724926484" text-anchor="middle" x="8577.5" y="1783.693990372427">
1
</text>
<text font-size="134.8399724926484" text-anchor="middle" x="1051.5" y="812.1939903724269">
2
</text>
<text font-size="134.8399724926484" text-anchor="middle" x="3781" y="1364.693990372427">
3
</text>
<text font-size="134.8399724926484" text-anchor="middle" x="3804" y="1860.193990372427">
4
</text>
<text font-size="134.8399724926484" text-anchor="middle" x="1093.5" y="7669.693990372427">
5
</text>
<text font-size="134.8399724926484" text-anchor="middle" x="4472.5" y="1497.193990372427">
6
</text>
<text font-size="134.8399724926484" text-anchor="middle" x="7534" y="9029.193990372427">
7
</text>
<text font-size="134.8399724926484" text-anchor="middle" x="5909.5" y="6126.193990372427">
8
</text>
<text font-size="134.8399724926484" text-anchor="middle" x="3048.5" y="2953.193990372427">
9
</text>
<text font-size="134.8399724926484" text-anchor="middle" x="957.5" y="5606.193990372427">
10
</text>
<text font-size="134.8399724926484" text-anchor="middle" x="6450.5" y="1358.193990372427">
11
</text>
<text font-size="134.8399724926484" text-anchor="middle" x="5756" y="5480.193990372427">
12
</text>
<text font-size="134.8399724926484" text-anchor="middle" x="7203" y="2807.193990372427">
13
</text>
<text font-size="134.8399724926484" text-anchor="middle" x="8587" y="1028.693990372427">
14
</text>
<text font-size="134.8399724926484" text-anchor="middle" x="1571" y="3764.693990372427">
15
</text>
<text font-size="134.8399724926484" text-anchor="middle" x="3438.5" y="222.69399037242692">
16
</text>
<text font-size="134.8399724926484" text-anchor="middle" x="1076" y="1822.693990372427">
17
</text>
<text font-size="134.8399724926484" text-anchor="middle" x="2682.5" y="3895.693990372427">
18
</text>
<text font-size="134.8399724926484" text-anchor="middle" x="5391" y="1253.693990372427">
19
</text>
<text font-size="134.8399724926484" text-anchor="middle" x="328" y="6785.693990372427">
20
</text>
<text font-size="134.8399724926484" text-anchor="middle" x="2088.5" y="1304.193990372427">
21
</text>
<text font-size="134.8399724926484" text-anchor="middle" x="2300.5" y="1869.693990372427">
22
</text>
<text font-size="134.8399724926484" text-anchor="middle" x="8489.5" y="2203.693990372427">
23
</text>
<text font-size="134.8399724926484" text-anchor="middle" x="6927.5" y="7416.193990372427">
24
</text>
<text font-size="134.8399724926484" text-anchor="middle" x="3624.5" y="4285.193990372427">
25
</text>
<text font-size="134.8399724926484" text-anchor="middle" x="9214.5" y="5966.193990372427">
26
</text>
<text font-size="134.8399724926484" text-anchor="middle" x="448" y="7628.693990372427">
27
</text>
<text font-size="134.8399724926484" text-anchor="middle" x="6768" y="7983.693990372427">
28
</text>
<text font-size="134.8399724926484" text-anchor="middle" x="7022.5" y="1082.193990372427">
29
</text>
<text font-size="134.8399724926484" text-anchor="middle" x="1883.5" y="6414.693990372427">
30
</text>
<text font-size="134.8399724926484" text-anchor="middle" x="9752.5" y="8463.693990372427">
31
</text>
<text font-size="134.8399724926484" text-anchor="middle" x="1106.5" y="4694.193990372427">
32
</text>
<text font-size="134.8399724926484" text-anchor="middle" x="9665.5" y="7103.193990372427">
33
</text>
<text font-size="134.8399724926484" text-anchor="middle" x="4129" y="9341.693990372427">
34
</text>
<text font-size="134.8399724926484" text-anchor="middle" x="7231" y="6363.193990372427">
35
</text>
<text font-size="134.8399724926484" text-anchor="middle" x="8308.5" y="6767.693990372427">
36
</text>
<text font-size="134.8399724926484" text-anchor="middle" x="305.5" y="2705.193990372427">
37
</text>
<text font-size="134.8399724926484" text-anchor="middle" x="775" y="3791.193990372427">
38
</text>
<text font-size="134.8399724926484" text-anchor="middle" x="2361.5" y="9459.193990372427">
39
</text>
<text font-size="134.8399724926484" text-anchor="middle" x="5981.5" y="8614.193990372427">
40
</text>
<text font-size="134.8399724926484" text-anchor="middle" x="8308.5" y="3822.693990372427">
41
</text>
<text font-size="134.8399724926484" text-anchor="middle" x="5072.5" y="6563.193990372427">
42
</text>
<text font-size="134.8399724926484" text-anchor="middle" x="5375.5" y="4336.693990372427">
43
</text>
<text font-size="134.8399724926484" text-anchor="middle" x="4975" y="1007.6939903724269">
44
</text>
<text font-size="134.8399724926484" text-anchor="middle" x="1656.5" y="9495.193990372427">
45
</text>
<text font-size="134.8399724926484" text-anchor="middle" x="9511.5" y="2768.193990372427">
46
</text>
<text font-size="134.8399724926484" text-anchor="middle" x="535.5" y="8559.693990372427">
47
</text>
<text font-size="134.8399724926484" text-anchor="middle" x="4526.5" y="605.6939903724269">
48
</text>
<text font-size="134.8399724926484" text-anchor="middle" x="8316.5" y="2720.193990372427">
49
</text>
<text font-size="134.8399724926484" text-anchor="middle" x="9702.5" y="7501.193990372427">
50
</text>
<text font-size="134.8399724926484" text-anchor="middle" x="4789.5" y="1497.193990372427">
51
</text>
<text font-size="134.8399724926484" text-anchor="middle" x="6832" y="8789.193990372427">
52
</text>
<text font-size="134.8399724926484" text-anchor="middle" x="8390.5" y="9172.693990372427">
53
</text>
<text font-size="134.8399724926484" text-anchor="middle" x="4340.5" y="1497.193990372427">
54
</text>
<text font-size="134.8399724926484" text-anchor="middle" x="9307.5" y="494.1939903724269">
55
</text>
<text font-size="134.8399724926484" text-anchor="middle" x="2942" y="1114.193990372427">
56
</text>
<text font-size="134.8399724926484" text-anchor="middle" x="711" y="1548.693990372427">
57
</text>
<text font-size="134.8399724926484" text-anchor="middle" x="8009" y="5263.193990372427">
58
</text>
<text font-size="134.8399724926484" text-anchor="middle" x="7103" y="4645.193990372427">
59
</text>
<text font-size="134.8399724926484" text-anchor="middle" x="5649" y="7272.193990372427">
60
</text>
<text font-size="134.8399724926484" text-anchor="middle" x="5244.5" y="9489.693990372427">
61
</text>
<text font-size="134.8399724926484" text-anchor="middle" x="1708" y="7005.693990372427">
62
</text>
<text font-size="134.8399724926484" text-anchor="middle" x="5902.5" y="1098.193990372427">
63
</text>
<text font-size="134.8399724926484" text-anchor="middle" x="3544" y="7255.693990372427">
64
</text>
<text font-size="134.8399724926484" text-anchor="middle" x="5287.5" y="4772.193990372427">
65
</text>
<text font-size="134.8399724926484" text-anchor="middle" x="4882.5" y="449.1939903724269">
66
</text>
<text font-size="134.8399724926484" text-anchor="middle" x="4693" y="3707.193990372427">
67
</text>
<text font-size="134.8399724926484" text-anchor="middle" x="9518.5" y="9623.193990372427">
68
</text>
<text font-size="134.8399724926484" text-anchor="middle" x="5150.5" y="651.1939903724269">
69
</text>
<text font-size="134.8399724926484" text-anchor="middle" x="7916" y="917.6939903724269">
70
</text>
<text font-size="134.8399724926484" text-anchor="middle" x="8772.5" y="7129.693990372427">
71
</text>
<text font-size="134.8399724926484" text-anchor="middle" x="5616" y="382.6939903724269">
72
</text>
<text font-size="134.8399724926484" text-anchor="middle" x="7985" y="7293.193990372427">
73
</text>
<text font-size="134.8399724926484" text-anchor="middle" x="756" y="9487.193990372427">
74
</text>
<text font-size="134.8399724926484" text-anchor="middle" x="7039" y="7056.693990372427">
75
</text>
<text font-size="134.8399724926484" text-anchor="middle" x="9307.5" y="941.6939903724269">
76
</text>
<text font-size="134.8399724926484" text-anchor="middle" x="6261" y="2638.193990372427">
77
</text>
<text font-size="134.8399724926484" text-anchor="middle" x="3416" y="9271.693990372427">
78
</text>
<text font-size="134.8399724926484" text-anchor="middle" x="3179.5" y="653.6939903724269">
79
</text>
<text font-size="134.8399724926484" text-anchor="middle" x="8316.5" y="2449.193990372427">
80
</text>
<text font-size="134.8399724926484" text-anchor="middle" x="6701" y="535.1939903724269">
81
</text>
<text font-size="134.8399724926484" text-anchor="middle" x="1820.5" y="472.6939903724269">
82
</text>
<text font-size="134.8399724926484" text-anchor="middle" x="3753.5" y="9072.193990372427">
83
</text>
<text font-size="134.8399724926484" text-anchor="middle" x="9702.5" y="6686.193990372427">
84
</text>
<text font-size="134.8399724926484" text-anchor="middle" x="8416" y="275.1939903724269">
85
</text>
<text font-size="134.8399724926484" text-anchor="middle" x="9271" y="8424.193990372427">
86
</text>
<text font-size="134.8399724926484" text-anchor="middle" x="2234" y="8755.693990372427">
87
</text>
<text font-size="134.8399724926484" text-anchor="middle" x="3760.5" y="3422.193990372427">
88
</text>
<text font-size="134.8399724926484" text-anchor="middle" x="7160.5" y="5275.193990372427">
89
</text>
<text font-size="134.8399724926484" text-anchor="middle" x="4291.5" y="6860.693990372427">
90
</text>
<text font-size="134.8399724926484" text-anchor="middle" x="128.5" y="8496.693990372427">
91
</text>
<text font-size="134.8399724926484" text-anchor="middle" x="2275" y="520.6939903724269">
92
</text>
<text font-size="134.8399724926484" text-anchor="middle" x="464.5" y="5654.193990372427">
93
</text>
<text font-size="134.8399724926484" text-anchor="middle" x="8776" y="8172.693990372427">
94
</text>
<text font-size="134.8399724926484" text-anchor="middle" x="7916" y="3919.193990372427">
95
</text>
<text font-size="134.8399724926484" text-anchor="middle" x="3425" y="9738.193990372427">
96
</text>
<text font-size="134.8399724926484" text-anchor="middle" x="4489" y="4184.193990372427">
97
</text>
<text font-size="134.8399724926484" text-anchor="middle" x="9482.5" y="3696.193990372427">
98
</text>
<text font-size="134.8399724926484" text-anchor="middle" x="4261.5" y="2189.193990372427">
99
</text>
<text font-size="134.8399724926484" text-anchor="middle" x="7173" y="275.1939903724269">
100
</text>
<text font-size="134.8399724926484" text-anchor="middle" x="9215" y="7181.193990372427">
101
</text>
<text font-size="134.8399724926484" text-anchor="middle" x="3529" y="8002.693990372427">
102
</text>
<text font-size="134.8399724926484" text-anchor="middle" x="7358.5" y="1737.693990372427">
103
</text>
<text font-size="134.8399724926484" text-anchor="middle" x="9440.5" y="1602.693990372427">
104
</text>
<text font-size="134.8399724926484" text-anchor="middle" x="6939" y="3643.193990372427">
105
</text>
<text font-size="134.8399724926484" text-anchor="middle" x="3119.5" y="8739.693990372427">
106
</text>
<text font-size="134.8399724926484" text-anchor="middle" x="178" y="4790.693990372427">
107
</text>
<text font-size="134.8399724926484" text-anchor="middle" x="713.5" y="2115.693990372427">
108
</text>
<text font-size="134.8399724926484" text-anchor="middle" x="7499.5" y="3475.693990372427">
109
</text>
</svg>