<svg viewBox="-100 -100 10200 10200" xmlns="http://www.w3.org/2000/svg">
<path d="M0,0 l10000,0 l0,10000 l-10000,0 z" fill="white"/>
<path d="M6361,7320 l455,0 l0,227 l-455,0 z" fill="#fe00ff" stroke="black" stroke-width="5"/>
<path d="M6415,8280 l2974,0 l0,1555 l-2974,0 z" fill="#fe00ff" stroke="black" stroke-width="5"/>
<path d="M8856,3486 l1144,0 l0,1708 l-1144,0 z" fill="#9400ff" stroke="black" stroke-width="5"/>
<path d="M4774,3235 l212,0 l0,3586 l-212,0 z" fill="#ca00ff" stroke="black" stroke-width="5"/>
<path d="M941,0 l329,0 l0,1483 l-329,0 z" fill="#fa00ff" stroke="black" stroke-width="5"/>
<path d="M4541,9005 l167,0 l0,168 l-167,0 z" fill="#fe00ff" stroke="black" stroke-width="5"/>
<path d="M5333,0 l1077,0 l0,322 l-1077,0 z" fill="#fe00ff" stroke="black" stroke-width="5"/>
<path d="M7341,396 l2659,0 l0,561 l-2659,0 z" fill="#f100ff" stroke="black" stroke-width="5"/>
<path d="M4433,6821 l557,0 l0,556 l-557,0 z" fill="#fe00ff" stroke="black" stroke-width="5"/>
<path d="M5206,5065 l852,0 l0,4202 l-852,0 z" fill="#fe00ff" stroke="black" stroke-width="5"/>
<path d="M4990,5065 l216,0 l0,4108 l-216,0 z" fill="#6300ff" stroke="black" stroke-width="5"/>
<path d="M0,3685 l660,0 l0,6150 l-660,0 z" fill="#ea00ff" stroke="black" stroke-width="5"/>
<path d="M7726,2424 l636,0 l0,5167 l-636,0 z" fill="#fe00ff" stroke="black" stroke-width="5"/>
<path d="M9091,5194 l909,0 l0,795 l-909,0 z" fill="#fe00ff" stroke="black" stroke-width="5"/>
<path d="M5333,322 l767,0 l0,517 l-767,0 z" fill="#1d00ff" stroke="black" stroke-width="5"/>
<path d="M2097,7402 l1627,0 l0,2101 l-1627,0 z" fill="#fe00ff" stroke="black" stroke-width="5"/>
<path d="M3724,8107 l817,0 l0,1066 l-817,0 z" fill="#9c00ff" stroke="black" stroke-width="5"/>
<path d="M967,5509 l1044,0 l0,1724 l-1044,0 z" fill="#fe00ff" stroke="black" stroke-width="5"/>
<path d="M8668,957 l949,0 l0,949 l-949,0 z" fill="#fe00ff" stroke="black" stroke-width="5"/>
<path d="M4563,9921 l342,0 l0,79 l-342,0 z" fill="#fe00ff" stroke="black" stroke-width="5"/>
<path d="M967,7233 l1130,0 l0,1358 l-1130,0 z" fill="#fe00ff" stroke="black" stroke-width="5"/>
<path d="M5885,839 l1456,0 l0,1057 l-1456,0 z" fill="#fe00ff" stroke="black" stroke-width="5"/>
<path d="M1688,1470 l946,0 l0,1058 l-946,0 z" fill="#fe00ff" stroke="black" stroke-width="5"/>
<path d="M3700,0 l1633,0 l0,1354 l-1633,0 z" fill="#fe00ff" stroke="black" stroke-width="5"/>
<path d="M3254,5574 l498,0 l0,498 l-498,0 z" fill="#fe00ff" stroke="black" stroke-width="5"/>
<path d="M4428,1475 l505,0 l0,591 l-505,0 z" fill="#0000ff" stroke="black" stroke-width="5"/>
<path d="M8561,2758 l932,0 l0,728 l-932,0 z" fill="#fe00ff" stroke="black" stroke-width="5"/>
<path d="M3700,1354 l728,0 l0,712 l-728,0 z" fill="#f500ff" stroke="black" stroke-width="5"/>
<path d="M8362,3559 l494,0 l0,986 l-494,0 z" fill="#fe00ff" stroke="black" stroke-width="5"/>
<path d="M4933,1475 l952,0 l0,838 l-952,0 z" fill="#fe00ff" stroke="black" stroke-width="5"/>
<path d="M0,9835 l10000,0 l0,86 l-10000,0 z" fill="#6e00ff" stroke="black" stroke-width="5"/>
<path d="M6410,0 l3590,0 l0,396 l-3590,0 z" fill="#d300ff" stroke="black" stroke-width="5"/>
<path d="M2019,1358 l113,0 l0,112 l-113,0 z" fill="#fe00ff" stroke="black" stroke-width="5"/>
<path d="M6058,6471 l1042,0 l0,849 l-1042,0 z" fill="#fe00ff" stroke="black" stroke-width="5"/>
<path d="M7246,7591 l1252,0 l0,626 l-1252,0 z" fill="#fe00ff" stroke="black" stroke-width="5"/>
<path d="M660,8591 l1437,0 l0,1244 l-1437,0 z" fill="#d800ff" stroke="black" stroke-width="5"/>
<path d="M3724,7377 l1266,0 l0,730 l-1266,0 z" fill="#1000ff" stroke="black" stroke-width="5"/>
<path d="M6647,4388 l1079,0 l0,1078 l-1079,0 z" fill="#fe00ff" stroke="black" stroke-width="5"/>
<path d="M3032,2066 l1742,0 l0,2270 l-1742,0 z" fill="#fe00ff" stroke="black" stroke-width="5"/>
<path d="M0,782 l941,0 l0,1842 l-941,0 z" fill="#fe00ff" stroke="black" stroke-width="5"/>
<path d="M660,5027 l307,0 l0,3032 l-307,0 z" fill="#fe00ff" stroke="black" stroke-width="5"/>
<path d="M1270,0 l2430,0 l0,1358 l-2430,0 z" fill="#5500ff" stroke="black" stroke-width="5"/>
<path d="M7351,1831 l1186,0 l0,593 l-1186,0 z" fill="#fe00ff" stroke="black" stroke-width="5"/>
<path d="M4428,1354 l1457,0 l0,121 l-1457,0 z" fill="#0200ff" stroke="black" stroke-width="5"/>
<path d="M116,2624 l1061,0 l0,1061 l-1061,0 z" fill="#fe00ff" stroke="black" stroke-width="5"/>
<path d="M4774,2313 l1846,0 l0,922 l-1846,0 z" fill="#fe00ff" stroke="black" stroke-width="5"/>
<path d="M8498,7448 l822,0 l0,832 l-822,0 z" fill="#fe00ff" stroke="black" stroke-width="5"/>
<path d="M941,1483 l747,0 l0,747 l-747,0 z" fill="#fe00ff" stroke="black" stroke-width="5"/>
<path d="M6100,475 l726,0 l0,364 l-726,0 z" fill="#fe00ff" stroke="black" stroke-width="5"/>
<path d="M1233,2529 l619,0 l0,618 l-619,0 z" fill="#fe00ff" stroke="black" stroke-width="5"/>
<path d="M4986,3235 l1661,0 l0,1830 l-1661,0 z" fill="#e800ff" stroke="black" stroke-width="5"/>
<path d="M3724,9173 l1482,0 l0,662 l-1482,0 z" fill="#2800ff" stroke="black" stroke-width="5"/>
<path d="M6558,7290 l60,0 l0,60 l-60,0 z" fill="green"/>
<path d="M6588,7320 l0.5,113.5" stroke="black" stroke-width="5"/>
<path d="M7872,9319 l60,0 l0,60 l-60,0 z" fill="green"/>
<path d="M7902,9349 l0,-291.5" stroke="black" stroke-width="5"/>
<path d="M8901,3456 l60,0 l0,60 l-60,0 z" fill="green"/>
<path d="M8931,3486 l497,854" stroke="black" stroke-width="5"/>
<path d="M4955,4203 l60,0 l0,60 l-60,0 z" fill="green"/>
<path d="M4985,4233 l-105,795" stroke="black" stroke-width="5"/>
<path d="M1239,710 l60,0 l0,60 l-60,0 z" fill="green"/>
<path d="M1269,740 l-163.5,1.5" stroke="black" stroke-width="5"/>
<path d="M4511,9142 l60,0 l0,60 l-60,0 z" fill="green"/>
<path d="M4541,9172 l83.5,-83" stroke="black" stroke-width="5"/>
<path d="M5313,2 l60,0 l0,60 l-60,0 z" fill="green"/>
<path d="M5343,32 l528.5,129" stroke="black" stroke-width="5"/>
<path d="M9247,683 l60,0 l0,60 l-60,0 z" fill="green"/>
<path d="M9277,713 l-606.5,-36.5" stroke="black" stroke-width="5"/>
<path d="M4681,7069 l60,0 l0,60 l-60,0 z" fill="green"/>
<path d="M4711,7099 l0.5,0" stroke="black" stroke-width="5"/>
<path d="M5538,7136 l60,0 l0,60 l-60,0 z" fill="green"/>
<path d="M5568,7166 l64,0" stroke="black" stroke-width="5"/>
<path d="M5175,7199 l60,0 l0,60 l-60,0 z" fill="green"/>
<path d="M5205,7229 l-107,-110" stroke="black" stroke-width="5"/>
<path d="M629,6285 l60,0 l0,60 l-60,0 z" fill="green"/>
<path d="M659,6315 l-329,445" stroke="black" stroke-width="5"/>
<path d="M7883,4171 l60,0 l0,60 l-60,0 z" fill="green"/>
<path d="M7913,4201 l131,806.5" stroke="black" stroke-width="5"/>
<path d="M9857,5164 l60,0 l0,60 l-60,0 z" fill="green"/>
<path d="M9887,5194 l-341.5,397.5" stroke="black" stroke-width="5"/>
<path d="M5391,292 l60,0 l0,60 l-60,0 z" fill="green"/>
<path d="M5421,322 l295.5,258.5" stroke="black" stroke-width="5"/>
<path d="M3117,8422 l60,0 l0,60 l-60,0 z" fill="green"/>
<path d="M3147,8452 l-236.5,0.5" stroke="black" stroke-width="5"/>
<path d="M3694,8941 l60,0 l0,60 l-60,0 z" fill="green"/>
<path d="M3724,8971 l408.5,-331" stroke="black" stroke-width="5"/>
<path d="M1118,6341 l60,0 l0,60 l-60,0 z" fill="green"/>
<path d="M1148,6371 l341,0" stroke="black" stroke-width="5"/>
<path d="M9112,1401 l60,0 l0,60 l-60,0 z" fill="green"/>
<path d="M9142,1431 l0.5,0.5" stroke="black" stroke-width="5"/>
<path d="M4704,9891 l60,0 l0,60 l-60,0 z" fill="green"/>
<path d="M4734,9921 l0,39.5" stroke="black" stroke-width="5"/>
<path d="M1331,7677 l60,0 l0,60 l-60,0 z" fill="green"/>
<path d="M1361,7707 l171,205" stroke="black" stroke-width="5"/>
<path d="M6583,1138 l60,0 l0,60 l-60,0 z" fill="green"/>
<path d="M6613,1168 l0,199.5" stroke="black" stroke-width="5"/>
<path d="M2036,1931 l60,0 l0,60 l-60,0 z" fill="green"/>
<path d="M2066,1961 l95,38" stroke="black" stroke-width="5"/>
<path d="M4486,542 l60,0 l0,60 l-60,0 z" fill="green"/>
<path d="M4516,572 l0.5,105" stroke="black" stroke-width="5"/>
<path d="M3473,5793 l60,0 l0,60 l-60,0 z" fill="green"/>
<path d="M3503,5823 l0,0" stroke="black" stroke-width="5"/>
<path d="M4902,1712 l60,0 l0,60 l-60,0 z" fill="green"/>
<path d="M4932,1742 l-251.5,28.5" stroke="black" stroke-width="5"/>
<path d="M8997,3194 l60,0 l0,60 l-60,0 z" fill="green"/>
<path d="M9027,3224 l0,-102" stroke="black" stroke-width="5"/>
<path d="M4397,1324 l60,0 l0,60 l-60,0 z" fill="green"/>
<path d="M4427,1354 l-363,356" stroke="black" stroke-width="5"/>
<path d="M8332,4022 l60,0 l0,60 l-60,0 z" fill="green"/>
<path d="M8362,4052 l247,0" stroke="black" stroke-width="5"/>
<path d="M5330,1931 l60,0 l0,60 l-60,0 z" fill="green"/>
<path d="M5360,1961 l49,-67" stroke="black" stroke-width="5"/>
<path d="M4671,9805 l60,0 l0,60 l-60,0 z" fill="green"/>
<path d="M4701,9835 l299,43" stroke="black" stroke-width="5"/>
<path d="M9032,365 l60,0 l0,60 l-60,0 z" fill="green"/>
<path d="M9062,395 l-857,-197" stroke="black" stroke-width="5"/>
<path d="M2045,1384 l60,0 l0,60 l-60,0 z" fill="green"/>
<path d="M2075,1414 l0.5,0" stroke="black" stroke-width="5"/>
<path d="M6549,6962 l60,0 l0,60 l-60,0 z" fill="green"/>
<path d="M6579,6992 l0,-96.5" stroke="black" stroke-width="5"/>
<path d="M7842,7561 l60,0 l0,60 l-60,0 z" fill="green"/>
<path d="M7872,7591 l0,313" stroke="black" stroke-width="5"/>
<path d="M1923,8640 l60,0 l0,60 l-60,0 z" fill="green"/>
<path d="M1953,8670 l-574.5,543" stroke="black" stroke-width="5"/>
<path d="M3830,8076 l60,0 l0,60 l-60,0 z" fill="green"/>
<path d="M3860,8106 l497,-364" stroke="black" stroke-width="5"/>
<path d="M7156,4897 l60,0 l0,60 l-60,0 z" fill="green"/>
<path d="M7186,4927 l0.5,0" stroke="black" stroke-width="5"/>
<path d="M4136,3171 l60,0 l0,60 l-60,0 z" fill="green"/>
<path d="M4166,3201 l-263,0" stroke="black" stroke-width="5"/>
<path d="M666,2055 l60,0 l0,60 l-60,0 z" fill="green"/>
<path d="M696,2085 l-225.5,-382" stroke="black" stroke-width="5"/>
<path d="M936,6513 l60,0 l0,60 l-60,0 z" fill="green"/>
<path d="M966,6543 l-152.5,0" stroke="black" stroke-width="5"/>
<path d="M2159,123 l60,0 l0,60 l-60,0 z" fill="green"/>
<path d="M2189,153 l296,526" stroke="black" stroke-width="5"/>
<path d="M7914,2393 l60,0 l0,60 l-60,0 z" fill="green"/>
<path d="M7944,2423 l0,-295.5" stroke="black" stroke-width="5"/>
<path d="M5020,1444 l60,0 l0,60 l-60,0 z" fill="green"/>
<path d="M5050,1474 l106.5,-59.5" stroke="black" stroke-width="5"/>
<path d="M616,3124 l60,0 l0,60 l-60,0 z" fill="green"/>
<path d="M646,3154 l0.5,0.5" stroke="black" stroke-width="5"/>
<path d="M5667,2283 l60,0 l0,60 l-60,0 z" fill="green"/>
<path d="M5697,2313 l0,461" stroke="black" stroke-width="5"/>
<path d="M8874,7834 l60,0 l0,60 l-60,0 z" fill="green"/>
<path d="M8904,7864 l5,0" stroke="black" stroke-width="5"/>
<path d="M1284,1826 l60,0 l0,60 l-60,0 z" fill="green"/>
<path d="M1314,1856 l0.5,0.5" stroke="black" stroke-width="5"/>
<path d="M6433,808 l60,0 l0,60 l-60,0 z" fill="green"/>
<path d="M6463,838 l0,-181" stroke="black" stroke-width="5"/>
<path d="M1512,2808 l60,0 l0,60 l-60,0 z" fill="green"/>
<path d="M1542,2838 l0.5,0" stroke="black" stroke-width="5"/>
<path d="M5710,4761 l60,0 l0,60 l-60,0 z" fill="green"/>
<path d="M5740,4791 l76.5,-641" stroke="black" stroke-width="5"/>
<path d="M4353,9446 l60,0 l0,60 l-60,0 z" fill="green"/>
<path d="M4383,9476 l82,28" stroke="black" stroke-width="5"/>
<text font-size="196.116135138184" text-anchor="middle" x="6588.5" y="7502.1406472983645">
0
</text>
<text font-size="196.116135138184" text-anchor="middle" x="7902" y="9126.140647298364">
1
</text>
<text font-size="196.116135138184" text-anchor="middle" x="9428" y="4408.6406472983645">
2
</text>
<text font-size="196.116135138184" text-anchor="middle" x="4880" y="5096.6406472983645">
3
</text>
<text font-size="196.116135138184" text-anchor="middle" x="1105.5" y="810.1406472983645">
4
</text>
<text font-size="196.116135138184" text-anchor="middle" x="4624.5" y="9157.640647298364">
5
</text>
<text font-size="196.116135138184" text-anchor="middle" x="5871.5" y="229.6406472983644">
6
</text>
<text font-size="196.116135138184" text-anchor="middle" x="8670.5" y="745.1406472983645">
7
</text>
<text font-size="196.116135138184" text-anchor="middle" x="4711.5" y="7167.6406472983645">
8
</text>
<text font-size="196.116135138184" text-anchor="middle" x="5632" y="7234.6406472983645">
9
</text>
<text font-size="196.116135138184" text-anchor="middle" x="5098" y="7187.6406472983645">
10
</text>
<text font-size="196.116135138184" text-anchor="middle" x="330" y="6828.6406472983645">
11
</text>
<text font-size="196.116135138184" text-anchor="middle" x="8044" y="5076.1406472983645">
12
</text>
<text font-size="196.116135138184" text-anchor="middle" x="9545.5" y="5660.1406472983645">
13
</text>
<text font-size="196.116135138184" text-anchor="middle" x="5716.5" y="649.1406472983645">
14
</text>
<text font-size="196.116135138184" text-anchor="middle" x="2910.5" y="8521.140647298364">
15
</text>
<text font-size="196.116135138184" text-anchor="middle" x="4132.5" y="8708.640647298364">
16
</text>
<text font-size="196.116135138184" text-anchor="middle" x="1489" y="6439.6406472983645">
17
</text>
<text font-size="196.116135138184" text-anchor="middle" x="9142.5" y="1500.1406472983645">
18
</text>
<text font-size="196.116135138184" text-anchor="middle" x="4734" y="10029.140647298364">
19
</text>
<text font-size="196.116135138184" text-anchor="middle" x="1532" y="7980.6406472983645">
20
</text>
<text font-size="196.116135138184" text-anchor="middle" x="6613" y="1436.1406472983645">
21
</text>
<text font-size="196.116135138184" text-anchor="middle" x="2161" y="2067.6406472983645">
22
</text>
<text font-size="196.116135138184" text-anchor="middle" x="4516.5" y="745.6406472983645">
23
</text>
<text font-size="196.116135138184" text-anchor="middle" x="3503" y="5891.6406472983645">
24
</text>
<text font-size="196.116135138184" text-anchor="middle" x="4680.5" y="1839.1406472983645">
25
</text>
<text font-size="196.116135138184" text-anchor="middle" x="9027" y="3190.6406472983645">
26
</text>
<text font-size="196.116135138184" text-anchor="middle" x="4064" y="1778.6406472983645">
27
</text>
<text font-size="196.116135138184" text-anchor="middle" x="8609" y="4120.6406472983645">
28
</text>
<text font-size="196.116135138184" text-anchor="middle" x="5409" y="1962.6406472983645">
29
</text>
<text font-size="196.116135138184" text-anchor="middle" x="5000" y="9946.640647298364">
30
</text>
<text font-size="196.116135138184" text-anchor="middle" x="8205" y="266.6406472983644">
31
</text>
<text font-size="196.116135138184" text-anchor="middle" x="2075.5" y="1482.6406472983645">
32
</text>
<text font-size="196.116135138184" text-anchor="middle" x="6579" y="6964.1406472983645">
33
</text>
<text font-size="196.116135138184" text-anchor="middle" x="7872" y="7972.6406472983645">
34
</text>
<text font-size="196.116135138184" text-anchor="middle" x="1378.5" y="9281.640647298364">
35
</text>
<text font-size="196.116135138184" text-anchor="middle" x="4357" y="7810.6406472983645">
36
</text>
<text font-size="196.116135138184" text-anchor="middle" x="7186.5" y="4995.6406472983645">
37
</text>
<text font-size="196.116135138184" text-anchor="middle" x="3903" y="3269.6406472983645">
38
</text>
<text font-size="196.116135138184" text-anchor="middle" x="470.5" y="1771.6406472983645">
39
</text>
<text font-size="196.116135138184" text-anchor="middle" x="813.5" y="6611.6406472983645">
40
</text>
<text font-size="196.116135138184" text-anchor="middle" x="2485" y="747.6406472983645">
41
</text>
<text font-size="196.116135138184" text-anchor="middle" x="7944" y="2196.1406472983645">
42
</text>
<text font-size="196.116135138184" text-anchor="middle" x="5156.5" y="1483.1406472983645">
43
</text>
<text font-size="196.116135138184" text-anchor="middle" x="646.5" y="3223.1406472983645">
44
</text>
<text font-size="196.116135138184" text-anchor="middle" x="5697" y="2842.6406472983645">
45
</text>
<text font-size="196.116135138184" text-anchor="middle" x="8909" y="7932.6406472983645">
46
</text>
<text font-size="196.116135138184" text-anchor="middle" x="1314.5" y="1925.1406472983645">
47
</text>
<text font-size="196.116135138184" text-anchor="middle" x="6463" y="725.6406472983645">
48
</text>
<text font-size="196.116135138184" text-anchor="middle" x="1542.5" y="2906.6406472983645">
49
</text>
<text font-size="196.116135138184" text-anchor="middle" x="5816.5" y="4218.6406472983645">
50
</text>
<text font-size="196.116135138184" text-anchor="middle" x="4465" y="9572.640647298364">
51
</text>
</svg>