<svg viewBox="-100 -100 10200 10200" xmlns="http://www.w3.org/2000/svg">
<path d="M0,0 l10000,0 l0,10000 l-10000,0 z" fill="white"/>
<path d="M7081,7128 l777,0 l0,2063 l-777,0 z" fill="#fe00ff" stroke="black" stroke-width="5"/>
<path d="M0,7220 l3811,0 l0,439 l-3811,0 z" fill="#fe00ff" stroke="black" stroke-width="5"/>
<path d="M3124,6412 l970,0 l0,808 l-970,0 z" fill="#fe00ff" stroke="black" stroke-width="5"/>
<path d="M913,1717 l1526,0 l0,1526 l-1526,0 z" fill="#fe00ff" stroke="black" stroke-width="5"/>
<path d="M132,287 l501,0 l0,500 l-501,0 z" fill="#fe00ff" stroke="black" stroke-width="5"/>
<path d="M3587,5198 l1050,0 l0,609 l-1050,0 z" fill="#fe00ff" stroke="black" stroke-width="5"/>
<path d="M8936,8087 l1064,0 l0,1913 l-1064,0 z" fill="#fe00ff" stroke="black" stroke-width="5"/>
<path d="M772,7136 l2352,0 l0,84 l-2352,0 z" fill="#0000ff" stroke="black" stroke-width="5"/>
<path d="M7858,8551 l726,0 l0,1449 l-726,0 z" fill="#5e00ff" stroke="black" stroke-width="5"/>
<path d="M8908,3804 l731,0 l0,1087 l-731,0 z" fill="#fe00ff" stroke="black" stroke-width="5"/>
<path d="M3811,7220 l283,0 l0,304 l-283,0 z" fill="#fe00ff" stroke="black" stroke-width="5"/>
<path d="M1726,3243 l995,0 l0,2871 l-995,0 z" fill="#fd00ff" stroke="black" stroke-width="5"/>
<path d="M0,9251 l481,0 l0,528 l-481,0 z" fill="#fe00ff" stroke="black" stroke-width="5"/>
<path d="M2763,4601 l824,0 l0,1144 l-824,0 z" fill="#fe00ff" stroke="black" stroke-width="5"/>
<path d="M4094,6412 l1271,0 l0,3588 l-1271,0 z" fill="#ca00ff" stroke="black" stroke-width="5"/>
<path d="M7858,7314 l853,0 l0,1237 l-853,0 z" fill="#fe00ff" stroke="black" stroke-width="5"/>
<path d="M1519,6114 l1202,0 l0,1022 l-1202,0 z" fill="#fe00ff" stroke="black" stroke-width="5"/>
<path d="M7306,4327 l1531,0 l0,2344 l-1531,0 z" fill="#fe00ff" stroke="black" stroke-width="5"/>
<path d="M635,8114 l483,0 l0,483 l-483,0 z" fill="#fe00ff" stroke="black" stroke-width="5"/>
<path d="M8731,145 l1269,0 l0,1337 l-1269,0 z" fill="#7600ff" stroke="black" stroke-width="5"/>
<path d="M8837,6185 l802,0 l0,414 l-802,0 z" fill="#1800ff" stroke="black" stroke-width="5"/>
<path d="M8711,6671 l230,0 l0,1416 l-230,0 z" fill="#2200ff" stroke="black" stroke-width="5"/>
<path d="M4637,6411 l728,0 l0,1 l-728,0 z" fill="#0000ff" stroke="black" stroke-width="5"/>
<path d="M6756,5829 l550,0 l0,550 l-550,0 z" fill="#fe00ff" stroke="black" stroke-width="5"/>
<path d="M8584,8661 l352,0 l0,1339 l-352,0 z" fill="#fe00ff" stroke="black" stroke-width="5"/>
<path d="M6396,2392 l986,0 l0,985 l-986,0 z" fill="#fe00ff" stroke="black" stroke-width="5"/>
<path d="M9639,7122 l361,0 l0,965 l-361,0 z" fill="#0100ff" stroke="black" stroke-width="5"/>
<path d="M7570,0 l280,0 l0,4327 l-280,0 z" fill="#7700ff" stroke="black" stroke-width="5"/>
<path d="M5941,1125 l716,0 l0,972 l-716,0 z" fill="#fe00ff" stroke="black" stroke-width="5"/>
<path d="M9639,3278 l361,0 l0,3844 l-361,0 z" fill="#f000ff" stroke="black" stroke-width="5"/>
<path d="M7850,0 l881,0 l0,4004 l-881,0 z" fill="#fe00ff" stroke="black" stroke-width="5"/>
<path d="M0,3243 l1726,0 l0,2762 l-1726,0 z" fill="#fe00ff" stroke="black" stroke-width="5"/>
<path d="M4637,4511 l1496,0 l0,1900 l-1496,0 z" fill="#fe00ff" stroke="black" stroke-width="5"/>
<path d="M4723,3995 l2583,0 l0,516 l-2583,0 z" fill="#9800ff" stroke="black" stroke-width="5"/>
<path d="M3392,7659 l553,0 l0,276 l-553,0 z" fill="#fe00ff" stroke="black" stroke-width="5"/>
<path d="M0,6226 l772,0 l0,994 l-772,0 z" fill="#fe00ff" stroke="black" stroke-width="5"/>
<path d="M2721,5807 l1916,0 l0,605 l-1916,0 z" fill="#e800ff" stroke="black" stroke-width="5"/>
<path d="M8837,4891 l802,0 l0,1294 l-802,0 z" fill="#fe00ff" stroke="black" stroke-width="5"/>
<path d="M4923,2744 l917,0 l0,1251 l-917,0 z" fill="#fe00ff" stroke="black" stroke-width="5"/>
<path d="M5365,6411 l1941,0 l0,545 l-1941,0 z" fill="#1b00ff" stroke="black" stroke-width="5"/>
<path d="M5365,6956 l767,0 l0,523 l-767,0 z" fill="#fe00ff" stroke="black" stroke-width="5"/>
<path d="M1749,8037 l2345,0 l0,1963 l-2345,0 z" fill="#fe00ff" stroke="black" stroke-width="5"/>
<path d="M6900,917 l670,0 l0,669 l-670,0 z" fill="#fe00ff" stroke="black" stroke-width="5"/>
<path d="M5840,2510 l556,0 l0,1485 l-556,0 z" fill="#c600ff" stroke="black" stroke-width="5"/>
<path d="M9947,70 l53,0 l0,75 l-53,0 z" fill="#fe00ff" stroke="black" stroke-width="5"/>
<path d="M8801,1482 l1199,0 l0,1796 l-1199,0 z" fill="#fe00ff" stroke="black" stroke-width="5"/>
<path d="M8941,6599 l698,0 l0,1132 l-698,0 z" fill="#fe00ff" stroke="black" stroke-width="5"/>
<path d="M2965,2510 l1758,0 l0,1757 l-1758,0 z" fill="#fe00ff" stroke="black" stroke-width="5"/>
<path d="M7080,6956 l1,0 l0,3044 l-1,0 z" fill="#0000ff" stroke="black" stroke-width="5"/>
<path d="M4675,1254 l1266,0 l0,1256 l-1266,0 z" fill="#fe00ff" stroke="black" stroke-width="5"/>
<path d="M5365,7479 l1715,0 l0,2218 l-1715,0 z" fill="#fe00ff" stroke="black" stroke-width="5"/>
<path d="M7782,8129 l60,0 l0,60 l-60,0 z" fill="green"/>
<path d="M7812,8159 l-342.5,0.5" stroke="black" stroke-width="5"/>
<path d="M3563,7476 l60,0 l0,60 l-60,0 z" fill="green"/>
<path d="M3593,7506 l-1687.5,-66.5" stroke="black" stroke-width="5"/>
<path d="M3824,6459 l60,0 l0,60 l-60,0 z" fill="green"/>
<path d="M3854,6489 l-245,327" stroke="black" stroke-width="5"/>
<path d="M1646,2450 l60,0 l0,60 l-60,0 z" fill="green"/>
<path d="M1676,2480 l0,0" stroke="black" stroke-width="5"/>
<path d="M352,507 l60,0 l0,60 l-60,0 z" fill="green"/>
<path d="M382,537 l0.5,0" stroke="black" stroke-width="5"/>
<path d="M4165,5776 l60,0 l0,60 l-60,0 z" fill="green"/>
<path d="M4195,5806 l-83,-303.5" stroke="black" stroke-width="5"/>
<path d="M9871,9610 l60,0 l0,60 l-60,0 z" fill="green"/>
<path d="M9901,9640 l-433,-596.5" stroke="black" stroke-width="5"/>
<path d="M1795,7106 l60,0 l0,60 l-60,0 z" fill="green"/>
<path d="M1825,7136 l123,42" stroke="black" stroke-width="5"/>
<path d="M8553,9691 l60,0 l0,60 l-60,0 z" fill="green"/>
<path d="M8583,9721 l-362,-445.5" stroke="black" stroke-width="5"/>
<path d="M9422,4317 l60,0 l0,60 l-60,0 z" fill="green"/>
<path d="M9452,4347 l-178.5,0.5" stroke="black" stroke-width="5"/>
<path d="M4063,7212 l60,0 l0,60 l-60,0 z" fill="green"/>
<path d="M4093,7242 l-140.5,130" stroke="black" stroke-width="5"/>
<path d="M2206,5860 l60,0 l0,60 l-60,0 z" fill="green"/>
<path d="M2236,5890 l-12.5,-1211.5" stroke="black" stroke-width="5"/>
<path d="M187,9485 l60,0 l0,60 l-60,0 z" fill="green"/>
<path d="M217,9515 l23.5,0" stroke="black" stroke-width="5"/>
<path d="M3305,5143 l60,0 l0,60 l-60,0 z" fill="green"/>
<path d="M3335,5173 l-160,0" stroke="black" stroke-width="5"/>
<path d="M4779,6591 l60,0 l0,60 l-60,0 z" fill="green"/>
<path d="M4809,6621 l-79.5,1585" stroke="black" stroke-width="5"/>
<path d="M8446,7902 l60,0 l0,60 l-60,0 z" fill="green"/>
<path d="M8476,7932 l-191.5,0.5" stroke="black" stroke-width="5"/>
<path d="M2090,6685 l60,0 l0,60 l-60,0 z" fill="green"/>
<path d="M2120,6715 l0,-90" stroke="black" stroke-width="5"/>
<path d="M7635,5469 l60,0 l0,60 l-60,0 z" fill="green"/>
<path d="M7665,5499 l406.5,0" stroke="black" stroke-width="5"/>
<path d="M846,8325 l60,0 l0,60 l-60,0 z" fill="green"/>
<path d="M876,8355 l0.5,0.5" stroke="black" stroke-width="5"/>
<path d="M9582,1167 l60,0 l0,60 l-60,0 z" fill="green"/>
<path d="M9612,1197 l-246.5,-383.5" stroke="black" stroke-width="5"/>
<path d="M9031,6499 l60,0 l0,60 l-60,0 z" fill="green"/>
<path d="M9061,6529 l177,-137" stroke="black" stroke-width="5"/>
<path d="M8681,7823 l60,0 l0,60 l-60,0 z" fill="green"/>
<path d="M8711,7853 l115,-474" stroke="black" stroke-width="5"/>
<path d="M4607,6381 l60,0 l0,60 l-60,0 z" fill="green"/>
<path d="M4637,6411 l364,0.5" stroke="black" stroke-width="5"/>
<path d="M7001,6074 l60,0 l0,60 l-60,0 z" fill="green"/>
<path d="M7031,6104 l0,0" stroke="black" stroke-width="5"/>
<path d="M8905,9697 l60,0 l0,60 l-60,0 z" fill="green"/>
<path d="M8935,9727 l-175,-396.5" stroke="black" stroke-width="5"/>
<path d="M6859,2854 l60,0 l0,60 l-60,0 z" fill="green"/>
<path d="M6889,2884 l0,0.5" stroke="black" stroke-width="5"/>
<path d="M9735,7092 l60,0 l0,60 l-60,0 z" fill="green"/>
<path d="M9765,7122 l54.5,482.5" stroke="black" stroke-width="5"/>
<path d="M7819,1139 l60,0 l0,60 l-60,0 z" fill="green"/>
<path d="M7849,1169 l-139,994.5" stroke="black" stroke-width="5"/>
<path d="M6140,1581 l60,0 l0,60 l-60,0 z" fill="green"/>
<path d="M6170,1611 l129,0" stroke="black" stroke-width="5"/>
<path d="M9855,5360 l60,0 l0,60 l-60,0 z" fill="green"/>
<path d="M9885,5390 l-65.5,-190" stroke="black" stroke-width="5"/>
<path d="M8700,873 l60,0 l0,60 l-60,0 z" fill="green"/>
<path d="M8730,903 l-439.5,1099" stroke="black" stroke-width="5"/>
<path d="M213,4491 l60,0 l0,60 l-60,0 z" fill="green"/>
<path d="M243,4521 l620,103" stroke="black" stroke-width="5"/>
<path d="M4753,5830 l60,0 l0,60 l-60,0 z" fill="green"/>
<path d="M4783,5860 l602,-399" stroke="black" stroke-width="5"/>
<path d="M5558,3965 l60,0 l0,60 l-60,0 z" fill="green"/>
<path d="M5588,3995 l426.5,258" stroke="black" stroke-width="5"/>
<path d="M3638,7629 l60,0 l0,60 l-60,0 z" fill="green"/>
<path d="M3668,7659 l0.5,138" stroke="black" stroke-width="5"/>
<path d="M244,6693 l60,0 l0,60 l-60,0 z" fill="green"/>
<path d="M274,6723 l112,0" stroke="black" stroke-width="5"/>
<path d="M4002,6210 l60,0 l0,60 l-60,0 z" fill="green"/>
<path d="M4032,6240 l-353,-130.5" stroke="black" stroke-width="5"/>
<path d="M9608,5260 l60,0 l0,60 l-60,0 z" fill="green"/>
<path d="M9638,5290 l-400,248" stroke="black" stroke-width="5"/>
<path d="M5526,3346 l60,0 l0,60 l-60,0 z" fill="green"/>
<path d="M5556,3376 l-174.5,-6.5" stroke="black" stroke-width="5"/>
<path d="M5672,6640 l60,0 l0,60 l-60,0 z" fill="green"/>
<path d="M5702,6670 l633.5,13.5" stroke="black" stroke-width="5"/>
<path d="M5718,7309 l60,0 l0,60 l-60,0 z" fill="green"/>
<path d="M5748,7339 l0.5,-121.5" stroke="black" stroke-width="5"/>
<path d="M3488,9775 l60,0 l0,60 l-60,0 z" fill="green"/>
<path d="M3518,9805 l-596.5,-786.5" stroke="black" stroke-width="5"/>
<path d="M7205,1221 l60,0 l0,60 l-60,0 z" fill="green"/>
<path d="M7235,1251 l0,0.5" stroke="black" stroke-width="5"/>
<path d="M5810,3173 l60,0 l0,60 l-60,0 z" fill="green"/>
<path d="M5840,3203 l278,49.5" stroke="black" stroke-width="5"/>
<path d="M9955,77 l60,0 l0,60 l-60,0 z" fill="green"/>
<path d="M9985,107 l-11.5,0.5" stroke="black" stroke-width="5"/>
<path d="M9668,2350 l60,0 l0,60 l-60,0 z" fill="green"/>
<path d="M9698,2380 l-297.5,0" stroke="black" stroke-width="5"/>
<path d="M9476,7135 l60,0 l0,60 l-60,0 z" fill="green"/>
<path d="M9506,7165 l-216,0" stroke="black" stroke-width="5"/>
<path d="M3814,3358 l60,0 l0,60 l-60,0 z" fill="green"/>
<path d="M3844,3388 l0,0.5" stroke="black" stroke-width="5"/>
<path d="M7050,7999 l60,0 l0,60 l-60,0 z" fill="green"/>
<path d="M7080,8029 l0.5,449" stroke="black" stroke-width="5"/>
<path d="M5278,1857 l60,0 l0,60 l-60,0 z" fill="green"/>
<path d="M5308,1887 l0,-5" stroke="black" stroke-width="5"/>
<path d="M5691,7449 l60,0 l0,60 l-60,0 z" fill="green"/>
<path d="M5721,7479 l501.5,1109" stroke="black" stroke-width="5"/>
<text font-size="198.02950859533485" text-anchor="middle" x="7469.5" y="8228.810328008367">
0
</text>
<text font-size="198.02950859533485" text-anchor="middle" x="1905.5" y="7508.810328008367">
1
</text>
<text font-size="198.02950859533485" text-anchor="middle" x="3609" y="6885.310328008367">
2
</text>
<text font-size="198.02950859533485" text-anchor="middle" x="1676" y="2549.3103280083674">
3
</text>
<text font-size="198.02950859533485" text-anchor="middle" x="382.5" y="606.3103280083672">
4
</text>
<text font-size="198.02950859533485" text-anchor="middle" x="4112" y="5571.810328008367">
5
</text>
<text font-size="198.02950859533485" text-anchor="middle" x="9468" y="9112.810328008367">
6
</text>
<text font-size="198.02950859533485" text-anchor="middle" x="1948" y="7247.310328008367">
7
</text>
<text font-size="198.02950859533485" text-anchor="middle" x="8221" y="9344.810328008367">
8
</text>
<text font-size="198.02950859533485" text-anchor="middle" x="9273.5" y="4416.810328008367">
9
</text>
<text font-size="198.02950859533485" text-anchor="middle" x="3952.5" y="7441.310328008367">
10
</text>
<text font-size="198.02950859533485" text-anchor="middle" x="2223.5" y="4747.810328008367">
11
</text>
<text font-size="198.02950859533485" text-anchor="middle" x="240.5" y="9584.310328008367">
12
</text>
<text font-size="198.02950859533485" text-anchor="middle" x="3175" y="5242.310328008367">
13
</text>
<text font-size="198.02950859533485" text-anchor="middle" x="4729.5" y="8275.310328008367">
14
</text>
<text font-size="198.02950859533485" text-anchor="middle" x="8284.5" y="8001.810328008367">
15
</text>
<text font-size="198.02950859533485" text-anchor="middle" x="2120" y="6694.310328008367">
16
</text>
<text font-size="198.02950859533485" text-anchor="middle" x="8071.5" y="5568.310328008367">
17
</text>
<text font-size="198.02950859533485" text-anchor="middle" x="876.5" y="8424.810328008367">
18
</text>
<text font-size="198.02950859533485" text-anchor="middle" x="9365.5" y="882.8103280083672">
19
</text>
<text font-size="198.02950859533485" text-anchor="middle" x="9238" y="6461.310328008367">
20
</text>
<text font-size="198.02950859533485" text-anchor="middle" x="8826" y="7448.310328008367">
21
</text>
<text font-size="198.02950859533485" text-anchor="middle" x="5001" y="6480.810328008367">
22
</text>
<text font-size="198.02950859533485" text-anchor="middle" x="7031" y="6173.310328008367">
23
</text>
<text font-size="198.02950859533485" text-anchor="middle" x="8760" y="9399.810328008367">
24
</text>
<text font-size="198.02950859533485" text-anchor="middle" x="6889" y="2953.8103280083674">
25
</text>
<text font-size="198.02950859533485" text-anchor="middle" x="9819.5" y="7673.810328008367">
26
</text>
<text font-size="198.02950859533485" text-anchor="middle" x="7710" y="2232.8103280083674">
27
</text>
<text font-size="198.02950859533485" text-anchor="middle" x="6299" y="1680.3103280083672">
28
</text>
<text font-size="198.02950859533485" text-anchor="middle" x="9819.5" y="5269.310328008367">
29
</text>
<text font-size="198.02950859533485" text-anchor="middle" x="8290.5" y="2071.3103280083674">
30
</text>
<text font-size="198.02950859533485" text-anchor="middle" x="863" y="4693.310328008367">
31
</text>
<text font-size="198.02950859533485" text-anchor="middle" x="5385" y="5530.310328008367">
32
</text>
<text font-size="198.02950859533485" text-anchor="middle" x="6014.5" y="4322.310328008367">
33
</text>
<text font-size="198.02950859533485" text-anchor="middle" x="3668.5" y="7866.310328008367">
34
</text>
<text font-size="198.02950859533485" text-anchor="middle" x="386" y="6792.310328008367">
35
</text>
<text font-size="198.02950859533485" text-anchor="middle" x="3679" y="6178.810328008367">
36
</text>
<text font-size="198.02950859533485" text-anchor="middle" x="9238" y="5607.310328008367">
37
</text>
<text font-size="198.02950859533485" text-anchor="middle" x="5381.5" y="3438.8103280083674">
38
</text>
<text font-size="198.02950859533485" text-anchor="middle" x="6335.5" y="6752.810328008367">
39
</text>
<text font-size="198.02950859533485" text-anchor="middle" x="5748.5" y="7286.810328008367">
40
</text>
<text font-size="198.02950859533485" text-anchor="middle" x="2921.5" y="9087.810328008367">
41
</text>
<text font-size="198.02950859533485" text-anchor="middle" x="7235" y="1320.8103280083672">
42
</text>
<text font-size="198.02950859533485" text-anchor="middle" x="6118" y="3321.8103280083674">
43
</text>
<text font-size="198.02950859533485" text-anchor="middle" x="9973.5" y="176.8103280083672">
44
</text>
<text font-size="198.02950859533485" text-anchor="middle" x="9400.5" y="2449.3103280083674">
45
</text>
<text font-size="198.02950859533485" text-anchor="middle" x="9290" y="7234.310328008367">
46
</text>
<text font-size="198.02950859533485" text-anchor="middle" x="3844" y="3457.8103280083674">
47
</text>
<text font-size="198.02950859533485" text-anchor="middle" x="7080.5" y="8547.310328008367">
48
</text>
<text font-size="198.02950859533485" text-anchor="middle" x="5308" y="1951.3103280083672">
49
</text>
<text font-size="198.02950859533485" text-anchor="middle" x="6222.5" y="8657.310328008367">
50
</text>
</svg>