<svg viewBox="-100 -100 10200 10200" xmlns="http://www.w3.org/2000/svg">
<path d="M0,0 l10000,0 l0,10000 l-10000,0 z" fill="white"/>
<path d="M5599,2466 l1154,0 l0,1396 l-1154,0 z" fill="#fe00ff" stroke="black" stroke-width="5"/>
<path d="M6031,5251 l1752,0 l0,2216 l-1752,0 z" fill="#fe00ff" stroke="black" stroke-width="5"/>
<path d="M8383,5152 l282,0 l0,1853 l-282,0 z" fill="#fe00ff" stroke="black" stroke-width="5"/>
<path d="M9233,1325 l494,0 l0,280 l-494,0 z" fill="#fe00ff" stroke="black" stroke-width="5"/>
<path d="M571,5869 l550,0 l0,598 l-550,0 z" fill="#fe00ff" stroke="black" stroke-width="5"/>
<path d="M6891,8075 l339,0 l0,338 l-339,0 z" fill="#fe00ff" stroke="black" stroke-width="5"/>
<path d="M9221,1605 l351,0 l0,619 l-351,0 z" fill="#fe00ff" stroke="black" stroke-width="5"/>
<path d="M3847,3464 l1431,0 l0,1323 l-1431,0 z" fill="#fe00ff" stroke="black" stroke-width="5"/>
<path d="M822,1391 l356,0 l0,356 l-356,0 z" fill="#fe00ff" stroke="black" stroke-width="5"/>
<path d="M0,4415 l188,0 l0,1105 l-188,0 z" fill="#0100ff" stroke="black" stroke-width="5"/>
<path d="M3709,8914 l689,0 l0,759 l-689,0 z" fill="#fe00ff" stroke="black" stroke-width="5"/>
<path d="M66,1780 l474,0 l0,473 l-474,0 z" fill="#fe00ff" stroke="black" stroke-width="5"/>
<path d="M9236,5905 l764,0 l0,417 l-764,0 z" fill="#fe00ff" stroke="black" stroke-width="5"/>
<path d="M7861,1745 l1360,0 l0,1339 l-1360,0 z" fill="#fe00ff" stroke="black" stroke-width="5"/>
<path d="M0,2253 l3586,0 l0,407 l-3586,0 z" fill="#fe00ff" stroke="black" stroke-width="5"/>
<path d="M6031,9406 l2352,0 l0,594 l-2352,0 z" fill="#8000ff" stroke="black" stroke-width="5"/>
<path d="M8665,5707 l505,0 l0,504 l-505,0 z" fill="#fe00ff" stroke="black" stroke-width="5"/>
<path d="M0,1213 l730,0 l0,567 l-730,0 z" fill="#fe00ff" stroke="black" stroke-width="5"/>
<path d="M0,9637 l3331,0 l0,363 l-3331,0 z" fill="#1e00ff" stroke="black" stroke-width="5"/>
<path d="M3751,6078 l1331,0 l0,1570 l-1331,0 z" fill="#fe00ff" stroke="black" stroke-width="5"/>
<path d="M0,2660 l1008,0 l0,566 l-1008,0 z" fill="#5700ff" stroke="black" stroke-width="5"/>
<path d="M5599,0 l19,0 l0,2466 l-19,0 z" fill="#0100ff" stroke="black" stroke-width="5"/>
<path d="M1008,2964 l118,0 l0,117 l-118,0 z" fill="#fe00ff" stroke="black" stroke-width="5"/>
<path d="M3514,1123 l682,0 l0,681 l-682,0 z" fill="#fe00ff" stroke="black" stroke-width="5"/>
<path d="M8383,8661 l1617,0 l0,140 l-1617,0 z" fill="#9200ff" stroke="black" stroke-width="5"/>
<path d="M928,9243 l2403,0 l0,394 l-2403,0 z" fill="#fe00ff" stroke="black" stroke-width="5"/>
<path d="M1121,5761 l2630,0 l0,1887 l-2630,0 z" fill="#fe00ff" stroke="black" stroke-width="5"/>
<path d="M6812,4032 l908,0 l0,907 l-908,0 z" fill="#fe00ff" stroke="black" stroke-width="5"/>
<path d="M571,5077 l957,0 l0,684 l-957,0 z" fill="#5200ff" stroke="black" stroke-width="5"/>
<path d="M8258,4600 l553,0 l0,552 l-553,0 z" fill="#fe00ff" stroke="black" stroke-width="5"/>
<path d="M3331,8914 l378,0 l0,1086 l-378,0 z" fill="#4800ff" stroke="black" stroke-width="5"/>
<path d="M9268,8801 l636,0 l0,636 l-636,0 z" fill="#fe00ff" stroke="black" stroke-width="5"/>
<path d="M4531,2471 l994,0 l0,993 l-994,0 z" fill="#fe00ff" stroke="black" stroke-width="5"/>
<path d="M8836,6838 l1164,0 l0,1823 l-1164,0 z" fill="#bc00ff" stroke="black" stroke-width="5"/>
<path d="M6347,178 l3653,0 l0,1147 l-3653,0 z" fill="#fe00ff" stroke="black" stroke-width="5"/>
<path d="M0,5520 l571,0 l0,1639 l-571,0 z" fill="#fe00ff" stroke="black" stroke-width="5"/>
<path d="M188,4415 l1324,0 l0,662 l-1324,0 z" fill="#fe00ff" stroke="black" stroke-width="5"/>
<path d="M4196,946 l1403,0 l0,1525 l-1403,0 z" fill="#7900ff" stroke="black" stroke-width="5"/>
<path d="M4659,787 l317,0 l0,159 l-317,0 z" fill="#fe00ff" stroke="black" stroke-width="5"/>
<path d="M2467,7648 l864,0 l0,1595 l-864,0 z" fill="#a700ff" stroke="black" stroke-width="5"/>
<path d="M3331,7648 l1953,0 l0,1266 l-1953,0 z" fill="#fe00ff" stroke="black" stroke-width="5"/>
<path d="M8383,8801 l885,0 l0,1199 l-885,0 z" fill="#1d00ff" stroke="black" stroke-width="5"/>
<path d="M3868,26 l214,0 l0,214 l-214,0 z" fill="#fe00ff" stroke="black" stroke-width="5"/>
<path d="M7736,3268 l756,0 l0,755 l-756,0 z" fill="#fe00ff" stroke="black" stroke-width="5"/>
<path d="M5278,3862 l677,0 l0,925 l-677,0 z" fill="#0400ff" stroke="black" stroke-width="5"/>
<path d="M1528,4491 l1259,0 l0,1270 l-1259,0 z" fill="#fe00ff" stroke="black" stroke-width="5"/>
<path d="M5147,4787 l884,0 l0,1401 l-884,0 z" fill="#fe00ff" stroke="black" stroke-width="5"/>
<path d="M5618,0 l4382,0 l0,178 l-4382,0 z" fill="#4000ff" stroke="black" stroke-width="5"/>
<path d="M82,8681 l404,0 l0,403 l-404,0 z" fill="#fe00ff" stroke="black" stroke-width="5"/>
<path d="M904,7648 l1563,0 l0,1351 l-1563,0 z" fill="#fe00ff" stroke="black" stroke-width="5"/>
<path d="M6347,1325 l2874,0 l0,420 l-2874,0 z" fill="#f400ff" stroke="black" stroke-width="5"/>
<path d="M8383,7005 l453,0 l0,1656 l-453,0 z" fill="#2f00ff" stroke="black" stroke-width="5"/>
<path d="M5284,6188 l747,0 l0,3456 l-747,0 z" fill="#fe00ff" stroke="black" stroke-width="5"/>
<path d="M2787,3267 l1060,0 l0,2494 l-1060,0 z" fill="#fe00ff" stroke="black" stroke-width="5"/>
<path d="M5955,4297 l396,0 l0,490 l-396,0 z" fill="#fe00ff" stroke="black" stroke-width="5"/>
<path d="M5618,1277 l729,0 l0,927 l-729,0 z" fill="#fe00ff" stroke="black" stroke-width="5"/>
<path d="M6753,3044 l126,0 l0,253 l-126,0 z" fill="#fe00ff" stroke="black" stroke-width="5"/>
<path d="M8665,6322 l1335,0 l0,516 l-1335,0 z" fill="#2f00ff" stroke="black" stroke-width="5"/>
<path d="M7783,5152 l600,0 l0,4254 l-600,0 z" fill="#f200ff" stroke="black" stroke-width="5"/>
<path d="M36,3226 l2114,0 l0,1189 l-2114,0 z" fill="#fe00ff" stroke="black" stroke-width="5"/>
<path d="M6267,3134 l60,0 l0,60 l-60,0 z" fill="green"/>
<path d="M6297,3164 l-121,0" stroke="black" stroke-width="5"/>
<path d="M7108,6329 l60,0 l0,60 l-60,0 z" fill="green"/>
<path d="M7138,6359 l-231,0" stroke="black" stroke-width="5"/>
<path d="M8353,5493 l60,0 l0,60 l-60,0 z" fill="green"/>
<path d="M8383,5523 l141,555.5" stroke="black" stroke-width="5"/>
<path d="M9450,1329 l60,0 l0,60 l-60,0 z" fill="green"/>
<path d="M9480,1359 l0,106" stroke="black" stroke-width="5"/>
<path d="M792,6138 l60,0 l0,60 l-60,0 z" fill="green"/>
<path d="M822,6168 l24,0" stroke="black" stroke-width="5"/>
<path d="M7030,8214 l60,0 l0,60 l-60,0 z" fill="green"/>
<path d="M7060,8244 l0.5,0" stroke="black" stroke-width="5"/>
<path d="M9191,1844 l60,0 l0,60 l-60,0 z" fill="green"/>
<path d="M9221,1874 l175.5,40.5" stroke="black" stroke-width="5"/>
<path d="M4532,4099 l60,0 l0,60 l-60,0 z" fill="green"/>
<path d="M4562,4129 l0.5,-3.5" stroke="black" stroke-width="5"/>
<path d="M970,1539 l60,0 l0,60 l-60,0 z" fill="green"/>
<path d="M1000,1569 l0,0" stroke="black" stroke-width="5"/>
<path d="M58,4713 l60,0 l0,60 l-60,0 z" fill="green"/>
<path d="M88,4743 l6,224.5" stroke="black" stroke-width="5"/>
<path d="M3988,9263 l60,0 l0,60 l-60,0 z" fill="green"/>
<path d="M4018,9293 l35.5,0.5" stroke="black" stroke-width="5"/>
<path d="M273,1986 l60,0 l0,60 l-60,0 z" fill="green"/>
<path d="M303,2016 l0,0.5" stroke="black" stroke-width="5"/>
<path d="M9622,6291 l60,0 l0,60 l-60,0 z" fill="green"/>
<path d="M9652,6321 l-34,-207.5" stroke="black" stroke-width="5"/>
<path d="M8621,2263 l60,0 l0,60 l-60,0 z" fill="green"/>
<path d="M8651,2293 l-110,121.5" stroke="black" stroke-width="5"/>
<path d="M554,2629 l60,0 l0,60 l-60,0 z" fill="green"/>
<path d="M584,2659 l1209,-202.5" stroke="black" stroke-width="5"/>
<path d="M8056,9376 l60,0 l0,60 l-60,0 z" fill="green"/>
<path d="M8086,9406 l-879,297" stroke="black" stroke-width="5"/>
<path d="M8887,5929 l60,0 l0,60 l-60,0 z" fill="green"/>
<path d="M8917,5959 l0.5,0" stroke="black" stroke-width="5"/>
<path d="M166,1715 l60,0 l0,60 l-60,0 z" fill="green"/>
<path d="M196,1745 l169,-248.5" stroke="black" stroke-width="5"/>
<path d="M2957,9607 l60,0 l0,60 l-60,0 z" fill="green"/>
<path d="M2987,9637 l-1321.5,181.5" stroke="black" stroke-width="5"/>
<path d="M3964,7135 l60,0 l0,60 l-60,0 z" fill="green"/>
<path d="M3994,7165 l422.5,-302" stroke="black" stroke-width="5"/>
<path d="M751,3195 l60,0 l0,60 l-60,0 z" fill="green"/>
<path d="M781,3225 l-277,-282" stroke="black" stroke-width="5"/>
<path d="M5587,1565 l60,0 l0,60 l-60,0 z" fill="green"/>
<path d="M5617,1595 l-8.5,-362" stroke="black" stroke-width="5"/>
<path d="M1037,2992 l60,0 l0,60 l-60,0 z" fill="green"/>
<path d="M1067,3022 l0,0.5" stroke="black" stroke-width="5"/>
<path d="M3825,1433 l60,0 l0,60 l-60,0 z" fill="green"/>
<path d="M3855,1463 l0,0.5" stroke="black" stroke-width="5"/>
<path d="M9227,8631 l60,0 l0,60 l-60,0 z" fill="green"/>
<path d="M9257,8661 l-65.5,70" stroke="black" stroke-width="5"/>
<path d="M2839,9213 l60,0 l0,60 l-60,0 z" fill="green"/>
<path d="M2869,9243 l-739.5,197" stroke="black" stroke-width="5"/>
<path d="M2381,7070 l60,0 l0,60 l-60,0 z" fill="green"/>
<path d="M2411,7100 l25,-395.5" stroke="black" stroke-width="5"/>
<path d="M7236,4455 l60,0 l0,60 l-60,0 z" fill="green"/>
<path d="M7266,4485 l0,0.5" stroke="black" stroke-width="5"/>
<path d="M1497,5394 l60,0 l0,60 l-60,0 z" fill="green"/>
<path d="M1527,5424 l-477.5,-5" stroke="black" stroke-width="5"/>
<path d="M8504,4846 l60,0 l0,60 l-60,0 z" fill="green"/>
<path d="M8534,4876 l0.5,0" stroke="black" stroke-width="5"/>
<path d="M3678,9538 l60,0 l0,60 l-60,0 z" fill="green"/>
<path d="M3708,9568 l-188,-111" stroke="black" stroke-width="5"/>
<path d="M9556,9089 l60,0 l0,60 l-60,0 z" fill="green"/>
<path d="M9586,9119 l0,0" stroke="black" stroke-width="5"/>
<path d="M4998,2937 l60,0 l0,60 l-60,0 z" fill="green"/>
<path d="M5028,2967 l0,0.5" stroke="black" stroke-width="5"/>
<path d="M9685,8146 l60,0 l0,60 l-60,0 z" fill="green"/>
<path d="M9715,8176 l-297,-426.5" stroke="black" stroke-width="5"/>
<path d="M9425,1294 l60,0 l0,60 l-60,0 z" fill="green"/>
<path d="M9455,1324 l-1281.5,-572.5" stroke="black" stroke-width="5"/>
<path d="M540,6309 l60,0 l0,60 l-60,0 z" fill="green"/>
<path d="M570,6339 l-284.5,0.5" stroke="black" stroke-width="5"/>
<path d="M820,4385 l60,0 l0,60 l-60,0 z" fill="green"/>
<path d="M850,4415 l0,331" stroke="black" stroke-width="5"/>
<path d="M4769,2051 l60,0 l0,60 l-60,0 z" fill="green"/>
<path d="M4799,2081 l98.5,-372.5" stroke="black" stroke-width="5"/>
<path d="M4787,915 l60,0 l0,60 l-60,0 z" fill="green"/>
<path d="M4817,945 l0.5,-78.5" stroke="black" stroke-width="5"/>
<path d="M2437,7618 l60,0 l0,60 l-60,0 z" fill="green"/>
<path d="M2467,7648 l432,797.5" stroke="black" stroke-width="5"/>
<path d="M3301,7688 l60,0 l0,60 l-60,0 z" fill="green"/>
<path d="M3331,7718 l976.5,563" stroke="black" stroke-width="5"/>
<path d="M8985,9115 l60,0 l0,60 l-60,0 z" fill="green"/>
<path d="M9015,9145 l-189.5,255.5" stroke="black" stroke-width="5"/>
<path d="M3945,103 l60,0 l0,60 l-60,0 z" fill="green"/>
<path d="M3975,133 l0,0" stroke="black" stroke-width="5"/>
<path d="M8084,3615 l60,0 l0,60 l-60,0 z" fill="green"/>
<path d="M8114,3645 l0,0.5" stroke="black" stroke-width="5"/>
<path d="M5924,4534 l60,0 l0,60 l-60,0 z" fill="green"/>
<path d="M5954,4564 l-337.5,-239.5" stroke="black" stroke-width="5"/>
<path d="M2135,5699 l60,0 l0,60 l-60,0 z" fill="green"/>
<path d="M2165,5729 l-7.5,-603" stroke="black" stroke-width="5"/>
<path d="M5817,5457 l60,0 l0,60 l-60,0 z" fill="green"/>
<path d="M5847,5487 l-258,0.5" stroke="black" stroke-width="5"/>
<path d="M9873,147 l60,0 l0,60 l-60,0 z" fill="green"/>
<path d="M9903,177 l-2094,-88" stroke="black" stroke-width="5"/>
<path d="M254,8852 l60,0 l0,60 l-60,0 z" fill="green"/>
<path d="M284,8882 l0,0.5" stroke="black" stroke-width="5"/>
<path d="M1896,7947 l60,0 l0,60 l-60,0 z" fill="green"/>
<path d="M1926,7977 l-240.5,346.5" stroke="black" stroke-width="5"/>
<path d="M8947,1714 l60,0 l0,60 l-60,0 z" fill="green"/>
<path d="M8977,1744 l-1193,-209" stroke="black" stroke-width="5"/>
<path d="M8805,7887 l60,0 l0,60 l-60,0 z" fill="green"/>
<path d="M8835,7917 l-225.5,-84" stroke="black" stroke-width="5"/>
<path d="M5603,7691 l60,0 l0,60 l-60,0 z" fill="green"/>
<path d="M5633,7721 l24.5,195" stroke="black" stroke-width="5"/>
<path d="M2757,5100 l60,0 l0,60 l-60,0 z" fill="green"/>
<path d="M2787,5130 l530,-616" stroke="black" stroke-width="5"/>
<path d="M6039,4548 l60,0 l0,60 l-60,0 z" fill="green"/>
<path d="M6069,4578 l84,-36" stroke="black" stroke-width="5"/>
<path d="M5854,1710 l60,0 l0,60 l-60,0 z" fill="green"/>
<path d="M5884,1740 l98.5,0.5" stroke="black" stroke-width="5"/>
<path d="M6723,3140 l60,0 l0,60 l-60,0 z" fill="green"/>
<path d="M6753,3170 l63,0.5" stroke="black" stroke-width="5"/>
<path d="M9442,6807 l60,0 l0,60 l-60,0 z" fill="green"/>
<path d="M9472,6837 l-139.5,-257" stroke="black" stroke-width="5"/>
<path d="M7753,5832 l60,0 l0,60 l-60,0 z" fill="green"/>
<path d="M7783,5862 l300,1417" stroke="black" stroke-width="5"/>
<path d="M1063,3578 l60,0 l0,60 l-60,0 z" fill="green"/>
<path d="M1093,3608 l0,212.5" stroke="black" stroke-width="5"/>
<text font-size="182.57418583505537" text-anchor="middle" x="6176" y="3227.9009650422695">
0
</text>
<text font-size="182.57418583505537" text-anchor="middle" x="6907" y="6422.9009650422695">
1
</text>
<text font-size="182.57418583505537" text-anchor="middle" x="8524" y="6142.4009650422695">
2
</text>
<text font-size="182.57418583505537" text-anchor="middle" x="9480" y="1528.9009650422695">
3
</text>
<text font-size="182.57418583505537" text-anchor="middle" x="846" y="6231.9009650422695">
4
</text>
<text font-size="182.57418583505537" text-anchor="middle" x="7060.5" y="8307.900965042269">
5
</text>
<text font-size="182.57418583505537" text-anchor="middle" x="9396.5" y="1978.4009650422695">
6
</text>
<text font-size="182.57418583505537" text-anchor="middle" x="4562.5" y="4189.4009650422695">
7
</text>
<text font-size="182.57418583505537" text-anchor="middle" x="1000" y="1632.9009650422695">
8
</text>
<text font-size="182.57418583505537" text-anchor="middle" x="94" y="5031.4009650422695">
9
</text>
<text font-size="182.57418583505537" text-anchor="middle" x="4053.5" y="9357.400965042269">
10
</text>
<text font-size="182.57418583505537" text-anchor="middle" x="303" y="2080.4009650422695">
11
</text>
<text font-size="182.57418583505537" text-anchor="middle" x="9618" y="6177.4009650422695">
12
</text>
<text font-size="182.57418583505537" text-anchor="middle" x="8541" y="2478.4009650422695">
13
</text>
<text font-size="182.57418583505537" text-anchor="middle" x="1793" y="2520.4009650422695">
14
</text>
<text font-size="182.57418583505537" text-anchor="middle" x="7207" y="9766.900965042269">
15
</text>
<text font-size="182.57418583505537" text-anchor="middle" x="8917.5" y="6022.9009650422695">
16
</text>
<text font-size="182.57418583505537" text-anchor="middle" x="365" y="1560.4009650422695">
17
</text>
<text font-size="182.57418583505537" text-anchor="middle" x="1665.5" y="9882.400965042269">
18
</text>
<text font-size="182.57418583505537" text-anchor="middle" x="4416.5" y="6926.9009650422695">
19
</text>
<text font-size="182.57418583505537" text-anchor="middle" x="504" y="3006.9009650422695">
20
</text>
<text font-size="182.57418583505537" text-anchor="middle" x="5608.5" y="1296.9009650422695">
21
</text>
<text font-size="182.57418583505537" text-anchor="middle" x="1067" y="3086.4009650422695">
22
</text>
<text font-size="182.57418583505537" text-anchor="middle" x="3855" y="1527.4009650422695">
23
</text>
<text font-size="182.57418583505537" text-anchor="middle" x="9191.5" y="8794.900965042269">
24
</text>
<text font-size="182.57418583505537" text-anchor="middle" x="2129.5" y="9503.900965042269">
25
</text>
<text font-size="182.57418583505537" text-anchor="middle" x="2436" y="6768.4009650422695">
26
</text>
<text font-size="182.57418583505537" text-anchor="middle" x="7266" y="4549.4009650422695">
27
</text>
<text font-size="182.57418583505537" text-anchor="middle" x="1049.5" y="5482.9009650422695">
28
</text>
<text font-size="182.57418583505537" text-anchor="middle" x="8534.5" y="4939.9009650422695">
29
</text>
<text font-size="182.57418583505537" text-anchor="middle" x="3520" y="9520.900965042269">
30
</text>
<text font-size="182.57418583505537" text-anchor="middle" x="9586" y="9182.900965042269">
31
</text>
<text font-size="182.57418583505537" text-anchor="middle" x="5028" y="3031.4009650422695">
32
</text>
<text font-size="182.57418583505537" text-anchor="middle" x="9418" y="7813.4009650422695">
33
</text>
<text font-size="182.57418583505537" text-anchor="middle" x="8173.5" y="815.4009650422694">
34
</text>
<text font-size="182.57418583505537" text-anchor="middle" x="285.5" y="6403.4009650422695">
35
</text>
<text font-size="182.57418583505537" text-anchor="middle" x="850" y="4809.9009650422695">
36
</text>
<text font-size="182.57418583505537" text-anchor="middle" x="4897.5" y="1772.4009650422695">
37
</text>
<text font-size="182.57418583505537" text-anchor="middle" x="4817.5" y="930.4009650422694">
38
</text>
<text font-size="182.57418583505537" text-anchor="middle" x="2899" y="8509.400965042269">
39
</text>
<text font-size="182.57418583505537" text-anchor="middle" x="4307.5" y="8344.900965042269">
40
</text>
<text font-size="182.57418583505537" text-anchor="middle" x="8825.5" y="9464.400965042269">
41
</text>
<text font-size="182.57418583505537" text-anchor="middle" x="3975" y="196.90096504226938">
42
</text>
<text font-size="182.57418583505537" text-anchor="middle" x="8114" y="3709.4009650422695">
43
</text>
<text font-size="182.57418583505537" text-anchor="middle" x="5616.5" y="4388.4009650422695">
44
</text>
<text font-size="182.57418583505537" text-anchor="middle" x="2157.5" y="5189.9009650422695">
45
</text>
<text font-size="182.57418583505537" text-anchor="middle" x="5589" y="5551.4009650422695">
46
</text>
<text font-size="182.57418583505537" text-anchor="middle" x="7809" y="152.90096504226938">
47
</text>
<text font-size="182.57418583505537" text-anchor="middle" x="284" y="8946.400965042269">
48
</text>
<text font-size="182.57418583505537" text-anchor="middle" x="1685.5" y="8387.400965042269">
49
</text>
<text font-size="182.57418583505537" text-anchor="middle" x="7784" y="1598.9009650422695">
50
</text>
<text font-size="182.57418583505537" text-anchor="middle" x="8609.5" y="7896.9009650422695">
51
</text>
<text font-size="182.57418583505537" text-anchor="middle" x="5657.5" y="7979.9009650422695">
52
</text>
<text font-size="182.57418583505537" text-anchor="middle" x="3317" y="4577.9009650422695">
53
</text>
<text font-size="182.57418583505537" text-anchor="middle" x="6153" y="4605.9009650422695">
54
</text>
<text font-size="182.57418583505537" text-anchor="middle" x="5982.5" y="1804.4009650422695">
55
</text>
<text font-size="182.57418583505537" text-anchor="middle" x="6816" y="3234.4009650422695">
56
</text>
<text font-size="182.57418583505537" text-anchor="middle" x="9332.5" y="6643.9009650422695">
57
</text>
<text font-size="182.57418583505537" text-anchor="middle" x="8083" y="7342.9009650422695">
58
</text>
<text font-size="182.57418583505537" text-anchor="middle" x="1093" y="3884.4009650422695">
59
</text>
</svg>