<svg viewBox="-100 -100 10200 10200" xmlns="http://www.w3.org/2000/svg">
<path d="M0,0 l10000,0 l0,10000 l-10000,0 z" fill="white"/>
<path d="M3138,1509 l1340,0 l0,1542 l-1340,0 z" fill="#5900ff" stroke="black" stroke-width="5"/>
<path d="M9278,7041 l582,0 l0,1541 l-582,0 z" fill="#4b00ff" stroke="black" stroke-width="5"/>
<path d="M3335,320 l767,0 l0,384 l-767,0 z" fill="#fe00ff" stroke="black" stroke-width="5"/>
<path d="M2767,5242 l1637,0 l0,996 l-1637,0 z" fill="#1800ff" stroke="black" stroke-width="5"/>
<path d="M461,3018 l610,0 l0,304 l-610,0 z" fill="#fe00ff" stroke="black" stroke-width="5"/>
<path d="M8237,8582 l1763,0 l0,1418 l-1763,0 z" fill="#f900ff" stroke="black" stroke-width="5"/>
<path d="M1388,3362 l611,0 l0,763 l-611,0 z" fill="#fe00ff" stroke="black" stroke-width="5"/>
<path d="M5002,3471 l1049,0 l0,1049 l-1049,0 z" fill="#fe00ff" stroke="black" stroke-width="5"/>
<path d="M7208,5904 l1747,0 l0,1819 l-1747,0 z" fill="#fe00ff" stroke="black" stroke-width="5"/>
<path d="M0,0 l1205,0 l0,3018 l-1205,0 z" fill="#9d00ff" stroke="black" stroke-width="5"/>
<path d="M2767,3887 l732,0 l0,731 l-732,0 z" fill="#fe00ff" stroke="black" stroke-width="5"/>
<path d="M1205,78 l1933,0 l0,2179 l-1933,0 z" fill="#fe00ff" stroke="black" stroke-width="5"/>
<path d="M3455,9237 l1320,0 l0,763 l-1320,0 z" fill="#fe00ff" stroke="black" stroke-width="5"/>
<path d="M4055,3051 l501,0 l0,250 l-501,0 z" fill="#fe00ff" stroke="black" stroke-width="5"/>
<path d="M3499,3301 l1199,0 l0,1318 l-1199,0 z" fill="#bd00ff" stroke="black" stroke-width="5"/>
<path d="M7925,9281 l175,0 l0,174 l-175,0 z" fill="#fe00ff" stroke="black" stroke-width="5"/>
<path d="M2362,7326 l1540,0 l0,428 l-1540,0 z" fill="#5100ff" stroke="black" stroke-width="5"/>
<path d="M6830,3754 l1877,0 l0,1876 l-1877,0 z" fill="#fe00ff" stroke="black" stroke-width="5"/>
<path d="M9049,0 l951,0 l0,995 l-951,0 z" fill="#5800ff" stroke="black" stroke-width="5"/>
<path d="M421,6268 l367,0 l0,176 l-367,0 z" fill="#fe00ff" stroke="black" stroke-width="5"/>
<path d="M6631,6832 l577,0 l0,797 l-577,0 z" fill="#fa00ff" stroke="black" stroke-width="5"/>
<path d="M2693,6391 l1209,0 l0,935 l-1209,0 z" fill="#fe00ff" stroke="black" stroke-width="5"/>
<path d="M4116,7055 l618,0 l0,574 l-618,0 z" fill="#fe00ff" stroke="black" stroke-width="5"/>
<path d="M4701,4793 l969,0 l0,1691 l-969,0 z" fill="#fe00ff" stroke="black" stroke-width="5"/>
<path d="M5393,618 l1098,0 l0,549 l-1098,0 z" fill="#fe00ff" stroke="black" stroke-width="5"/>
<path d="M2099,4234 l668,0 l0,2034 l-668,0 z" fill="#8900ff" stroke="black" stroke-width="5"/>
<path d="M4734,6484 l1099,0 l0,849 l-1099,0 z" fill="#1000ff" stroke="black" stroke-width="5"/>
<path d="M2447,6411 l246,0 l0,490 l-246,0 z" fill="#fe00ff" stroke="black" stroke-width="5"/>
<path d="M9049,995 l488,0 l0,976 l-488,0 z" fill="#fe00ff" stroke="black" stroke-width="5"/>
<path d="M0,6444 l1186,0 l0,2457 l-1186,0 z" fill="#fe00ff" stroke="black" stroke-width="5"/>
<path d="M7576,7723 l1702,0 l0,859 l-1702,0 z" fill="#fe00ff" stroke="black" stroke-width="5"/>
<path d="M1999,2257 l85,0 l0,3964 l-85,0 z" fill="#fe00ff" stroke="black" stroke-width="5"/>
<path d="M6331,3070 l878,0 l0,684 l-878,0 z" fill="#fe00ff" stroke="black" stroke-width="5"/>
<path d="M7010,90 l754,0 l0,754 l-754,0 z" fill="#fe00ff" stroke="black" stroke-width="5"/>
<path d="M4404,5602 l297,0 l0,297 l-297,0 z" fill="#fe00ff" stroke="black" stroke-width="5"/>
<path d="M6555,6238 l432,0 l0,594 l-432,0 z" fill="#fe00ff" stroke="black" stroke-width="5"/>
<path d="M241,9465 l274,0 l0,274 l-274,0 z" fill="#fe00ff" stroke="black" stroke-width="5"/>
<path d="M1186,8732 l920,0 l0,729 l-920,0 z" fill="#fe00ff" stroke="black" stroke-width="5"/>
<path d="M4775,9239 l1262,0 l0,761 l-1262,0 z" fill="#fe00ff" stroke="black" stroke-width="5"/>
<path d="M0,5433 l1999,0 l0,835 l-1999,0 z" fill="#8300ff" stroke="black" stroke-width="5"/>
<path d="M6378,9466 l656,0 l0,534 l-656,0 z" fill="#fe00ff" stroke="black" stroke-width="5"/>
<path d="M2858,9237 l177,0 l0,88 l-177,0 z" fill="#fe00ff" stroke="black" stroke-width="5"/>
<path d="M7979,9792 l258,0 l0,208 l-258,0 z" fill="#fe00ff" stroke="black" stroke-width="5"/>
<path d="M4478,618 l915,0 l0,2433 l-915,0 z" fill="#dc00ff" stroke="black" stroke-width="5"/>
<path d="M4075,4619 l623,0 l0,623 l-623,0 z" fill="#fe00ff" stroke="black" stroke-width="5"/>
<path d="M3038,6238 l480,0 l0,153 l-480,0 z" fill="#fe00ff" stroke="black" stroke-width="5"/>
<path d="M9408,6761 l281,0 l0,280 l-281,0 z" fill="#fe00ff" stroke="black" stroke-width="5"/>
<path d="M760,3551 l628,0 l0,628 l-628,0 z" fill="#fe00ff" stroke="black" stroke-width="5"/>
<path d="M8082,2762 l1541,0 l0,770 l-1541,0 z" fill="#fe00ff" stroke="black" stroke-width="5"/>
<path d="M1186,6268 l1176,0 l0,1175 l-1176,0 z" fill="#fe00ff" stroke="black" stroke-width="5"/>
<path d="M1354,7966 l766,0 l0,766 l-766,0 z" fill="#fe00ff" stroke="black" stroke-width="5"/>
<path d="M271,4305 l1128,0 l0,1128 l-1128,0 z" fill="#fe00ff" stroke="black" stroke-width="5"/>
<path d="M2364,7754 l2262,0 l0,1483 l-2262,0 z" fill="#fe00ff" stroke="black" stroke-width="5"/>
<path d="M6135,5805 l420,0 l0,1528 l-420,0 z" fill="#e200ff" stroke="black" stroke-width="5"/>
<path d="M7893,403 l442,0 l0,883 l-442,0 z" fill="#fe00ff" stroke="black" stroke-width="5"/>
<path d="M8335,176 l714,0 l0,2586 l-714,0 z" fill="#8c00ff" stroke="black" stroke-width="5"/>
<path d="M8955,3532 l323,0 l0,4191 l-323,0 z" fill="#fe00ff" stroke="black" stroke-width="5"/>
<path d="M5393,1605 l378,0 l0,470 l-378,0 z" fill="#fe00ff" stroke="black" stroke-width="5"/>
<path d="M2915,2257 l223,0 l0,119 l-223,0 z" fill="#fe00ff" stroke="black" stroke-width="5"/>
<path d="M3138,704 l911,0 l0,805 l-911,0 z" fill="#fe00ff" stroke="black" stroke-width="5"/>
<path d="M2084,3285 l683,0 l0,949 l-683,0 z" fill="#fe00ff" stroke="black" stroke-width="5"/>
<path d="M5771,1427 l638,0 l0,742 l-638,0 z" fill="#fe00ff" stroke="black" stroke-width="5"/>
<path d="M4734,7333 l1897,0 l0,296 l-1897,0 z" fill="#fe00ff" stroke="black" stroke-width="5"/>
<path d="M4698,4520 l2132,0 l0,273 l-2132,0 z" fill="#8a00ff" stroke="black" stroke-width="5"/>
<path d="M5833,6866 l302,0 l0,302 l-302,0 z" fill="#fe00ff" stroke="black" stroke-width="5"/>
<path d="M3902,7629 l3306,0 l0,125 l-3306,0 z" fill="#4b00ff" stroke="black" stroke-width="5"/>
<path d="M2084,4234 l15,0 l0,2034 l-15,0 z" fill="#0000ff" stroke="black" stroke-width="5"/>
<path d="M9860,2275 l140,0 l0,6307 l-140,0 z" fill="#fe00ff" stroke="black" stroke-width="5"/>
<path d="M7764,0 l1285,0 l0,176 l-1285,0 z" fill="#0500ff" stroke="black" stroke-width="5"/>
<path d="M5017,0 l1645,0 l0,618 l-1645,0 z" fill="#fe00ff" stroke="black" stroke-width="5"/>
<path d="M5670,5299 l507,0 l0,506 l-507,0 z" fill="#fe00ff" stroke="black" stroke-width="5"/>
<path d="M3523,1986 l60,0 l0,60 l-60,0 z" fill="green"/>
<path d="M3553,2016 l255,264" stroke="black" stroke-width="5"/>
<path d="M9248,8365 l60,0 l0,60 l-60,0 z" fill="green"/>
<path d="M9278,8395 l291,-583.5" stroke="black" stroke-width="5"/>
<path d="M3688,673 l60,0 l0,60 l-60,0 z" fill="green"/>
<path d="M3718,703 l0.5,-191" stroke="black" stroke-width="5"/>
<path d="M3169,6207 l60,0 l0,60 l-60,0 z" fill="green"/>
<path d="M3199,6237 l386.5,-497" stroke="black" stroke-width="5"/>
<path d="M736,2988 l60,0 l0,60 l-60,0 z" fill="green"/>
<path d="M766,3018 l0,152" stroke="black" stroke-width="5"/>
<path d="M8657,9621 l60,0 l0,60 l-60,0 z" fill="green"/>
<path d="M8687,9651 l431.5,-360" stroke="black" stroke-width="5"/>
<path d="M1587,3713 l60,0 l0,60 l-60,0 z" fill="green"/>
<path d="M1617,3743 l76.5,0.5" stroke="black" stroke-width="5"/>
<path d="M5496,3965 l60,0 l0,60 l-60,0 z" fill="green"/>
<path d="M5526,3995 l0.5,0.5" stroke="black" stroke-width="5"/>
<path d="M8296,6992 l60,0 l0,60 l-60,0 z" fill="green"/>
<path d="M8326,7022 l-244.5,-208.5" stroke="black" stroke-width="5"/>
<path d="M449,881 l60,0 l0,60 l-60,0 z" fill="green"/>
<path d="M479,911 l123.5,598" stroke="black" stroke-width="5"/>
<path d="M3103,4222 l60,0 l0,60 l-60,0 z" fill="green"/>
<path d="M3133,4252 l0,0.5" stroke="black" stroke-width="5"/>
<path d="M2630,1503 l60,0 l0,60 l-60,0 z" fill="green"/>
<path d="M2660,1533 l-488.5,-365.5" stroke="black" stroke-width="5"/>
<path d="M4605,9478 l60,0 l0,60 l-60,0 z" fill="green"/>
<path d="M4635,9508 l-520,110.5" stroke="black" stroke-width="5"/>
<path d="M4275,3021 l60,0 l0,60 l-60,0 z" fill="green"/>
<path d="M4305,3051 l0.5,125" stroke="black" stroke-width="5"/>
<path d="M3792,3830 l60,0 l0,60 l-60,0 z" fill="green"/>
<path d="M3822,3860 l276.5,100" stroke="black" stroke-width="5"/>
<path d="M7982,9338 l60,0 l0,60 l-60,0 z" fill="green"/>
<path d="M8012,9368 l0.5,0" stroke="black" stroke-width="5"/>
<path d="M3871,7723 l60,0 l0,60 l-60,0 z" fill="green"/>
<path d="M3901,7753 l-769,-213" stroke="black" stroke-width="5"/>
<path d="M7738,4662 l60,0 l0,60 l-60,0 z" fill="green"/>
<path d="M7768,4692 l0.5,0" stroke="black" stroke-width="5"/>
<path d="M9294,801 l60,0 l0,60 l-60,0 z" fill="green"/>
<path d="M9324,831 l200.5,-333.5" stroke="black" stroke-width="5"/>
<path d="M574,6413 l60,0 l0,60 l-60,0 z" fill="green"/>
<path d="M604,6443 l0.5,-87" stroke="black" stroke-width="5"/>
<path d="M6959,7346 l60,0 l0,60 l-60,0 z" fill="green"/>
<path d="M6989,7376 l-69.5,-145.5" stroke="black" stroke-width="5"/>
<path d="M3179,6603 l60,0 l0,60 l-60,0 z" fill="green"/>
<path d="M3209,6633 l88.5,225.5" stroke="black" stroke-width="5"/>
<path d="M4395,7333 l60,0 l0,60 l-60,0 z" fill="green"/>
<path d="M4425,7363 l0,-21" stroke="black" stroke-width="5"/>
<path d="M5137,5567 l60,0 l0,60 l-60,0 z" fill="green"/>
<path d="M5167,5597 l18.5,41.5" stroke="black" stroke-width="5"/>
<path d="M5912,588 l60,0 l0,60 l-60,0 z" fill="green"/>
<path d="M5942,618 l0,274.5" stroke="black" stroke-width="5"/>
<path d="M2466,4204 l60,0 l0,60 l-60,0 z" fill="green"/>
<path d="M2496,4234 l-63,1017" stroke="black" stroke-width="5"/>
<path d="M4912,7302 l60,0 l0,60 l-60,0 z" fill="green"/>
<path d="M4942,7332 l341.5,-423.5" stroke="black" stroke-width="5"/>
<path d="M2662,6626 l60,0 l0,60 l-60,0 z" fill="green"/>
<path d="M2692,6656 l-122,0" stroke="black" stroke-width="5"/>
<path d="M9019,1453 l60,0 l0,60 l-60,0 z" fill="green"/>
<path d="M9049,1483 l244,0" stroke="black" stroke-width="5"/>
<path d="M106,7257 l60,0 l0,60 l-60,0 z" fill="green"/>
<path d="M136,7287 l457,385.5" stroke="black" stroke-width="5"/>
<path d="M8406,7693 l60,0 l0,60 l-60,0 z" fill="green"/>
<path d="M8436,7723 l-9,429.5" stroke="black" stroke-width="5"/>
<path d="M2053,3631 l60,0 l0,60 l-60,0 z" fill="green"/>
<path d="M2083,3661 l-41.5,578" stroke="black" stroke-width="5"/>
<path d="M6740,3479 l60,0 l0,60 l-60,0 z" fill="green"/>
<path d="M6770,3509 l0,-97" stroke="black" stroke-width="5"/>
<path d="M7357,437 l60,0 l0,60 l-60,0 z" fill="green"/>
<path d="M7387,467 l0,0" stroke="black" stroke-width="5"/>
<path d="M4522,5720 l60,0 l0,60 l-60,0 z" fill="green"/>
<path d="M4552,5750 l0.5,0.5" stroke="black" stroke-width="5"/>
<path d="M6660,6505 l60,0 l0,60 l-60,0 z" fill="green"/>
<path d="M6690,6535 l81,0" stroke="black" stroke-width="5"/>
<path d="M348,9572 l60,0 l0,60 l-60,0 z" fill="green"/>
<path d="M378,9602 l0,0" stroke="black" stroke-width="5"/>
<path d="M1512,8868 l60,0 l0,60 l-60,0 z" fill="green"/>
<path d="M1542,8898 l104,198.5" stroke="black" stroke-width="5"/>
<path d="M5376,9840 l60,0 l0,60 l-60,0 z" fill="green"/>
<path d="M5406,9870 l0,-250.5" stroke="black" stroke-width="5"/>
<path d="M1384,6122 l60,0 l0,60 l-60,0 z" fill="green"/>
<path d="M1414,6152 l-414.5,-301.5" stroke="black" stroke-width="5"/>
<path d="M6676,9763 l60,0 l0,60 l-60,0 z" fill="green"/>
<path d="M6706,9793 l0,-60" stroke="black" stroke-width="5"/>
<path d="M2916,9207 l60,0 l0,60 l-60,0 z" fill="green"/>
<path d="M2946,9237 l0.5,44" stroke="black" stroke-width="5"/>
<path d="M8078,9890 l60,0 l0,60 l-60,0 z" fill="green"/>
<path d="M8108,9920 l0,-24" stroke="black" stroke-width="5"/>
<path d="M4448,1971 l60,0 l0,60 l-60,0 z" fill="green"/>
<path d="M4478,2001 l457.5,-166.5" stroke="black" stroke-width="5"/>
<path d="M4356,4900 l60,0 l0,60 l-60,0 z" fill="green"/>
<path d="M4386,4930 l0.5,0.5" stroke="black" stroke-width="5"/>
<path d="M3248,6360 l60,0 l0,60 l-60,0 z" fill="green"/>
<path d="M3278,6390 l0,-75.5" stroke="black" stroke-width="5"/>
<path d="M9518,6871 l60,0 l0,60 l-60,0 z" fill="green"/>
<path d="M9548,6901 l0.5,0" stroke="black" stroke-width="5"/>
<path d="M1044,3835 l60,0 l0,60 l-60,0 z" fill="green"/>
<path d="M1074,3865 l0,0" stroke="black" stroke-width="5"/>
<path d="M8822,2732 l60,0 l0,60 l-60,0 z" fill="green"/>
<path d="M8852,2762 l0.5,385" stroke="black" stroke-width="5"/>
<path d="M1744,6825 l60,0 l0,60 l-60,0 z" fill="green"/>
<path d="M1774,6855 l0,0.5" stroke="black" stroke-width="5"/>
<path d="M1707,8319 l60,0 l0,60 l-60,0 z" fill="green"/>
<path d="M1737,8349 l0,0" stroke="black" stroke-width="5"/>
<path d="M805,4839 l60,0 l0,60 l-60,0 z" fill="green"/>
<path d="M835,4869 l0,0" stroke="black" stroke-width="5"/>
<path d="M3465,8216 l60,0 l0,60 l-60,0 z" fill="green"/>
<path d="M3495,8246 l0,249.5" stroke="black" stroke-width="5"/>
<path d="M6524,6562 l60,0 l0,60 l-60,0 z" fill="green"/>
<path d="M6554,6592 l-209,-23" stroke="black" stroke-width="5"/>
<path d="M8304,814 l60,0 l0,60 l-60,0 z" fill="green"/>
<path d="M8334,844 l-220,0.5" stroke="black" stroke-width="5"/>
<path d="M8566,1039 l60,0 l0,60 l-60,0 z" fill="green"/>
<path d="M8596,1069 l96,400" stroke="black" stroke-width="5"/>
<path d="M8925,7529 l60,0 l0,60 l-60,0 z" fill="green"/>
<path d="M8955,7559 l161.5,-1931.5" stroke="black" stroke-width="5"/>
<path d="M5505,1810 l60,0 l0,60 l-60,0 z" fill="green"/>
<path d="M5535,1840 l47,0" stroke="black" stroke-width="5"/>
<path d="M3003,2227 l60,0 l0,60 l-60,0 z" fill="green"/>
<path d="M3033,2257 l-6.5,59.5" stroke="black" stroke-width="5"/>
<path d="M3108,1478 l60,0 l0,60 l-60,0 z" fill="green"/>
<path d="M3138,1508 l455.5,-401.5" stroke="black" stroke-width="5"/>
<path d="M2517,3999 l60,0 l0,60 l-60,0 z" fill="green"/>
<path d="M2547,4029 l-121.5,-269.5" stroke="black" stroke-width="5"/>
<path d="M6007,1768 l60,0 l0,60 l-60,0 z" fill="green"/>
<path d="M6037,1798 l53,0" stroke="black" stroke-width="5"/>
<path d="M5037,7550 l60,0 l0,60 l-60,0 z" fill="green"/>
<path d="M5067,7580 l615.5,-99" stroke="black" stroke-width="5"/>
<path d="M5065,4762 l60,0 l0,60 l-60,0 z" fill="green"/>
<path d="M5095,4792 l669,-135.5" stroke="black" stroke-width="5"/>
<path d="M5954,6987 l60,0 l0,60 l-60,0 z" fill="green"/>
<path d="M5984,7017 l0,0" stroke="black" stroke-width="5"/>
<path d="M4171,7599 l60,0 l0,60 l-60,0 z" fill="green"/>
<path d="M4201,7629 l1354,62.5" stroke="black" stroke-width="5"/>
<path d="M2068,4253 l60,0 l0,60 l-60,0 z" fill="green"/>
<path d="M2098,4283 l-6.5,968" stroke="black" stroke-width="5"/>
<path d="M9830,8507 l60,0 l0,60 l-60,0 z" fill="green"/>
<path d="M9860,8537 l70,-3108.5" stroke="black" stroke-width="5"/>
<path d="M9008,145 l60,0 l0,60 l-60,0 z" fill="green"/>
<path d="M9038,175 l-631.5,-87" stroke="black" stroke-width="5"/>
<path d="M5809,114 l60,0 l0,60 l-60,0 z" fill="green"/>
<path d="M5839,144 l0.5,165" stroke="black" stroke-width="5"/>
<path d="M5893,5522 l60,0 l0,60 l-60,0 z" fill="green"/>
<path d="M5923,5552 l0.5,0" stroke="black" stroke-width="5"/>
<text font-size="167.83627165933783" text-anchor="middle" x="3808" y="2338.742695080768">
0
</text>
<text font-size="167.83627165933783" text-anchor="middle" x="9569" y="7870.2426950807685">
1
</text>
<text font-size="167.83627165933783" text-anchor="middle" x="3718.5" y="570.7426950807683">
2
</text>
<text font-size="167.83627165933783" text-anchor="middle" x="3585.5" y="5798.7426950807685">
3
</text>
<text font-size="167.83627165933783" text-anchor="middle" x="766" y="3228.742695080768">
4
</text>
<text font-size="167.83627165933783" text-anchor="middle" x="9118.5" y="9349.742695080768">
5
</text>
<text font-size="167.83627165933783" text-anchor="middle" x="1693.5" y="3802.242695080768">
6
</text>
<text font-size="167.83627165933783" text-anchor="middle" x="5526.5" y="4054.242695080768">
7
</text>
<text font-size="167.83627165933783" text-anchor="middle" x="8081.5" y="6872.2426950807685">
8
</text>
<text font-size="167.83627165933783" text-anchor="middle" x="602.5" y="1567.7426950807683">
9
</text>
<text font-size="167.83627165933783" text-anchor="middle" x="3133" y="4311.2426950807685">
10
</text>
<text font-size="167.83627165933783" text-anchor="middle" x="2171.5" y="1226.2426950807683">
11
</text>
<text font-size="167.83627165933783" text-anchor="middle" x="4115" y="9677.242695080768">
12
</text>
<text font-size="167.83627165933783" text-anchor="middle" x="4305.5" y="3234.742695080768">
13
</text>
<text font-size="167.83627165933783" text-anchor="middle" x="4098.5" y="4018.742695080768">
14
</text>
<text font-size="167.83627165933783" text-anchor="middle" x="8012.5" y="9426.742695080768">
15
</text>
<text font-size="167.83627165933783" text-anchor="middle" x="3132" y="7598.7426950807685">
16
</text>
<text font-size="167.83627165933783" text-anchor="middle" x="7768.5" y="4750.7426950807685">
17
</text>
<text font-size="167.83627165933783" text-anchor="middle" x="9524.5" y="556.2426950807683">
18
</text>
<text font-size="167.83627165933783" text-anchor="middle" x="604.5" y="6414.7426950807685">
19
</text>
<text font-size="167.83627165933783" text-anchor="middle" x="6919.5" y="7289.2426950807685">
20
</text>
<text font-size="167.83627165933783" text-anchor="middle" x="3297.5" y="6917.2426950807685">
21
</text>
<text font-size="167.83627165933783" text-anchor="middle" x="4425" y="7400.7426950807685">
22
</text>
<text font-size="167.83627165933783" text-anchor="middle" x="5185.5" y="5697.2426950807685">
23
</text>
<text font-size="167.83627165933783" text-anchor="middle" x="5942" y="951.2426950807683">
24
</text>
<text font-size="167.83627165933783" text-anchor="middle" x="2433" y="5309.7426950807685">
25
</text>
<text font-size="167.83627165933783" text-anchor="middle" x="5283.5" y="6967.2426950807685">
26
</text>
<text font-size="167.83627165933783" text-anchor="middle" x="2570" y="6714.7426950807685">
27
</text>
<text font-size="167.83627165933783" text-anchor="middle" x="9293" y="1541.7426950807683">
28
</text>
<text font-size="167.83627165933783" text-anchor="middle" x="593" y="7731.2426950807685">
29
</text>
<text font-size="167.83627165933783" text-anchor="middle" x="8427" y="8211.242695080768">
30
</text>
<text font-size="167.83627165933783" text-anchor="middle" x="2041.5" y="4297.7426950807685">
31
</text>
<text font-size="167.83627165933783" text-anchor="middle" x="6770" y="3470.742695080768">
32
</text>
<text font-size="167.83627165933783" text-anchor="middle" x="7387" y="525.7426950807683">
33
</text>
<text font-size="167.83627165933783" text-anchor="middle" x="4552.5" y="5809.2426950807685">
34
</text>
<text font-size="167.83627165933783" text-anchor="middle" x="6771" y="6593.7426950807685">
35
</text>
<text font-size="167.83627165933783" text-anchor="middle" x="378" y="9660.742695080768">
36
</text>
<text font-size="167.83627165933783" text-anchor="middle" x="1646" y="9155.242695080768">
37
</text>
<text font-size="167.83627165933783" text-anchor="middle" x="5406" y="9678.242695080768">
38
</text>
<text font-size="167.83627165933783" text-anchor="middle" x="999.5" y="5909.2426950807685">
39
</text>
<text font-size="167.83627165933783" text-anchor="middle" x="6706" y="9791.742695080768">
40
</text>
<text font-size="167.83627165933783" text-anchor="middle" x="2946.5" y="9339.742695080768">
41
</text>
<text font-size="167.83627165933783" text-anchor="middle" x="8108" y="9954.742695080768">
42
</text>
<text font-size="167.83627165933783" text-anchor="middle" x="4935.5" y="1893.2426950807683">
43
</text>
<text font-size="167.83627165933783" text-anchor="middle" x="4386.5" y="4989.2426950807685">
44
</text>
<text font-size="167.83627165933783" text-anchor="middle" x="3278" y="6373.2426950807685">
45
</text>
<text font-size="167.83627165933783" text-anchor="middle" x="9548.5" y="6959.7426950807685">
46
</text>
<text font-size="167.83627165933783" text-anchor="middle" x="1074" y="3923.742695080768">
47
</text>
<text font-size="167.83627165933783" text-anchor="middle" x="8852.5" y="3205.742695080768">
48
</text>
<text font-size="167.83627165933783" text-anchor="middle" x="1774" y="6914.2426950807685">
49
</text>
<text font-size="167.83627165933783" text-anchor="middle" x="1737" y="8407.742695080768">
50
</text>
<text font-size="167.83627165933783" text-anchor="middle" x="835" y="4927.7426950807685">
51
</text>
<text font-size="167.83627165933783" text-anchor="middle" x="3495" y="8554.242695080768">
52
</text>
<text font-size="167.83627165933783" text-anchor="middle" x="6345" y="6627.7426950807685">
53
</text>
<text font-size="167.83627165933783" text-anchor="middle" x="8114" y="903.2426950807683">
54
</text>
<text font-size="167.83627165933783" text-anchor="middle" x="8692" y="1527.7426950807683">
55
</text>
<text font-size="167.83627165933783" text-anchor="middle" x="9116.5" y="5686.2426950807685">
56
</text>
<text font-size="167.83627165933783" text-anchor="middle" x="5582" y="1898.7426950807683">
57
</text>
<text font-size="167.83627165933783" text-anchor="middle" x="3026.5" y="2375.242695080768">
58
</text>
<text font-size="167.83627165933783" text-anchor="middle" x="3593.5" y="1165.2426950807683">
59
</text>
<text font-size="167.83627165933783" text-anchor="middle" x="2425.5" y="3818.242695080768">
60
</text>
<text font-size="167.83627165933783" text-anchor="middle" x="6090" y="1856.7426950807683">
61
</text>
<text font-size="167.83627165933783" text-anchor="middle" x="5682.5" y="7539.7426950807685">
62
</text>
<text font-size="167.83627165933783" text-anchor="middle" x="5764" y="4715.2426950807685">
63
</text>
<text font-size="167.83627165933783" text-anchor="middle" x="5984" y="7075.7426950807685">
64
</text>
<text font-size="167.83627165933783" text-anchor="middle" x="5555" y="7750.2426950807685">
65
</text>
<text font-size="167.83627165933783" text-anchor="middle" x="2091.5" y="5309.7426950807685">
66
</text>
<text font-size="167.83627165933783" text-anchor="middle" x="9930" y="5487.2426950807685">
67
</text>
<text font-size="167.83627165933783" text-anchor="middle" x="8406.5" y="146.74269508076824">
68
</text>
<text font-size="167.83627165933783" text-anchor="middle" x="5839.5" y="367.7426950807682">
69
</text>
<text font-size="167.83627165933783" text-anchor="middle" x="5923.5" y="5610.7426950807685">
70
</text>
</svg>